<?xml version="1.0" standalone="no"?><!DOCTYPE svg PUBLIC "-//W3C//DTD SVG 1.1//EN" "http://www.w3.org/Graphics/SVG/1.1/DTD/svg11.dtd"><svg height="1200" node-id="1" sillyvg="true" template-height="1200" template-width="1200" version="1.1" viewBox="0 0 1200 1200" width="1200" xmlns="http://www.w3.org/2000/svg" xmlns:xlink="http://www.w3.org/1999/xlink"><defs node-id="110"><linearGradient gradientTransform="matrix(0.9708 -0.2399 0.2399 0.9708 -510.0224 -122.689)" gradientUnits="userSpaceOnUse" id="SVGID_1_" node-id="9" spreadMethod="pad" x1="615.4799" x2="648.656" y1="1008.1218" y2="1008.1218"><stop offset="0.0000008722046" stop-color="#ffb957"></stop><stop offset="1" stop-color="#ffb965"></stop></linearGradient><linearGradient gradientTransform="matrix(0.9293 -0.2947 0.2165 0.9229 -493.6853 -66.6213)" gradientUnits="userSpaceOnUse" id="SVGID_00000167370009716813067270000016279074454945385868_" node-id="13" spreadMethod="pad" x1="575.3405" x2="608.4153" y1="1090.5483" y2="1090.5483"><stop offset="0.0000008722046" stop-color="#ffb957"></stop><stop offset="1" stop-color="#ffb965"></stop></linearGradient><linearGradient gradientTransform="matrix(-0.9708 -0.2399 -0.2399 0.9708 -948.04 -122.689)" gradientUnits="userSpaceOnUse" id="SVGID_00000088102190088416441210000015252967742138786471_" node-id="21" spreadMethod="pad" x1="-1959.3422" x2="-1926.166" y1="370.1031" y2="370.1031"><stop offset="0.0000008722046" stop-color="#ffb957"></stop><stop offset="1" stop-color="#ffb965"></stop></linearGradient><linearGradient gradientTransform="matrix(-0.9293 -0.2947 -0.2165 0.9229 -964.3771 -66.6213)" gradientUnits="userSpaceOnUse" id="SVGID_00000057128895959255555910000013662460773511059106_" node-id="25" spreadMethod="pad" x1="-2081.015" x2="-2047.94" y1="240.5721" y2="240.5721"><stop offset="0.0000008722046" stop-color="#ffb957"></stop><stop offset="1" stop-color="#ffb965"></stop></linearGradient><linearGradient gradientUnits="userSpaceOnUse" id="SVGID_00000078742751967970061470000010430669631516215948_" node-id="30" spreadMethod="pad" x1="217.656" x2="965.5424" y1="466.3959" y2="466.3959"><stop offset="0.0000008722046" stop-color="#ffb957"></stop><stop offset="1" stop-color="#ffb965"></stop></linearGradient><linearGradient gradientUnits="userSpaceOnUse" id="SVGID_00000080168449318345533440000009145193540969124758_" node-id="36" spreadMethod="pad" x1="603.2576" x2="605.2003" y1="959.6361" y2="826.3212"><stop offset="0.000000992013" stop-color="#ffdbd4"></stop><stop offset="1" stop-color="#ffbfaa"></stop></linearGradient><linearGradient gradientUnits="userSpaceOnUse" id="SVGID_00000031169239506967511040000016459263167803717053_" node-id="45" spreadMethod="pad" x1="808.2153" x2="869.5635" y1="673.578" y2="529.6378"><stop offset="0.0000004984026" stop-color="#ffdbd4"></stop><stop offset="1" stop-color="#ffd1bf"></stop></linearGradient><linearGradient gradientUnits="userSpaceOnUse" id="SVGID_00000096739415690126361430000011774367455570641064_" node-id="49" spreadMethod="pad" x1="856.5247" x2="853.9857" y1="540.1668" y2="672.067"><stop offset="0.000000258786" stop-color="#fac1b6"></stop><stop offset="1" stop-color="#ffded1"></stop></linearGradient><linearGradient gradientUnits="userSpaceOnUse" id="SVGID_00000099636740646414972170000016516517314018847671_" node-id="53" spreadMethod="pad" x1="856.5247" x2="853.9857" y1="540.1749" y2="672.0751"><stop offset="0.000000258786" stop-color="#fac1b6"></stop><stop offset="1" stop-color="#ffded1"></stop></linearGradient><linearGradient gradientUnits="userSpaceOnUse" id="SVGID_00000096051491415734893960000011300905574908809660_" node-id="58" spreadMethod="pad" x1="-1334.0808" x2="-1395.429" y1="671.1686" y2="527.2284"><stop offset="0.0000004984026" stop-color="#ffdbd4"></stop><stop offset="1" stop-color="#ffd1bf"></stop></linearGradient><linearGradient gradientUnits="userSpaceOnUse" id="SVGID_00000118365586227545125480000009608822806755417759_" node-id="62" spreadMethod="pad" x1="-1382.3903" x2="-1379.8513" y1="537.7574" y2="669.6576"><stop offset="0.000000258786" stop-color="#fac1b6"></stop><stop offset="1" stop-color="#ffded1"></stop></linearGradient><linearGradient gradientUnits="userSpaceOnUse" id="SVGID_00000075854153965405225700000006925556941440409236_" node-id="66" spreadMethod="pad" x1="604.1927" x2="591.9409" y1="222.9518" y2="859.4433"><stop offset="0.0000004984026" stop-color="#ffdbd4"></stop><stop offset="1" stop-color="#ffd1bf"></stop></linearGradient><linearGradient gradientUnits="userSpaceOnUse" id="SVGID_00000075851898071964774010000004761004533710984095_" node-id="87" spreadMethod="pad" x1="598.9781" x2="607.1849" y1="167.2058" y2="365.7063"><stop offset="0.0000008722046" stop-color="#ffc257"></stop><stop offset="1" stop-color="#ffbf6a"></stop></linearGradient></defs><g node-id="330"><g node-id="335"><path d="M 379.78 617.44 C 379.78 617.44 331.51 631.71 327.39 688.18 L 362.97 717.72 C 367.59 725.61 406.92 712.15 425.92 674.86 C 450.46 626.70 379.78 617.44 379.78 617.44 Z" fill="#302720" fill-rule="evenodd" group-id="1,6" node-id="197" stroke="none" target-height="108.16998" target-width="123.06998" target-x="327.39" target-y="617.44"></path><path d="M 327.39 688.18 C 327.39 688.18 278.72 691.14 274.61 747.61 L 310.19 777.15 C 314.81 785.04 367.14 760.77 364.36 719.01 C 333.46 696.04 327.39 688.18 327.39 688.18 Z" fill="#302720" fill-rule="evenodd" group-id="1,6" node-id="199" stroke="none" target-height="96.859985" target-width="92.53003" target-x="274.61" target-y="688.18"></path><path d="M 365.86 722.15 L 365.86 722.15 C 364.94 723.20 363.35 723.30 362.30 722.39 L 325.33 690.05 C 324.28 689.13 324.18 687.54 325.09 686.49 L 325.09 686.49 C 326.01 685.44 327.60 685.34 328.65 686.25 L 365.62 718.59 C 366.67 719.51 366.77 721.11 365.86 722.15 Z" fill="url(#SVGID_1_)" fill-rule="evenodd" group-id="1,6" node-id="201" stroke="none" target-height="37.95996" target-width="42.589996" target-x="324.18" target-y="685.34"></path><path d="M 311.71 781.35 L 311.71 781.35 C 310.82 782.42 309.23 782.57 308.16 781.68 L 273.60 753.06 C 272.53 752.17 272.38 750.58 273.27 749.51 L 273.27 749.51 C 274.16 748.44 275.75 748.29 276.82 749.18 L 311.38 777.80 C 312.45 778.69 312.60 780.28 311.71 781.35 Z" fill="url(#SVGID_00000167370009716813067270000016279074454945385868_)" fill-rule="evenodd" group-id="1,6" node-id="203" stroke="none" target-height="34.28003" target-width="40.22" target-x="272.38" target-y="748.29"></path><path d="M 309.73 781.75 C 278.83 758.78 272.77 750.92 272.77 750.92 C 272.77 750.92 227.62 753.67 220.62 804.32 C 220.11 808.01 221.60 811.69 224.46 814.07 L 236.51 824.07 C 240.17 822.51 244.45 820.67 246.97 819.61 C 246.97 819.61 244.16 823.42 240.33 827.25 L 255.57 839.90 C 260.18 847.78 312.52 823.51 309.73 781.75 Z" fill="#302720" fill-rule="evenodd" group-id="1,6" node-id="205" stroke="none" target-height="96.86005" target-width="92.40999" target-x="220.11" target-y="750.92"></path></g><g node-id="336"><path d="M 814.85 615.87 C 814.85 615.87 863.12 630.14 867.24 686.61 L 831.66 716.15 C 827.04 724.04 787.71 710.58 768.71 673.29 C 744.17 625.12 814.85 615.87 814.85 615.87 Z" fill="#302720" fill-rule="evenodd" group-id="1,7" node-id="210" stroke="none" target-height="108.16998" target-width="123.07001" target-x="744.17" target-y="615.87"></path><path d="M 867.23 686.61 C 867.23 686.61 915.90 689.57 920.01 746.04 L 884.43 775.58 C 879.81 783.47 827.48 759.20 830.26 717.44 C 861.17 694.47 867.23 686.61 867.23 686.61 Z" fill="#302720" fill-rule="evenodd" group-id="1,7" node-id="212" stroke="none" target-height="96.859985" target-width="92.53003" target-x="827.48" target-y="686.61"></path><path d="M 828.77 720.58 L 828.77 720.58 C 829.69 721.63 831.28 721.73 832.33 720.82 L 869.30 688.48 C 870.35 687.56 870.45 685.97 869.54 684.92 L 869.54 684.92 C 868.62 683.87 867.03 683.77 865.98 684.68 L 829.01 717.02 C 827.96 717.94 827.86 719.53 828.77 720.58 Z" fill="url(#SVGID_00000088102190088416441210000015252967742138786471_)" fill-rule="evenodd" group-id="1,7" node-id="214" stroke="none" target-height="37.95996" target-width="42.590027" target-x="827.86" target-y="683.77"></path><path d="M 882.92 779.78 L 882.92 779.78 C 883.81 780.85 885.40 781.00 886.47 780.11 L 921.03 751.49 C 922.10 750.60 922.25 749.01 921.36 747.94 L 921.36 747.94 C 920.47 746.87 918.88 746.72 917.81 747.61 L 883.25 776.23 C 882.18 777.12 882.03 778.71 882.92 779.78 Z" fill="url(#SVGID_00000057128895959255555910000013662460773511059106_)" fill-rule="evenodd" group-id="1,7" node-id="216" stroke="none" target-height="34.28003" target-width="40.21997" target-x="882.03" target-y="746.72"></path><path d="M 974.01 802.75 C 967.01 752.10 921.86 749.35 921.86 749.35 C 921.86 749.35 915.80 757.21 884.90 780.18 C 882.12 821.94 934.45 846.21 939.07 838.32 L 946.19 832.41 L 947.23 819.07 L 952.66 827.04 L 970.17 812.50 C 973.03 810.12 974.52 806.44 974.01 802.75 Z" fill="#302720" fill-rule="evenodd" group-id="1,7" node-id="218" stroke="none" target-height="96.86005" target-width="92.400024" target-x="882.12" target-y="749.35"></path></g></g><path d="M 965.54 466.40 C 965.54 498.87 926.14 530.00 856.02 552.96 C 785.89 575.91 690.78 588.81 591.60 588.81 C 492.42 588.81 397.31 575.91 327.18 552.96 C 257.06 530.00 217.66 498.87 217.66 466.40 C 217.66 433.93 257.06 402.80 327.18 379.84 C 397.31 356.89 492.42 343.99 591.60 343.99 C 690.78 343.99 785.89 356.89 856.02 379.84 C 926.14 402.80 965.54 433.93 965.54 466.40 Z" fill="url(#SVGID_00000078742751967970061470000010430669631516215948_)" fill-rule="evenodd" node-id="222" stroke="none" target-height="244.82" target-width="747.88" target-x="217.66" target-y="343.99"></path><path d="M 504.68 860.19 L 504.84 855.22 C 504.84 855.22 503.36 855.57 500.29 856.70 C 500.29 856.70 502.61 861.35 504.68 860.19 Z" fill="#dbdbdd" fill-rule="evenodd" node-id="224" stroke="none" target-height="6.130005" target-width="4.549988" target-x="500.29" target-y="855.22"></path><path d="M 699.84 860.19 L 699.68 855.22 C 699.68 855.22 701.16 855.57 704.23 856.70 C 704.23 856.70 701.91 861.35 699.84 860.19 Z" fill="#dbdbdd" fill-rule="evenodd" node-id="226" stroke="none" target-height="6.130005" target-width="4.549988" target-x="699.68" target-y="855.22"></path><path d="M 697.31 825.17 L 601.06 826.55 L 504.81 825.17 C 504.81 825.17 507.31 883.50 496.57 925.14 C 491.06 946.51 511.34 964.99 533.40 964.99 L 598.39 964.99 L 603.73 964.99 L 678.16 964.99 C 701.78 964.99 716.15 943.65 710.45 920.73 C 700.16 879.44 697.31 825.17 697.31 825.17 Z" fill="url(#SVGID_00000080168449318345533440000009145193540969124758_)" fill-rule="evenodd" node-id="228" stroke="none" target-height="139.82" target-width="225.09003" target-x="491.06" target-y="825.17"></path><path d="M 339.09 426.82 L 339.09 542.14 L 326.61 556.24 C 326.61 556.24 278.64 484.99 306.05 390.31 C 333.46 295.63 339.09 426.82 339.09 426.82 Z" fill="#302720" fill-rule="evenodd" node-id="230" stroke="none" target-height="260.61" target-width="60.44998" target-x="278.64" target-y="295.63"></path><path d="M 499.58 858.11 C 455.60 881.81 384.53 931.03 363.16 936.69 C 291.13 955.78 220.05 1010.28 171.01 1200.00 L 1028.98 1200.00 C 1028.98 1200.00 966.37 996.36 854.17 940.68 C 821.94 925.97 755.22 890.77 717.77 864.80 C 688.04 848.50 666.42 916.43 603.66 920.34 C 549.79 923.70 519.63 870.11 499.58 858.11 Z" fill="#e6f3ff" fill-rule="evenodd" node-id="232" stroke="none" target-height="351.5" target-width="857.97" target-x="171.01" target-y="848.5"></path><path d="M 370.11 1059.89 C 370.11 1059.89 298.92 1084.47 285.93 1200.00 L 326.33 1200.00 C 326.32 1200.00 333.14 1129.97 370.11 1059.89 Z" fill="#a8c7e2" fill-rule="evenodd" node-id="234" stroke="none" target-height="140.10999" target-width="84.17999" target-x="285.93" target-y="1059.89"></path><path d="M 817.75 1066.56 C 817.75 1066.56 883.77 1138.97 895.76 1200.00 L 849.30 1200.00 C 849.29 1200.00 854.72 1136.64 817.75 1066.56 Z" fill="#a8c7e2" fill-rule="evenodd" node-id="236" stroke="none" target-height="133.43994" target-width="78.01001" target-x="817.75" target-y="1066.56"></path><path d="M 799.35 536.45 C 799.35 536.45 886.08 490.01 908.08 531.89 C 930.08 573.76 876.54 714.15 799.35 684.75 L 799.35 536.45 Z" fill="url(#SVGID_00000031169239506967511040000016459263167803717053_)" fill-rule="evenodd" group-id="2" node-id="240" stroke="none" target-height="224.14001" target-width="130.73004" target-x="799.35" target-y="490.01"></path><path d="M 855.07 540.19 C 855.07 540.19 900.88 527.57 898.01 562.65 C 895.14 597.74 874.60 669.17 812.00 671.65 L 855.07 540.19 Z" fill="url(#SVGID_00000096739415690126361430000011774367455570641064_)" fill-rule="evenodd" group-id="2" node-id="242" stroke="none" target-height="144.08002" target-width="88.880005" target-x="812" target-y="527.57"></path><path d="M 855.07 540.20 C 855.07 540.20 900.88 527.58 898.01 562.66 C 895.14 597.75 874.60 669.18 812.00 671.66 L 855.07 540.20 Z" fill="url(#SVGID_00000099636740646414972170000016516517314018847671_)" fill-rule="evenodd" group-id="2" node-id="244" stroke="none" target-height="144.07996" target-width="88.880005" target-x="812" target-y="527.58"></path><path d="M 391.15 682.34 C 313.96 711.74 260.43 571.36 282.42 529.48 C 304.42 487.61 391.15 534.04 391.15 534.04 L 391.15 682.34 Z" fill="url(#SVGID_00000096051491415734893960000011300905574908809660_)" fill-rule="evenodd" group-id="3" node-id="249" stroke="none" target-height="224.13" target-width="130.72" target-x="260.43" target-y="487.61"></path><path d="M 335.43 537.78 C 335.43 537.78 289.62 525.16 292.49 560.24 C 295.36 595.32 315.90 666.76 378.50 669.24 L 335.43 537.78 Z" fill="url(#SVGID_00000118365586227545125480000009608822806755417759_)" fill-rule="evenodd" group-id="3" node-id="251" stroke="none" target-height="144.08002" target-width="88.880005" target-x="289.62" target-y="525.16"></path><path d="M 860.34 595.02 C 860.34 807.19 701.90 861.41 597.32 861.41 C 495.18 861.41 334.30 807.18 334.30 595.02 C 334.30 382.86 345.37 210.85 597.32 210.85 C 821.93 210.85 860.34 382.85 860.34 595.02 Z" fill="url(#SVGID_00000075854153965405225700000006925556941440409236_)" fill-rule="evenodd" node-id="254" stroke="none" target-height="650.55994" target-width="526.04004" target-x="334.3" target-y="210.85"></path><path d="M 670.35 505.79 C 671.77 484.27 692.76 487.14 705.66 488.00 C 721.72 489.06 752.18 495.63 779.22 516.81 C 791.19 526.19 792.48 535.06 771.82 529.62 C 744.17 522.34 725.43 520.45 713.51 518.64 C 694.76 515.80 669.61 517.08 670.35 505.79 Z" fill="#3a302e" fill-rule="evenodd" node-id="256" stroke="none" target-height="50.79001" target-width="122.869995" target-x="669.61" target-y="484.27"></path><path d="M 479.46 517.96 C 467.80 519.72 449.48 521.58 422.43 528.70 C 402.22 534.02 403.48 525.34 415.19 516.17 C 441.63 495.46 471.43 489.04 487.14 487.99 C 499.76 487.15 520.29 484.34 521.68 505.39 C 522.40 516.44 497.79 515.18 479.46 517.96 Z" fill="#3a302e" fill-rule="evenodd" node-id="258" stroke="none" target-height="49.680023" target-width="120.18002" target-x="402.22" target-y="484.34"></path><path d="M 617.23 696.40 C 617.23 702.94 607.02 708.24 594.43 708.24 C 581.84 708.24 571.63 702.94 571.63 696.40 C 571.63 689.86 581.84 676.46 594.43 676.46 C 607.02 676.46 617.23 689.86 617.23 696.40 Z" fill="#ffcbbb" fill-rule="nonzero" node-id="260" stroke="none" target-height="31.779968" target-width="45.599976" target-x="571.63" target-y="676.46"></path><path d="M 480.77 537.07 C 469.80 537.07 460.05 544.38 453.79 555.74 L 459.21 561.22 L 451.18 561.22 C 448.26 568.35 446.58 576.62 446.58 585.46 C 446.58 612.19 461.89 633.86 480.78 633.86 C 499.67 633.86 514.98 612.19 514.98 585.46 C 514.97 558.74 499.66 537.07 480.77 537.07 Z" fill="#3a302e" fill-rule="evenodd" group-id="4,8" node-id="266" stroke="none" target-height="96.78998" target-width="68.399994" target-x="446.58" target-y="537.07"></path><path d="M 499.91 576.43 C 499.91 584.27 496.36 590.62 491.97 590.62 C 487.58 590.62 484.03 584.27 484.03 576.43 C 484.03 568.59 487.58 562.24 491.97 562.24 C 496.36 562.24 499.91 568.59 499.91 576.43 Z" fill="#fff9f8" fill-rule="evenodd" group-id="4,8" node-id="268" stroke="none" target-height="28.380005" target-width="15.880005" target-x="484.03" target-y="562.24"></path><path d="M 713.86 537.07 C 724.83 537.07 734.58 544.38 740.84 555.74 L 735.42 561.22 L 745.24 566.24 C 748.16 573.37 748.05 576.63 748.05 585.46 C 748.05 612.19 732.74 633.86 713.85 633.86 C 694.96 633.86 679.65 612.19 679.65 585.46 C 679.66 558.74 694.97 537.07 713.86 537.07 Z" fill="#3a302e" fill-rule="evenodd" group-id="4,9" node-id="273" stroke="none" target-height="96.78998" target-width="68.50995" target-x="679.65" target-y="537.07"></path><path d="M 705.92 576.43 C 705.92 584.27 702.37 590.62 697.98 590.62 C 693.59 590.62 690.04 584.27 690.04 576.43 C 690.04 568.59 693.59 562.24 697.98 562.24 C 702.37 562.24 705.92 568.59 705.92 576.43 Z" fill="#fff9f8" fill-rule="evenodd" group-id="4,9" node-id="275" stroke="none" target-height="28.380005" target-width="15.880005" target-x="690.04" target-y="562.24"></path><path d="M 498.39 693.19 C 498.39 703.80 479.70 712.41 456.64 712.41 C 433.58 712.41 414.89 703.80 414.89 693.19 C 414.89 682.58 433.58 673.97 456.64 673.97 C 479.70 673.97 498.39 682.58 498.39 693.19 Z" fill="#ffc2c2" fill-rule="evenodd" node-id="279" stroke="none" target-height="38.440002" target-width="83.5" target-x="414.89" target-y="673.97"></path><path d="M 787.22 693.19 C 787.22 703.80 768.53 712.41 745.47 712.41 C 722.41 712.41 703.72 703.80 703.72 693.19 C 703.72 682.58 722.41 673.97 745.47 673.97 C 768.53 673.97 787.22 682.58 787.22 693.19 Z" fill="#ffc2c2" fill-rule="evenodd" node-id="281" stroke="none" target-height="38.440002" target-width="83.5" target-x="703.72" target-y="673.97"></path><path d="M 599.38 768.97 C 578.38 768.97 564.34 761.32 563.47 760.83 C 561.06 759.48 560.20 756.43 561.55 754.03 C 562.90 751.62 565.94 750.76 568.34 752.10 L 568.34 752.10 C 569.49 752.73 596.80 767.41 632.06 751.89 C 634.59 750.78 637.54 751.93 638.65 754.45 C 639.76 756.98 638.61 759.93 636.09 761.04 C 622.60 766.98 610.09 768.97 599.38 768.97 Z" fill="#ffb094" fill-rule="nonzero" group-id="5" node-id="285" stroke="none" target-height="18.20996" target-width="79.56" target-x="560.2" target-y="750.76"></path><path d="M 579.89 776.30 C 588.68 777.45 604.32 778.86 618.55 776.77 C 620.55 776.48 621.57 779.07 619.89 780.19 C 615.13 783.35 608.16 786.92 600.50 787.33 C 592.09 787.78 583.84 783.34 578.57 779.71 C 576.95 778.58 577.94 776.04 579.89 776.30 Z" fill="#fcc9bb" fill-rule="evenodd" node-id="288" stroke="none" target-height="11.740051" target-width="44.619995" target-x="576.95" target-y="776.04"></path><path d="M 742.23 206.20 C 742.23 206.20 871.50 298.45 887.19 376.50 C 905.62 468.21 880.23 514.75 880.23 514.75 C 880.23 514.75 872.74 517.90 858.13 515.74 C 857.14 515.59 854.59 485.70 854.06 485.62 C 793.83 475.92 652.47 461.57 616.91 394.02 C 616.91 394.02 602.23 427.31 560.96 444.62 C 476.80 479.93 442.20 478.81 380.86 481.56 C 343.84 483.22 321.93 444.62 321.85 385.82 C 321.70 268.68 433.90 186.76 527.36 167.18 C 601.75 151.59 662.18 129.59 742.23 206.20 Z" fill="#302720" fill-rule="evenodd" node-id="290" stroke="none" target-height="388.31003" target-width="583.92" target-x="321.7" target-y="129.59"></path><path d="M 298.79 391.72 C 299.83 389.44 304.71 373.92 305.31 371.48 L 338.84 235.09 C 352.08 181.36 413.68 141.43 480.20 141.43 L 724.86 141.43 C 791.37 141.43 848.22 182.19 866.22 235.09 L 911.45 381.58 C 911.71 382.41 918.27 406.04 918.46 406.88 C 919.69 412.44 765.02 350.82 611.58 348.40 C 455.78 345.94 294.65 400.76 298.79 391.72 Z" fill="url(#SVGID_00000075851898071964774010000004761004533710984095_)" fill-rule="evenodd" node-id="292" stroke="none" target-height="271.01" target-width="625.04004" target-x="294.65" target-y="141.43"></path><path d="M 403.49 923.97 C 405.45 930.13 425.27 989.61 514.98 985.78 C 593.25 982.44 592.37 948.75 604.10 925.66 L 403.49 923.97 Z" fill="#dce7ef" fill-rule="evenodd" node-id="294" stroke="none" target-height="65.640015" target-width="200.60999" target-x="403.49" target-y="923.97"></path><path d="M 809.58 923.97 C 807.62 930.13 787.80 989.61 698.09 985.78 C 619.82 982.44 620.70 948.75 608.97 925.66 L 809.58 923.97 Z" fill="#dce7ef" fill-rule="evenodd" node-id="296" stroke="none" target-height="65.640015" target-width="200.61005" target-x="608.97" target-y="923.97"></path><path d="M 808.25 917.86 C 800.16 913.61 791.77 909.10 783.35 904.45 L 776.40 902.58 C 783.21 946.48 781.78 1008.08 777.97 1063.84 C 777.36 1072.80 770.26 1079.93 761.31 1080.64 C 601.15 1093.38 485.77 1086.09 434.61 1081.14 C 425.80 1080.29 418.90 1073.19 418.29 1064.35 C 414.57 1010.04 413.09 950.13 419.27 906.38 C 403.26 916.21 388.54 924.99 377.41 930.65 C 351.42 964.86 306.67 1043.75 284.44 1200.00 L 770.71 1200.00 L 770.71 1200.00 L 854.36 1200.00 L 911.78 1200.00 C 886.11 1019.57 830.42 942.29 808.25 917.86 Z" fill="#86b1d1" fill-rule="evenodd" node-id="298" stroke="none" target-height="297.41998" target-width="627.34" target-x="284.44" target-y="902.58"></path><path d="M 597.46 943.33 C 597.46 943.33 606.41 938.68 615.63 953.00 C 622.43 963.56 630.82 973.84 628.34 1004.09 C 625.19 1042.51 617.19 1062.39 608.51 1065.02 C 606.22 1065.72 602.59 1066.06 602.32 1064.12 C 599.68 1045.08 582.75 1025.53 580.25 1008.35 C 575.44 975.32 593.44 942.91 593.44 942.91 L 597.46 943.33 Z" fill="#ed6356" fill-rule="evenodd" node-id="300" stroke="none" target-height="127.380066" target-width="55.380005" target-x="575.44" target-y="938.68"></path><path d="M 608.98 949.92 C 608.98 949.92 607.37 962.18 605.08 991.55 C 603.42 1012.91 590.23 1029.02 582.80 1036.51 C 580.74 1038.58 577.21 1037.38 576.83 1034.48 C 575.32 1022.91 572.76 999.21 575.29 987.58 C 578.71 971.85 590.22 943.71 590.22 943.71 L 608.98 949.92 Z" fill="#dd5d57" fill-rule="evenodd" node-id="302" stroke="none" target-height="94.869934" target-width="36.21997" target-x="572.76" target-y="943.71"></path><path d="M 594.85 948.16 C 594.85 948.16 590.11 968.63 590.11 969.03 C 590.11 969.43 596.40 949.87 596.40 949.87 L 594.85 948.16 Z" fill="#d65656" fill-rule="evenodd" node-id="304" stroke="none" target-height="21.27002" target-width="6.290039" target-x="590.11" target-y="948.16"></path><path d="M 603.93 941.61 C 603.93 941.61 601.34 961.22 601.34 961.63 C 601.34 962.03 605.49 943.33 605.49 943.33 L 603.93 941.61 Z" fill="#d65656" fill-rule="evenodd" node-id="306" stroke="none" target-height="20.420044" target-width="4.1499634" target-x="601.34" target-y="941.61"></path><path d="M 610.53 947.55 C 610.53 947.55 615.27 968.02 615.27 968.42 C 615.27 968.82 608.98 949.26 608.98 949.26 L 610.53 947.55 Z" fill="#e25c56" fill-rule="evenodd" node-id="308" stroke="none" target-height="21.27002" target-width="6.290039" target-x="608.98" target-y="947.55"></path><path d="M 615.63 953.00 C 612.64 953.36 605.21 951.06 602.22 951.08 C 598.75 951.11 592.28 953.21 588.81 952.79 C 584.57 952.18 582.59 948.56 581.99 942.90 C 581.61 938.73 581.61 934.55 581.99 930.38 C 582.59 924.72 587.41 919.18 591.65 918.57 C 594.88 918.18 598.11 919.44 601.34 919.44 C 604.57 919.44 607.80 918.18 611.03 918.57 C 615.26 919.18 620.09 924.72 620.69 930.38 C 621.07 934.55 621.07 938.73 620.69 942.90 C 620.09 948.57 619.86 952.39 615.63 953.00 Z" fill="#ed6356" fill-rule="evenodd" node-id="310" stroke="none" target-height="35.179993" target-width="39.460022" target-x="581.61" target-y="918.18"></path><path d="M 502.35 857.34 C 501.83 856.62 500.86 856.39 500.07 856.80 C 488.33 862.86 409.01 904.26 403.86 920.01 C 397.21 940.35 468.88 992.32 540.50 973.68 C 583.89 962.39 620.73 904.71 602.93 901.23 C 527.29 886.44 506.43 863.04 502.35 857.34 Z" fill="#e6f3ff" fill-rule="evenodd" node-id="312" stroke="none" target-height="135.93" target-width="223.51999" target-x="397.21" target-y="856.39"></path><path d="M 702.32 857.56 C 702.94 856.72 704.07 856.45 704.99 856.93 C 717.52 863.40 795.85 904.37 800.97 920.01 C 807.62 940.35 735.95 992.32 664.33 973.68 C 620.94 962.39 584.10 904.71 601.90 901.23 C 676.61 886.62 697.88 863.61 702.32 857.56 Z" fill="#e6f3ff" fill-rule="evenodd" node-id="314" stroke="none" target-height="135.87" target-width="223.52002" target-x="584.1" target-y="856.45"></path><path d="M 303.38 1102.03 C 303.38 1102.03 279.69 1134.39 277.44 1200.00 L 284.45 1200.00 C 284.45 1200.00 294.65 1133.85 303.38 1102.03 Z" fill="#dde9f2" fill-rule="evenodd" node-id="316" stroke="none" target-height="97.96997" target-width="25.940002" target-x="277.44" target-y="1102.03"></path><path d="M 892.87 1102.03 C 892.87 1102.03 916.56 1134.39 918.81 1200.00 L 911.80 1200.00 C 911.79 1200.00 901.59 1133.85 892.87 1102.03 Z" fill="#dde9f2" fill-rule="evenodd" node-id="318" stroke="none" target-height="97.96997" target-width="25.940002" target-x="892.87" target-y="1102.03"></path><path d="M 965.54 466.40 C 965.54 465.49 965.50 464.58 965.44 463.68 L 957.00 455.55 C 957.00 455.55 979.76 491.76 906.22 528.78 L 907.93 531.70 C 944.42 512.80 965.54 490.41 965.54 466.40 Z" fill="#ffc76e" fill-rule="evenodd" node-id="320" stroke="none" target-height="76.150024" target-width="73.54004" target-x="906.22" target-y="455.55"></path><path d="M 217.66 466.40 C 217.66 465.49 217.70 464.58 217.76 463.68 L 225.23 457.09 C 225.23 457.09 205.01 495.68 281.44 531.60 L 280.38 534.27 C 238.89 514.45 217.66 490.41 217.66 466.40 Z" fill="#ffc76e" fill-rule="evenodd" node-id="322" stroke="none" target-height="77.18002" target-width="76.43001" target-x="205.01" target-y="457.09"></path><path d="M 301.87 407.24 C 301.87 407.24 576.38 328.82 892.27 409.68 C 892.27 409.68 612.92 228.94 301.87 407.24 Z" fill="#493626" fill-rule="evenodd" node-id="324" stroke="none" target-height="180.73999" target-width="590.4" target-x="301.87" target-y="228.94"></path><path d="M 596.41 298.14 C 389.89 298.14 217.66 398.79 217.66 466.39 C 217.66 466.39 287.57 355.02 594.43 355.44 C 901.29 355.86 965.54 466.39 965.54 466.39 C 965.54 398.79 802.93 298.14 596.41 298.14 Z" fill="#ffc76e" fill-rule="evenodd" node-id="326" stroke="none" target-height="168.25" target-width="747.88" target-x="217.66" target-y="298.14"></path><path d="M 608.58 228.55 C 709.82 228.55 802.87 243.16 876.24 267.59 L 866.21 235.09 C 865.56 233.19 864.86 231.30 864.11 229.43 C 792.73 207.35 704.32 194.28 608.58 194.28 C 506.52 194.28 412.78 209.13 339.14 233.92 C 339.04 234.31 338.93 234.70 338.83 235.09 L 329.91 271.38 C 404.88 244.68 502.21 228.55 608.58 228.55 Z" fill="#86b1d1" fill-rule="evenodd" node-id="328" stroke="none" target-height="77.100006" target-width="546.32996" target-x="329.91" target-y="194.28"></path></svg>