<?xml version="1.0" standalone="no"?><!DOCTYPE svg PUBLIC "-//W3C//DTD SVG 1.1//EN" "http://www.w3.org/Graphics/SVG/1.1/DTD/svg11.dtd"><svg t="1603866515507" class="icon" viewBox="0 0 1092 1024" version="1.1" xmlns="http://www.w3.org/2000/svg" p-id="2693" xmlns:xlink="http://www.w3.org/1999/xlink" width="213.28125" height="200"><defs><style type="text/css"></style></defs><path d="M1026.133333 704v288c0 17.92-14.08 32-32 32h-896c-17.92 0-32-14.08-32-32V704L162.133333 640c53.12 0 96 42.88 96 96 0 17.92 14.08 32 32 32s32-14.08 32-32C322.133333 682.88 365.013333 640 418.133333 640s96 42.88 96 96c0 17.92 14.08 32 32 32s32-14.08 32-32C578.133333 682.88 621.013333 640 674.133333 640s96 42.88 96 96c0 17.92 14.08 32 32 32s32-14.08 32-32C834.133333 682.88 877.013333 640 930.133333 640l96 64z" fill="#BF6015" p-id="2694"></path><path d="M962.133333 320v288c0 17.92-14.08 32-32 32H162.133333c-17.92 0-32-14.08-32-32V320L162.133333 256c53.12 0 96 42.88 96 96 0 17.92 14.08 32 32 32s32-14.08 32-32C322.133333 298.88 365.013333 256 418.133333 256s96 42.88 96 96c0 17.92 14.08 32 32 32s32-14.08 32-32C578.133333 298.88 621.013333 256 674.133333 256s96 42.88 96 96c0 17.92 14.08 32 32 32s32-14.08 32-32C834.133333 298.88 877.013333 256 930.133333 256l32 64z" fill="#994C0F" p-id="2695"></path><path d="M322.133333 192h63.889067c47.616 0 78.574933-50.7648 57.250133-93.346133l-34.850133-69.717334C399.496533 11.093333 373.034667 0 353.058133 0c-19.968 0-44.3904 11.093333-53.333333 28.936533l-34.8416 69.717334c-21.282133 42.496 9.728 93.346133 57.250133 93.346133z" fill="#FD003A" p-id="2696"></path><path d="M578.133333 192h-64c-47.36 0-78.72-50.56-56.96-93.44l34.56-69.76C500.693333 10.88 525.013333 0 544.853333 0H546.133333c20.48 0.64 45.448533 11.52 54.4 28.8l34.56 69.76c21.76 42.88-9.6 93.44-56.96 93.44z" fill="#FD003A" p-id="2697"></path><path d="M706.133333 192h63.889067c47.616 0 78.574933-50.7648 57.250133-93.346133l-34.850133-69.717334C783.496533 11.093333 757.034667 0 737.058133 0c-19.968 0-44.3904 11.093333-53.333333 28.936533l-34.8416 69.717334c-21.282133 42.496 9.728 93.346133 57.250133 93.346133z" fill="#E50027" p-id="2698"></path><path d="M1026.133333 704v288c0 17.92-14.08 32-32 32H546.133333V768c17.92 0 32-14.08 32-32C578.133333 682.88 621.013333 640 674.133333 640s96 42.88 96 96c0 17.92 14.08 32 32 32s32-14.08 32-32C834.133333 682.88 877.013333 640 930.133333 640l96 64z" fill="#994C0F" p-id="2699"></path><path d="M962.133333 320v288c0 17.92-14.08 32-32 32H546.133333V384c17.92 0 32-14.08 32-32C578.133333 298.88 621.013333 256 674.133333 256s96 42.88 96 96c0 17.92 14.08 32 32 32s32-14.08 32-32C834.133333 298.88 877.013333 256 930.133333 256l32 64z" fill="#713708" p-id="2700"></path><path d="M578.133333 192H546.133333V0c20.48 0.64 45.44 11.52 54.4 28.8l34.56 69.76c21.76 42.88-9.6 93.44-56.96 93.44z" fill="#E50027" p-id="2701"></path><path d="M1026.133333 672v32H930.133333c-17.92 0-32 14.08-32 32 0 53.12-42.88 96-96 96a95.872 95.872 0 0 1-96-96c0-17.92-14.08-32-32-32s-32 14.08-32 32c0 53.12-42.88 96-96 96a95.872 95.872 0 0 1-96-96c0-17.92-14.08-32-32-32s-32 14.08-32 32c0 53.12-42.88 96-96 96a95.872 95.872 0 0 1-96-96c0-17.92-14.08-32-32-32H66.133333v-32c0-53.12 42.88-96 96-96h768c53.12 0 96 42.88 96 96z" fill="#CCEFFF" p-id="2702"></path><path d="M1026.133333 672v32H930.133333c-17.92 0-32 14.08-32 32 0 53.12-42.88 96-96 96a95.872 95.872 0 0 1-96-96c0-17.92-14.08-32-32-32s-32 14.08-32 32c0 53.12-42.88 96-96 96v-256h384c53.12 0 96 42.88 96 96z" fill="#ACE3FC" p-id="2703"></path><path d="M962.133333 288v32H930.133333c-17.92 0-32 14.08-32 32 0 53.12-42.88 96-96 96a95.872 95.872 0 0 1-96-96c0-17.92-14.08-32-32-32s-32 14.08-32 32c0 53.12-42.88 96-96 96a95.872 95.872 0 0 1-96-96c0-17.92-14.08-32-32-32s-32 14.08-32 32c0 53.12-42.88 96-96 96a95.872 95.872 0 0 1-96-96c0-17.92-14.08-32-32-32h-32v-32c0-53.12 42.88-96 96-96h640c53.12 0 96 42.88 96 96z" fill="#CCEFFF" p-id="2704"></path><path d="M962.133333 288v32H930.133333c-17.92 0-32 14.08-32 32 0 53.12-42.88 96-96 96a95.872 95.872 0 0 1-96-96c0-17.92-14.08-32-32-32s-32 14.08-32 32c0 53.12-42.88 96-96 96v-256h320c53.12 0 96 42.88 96 96z" fill="#ACE3FC" p-id="2705"></path><path d="M1092.266667 992c0 17.92-14.08 32-32 32H32c-17.92 0-32-14.08-32-32s14.08-32 32-32h1028.266667c17.92 0 32 14.08 32 32z" fill="#FEA832" p-id="2706"></path><path d="M1092.266667 992c0 17.92-14.08 32-32 32H546.133333v-64h514.133334c17.92 0 32 14.08 32 32z" fill="#FE9923" p-id="2707"></path></svg>