<?xml version="1.0" standalone="no"?><!DOCTYPE svg PUBLIC "-//W3C//DTD SVG 1.1//EN" "http://www.w3.org/Graphics/SVG/1.1/DTD/svg11.dtd"><svg t="1603866494096" class="icon" viewBox="0 0 1638 1024" version="1.1" xmlns="http://www.w3.org/2000/svg" p-id="2081" xmlns:xlink="http://www.w3.org/1999/xlink" width="319.921875" height="200"><defs><style type="text/css"></style></defs><path d="M1000.64192 292.9024a142.976 142.976 0 0 1-49.3184-8.832 143.4112 143.4112 0 0 1-81.28-75.0592v-0.0384a145.2032 145.2032 0 0 1-4.7744-111.0144 143.6416 143.6416 0 0 1 74.5344-81.92 142.1824 142.1824 0 0 1 110.0544-4.864 143.3856 143.3856 0 0 1 81.1904 75.1488 145.5104 145.5104 0 0 1 4.864 110.976 144.0896 144.0896 0 0 1-74.5216 81.8944 141.8368 141.8368 0 0 1-60.7488 13.7088z m-43.5968-124.7744a47.7056 47.7056 0 0 0 27.0976 24.96 47.232 47.232 0 0 0 36.6464-1.6128 47.5392 47.5392 0 0 0 24.8448-27.264 48.256 48.256 0 0 0-1.5872-37.0048 47.5776 47.5776 0 0 0-27.0976-25.0496 46.6048 46.6048 0 0 0-36.5568 1.6c-24.0896 11.3024-34.496 40.1792-23.3472 64.384z" fill="#BF6015" p-id="2082"></path><path d="M1049.87072 11.1872c-36.096-13.184-75.2-11.5328-110.08 4.864l40.5504 87.744 0.0256-0.0128a46.6048 46.6048 0 0 1 36.5824-1.6256 47.552 47.552 0 0 1 27.0976 25.0496 48.256 48.256 0 0 1 1.5872 37.0048 47.5648 47.5648 0 0 1-24.8064 27.2384l40.5504 87.7568a144.0896 144.0896 0 0 0 74.5344-81.92 145.5104 145.5104 0 0 0-4.864-110.976 143.3856 143.3856 0 0 0-81.1904-75.136z" fill="#994C0F" p-id="2083"></path><path d="M634.92032 292.8128c-20.4416 0-41.0624-4.4032-60.6592-13.6192-72-33.8304-103.2192-120.3712-69.6576-192.9088a143.36 143.36 0 0 1 81.28-75.0976 142.4128 142.4128 0 0 1 110.0672 4.864c71.9872 33.8432 103.2064 120.3712 69.6448 192.9216v0.0512a144.1024 144.1024 0 0 1-130.688 83.7888z m0.2816-193.5872a48.0768 48.0768 0 0 0-43.5968 27.9296c-11.1488 24.192-0.7424 53.0304 23.2576 64.32 23.8976 11.3536 52.5952 0.7168 63.744-23.3344 11.1616-24.2432 0.7424-53.0816-23.2448-64.384a47.0912 47.0912 0 0 0-20.16-4.5312z" fill="#BF6015" p-id="2084"></path><path d="M678.60672 168.128c-11.1616 24.064-39.8464 34.688-63.744 23.3472l-0.0512-0.0256-40.576 87.7312h0.0256a142.0544 142.0544 0 0 0 60.672 13.6192c54.1824 0 106.304-31.04 130.688-83.7888v-0.0512c33.5488-72.5376 2.3296-159.0784-69.6704-192.9088L655.37472 103.7696c23.9872 11.3152 34.3936 40.128 23.232 64.3584z" fill="#994C0F" p-id="2085"></path><path d="M780.22592 749.8624h0.9472-0.9472z m-165.7984-558.72C509.78752 141.7984 392.66752 136.96 284.17472 176.64a425.664 425.664 0 0 0-220.8 182.9376 364.672 364.672 0 0 0-23.04 42.5856 424.4224 424.4224 0 0 0-17.2672 44.5184c-31.68 93.888-30.72 194.56 2.88 288.4352 33.6 93.888 97.92 172.288 181.4272 222.6176 13.44 8.704 27.8528 16.4608 42.24 23.232 15.36 6.784 29.76 12.5824 45.12 17.4208 45.12 15.488 91.2 23.232 137.28 23.232 49.92 0 99.84-8.704 147.84-26.1376A425.6256 425.6256 0 0 0 800.65472 812.544a364.544 364.544 0 0 0 23.04-42.5856c6.7072-14.528 12.4672-30.0032 18.2272-44.5312 69.12-208.0896-25.92-439.424-227.5072-534.272z" fill="#FEA832" p-id="2086"></path><path d="M249.64032 980.9664c15.36 6.7712 29.76 12.5824 45.12 17.408 45.1072 15.488 91.1872 23.2448 137.28 23.2448 49.92 0 99.84-8.704 147.8272-26.1376a425.6256 425.6256 0 0 0 220.8-182.9376 364.544 364.544 0 0 0 23.04-42.5856c6.72-14.5152 12.48-30.0032 18.24-44.5312 69.056-207.936-25.8304-439.04-227.1104-534.0288L249.64032 980.9664z" fill="#FE9923" p-id="2087"></path><path d="M841.93472 725.44c-5.76 14.5152-11.52 30.0032-18.2272 44.5184a363.8016 363.8016 0 0 1-23.04 42.5984L23.06752 446.6816a425.1392 425.1392 0 0 1 17.28-44.5184 363.9296 363.9296 0 0 1 23.04-42.5856l778.5344 365.8624z" fill="#BF6015" p-id="2088"></path><path d="M841.93472 725.44L452.49472 542.4256l-40.384 87.296L800.65472 812.544a364.544 364.544 0 0 0 23.04-42.5856c6.72-14.5152 12.48-30.0032 18.24-44.5184z" fill="#994C0F" p-id="2089"></path><path d="M394.58752 782.5408L294.74752 998.4c-15.36-4.8384-29.7472-10.6496-45.1072-17.4208a359.8848 359.8848 0 0 1-42.24-23.232l99.84-216.8064c11.52-24.192 40.32-33.8816 64.32-23.2448 23.9872 11.6224 34.56 40.6656 23.04 64.8576z" fill="#BF6015" p-id="2090"></path><path d="M1612.17472 447.6544a370.4704 370.4704 0 0 0-17.28-45.4912 363.0336 363.0336 0 0 0-23.0528-42.5856 425.6 425.6 0 0 0-220.8-182.9376c-108.4672-39.68-225.5872-34.8416-330.2272 14.5152-157.44 73.5616-249.6 231.3344-249.6 395.8784 0 45.4912 7.6928 92.928 23.04 138.4064a425.2288 425.2288 0 0 0 17.28 44.544 364.7104 364.7104 0 0 0 23.04 42.5728 425.6896 425.6896 0 0 0 220.8 182.9376c48.96 17.4208 98.88 26.1376 148.8 26.1376 46.08 0 92.16-7.7568 136.32-23.232a359.1168 359.1168 0 0 0 87.3472-40.6528c83.52-50.3296 147.84-128.7296 181.44-222.6176 33.6-93.9008 34.56-194.56 2.88-287.488z" fill="#FEDB41" p-id="2091"></path><path d="M1609.28192 735.104c33.6-93.8752 34.56-194.5344 2.8928-287.4496a370.4704 370.4704 0 0 0-17.28-45.4912 363.0336 363.0336 0 0 0-23.04-42.5856A425.6 425.6 0 0 0 1351.05472 176.64c-108.48-39.68-225.6-34.8416-330.24 14.5152l-0.0896 0.0512 364.8896 789.76a359.1168 359.1168 0 0 0 42.24-23.232c83.5072-50.3296 147.84-128.7296 181.4272-222.6176z" fill="#FFCC33" p-id="2092"></path><path d="M1427.85472 957.7344A359.8336 359.8336 0 0 1 1340.48192 998.4l-99.84-215.8336c-10.56-24.192 0-53.248 24-64.8576 24-10.6496 51.84-0.96 63.36 23.232l99.84 216.8064z" fill="#BF6015" p-id="2093"></path><path d="M294.76032 998.3872l99.84-215.8464c11.52-24.192 0.9472-53.2352-23.04-64.8448l-0.128-0.0384-121.792 263.296c15.36 6.784 29.7472 12.5952 45.12 17.4336z" fill="#994C0F" p-id="2094"></path><path d="M1612.17472 447.6544L834.57472 812.544a365.44 365.44 0 0 1-23.04-42.5984 424.5248 424.5248 0 0 1-17.28-44.5184L1571.85472 359.5776a363.7632 363.7632 0 0 1 40.32 88.064z" fill="#BF6015" p-id="2095"></path><path d="M1328.01472 740.928c-11.52-24.192-39.36-33.8816-63.36-23.2448-0.192 0.1024-0.3072 0.2944-0.512 0.384l121.472 262.8864a359.1168 359.1168 0 0 0 42.24-23.2192l-99.84-216.8064zM1183.02912 542.5152l40.448 87.5392 388.6848-182.4a370.4704 370.4704 0 0 0-17.28-45.4912 363.0336 363.0336 0 0 0-23.04-42.5856L1183.02912 542.5152z" fill="#994C0F" p-id="2096"></path></svg>