<?xml version="1.0" standalone="no"?><!DOCTYPE svg PUBLIC "-//W3C//DTD SVG 1.1//EN" "http://www.w3.org/Graphics/SVG/1.1/DTD/svg11.dtd"><svg t="1603866465830" class="icon" viewBox="0 0 1024 1024" version="1.1" xmlns="http://www.w3.org/2000/svg" p-id="1082" xmlns:xlink="http://www.w3.org/1999/xlink" width="200" height="200"><defs><style type="text/css"></style></defs><path d="M204.8 122.88h614.4c52.783787 0 95.573333 42.789547 95.573333 95.573333v460.16512c0 52.783787-42.789547 95.573333-95.573333 95.573334H658.179413a95.573333 95.573333 0 0 0-75.154773 36.522666l-22.398293 28.514987a59.76064 59.76064 0 0 1-95.177387-1.570133l-17.913173-24.425814a95.573333 95.573333 0 0 0-77.06624-39.048533H204.8c-52.783787 0-95.573333-42.78272-95.573333-95.573333V218.453333c0-52.783787 42.789547-95.573333 95.573333-95.573333z" fill="#7AB2FF" p-id="1083"></path><path d="M914.773333 244.374187v407.456426c0 67.515733-53.20704 122.238293-118.838613 122.238294H609.28L508.74368 901.12l-93.853013-127.051093h-193.3312c-52.0192 0-96.228693-34.372267-112.3328-82.240854 2.921813 0.32768 5.864107 0.546133 8.82688 0.662187l4.471466 0.088747h574.38208c64.136533 0 116.40832-52.271787 118.756694-117.6576l0.08192-4.580694V162.87744c0-14.00832-2.29376-27.46368-6.51264-39.99744 59.37152 6.813013 105.540267 58.606933 105.540266 121.494187z" fill="#69A6F9" p-id="1084"></path><path d="M811.465387 102.4H219.36128C147.223893 102.4 88.746667 161.416533 88.746667 234.216107v436.271786l0.068266 4.266667c2.23232 70.826667 59.82208 127.54944 130.546347 127.54944l190.306987-0.013653 84.753066 115.46624 1.69984 2.08896a25.975467 25.975467 0 0 0 39.75168-1.39264l91.327147-116.16256 184.265387 0.013653c72.137387 0 130.614613-59.016533 130.614613-131.816107V234.222933C942.08 161.416533 883.602773 102.4 811.465387 102.4z m-592.104107 52.722347h592.104107c43.281067 0 78.370133 35.40992 78.370133 79.09376v436.271786c0 43.677013-35.089067 79.086933-78.370133 79.086934h-196.881067l-2.635093 0.136533a26.057387 26.057387 0 0 0-17.824427 9.837227l-78.015147 99.191466-72.2944-98.495146a26.043733 26.043733 0 0 0-20.992-10.67008H219.36128c-43.281067 0-78.370133-35.40992-78.370133-79.086934V234.222933c0-43.68384 35.089067-79.09376 78.370133-79.09376z" fill="#7B7BA3" p-id="1085"></path><path d="M596.0704 286.72c61.487787 0 104.73472 48.837973 90.801493 125.242027-9.263787 50.824533-67.433813 118.101333-174.4896 201.85088l-0.006826 0.587093-0.375467-0.293547-0.375467 0.293547v-0.587093C404.56192 530.06336 346.385067 462.779733 337.128107 411.962027 323.19488 335.557973 366.441813 286.72 427.9296 286.72c40.174933 0 68.01408 16.554667 83.510613 49.670827l0.559787 1.215146 0.088747-0.191146C527.489707 303.622827 555.485867 286.72 596.0704 286.72z" fill="#F28E8E" p-id="1086"></path><path d="M593.401173 266.315093c-31.266133 0.948907-57.22112 10.888533-76.704426 29.300054l-1.283414 1.256106-2.935466-2.7648C492.120747 275.70176 465.01888 266.24 432.442027 266.24 351.88736 266.24 300.99456 332.506453 316.94848 420.235947l0.785067 3.91168c11.973973 54.934187 67.536213 120.415573 166.406826 199.857493l10.704214 8.51968 0.8192 0.907947a27.136 27.136 0 0 0 17.974613 8.260266l2.3552 0.013654 1.317547-0.02048a27.122347 27.122347 0 0 0 17.892693-8.2944l0.723627-0.846507 10.758826-8.54016c101.225813-81.332907 157.054293-148.036267 167.185067-203.769173C729.838933 332.51328 678.939307 266.24 598.391467 266.24l-4.983467 0.075093z m4.983467 51.124907c46.394027 0 74.226347 36.235947 63.747413 93.866667l-0.580266 2.84672c-8.88832 39.328427-56.36096 95.648427-142.677334 165.799253l-3.4816 2.792107-3.447466-2.798934C423.5264 508.101973 375.876267 450.751147 368.694613 411.306667 358.21568 353.675947 386.048 317.44 432.442027 317.44c29.57312 0 47.568213 10.73152 58.504533 34.146987l0.477867 1.06496c8.97024 19.503787 36.67968 20.138667 46.91968 2.054826l1.2288-2.4576c10.8544-23.866027 28.945067-34.816 58.811733-34.816z" fill="#7B7BA3" p-id="1087"></path><path d="M443.733333 433.493333a27.306667 23.893333 0 1 0 54.613334 0 27.306667 23.893333 0 1 0-54.613334 0Z" fill="#ED8181" p-id="1088"></path><path d="M423.253333 399.36a27.306667 23.893333 0 1 0 54.613334 0 27.306667 23.893333 0 1 0-54.613334 0Z" fill="#FFEBEB" p-id="1089"></path><path d="M653.25056 414.603947C645.802667 456.192 599.005867 511.249067 512.873813 579.781973V580.266667l-0.3072-0.238934-0.300373 0.238934v-0.477867c-36.88448-29.354667-66.56-56.231253-89.012907-80.636587 15.783253 14.854827 33.867093 30.501547 54.265174 46.933334l6.18496 4.95616v0.477866l0.300373-0.238933 0.3072 0.24576v-0.477867l8.922453-7.168c80.44544-65.215147 124.265813-117.896533 131.46112-158.02368 4.655787-25.975467 1.365333-48.059733-7.604906-65.00352 28.2624 14.99136 44.284587 48.448853 36.160853 93.750614z" fill="#ED8181" p-id="1090"></path></svg>