<?xml version="1.0" standalone="no"?><!DOCTYPE svg PUBLIC "-//W3C//DTD SVG 1.1//EN" "http://www.w3.org/Graphics/SVG/1.1/DTD/svg11.dtd"><svg height="1200" node-id="1" sillyvg="true" template-height="1200" template-width="1200" version="1.1" viewBox="0 0 1200 1200" width="1200" xmlns="http://www.w3.org/2000/svg" xmlns:xlink="http://www.w3.org/1999/xlink"><defs node-id="237"></defs><g node-id="786"><g node-id="788"><path d="M 438.20 719.50 C 435.60 719.50 433.10 718.10 431.90 715.70 L 407.90 669.40 C 407.60 668.80 407.40 668.30 407.30 667.60 L 349.30 401.50 C 348.90 399.70 349.20 397.70 350.30 396.20 C 351.30 394.60 352.90 393.50 354.80 393.10 L 381.40 387.30 C 381.90 387.20 382.40 387.10 382.90 387.10 C 386.20 387.10 389.10 389.40 389.80 392.70 L 447.80 658.80 C 447.90 659.40 448.00 660.00 448.00 660.70 L 445.40 712.80 C 445.20 716.00 443.00 718.70 439.80 719.40 C 439.20 719.40 438.70 719.50 438.20 719.50 Z" fill="#73c0d7" fill-rule="nonzero" group-id="1,3" node-id="245" stroke="none" target-height="332.4" target-width="99.100006" target-x="348.9" target-y="387.1"></path><path d="M 382.80 394.20 L 440.80 660.30 L 438.20 712.40 L 414.20 666.10 L 356.20 400.00 L 382.80 394.20 M 382.80 380.00 C 381.80 380.00 380.80 380.10 379.80 380.30 L 353.20 386.10 C 349.50 386.90 346.30 389.10 344.30 392.30 C 342.30 395.50 341.60 399.30 342.40 403.00 L 400.40 669.10 C 400.70 670.30 401.10 671.50 401.70 672.60 L 425.70 718.90 C 428.20 723.70 433.10 726.60 438.30 726.60 C 439.30 726.60 440.30 726.50 441.30 726.30 C 447.60 724.90 452.10 719.50 452.40 713.20 L 455.00 661.10 C 455.10 659.90 455.00 658.60 454.70 657.40 L 396.70 391.30 C 395.20 384.60 389.30 380.00 382.80 380.00 L 382.80 380.00 Z" fill="#22286e" fill-rule="nonzero" group-id="1,3" node-id="247" stroke="none" target-height="346.59998" target-width="113.5" target-x="341.6" target-y="380"></path></g><path d="M 376.30 408.50 L 439.00 696.30 L 440.80 660.30 L 382.80 394.20 Z" fill="#1e7cb9" fill-rule="nonzero" group-id="1" node-id="250" stroke="none" target-height="302.09998" target-width="64.5" target-x="376.3" target-y="394.2"></path><path d="M 362.27 419.24 L 385.23 414.23 L 389.77 435.04 L 366.81 440.05 Z" fill="#48431f" fill-rule="nonzero" group-id="1,4" node-id="254" stroke="none" target-height="25.819977" target-width="27.5" target-x="362.27" target-y="414.23"></path><path d="M 208.00 480.00 C 175.80 480.00 147.10 455.60 139.80 422.10 L 115.30 310.00 C 106.80 270.90 129.60 232.60 166.10 224.60 L 482.50 155.60 C 486.90 154.60 491.50 154.10 496.00 154.10 C 528.20 154.10 556.90 178.50 564.20 212.00 L 588.60 324.10 C 592.70 342.90 589.70 362.10 580.20 378.20 C 570.60 394.50 555.50 405.60 537.80 409.50 L 221.40 478.50 C 217.10 479.60 212.50 480.00 208.00 480.00 Z" fill="#1e7cb9" fill-rule="nonzero" group-id="1,5" node-id="259" stroke="none" target-height="325.9" target-width="485.90002" target-x="106.8" target-y="154.1"></path><path d="M 496.10 161.30 C 524.50 161.30 550.70 182.80 557.40 213.60 L 581.80 325.70 C 589.50 360.90 569.00 395.50 536.40 402.60 L 220.00 471.60 C 216.00 472.50 212.00 472.90 208.00 472.90 C 179.60 472.90 153.40 451.40 146.70 420.50 L 122.30 308.40 C 114.60 273.20 135.10 238.60 167.70 231.50 L 484.10 162.50 C 488.10 161.70 492.10 161.30 496.10 161.30 M 496.10 147.20 C 496.10 147.20 496.10 147.20 496.10 147.20 C 491.10 147.20 486.00 147.70 481.10 148.80 L 164.70 217.80 C 124.30 226.60 99.10 268.70 108.50 311.60 L 132.90 423.70 C 140.90 460.50 172.50 487.20 208.10 487.20 C 213.10 487.20 218.20 486.70 223.10 485.60 L 539.50 416.60 C 559.20 412.30 575.90 400.00 586.50 382.00 C 596.90 364.30 600.20 343.30 595.70 322.80 L 571.30 210.70 C 563.20 173.90 531.60 147.20 496.10 147.20 L 496.10 147.20 Z" fill="#22286e" fill-rule="nonzero" group-id="1,5" node-id="261" stroke="none" target-height="340" target-width="501.1" target-x="99.1" target-y="147.2"></path><path d="M 220.40 456.00 C 191.70 456.00 166.40 435.60 160.20 407.60 L 139.90 314.50 C 136.40 298.50 139.40 282.00 148.30 268.20 C 157.20 254.30 170.90 244.80 186.90 241.30 L 470.50 179.50 C 474.80 178.60 479.20 178.10 483.60 178.10 C 512.30 178.10 537.60 198.50 543.80 226.50 L 564.10 319.60 C 571.30 352.70 550.20 385.60 517.10 392.80 L 233.50 454.60 C 229.20 455.50 224.80 456.00 220.40 456.00 Z" fill="#73c0d7" fill-rule="nonzero" group-id="1,6" node-id="266" stroke="none" target-height="277.9" target-width="434.9" target-x="136.4" target-y="178.1"></path><path d="M 483.60 185.00 C 508.60 185.00 531.30 202.40 536.80 227.80 L 557.10 320.90 C 563.50 350.20 544.80 379.30 515.50 385.70 L 232.00 447.60 C 228.10 448.40 224.30 448.80 220.50 448.80 C 195.50 448.80 172.80 431.40 167.30 406.00 L 147.00 312.90 C 140.60 283.60 159.30 254.50 188.60 248.10 L 472.20 186.30 C 475.90 185.40 479.80 185.00 483.60 185.00 M 483.60 170.90 L 483.60 170.90 C 478.70 170.90 473.80 171.40 469.00 172.50 L 185.40 234.30 C 167.50 238.20 152.30 248.80 142.30 264.30 C 132.40 279.80 129.10 298.10 132.90 316.00 L 153.20 409.10 C 160.00 440.40 188.20 463.10 220.30 463.10 C 225.20 463.10 230.10 462.60 234.90 461.50 L 518.50 399.70 C 555.50 391.60 579.00 355.00 570.90 318.00 L 550.60 224.90 C 543.90 193.60 515.70 170.90 483.60 170.90 L 483.60 170.90 Z" fill="#22286e" fill-rule="nonzero" group-id="1,6" node-id="268" stroke="none" target-height="292.2" target-width="449.9" target-x="129.1" target-y="170.9"></path><path d="M 540.70 314.50 C 546.00 338.60 530.50 362.70 506.40 367.90 L 236.50 426.70 C 212.40 432.00 188.30 416.50 183.10 392.40 L 167.20 319.30 C 161.90 295.20 177.40 271.10 201.50 265.90 L 471.40 207.10 C 495.50 201.80 519.60 217.30 524.80 241.40 L 540.70 314.50 Z" fill="#ffffff" fill-rule="nonzero" group-id="1" node-id="271" stroke="none" target-height="230.2" target-width="384.1" target-x="161.9" target-y="201.8"></path><path d="M 247.90 318.40 L 241.20 320.00 L 231.40 302.40 L 206.50 308.20 C 209.00 320.00 211.80 332.20 214.70 344.70 L 230.90 340.90 L 229.60 327.40 L 235.50 326.00 L 242.60 356.40 L 236.70 357.80 L 232.00 345.10 L 215.70 348.90 L 215.80 349.30 C 218.80 362.10 221.60 374.40 224.70 386.40 L 237.60 384.80 L 238.50 388.80 L 194.80 399.00 L 193.90 395.00 L 204.30 391.50 C 201.90 379.50 199.10 367.40 196.20 355.10 L 195.00 349.90 C 192.20 337.60 189.30 325.50 186.20 313.40 L 175.40 314.90 L 174.50 310.90 L 242.90 295.00 L 247.90 318.40 Z" fill="#22286e" fill-rule="nonzero" group-id="1,7" node-id="275" stroke="none" target-height="104" target-width="73.399994" target-x="174.5" target-y="295"></path><path d="M 282.80 327.50 C 283.50 314.70 290.10 306.70 297.20 305.00 C 302.70 303.70 308.00 304.90 310.80 311.70 C 311.50 317.00 310.20 321.90 304.30 323.30 C 299.80 324.30 296.30 322.20 292.20 318.70 L 290.80 317.50 C 287.10 323.00 285.40 328.70 285.20 337.90 L 287.50 347.70 C 289.00 354.20 291.40 364.10 293.20 371.00 L 304.30 369.50 L 305.10 373.20 L 266.80 382.10 L 266.00 378.40 L 273.80 375.70 C 272.30 368.80 270.10 358.70 268.60 352.10 L 266.30 342.30 C 264.50 334.60 263.50 330.80 262.00 325.20 L 252.90 326.30 L 252.20 323.50 L 276.10 310.10 L 278.00 310.90 L 282.80 327.50 Z" fill="#22286e" fill-rule="nonzero" group-id="1,7" node-id="277" stroke="none" target-height="78.399994" target-width="59.300003" target-x="252.2" target-y="303.7"></path><path d="M 382.90 340.40 C 380.40 351.70 372.30 359.60 360.30 362.40 C 340.90 366.90 323.60 357.90 318.50 335.80 C 313.40 313.60 327.50 297.90 344.30 294.00 C 362.00 289.90 374.30 299.60 377.80 314.60 C 378.50 317.50 378.80 319.60 378.80 322.00 L 338.70 331.30 C 343.60 349.60 354.20 355.00 365.20 352.50 C 373.40 350.60 377.70 345.90 380.30 339.50 L 382.90 340.40 Z M 353.70 323.40 C 359.20 322.10 360.00 319.10 358.30 311.80 C 355.90 301.50 350.20 297.20 343.90 298.60 C 337.40 300.10 333.80 308.60 337.60 327.00 L 353.70 323.40 Z" fill="#22286e" fill-rule="nonzero" group-id="1,7" node-id="279" stroke="none" target-height="77" target-width="69.5" target-x="313.4" target-y="289.9"></path><path d="M 420.80 304.60 C 434.00 305.40 441.00 310.70 443.20 320.40 C 446.40 334.10 437.30 344.60 419.50 348.80 C 410.30 350.90 402.70 350.60 394.80 348.30 L 392.00 332.00 L 399.50 330.20 L 406.80 344.90 C 410.00 345.40 413.10 345.30 416.90 344.40 C 425.90 342.30 430.10 338.00 428.60 331.50 C 427.40 326.50 424.40 323.50 414.30 322.80 L 407.00 322.40 C 395.60 321.60 388.00 317.00 385.70 307.00 C 382.80 294.60 390.40 283.40 407.70 279.40 C 415.60 277.60 422.00 278.10 429.80 279.90 L 432.30 295.00 L 425.70 296.50 L 418.00 283.60 C 415.20 283.00 412.60 283.00 409.10 283.80 C 401.90 285.50 398.00 290.20 399.40 296.10 C 400.40 300.50 403.60 303.50 413.40 304.10 L 420.80 304.60 Z" fill="#22286e" fill-rule="nonzero" group-id="1,7" node-id="281" stroke="none" target-height="73.29999" target-width="63.600006" target-x="382.8" target-y="277.6"></path><path d="M 527.60 317.60 L 528.40 321.30 L 494.20 329.20 L 493.40 325.50 L 500.80 323.00 C 499.30 316.10 497.10 306.10 495.50 299.20 L 491.60 282.20 C 489.50 273.00 485.30 270.50 480.10 271.70 C 476.30 272.60 472.20 275.60 468.40 281.10 L 473.80 304.20 C 475.30 310.80 477.80 321.00 479.60 328.00 L 486.60 327.00 L 487.40 330.70 L 453.30 338.60 L 452.50 334.90 L 460.10 332.40 C 458.60 325.40 456.40 315.30 454.80 308.60 L 440.80 248.20 L 432.00 249.40 L 431.30 246.30 L 456.20 235.20 L 458.10 235.90 L 462.20 255.00 L 467.50 277.90 C 472.60 267.90 477.80 263.00 486.70 260.90 C 498.10 258.20 507.50 263.40 511.20 279.40 L 514.80 294.70 C 516.40 301.70 518.90 311.70 520.60 318.50 L 527.60 317.60 Z" fill="#22286e" fill-rule="nonzero" group-id="1,7" node-id="283" stroke="none" target-height="103.40001" target-width="97.10004" target-x="431.3" target-y="235.2"></path></g><g node-id="787"><g node-id="793"><g node-id="797"><path d="M 393.80 864.30 C 326.30 864.30 205.60 799.60 165.00 765.70 C 85.50 699.40 76.40 678.40 77.30 667.50 C 78.40 655.00 97.60 598.00 99.80 591.50 C 100.40 589.80 101.60 588.30 103.20 587.50 C 132.00 572.40 261.00 571.20 299.90 571.20 C 371.20 571.20 443.10 574.30 497.40 579.70 C 597.90 589.70 603.00 603.80 605.20 609.80 C 620.60 652.10 580.40 757.60 554.40 802.30 C 530.40 843.70 477.90 864.00 394.10 864.30 L 393.80 864.30 Z" fill="#dd4d2d" fill-rule="nonzero" group-id="2,8,12" node-id="293" stroke="none" target-height="293.09998" target-width="544.19995" target-x="76.4" target-y="571.2"></path><path d="M 299.90 578.30 C 434.70 578.30 590.30 589.50 598.50 612.20 C 612.40 650.30 575.20 752.20 548.30 798.70 C 521.30 845.20 458.90 856.90 394.10 857.20 C 394.00 857.20 393.90 857.20 393.70 857.20 C 328.80 857.20 209.60 793.80 169.40 760.30 C 129.10 726.70 82.80 684.80 84.20 668.10 C 85.20 656.10 106.40 593.80 106.40 593.80 C 126.10 583.50 208.20 578.30 299.90 578.30 M 299.90 564.20 C 249.60 564.20 129.30 565.90 99.90 581.30 C 96.70 583.00 94.20 585.80 93.10 589.30 C 88.00 604.30 71.30 654.20 70.20 666.90 C 69.10 680.00 75.10 700.00 160.40 771.10 C 201.70 805.50 324.70 871.30 393.80 871.30 L 394.20 871.30 C 480.80 871.00 535.20 849.50 560.60 805.80 C 587.90 758.80 628.30 652.30 611.90 607.30 C 607.60 595.60 594.90 582.20 498.10 572.60 C 443.60 567.30 371.40 564.20 299.90 564.20 L 299.90 564.20 Z" fill="#22286e" fill-rule="nonzero" group-id="2,8,12" node-id="295" stroke="none" target-height="307.09998" target-width="559.2" target-x="69.1" target-y="564.2"></path></g><path d="M 601.20 625.60 C 592.80 639.80 581.70 652.80 571.90 667.40 C 554.60 693.30 531.50 714.90 514.00 740.10 C 513.60 744.30 512.40 748.40 510.20 752.20 C 490.90 785.90 459.90 816.30 421.40 825.80 C 399.80 831.10 375.20 823.80 354.70 817.50 C 331.70 810.30 308.30 804.30 285.60 796.40 C 240.20 780.60 203.20 758.80 164.40 730.70 C 134.80 709.20 107.00 686.60 86.70 656.60 C 85.40 661.70 84.50 665.70 84.30 667.90 C 82.90 684.50 129.20 726.50 169.50 760.10 C 209.80 793.70 329.30 857.30 394.20 857.00 C 459.00 856.80 521.40 845.00 548.40 798.50 C 572.60 756.90 605.10 670.30 601.20 625.60 Z" fill="#d52061" fill-rule="nonzero" group-id="2,8" node-id="298" stroke="none" target-height="231.70001" target-width="522.19995" target-x="82.9" target-y="625.6"></path><path d="M 436.10 796.30 C 422.90 796.30 408.60 795.40 393.80 793.60 C 371.90 791.00 348.30 785.20 323.60 776.50 C 323.50 776.40 323.30 776.40 323.20 776.30 C 219.00 739.20 110.10 653.00 99.40 620.50 C 94.60 605.70 97.30 590.90 107.00 578.80 C 119.40 563.30 143.30 553.30 167.80 553.30 C 170.60 553.30 173.40 553.40 176.10 553.70 C 180.90 554.20 185.90 554.40 190.90 554.40 C 234.70 554.40 288.30 537.50 354.90 502.70 C 383.70 487.60 412.40 480.00 440.00 480.00 C 457.00 480.00 473.80 482.90 490.00 488.60 C 523.90 500.60 548.40 522.30 563.80 537.60 C 600.10 573.60 619.60 612.00 596.80 682.80 C 579.70 735.60 546.00 796.30 436.10 796.30 Z" fill="#e58456" fill-rule="nonzero" group-id="2,8,13" node-id="302" stroke="none" target-height="316.3" target-width="525" target-x="94.6" target-y="480"></path><path d="M 440.00 487.00 C 456.20 487.00 472.10 489.70 487.60 495.20 C 520.20 506.80 543.80 527.70 558.80 542.50 C 594.20 577.60 611.80 612.90 590.00 680.50 C 573.30 732.20 540.40 789.10 436.10 789.10 C 423.40 789.10 409.60 788.30 394.60 786.50 C 373.20 783.90 350.10 778.30 326.00 769.70 L 326.00 769.70 C 326.00 769.70 326.00 769.70 326.00 769.70 C 220.60 732.40 115.40 646.40 106.20 618.30 C 102.20 605.90 104.40 593.40 112.60 583.30 C 123.80 569.30 145.80 560.40 167.90 560.40 C 170.50 560.40 173.00 560.50 175.60 560.80 C 180.60 561.30 185.80 561.50 191.10 561.50 C 236.00 561.50 290.90 544.20 358.40 509.00 C 386.10 494.30 413.50 487.00 440.00 487.00 M 440.00 472.80 C 411.20 472.80 381.50 480.70 351.60 496.30 C 286.10 530.50 233.50 547.20 190.90 547.20 C 186.10 547.20 181.30 547.00 176.80 546.50 C 173.80 546.20 170.80 546.10 167.80 546.10 C 141.20 546.10 115.20 557.20 101.50 574.30 C 90.40 588.10 87.20 605.70 92.70 622.60 C 104.00 657.20 212.80 744.40 320.70 782.80 C 320.90 782.90 321.10 783.00 321.30 783.00 C 346.40 791.90 370.50 797.80 393.00 800.50 C 408.10 802.30 422.70 803.30 436.20 803.30 C 552.00 803.30 587.20 735.70 603.60 684.90 C 627.60 610.70 607.00 570.30 568.90 532.50 C 553.00 516.70 527.70 494.40 492.50 481.90 C 475.40 475.90 457.80 472.80 440.00 472.80 L 440.00 472.80 Z" fill="#22286e" fill-rule="nonzero" group-id="2,8,13,33" node-id="306" stroke="none" target-height="330.5" target-width="540.39996" target-x="87.2" target-y="472.8"></path><path d="M 432.90 774.80 C 420.70 774.80 407.60 774.00 393.80 772.30 C 273.40 757.70 133.20 645.70 123.50 616.00 C 120.50 606.80 121.90 597.90 127.40 590.20 C 136.30 577.90 155.90 569.60 176.10 569.60 C 178.30 569.60 180.50 569.70 182.60 569.90 C 187.90 570.40 193.00 570.60 198.30 570.60 C 241.70 570.60 296.50 553.40 361.30 519.50 C 386.90 506.10 412.20 499.30 436.40 499.30 C 493.50 499.30 532.50 537.80 545.20 550.50 C 577.30 582.20 593.20 614.20 573.40 675.50 C 558.50 721.80 529.10 774.80 432.90 774.80 C 432.90 774.80 432.90 774.80 432.90 774.80 Z" fill="#dd4d2d" fill-rule="nonzero" group-id="2,8,14" node-id="312" stroke="none" target-height="275.5" target-width="472.7" target-x="120.5" target-y="499.3"></path><path d="M 436.40 503.00 C 486.20 503.00 521.60 532.20 542.70 553.20 C 575.10 585.30 589.00 615.80 570.00 674.60 C 553.30 726.50 521.70 771.30 432.90 771.30 C 421.10 771.30 408.20 770.50 394.20 768.80 C 275.30 754.50 135.70 642.10 126.80 614.90 C 118.60 589.60 148.80 573.20 176.00 573.20 C 178.10 573.20 180.10 573.30 182.10 573.50 C 186.80 573.90 192.10 574.30 198.20 574.30 C 229.50 574.30 280.50 565.90 362.90 522.80 C 390.20 508.50 414.70 503.00 436.40 503.00 M 436.40 495.90 C 411.60 495.90 385.80 502.80 359.70 516.50 C 295.40 550.10 241.10 567.20 198.30 567.20 C 193.10 567.20 188.10 567.00 182.90 566.50 C 180.70 566.30 178.40 566.20 176.10 566.20 C 154.80 566.20 134.10 575.10 124.60 588.20 C 118.30 596.80 116.80 606.90 120.20 617.20 C 130.00 647.40 271.90 761.20 393.50 775.90 C 407.50 777.60 420.80 778.40 433.10 778.40 C 531.50 778.40 561.70 724.10 576.90 676.80 C 597.20 613.80 580.90 580.90 547.80 548.20 C 534.70 535.20 495.00 495.90 436.40 495.90 L 436.40 495.90 Z" fill="#22286e" fill-rule="nonzero" group-id="2,8,14" node-id="314" stroke="none" target-height="282.50003" target-width="480.40002" target-x="116.8" target-y="495.9"></path><path d="M 252.50 621.00 C 245.60 621.00 238.50 620.00 231.40 618.00 C 216.90 614.00 205.90 610.40 197.10 607.50 C 182.80 602.80 174.20 600.00 165.20 600.00 C 161.50 600.00 157.80 600.40 153.40 601.40 C 153.10 601.50 152.90 601.50 152.60 601.50 C 151.00 601.50 149.50 600.40 149.20 598.80 C 148.80 596.90 149.90 595.00 151.80 594.50 C 152.20 594.40 161.70 592.00 176.20 592.00 C 192.10 592.00 207.30 594.80 221.50 600.50 C 230.50 604.00 240.50 605.80 251.20 605.80 C 276.70 605.80 296.70 596.10 299.50 593.00 C 300.20 592.20 301.20 591.20 302.80 591.20 C 303.70 591.20 304.70 591.60 305.30 592.20 C 306.00 592.90 306.30 593.80 306.30 594.70 C 306.50 598.20 285.40 621.00 252.50 621.00 Z" fill="#f7d9cc" fill-rule="nonzero" group-id="2,8,15" node-id="319" stroke="none" target-height="29.799988" target-width="157.7" target-x="148.8" target-y="591.2"></path><path d="M 303.00 594.80 C 303.70 594.80 284.90 617.50 252.50 617.50 C 246.30 617.50 239.60 616.70 232.40 614.70 C 194.00 604.00 180.70 596.60 165.30 596.60 C 161.40 596.60 157.40 597.10 152.80 598.10 C 152.80 598.10 162.10 595.70 176.30 595.70 C 188.40 595.70 204.00 597.40 220.30 603.90 C 230.60 607.90 241.20 609.50 251.30 609.50 C 276.30 609.50 298.10 600.00 302.20 595.60 C 302.70 595.00 302.90 594.80 303.00 594.80 M 303.00 587.70 C 299.80 587.70 298.00 589.70 297.10 590.60 C 294.40 593.30 274.80 602.30 251.40 602.30 C 241.10 602.30 231.50 600.60 223.00 597.20 C 208.40 591.40 192.70 588.50 176.40 588.50 C 161.50 588.50 151.50 591.00 151.10 591.10 C 147.40 592.10 145.10 595.90 146.00 599.60 C 146.80 602.80 149.70 605.00 152.90 605.00 C 153.40 605.00 153.90 604.90 154.40 604.80 C 158.50 603.90 162.00 603.50 165.40 603.50 C 173.90 603.50 182.30 606.20 196.20 610.80 C 205.00 613.70 216.00 617.30 230.60 621.30 C 238.00 623.40 245.40 624.40 252.60 624.40 C 270.90 624.40 285.00 617.80 293.60 612.20 C 295.30 611.10 310.20 601.30 310.20 594.60 C 310.20 592.70 309.40 590.90 308.10 589.60 C 306.70 588.40 304.90 587.70 303.00 587.70 L 303.00 587.70 Z" fill="#22286e" fill-rule="nonzero" group-id="2,8,15" node-id="321" stroke="none" target-height="36.700012" target-width="165.1" target-x="145.1" target-y="587.7"></path><path d="M 514.50 655.00 C 495.90 655.00 450.40 641.60 439.40 625.30 C 433.10 616.00 432.40 603.50 437.50 592.80 C 443.10 581.10 454.40 573.80 468.70 572.60 C 470.60 572.40 472.60 572.40 474.60 572.40 C 501.50 572.40 521.70 587.30 522.60 588.00 C 539.90 603.40 539.50 620.60 537.80 629.50 C 535.50 641.10 528.50 651.50 521.10 654.20 C 519.40 654.70 517.30 655.00 514.50 655.00 L 514.50 655.00 Z" fill="#ffffff" fill-rule="nonzero" group-id="2,8,16" node-id="326" stroke="none" target-height="82.599976" target-width="107.50003" target-x="432.4" target-y="572.4"></path><path d="M 474.60 575.80 C 500.60 575.80 520.50 590.70 520.50 590.70 C 547.10 614.50 531.30 646.70 519.90 650.80 C 518.60 651.30 516.80 651.50 514.50 651.50 C 496.70 651.50 452.30 638.10 442.40 623.40 C 431.20 606.80 440.30 578.60 469.00 576.20 C 470.90 575.90 472.80 575.80 474.60 575.80 M 474.60 568.70 C 472.50 568.70 470.40 568.80 468.40 569.00 C 452.90 570.30 440.50 578.40 434.30 591.20 C 428.60 603.10 429.50 616.90 436.50 627.20 C 448.50 644.90 495.60 658.40 514.50 658.40 C 517.70 658.40 520.20 658.00 522.30 657.30 C 531.00 654.20 538.80 642.90 541.30 629.90 C 543.20 620.30 543.60 601.60 525.20 585.20 C 525.00 585.10 524.90 584.90 524.70 584.80 C 523.80 584.40 502.70 568.70 474.60 568.70 L 474.60 568.70 Z" fill="#22286e" fill-rule="nonzero" group-id="2,8,16" node-id="328" stroke="none" target-height="89.70001" target-width="118.49997" target-x="428.6" target-y="568.7"></path><path d="M 503.80 639.10 C 492.40 639.10 464.30 630.70 457.40 620.60 C 453.30 614.60 452.80 606.50 456.20 599.60 C 459.80 592.10 467.00 587.40 476.10 586.60 C 477.40 586.50 478.60 586.40 479.80 586.40 C 496.50 586.40 509.00 595.70 509.50 596.10 C 520.50 606.00 520.30 616.90 519.20 622.60 C 517.70 630.10 513.10 636.70 508.20 638.50 C 507.10 638.90 505.70 639.10 503.80 639.10 C 503.80 639.10 503.80 639.10 503.80 639.10 Z" fill="#f7d9cc" fill-rule="nonzero" group-id="2,8,17" node-id="333" stroke="none" target-height="52.69995" target-width="67.70001" target-x="452.8" target-y="586.4"></path><path d="M 479.80 590.10 C 495.50 590.10 507.40 599.00 507.40 599.00 C 523.40 613.40 513.90 632.70 507.10 635.20 C 506.30 635.50 505.20 635.60 503.90 635.60 C 493.20 635.60 466.50 627.50 460.50 618.70 C 453.70 608.70 459.20 591.70 476.50 590.20 C 477.60 590.10 478.70 590.10 479.80 590.10 M 479.80 583.00 C 478.50 583.00 477.10 583.10 475.80 583.20 C 465.40 584.10 457.10 589.50 453.00 598.20 C 449.10 606.30 449.70 615.70 454.50 622.70 C 462.80 635.00 493.20 642.80 503.80 642.80 C 506.10 642.80 507.90 642.50 509.50 642.00 C 515.60 639.80 521.00 632.20 522.70 623.50 C 524.80 612.60 521.00 601.80 512.10 593.90 C 511.90 593.80 511.80 593.60 511.60 593.50 C 511.10 592.90 497.60 583.00 479.80 583.00 L 479.80 583.00 Z" fill="#22286e" fill-rule="nonzero" group-id="2,8,17" node-id="335" stroke="none" target-height="59.799988" target-width="75.69998" target-x="449.1" target-y="583"></path><path d="M 362.80 724.60 C 350.40 724.60 321.40 719.40 300.30 699.70 C 276.70 677.60 276.70 664.20 276.80 662.80 C 276.90 661.40 277.80 660.20 279.10 659.70 C 279.50 659.60 279.90 659.50 280.30 659.50 C 281.30 659.50 282.20 659.90 282.90 660.60 C 286.00 663.90 288.40 667.00 290.90 670.30 C 295.80 676.70 301.40 684.00 315.10 696.30 C 328.50 708.40 351.60 712.70 362.80 714.80 C 370.00 716.20 372.50 716.60 372.60 719.90 C 372.60 720.80 372.40 723.10 369.00 724.00 C 367.60 724.40 365.40 724.60 362.80 724.60 L 362.80 724.60 Z" fill="#f7d9cc" fill-rule="nonzero" group-id="2,8,18" node-id="340" stroke="none" target-height="65.099976" target-width="95.899994" target-x="276.7" target-y="659.5"></path><path d="M 280.40 662.90 C 289.30 672.30 291.70 679.80 312.80 698.80 C 333.90 717.80 375.90 718.40 368.10 720.50 C 366.90 720.80 365.10 721.00 362.80 721.00 C 350.00 721.00 322.30 715.30 302.80 697.00 C 279.70 675.40 280.40 662.90 280.40 662.90 M 280.40 655.90 C 279.60 655.90 278.80 656.00 278.00 656.30 C 275.30 657.30 273.50 659.70 273.40 662.50 C 273.20 665.10 273.70 679.40 298.00 702.20 C 319.90 722.70 350.00 728.10 362.90 728.10 C 365.80 728.10 368.20 727.80 370.10 727.30 C 376.20 725.60 376.30 720.60 376.30 719.70 C 376.10 713.60 370.80 712.60 363.60 711.20 C 352.80 709.20 330.30 704.90 317.70 693.50 C 304.20 681.30 298.80 674.20 293.90 667.90 C 291.30 664.60 288.90 661.40 285.70 658.00 C 284.20 656.60 282.30 655.90 280.40 655.90 L 280.40 655.90 Z" fill="#22286e" fill-rule="nonzero" group-id="2,8,18" node-id="342" stroke="none" target-height="72.19995" target-width="103.099976" target-x="273.2" target-y="655.9"></path><path d="M 347.00 580.20 C 345.90 580.20 344.70 579.60 344.00 578.80 C 342.60 577.10 343.10 574.90 343.90 571.20 C 346.20 561.70 355.80 558.70 366.90 555.30 C 373.40 553.30 380.80 551.00 387.70 547.10 C 404.90 537.20 416.50 518.70 416.60 518.60 C 417.30 517.60 418.40 516.90 419.60 516.90 C 419.70 516.90 419.80 516.90 420.00 516.90 C 421.30 517.00 422.50 517.90 423.00 519.20 C 423.20 519.70 427.40 531.70 417.40 542.20 C 408.00 552.20 379.20 565.20 365.40 568.40 C 359.20 569.80 354.60 574.40 351.90 577.10 C 350.10 579.00 348.90 580.20 347.00 580.20 C 347.00 580.20 347.00 580.20 347.00 580.20 Z" fill="#f7d9cc" fill-rule="nonzero" group-id="2,8,19" node-id="347" stroke="none" target-height="63.299988" target-width="84.79999" target-x="342.6" target-y="516.9"></path><path d="M 419.70 520.50 C 419.70 520.50 423.40 530.80 414.90 539.90 C 406.40 549.00 378.60 561.80 364.70 565.00 C 354.50 567.30 348.40 576.70 347.00 576.70 C 346.50 576.70 346.60 575.40 347.40 572.10 C 350.40 559.60 371.20 560.70 389.40 550.30 C 407.70 539.70 419.70 520.50 419.70 520.50 M 419.70 513.40 C 417.30 513.40 415.00 514.60 413.70 516.70 L 413.70 516.70 C 413.60 516.90 402.40 534.60 386.00 544.00 C 379.50 547.70 372.30 549.90 366.00 551.90 C 354.90 555.30 343.40 558.80 340.60 570.40 C 339.70 574.20 338.80 577.80 341.30 581.00 C 342.70 582.80 344.80 583.80 347.00 583.80 C 350.30 583.80 352.30 581.80 354.50 579.70 C 357.00 577.20 361.10 573.10 366.30 572.00 C 380.50 568.70 409.90 555.60 420.10 544.80 C 429.20 535.20 428.30 523.50 426.40 518.10 C 425.50 515.50 423.20 513.70 420.50 513.50 C 420.20 513.40 419.90 513.40 419.70 513.40 L 419.70 513.40 Z" fill="#22286e" fill-rule="nonzero" group-id="2,8,19" node-id="349" stroke="none" target-height="70.39996" target-width="90.400024" target-x="338.8" target-y="513.4"></path><path d="M 380.30 640.80 C 378.70 640.80 374.90 640.80 374.40 637.40 C 373.90 633.70 377.10 632.50 387.50 629.60 C 392.30 628.20 395.50 625.70 397.50 621.90 C 402.30 612.70 397.60 599.10 397.60 599.00 C 397.00 597.30 397.80 595.50 399.30 594.70 C 399.80 594.40 400.40 594.30 400.90 594.30 C 402.00 594.30 403.10 594.80 403.80 595.80 C 408.70 602.90 412.20 622.70 407.20 632.90 C 404.60 638.20 400.60 639.60 397.60 639.70 C 395.30 639.80 392.90 640.00 390.50 640.20 C 386.60 640.50 382.80 640.80 380.30 640.80 L 380.30 640.80 Z" fill="#f7d9cc" fill-rule="nonzero" group-id="2,8,20" node-id="354" stroke="none" target-height="46.5" target-width="38.30002" target-x="373.9" target-y="594.3"></path><path d="M 401.00 597.70 C 406.70 606.00 410.40 635.30 397.60 636.10 C 391.50 636.50 384.10 637.20 380.40 637.20 C 376.30 637.20 376.70 636.30 388.60 632.90 C 411.10 626.40 401.00 597.70 401.00 597.70 M 401.00 590.60 C 399.90 590.60 398.80 590.90 397.80 591.40 C 394.60 593.00 393.20 596.70 394.30 600.10 C 395.50 603.50 397.80 613.70 394.40 620.20 C 392.90 623.10 390.30 625.00 386.60 626.10 C 376.30 629.10 370.00 630.90 371.00 637.80 C 371.30 640.20 373.00 644.30 380.40 644.30 C 383.00 644.30 386.90 644.00 391.10 643.70 C 393.40 643.50 395.90 643.30 398.10 643.20 C 403.60 642.90 408.00 639.70 410.60 634.40 C 416.30 622.60 412.30 601.60 406.90 593.70 C 405.40 591.70 403.20 590.60 401.00 590.60 L 401.00 590.60 Z" fill="#22286e" fill-rule="nonzero" group-id="2,8,20" node-id="356" stroke="none" target-height="53.700012" target-width="46.299988" target-x="370" target-y="590.6"></path><path d="M 434.10 720.20 C 432.80 720.20 431.40 719.40 430.80 718.20 C 429.70 716.10 430.80 714.40 431.90 712.80 C 432.40 712.00 433.10 711.00 433.90 709.60 C 439.20 700.60 475.90 686.60 494.30 686.60 C 498.20 686.60 501.30 687.20 503.60 688.30 C 504.70 688.80 506.00 689.10 507.60 689.10 C 521.50 689.10 547.70 670.10 556.70 662.80 C 557.40 662.30 558.10 662.00 558.90 662.00 C 559.60 662.00 560.30 662.20 560.90 662.60 C 562.20 663.50 562.70 665.20 562.20 666.70 C 559.60 674.10 533.10 702.20 510.70 702.20 L 510.70 702.20 C 509.00 702.20 507.40 702.00 505.90 701.70 C 503.00 701.10 500.30 700.80 497.40 700.80 C 487.90 700.80 478.90 704.10 467.50 708.20 C 463.30 709.70 458.70 711.40 453.80 713.00 C 446.10 715.50 441.30 717.50 438.40 718.60 C 436.10 719.80 435.20 720.20 434.10 720.20 Z" fill="#f7d9cc" fill-rule="nonzero" group-id="2,8,21" node-id="361" stroke="none" target-height="58.200012" target-width="133" target-x="429.7" target-y="662"></path><path d="M 559.10 665.60 C 556.90 671.90 531.30 698.80 511.00 698.80 C 509.60 698.80 508.20 698.70 506.90 698.40 C 503.70 697.80 500.70 697.50 497.70 697.50 C 483.90 697.50 471.60 703.80 452.90 709.90 C 440.10 714.10 435.10 716.80 434.10 716.80 C 433.30 716.80 434.90 715.20 437.00 711.60 C 441.20 704.40 476.00 690.30 494.40 690.30 C 497.60 690.30 500.30 690.70 502.20 691.70 C 503.80 692.50 505.70 692.80 507.80 692.80 C 526.10 692.70 559.10 665.60 559.10 665.60 M 559.10 658.50 C 557.50 658.50 555.90 659.00 554.60 660.10 C 542.60 670.00 519.20 685.60 507.80 685.60 C 506.70 685.60 505.90 685.50 505.30 685.20 C 502.40 683.80 498.90 683.10 494.40 683.10 C 475.80 683.10 437.30 696.90 430.90 707.90 C 430.20 709.20 429.50 710.10 429.00 710.90 C 427.80 712.70 425.60 716.00 427.70 719.90 C 429.00 722.30 431.40 723.70 434.10 723.70 C 435.90 723.70 437.20 723.20 440.00 722.00 C 442.80 720.90 447.50 718.90 455.10 716.40 C 460.10 714.70 464.60 713.10 468.90 711.50 C 480.00 707.50 488.70 704.30 497.60 704.30 C 500.20 704.30 502.70 704.60 505.40 705.10 C 507.20 705.50 509.00 705.60 510.90 705.60 C 534.70 705.60 562.60 676.60 565.70 667.70 C 566.80 664.70 565.70 661.40 563.10 659.50 C 561.90 658.90 560.50 658.50 559.10 658.50 L 559.10 658.50 Z M 559.10 672.70 L 559.10 672.70 L 559.10 672.70 L 559.10 672.70 Z" fill="#22286e" fill-rule="nonzero" group-id="2,8,21" node-id="363" stroke="none" target-height="65.20001" target-width="141.19998" target-x="425.6" target-y="658.5"></path></g><g node-id="794"><path d="M 729.50 434.30 L 634.00 514.50 L 581.90 582.30 L 570.80 608.70 L 545.40 680.20 L 525.50 719.00 C 525.50 719.00 554.50 732.90 557.20 731.60 C 559.90 730.20 621.20 709.70 621.20 709.70 L 668.80 695.10 L 729.30 648.10 L 781.50 602.60 L 827.90 548.30 L 771.20 484.20 L 729.50 434.30 Z" fill="#d9d8d9" fill-rule="nonzero" group-id="2,9" node-id="369" stroke="none" target-height="298.60004" target-width="302.40002" target-x="525.5" target-y="434.3"></path><g node-id="807"><path d="M 464.10 899.10 C 461.20 899.10 458.40 898.00 456.40 895.90 C 453.20 892.60 452.00 887.50 452.20 878.80 C 452.30 877.10 452.90 875.40 454.10 874.10 C 454.80 873.30 455.50 872.60 456.20 871.80 C 454.10 870.30 452.90 867.80 453.20 865.20 C 453.50 862.30 453.90 859.30 454.30 856.20 C 455.70 845.50 457.10 834.40 457.00 825.10 C 457.00 823.60 457.40 822.20 458.30 821.00 C 457.40 820.00 456.70 818.70 456.50 817.20 C 455.70 811.60 454.20 809.60 453.40 808.90 C 452.00 807.70 444.80 803.90 438.60 800.60 L 436.20 799.30 C 434.80 798.60 433.80 797.50 433.10 796.20 C 432.80 796.20 432.40 796.30 432.10 796.30 C 430.90 796.30 429.80 796.00 428.80 795.50 C 413.50 787.30 394.60 776.40 383.10 764.80 C 381.30 763.00 380.70 760.40 381.30 758.00 C 378.70 758.00 376.30 756.50 375.10 754.20 C 372.00 748.30 371.30 742.60 373.00 737.10 C 375.10 730.30 380.70 724.70 389.90 719.90 C 402.40 713.40 423.50 713.20 448.00 712.90 C 476.00 712.60 507.70 712.30 519.60 700.90 C 528.30 692.50 530.60 685.30 536.70 666.00 C 540.40 654.30 545.50 638.30 554.10 615.80 C 557.20 607.70 560.70 599.50 564.60 591.20 C 564.30 590.80 564.00 590.30 563.70 589.90 C 562.40 587.40 562.70 584.50 564.30 582.10 C 564.60 581.30 565.20 579.20 565.60 577.70 C 567.10 572.20 568.60 566.40 572.20 563.20 C 572.30 562.70 572.40 562.00 572.50 561.40 C 573.00 557.70 573.80 551.60 579.50 547.20 C 580.30 546.60 581.00 543.60 581.50 541.20 C 582.70 536.00 584.30 528.90 590.40 523.30 C 592.90 521.00 593.70 518.90 594.90 515.50 C 596.70 510.50 599.00 504.20 607.30 496.60 C 611.70 492.60 611.80 491.40 611.80 490.50 C 612.10 485.90 613.60 482.30 620.50 477.60 C 621.40 477.00 621.90 476.60 622.20 476.30 C 623.00 470.10 627.30 466.30 640.80 459.20 C 656.00 451.20 671.60 447.40 682.50 445.70 C 700.70 431.60 719.60 419.60 737.10 410.70 C 777.60 390.30 812.00 380.30 842.20 380.30 C 851.80 380.30 859.40 381.30 865.50 382.00 L 867.10 382.20 C 879.90 383.80 897.80 387.60 905.40 402.50 C 915.00 421.40 905.80 451.90 872.70 511.40 C 854.40 544.30 828.10 578.00 796.60 609.10 C 790.50 626.10 781.70 641.40 770.50 654.50 C 746.50 682.50 730.20 696.70 721.90 696.70 L 721.90 696.70 C 721.60 696.70 721.20 696.70 720.90 696.60 C 718.70 696.30 716.80 695.00 715.70 693.10 C 713.70 689.50 712.00 681.80 717.20 674.00 C 672.60 703.90 625.80 725.60 581.00 737.10 C 552.70 744.40 536.10 783.50 520.00 821.40 C 509.20 846.80 499.00 870.90 485.20 885.10 C 476.10 895.00 469.70 899.10 464.10 899.10 Z" fill="#73c0d7" fill-rule="nonzero" group-id="2,9,22" node-id="373" stroke="none" target-height="518.8" target-width="543.7" target-x="371.3" target-y="380.3"></path><path d="M 842.50 387.60 C 852.50 387.60 860.20 388.70 866.50 389.50 C 913.10 395.30 914.90 421.80 866.70 508.20 C 848.00 541.90 821.60 575.10 790.60 605.50 C 785.70 619.70 777.80 635.50 765.20 650.20 C 732.10 688.90 722.90 689.90 722.00 689.90 C 722.00 689.90 721.90 689.90 721.90 689.90 C 721.90 689.90 718.40 683.70 724.40 676.70 C 730.40 669.70 721.10 673.80 727.80 663.70 C 729.90 660.60 730.00 658.70 729.60 657.10 C 682.90 691.00 630.90 717.40 579.30 730.60 C 527.50 743.90 513.40 846.30 480.20 880.60 C 472.30 888.80 467.10 892.20 463.90 892.20 C 459.90 892.20 458.90 887.10 459.10 879.20 C 492.30 844.30 511.20 797.00 509.30 797.00 C 508.90 797.00 507.20 799.70 504.40 805.90 C 494.20 827.70 474.00 851.50 460.20 866.30 C 461.70 853.40 464.10 838.00 464.00 825.30 C 485.80 801.70 511.70 763.00 510.30 763.00 C 510.00 763.00 508.40 764.80 505.30 768.90 C 493.60 784.10 476.00 803.20 463.40 816.50 C 462.60 811.00 461.00 806.60 458.10 803.90 C 455.90 801.90 448.70 798.20 439.40 793.40 C 468.30 777.60 504.10 747.70 503.70 747.70 C 503.60 747.70 502.40 748.60 499.80 750.80 C 486.00 762.10 451.40 779.90 432.10 789.50 C 416.90 781.30 398.70 770.90 388.10 760.10 C 391.70 760.30 395.30 760.50 398.90 760.50 C 453.40 760.50 505.20 733.70 523.20 723.30 C 528.10 720.80 529.90 719.20 529.90 719.20 C 529.90 719.20 527.50 720.80 523.20 723.30 C 514.20 727.90 494.60 735.60 455.50 743.40 C 423.40 749.70 398.30 751.20 381.80 751.20 C 381.60 751.20 381.40 751.20 381.20 751.20 C 376.60 742.50 378.70 733.90 393.10 726.50 C 418.80 713.20 500.10 729.70 524.40 706.30 C 540.30 690.90 537.70 678.20 560.50 618.70 C 565.00 606.90 570.10 595.60 575.70 584.70 C 573.00 586.40 571.20 587.20 570.30 587.20 C 569.70 587.20 569.60 586.90 570.10 586.20 C 572.00 583.60 573.50 571.10 577.10 568.50 C 580.80 565.90 577.60 557.80 583.70 553.10 C 589.80 548.40 586.70 536.60 595.10 528.90 C 603.50 521.20 599.40 513.80 612.00 502.20 C 624.60 490.60 613.40 491.50 624.50 483.90 C 635.60 476.30 619.80 478.70 644.20 465.90 C 659.80 457.70 675.90 454.20 685.50 452.80 C 704.60 437.90 723.50 426.00 740.40 417.40 C 789.10 392.70 820.90 387.60 842.50 387.60 M 842.50 373.40 C 811.20 373.40 775.70 383.60 734.20 404.50 C 716.70 413.30 698.00 425.30 679.80 439.10 C 668.50 441.00 653.00 445.00 637.70 453.10 C 625.20 459.70 618.20 464.60 616.00 472.40 C 608.90 477.40 605.70 482.30 605.00 489.20 C 604.60 489.70 603.90 490.50 602.70 491.60 C 593.20 500.30 590.30 508.10 588.50 513.20 C 587.30 516.50 587.00 517.20 585.80 518.20 C 578.00 525.30 576.00 534.00 574.70 539.80 C 574.50 540.80 574.20 542.00 574.00 542.80 C 567.50 548.60 566.20 556.00 565.70 560.10 C 562.00 564.60 560.40 570.60 558.90 576.00 C 558.60 577.00 558.30 578.40 558.00 579.10 C 555.80 583.00 555.30 587.50 556.80 591.50 C 553.40 598.80 550.30 606.10 547.60 613.30 C 538.90 636.00 533.80 652.10 530.10 663.90 C 523.90 683.50 522.00 689.00 514.90 695.80 C 505.10 705.30 472.20 705.60 448.20 705.90 C 422.90 706.20 401.00 706.40 387.00 713.60 C 376.10 719.20 369.20 726.40 366.60 734.90 C 365.00 739.90 364.20 747.90 369.10 757.40 C 370.40 759.90 372.40 761.90 374.70 763.20 C 375.30 765.60 376.50 767.80 378.30 769.70 C 390.40 782.10 410.00 793.30 425.70 801.70 C 427.00 802.40 428.30 802.90 429.70 803.10 C 430.70 804.10 431.80 804.90 433.10 805.60 L 435.50 806.90 C 440.40 809.50 446.40 812.60 448.70 814.10 C 448.90 814.60 449.40 815.90 449.70 818.30 C 449.90 819.40 450.20 820.50 450.60 821.60 C 450.30 822.80 450.10 824.00 450.20 825.20 C 450.30 834.10 448.90 844.90 447.60 855.40 C 447.20 858.50 446.80 861.50 446.50 864.40 C 446.20 866.90 446.60 869.30 447.50 871.50 C 446.20 873.60 445.40 876.00 445.40 878.60 C 445.20 886.20 445.70 894.80 451.60 900.80 C 455.00 904.30 459.50 906.20 464.40 906.20 C 472.30 906.20 479.90 901.60 490.90 890.30 C 505.60 875.10 516.10 850.50 527.10 824.40 C 541.80 789.80 558.40 750.60 583.30 744.20 C 624.20 733.70 666.50 714.90 707.50 689.30 C 708.00 692.40 709.00 695.00 710.00 696.80 C 712.20 700.70 716.10 703.30 720.40 703.80 C 721.00 703.90 721.70 703.90 722.40 703.90 C 727.10 703.90 738.10 703.90 776.40 659.30 C 787.80 645.90 796.90 630.50 803.20 613.20 C 834.70 581.90 861.00 548.00 879.40 515.00 C 914.30 452.40 923.20 421.00 912.30 399.50 C 903.20 381.60 883.00 377.20 868.50 375.40 L 866.90 375.20 C 860.30 374.40 852.50 373.40 842.50 373.40 L 842.50 373.40 Z" fill="#22286e" fill-rule="nonzero" group-id="2,9,22" node-id="375" stroke="none" target-height="532.80005" target-width="559" target-x="364.2" target-y="373.4"></path></g><g node-id="808"><path d="M 409.00 737.30 C 427.80 727.60 476.00 733.70 510.10 728.70 C 516.00 726.50 520.30 724.60 523.40 723.00 C 527.70 720.50 530.10 718.90 530.10 718.90 C 530.10 718.90 528.30 720.40 523.40 723.00 C 521.00 724.40 517.90 726.10 514.40 728.00 C 525.30 726.00 534.50 722.70 540.30 717.10 C 556.30 701.70 553.60 689.00 576.40 629.50 C 580.90 617.70 586.00 606.40 591.60 595.50 C 587.10 598.40 584.90 598.50 586.00 597.00 C 587.90 594.40 589.40 581.90 593.00 579.30 C 596.70 576.70 593.50 568.60 599.60 563.90 C 605.70 559.20 602.60 547.40 611.00 539.70 C 619.40 532.00 615.30 524.60 627.90 513.00 C 640.50 501.40 629.30 502.30 640.40 494.70 C 651.50 487.10 635.70 489.50 660.10 476.70 C 675.70 468.50 691.80 465.00 701.40 463.60 C 720.50 448.70 739.40 436.80 756.30 428.20 C 827.30 392.40 845.20 385.70 829.60 388.20 C 807.60 391.80 791.60 393.50 740.60 417.20 C 723.40 425.20 704.80 437.70 685.70 452.60 C 676.10 454.00 660.00 457.40 644.40 465.70 C 620.00 478.60 635.80 476.10 624.70 483.70 C 613.60 491.30 624.90 490.50 612.20 502.00 C 599.60 513.60 603.70 521.00 595.30 528.70 C 586.90 536.40 590.00 548.30 583.90 552.90 C 577.90 557.60 581.00 565.70 577.30 568.30 C 573.60 570.90 572.20 583.40 570.30 586.00 C 569.20 587.50 571.40 587.40 575.90 584.50 C 570.30 595.40 565.20 606.70 560.70 618.50 C 537.90 678.00 540.50 690.70 524.60 706.10 C 500.30 729.50 419.00 713.00 393.30 726.30 C 379.00 733.70 376.90 742.30 381.40 751.00 C 385.50 751.00 390.20 750.90 395.40 750.70 C 396.80 746.00 401.00 741.40 409.00 737.30 Z" fill="#ffffff" fill-rule="nonzero" group-id="2,9,23" node-id="380" stroke="none" target-height="365.3" target-width="468.30002" target-x="376.9" target-y="385.7"></path><path d="M 515.60 761.60 C 513.60 763.20 511.20 765.00 508.50 766.80 C 508.20 767.30 507.90 767.80 507.50 768.40 C 518.60 759.70 523.60 755.00 515.60 761.60 Z" fill="#ffffff" fill-rule="nonzero" group-id="2,9,23" node-id="382" stroke="none" target-height="13.400024" target-width="16.099976" target-x="507.5" target-y="755"></path><path d="M 521.20 779.70 C 509.50 794.90 491.90 814.00 479.30 827.30 C 478.50 821.80 476.90 817.40 474.00 814.70 C 473.90 814.60 473.70 814.50 473.60 814.40 C 470.50 818.20 467.30 821.80 464.20 825.10 C 464.30 837.70 461.90 853.20 460.40 866.10 C 466.10 860.00 473.00 852.30 479.70 843.80 C 479.80 841.20 479.90 838.60 479.90 836.10 C 488.00 827.30 496.60 816.50 504.20 806.40 C 504.30 806.20 504.40 805.90 504.50 805.70 C 509.30 795.50 510.60 794.80 508.80 800.10 C 523.60 780.00 532.40 765.10 521.20 779.70 Z" fill="#ffffff" fill-rule="nonzero" group-id="2,9,23" node-id="384" stroke="none" target-height="101" target-width="72.00003" target-x="460.4" target-y="765.1"></path><path d="M 744.70 672.60 C 745.70 670.60 745.70 669.20 745.40 668.00 C 737.40 673.80 729.30 679.30 721.00 684.70 C 720.90 687.80 722.00 689.80 722.00 689.80 C 722.00 689.80 726.90 690.40 744.70 672.60 Z" fill="#ffffff" fill-rule="nonzero" group-id="2,9,23" node-id="386" stroke="none" target-height="22.400024" target-width="24.799988" target-x="720.9" target-y="668"></path><path d="M 468.40 811.20 C 466.30 810.00 463.70 808.60 460.70 807.10 C 462.10 809.60 463.00 812.70 463.50 816.30 C 465.10 814.70 466.80 813.00 468.40 811.20 Z" fill="#ffffff" fill-rule="nonzero" group-id="2,9,23" node-id="388" stroke="none" target-height="9.200012" target-width="7.6999817" target-x="460.7" target-y="807.1"></path><path d="M 539.20 734.10 C 544.10 731.60 545.90 730.00 545.90 730.00 C 545.90 730.00 543.50 731.60 539.20 734.10 Z" fill="#ffffff" fill-rule="nonzero" group-id="2,9,23" node-id="390" stroke="none" target-height="4.0999756" target-width="6.700012" target-x="539.2" target-y="730"></path><path d="M 404.00 770.90 C 435.90 773.10 467.50 765.20 492.80 755.80 C 495.50 754.00 497.90 752.20 499.90 750.60 C 507.20 744.70 503.70 747.90 494.80 755.10 C 514.90 747.50 530.80 739.00 539.20 734.10 C 530.20 738.70 510.60 746.40 471.50 754.20 C 439.00 760.60 413.70 762.10 397.10 762.00 C 396.80 761.40 396.50 760.80 396.30 760.20 C 393.60 760.20 390.90 760.10 388.20 759.90 C 394.10 765.90 402.30 771.80 411.00 777.20 C 408.50 775.10 406.10 773.00 404.00 770.90 Z" fill="#ffffff" fill-rule="nonzero" group-id="2,9,23" node-id="392" stroke="none" target-height="43.100037" target-width="151" target-x="388.2" target-y="734.1"></path><path d="M 457.40 803.00 C 473.20 794.10 490.60 781.50 503.00 771.90 C 503.80 770.90 504.70 769.80 505.40 768.80 C 489.80 778.90 466.20 791.10 450.60 799.00 C 453.60 800.60 455.90 802.00 457.40 803.00 Z" fill="#ffffff" fill-rule="nonzero" group-id="2,9,23" node-id="394" stroke="none" target-height="34.200012" target-width="54.799988" target-x="450.6" target-y="768.8"></path><path d="M 501.00 847.60 C 492.50 858.90 483.40 869.30 476.00 877.10 C 476.80 870.30 477.80 862.80 478.60 855.30 C 472.80 863.40 466.30 871.50 459.20 879.00 C 458.80 893.20 462.60 898.60 480.30 880.40 C 488.00 872.50 494.70 860.90 501.00 847.60 Z" fill="#ffffff" fill-rule="nonzero" group-id="2,9,23" node-id="396" stroke="none" target-height="51" target-width="42.200012" target-x="458.8" target-y="847.6"></path></g><path d="M 504.60 805.70 C 519.60 773.60 500.40 835.80 459.30 879.00 C 458.90 893.20 462.70 898.60 480.40 880.40 C 513.60 846.10 527.60 743.70 579.50 730.40 C 631.00 717.20 683.10 690.80 729.80 656.90 C 730.20 658.40 730.10 660.30 728.00 663.50 C 721.30 673.60 730.60 669.50 724.60 676.50 C 718.60 683.50 722.10 689.70 722.10 689.70 C 722.10 689.70 730.40 690.80 765.40 650.00 C 778.00 635.30 785.80 619.50 790.80 605.30 C 821.80 574.90 848.10 541.70 866.90 508.00 C 915.10 421.60 913.20 395.00 866.70 389.30 C 859.30 388.40 849.70 387.00 836.90 387.60 C 851.30 394.30 870.00 406.60 868.40 424.90 C 866.50 447.30 850.40 476.00 823.00 514.00 C 816.20 523.40 807.30 534.50 797.10 546.20 C 800.90 550.60 806.90 553.10 816.40 549.80 C 803.50 558.10 796.70 556.10 793.20 550.60 C 772.30 574.30 746.30 600.40 720.60 622.30 C 723.60 630.20 730.00 637.70 743.90 632.80 C 725.10 644.80 719.30 635.30 717.80 624.60 C 696.60 642.40 675.60 657.30 657.90 665.20 C 652.00 667.80 646.10 670.50 640.10 673.30 C 642.20 682.30 648.10 694.60 664.90 688.70 C 642.30 703.20 638.40 686.40 638.40 674.10 C 620.80 682.30 603.10 691.20 587.00 700.80 C 590.70 705.90 596.90 709.10 607.20 705.50 C 592.20 715.10 585.50 710.90 582.60 703.40 C 577.70 706.40 573.00 709.50 568.40 712.70 C 570.10 712.70 572.00 712.60 574.10 712.20 C 570.40 713.90 567.30 714.90 564.60 715.50 C 548.60 727.20 535.90 739.80 529.30 753.30 C 515.70 781.00 482.90 821.80 464.00 837.00 C 463.20 846.70 461.80 857.00 460.70 866.00 C 474.10 851.30 494.40 827.60 504.60 805.70 Z" fill="#1e7cb9" fill-rule="nonzero" group-id="2,9" node-id="399" stroke="none" target-height="511.59998" target-width="456.19998" target-x="458.9" target-y="387"></path><path d="M 811.10 446.50 C 806.70 446.50 802.50 444.70 799.60 441.40 C 793.80 435.00 794.20 425.10 800.60 419.30 C 803.50 416.60 807.20 415.20 811.20 415.20 C 815.60 415.20 819.80 417.00 822.70 420.30 C 825.50 423.40 827.00 427.40 826.80 431.50 C 826.60 435.70 824.80 439.50 821.70 442.30 C 818.70 445.00 815.00 446.50 811.10 446.50 Z" fill="#ffffff" fill-rule="nonzero" group-id="2,9,24" node-id="403" stroke="none" target-height="31.299988" target-width="33.200012" target-x="793.8" target-y="415.2"></path><path d="M 811.10 418.80 C 814.40 418.80 817.60 420.10 820.00 422.70 C 824.50 427.60 824.20 435.30 819.30 439.80 C 817.00 441.90 814.00 443.00 811.10 443.00 C 807.80 443.00 804.60 441.70 802.20 439.10 C 797.70 434.20 798.00 426.50 803.00 422.00 C 805.20 419.80 808.20 418.80 811.10 418.80 M 811.10 411.70 C 811.10 411.70 811.10 411.70 811.10 411.70 C 806.30 411.70 801.70 413.50 798.20 416.70 C 790.40 423.80 789.90 436.00 797.00 443.80 C 800.60 447.80 805.80 450.00 811.10 450.00 C 815.90 450.00 820.50 448.20 824.10 445.00 C 827.90 441.50 830.10 436.80 830.30 431.70 C 830.50 426.60 828.70 421.70 825.30 417.90 C 821.60 413.90 816.40 411.70 811.10 411.70 L 811.10 411.70 Z" fill="#22286e" fill-rule="nonzero" group-id="2,9,24" node-id="405" stroke="none" target-height="38.299988" target-width="40.599976" target-x="789.9" target-y="411.7"></path><path d="M 818.70 423.80 C 821.60 427.00 821.40 431.90 818.20 434.80 C 815.00 437.70 810.10 437.50 807.20 434.30 C 804.30 431.10 804.50 426.20 807.70 423.30 C 810.90 420.40 815.80 420.60 818.70 423.80 Z" fill="#202967" fill-rule="nonzero" group-id="2,9" node-id="408" stroke="none" target-height="17.300018" target-width="17.299988" target-x="804.3" target-y="420.4"></path><path d="M 899.10 405.60 C 899.10 405.60 867.10 448.30 844.50 467.40 C 821.90 486.40 869.70 450.30 881.50 438.70 C 893.20 427.10 902.10 417.20 902.10 417.20 C 902.10 417.20 901.90 409.70 899.10 405.60 Z" fill="#202967" fill-rule="nonzero" group-id="2,9" node-id="410" stroke="none" target-height="80.79999" target-width="80.19995" target-x="821.9" target-y="405.6"></path><path d="M 749.00 413.00 C 749.00 413.00 752.90 443.00 788.40 482.20 C 824.00 521.50 852.20 531.80 852.20 531.80 L 849.50 535.80 C 849.50 535.80 827.90 536.10 783.40 486.70 C 739.00 437.30 744.10 415.30 744.10 415.30 L 749.00 413.00 Z" fill="#202967" fill-rule="nonzero" group-id="2,9" node-id="412" stroke="none" target-height="123.099976" target-width="113.20001" target-x="739" target-y="413"></path><path d="M 573.70 712.40 C 541.80 727.30 549.00 693.10 551.20 685.50 C 551.20 685.50 547.40 717.80 573.70 712.40 Z" fill="#22286e" fill-rule="nonzero" group-id="2,9" node-id="414" stroke="none" target-height="41.799988" target-width="31.900024" target-x="541.8" target-y="685.5"></path><path d="M 580.90 682.10 C 580.90 682.10 581.50 714.70 606.80 705.80 C 577.20 724.70 579.70 689.90 580.90 682.10 Z" fill="#22286e" fill-rule="nonzero" group-id="2,9" node-id="416" stroke="none" target-height="42.600037" target-width="29.599976" target-x="577.2" target-y="682.1"></path><path d="M 580.50 669.10 C 548.60 684.00 555.80 649.80 558.00 642.20 C 558.00 642.20 554.20 674.50 580.50 669.10 Z" fill="#22286e" fill-rule="nonzero" group-id="2,9" node-id="418" stroke="none" target-height="41.799988" target-width="31.900024" target-x="548.6" target-y="642.2"></path><path d="M 577.70 594.30 C 577.70 594.30 573.90 626.70 600.20 621.20 C 568.30 636.10 575.50 602.00 577.70 594.30 Z" fill="#22286e" fill-rule="nonzero" group-id="2,9" node-id="420" stroke="none" target-height="41.799988" target-width="31.900024" target-x="568.3" target-y="594.3"></path><path d="M 600.60 635.50 C 600.60 635.50 596.80 667.90 623.10 662.40 C 591.20 677.30 598.30 643.10 600.60 635.50 Z" fill="#22286e" fill-rule="nonzero" group-id="2,9" node-id="422" stroke="none" target-height="41.799988" target-width="31.899963" target-x="591.2" target-y="635.5"></path><path d="M 638.60 665.20 C 638.60 665.20 639.20 697.80 664.50 688.90 C 634.90 707.90 637.40 673.10 638.60 665.20 Z" fill="#22286e" fill-rule="nonzero" group-id="2,9" node-id="424" stroke="none" target-height="42.700012" target-width="29.599976" target-x="634.9" target-y="665.2"></path><path d="M 620.10 569.60 C 620.10 569.60 616.30 602.00 642.60 596.50 C 610.80 611.40 617.90 577.30 620.10 569.60 Z" fill="#22286e" fill-rule="nonzero" group-id="2,9" node-id="426" stroke="none" target-height="41.80005" target-width="31.799988" target-x="610.8" target-y="569.6"></path><path d="M 662.40 619.40 C 662.40 619.40 662.90 652.00 688.30 643.10 C 658.70 662.00 661.20 627.20 662.40 619.40 Z" fill="#22286e" fill-rule="nonzero" group-id="2,9" node-id="428" stroke="none" target-height="42.599976" target-width="29.599976" target-x="658.7" target-y="619.4"></path><path d="M 678.20 568.90 C 678.20 568.90 674.40 601.20 700.70 595.80 C 668.80 610.70 676.00 576.60 678.20 568.90 Z" fill="#22286e" fill-rule="nonzero" group-id="2,9" node-id="430" stroke="none" target-height="41.799988" target-width="31.900024" target-x="668.8" target-y="568.9"></path><path d="M 717.60 609.30 C 717.60 609.30 718.20 641.90 743.50 633.00 C 713.90 652.00 716.50 617.20 717.60 609.30 Z" fill="#22286e" fill-rule="nonzero" group-id="2,9" node-id="432" stroke="none" target-height="42.700012" target-width="29.599976" target-x="713.9" target-y="609.3"></path><path d="M 668.80 544.90 C 636.90 559.80 644.10 525.60 646.30 518.00 C 646.30 517.90 642.50 550.30 668.80 544.90 Z" fill="#22286e" fill-rule="nonzero" group-id="2,9" node-id="434" stroke="none" target-height="41.899963" target-width="31.899963" target-x="636.9" target-y="517.9"></path><path d="M 691.00 505.10 C 691.00 505.10 687.20 537.50 713.50 532.00 C 681.60 546.90 688.70 512.80 691.00 505.10 Z" fill="#22286e" fill-rule="nonzero" group-id="2,9" node-id="436" stroke="none" target-height="41.80002" target-width="31.900024" target-x="681.6" target-y="505.1"></path><path d="M 733.20 554.80 C 733.20 554.80 733.80 587.40 759.10 578.50 C 729.50 597.50 732.00 562.70 733.20 554.80 Z" fill="#22286e" fill-rule="nonzero" group-id="2,9" node-id="438" stroke="none" target-height="42.700012" target-width="29.599976" target-x="729.5" target-y="554.8"></path><path d="M 763.70 524.80 C 731.20 538.20 739.90 504.50 742.40 496.90 C 742.40 496.90 737.20 529.00 763.70 524.80 Z" fill="#22286e" fill-rule="nonzero" group-id="2,9" node-id="440" stroke="none" target-height="41.30002" target-width="32.5" target-x="731.2" target-y="496.9"></path><path d="M 790.20 526.30 C 790.20 526.30 790.80 558.90 816.10 550.00 C 786.50 568.90 789.00 534.20 790.20 526.30 Z" fill="#22286e" fill-rule="nonzero" group-id="2,9" node-id="442" stroke="none" target-height="42.600037" target-width="29.599976" target-x="786.5" target-y="526.3"></path><path d="M 744.00 475.80 C 711.50 489.20 720.20 455.40 722.70 447.90 C 722.80 447.90 717.50 480.10 744.00 475.80 Z" fill="#22286e" fill-rule="nonzero" group-id="2,9" node-id="444" stroke="none" target-height="41.30002" target-width="32.5" target-x="711.5" target-y="447.9"></path></g><g node-id="795"><g node-id="810"><path d="M 930.10 665.90 C 915.80 665.90 901.20 641.70 896.20 624.30 C 891.30 607.20 894.00 594.50 903.80 588.30 C 905.10 587.50 1024.10 514.50 1048.90 485.20 C 1055.90 477.00 1061.60 468.60 1066.60 461.30 C 1077.10 445.90 1085.40 433.80 1098.10 433.80 C 1103.50 433.80 1108.90 436.10 1114.60 440.90 C 1136.80 459.60 1137.40 482.70 1136.30 492.90 C 1147.00 500.10 1172.90 519.90 1167.70 540.80 C 1162.80 560.50 1142.90 564.00 1109.80 569.70 C 1105.20 570.50 1100.30 571.40 1095.10 572.30 C 1066.30 577.60 998.10 623.40 961.50 648.00 C 948.40 656.80 939.80 662.60 936.00 664.50 C 934.10 665.40 932.20 665.90 930.10 665.90 Z" fill="#ffffff" fill-rule="nonzero" group-id="2,10,25" node-id="451" stroke="none" target-height="232.10004" target-width="281.60004" target-x="891.3" target-y="433.8"></path><path d="M 1098.00 440.90 C 1101.60 440.90 1105.50 442.60 1109.90 446.30 C 1135.60 468.00 1128.50 496.30 1128.50 496.30 C 1128.50 496.30 1165.80 518.60 1160.70 539.00 C 1156.30 556.50 1133.80 557.90 1093.70 565.30 C 1053.60 572.60 946.50 651.00 932.60 658.20 C 931.80 658.60 930.90 658.80 930.00 658.80 C 915.20 658.80 888.30 606.20 907.40 594.30 C 907.40 594.30 1028.30 520.30 1054.10 489.80 C 1074.70 465.60 1084.20 440.90 1098.00 440.90 M 1098.00 426.70 L 1098.00 426.70 C 1081.50 426.70 1071.80 440.90 1060.60 457.30 C 1055.70 464.50 1050.10 472.70 1043.30 480.60 C 1023.30 504.20 933.10 561.90 900.00 582.20 C 894.00 586.00 881.10 597.70 889.30 626.20 C 894.50 644.30 910.10 673.00 930.00 673.00 C 933.20 673.00 936.30 672.20 939.20 670.80 C 943.10 668.80 950.40 663.90 965.30 653.90 C 998.90 631.30 1068.90 584.30 1096.20 579.30 C 1101.40 578.40 1106.30 577.50 1110.80 576.70 C 1144.20 570.90 1168.40 566.70 1174.40 542.50 C 1180.20 519.30 1157.00 498.90 1143.50 489.30 C 1143.90 476.40 1140.90 453.90 1119.00 435.50 C 1112.10 429.50 1105.20 426.70 1098.00 426.70 L 1098.00 426.70 Z" fill="#22286e" fill-rule="nonzero" group-id="2,10,25" node-id="453" stroke="none" target-height="246.29999" target-width="299.09998" target-x="881.1" target-y="426.7"></path></g><path d="M 948.50 568.40 C 955.00 564.20 962.00 559.60 969.10 554.90 C 977.90 562.30 991.70 574.50 996.40 582.60 C 1003.40 594.90 1012.30 580.80 1029.60 569.90 C 1048.00 558.30 1070.00 546.30 1086.60 539.80 C 1096.70 535.90 1103.90 528.10 1106.70 513.50 C 1108.30 505.00 1116.90 500.30 1118.60 485.10 C 1119.90 473.90 1113.00 456.50 1111.30 447.70 C 1135.30 469.20 1128.40 496.40 1128.40 496.40 C 1128.40 496.40 1128.70 496.50 1129.00 496.80 C 1128.30 497.90 1164.90 514.80 1160.60 539.10 C 1157.50 556.90 1133.70 558.00 1093.60 565.40 C 1064.10 570.80 998.50 614.50 960.30 640.10 C 950.30 621.90 941.30 591.60 948.50 568.40 Z" fill="#73c0d7" fill-rule="nonzero" group-id="2,10" node-id="456" stroke="none" target-height="192.39996" target-width="223.60004" target-x="941.3" target-y="447.7"></path><path d="M 713.60 882.60 C 669.30 882.60 635.00 846.00 626.20 789.30 C 618.70 740.80 634.80 707.80 643.40 690.10 C 661.00 653.90 679.20 641.30 721.70 623.80 C 746.80 613.50 766.30 609.20 785.20 605.10 C 798.20 602.30 810.50 599.60 824.30 595.00 C 866.50 581.20 939.20 554.30 949.90 548.60 C 952.50 547.20 955.20 546.50 958.00 546.50 C 969.70 546.50 976.60 559.20 981.60 568.40 C 982.20 569.40 982.70 570.50 983.20 571.40 C 995.30 593.20 997.10 626.40 976.90 647.90 C 962.30 663.40 946.00 689.30 913.60 741.00 C 905.20 754.40 895.70 769.50 884.90 786.50 C 825.10 880.70 747.90 882.00 714.90 882.60 L 713.60 882.60 Z" fill="#e58456" fill-rule="nonzero" group-id="2,10,26" node-id="460" stroke="none" target-height="336.09998" target-width="378.39996" target-x="618.7" target-y="546.5"></path><path d="M 958.00 553.60 C 966.50 553.60 972.40 566.60 977.00 574.90 C 987.00 592.80 990.70 622.90 971.80 643.10 C 952.90 663.30 931.80 699.40 879.00 782.80 C 822.30 872.30 750.80 875.00 714.80 875.60 C 714.40 875.60 714.00 875.60 713.60 875.60 C 673.80 875.60 641.60 842.40 633.20 788.30 C 626.30 743.70 640.00 713.40 649.80 693.30 C 666.40 659.20 683.10 647.50 724.50 630.40 C 765.90 613.40 792.00 613.20 826.60 601.80 C 869.60 587.70 942.20 560.80 953.30 554.90 C 955.00 554.00 956.50 553.60 958.00 553.60 M 958.00 539.40 C 954.10 539.40 950.20 540.40 946.60 542.40 C 937.10 547.50 867.40 573.50 822.20 588.30 C 808.70 592.70 796.60 595.40 783.80 598.20 C 764.60 602.40 744.70 606.70 719.10 617.30 C 676.70 634.70 655.90 648.30 637.10 687.10 C 628.10 705.50 611.40 739.80 619.30 790.50 C 628.70 850.80 665.70 889.80 713.70 889.80 C 714.20 889.80 714.70 889.80 715.20 889.80 C 749.30 889.20 829.30 887.90 891.10 790.40 C 901.90 773.30 911.40 758.20 919.90 744.80 C 952.10 693.60 968.20 667.90 982.30 652.90 C 1005.80 627.80 1002.60 591.40 989.60 568.10 C 989.10 567.20 988.60 566.20 988.00 565.20 C 982.30 554.80 974.00 539.40 958.00 539.40 L 958.00 539.40 Z" fill="#22286e" fill-rule="nonzero" group-id="2,10,26,34" node-id="464" stroke="none" target-height="350.39996" target-width="394.39996" target-x="611.4" target-y="539.4"></path><path d="M 651.30 797.20 C 704.20 837.90 796.70 847.40 853.50 758.00 C 906.30 674.70 927.20 649.50 946.10 629.30 C 963.50 610.70 970.50 598.20 977.10 574.90 C 987.10 592.80 990.80 622.90 971.90 643.10 C 953.00 663.30 931.90 699.40 879.10 782.80 C 822.40 872.30 750.90 875.00 714.90 875.60 C 690.00 876.00 668.00 863.40 652.80 841.00 C 630.80 798.80 640.80 789.20 651.30 797.20 Z" fill="#dd4d2d" fill-rule="nonzero" group-id="2,10" node-id="468" stroke="none" target-height="301.09998" target-width="360" target-x="630.8" target-y="574.9"></path><path d="M 918.90 588.40 C 921.20 590.60 924.90 590.40 927.30 588.00 C 929.60 585.60 929.70 581.80 927.40 579.60 C 925.10 577.40 921.40 577.60 919.00 580.00 C 916.70 582.40 916.60 586.20 918.90 588.40 Z" fill="#d52061" fill-rule="nonzero" group-id="2,10,27,35" node-id="474" stroke="none" target-height="13.199951" target-width="13.100037" target-x="916.6" target-y="577.4"></path><path d="M 866.50 603.00 C 868.80 605.20 872.50 605.00 874.90 602.60 C 877.20 600.20 877.30 596.40 875.00 594.20 C 872.70 592.00 869.00 592.10 866.60 594.60 C 864.30 597.10 864.20 600.80 866.50 603.00 Z" fill="#d52061" fill-rule="nonzero" group-id="2,10,27,36" node-id="479" stroke="none" target-height="13.200012" target-width="13.099976" target-x="864.2" target-y="592"></path><path d="M 819.40 625.50 C 821.70 627.70 825.40 627.50 827.80 625.10 C 830.10 622.70 830.20 618.90 827.90 616.70 C 825.60 614.50 821.90 614.70 819.50 617.10 C 817.20 619.50 817.10 623.20 819.40 625.50 Z" fill="#d52061" fill-rule="nonzero" group-id="2,10,27,37" node-id="484" stroke="none" target-height="13.200012" target-width="13.100037" target-x="817.1" target-y="614.5"></path><path d="M 754.80 629.50 C 757.10 631.70 760.80 631.50 763.10 629.10 C 765.40 626.70 765.50 623.00 763.20 620.70 C 760.90 618.50 757.20 618.70 754.80 621.10 C 752.60 623.60 752.50 627.30 754.80 629.50 Z" fill="#d52061" fill-rule="nonzero" group-id="2,10,27,38" node-id="489" stroke="none" target-height="13.200012" target-width="13" target-x="752.5" target-y="618.5"></path><path d="M 725.70 665.80 C 728.00 668.00 731.70 667.80 734.10 665.40 C 736.40 663.00 736.50 659.20 734.20 657.00 C 731.90 654.80 728.20 655.00 725.80 657.40 C 723.50 659.90 723.40 663.60 725.70 665.80 Z" fill="#d52061" fill-rule="nonzero" group-id="2,10,27,39" node-id="494" stroke="none" target-height="13.200012" target-width="13.099976" target-x="723.4" target-y="654.8"></path><path d="M 684.30 684.00 C 686.60 686.20 690.30 686.00 692.60 683.60 C 694.90 681.20 695.00 677.40 692.70 675.20 C 690.40 673.00 686.70 673.20 684.30 675.60 C 682.00 678.00 682.00 681.80 684.30 684.00 Z" fill="#d52061" fill-rule="nonzero" group-id="2,10,27,40" node-id="499" stroke="none" target-height="13.200012" target-width="13" target-x="682" target-y="673"></path><path d="M 651.70 723.80 C 654.00 726.00 657.70 725.80 660.10 723.40 C 662.40 721.00 662.50 717.20 660.20 715.00 C 657.90 712.80 654.20 713.00 651.80 715.40 C 649.50 717.80 649.40 721.60 651.70 723.80 Z" fill="#d52061" fill-rule="nonzero" group-id="2,10,27,41" node-id="504" stroke="none" target-height="13.200012" target-width="13.099976" target-x="649.4" target-y="712.8"></path><path d="M 683.40 733.90 C 685.70 736.10 689.40 735.90 691.70 733.50 C 694.00 731.10 694.10 727.30 691.80 725.10 C 689.50 722.90 685.80 723.10 683.40 725.50 C 681.20 727.90 681.20 731.70 683.40 733.90 Z" fill="#d52061" fill-rule="nonzero" group-id="2,10,27,42" node-id="509" stroke="none" target-height="13.199951" target-width="12.899963" target-x="681.2" target-y="722.9"></path><path d="M 713.50 709.30 C 715.80 711.50 719.50 711.30 721.90 708.90 C 724.20 706.50 724.30 702.70 722.00 700.50 C 719.70 698.30 716.00 698.50 713.60 700.90 C 711.30 703.30 711.20 707.10 713.50 709.30 Z" fill="#d52061" fill-rule="nonzero" group-id="2,10,27,43" node-id="514" stroke="none" target-height="13.200012" target-width="13.099976" target-x="711.2" target-y="698.3"></path><path d="M 756.80 702.60 C 759.10 704.80 762.80 704.60 765.20 702.20 C 767.50 699.80 767.60 696.10 765.30 693.80 C 763.00 691.60 759.30 691.80 756.90 694.20 C 754.60 696.60 754.60 700.40 756.80 702.60 Z" fill="#d52061" fill-rule="nonzero" group-id="2,10,27,44" node-id="519" stroke="none" target-height="13.200012" target-width="13" target-x="754.6" target-y="691.6"></path><path d="M 776.00 670.20 C 778.30 672.40 782.00 672.20 784.40 669.80 C 786.70 667.40 786.80 663.60 784.50 661.50 C 782.20 659.30 778.50 659.50 776.10 661.90 C 773.80 664.20 773.70 667.90 776.00 670.20 Z" fill="#d52061" fill-rule="nonzero" group-id="2,10,27,45" node-id="524" stroke="none" target-height="13.100037" target-width="13.099976" target-x="773.7" target-y="659.3"></path><path d="M 828.10 669.30 C 830.40 671.50 834.10 671.30 836.50 668.90 C 838.80 666.50 838.90 662.70 836.60 660.50 C 834.30 658.30 830.60 658.50 828.20 660.90 C 825.90 663.30 825.80 667.10 828.10 669.30 Z" fill="#d52061" fill-rule="nonzero" group-id="2,10,27,46" node-id="529" stroke="none" target-height="13.200012" target-width="13.100037" target-x="825.8" target-y="658.3"></path><path d="M 855.50 647.40 C 857.80 649.60 861.50 649.40 863.80 647.00 C 866.10 644.60 866.20 640.90 863.90 638.70 C 861.60 636.50 857.90 636.70 855.50 639.10 C 853.20 641.50 853.20 645.20 855.50 647.40 Z" fill="#d52061" fill-rule="nonzero" group-id="2,10,27,47" node-id="534" stroke="none" target-height="13.099976" target-width="13" target-x="853.2" target-y="636.5"></path><path d="M 889.40 618.70 C 891.70 620.90 895.40 620.70 897.80 618.30 C 900.10 615.90 900.20 612.20 897.90 609.90 C 895.60 607.70 891.90 607.90 889.50 610.30 C 887.20 612.80 887.10 616.50 889.40 618.70 Z" fill="#d52061" fill-rule="nonzero" group-id="2,10,27,48" node-id="539" stroke="none" target-height="13.200012" target-width="13.100037" target-x="887.1" target-y="607.7"></path><path d="M 929.70 618.70 C 932.00 620.90 935.70 620.70 938.10 618.30 C 940.40 615.90 940.50 612.10 938.20 609.90 C 935.90 607.70 932.20 607.80 929.80 610.30 C 927.50 612.70 927.50 616.50 929.70 618.70 Z" fill="#d52061" fill-rule="nonzero" group-id="2,10,27,49" node-id="544" stroke="none" target-height="13.200012" target-width="13" target-x="927.5" target-y="607.7"></path><path d="M 957.60 583.70 C 959.90 585.90 963.60 585.70 966.00 583.30 C 968.30 580.90 968.40 577.20 966.10 575.00 C 963.80 572.80 960.10 573.00 957.70 575.40 C 955.40 577.70 955.30 581.50 957.60 583.70 Z" fill="#d52061" fill-rule="nonzero" group-id="2,10,27,50" node-id="549" stroke="none" target-height="13.100037" target-width="13.100037" target-x="955.3" target-y="572.8"></path><path d="M 903.30 658.60 C 905.60 660.80 909.30 660.60 911.70 658.20 C 914.00 655.80 914.10 652.00 911.80 649.80 C 909.50 647.60 905.80 647.80 903.50 650.20 C 901.10 652.60 901.10 656.40 903.30 658.60 Z" fill="#d52061" fill-rule="nonzero" group-id="2,10,27,51" node-id="554" stroke="none" target-height="13.200012" target-width="13" target-x="901.1" target-y="647.6"></path><path d="M 866.50 671.20 C 868.80 673.40 872.50 673.30 874.80 670.80 C 877.10 668.40 877.20 664.60 874.90 662.40 C 872.60 660.20 868.90 660.40 866.50 662.80 C 864.30 665.20 864.20 669.00 866.50 671.20 Z" fill="#d52061" fill-rule="nonzero" group-id="2,10,27,52" node-id="559" stroke="none" target-height="13.200012" target-width="13" target-x="864.2" target-y="660.2"></path><path d="M 866.10 712.70 C 868.40 714.90 872.10 714.70 874.40 712.30 C 876.70 709.90 876.80 706.10 874.50 703.90 C 872.20 701.70 868.50 701.90 866.10 704.30 C 863.80 706.70 863.80 710.50 866.10 712.70 Z" fill="#d52061" fill-rule="nonzero" group-id="2,10,27,53" node-id="564" stroke="none" target-height="13.200012" target-width="13" target-x="863.8" target-y="701.7"></path><path d="M 965.10 626.70 C 967.40 628.90 971.10 628.70 973.40 626.30 C 975.70 623.90 975.80 620.10 973.50 617.90 C 971.20 615.70 967.50 615.90 965.10 618.30 C 962.90 620.80 962.80 624.50 965.10 626.70 Z" fill="#d52061" fill-rule="nonzero" group-id="2,10,27,54" node-id="569" stroke="none" target-height="13.200012" target-width="13" target-x="962.8" target-y="615.7"></path><path d="M 930.70 652.40 C 933.00 654.60 936.70 654.40 939.10 652.00 C 941.40 649.60 941.50 645.80 939.20 643.60 C 936.90 641.40 933.20 641.60 930.80 644.00 C 928.50 646.40 928.50 650.20 930.70 652.40 Z" fill="#d52061" fill-rule="nonzero" group-id="2,10,27,55" node-id="574" stroke="none" target-height="13.199951" target-width="13" target-x="928.5" target-y="641.4"></path><path d="M 930.70 685.10 C 933.00 687.30 936.70 687.10 939.10 684.70 C 941.40 682.30 941.50 678.50 939.20 676.30 C 936.90 674.10 933.20 674.30 930.80 676.70 C 928.50 679.20 928.40 682.90 930.70 685.10 Z" fill="#d52061" fill-rule="nonzero" group-id="2,10,27,56" node-id="579" stroke="none" target-height="13.200012" target-width="13.099976" target-x="928.4" target-y="674.1"></path><path d="M 898.20 702.00 C 900.50 704.20 904.20 704.00 906.50 701.60 C 908.80 699.20 908.90 695.40 906.60 693.20 C 904.30 691.00 900.60 691.20 898.20 693.60 C 896.00 696.00 895.90 699.80 898.20 702.00 Z" fill="#d52061" fill-rule="nonzero" group-id="2,10,27,57" node-id="584" stroke="none" target-height="13.200012" target-width="13" target-x="895.9" target-y="691"></path><path d="M 896.20 731.50 C 898.50 733.70 902.20 733.50 904.50 731.10 C 906.80 728.70 906.90 725.00 904.60 722.80 C 902.30 720.60 898.60 720.80 896.20 723.20 C 894.00 725.50 893.90 729.30 896.20 731.50 Z" fill="#d52061" fill-rule="nonzero" group-id="2,10,27,58" node-id="589" stroke="none" target-height="13.100037" target-width="13" target-x="893.9" target-y="720.6"></path><path d="M 868.60 753.50 C 870.90 755.70 874.60 755.50 877.00 753.10 C 879.30 750.70 879.40 746.90 877.10 744.70 C 874.80 742.50 871.10 742.70 868.70 745.10 C 866.40 747.60 866.30 751.30 868.60 753.50 Z" fill="#d52061" fill-rule="nonzero" group-id="2,10,27,59" node-id="594" stroke="none" target-height="13.200012" target-width="13.100037" target-x="866.3" target-y="742.5"></path><path d="M 866.30 782.80 C 868.60 785.00 872.30 784.80 874.70 782.40 C 877.00 780.00 877.10 776.20 874.80 774.00 C 872.50 771.80 868.80 772.00 866.40 774.40 C 864.10 776.80 864.10 780.60 866.30 782.80 Z" fill="#d52061" fill-rule="nonzero" group-id="2,10,27,60" node-id="599" stroke="none" target-height="13.200012" target-width="13" target-x="864.1" target-y="771.8"></path><path d="M 826.80 809.30 C 829.10 811.50 832.80 811.30 835.10 808.90 C 837.50 806.50 837.50 802.70 835.20 800.50 C 832.90 798.30 829.20 798.50 826.80 800.90 C 824.60 803.30 824.50 807.10 826.80 809.30 Z" fill="#d52061" fill-rule="nonzero" group-id="2,10,27,61" node-id="604" stroke="none" target-height="13.200012" target-width="13" target-x="824.5" target-y="798.3"></path><path d="M 819.20 834.50 C 821.50 836.70 825.20 836.50 827.60 834.10 C 829.90 831.70 830.00 828.00 827.70 825.70 C 825.40 823.50 821.70 823.70 819.30 826.10 C 817.00 828.60 816.90 832.30 819.20 834.50 Z" fill="#d52061" fill-rule="nonzero" group-id="2,10,27,62" node-id="609" stroke="none" target-height="13.200012" target-width="13.099976" target-x="816.9" target-y="823.5"></path><path d="M 782.20 836.20 C 784.50 838.40 788.20 838.20 790.60 835.80 C 792.90 833.40 793.00 829.70 790.70 827.50 C 788.40 825.30 784.70 825.50 782.30 827.90 C 780.00 830.30 779.90 834.00 782.20 836.20 Z" fill="#d52061" fill-rule="nonzero" group-id="2,10,27,63" node-id="614" stroke="none" target-height="13.100037" target-width="13.099976" target-x="779.9" target-y="825.3"></path><path d="M 752.70 860.30 C 755.00 862.50 758.70 862.30 761.00 859.90 C 763.30 857.50 763.40 853.70 761.10 851.50 C 758.80 849.30 755.10 849.50 752.80 851.90 C 750.50 854.30 750.40 858.10 752.70 860.30 Z" fill="#d52061" fill-rule="nonzero" group-id="2,10,27,64" node-id="619" stroke="none" target-height="13.200012" target-width="13" target-x="750.4" target-y="849.3"></path><path d="M 724.40 849.30 C 726.70 851.50 730.40 851.30 732.80 848.90 C 735.10 846.50 735.20 842.70 732.90 840.60 C 730.60 838.40 726.90 838.50 724.50 841.00 C 722.10 843.30 722.10 847.10 724.40 849.30 Z" fill="#d52061" fill-rule="nonzero" group-id="2,10,27,65" node-id="624" stroke="none" target-height="13.099976" target-width="13.100037" target-x="722.1" target-y="838.4"></path><path d="M 692.00 863.60 C 694.30 865.80 698.00 865.60 700.30 863.20 C 702.60 860.80 702.70 857.00 700.40 854.80 C 698.10 852.60 694.40 852.80 692.00 855.20 C 689.80 857.60 689.70 861.40 692.00 863.60 Z" fill="#d52061" fill-rule="nonzero" group-id="2,10,27,66" node-id="629" stroke="none" target-height="13.200012" target-width="13" target-x="689.7" target-y="852.6"></path><path d="M 669.20 834.90 C 671.50 837.10 675.20 836.90 677.60 834.50 C 679.90 832.10 680.00 828.30 677.70 826.10 C 675.40 823.90 671.70 824.10 669.30 826.50 C 667.00 829.00 667.00 832.70 669.20 834.90 Z" fill="#d52061" fill-rule="nonzero" group-id="2,10,27,67" node-id="634" stroke="none" target-height="13.199951" target-width="13" target-x="667" target-y="823.9"></path><path d="M 648.10 820.90 C 650.40 823.10 654.10 822.90 656.50 820.50 C 658.80 818.10 658.90 814.40 656.60 812.20 C 654.30 810.00 650.60 810.20 648.20 812.60 C 645.90 815.00 645.80 818.70 648.10 820.90 Z" fill="#d52061" fill-rule="nonzero" group-id="2,10,27,68" node-id="639" stroke="none" target-height="13.099976" target-width="13.100037" target-x="645.8" target-y="810"></path><path d="M 817.20 703.60 C 819.50 705.80 823.20 705.60 825.50 703.20 C 827.80 700.80 827.90 697.00 825.60 694.80 C 823.30 692.60 819.60 692.80 817.20 695.20 C 815.00 697.70 814.90 701.40 817.20 703.60 Z" fill="#d52061" fill-rule="nonzero" group-id="2,10,27,69" node-id="644" stroke="none" target-height="13.200012" target-width="13" target-x="814.9" target-y="692.6"></path><path d="M 820.00 744.40 C 822.30 746.60 826.00 746.40 828.40 744.00 C 830.70 741.60 830.80 737.90 828.50 735.70 C 826.20 733.50 822.50 733.70 820.10 736.10 C 817.80 738.40 817.80 742.20 820.00 744.40 Z" fill="#d52061" fill-rule="nonzero" group-id="2,10,27,70" node-id="649" stroke="none" target-height="13.099976" target-width="13" target-x="817.8" target-y="733.5"></path><path d="M 776.80 728.50 C 779.10 730.70 782.80 730.50 785.10 728.10 C 787.40 725.70 787.50 721.90 785.20 719.70 C 782.90 717.50 779.20 717.70 776.80 720.10 C 774.50 722.50 774.50 726.30 776.80 728.50 Z" fill="#d52061" fill-rule="nonzero" group-id="2,10,27,71" node-id="654" stroke="none" target-height="13.200012" target-width="13" target-x="774.5" target-y="717.5"></path><path d="M 736.80 769.60 C 739.10 771.80 742.80 771.60 745.10 769.20 C 747.40 766.80 747.50 763.00 745.20 760.80 C 742.90 758.60 739.20 758.80 736.80 761.20 C 734.60 763.60 734.60 767.40 736.80 769.60 Z" fill="#d52061" fill-rule="nonzero" group-id="2,10,27,72" node-id="659" stroke="none" target-height="13.200012" target-width="12.900024" target-x="734.6" target-y="758.6"></path><path d="M 727.90 739.40 C 730.20 741.60 733.90 741.40 736.30 739.00 C 738.60 736.60 738.70 732.90 736.40 730.60 C 734.10 728.40 730.40 728.60 728.10 731.00 C 725.70 733.50 725.70 737.20 727.90 739.40 Z" fill="#d52061" fill-rule="nonzero" group-id="2,10,27,73" node-id="664" stroke="none" target-height="13.199951" target-width="13" target-x="725.7" target-y="728.4"></path><path d="M 686.40 775.90 C 688.70 778.10 692.40 777.90 694.80 775.50 C 697.10 773.10 697.20 769.40 694.90 767.10 C 692.60 764.90 688.90 765.10 686.50 767.50 C 684.20 770.00 684.10 773.70 686.40 775.90 Z" fill="#d52061" fill-rule="nonzero" group-id="2,10,27,74" node-id="669" stroke="none" target-height="13.199951" target-width="13.100037" target-x="684.1" target-y="764.9"></path><path d="M 648.00 758.60 C 650.30 760.80 654.00 760.60 656.30 758.20 C 658.60 755.80 658.70 752.00 656.40 749.80 C 654.10 747.60 650.40 747.70 648.00 750.20 C 645.70 752.60 645.70 756.40 648.00 758.60 Z" fill="#d52061" fill-rule="nonzero" group-id="2,10,27,75" node-id="674" stroke="none" target-height="13.200012" target-width="13" target-x="645.7" target-y="747.6"></path><path d="M 645.40 792.20 C 647.70 794.40 651.40 794.20 653.70 791.90 C 656.00 789.50 656.10 785.70 653.80 783.50 C 651.50 781.30 647.80 781.50 645.50 783.90 C 643.20 786.20 643.20 790.00 645.40 792.20 Z" fill="#d52061" fill-rule="nonzero" group-id="2,10,27,76" node-id="679" stroke="none" target-height="13.100037" target-width="12.899963" target-x="643.2" target-y="781.3"></path><path d="M 670.80 803.80 C 673.10 806.00 676.80 805.80 679.20 803.40 C 681.60 801.00 681.60 797.30 679.30 795.00 C 677.00 792.80 673.30 793.00 670.90 795.40 C 668.60 797.90 668.60 801.60 670.80 803.80 Z" fill="#d52061" fill-rule="nonzero" group-id="2,10,27,77" node-id="684" stroke="none" target-height="13.200012" target-width="13" target-x="668.6" target-y="792.8"></path><path d="M 710.20 799.00 C 712.50 801.20 716.20 801.00 718.60 798.60 C 720.90 796.20 721.00 792.40 718.70 790.20 C 716.40 788.00 712.70 788.20 710.30 790.60 C 708.00 793.10 707.90 796.80 710.20 799.00 Z" fill="#d52061" fill-rule="nonzero" group-id="2,10,27,78" node-id="689" stroke="none" target-height="13.200012" target-width="13.099976" target-x="707.9" target-y="788"></path><path d="M 755.60 817.00 C 757.90 819.20 761.60 819.00 763.90 816.60 C 766.20 814.20 766.30 810.40 764.00 808.20 C 761.70 806.00 758.00 806.20 755.60 808.60 C 753.40 811.10 753.40 814.80 755.60 817.00 Z" fill="#d52061" fill-rule="nonzero" group-id="2,10,27,79" node-id="694" stroke="none" target-height="13.200012" target-width="12.899963" target-x="753.4" target-y="806"></path><path d="M 782.70 776.50 C 785.00 778.70 788.70 778.50 791.00 776.10 C 793.30 773.70 793.40 769.90 791.10 767.70 C 788.80 765.50 785.10 765.70 782.70 768.10 C 780.50 770.50 780.40 774.30 782.70 776.50 Z" fill="#d52061" fill-rule="nonzero" group-id="2,10,27,80" node-id="699" stroke="none" target-height="13.200012" target-width="13" target-x="780.4" target-y="765.5"></path><path d="M 809.90 792.90 C 812.20 795.10 815.90 794.90 818.20 792.50 C 820.60 790.10 820.60 786.30 818.30 784.10 C 816.00 781.90 812.30 782.10 809.90 784.50 C 807.70 787.00 807.70 790.70 809.90 792.90 Z" fill="#d52061" fill-rule="nonzero" group-id="2,10,27,81" node-id="704" stroke="none" target-height="13.199951" target-width="12.899963" target-x="807.7" target-y="781.9"></path><path d="M 848.40 747.00 C 850.70 749.20 854.40 749.00 856.80 746.60 C 859.10 744.20 859.20 740.40 856.90 738.20 C 854.60 736.00 850.90 736.20 848.60 738.60 C 846.20 741.00 846.10 744.80 848.40 747.00 Z" fill="#d52061" fill-rule="nonzero" group-id="2,10,27,82" node-id="709" stroke="none" target-height="13.200012" target-width="13.100037" target-x="846.1" target-y="736"></path></g><g node-id="796"><g node-id="813"><path d="M 262.00 1094.80 C 218.20 1094.80 175.50 1069.30 166.90 1037.90 L 105.90 792.50 C 105.40 790.40 105.90 788.10 107.20 786.40 C 108.50 784.70 110.60 783.70 112.80 783.70 L 994.90 783.70 C 997.10 783.70 999.10 784.70 1000.50 786.40 C 1001.80 788.10 1002.30 790.40 1001.80 792.50 L 940.80 1037.70 C 932.20 1069.20 889.50 1094.70 845.60 1094.70 L 262.00 1094.70 Z" fill="#9aa2cc" fill-rule="nonzero" group-id="2,11,28" node-id="718" stroke="none" target-height="311.10004" target-width="896.89996" target-x="105.4" target-y="783.7"></path><path d="M 994.80 790.90 L 994.80 790.90 M 994.80 790.90 L 933.80 1036.10 C 926.00 1064.50 886.30 1087.80 845.50 1087.80 L 262.00 1087.80 C 221.20 1087.80 181.50 1064.50 173.70 1036.10 L 112.70 790.90 L 994.80 790.90 M 994.80 776.70 L 994.80 776.70 L 112.70 776.70 C 108.30 776.70 104.20 778.70 101.50 782.10 C 98.80 785.50 97.90 790.00 98.90 794.20 L 159.90 1039.40 C 159.90 1039.50 160.00 1039.60 160.00 1039.70 C 169.60 1074.50 214.40 1101.80 262.00 1101.80 L 845.50 1101.80 C 893.10 1101.80 937.90 1074.50 947.50 1039.70 C 947.50 1039.60 947.60 1039.50 947.60 1039.40 L 1008.40 794.70 C 1008.80 793.40 1009.00 792.10 1009.00 790.70 C 1009.00 783.00 1002.60 776.70 994.80 776.70 L 994.80 776.70 Z M 994.80 805.00 L 994.80 805.00 L 994.80 805.00 L 994.80 805.00 Z" fill="#22286e" fill-rule="nonzero" group-id="2,11,28" node-id="720" stroke="none" target-height="325.10004" target-width="911.1" target-x="97.9" target-y="776.7"></path></g><path d="M 958.20 790.90 L 902.50 1011.70 C 894.70 1040.10 854.90 1063.40 814.20 1063.40 L 230.70 1063.40 C 213.50 1063.40 196.40 1059.20 181.90 1052.30 C 197.30 1072.90 229.30 1087.90 262.00 1087.90 L 845.50 1087.90 C 886.30 1087.90 926.00 1064.60 933.80 1036.20 L 994.80 791.00 L 958.20 791.00 Z" fill="#8064a0" fill-rule="nonzero" group-id="2,11" node-id="723" stroke="none" target-height="297" target-width="812.9" target-x="181.9" target-y="790.9"></path><path d="M 95.80 848.20 C 91.90 848.20 88.70 845.00 88.70 841.10 L 88.70 756.40 C 88.70 752.50 91.90 749.30 95.80 749.30 L 1011.60 749.30 C 1015.50 749.30 1018.70 752.50 1018.70 756.40 L 1018.70 841.10 C 1018.70 845.00 1015.50 848.20 1011.60 848.20 L 95.80 848.20 Z" fill="#9aa2cc" fill-rule="nonzero" group-id="2,11,29" node-id="727" stroke="none" target-height="98.900024" target-width="930" target-x="88.7" target-y="749.3"></path><path d="M 1011.70 756.50 L 1011.70 841.20 L 95.80 841.20 L 95.80 756.50 L 1011.70 756.50 M 1011.70 742.30 L 95.80 742.30 C 88.00 742.30 81.60 748.60 81.60 756.50 L 81.60 841.20 C 81.60 849.00 87.90 855.40 95.80 855.40 L 1011.60 855.40 C 1019.40 855.40 1025.80 849.10 1025.80 841.20 L 1025.80 756.50 C 1025.80 748.60 1019.50 742.30 1011.70 742.30 L 1011.70 742.30 Z" fill="#22286e" fill-rule="nonzero" group-id="2,11,29,83" node-id="731" stroke="none" target-height="113.10004" target-width="944.2001" target-x="81.6" target-y="742.3"></path><path d="M 272.10 896.20 L 224.40 896.20 L 219.20 874.50 L 272.10 874.50 Z" fill="#22286e" fill-rule="nonzero" group-id="2,11,30" node-id="737" stroke="none" target-height="21.700012" target-width="52.90001" target-x="219.2" target-y="874.5"></path><path d="M 372.80 874.50 L 429.30 874.50 L 429.30 896.10 L 372.80 896.10 Z" fill="#22286e" fill-rule="nonzero" group-id="2,11,30" node-id="739" stroke="none" target-height="21.599976" target-width="56.5" target-x="372.8" target-y="874.5"></path><path d="M 840.50 896.20 L 888.10 896.20 L 893.30 874.50 L 840.50 874.50 Z" fill="#22286e" fill-rule="nonzero" group-id="2,11,30" node-id="741" stroke="none" target-height="21.700012" target-width="52.799988" target-x="840.5" target-y="874.5"></path><path d="M 683.20 874.50 L 739.70 874.50 L 739.70 896.10 L 683.20 896.10 Z" fill="#22286e" fill-rule="nonzero" group-id="2,11,30" node-id="743" stroke="none" target-height="21.599976" target-width="56.5" target-x="683.2" target-y="874.5"></path><path d="M 525.50 874.50 L 582.00 874.50 L 582.00 896.10 L 525.50 896.10 Z" fill="#22286e" fill-rule="nonzero" group-id="2,11,30" node-id="745" stroke="none" target-height="21.599976" target-width="56.5" target-x="525.5" target-y="874.5"></path><path d="M 293.20 968.30 L 245.60 968.30 L 240.40 946.60 L 293.20 946.60 Z" fill="#22286e" fill-rule="nonzero" group-id="2,11,30" node-id="747" stroke="none" target-height="21.700012" target-width="52.80002" target-x="240.4" target-y="946.6"></path><path d="M 383.40 946.60 L 439.90 946.60 L 439.90 968.20 L 383.40 968.20 Z" fill="#22286e" fill-rule="nonzero" group-id="2,11,30" node-id="749" stroke="none" target-height="21.600037" target-width="56.5" target-x="383.4" target-y="946.6"></path><path d="M 819.30 968.30 L 867.00 968.30 L 872.20 946.60 L 819.30 946.60 Z" fill="#22286e" fill-rule="nonzero" group-id="2,11,30" node-id="751" stroke="none" target-height="21.700012" target-width="52.900024" target-x="819.3" target-y="946.6"></path><path d="M 672.60 946.60 L 729.10 946.60 L 729.10 968.20 L 672.60 968.20 Z" fill="#22286e" fill-rule="nonzero" group-id="2,11,30" node-id="753" stroke="none" target-height="21.600037" target-width="56.5" target-x="672.6" target-y="946.6"></path><path d="M 525.50 946.60 L 582.00 946.60 L 582.00 968.20 L 525.50 968.20 Z" fill="#22286e" fill-rule="nonzero" group-id="2,11,30" node-id="755" stroke="none" target-height="21.600037" target-width="56.5" target-x="525.5" target-y="946.6"></path><path d="M 314.40 1037.40 L 266.80 1037.40 L 261.50 1015.80 L 314.40 1015.80 Z" fill="#22286e" fill-rule="nonzero" group-id="2,11,30" node-id="757" stroke="none" target-height="21.600037" target-width="52.899994" target-x="261.5" target-y="1015.8"></path><path d="M 410.30 1015.80 L 455.40 1015.80 L 455.40 1037.40 L 410.30 1037.40 Z" fill="#22286e" fill-rule="nonzero" group-id="2,11,30" node-id="759" stroke="none" target-height="21.600037" target-width="45.100006" target-x="410.3" target-y="1015.8"></path><path d="M 798.10 1037.40 L 845.80 1037.40 L 851.00 1015.80 L 798.10 1015.80 Z" fill="#22286e" fill-rule="nonzero" group-id="2,11,30" node-id="761" stroke="none" target-height="21.600037" target-width="52.900024" target-x="798.1" target-y="1015.8"></path><path d="M 657.50 1015.80 L 702.00 1015.80 L 702.00 1037.40 L 657.50 1037.40 Z" fill="#22286e" fill-rule="nonzero" group-id="2,11,30" node-id="763" stroke="none" target-height="21.600037" target-width="44.5" target-x="657.5" target-y="1015.8"></path><path d="M 531.80 1015.80 L 575.70 1015.80 L 575.70 1037.40 L 531.80 1037.40 Z" fill="#22286e" fill-rule="nonzero" group-id="2,11,30" node-id="765" stroke="none" target-height="21.600037" target-width="43.900024" target-x="531.8" target-y="1015.8"></path><path d="M 1012.70 802.10 L 1012.70 774.20 L 612.30 840.50 L 757.50 841.10 Z" fill="#8064a0" fill-rule="nonzero" group-id="2,11" node-id="768" stroke="none" target-height="66.89996" target-width="400.40002" target-x="612.3" target-y="774.2"></path><path d="M 562.70 843.90 C 542.20 843.90 525.00 830.60 521.80 812.20 L 518.90 795.30 C 517.10 784.90 520.00 774.50 526.90 765.80 C 533.60 757.40 543.50 751.70 554.60 749.80 L 1022.60 669.30 C 1023.00 669.20 1023.40 669.20 1023.80 669.20 C 1025.30 669.20 1026.70 669.60 1027.90 670.50 C 1029.40 671.60 1030.50 673.20 1030.80 675.10 L 1044.50 754.70 C 1045.20 758.60 1042.60 762.20 1038.70 762.90 L 570.70 843.40 C 568.10 843.60 565.40 843.90 562.70 843.90 L 562.70 843.90 Z" fill="#9aa2cc" fill-rule="nonzero" group-id="2,11,31" node-id="772" stroke="none" target-height="174.70001" target-width="528.1" target-x="517.1" target-y="669.2"></path><path d="M 1023.90 676.10 L 1037.60 755.70 L 718.60 810.60 L 608.80 829.50 L 569.60 836.20 C 567.30 836.60 565.00 836.80 562.80 836.80 C 546.10 836.80 531.50 826.20 528.90 811.00 L 526.00 794.10 C 523.00 776.90 536.50 760.10 555.90 756.70 L 595.10 750.00 L 704.80 731.00 L 1023.90 676.10 M 1023.90 661.90 C 1023.10 661.90 1022.30 662.00 1021.50 662.10 L 702.50 717.00 L 592.70 735.90 L 553.50 742.60 C 540.70 744.80 529.30 751.40 521.50 761.20 C 513.30 771.50 509.90 784.00 512.00 796.40 L 514.90 813.30 C 518.60 835.10 538.80 850.90 562.80 850.90 C 565.90 850.90 569.00 850.60 572.00 850.10 L 611.20 843.40 L 721.00 824.50 L 1040.00 769.60 C 1047.70 768.30 1052.90 760.90 1051.60 753.20 L 1037.90 673.60 C 1037.30 669.90 1035.20 666.60 1032.10 664.40 C 1029.60 662.80 1026.80 661.90 1023.90 661.90 L 1023.90 661.90 Z" fill="#22286e" fill-rule="nonzero" group-id="2,11,31,84" node-id="776" stroke="none" target-height="189" target-width="543" target-x="509.9" target-y="661.9"></path><path d="M 575.70 820.90 C 560.60 820.90 548.30 808.60 548.30 793.50 C 548.30 778.40 560.60 766.10 575.70 766.10 C 590.80 766.10 603.10 778.40 603.10 793.50 C 603.10 808.60 590.80 820.90 575.70 820.90 Z" fill="#d52061" fill-rule="nonzero" group-id="2,11,32" node-id="782" stroke="none" target-height="54.80005" target-width="54.799988" target-x="548.3" target-y="766.1"></path><path d="M 575.70 773.20 C 586.90 773.20 596.00 782.30 596.00 793.50 C 596.00 804.70 586.90 813.80 575.70 813.80 C 564.50 813.80 555.40 804.70 555.40 793.50 C 555.40 782.30 564.50 773.20 575.70 773.20 M 575.70 759.00 C 556.70 759.00 541.20 774.50 541.20 793.50 C 541.20 812.50 556.70 828.00 575.70 828.00 C 594.70 828.00 610.20 812.50 610.20 793.50 C 610.20 774.50 594.70 759.00 575.70 759.00 L 575.70 759.00 Z" fill="#22286e" fill-rule="nonzero" group-id="2,11,32" node-id="784" stroke="none" target-height="69" target-width="69" target-x="541.2" target-y="759"></path></g></g></svg>