<?xml version="1.0" standalone="no"?><!DOCTYPE svg PUBLIC "-//W3C//DTD SVG 1.1//EN" "http://www.w3.org/Graphics/SVG/1.1/DTD/svg11.dtd"><svg height="1200" node-id="1" sillyvg="true" template-height="1200" template-width="1200" version="1.1" viewBox="0 0 1200 1200" width="1200" xmlns="http://www.w3.org/2000/svg" xmlns:xlink="http://www.w3.org/1999/xlink"><defs node-id="96"></defs><path d="M 202.10 540.30 C 202.10 315.10 384.70 132.50 609.90 132.50 C 835.10 132.50 1017.70 315.10 1017.70 540.30 C 1017.70 765.50 835.10 948.10 609.90 948.10 C 384.60 948.10 202.10 765.60 202.10 540.30 Z" fill="#ffffff" fill-rule="nonzero" node-id="100" stroke="none" target-height="815.6" target-width="815.6" target-x="202.1" target-y="132.5"></path><g node-id="320"><path d="M 609.90 997.10 C 358.00 997.10 153.10 792.20 153.10 540.30 C 153.10 288.40 358.00 83.60 609.90 83.60 C 861.80 83.60 1066.70 288.50 1066.70 540.40 C 1066.70 792.30 861.70 997.10 609.90 997.10 Z M 609.90 181.50 C 412.00 181.50 251.00 342.40 251.00 540.30 C 251.00 738.20 412.00 899.20 609.90 899.20 C 807.80 899.20 968.80 738.20 968.80 540.30 C 968.70 342.40 807.80 181.50 609.90 181.50 Z" fill="#9aa2cc" fill-rule="nonzero" group-id="1" node-id="104" stroke="none" target-height="913.5" target-width="913.6" target-x="153.1" target-y="83.6"></path><path d="M 609.90 91.00 C 857.70 91.00 1059.20 292.60 1059.20 540.30 C 1059.20 788.00 857.60 989.60 609.90 989.60 C 362.20 989.60 160.60 788.00 160.60 540.30 C 160.60 292.60 362.10 91.00 609.90 91.00 M 609.90 906.60 C 811.90 906.60 976.20 742.30 976.20 540.30 C 976.20 338.30 811.90 174.00 609.90 174.00 C 407.90 174.00 243.60 338.30 243.60 540.30 C 243.60 742.30 407.90 906.60 609.90 906.60 M 609.90 76.10 C 353.90 76.10 145.70 284.30 145.70 540.30 C 145.70 796.30 353.90 1004.50 609.90 1004.50 C 865.90 1004.50 1074.10 796.30 1074.10 540.30 C 1074.10 284.40 865.80 76.10 609.90 76.10 L 609.90 76.10 Z M 609.90 891.70 C 416.10 891.70 258.50 734.10 258.50 540.30 C 258.50 346.50 416.10 188.90 609.90 188.90 C 803.70 188.90 961.30 346.50 961.30 540.30 C 961.30 734.10 803.60 891.70 609.90 891.70 L 609.90 891.70 Z" fill="#22286e" fill-rule="nonzero" group-id="1" node-id="106" stroke="none" target-height="928.4" target-width="928.39996" target-x="145.7" target-y="76.1"></path></g><path d="M 609.90 943.60 C 387.50 943.60 206.60 762.70 206.60 540.30 C 206.60 317.90 387.50 137.00 609.90 137.00 C 832.30 137.00 1013.20 317.90 1013.20 540.30 C 1013.20 762.70 832.30 943.60 609.90 943.60 Z M 609.90 150.80 C 395.10 150.80 220.40 325.50 220.40 540.30 C 220.40 755.10 395.10 929.80 609.90 929.80 C 824.70 929.80 999.40 755.10 999.40 540.30 C 999.40 325.50 824.60 150.80 609.90 150.80 Z" fill="#8064a0" fill-rule="nonzero" node-id="109" stroke="#22286e" stroke-linecap="round" stroke-width="4" target-height="806.6" target-width="806.6" target-x="206.6" target-y="137"></path><path d="M 603.70 941.30 C 599.60 941.30 596.20 938.00 596.20 933.80 L 596.20 870.20 C 551.70 867.80 509.00 856.70 469.00 837.10 L 425.00 919.70 C 423.70 922.20 421.10 923.70 418.40 923.70 C 417.20 923.70 416.00 923.40 414.90 922.80 L 406.50 918.30 C 404.80 917.40 403.50 915.80 402.90 913.90 C 402.30 912.00 402.50 910.00 403.40 908.20 L 447.50 825.50 C 408.70 802.70 374.40 771.70 347.80 735.30 L 290.30 773.10 C 289.10 773.90 287.70 774.30 286.20 774.30 C 285.70 774.30 285.20 774.20 284.70 774.10 C 282.80 773.70 281.10 772.50 280.00 770.90 L 274.80 762.90 C 272.50 759.50 273.50 754.80 276.90 752.60 L 334.10 715.00 C 302.90 665.00 285.80 607.90 284.40 549.00 L 211.20 548.30 C 209.20 548.30 207.30 547.50 205.90 546.10 C 204.50 544.70 203.70 542.80 203.80 540.80 L 203.90 531.30 C 203.90 527.20 207.30 523.90 211.40 523.90 C 211.40 523.90 284.80 524.60 284.80 524.60 C 287.10 477.50 299.10 432.60 320.60 390.80 L 261.70 357.40 C 260.00 356.40 258.70 354.80 258.20 352.90 C 257.70 351.00 257.90 349.00 258.90 347.20 L 263.60 338.90 C 265.00 336.50 267.50 335.10 270.10 335.10 C 271.30 335.10 272.60 335.40 273.80 336.10 L 332.60 369.40 C 358.40 327.20 393.60 291.10 435.10 264.20 L 400.50 204.30 C 398.40 200.70 399.70 196.20 403.20 194.10 L 411.50 189.30 C 412.60 188.60 413.90 188.30 415.20 188.30 C 415.80 188.30 416.50 188.40 417.10 188.60 C 419.00 189.10 420.60 190.40 421.60 192.10 L 456.10 251.70 C 499.10 228.20 547.30 214.40 596.30 211.80 L 596.30 141.60 C 596.30 137.50 599.60 134.10 603.80 134.10 L 613.30 134.10 C 617.40 134.10 620.80 137.40 620.80 141.60 L 620.80 211.40 C 668.60 212.30 714.50 223.30 757.30 244.10 L 786.50 189.30 C 787.80 186.80 790.40 185.30 793.10 185.30 C 794.30 185.30 795.50 185.60 796.60 186.20 L 805.00 190.70 C 806.70 191.60 808.00 193.20 808.60 195.10 C 809.20 197.00 809.00 199.00 808.10 200.80 L 778.90 255.60 C 820.80 279.90 857.20 313.40 884.90 353.20 L 939.30 317.50 C 940.50 316.70 941.90 316.30 943.40 316.30 C 943.90 316.30 944.40 316.40 944.90 316.50 C 946.80 316.90 948.50 318.10 949.60 319.70 L 954.80 327.70 C 957.10 331.10 956.10 335.80 952.70 338.00 L 898.00 373.70 C 926.20 421.30 941.80 475.30 943.60 530.80 L 1008.20 531.40 C 1010.20 531.40 1012.10 532.20 1013.50 533.60 C 1014.90 535.00 1015.70 536.90 1015.60 538.90 L 1015.50 548.40 C 1015.50 552.50 1012.10 555.80 1008.00 555.80 C 1008.00 555.80 943.40 555.20 943.40 555.20 C 941.30 603.70 928.40 651.40 905.90 694.20 L 959.60 724.60 C 961.30 725.60 962.60 727.20 963.10 729.10 C 963.60 731.00 963.40 733.00 962.40 734.80 L 957.70 743.10 C 956.30 745.50 953.80 746.90 951.20 746.90 C 950.00 746.90 948.70 746.60 947.50 745.90 L 893.60 715.40 C 866.50 758.80 829.40 795.50 785.80 822.30 L 825.70 891.40 C 826.70 893.10 827.00 895.10 826.40 897.10 C 825.90 899.00 824.60 900.60 822.90 901.60 L 814.60 906.40 C 813.40 907.10 812.10 907.40 810.90 907.40 C 808.30 907.40 805.80 906.10 804.40 903.70 L 764.30 834.40 C 719.90 857.20 670.50 869.70 620.40 870.80 L 620.40 934.00 C 620.40 938.10 617.10 941.50 612.90 941.50 L 603.70 941.50 Z M 620.70 846.20 C 666.60 845.20 711.80 833.80 752.30 813.10 L 620.70 585.40 L 620.70 846.20 Z M 480.60 815.50 C 516.90 833.30 555.80 843.40 596.30 845.70 L 596.30 598.30 L 480.60 815.50 Z M 368.30 721.90 C 392.70 754.90 423.80 783.10 459.10 803.90 L 575.20 585.80 L 368.30 721.90 Z M 773.70 801.10 C 813.60 776.50 847.50 743.00 872.50 703.30 L 641.60 572.60 L 773.70 801.10 Z M 308.90 549.30 C 310.30 603.40 326.00 655.80 354.60 701.70 L 582.50 551.90 L 308.90 549.30 Z M 884.60 682.10 C 905.10 642.90 916.90 599.20 918.90 554.90 L 655.60 552.40 L 884.60 682.10 Z M 919.10 530.50 C 917.40 479.90 903.10 430.70 877.60 387.10 L 663.10 528.10 L 919.10 530.50 Z M 561.40 527.20 L 341.90 402.90 C 322.40 441.00 311.50 482.00 309.20 524.80 L 561.40 527.20 Z M 641.80 512.80 L 864.30 366.50 C 838.90 330.10 805.50 299.40 767.30 277.10 L 641.80 512.80 Z M 575.40 507.00 L 447.30 285.50 C 409.60 310.20 377.50 343.20 353.80 381.60 L 575.40 507.00 Z M 620.70 500.40 L 745.70 265.70 C 706.40 246.80 664.50 236.80 620.70 235.90 L 620.70 500.40 Z M 596.30 494.20 L 596.30 236.30 C 551.50 238.90 507.60 251.50 468.30 272.90 L 596.30 494.20 Z" fill="#f4d12c" fill-rule="nonzero" group-id="2" node-id="113" stroke="none" target-height="807.4" target-width="812" target-x="203.7" target-y="134.1"></path><path d="M 613.30 141.60 L 613.30 218.80 C 613.60 218.80 613.80 218.80 614.10 218.80 C 666.80 218.80 716.50 231.50 760.40 254.00 L 793.00 192.80 L 801.40 197.30 L 768.80 258.50 C 814.70 283.80 853.90 319.90 882.70 363.40 L 943.20 323.60 L 948.40 331.60 L 887.80 371.40 C 918.00 419.90 935.60 477.00 936.10 538.10 L 1008.00 538.80 L 1007.90 548.30 L 936.10 547.60 C 935.00 601.70 920.50 652.60 895.80 697.00 L 955.90 731.00 L 951.20 739.30 L 891.10 705.20 C 863.00 752.40 823.20 791.80 775.80 819.50 L 819.40 895.00 L 811.10 899.80 L 767.40 824.30 C 721.80 849.10 669.50 863.20 614.00 863.20 C 613.70 863.20 613.50 863.20 613.20 863.20 L 613.20 933.80 L 603.70 933.80 L 603.70 863.00 C 554.20 861.40 507.40 848.60 465.90 827.10 L 418.50 916.20 L 410.10 911.70 L 457.60 822.60 C 414.70 798.70 377.80 765.20 349.80 725.10 L 286.40 766.80 L 281.20 758.80 L 344.50 717.20 C 311.40 666.70 292.10 606.30 291.90 541.60 L 211.40 540.80 L 211.50 531.30 L 292.10 532.10 C 293.50 480.00 307.40 431.00 330.70 387.90 L 265.40 351.00 L 270.10 342.70 L 335.30 379.60 C 362.10 333.60 399.90 294.70 445.20 266.80 L 407.00 200.70 L 415.30 195.90 L 453.40 261.90 C 497.90 236.20 549.20 220.80 603.80 219.00 L 603.80 141.70 L 613.30 141.70 M 613.30 530.20 L 755.90 262.40 C 713.30 240.60 665.10 228.30 614.10 228.30 C 613.80 228.30 613.60 228.30 613.30 228.30 L 613.30 530.20 M 603.70 522.00 L 603.70 228.50 C 550.80 230.20 501.20 245.10 458.10 270.10 L 603.70 522.00 M 621.50 535.10 L 874.80 368.60 C 846.80 326.40 808.90 291.40 764.30 266.90 L 621.50 535.10 M 595.60 527.00 L 449.90 275.00 C 406.10 302.10 369.50 339.70 343.60 384.30 L 595.60 527.00 M 926.70 538.00 C 926.10 478.90 909.10 423.60 879.90 376.60 L 638.50 535.30 L 926.70 538.00 M 590.10 534.90 L 338.90 392.60 C 316.30 434.40 302.90 481.80 301.50 532.20 L 590.10 534.90 M 352.40 712.00 L 603.80 546.80 L 603.80 544.60 L 301.40 541.80 C 301.50 604.50 320.20 663.00 352.40 712.00 M 887.60 692.40 C 911.50 649.30 925.60 600.00 926.70 547.60 L 627.00 544.80 L 887.60 692.40 M 771.00 811.40 C 817.00 784.60 855.60 746.40 882.80 700.70 L 621.40 552.60 L 771.00 811.40 M 614.00 853.70 C 667.80 853.70 718.40 840.10 762.70 816.00 L 613.30 557.60 L 613.30 853.70 C 613.50 853.70 613.80 853.70 614.00 853.70 M 462.10 814.20 L 595.50 563.60 L 357.70 719.90 C 384.90 758.70 420.60 791.00 462.10 814.20 M 603.70 853.50 L 603.70 568.50 L 470.50 818.80 C 510.60 839.60 555.80 852.00 603.70 853.50 M 613.30 126.70 L 603.80 126.70 C 595.60 126.70 588.90 133.40 588.90 141.60 L 588.90 204.80 C 543.60 208.20 499.20 220.80 459.00 241.70 L 428.10 188.30 C 426.10 184.90 422.90 182.40 419.00 181.40 C 417.70 181.10 416.40 180.90 415.20 180.90 C 412.60 180.90 410.00 181.60 407.70 182.90 L 399.40 187.70 C 392.30 191.80 389.80 200.90 394.00 208.10 L 425.10 261.90 C 387.20 287.60 354.70 321.00 330.00 359.50 L 277.40 329.70 C 275.10 328.40 272.60 327.80 270.10 327.80 C 264.90 327.80 259.90 330.50 257.10 335.40 L 252.40 343.70 C 250.50 347.10 249.90 351.20 251.00 355.00 C 252.10 358.80 254.60 362.00 258.00 364.00 L 310.70 393.90 C 291.80 432.70 280.70 474.00 277.70 517.20 L 211.50 516.60 C 211.50 516.60 211.40 516.60 211.40 516.60 C 203.20 516.60 196.60 523.20 196.50 531.40 L 196.40 540.90 C 196.40 544.90 197.90 548.70 200.70 551.50 C 203.50 554.30 207.20 555.90 211.20 556.00 L 277.30 556.60 C 279.80 611.90 295.80 665.50 324.10 713.00 L 272.90 746.60 C 266.00 751.10 264.10 760.40 268.60 767.20 L 273.80 775.20 C 276.00 778.50 279.40 780.80 283.20 781.60 C 284.20 781.80 285.20 781.90 286.20 781.90 C 289.10 781.90 291.90 781.10 294.40 779.40 L 346.00 745.50 C 371.20 778.40 402.40 806.70 437.60 828.40 L 396.90 904.90 C 395.00 908.40 394.60 912.50 395.80 916.30 C 397.00 920.10 399.60 923.30 403.10 925.10 L 411.50 929.60 C 413.70 930.80 416.10 931.30 418.50 931.30 C 423.80 931.30 429.00 928.40 431.70 923.40 L 472.40 847.10 C 509.20 864.30 548.30 874.40 588.90 877.40 L 588.90 934.00 C 588.90 942.20 595.60 948.90 603.80 948.90 L 613.30 948.90 C 621.50 948.90 628.20 942.20 628.20 934.00 L 628.20 878.00 C 674.50 876.00 720.20 864.50 761.70 844.20 L 798.30 907.40 C 801.10 912.20 806.10 914.80 811.20 914.80 C 813.70 914.80 816.30 914.20 818.60 912.80 L 826.90 908.00 C 830.30 906.00 832.80 902.80 833.80 898.90 C 834.80 895.10 834.30 891.00 832.30 887.60 L 796.00 824.80 C 835.90 799.10 870.20 765.10 896.20 725.40 L 943.90 752.40 C 946.20 753.70 948.70 754.30 951.20 754.30 C 956.40 754.30 961.40 751.60 964.20 746.70 L 968.90 738.40 C 970.80 735.00 971.40 730.90 970.30 727.10 C 969.20 723.30 966.70 720.10 963.30 718.10 L 915.80 691.20 C 935.70 651.20 947.60 607.30 950.50 562.60 L 1007.90 563.10 C 1007.90 563.10 1008.00 563.10 1008.00 563.10 C 1016.20 563.10 1022.80 556.50 1022.90 548.30 L 1023.00 538.80 C 1023.00 534.80 1021.50 531.00 1018.70 528.20 C 1015.90 525.40 1012.20 523.80 1008.20 523.70 L 950.70 523.20 C 948.00 471.50 933.40 421.10 908.00 376.00 L 956.70 344.00 C 963.60 339.50 965.50 330.20 961.00 323.40 L 955.80 315.40 C 953.60 312.10 950.20 309.80 946.40 309.00 C 945.40 308.80 944.40 308.70 943.40 308.70 C 940.50 308.70 937.70 309.50 935.20 311.20 L 886.80 343.00 C 860.50 306.90 827.00 276.10 788.80 252.80 L 814.60 204.30 C 816.50 200.80 816.90 196.70 815.70 192.90 C 814.50 189.10 811.90 185.90 808.40 184.10 L 800.00 179.60 C 797.80 178.40 795.40 177.90 793.00 177.90 C 787.70 177.90 782.50 180.80 779.80 185.80 L 754.00 234.30 C 714.30 216.10 672.10 206.00 628.20 204.20 L 628.20 141.70 C 628.20 133.40 621.50 126.70 613.30 126.70 L 613.30 126.70 Z M 628.20 470.50 L 628.20 243.50 C 665.60 245.20 701.50 253.80 735.40 269.00 L 628.20 470.50 L 628.20 470.50 Z M 478.60 275.90 C 512.80 258.40 550.40 247.60 588.80 244.40 L 588.80 466.50 L 478.60 275.90 L 478.60 275.90 Z M 662.10 490.60 L 770.20 287.60 C 802.60 307.60 831.10 333.90 853.80 364.60 L 662.10 490.60 L 662.10 490.60 Z M 364.40 378.90 C 385.60 346.40 413.00 318.20 444.90 296.10 L 555.30 487.00 L 364.40 378.90 L 364.40 378.90 Z M 687.60 520.90 L 875.00 397.70 C 896.20 436.20 908.60 479.00 911.30 522.90 L 687.60 520.90 L 687.60 520.90 Z M 317.20 517.40 C 320.00 481.00 329.40 446.10 345.10 413.20 L 532.60 519.40 L 317.20 517.40 L 317.20 517.40 Z M 357.00 691.10 C 333.00 650.10 319.20 604.20 316.70 556.70 L 558.00 558.90 L 357.00 691.10 L 357.00 691.10 Z M 881.50 671.80 L 684.50 560.20 L 911.10 562.30 C 908.30 600.30 898.20 637.70 881.50 671.80 L 881.50 671.80 Z M 776.20 790.60 L 661.70 592.60 L 861.80 705.90 C 839.40 739.60 810.20 768.50 776.20 790.60 L 776.20 790.60 Z M 379.10 723.70 L 554.90 608.10 L 456.20 793.40 C 426.80 774.90 400.50 751.20 379.10 723.70 L 379.10 723.70 Z M 628.20 838.50 L 628.20 613.20 L 742.00 810.00 C 706.40 826.90 667.60 836.60 628.20 838.50 L 628.20 838.50 Z M 490.90 812.10 L 588.90 628.10 L 588.90 837.70 C 554.70 834.90 521.90 826.30 490.90 812.10 L 490.90 812.10 Z" fill="#22286e" fill-rule="nonzero" group-id="2" node-id="115" stroke="none" target-height="822.2" target-width="826.6" target-x="196.4" target-y="126.7"></path><path d="M 392.60 222.50 C 359.60 222.50 332.80 196.60 331.50 163.60 C 331.40 161.60 332.20 159.60 333.60 158.10 C 335.00 156.60 336.90 155.80 339.00 155.80 L 446.40 155.80 C 448.40 155.80 450.40 156.60 451.80 158.10 C 453.20 159.60 454.00 161.50 453.90 163.60 C 452.40 196.60 425.60 222.50 392.60 222.50 Z" fill="#73c0d7" fill-rule="nonzero" group-id="3,19" node-id="122" stroke="none" target-height="66.7" target-width="122.600006" target-x="331.4" target-y="155.8"></path><path d="M 446.20 163.30 L 446.20 163.30 M 446.20 163.30 C 445.10 192.00 421.50 215.00 392.50 215.00 C 363.50 215.00 339.90 192.00 338.80 163.30 L 446.20 163.30 M 446.30 148.40 L 446.30 148.40 L 338.90 148.40 C 334.80 148.40 331.00 150.10 328.20 153.00 C 325.40 155.90 323.90 159.90 324.00 163.90 C 325.40 200.90 355.60 229.90 392.60 229.90 C 429.40 229.90 459.40 201.20 461.20 164.50 C 461.20 164.10 461.20 163.70 461.20 163.30 C 461.20 155.10 454.50 148.40 446.30 148.40 L 446.30 148.40 Z M 446.20 178.20 L 446.20 178.20 L 446.20 178.20 L 446.20 178.20 Z" fill="#22286e" fill-rule="nonzero" group-id="3,19" node-id="124" stroke="none" target-height="81.5" target-width="137.30002" target-x="323.9" target-y="148.4"></path><path d="M 353.60 163.30 L 338.90 163.30 C 340.00 192.00 363.60 215.00 392.60 215.00 C 395.10 215.00 397.50 214.80 399.90 214.50 C 374.40 211.00 354.60 189.60 353.60 163.30 Z" fill="#ffffff" fill-rule="nonzero" node-id="128" stroke="none" target-height="51.699997" target-width="61" target-x="338.9" target-y="163.3"></path><path d="M 828.20 222.50 C 795.20 222.50 768.30 196.60 767.10 163.60 C 767.00 161.60 767.80 159.60 769.20 158.10 C 770.60 156.60 772.50 155.80 774.60 155.80 L 882.00 155.80 C 884.00 155.80 886.00 156.60 887.40 158.10 C 888.80 159.60 889.60 161.50 889.50 163.60 C 888.00 196.60 861.20 222.50 828.20 222.50 Z" fill="#73c0d7" fill-rule="nonzero" group-id="4,20" node-id="134" stroke="none" target-height="66.7" target-width="122.599976" target-x="767" target-y="155.8"></path><path d="M 881.80 163.30 L 881.80 163.30 M 881.80 163.30 C 880.70 192.00 857.10 215.00 828.10 215.00 C 799.10 215.00 775.50 192.00 774.40 163.30 L 881.80 163.30 M 881.90 148.40 L 881.90 148.40 L 774.50 148.40 C 770.40 148.40 766.60 150.10 763.80 153.00 C 761.00 155.90 759.50 159.90 759.60 163.90 C 761.00 200.90 791.20 229.90 828.20 229.90 C 865.00 229.90 895.00 201.20 896.80 164.50 C 896.80 164.10 896.80 163.70 896.80 163.30 C 896.80 155.10 890.10 148.40 881.90 148.40 L 881.90 148.40 Z M 881.80 178.20 L 881.80 178.20 L 881.80 178.20 L 881.80 178.20 Z" fill="#22286e" fill-rule="nonzero" group-id="4,20" node-id="136" stroke="none" target-height="81.5" target-width="137.29999" target-x="759.5" target-y="148.4"></path><path d="M 789.20 163.30 L 774.50 163.30 C 775.60 192.00 799.20 215.00 828.20 215.00 C 830.70 215.00 833.10 214.80 835.50 214.50 C 810.00 211.00 790.20 189.60 789.20 163.30 Z" fill="#ffffff" fill-rule="nonzero" node-id="140" stroke="none" target-height="51.699997" target-width="61" target-x="774.5" target-y="163.3"></path><path d="M 607.60 987.40 C 574.60 987.40 547.70 961.50 546.50 928.50 C 546.40 926.50 547.20 924.50 548.60 923.00 C 550.00 921.50 551.90 920.70 554.00 920.70 L 661.40 920.70 C 663.40 920.70 665.40 921.50 666.80 923.00 C 668.20 924.50 669.00 926.40 668.90 928.50 C 667.40 961.50 640.60 987.40 607.60 987.40 Z" fill="#1e7cb9" fill-rule="nonzero" group-id="5,21" node-id="146" stroke="none" target-height="66.70001" target-width="122.599976" target-x="546.4" target-y="920.7"></path><path d="M 661.20 928.20 L 661.20 928.20 M 661.20 928.20 C 660.10 956.90 636.50 979.90 607.50 979.90 C 578.50 979.90 554.90 956.90 553.80 928.20 L 661.20 928.20 M 661.30 913.30 L 661.30 913.30 L 553.90 913.30 C 549.80 913.30 546.00 915.00 543.20 917.90 C 540.40 920.80 538.90 924.80 539.00 928.80 C 540.40 965.80 570.50 994.80 607.60 994.80 C 644.40 994.80 674.40 966.10 676.20 929.40 C 676.20 929.00 676.20 928.60 676.20 928.20 C 676.20 920.00 669.50 913.30 661.30 913.30 L 661.30 913.30 Z M 661.20 943.10 L 661.20 943.10 L 661.20 943.10 L 661.20 943.10 Z" fill="#22286e" fill-rule="nonzero" group-id="5,21" node-id="148" stroke="none" target-height="81.5" target-width="137.29999" target-x="538.9" target-y="913.3"></path><path d="M 607.60 162.60 C 574.60 162.60 547.70 136.70 546.50 103.70 C 546.40 101.70 547.20 99.70 548.60 98.20 C 550.00 96.70 551.90 95.90 554.00 95.90 L 661.40 95.90 C 663.40 95.90 665.40 96.70 666.80 98.20 C 668.20 99.70 669.00 101.60 668.90 103.70 C 667.40 136.70 640.60 162.60 607.60 162.60 Z" fill="#1e7cb9" fill-rule="nonzero" group-id="6,22" node-id="156" stroke="none" target-height="66.700005" target-width="122.599976" target-x="546.4" target-y="95.9"></path><path d="M 661.20 103.40 L 661.20 103.40 M 661.20 103.40 C 660.10 132.10 636.50 155.10 607.50 155.10 C 578.50 155.10 554.90 132.10 553.80 103.40 L 661.20 103.40 M 661.30 88.50 L 661.30 88.50 L 553.90 88.50 C 549.80 88.50 546.00 90.20 543.20 93.10 C 540.40 96.00 538.90 100.00 539.00 104.00 C 540.40 141.00 570.50 170.00 607.60 170.00 C 644.40 170.00 674.40 141.30 676.20 104.60 C 676.20 104.20 676.20 103.80 676.20 103.40 C 676.20 95.20 669.50 88.50 661.30 88.50 L 661.30 88.50 Z M 661.20 118.30 L 661.20 118.30 L 661.20 118.30 L 661.20 118.30 Z" fill="#22286e" fill-rule="nonzero" group-id="6,22" node-id="158" stroke="none" target-height="81.5" target-width="137.29999" target-x="538.9" target-y="88.5"></path><path d="M 805.60 1077.70 L 607.40 593.90 L 434.00 1069.40 L 406.60 1062.90 L 605.80 516.60 L 832.70 1070.50 Z" fill="#de5c3b" fill-rule="nonzero" group-id="7" node-id="164" stroke="#22286e" stroke-linecap="butt" stroke-width="4" target-height="561.1" target-width="426.1" target-x="406.6" target-y="516.6"></path><path d="M 381.80 1116.40 C 360.60 1116.40 343.30 1098.80 343.30 1077.10 L 343.30 1063.80 C 343.30 1042.10 360.60 1024.50 381.80 1024.50 L 846.00 1024.50 C 867.20 1024.50 884.50 1042.10 884.50 1063.80 L 884.50 1077.10 C 884.50 1098.80 867.20 1116.40 846.00 1116.40 L 381.80 1116.40 Z" fill="#1e7cb9" fill-rule="nonzero" group-id="8" node-id="169" stroke="none" target-height="91.900024" target-width="541.2" target-x="343.3" target-y="1024.5"></path><path d="M 846.00 1031.90 C 863.10 1031.90 877.10 1046.20 877.10 1063.80 L 877.10 1077.10 C 877.10 1094.60 863.10 1109.00 846.00 1109.00 L 381.80 1109.00 C 364.70 1109.00 350.70 1094.70 350.70 1077.10 L 350.70 1063.80 C 350.70 1046.30 364.70 1031.90 381.80 1031.90 L 846.00 1031.90 M 846.00 1017.00 L 381.80 1017.00 C 356.40 1017.00 335.80 1038.00 335.80 1063.80 L 335.80 1077.10 C 335.80 1102.90 356.40 1123.90 381.80 1123.90 L 846.00 1123.90 C 871.40 1123.90 892.00 1102.90 892.00 1077.10 L 892.00 1063.80 C 892.00 1038.00 871.30 1017.00 846.00 1017.00 L 846.00 1017.00 Z" fill="#22286e" fill-rule="nonzero" group-id="8" node-id="171" stroke="none" target-height="106.900024" target-width="556.2" target-x="335.8" target-y="1017"></path><path d="M 369.70 1090.00 L 369.70 1076.70 C 369.70 1059.20 383.70 1044.80 400.80 1044.80 L 865.00 1044.80 C 867.20 1044.80 869.30 1045.00 871.40 1045.50 C 865.80 1037.30 856.50 1032.00 846.00 1032.00 L 381.80 1032.00 C 364.70 1032.00 350.70 1046.30 350.70 1063.90 L 350.70 1077.20 C 350.70 1092.50 361.30 1105.30 375.40 1108.40 C 371.80 1103.10 369.70 1096.80 369.70 1090.00 Z" fill="#73c0d7" fill-rule="nonzero" node-id="174" stroke="none" target-height="76.400024" target-width="520.7" target-x="350.7" target-y="1032"></path><path d="M 607.30 588.30 C 578.40 588.30 554.80 564.20 554.80 534.70 C 554.80 505.10 578.30 481.10 607.30 481.10 C 636.30 481.10 659.80 505.20 659.80 534.70 C 659.80 564.20 636.20 588.30 607.30 588.30 Z" fill="#d52061" fill-rule="nonzero" group-id="9,23" node-id="180" stroke="none" target-height="107.19998" target-width="105" target-x="554.8" target-y="481.1"></path><path d="M 607.30 488.50 C 632.20 488.50 652.30 509.20 652.30 534.70 C 652.30 560.20 632.10 580.90 607.30 580.90 C 582.40 580.90 562.30 560.20 562.30 534.70 C 562.30 509.20 582.40 488.50 607.30 488.50 M 607.30 473.60 C 574.30 473.60 547.40 501.00 547.40 534.70 C 547.40 568.40 574.30 595.80 607.30 595.80 C 640.30 595.80 667.20 568.40 667.20 534.70 C 667.20 501.00 640.40 473.60 607.30 473.60 L 607.30 473.60 Z" fill="#22286e" fill-rule="nonzero" group-id="9,23" node-id="182" stroke="none" target-height="122.19998" target-width="119.79999" target-x="547.4" target-y="473.6"></path><path d="M 607.30 562.10 C 592.50 562.10 580.40 549.80 580.40 534.70 C 580.40 519.60 592.50 507.30 607.30 507.30 C 622.10 507.30 634.20 519.60 634.20 534.70 C 634.20 549.80 622.10 562.10 607.30 562.10 Z" fill="#73c0d7" fill-rule="nonzero" group-id="10,24" node-id="190" stroke="none" target-height="54.799988" target-width="53.799988" target-x="580.4" target-y="507.3"></path><path d="M 607.30 514.70 C 618.00 514.70 626.70 523.60 626.70 534.60 C 626.70 545.60 618.00 554.50 607.30 554.50 C 596.60 554.50 587.90 545.60 587.90 534.60 C 587.90 523.70 596.60 514.70 607.30 514.70 M 607.30 499.80 C 588.40 499.80 573.00 515.40 573.00 534.60 C 573.00 553.80 588.40 569.40 607.30 569.40 C 626.20 569.40 641.60 553.80 641.60 534.60 C 641.70 515.50 626.20 499.80 607.30 499.80 L 607.30 499.80 Z" fill="#22286e" fill-rule="nonzero" group-id="10,24" node-id="192" stroke="none" target-height="69.60004" target-width="68.70001" target-x="573" target-y="499.8"></path><path d="M 213.10 387.20 C 180.10 387.20 153.20 361.30 152.00 328.30 C 151.90 326.30 152.70 324.30 154.10 322.80 C 155.50 321.30 157.40 320.50 159.50 320.50 L 266.90 320.50 C 268.90 320.50 270.90 321.30 272.30 322.80 C 273.70 324.30 274.50 326.20 274.40 328.30 C 272.90 361.40 246.10 387.20 213.10 387.20 Z" fill="#1e7cb9" fill-rule="nonzero" group-id="11,25,33" node-id="202" stroke="none" target-height="66.70001" target-width="122.600006" target-x="151.9" target-y="320.5"></path><path d="M 266.80 328.10 L 266.80 328.10 M 266.80 328.10 C 265.70 356.80 242.10 379.80 213.10 379.80 C 184.10 379.80 160.50 356.80 159.40 328.10 L 266.80 328.10 M 266.80 313.20 L 266.80 313.20 L 159.40 313.20 C 155.30 313.20 151.50 314.90 148.70 317.80 C 145.90 320.70 144.40 324.70 144.50 328.70 C 145.90 365.70 176.10 394.70 213.10 394.70 C 249.90 394.70 279.90 366.00 281.70 329.30 C 281.70 328.90 281.70 328.50 281.70 328.10 C 281.70 319.90 275.00 313.20 266.80 313.20 L 266.80 313.20 Z M 266.80 343.00 L 266.80 343.00 L 266.80 343.00 L 266.80 343.00 Z" fill="#22286e" fill-rule="nonzero" group-id="11,25,33" node-id="204" stroke="none" target-height="81.5" target-width="137.30002" target-x="144.4" target-y="313.2"></path><path d="M 174.30 328.50 L 159.60 328.50 C 160.70 357.20 184.30 380.20 213.30 380.20 C 215.80 380.20 218.20 380.00 220.60 379.70 C 195.10 376.20 175.30 354.80 174.30 328.50 Z" fill="#ffffff" fill-rule="nonzero" group-id="11" node-id="208" stroke="none" target-height="51.700012" target-width="61" target-x="159.6" target-y="328.5"></path><path d="M 982.20 378.00 C 949.20 378.00 922.30 352.10 921.10 319.10 C 921.00 317.10 921.80 315.10 923.20 313.60 C 924.60 312.10 926.50 311.30 928.60 311.30 L 1036.00 311.30 C 1038.00 311.30 1040.00 312.10 1041.40 313.60 C 1042.80 315.10 1043.60 317.00 1043.50 319.10 C 1042.00 352.20 1015.20 378.00 982.20 378.00 Z" fill="#1e7cb9" fill-rule="nonzero" group-id="12,26,34" node-id="217" stroke="none" target-height="66.70001" target-width="122.599976" target-x="921" target-y="311.3"></path><path d="M 1035.90 318.90 L 1035.90 318.90 M 1035.90 318.90 C 1034.80 347.60 1011.20 370.60 982.20 370.60 C 953.20 370.60 929.60 347.60 928.50 318.90 L 1035.90 318.90 M 1035.90 304.00 L 1035.90 304.00 L 928.50 304.00 C 924.40 304.00 920.60 305.70 917.80 308.60 C 915.00 311.50 913.50 315.50 913.60 319.50 C 915.00 356.50 945.20 385.50 982.20 385.50 C 1019.00 385.50 1049.00 356.80 1050.80 320.10 C 1050.80 319.70 1050.80 319.30 1050.80 318.90 C 1050.80 310.60 1044.10 304.00 1035.90 304.00 L 1035.90 304.00 Z M 1035.90 333.80 L 1035.90 333.80 L 1035.90 333.80 L 1035.90 333.80 Z" fill="#22286e" fill-rule="nonzero" group-id="12,26,34" node-id="219" stroke="none" target-height="81.5" target-width="137.30005" target-x="913.5" target-y="304"></path><path d="M 943.40 319.30 L 928.70 319.30 C 929.80 348.00 953.40 371.00 982.40 371.00 C 984.90 371.00 987.30 370.80 989.70 370.50 C 964.20 367.00 944.40 345.50 943.40 319.30 Z" fill="#ffffff" fill-rule="nonzero" group-id="12" node-id="223" stroke="none" target-height="51.700012" target-width="61" target-x="928.7" target-y="319.3"></path><path d="M 158.30 583.20 C 125.30 583.20 98.40 557.30 97.20 524.30 C 97.10 522.30 97.90 520.30 99.30 518.80 C 100.70 517.30 102.60 516.50 104.70 516.50 L 212.00 516.50 C 214.00 516.50 216.00 517.30 217.40 518.80 C 218.80 520.30 219.60 522.20 219.50 524.30 C 218.10 557.40 191.30 583.20 158.30 583.20 Z" fill="#73c0d7" fill-rule="nonzero" group-id="13,27,35" node-id="232" stroke="none" target-height="66.70001" target-width="122.50001" target-x="97.1" target-y="516.5"></path><path d="M 212.00 524.10 L 212.00 524.10 M 212.00 524.10 C 210.90 552.80 187.30 575.80 158.30 575.80 C 129.30 575.80 105.70 552.80 104.60 524.10 L 212.00 524.10 M 212.00 509.20 L 212.00 509.20 L 104.60 509.20 C 100.50 509.20 96.70 510.90 93.90 513.80 C 91.10 516.70 89.60 520.70 89.70 524.70 C 91.10 561.70 121.30 590.70 158.30 590.70 C 195.10 590.70 225.10 562.00 226.80 525.30 C 226.80 524.90 226.80 524.50 226.80 524.10 C 226.90 515.90 220.20 509.20 212.00 509.20 L 212.00 509.20 Z M 212.00 539.00 L 212.00 539.00 L 212.00 539.00 L 212.00 539.00 Z" fill="#22286e" fill-rule="nonzero" group-id="13,27,35" node-id="234" stroke="none" target-height="81.5" target-width="137.29999" target-x="89.6" target-y="509.2"></path><path d="M 118.60 524.20 L 103.90 524.20 C 105.00 552.90 128.60 575.90 157.60 575.90 C 160.10 575.90 162.50 575.70 164.90 575.40 C 139.40 571.90 119.60 550.50 118.60 524.20 Z" fill="#ffffff" fill-rule="nonzero" group-id="13" node-id="238" stroke="none" target-height="51.700012" target-width="60.999992" target-x="103.9" target-y="524.2"></path><path d="M 1056.90 583.20 C 1023.90 583.20 997.00 557.30 995.80 524.30 C 995.70 522.30 996.50 520.30 997.90 518.80 C 999.30 517.30 1001.20 516.50 1003.30 516.50 L 1110.70 516.50 C 1112.70 516.50 1114.70 517.30 1116.10 518.80 C 1117.50 520.30 1118.30 522.20 1118.20 524.30 C 1116.70 557.40 1089.90 583.20 1056.90 583.20 Z" fill="#73c0d7" fill-rule="nonzero" group-id="14,28,36" node-id="247" stroke="none" target-height="66.70001" target-width="122.60004" target-x="995.7" target-y="516.5"></path><path d="M 1110.60 524.10 L 1110.60 524.10 M 1110.60 524.10 C 1109.50 552.80 1085.90 575.80 1056.90 575.80 C 1027.90 575.80 1004.30 552.80 1003.20 524.10 L 1110.60 524.10 M 1110.60 509.20 L 1110.60 509.20 L 1003.20 509.20 C 999.10 509.20 995.30 510.90 992.50 513.80 C 989.70 516.70 988.20 520.70 988.30 524.70 C 989.70 561.70 1019.90 590.70 1056.90 590.70 C 1093.70 590.70 1123.70 562.00 1125.40 525.30 C 1125.40 524.90 1125.40 524.50 1125.40 524.10 C 1125.50 515.90 1118.80 509.20 1110.60 509.20 L 1110.60 509.20 Z M 1110.60 539.00 L 1110.60 539.00 L 1110.60 539.00 L 1110.60 539.00 Z" fill="#22286e" fill-rule="nonzero" group-id="14,28,36" node-id="249" stroke="none" target-height="81.5" target-width="137.29999" target-x="988.2" target-y="509.2"></path><path d="M 1017.20 524.20 L 1002.50 524.20 C 1003.60 552.90 1027.20 575.90 1056.20 575.90 C 1058.70 575.90 1061.10 575.70 1063.50 575.40 C 1038.00 571.90 1018.30 550.50 1017.20 524.20 Z" fill="#ffffff" fill-rule="nonzero" group-id="14" node-id="253" stroke="none" target-height="51.700012" target-width="61" target-x="1002.5" target-y="524.2"></path><path d="M 227.40 822.10 C 194.40 822.10 167.50 796.20 166.30 763.20 C 166.20 761.20 167.00 759.20 168.40 757.70 C 169.80 756.20 171.70 755.40 173.80 755.40 L 281.20 755.40 C 283.20 755.40 285.20 756.20 286.60 757.70 C 288.00 759.20 288.80 761.10 288.70 763.20 C 287.20 796.30 260.40 822.10 227.40 822.10 Z" fill="#1e7cb9" fill-rule="nonzero" group-id="15,29,37" node-id="262" stroke="none" target-height="66.69995" target-width="122.59999" target-x="166.2" target-y="755.4"></path><path d="M 281.10 763.00 L 281.10 763.00 M 281.10 763.00 C 280.00 791.70 256.40 814.70 227.40 814.70 C 198.40 814.70 174.80 791.70 173.70 763.00 L 281.10 763.00 M 281.10 748.10 L 281.10 748.10 L 173.70 748.10 C 169.60 748.10 165.80 749.80 163.00 752.70 C 160.20 755.60 158.70 759.60 158.80 763.60 C 160.20 800.60 190.40 829.60 227.40 829.60 C 264.20 829.60 294.20 800.90 295.90 764.20 C 295.90 763.80 295.90 763.40 295.90 763.00 C 296.00 754.80 289.30 748.10 281.10 748.10 L 281.10 748.10 Z M 281.10 777.90 L 281.10 777.90 L 281.10 777.90 L 281.10 777.90 Z" fill="#22286e" fill-rule="nonzero" group-id="15,29,37" node-id="264" stroke="none" target-height="81.5" target-width="137.3" target-x="158.7" target-y="748.1"></path><path d="M 188.40 762.90 L 173.70 762.90 C 174.80 791.60 198.40 814.60 227.40 814.60 C 229.90 814.60 232.30 814.40 234.70 814.10 C 209.20 810.60 189.40 789.10 188.40 762.90 Z" fill="#ffffff" fill-rule="nonzero" group-id="15" node-id="268" stroke="none" target-height="51.69995" target-width="61" target-x="173.7" target-y="762.9"></path><path d="M 993.40 790.30 C 960.40 790.30 933.50 764.40 932.30 731.40 C 932.20 729.40 933.00 727.40 934.40 725.90 C 935.80 724.40 937.70 723.60 939.80 723.60 L 1047.00 723.60 C 1049.00 723.60 1051.00 724.40 1052.40 725.90 C 1053.80 727.40 1054.60 729.30 1054.50 731.40 C 1053.20 764.50 1026.40 790.30 993.40 790.30 Z" fill="#1e7cb9" fill-rule="nonzero" group-id="16,30,38" node-id="277" stroke="none" target-height="66.70001" target-width="122.39996" target-x="932.2" target-y="723.6"></path><path d="M 1047.00 731.20 L 1047.00 731.20 M 1047.00 731.20 C 1045.90 759.90 1022.30 782.90 993.30 782.90 C 964.30 782.90 940.70 759.90 939.60 731.20 L 1047.00 731.20 M 1047.10 716.30 L 1047.10 716.30 L 939.70 716.30 C 935.60 716.30 931.80 718.00 929.00 720.90 C 926.20 723.80 924.70 727.80 924.80 731.80 C 926.20 768.80 956.40 797.80 993.40 797.80 C 1030.20 797.80 1060.20 769.10 1061.90 732.40 C 1061.90 732.00 1061.90 731.60 1061.90 731.20 C 1062.00 723.00 1055.30 716.30 1047.10 716.30 L 1047.10 716.30 Z M 1047.00 746.10 L 1047.00 746.10 L 1047.00 746.10 L 1047.00 746.10 Z" fill="#22286e" fill-rule="nonzero" group-id="16,30,38" node-id="279" stroke="none" target-height="81.5" target-width="137.29999" target-x="924.7" target-y="716.3"></path><path d="M 954.30 731.10 L 939.60 731.10 C 940.70 759.80 964.30 782.80 993.30 782.80 C 995.80 782.80 998.20 782.60 1000.60 782.30 C 975.10 778.80 955.40 757.30 954.30 731.10 Z" fill="#ffffff" fill-rule="nonzero" group-id="16" node-id="283" stroke="none" target-height="51.700012" target-width="61" target-x="939.6" target-y="731.1"></path><path d="M 398.30 949.80 C 365.30 949.80 338.40 923.90 337.20 890.90 C 337.10 888.90 337.90 886.90 339.30 885.40 C 340.70 883.90 342.60 883.10 344.70 883.10 L 452.00 883.10 C 454.00 883.10 456.00 883.90 457.40 885.40 C 458.80 886.90 459.60 888.80 459.50 890.90 C 458.20 923.90 431.30 949.80 398.30 949.80 Z" fill="#73c0d7" fill-rule="nonzero" group-id="17,31,39" node-id="292" stroke="none" target-height="66.70001" target-width="122.5" target-x="337.1" target-y="883.1"></path><path d="M 452.00 890.60 L 452.00 890.60 M 452.00 890.60 C 450.90 919.30 427.30 942.30 398.30 942.30 C 369.30 942.30 345.70 919.30 344.60 890.60 L 452.00 890.60 M 452.00 875.70 L 452.00 875.70 L 344.60 875.70 C 340.50 875.70 336.70 877.40 333.90 880.30 C 331.10 883.20 329.60 887.20 329.70 891.20 C 331.10 928.20 361.20 957.20 398.30 957.20 C 435.10 957.20 465.10 928.50 466.90 891.80 C 466.90 891.40 466.90 891.00 466.90 890.60 C 466.90 882.40 460.30 875.70 452.00 875.70 L 452.00 875.70 Z M 452.00 905.50 L 452.00 905.50 L 452.00 905.50 L 452.00 905.50 Z" fill="#22286e" fill-rule="nonzero" group-id="17,31,39" node-id="294" stroke="none" target-height="81.5" target-width="137.29999" target-x="329.6" target-y="875.7"></path><path d="M 359.10 890.40 L 344.40 890.40 C 345.50 919.10 369.10 942.10 398.10 942.10 C 400.60 942.10 403.00 941.90 405.40 941.60 C 379.90 938.10 360.10 916.70 359.10 890.40 Z" fill="#ffffff" fill-rule="nonzero" group-id="17" node-id="298" stroke="none" target-height="51.69995" target-width="61" target-x="344.4" target-y="890.4"></path><path d="M 835.10 949.80 C 802.10 949.80 775.20 923.90 774.00 890.90 C 773.90 888.90 774.70 886.90 776.10 885.40 C 777.50 883.90 779.40 883.10 781.50 883.10 L 888.90 883.10 C 890.90 883.10 892.90 883.90 894.30 885.40 C 895.70 886.90 896.50 888.80 896.40 890.90 C 895.00 923.90 868.10 949.80 835.10 949.80 Z" fill="#73c0d7" fill-rule="nonzero" group-id="18,32,40" node-id="307" stroke="none" target-height="66.70001" target-width="122.599976" target-x="773.9" target-y="883.1"></path><path d="M 888.80 890.60 L 888.80 890.60 M 888.80 890.60 C 887.70 919.30 864.10 942.30 835.10 942.30 C 806.10 942.30 782.50 919.30 781.40 890.60 L 888.80 890.60 M 888.80 875.70 L 888.80 875.70 L 781.50 875.70 C 777.40 875.70 773.60 877.40 770.80 880.30 C 768.00 883.20 766.50 887.20 766.60 891.20 C 768.00 928.20 798.10 957.20 835.20 957.20 C 872.00 957.20 902.00 928.50 903.80 891.80 C 903.80 891.40 903.80 891.00 903.80 890.60 C 903.70 882.40 897.10 875.70 888.80 875.70 L 888.80 875.70 Z M 888.80 905.50 L 888.80 905.50 L 888.80 905.50 L 888.80 905.50 Z" fill="#22286e" fill-rule="nonzero" group-id="18,32,40" node-id="309" stroke="none" target-height="81.5" target-width="137.29999" target-x="766.5" target-y="875.7"></path><path d="M 795.90 890.40 L 781.20 890.40 C 782.30 919.10 805.90 942.10 834.90 942.10 C 837.40 942.10 839.80 941.90 842.20 941.60 C 816.70 938.10 796.90 916.70 795.90 890.40 Z" fill="#ffffff" fill-rule="nonzero" group-id="18" node-id="313" stroke="none" target-height="51.69995" target-width="61" target-x="781.2" target-y="890.4"></path><path d="M 568.30 928.10 L 553.60 928.10 C 554.70 956.80 578.30 979.80 607.30 979.80 C 609.80 979.80 612.20 979.60 614.60 979.30 C 589.10 975.80 569.30 954.30 568.30 928.10 Z" fill="#ffffff" fill-rule="nonzero" node-id="316" stroke="none" target-height="51.700012" target-width="61" target-x="553.6" target-y="928.1"></path><path d="M 568.30 103.40 L 553.60 103.40 C 554.70 132.10 578.30 155.10 607.30 155.10 C 609.80 155.10 612.20 154.90 614.60 154.60 C 589.10 151.10 569.30 129.60 568.30 103.40 Z" fill="#ffffff" fill-rule="nonzero" node-id="318" stroke="none" target-height="51.700005" target-width="61" target-x="553.6" target-y="103.4"></path></svg>