<?xml version="1.0" standalone="no"?><!DOCTYPE svg PUBLIC "-//W3C//DTD SVG 1.1//EN" "http://www.w3.org/Graphics/SVG/1.1/DTD/svg11.dtd"><svg height="1200" node-id="1" sillyvg="true" template-height="1200" template-width="1200" version="1.1" viewBox="0 0 1200 1200" width="1200" xmlns="http://www.w3.org/2000/svg" xmlns:xlink="http://www.w3.org/1999/xlink"><defs node-id="28"></defs><g node-id="88"><path d="M 923.00 439.10 C 920.70 438.60 918.80 436.90 918.00 434.70 C 899.40 381.60 941.10 345.40 941.50 345.00 C 942.70 344.00 944.20 343.40 945.80 343.40 C 946.80 343.40 970.60 343.00 996.10 348.80 C 1023.70 355.00 1042.50 365.90 1052.00 381.20 C 1055.60 386.80 1054.90 391.30 1053.60 394.10 C 1049.30 403.30 1034.30 405.10 1011.50 407.90 C 983.50 411.30 945.20 416.00 930.10 436.50 C 928.60 438.60 926.10 439.60 923.50 439.20 C 923.30 439.10 923.20 439.10 923.00 439.10 Z" fill="#e58456" fill-rule="nonzero" group-id="1" node-id="34" stroke="none" target-height="96.600006" target-width="156.19995" target-x="899.4" target-y="343"></path><path d="M 994.60 355.40 C 1014.90 360.00 1036.10 368.60 1046.10 384.70 C 1061.90 409.00 955.30 390.40 924.40 432.30 C 907.10 383.00 945.90 350.10 945.90 350.10 C 945.90 350.10 969.70 349.80 994.60 355.40 M 997.70 342.00 L 997.70 342.00 C 971.40 336.10 946.80 336.40 945.80 336.40 C 942.60 336.50 939.50 337.60 937.10 339.70 C 935.20 341.30 891.40 379.40 911.60 436.90 C 913.20 441.40 917.00 444.70 921.60 445.80 C 921.90 445.90 922.30 445.90 922.60 446.00 C 927.70 446.80 932.70 444.70 935.70 440.50 C 949.00 422.40 985.70 417.90 1012.40 414.60 C 1037.40 411.50 1054.00 409.50 1059.90 396.90 C 1061.60 393.30 1063.50 386.00 1057.80 377.20 C 1047.40 360.60 1027.10 348.60 997.70 342.00 L 997.70 342.00 Z" fill="#22286e" fill-rule="nonzero" group-id="1" node-id="36" stroke="none" target-height="110.69998" target-width="172.09998" target-x="891.4" target-y="336.1"></path></g><path d="M 1029.00 368.40 C 1029.00 368.40 1017.00 362.30 1014.20 361.20 C 1005.50 367.10 975.90 382.90 975.90 382.90 C 975.90 382.90 1021.30 367.40 1029.00 368.40 Z" fill="#d16f2f" fill-rule="nonzero" node-id="39" stroke="none" target-height="21.699982" target-width="53.099976" target-x="975.9" target-y="361.2"></path><path d="M 922.60 390.90 C 919.20 390.10 916.90 387.00 917.30 383.50 L 926.50 291.40 C 926.70 289.30 927.90 287.40 929.60 286.30 C 931.20 285.30 933.10 284.90 934.90 285.40 C 935.10 285.40 935.30 285.50 935.50 285.60 C 935.50 285.60 940.20 287.10 947.80 288.80 C 967.70 293.30 1006.20 298.90 1040.40 285.40 C 1041.30 285.00 1042.30 284.90 1043.30 284.90 C 1045.50 285.00 1047.50 285.30 1049.40 285.70 C 1058.90 287.80 1064.70 294.20 1065.40 303.10 C 1067.30 327.40 1027.10 372.30 999.40 383.30 C 964.40 397.10 924.80 391.10 923.20 390.90 C 922.90 391.00 922.80 391.00 922.60 390.90 Z" fill="#e58456" fill-rule="nonzero" group-id="2" node-id="43" stroke="none" target-height="112.20001" target-width="150.40002" target-x="916.9" target-y="284.9"></path><path d="M 1047.80 292.60 C 1081.00 300.10 1029.00 364.30 996.80 377.10 C 963.20 390.40 924.20 384.30 924.20 384.30 L 933.40 292.20 C 933.40 292.20 938.20 293.80 946.30 295.60 C 966.50 300.20 1006.80 306.10 1042.90 291.90 C 1044.70 292.00 1046.30 292.20 1047.80 292.60 M 1050.90 279.10 C 1048.70 278.60 1046.20 278.30 1043.70 278.10 C 1041.70 278.00 1039.70 278.30 1037.90 279.00 C 1005.50 291.70 968.50 286.40 949.40 282.00 C 942.20 280.40 937.80 278.90 937.80 278.90 C 937.40 278.80 937.00 278.60 936.50 278.50 C 932.90 277.70 929.10 278.30 925.90 280.40 C 922.40 282.70 920.10 286.40 919.70 290.60 L 910.50 382.70 C 909.80 389.70 914.40 396.00 921.20 397.50 C 921.50 397.60 921.80 397.60 922.10 397.70 C 923.80 398.00 965.20 404.30 1002.00 389.70 C 1030.10 378.60 1074.60 332.20 1072.30 302.60 C 1071.30 290.80 1063.30 281.90 1050.90 279.10 L 1050.90 279.10 Z" fill="#22286e" fill-rule="nonzero" group-id="2" node-id="45" stroke="none" target-height="126.599976" target-width="171.20001" target-x="909.8" target-y="277.7"></path><path d="M 440.90 994.10 C 428.00 991.20 415.70 987.80 404.30 984.00 C 239.10 929.00 160.60 797.70 141.50 545.20 C 141.10 540.30 143.40 535.60 147.40 532.90 C 150.60 530.70 154.60 529.90 158.30 530.80 C 159.20 531.00 160.10 531.30 161.00 531.70 C 199.10 549.10 236.80 562.10 273.10 570.30 C 273.10 570.30 273.10 570.30 273.10 570.30 C 475.50 616.10 580.60 505.80 585.00 501.10 C 585.30 500.80 589.80 496.00 597.90 489.10 C 568.00 454.20 549.80 410.40 546.30 364.20 C 537.30 244.90 626.90 140.40 745.90 131.30 C 767.60 129.60 789.20 131.20 810.20 135.90 C 903.50 157.00 971.00 235.40 978.20 331.00 C 982.90 393.60 961.00 453.90 917.70 498.50 C 961.60 542.10 987.40 605.50 990.70 678.80 C 994.40 762.00 966.80 844.50 918.50 894.10 C 819.30 996.10 591.50 1028.20 440.90 994.10 Z" fill="#f4d12c" fill-rule="nonzero" group-id="3" node-id="50" stroke="none" target-height="898.6" target-width="853.30005" target-x="141.1" target-y="129.6"></path><path d="M 807.20 149.30 C 891.70 168.40 957.60 240.90 964.40 332.00 C 969.30 397.40 942.80 458.00 897.50 498.70 C 1005.50 591.60 998.10 792.30 908.50 884.40 C 814.20 981.60 591.10 1014.00 444.00 980.70 C 431.70 977.90 419.90 974.70 408.70 970.90 C 264.50 922.90 175.70 814.40 155.30 544.10 C 196.30 562.80 234.70 575.60 270.10 583.60 C 483.50 631.90 595.20 510.30 595.20 510.30 C 595.20 510.30 603.30 501.60 618.10 490.50 C 585.50 457.50 563.90 413.10 560.10 363.00 C 551.70 251.10 635.40 153.40 747.00 144.90 C 767.80 143.40 788.00 145.00 807.20 149.30 M 813.30 122.40 C 791.00 117.30 768.00 115.70 744.90 117.50 C 618.30 127.20 523.10 238.30 532.60 365.20 C 536.00 409.80 552.20 452.30 579.00 487.60 C 576.70 489.80 575.40 491.20 575.10 491.60 C 570.80 496.20 470.20 600.70 276.20 556.90 C 240.80 548.90 203.90 536.20 166.70 519.20 C 165.00 518.40 163.20 517.80 161.30 517.40 C 153.80 515.70 145.90 517.20 139.50 521.70 C 131.50 527.30 127.00 536.70 127.80 546.40 C 147.30 805.40 228.70 940.20 399.90 997.20 C 411.80 1001.20 424.50 1004.70 437.80 1007.70 C 592.00 1042.60 825.90 1009.20 928.30 903.80 C 979.80 850.80 1008.30 766.50 1004.40 678.30 C 1001.20 606.70 977.30 543.90 936.50 498.50 C 976.60 452.20 996.60 392.20 991.90 330.10 C 984.30 228.30 912.50 144.90 813.30 122.40 L 813.30 122.40 Z" fill="#22286e" fill-rule="nonzero" group-id="3" node-id="52" stroke="none" target-height="926.89996" target-width="881.3" target-x="127" target-y="115.7"></path><path d="M 592.70 334.60 C 596.50 384.60 618.00 429.00 650.70 462.10 C 636.00 473.30 627.80 481.90 627.80 481.90 C 627.80 481.90 619.20 491.30 602.10 503.80 C 605.90 500.30 611.30 495.70 618.10 490.50 C 585.50 457.50 563.90 413.10 560.10 363.00 C 554.50 288.80 589.40 220.90 646.10 181.00 C 609.20 221.20 588.30 275.90 592.70 334.60 Z" fill="#e58456" fill-rule="nonzero" group-id="4" node-id="57" stroke="none" target-height="322.8" target-width="96.20001" target-x="554.5" target-y="181"></path><path d="M 191.90 559.60 C 218.30 797.90 305.10 897.10 441.20 942.50 C 572.90 986.40 795.60 965.80 911.20 881.70 C 910.30 882.60 909.50 883.60 908.60 884.50 C 806.30 989.70 552.80 1019.00 408.70 970.90 C 264.50 922.90 175.70 814.40 155.30 544.10 C 167.80 549.90 180.00 555.00 191.90 559.60 Z" fill="#e58456" fill-rule="nonzero" group-id="4" node-id="59" stroke="none" target-height="474.90002" target-width="755.9" target-x="155.3" target-y="544.1"></path><path d="M 781.40 408.60 C 742.00 399.70 713.40 366.50 710.40 326.10 C 706.60 275.70 744.50 231.50 794.80 227.60 C 804.00 226.90 813.10 227.60 822.00 229.60 C 861.40 238.50 890.00 271.70 893.00 312.10 C 896.80 362.50 858.90 406.70 808.60 410.60 C 799.40 411.20 790.30 410.60 781.40 408.60 C 781.40 408.60 781.40 408.60 781.40 408.60 Z" fill="#ffffff" fill-rule="nonzero" group-id="5" node-id="64" stroke="none" target-height="184.30002" target-width="190.20001" target-x="706.6" target-y="226.9"></path><path d="M 818.90 243.00 C 851.30 250.30 876.60 278.10 879.20 313.10 C 882.40 356.00 850.30 393.50 807.50 396.80 C 799.60 397.40 791.80 396.80 784.40 395.10 C 752.00 387.80 726.70 360.00 724.10 325.00 C 720.90 282.10 753.00 244.60 795.80 241.30 C 803.80 240.70 811.50 241.30 818.90 243.00 M 825.00 216.10 C 814.80 213.80 804.20 213.00 793.70 213.80 C 735.80 218.20 692.20 269.10 696.60 327.10 C 700.10 373.60 732.90 411.80 778.30 422.00 C 788.50 424.30 799.10 425.10 809.60 424.30 C 867.50 419.90 911.10 369.00 906.70 311.00 C 903.20 264.50 870.40 226.40 825.00 216.10 L 825.00 216.10 Z" fill="#22286e" fill-rule="nonzero" group-id="5" node-id="66" stroke="none" target-height="212.1" target-width="218.89996" target-x="692.2" target-y="213"></path><path d="M 813.87 265.25 L 819.70 266.92 L 825.14 269.11 L 830.21 271.83 L 834.97 275.07 L 839.29 278.72 L 843.21 282.79 L 846.69 287.24 L 849.68 291.99 L 852.19 297.05 L 854.17 302.34 L 855.60 307.82 L 856.47 313.53 L 856.74 319.28 L 856.38 325.14 L 855.36 331.13 L 853.70 336.97 L 851.51 342.42 L 848.79 347.50 L 845.55 352.27 L 841.90 356.61 L 837.83 360.53 L 833.39 364.02 L 828.65 367.02 L 823.59 369.54 L 818.30 371.53 L 812.83 372.96 L 807.14 373.84 L 801.39 374.11 L 795.54 373.75 L 789.56 372.74 L 783.73 371.08 L 778.30 368.89 L 773.23 366.17 L 768.46 362.93 L 764.14 359.28 L 760.22 355.21 L 756.74 350.76 L 753.75 346.01 L 751.24 340.95 L 749.26 335.65 L 747.83 330.17 L 746.96 324.47 L 746.70 318.71 L 747.06 312.86 L 748.07 306.87 L 749.73 301.02 L 751.93 295.58 L 754.65 290.50 L 757.89 285.73 L 761.53 281.39 L 765.60 277.47 L 770.05 273.98 L 774.79 270.98 L 779.84 268.46 L 785.13 266.47 L 790.60 265.04 L 796.30 264.16 L 802.05 263.89 L 807.89 264.25 L 813.87 265.25 Z" fill="#22286e" fill-rule="nonzero" group-id="6" node-id="71" stroke="none" target-height="110.21997" target-width="110.03998" target-x="746.7" target-y="263.89"></path><path d="M 813.23 289.28 L 815.91 290.15 L 818.27 291.41 L 820.34 293.06 L 822.11 295.03 L 823.49 297.24 L 824.50 299.70 L 825.08 302.29 L 825.20 304.97 L 824.83 307.79 L 823.95 310.49 L 822.69 312.87 L 821.05 314.96 L 819.08 316.74 L 816.88 318.14 L 814.44 319.16 L 811.85 319.76 L 809.19 319.88 L 806.39 319.51 L 803.70 318.64 L 801.35 317.38 L 799.27 315.73 L 797.50 313.76 L 796.12 311.55 L 795.11 309.09 L 794.53 306.50 L 794.42 303.82 L 794.79 301.00 L 795.66 298.30 L 796.92 295.92 L 798.56 293.83 L 800.54 292.05 L 802.73 290.65 L 805.18 289.63 L 807.76 289.03 L 810.43 288.91 L 813.23 289.28 Z" fill="#ffffff" fill-rule="nonzero" group-id="7" node-id="76" stroke="none" target-height="30.970001" target-width="30.78003" target-x="794.42" target-y="288.91"></path><path d="M 502.10 883.20 C 396.10 859.20 322.00 792.90 313.40 714.20 C 313.10 711.50 312.20 703.10 318.20 696.60 C 324.70 689.50 333.80 689.60 346.30 689.80 C 378.10 690.40 452.50 691.70 616.80 609.90 C 638.10 599.30 660.10 596.40 682.20 601.40 C 750.20 616.80 798.70 704.20 790.80 765.10 C 780.00 847.80 693.40 884.50 622.40 890.90 C 581.40 894.60 541.00 892.00 502.10 883.20 C 502.10 883.20 502.10 883.20 502.10 883.20 Z" fill="#e58456" fill-rule="nonzero" group-id="8" node-id="81" stroke="none" target-height="298.19995" target-width="486.5" target-x="312.2" target-y="596.4"></path><path d="M 679.00 614.90 C 739.30 628.50 784.10 708.20 777.00 763.30 C 767.70 834.60 692.50 870.80 621.00 877.10 C 580.80 880.70 541.30 877.80 505.10 869.60 C 409.20 847.90 335.40 788.80 327.00 712.60 C 323.80 683.40 375.50 745.30 622.80 622.20 C 642.30 612.60 661.30 610.90 679.00 614.90 M 685.10 588.00 C 660.20 582.40 634.40 585.70 610.50 597.60 C 449.30 677.90 377.20 676.60 346.40 676.00 C 332.70 675.80 318.60 675.50 307.90 687.20 C 301.20 694.60 298.40 704.20 299.60 715.60 C 308.90 800.20 387.10 871.20 499.00 896.50 C 539.30 905.60 581.20 908.30 623.50 904.50 C 699.50 897.70 792.50 857.50 804.30 766.80 C 813.00 700.10 761.80 605.40 685.10 588.00 L 685.10 588.00 Z" fill="#22286e" fill-rule="nonzero" group-id="8" node-id="83" stroke="none" target-height="325.89996" target-width="514.6" target-x="298.4" target-y="582.4"></path><path d="M 367.20 703.50 C 400.00 790.60 522.30 847.30 653.30 835.60 C 695.20 831.90 738.40 817.80 768.80 792.50 C 745.60 844.60 681.90 871.70 621.00 877.20 C 474.40 890.30 338.50 817.80 327.00 712.70 C 325.60 699.80 335.00 704.70 367.20 703.50 Z" fill="#dd4d2d" fill-rule="nonzero" node-id="86" stroke="none" target-height="190.5" target-width="443.19998" target-x="325.6" target-y="699.8"></path></svg>