<svg xml:space="preserve" style="enable-background:new 0 0 1200 1200;" viewBox="0 0 1200 1200" y="0px" x="0px" xmlns:xlink="http://www.w3.org/1999/xlink" xmlns="http://www.w3.org/2000/svg" id="图层_1" version="1.1">
<style type="text/css">
	.st0{fill:#FFFFFF;}
	.st1{fill:#22286E;}
	.st2{fill:#73C0D7;}
	.st3{fill:#1E7CB9;}
	.st4{fill:#E58456;}
	.st5{fill:#D9353E;}
	.st6{fill:#F7D9CC;}
	.st7{fill:#E48987;}
</style>
<g>
	<g>
		<g>
			<path d="M520.5,1175.5c-1-0.1-2-0.4-3-0.7l-11.6-2c-29-5-74.7-20.7-143.7-49.5c-55.6-23.1-105.8-49-134.2-69.1
				l-14.2-10.3c-0.5-0.3-0.9-0.7-1.2-1.2c-7.2-8.2-13.2-23.9-1.5-52.5l208.8-637.6c0.1-0.2,0.2-0.4,0.2-0.6
				c5.1-12.2,17.2-19.6,29.6-17.8c2,0.3,4.2,0.9,6.1,1.7l399.3,166c6.7,2.8,11.7,8.2,14.3,15.4c2.5,6.9,2.2,14.5-0.6,21.3
				c-0.1,0.2-0.2,0.4-0.2,0.6l-310.9,608.9C552.8,1159.2,535.4,1177.7,520.5,1175.5z" class="st0"></path>
		</g>
		<g>
			<path d="M448.6,341.9c1.4,0.2,2.9,0.6,4.3,1.1l399.3,166c9.7,4,14,16,9.6,26.7l-311,609.1c-4.1,10-19.2,24.4-29,23
				c-0.7-0.1-1.4-0.3-2.1-0.5l-12.3-2.1c-32.6-5.6-84.9-25.2-142.1-49c-57.2-23.7-105.7-49.2-132.8-68.3l-14.1-10.3
				c-11.5-13.1-4.5-34.1,0-44.8L427.2,355C430.9,345.9,440,340.7,448.6,341.9 M450.7,326.8L450.7,326.8c-15.8-2.2-31.3,7-37.7,22.4
				c-0.2,0.4-0.3,0.7-0.5,1.1L204,987.6c-13.2,32-5.6,50.4,3,60.1c0.7,0.8,1.6,1.6,2.5,2.2l14.1,10.3c29,20.6,79.8,46.8,135.8,70.1
				c69.5,29,115.8,44.8,145.4,49.9l11.1,1.9c1.2,0.4,2.4,0.7,3.7,0.8c19.4,2.8,39.3-18.8,44.9-31.6l310.8-608.7
				c0.2-0.4,0.3-0.7,0.5-1.1c7.6-18.4-0.3-39.3-17.8-46.6L458.7,329C456.1,327.9,453.5,327.3,450.7,326.8L450.7,326.8z" class="st1"></path>
		</g>
	</g>
	<g>
		<g>
			<path d="M591,1009.1c-0.6,0-1.3-0.3-1.8-0.5L284,881.6c-3.7-1.5-5.6-5.7-4.3-9.4l134-408c0.6-2,2.2-3.6,4.1-4.6
				c1.3-0.6,2.8-0.8,4.3-0.6c0.6,0,1.3,0.3,1.8,0.5l366.3,153.3c1.9,0.8,3.4,2.4,4.2,4.5c0.8,2.1,0.7,4.2-0.4,6.1l-195.2,381.6
				C597.3,1007.9,594.2,1009.5,591,1009.1z" class="st2"></path>
		</g>
		<g>
			<path d="M421,466.6l366.3,153.3l-195.2,381.6L287,874.5L421,466.6 M423.1,451.5c-2.9-0.4-5.8,0-8.5,1.2
				c-3.9,1.8-6.9,5.1-8.1,9.1l-134,408c-2.5,7.5,1.2,15.8,8.6,18.8l305.1,127c1.2,0.5,2.5,0.8,3.7,1c6.3,0.9,12.6-2.2,15.7-8.1
				l195.2-381.6c1.9-3.8,2.2-8.2,0.7-12.2c-1.5-4-4.5-7.2-8.5-8.8L426.8,452.6C425.6,452,424.4,451.6,423.1,451.5L423.1,451.5z" class="st1"></path>
		</g>
	</g>
	<g>
		<g>
			<path d="M500.6,1137.6c-29-4.1-76.6-19.2-127.3-40.3c-38-15.8-72.7-32.9-97.9-48.2c-37.7-22.9-40.9-33.8-38.3-41.1
				c0-3.4,0.7-6.6,1.9-9.8l90.4-277.5c0.6-2,2.2-3.6,4.1-4.6c1.3-0.6,2.8-0.8,4.3-0.6c0.6,0,1.3,0.3,1.8,0.5l327.1,136.1
				c1.9,0.8,3.4,2.4,4.3,4.4c0.7,2,0.7,4.2-0.4,6.1c-107.1,209.7-131.2,255.5-137.2,266.2c-0.1,0.5-0.3,0.9-0.4,1.3
				C528.6,1140.3,513.4,1139.5,500.6,1137.6z" class="st3"></path>
		</g>
		<g>
			<path d="M336.7,723.1l327.1,136.1c0,0-135.5,265.5-137.7,267.3c-0.1,0.2-0.1,0.5-0.2,0.7c-1.7,4.1-10.4,4.8-24.2,2.8
				c-27.2-3.9-73.9-18.3-125.5-39.7c-77.7-32.4-136.7-68.2-131.7-80.1c0.1-0.2,0.2-0.5,0.4-0.6c-0.2-2.9,0.3-5.8,1.4-8.7
				L336.7,723.1 M338.9,708c-2.9-0.4-5.8,0-8.5,1.2c-3.9,1.8-6.8,5.1-8.1,9.1l-90.3,277.3c-1.4,3.5-2.2,7.3-2.3,11.1
				c-4.8,16.5,13.3,31.6,41.9,48.9c25.5,15.6,60.6,32.9,99,48.8c51.3,21.3,99.6,36.6,129.1,40.8c10,1.4,33.4,4.8,40.4-12
				c0.1-0.3,0.3-0.6,0.4-0.9c5.8-10,20.9-39.1,69-133.1c33.8-65.9,67.7-132.4,68.1-133c1.9-3.8,2.2-8.2,0.7-12.2
				c-1.5-4-4.5-7.2-8.5-8.8l-327.2-136C341.4,708.5,340.1,708.2,338.9,708L338.9,708z" class="st1"></path>
		</g>
	</g>
	<g>
		<g>
			<path d="M643.1,868.9c-31-4.4-90.1-23.7-154.3-50.4c-44-18.2-84.4-37.6-114-54.5c-42.6-24.2-48.9-35-45.2-43.8
				c3.7-8.9,16-8.4,27.7-6.7c31,4.4,90.1,23.7,154.3,50.4c44,18.2,84.4,37.6,114,54.5c42.5,24.3,48.9,35,45.2,43.8
				C667.1,871,654.8,870.5,643.1,868.9L643.1,868.9z" class="st2"></path>
		</g>
		<g>
			<g>
				<path d="M356.3,721.1c29.2,4.1,87.3,22.8,152.4,49.9c90.3,37.6,159.8,77,155.1,88.3c-1.3,3.1-8.3,3.7-19.6,2.1
					c-29.2-4.1-87.3-22.8-152.4-49.9c-90.3-37.6-159.8-77-155.1-88.3C338,720.1,344.9,719.5,356.3,721.1 M358.4,706
					c-8.8-1.3-29.3-4.2-35.8,11.3c-6.4,15.3,6.3,29.4,48.5,53.3c29.9,17,70.6,36.5,114.9,54.8c64.7,27,124.5,46.4,156.1,50.9
					c8.8,1.3,29.3,4.2,35.8-11.3c6.4-15.3-6.3-29.4-48.5-53.3c-29.9-17-70.6-36.5-114.9-54.8C449.8,730,390,710.5,358.4,706
					L358.4,706z" class="st1"></path>
			</g>
		</g>
	</g>
	<g>
		<path d="M735.7,218.9L735.7,218.9c0.8,0.3,1.7,0.7,2.5,1c0.8,0.3,1.7,0.7,2.5,1l0,0
			c241.9,104.4,140.5,341.6,140.5,341.6l-246-102.3l0,0L394.3,360C394.4,360,491.1,120.9,735.7,218.9z" class="st0"></path>
		<path d="M880.2,570.1c-0.6,0-1.3-0.3-1.8-0.5L391.4,367c-3.9-1.6-5.7-6.1-4.1-9.8c1-2.5,25.5-62.1,81-110.2
			c51.5-44.7,139.9-87,269.4-35.5c0.3,0.1,0.6,0.1,0.9,0.3l5.1,2.1c0.3,0.1,0.6,0.2,0.8,0.4c127.8,55.5,160.2,148.1,164.8,216.1
			c5,73.3-20,132.7-21,135.2C886.9,568.8,883.5,570.6,880.2,570.1z M404.5,356L877,552.5c6.2-17.6,21-66,17.1-121.6
			c-6.5-92.7-59.1-161-156.3-202.9c-0.2-0.1-0.4-0.2-0.6-0.2l-3.7-1.5c-0.2-0.1-0.4-0.2-0.6-0.3c-98.5-39.5-184.2-28.5-254.5,32.6
			C436.2,295,412.5,339.3,404.5,356z" class="st1"></path>
	</g>
	<g>
		<g>
			<path d="M880.2,570.1c-0.6,0-1.3-0.3-1.8-0.5L391.4,367c-3.9-1.6-5.7-6.1-4.1-9.8c0.8-1.9,20.2-49.1,63.4-93.6
				c40.2-41.3,109.3-87.5,210-73.2c24.8,3.6,50.7,10.6,77,21.1c0.3,0.1,0.6,0.1,0.9,0.3l2.6,1.1l2.5,1c0.3,0.1,0.6,0.2,0.8,0.4
				c127.8,55.5,160.2,148.1,164.8,216.1c5,73.3-20,132.7-21,135.2C886.9,568.8,883.5,570.6,880.2,570.1z" class="st0"></path>
		</g>
		<g>
			<path d="M659.7,197.9c23.5,3.4,48.9,10.1,76,20.9l0,0c0.8,0.3,1.7,0.7,2.5,1c0.8,0.3,1.7,0.7,2.5,1l0,0
				c241.9,104.4,140.5,341.6,140.5,341.6l-246-102.3l0,0L394.3,360C394.4,360,470.9,171.1,659.7,197.9 M661.9,182.8l-2.1,15
				L661.9,182.8c-82.2-11.7-157.1,14.4-216.6,75.4c-44.3,45.5-64.2,94-65.1,96c-3.1,7.8,0.6,16.6,8.3,19.8l240.9,100.2l246,102.3
				c1.2,0.5,2.5,0.8,3.7,1c6.7,0.9,13.4-2.7,16.1-9.1c1.1-2.6,26.7-63.5,21.6-138.7c-4.7-70.1-38-165.4-169-222.5
				c-0.4-0.2-0.8-0.4-1.2-0.6c-0.6-0.2-1.2-0.5-1.8-0.7l-0.8-0.3l-0.7-0.3c-0.6-0.2-1.2-0.5-1.8-0.7c-0.5-0.2-0.8-0.3-1.3-0.4
				C713.6,193.7,687.1,186.5,661.9,182.8L661.9,182.8z" class="st1"></path>
		</g>
	</g>
	<g>
		<path d="M611.9,195.7C509.2,224.9,470.4,321,470.4,321l240.9,100.2l187,77.8c-6.1,38.1-17,63.6-17,63.6l-246-102.3
			L394.4,360.1C394.4,360,457.8,203.3,611.9,195.7z" class="st2"></path>
	</g>
	<g>
		<g>
			<path d="M772.9,623.1c-31.9-4.6-101.5-27.8-177.2-59.4c-49.3-20.5-94.9-41.9-128.3-60.1
				c-53.1-28.9-54.7-38.1-51.6-45.6c3.8-9.2,17.7-7.3,24.5-6.3c31.9,4.6,101.4,27.8,177.2,59.4c49.3,20.5,94.9,41.9,128.3,60
				c53.1,28.9,54.7,38.1,51.5,45.6C793.5,626,779.6,624.1,772.9,623.1L772.9,623.1z" class="st3"></path>
		</g>
		<g>
			<path d="M439.1,459.4c30.2,4.3,98.2,26.8,175.4,58.8c101.5,42.2,180.2,85.1,175.7,95.7c-1.1,2.6-6.8,3-16.4,1.6
				c-30.2-4.3-98.2-26.8-175.4-58.8C497,514.5,418.3,471.6,422.8,461C423.9,458.6,429.6,458,439.1,459.4 M441.3,444.3
				c-8-1.1-26.5-3.7-32.5,10.9c-6.2,15,9.6,26.6,16.3,31.6c8.8,6.6,21.8,14.5,38.6,23.6c33.7,18.3,79.4,39.8,129,60.4
				c76.3,31.8,146.6,55.2,179.1,59.8c8,1.1,26.5,3.7,32.5-10.9c6.2-15-9.6-26.6-16.3-31.6c-8.8-6.6-21.8-14.5-38.6-23.6
				c-33.7-18.3-79.4-39.8-129-60.4C544,472.5,473.8,448.9,441.3,444.3L441.3,444.3z" class="st1"></path>
		</g>
	</g>
	<g>
		<g>
			<g>
				<path d="M482.5,1056c-2.4-0.4-4.9-1-7.3-2c-7.4-3.1-13-8.8-16.1-16.1c-3-7.3-3-15.4,0.1-22.8
					c5.2-12.6,18.2-19.9,31.6-18.1c2.4,0.4,4.9,1,7.3,2c7.3,3,13,8.8,16.1,16.1s3,15.4-0.1,22.8C509,1050.4,495.9,1057.9,482.5,1056
					L482.5,1056z" class="st4"></path>
			</g>
			<g>
				<path d="M489.8,1004.5c1.9,0.2,3.6,0.7,5.4,1.5c11.3,4.7,16.6,17.6,11.9,29c-3.9,9.5-13.8,14.8-23.5,13.4
					c-1.9-0.2-3.6-0.7-5.4-1.5c-11.3-4.7-16.6-17.6-11.9-29C470.2,1008.4,480.1,1003.1,489.8,1004.5 M492,989.4
					c-16.8-2.4-33.2,6.9-39.7,22.7c-3.8,9.2-3.8,19.4-0.1,28.6c3.8,9.3,10.9,16.4,20.2,20.3c3,1.2,6,2,9.1,2.5
					c16.8,2.4,33.2-6.9,39.7-22.7c7.9-19-1.1-40.9-20.2-48.9C498.1,990.8,495.1,990,492,989.4L492,989.4z" class="st1"></path>
			</g>
		</g>
		<g>
			<g>
				<path d="M448.1,1014.7c-2.4-0.4-4.9-1-7.3-2c-7.3-3-13-8.8-16.1-16.1c-3-7.3-3-15.4,0.1-22.8
					c5.2-12.6,18.2-19.9,31.6-18.1c2.4,0.4,4.9,1,7.3,2c7.3,3,13,8.8,16.1,16.1c3,7.3,3,15.4-0.1,22.8
					C474.6,1009.2,461.5,1016.6,448.1,1014.7L448.1,1014.7z" class="st4"></path>
			</g>
			<g>
				<path d="M455.4,963.3c1.9,0.2,3.6,0.7,5.4,1.5c11.3,4.7,16.6,17.6,11.9,29c-3.9,9.5-13.8,14.8-23.5,13.4
					c-1.9-0.2-3.6-0.7-5.4-1.5c-11.3-4.7-16.6-17.6-11.9-29C435.8,967.2,445.7,962,455.4,963.3 M457.5,948.3
					c-16.8-2.4-33.2,6.9-39.7,22.7c-7.9,19,1.1,40.9,20.2,48.9c3,1.2,6,2,9.1,2.5c16.8,2.4,33.2-6.9,39.7-22.7
					c3.8-9.2,3.8-19.4,0.1-28.6c-3.8-9.3-10.9-16.4-20.2-20.3C463.7,949.5,460.7,948.7,457.5,948.3L457.5,948.3z" class="st1"></path>
			</g>
		</g>
		<g>
			<g>
				<path d="M415,1099.1c-2.4-0.4-4.9-1-7.3-2c-7.3-3-13-8.8-16.1-16.1s-3-15.4,0.1-22.8c5.2-12.6,18.2-19.9,31.6-18.1
					c2.4,0.4,4.9,1,7.3,2c15.1,6.3,22.4,23.8,16,38.9C441.4,1093.5,428.4,1100.9,415,1099.1L415,1099.1z" class="st4"></path>
			</g>
			<g>
				<path d="M422.2,1047.6c1.9,0.2,3.6,0.7,5.4,1.5c11.3,4.7,16.6,17.6,11.9,29c-3.9,9.5-13.8,14.8-23.5,13.4
					c-1.9-0.2-3.6-0.7-5.4-1.5c-11.3-4.7-16.6-17.6-11.9-29C402.7,1051.5,412.5,1046.2,422.2,1047.6 M424.4,1032.5
					c-16.8-2.4-33.2,6.9-39.7,22.7c-7.9,19,1.1,40.9,20.2,48.9c3,1.2,6,2,9.1,2.5c16.8,2.4,33.2-6.9,39.7-22.7
					c3.8-9.2,3.8-19.4,0.1-28.6c-3.8-9.3-10.9-16.4-20.2-20.3C430.6,1033.9,427.4,1033,424.4,1032.5L424.4,1032.5z" class="st1"></path>
			</g>
		</g>
		<g>
			<g>
				<path d="M369.8,1037.3c-2.4-0.4-4.9-1-7.3-2c-7.3-3-13-8.8-16.1-16.1c-3-7.3-3-15.4,0.1-22.8
					c5.2-12.6,18.2-19.9,31.6-18.1c2.4,0.4,4.9,1,7.3,2c15.1,6.3,22.4,23.8,16,38.9C396.2,1031.7,383.2,1039.2,369.8,1037.3
					L369.8,1037.3z" class="st4"></path>
			</g>
			<g>
				<path d="M377.1,985.9c1.9,0.2,3.6,0.7,5.4,1.5c11.3,4.7,16.6,17.6,11.9,29c-3.9,9.5-13.8,14.8-23.5,13.4
					c-1.9-0.2-3.6-0.7-5.4-1.5c-11.3-4.7-16.6-17.6-11.9-29C357.5,989.8,367.2,984.5,377.1,985.9 M379.2,970.9
					c-16.8-2.4-33.2,6.9-39.7,22.7c-3.8,9.2-3.8,19.4-0.1,28.6c3.8,9.3,10.9,16.4,20.2,20.3c3,1.2,6,2,9.1,2.5
					c16.8,2.4,33.2-6.9,39.7-22.7c7.9-19-1.1-40.9-20.1-48.8C385.4,972.1,382.3,971.3,379.2,970.9L379.2,970.9z" class="st1"></path>
			</g>
		</g>
		<g>
			<g>
				<path d="M299.7,985.6c-3.7-0.5-7.1-1.7-10.3-3.5c-7-3.9-12-10.3-14.1-17.9c-2.1-7.6-1.2-15.7,2.7-22.6
					c5.9-10.6,18.1-16.6,30.1-15c3.7,0.5,7.1,1.7,10.3,3.5c14.3,8,19.5,26.2,11.5,40.5C323.9,981.4,311.8,987.3,299.7,985.6
					L299.7,985.6z" class="st5"></path>
			</g>
			<g>
				<path d="M307,934.2c2.7,0.4,5.2,1.2,7.7,2.6c10.6,5.9,14.5,19.4,8.5,30.2c-4.6,8.3-13.7,12.4-22.5,11.1
					c-2.7-0.4-5.2-1.2-7.7-2.6c-10.6-5.9-14.5-19.4-8.5-30.2C289.2,937.1,298.2,932.9,307,934.2 M309.1,919.2
					c-15.1-2.2-30.4,5.4-37.9,18.7c-4.9,8.7-6.1,18.8-3.3,28.4c2.7,9.6,9,17.6,17.7,22.5c4.1,2.2,8.4,3.7,13,4.4
					c15.1,2.2,30.4-5.4,37.9-18.7c4.9-8.7,6.1-18.8,3.3-28.4s-9-17.6-17.7-22.5C318.1,921.3,313.8,919.8,309.1,919.2L309.1,919.2z" class="st1"></path>
			</g>
		</g>
		<g>
			<g>
				<path d="M319.6,889.3c-2.4-0.4-4.9-1-7.3-2c-7.3-3-13-8.8-16.1-16.1c-3-7.3-3-15.4,0.1-22.8
					c5.2-12.6,18.2-19.9,31.6-18.1c2.4,0.4,4.9,1,7.3,2c15.1,6.3,22.4,23.8,16,38.9C346.1,883.7,333.1,891.2,319.6,889.3
					L319.6,889.3z" class="st4"></path>
			</g>
			<g>
				<path d="M326.9,837.8c1.9,0.2,3.6,0.7,5.4,1.5c11.3,4.7,16.6,17.6,11.9,29c-3.9,9.5-13.8,14.8-23.5,13.4
					c-1.9-0.2-3.6-0.7-5.4-1.5c-11.3-4.7-16.6-17.6-11.9-29C307.3,841.7,317.2,836.4,326.9,837.8 M329,822.7
					c-16.8-2.4-33.2,6.9-39.7,22.7c-3.8,9.2-3.8,19.4-0.1,28.6c3.8,9.3,10.9,16.4,20.2,20.3c3,1.2,6,2,9.1,2.5
					c16.8,2.4,33.2-6.9,39.7-22.7c3.8-9.2,3.8-19.4,0.1-28.6c-3.8-9.3-10.9-16.4-20.2-20.3C335.2,824,332.2,823.2,329,822.7
					L329,822.7z" class="st1"></path>
			</g>
		</g>
		<g>
			<g>
				<path d="M453,942.2c-2.4-0.4-4.9-1-7.3-2c-7.3-3-13-8.8-16.1-16.1s-3-15.4,0.1-22.8c5.2-12.6,18.2-19.9,31.6-18.1
					c2.4,0.4,4.9,1,7.3,2c15.1,6.3,22.4,23.8,16,38.9C479.4,936.7,466.5,944.1,453,942.2L453,942.2z" class="st4"></path>
			</g>
			<g>
				<path d="M460.3,890.8c1.9,0.2,3.6,0.7,5.4,1.5c11.3,4.7,16.6,17.6,11.9,29c-3.9,9.5-13.8,14.8-23.5,13.4
					c-1.9-0.2-3.6-0.7-5.4-1.5c-11.3-4.7-16.6-17.6-11.9-29C440.7,894.7,450.6,889.4,460.3,890.8 M462.4,875.7
					c-16.8-2.4-33.2,6.9-39.7,22.7c-3.8,9.2-3.8,19.4-0.1,28.6c3.8,9.3,10.9,16.4,20.2,20.3c3,1.2,6,2,9.1,2.5
					c16.8,2.4,33.2-6.9,39.7-22.7c7.9-19-1.1-40.9-20.1-48.8C468.6,877,465.6,876.1,462.4,875.7L462.4,875.7z" class="st1"></path>
			</g>
		</g>
		<g>
			<g>
				<path d="M530.2,1021.1c-2.4-0.4-4.9-1-7.3-2c-15.1-6.3-22.4-23.8-16-38.9c5.2-12.6,18.2-19.9,31.6-18.1
					c2.4,0.4,4.9,1,7.3,2c15.1,6.3,22.4,23.8,16,38.9C556.6,1015.5,543.6,1023,530.2,1021.1L530.2,1021.1z" class="st4"></path>
			</g>
			<g>
				<path d="M537.4,969.6c1.9,0.2,3.6,0.7,5.4,1.5c11.3,4.7,16.6,17.6,11.9,29c-3.9,9.5-13.8,14.8-23.5,13.4
					c-1.9-0.2-3.6-0.7-5.4-1.5c-11.3-4.7-16.6-17.6-11.9-29C517.9,973.5,527.7,968.3,537.4,969.6 M539.6,954.5
					c-16.8-2.4-33.2,6.9-39.7,22.7c-7.9,19,1.1,40.9,20.2,48.9c3,1.2,6,2,9.1,2.5c16.8,2.4,33.2-6.9,39.7-22.7
					c7.9-19-1.1-40.9-20.1-48.8C545.8,955.9,542.7,955,539.6,954.5L539.6,954.5z" class="st1"></path>
			</g>
		</g>
		<g>
			<g>
				<path d="M575.3,943.4c-2.4-0.4-4.9-1-7.3-2c-7.4-3.1-13-8.8-16.1-16.1c-3-7.3-3-15.4,0.1-22.8
					c5.2-12.6,18.2-19.9,31.6-18.1c2.4,0.4,4.9,1,7.3,2c7.3,3,13,8.8,16.1,16.1c3,7.3,3,15.4-0.1,22.8
					C601.7,937.9,588.8,945.4,575.3,943.4L575.3,943.4z" class="st4"></path>
			</g>
			<g>
				<path d="M582.5,892c1.9,0.2,3.6,0.7,5.4,1.5c11.3,4.7,16.6,17.6,11.9,29c-3.9,9.5-13.8,14.8-23.5,13.4
					c-1.9-0.2-3.6-0.7-5.4-1.5c-11.3-4.7-16.6-17.6-11.9-29C562.9,896,572.8,890.7,582.5,892 M584.7,877
					c-16.8-2.4-33.2,6.9-39.7,22.7c-3.8,9.2-3.8,19.4-0.1,28.6c3.8,9.3,10.9,16.4,20.2,20.3c3,1.2,6,2,9.1,2.5
					c16.8,2.4,33.2-6.9,39.7-22.7c7.9-19-1.1-40.9-20.2-48.9C590.9,878.2,587.8,877.4,584.7,877L584.7,877z" class="st1"></path>
			</g>
		</g>
		<g>
			<g>
				<path d="M367.9,952.3c-3.7-0.5-7.1-1.7-10.3-3.5c-14.3-8-19.5-26.2-11.5-40.5c5.9-10.6,18.1-16.6,30.1-15
					c3.7,0.5,7.1,1.7,10.3,3.5c14.3,8,19.5,26.2,11.5,40.5C392.1,948,380,954,367.9,952.3L367.9,952.3z" class="st5"></path>
			</g>
			<g>
				<path d="M375.3,900.9c2.7,0.4,5.2,1.2,7.7,2.6c10.6,5.9,14.5,19.4,8.5,30.2c-4.6,8.3-13.7,12.4-22.5,11.1
					c-2.7-0.4-5.2-1.2-7.7-2.6c-10.6-5.9-14.5-19.4-8.5-30.2C357.4,903.8,366.5,899.7,375.3,900.9 M377.5,885.8
					c-15.1-2.2-30.4,5.4-37.9,18.7c-10.1,18-3.6,40.8,14.4,50.9c4.1,2.2,8.4,3.7,13,4.4c15.1,2.2,30.4-5.4,37.9-18.7
					c4.9-8.7,6.1-18.8,3.3-28.4c-2.7-9.6-9-17.6-17.7-22.5C386.3,888,381.9,886.5,377.5,885.8L377.5,885.8z" class="st1"></path>
			</g>
		</g>
		<g>
			<g>
				<path d="M405.8,876c-3.7-0.5-7.1-1.7-10.3-3.5c-7-3.9-12-10.3-14.1-17.9c-2.1-7.6-1.2-15.7,2.7-22.6
					c5.9-10.6,18.1-16.6,30.1-15c3.7,0.5,7.1,1.7,10.3,3.5c14.3,8,19.5,26.2,11.5,40.5C430,871.8,417.9,877.8,405.8,876L405.8,876z" class="st5"></path>
			</g>
			<g>
				<path d="M413.1,824.7c2.7,0.4,5.2,1.2,7.7,2.6c10.6,5.9,14.5,19.4,8.5,30.2c-4.6,8.3-13.7,12.4-22.5,11.1
					c-2.7-0.4-5.2-1.2-7.7-2.6c-10.6-5.9-14.5-19.4-8.5-30.2C395.2,827.6,404.3,823.4,413.1,824.7 M415.3,809.6
					c-15.1-2.2-30.4,5.4-37.9,18.7c-4.9,8.7-6.1,18.8-3.3,28.4c2.7,9.6,9,17.6,17.7,22.5c4.1,2.2,8.4,3.7,13,4.4
					c15.1,2.2,30.4-5.4,37.9-18.7c4.9-8.7,6.1-18.8,3.3-28.4c-2.7-9.6-9-17.6-17.7-22.5C424.2,811.8,419.8,810.3,415.3,809.6
					L415.3,809.6z" class="st1"></path>
			</g>
		</g>
		<g>
			<g>
				<path d="M508.7,926.4c-3.7-0.5-7.1-1.7-10.3-3.5c-7-3.9-12-10.3-14.1-17.9s-1.2-15.7,2.7-22.6
					c5.9-10.6,18.1-16.6,30.1-15c3.7,0.5,7.1,1.7,10.3,3.5c7,3.9,12,10.3,14.1,17.9c2.1,7.6,1.2,15.7-2.7,22.6
					C532.9,922.2,520.8,928.2,508.7,926.4L508.7,926.4z" class="st5"></path>
			</g>
			<g>
				<path d="M516,875c2.7,0.4,5.2,1.2,7.7,2.6c10.6,5.9,14.5,19.4,8.5,30.2c-4.6,8.3-13.7,12.4-22.5,11.1
					c-2.7-0.4-5.2-1.2-7.7-2.6c-10.6-5.9-14.5-19.4-8.5-30.2C498.1,877.9,507.2,873.8,516,875 M518.1,859.9
					c-15.1-2.2-30.4,5.4-37.9,18.7c-10.1,18-3.6,40.8,14.4,50.9c4.1,2.2,8.4,3.7,13,4.4c15.1,2.2,30.4-5.4,37.9-18.7
					c4.9-8.7,6.1-18.8,3.3-28.4c-2.7-9.6-9-17.6-17.7-22.5C527.1,862,522.7,860.6,518.1,859.9L518.1,859.9z" class="st1"></path>
			</g>
		</g>
		<g>
			<g>
				<path d="M472.1,1110.3c-2.4-0.4-4.9-1-7.3-2c-15.1-6.3-22.4-23.8-16-38.9c5.2-12.6,18.2-19.9,31.6-18.1
					c2.4,0.4,4.9,1,7.3,2c15.1,6.3,22.4,23.8,16,38.9C498.5,1104.8,485.5,1112.2,472.1,1110.3L472.1,1110.3z" class="st5"></path>
			</g>
			<g>
				<path d="M479.3,1059c1.9,0.2,3.6,0.7,5.4,1.5c11.3,4.7,16.6,17.6,11.9,29c-3.9,9.5-13.8,14.8-23.5,13.4
					c-1.9-0.2-3.6-0.7-5.4-1.5c-11.3-4.7-16.6-17.6-11.9-29C459.8,1062.9,469.7,1057.6,479.3,1059 M481.5,1043.9
					c-16.8-2.4-33.2,6.9-39.7,22.7c-7.9,19,1.1,40.9,20.1,48.8c3,1.2,6,2,9.1,2.5c16.8,2.4,33.2-6.9,39.7-22.7
					c7.9-19-1.1-40.9-20.2-48.9C487.7,1045.1,484.7,1044.3,481.5,1043.9L481.5,1043.9z" class="st1"></path>
			</g>
		</g>
		<g>
			<g>
				<path d="M320.6,1054c-2.4-0.4-4.9-1-7.3-2c-7.3-3-13-8.8-16.1-16.1c-3-7.3-3-15.4,0.1-22.8
					c5.2-12.6,18.2-19.9,31.6-18.1c2.4,0.4,4.9,1,7.3,2c7.4,3.1,13,8.8,16.1,16.1c3,7.3,3,15.4-0.1,22.8
					C347.1,1048.4,334.1,1055.8,320.6,1054L320.6,1054z" class="st4"></path>
			</g>
			<g>
				<path d="M327.9,1002.5c1.9,0.2,3.6,0.7,5.4,1.5c11.3,4.7,16.6,17.6,11.9,29c-3.9,9.5-13.8,14.8-23.5,13.4
					c-1.9-0.2-3.6-0.7-5.4-1.5c-11.3-4.7-16.6-17.6-11.9-29C308.3,1006.4,318.1,1001.1,327.9,1002.5 M330.1,987.4
					c-16.8-2.4-33.2,6.9-39.7,22.7c-3.8,9.2-3.8,19.4-0.1,28.6c3.8,9.3,10.9,16.4,20.2,20.3c3,1.2,6,2,9.1,2.5
					c16.8,2.4,33.2-6.9,39.7-22.7c3.8-9.2,3.8-19.4,0.1-28.6c-3.8-9.3-10.9-16.4-20.2-20.3C336.2,988.8,333.2,987.8,330.1,987.4
					L330.1,987.4z" class="st1"></path>
			</g>
		</g>
	</g>
	<g>
		<path d="M655.4,812.1c-0.8-0.1-1.7-0.4-2.4-0.8c-3.7-2-5.2-6.5-3.2-10.2l33.6-64.9c2-3.7,6.6-5.2,10.2-3.2
			c3.7,2,5.2,6.5,3.2,10.2l-33.6,64.9C661.7,811.1,658.5,812.5,655.4,812.1z" class="st0"></path>
	</g>
	<g>
		<path d="M625.6,796.6c-1.1-0.1-2.1-0.6-3.2-1.2c-3.5-2.3-4.4-7-2.1-10.5c3.8-5.7,6.7-11.8,8.8-18.3
			c1.2-4,5.6-6.2,9.5-4.9c4,1.2,6.2,5.6,4.9,9.5c-2.5,7.8-6.1,15.2-10.6,22.1C631.3,795.8,628.5,797,625.6,796.6z" class="st0"></path>
	</g>
	<g>
		<g>
			<g>
				<path d="M535.8,800.7l267-642c0.8-2-0.1-4.5-2.2-5.4l-56.4-23.4c-2-0.8-4.5,0.1-5.4,2.2l-267,642
					c-0.8,2,0.1,4.5,2.2,5.4l56.4,23.4C532.5,803.8,534.9,802.8,535.8,800.7z" class="st6"></path>
				<path d="M522.6,807.1c-1.9-0.3-3.8-0.8-5.6-1.6l-35.2-14.6c-5.7-2.4-10.2-6.8-12.5-12.6c-2.4-5.8-2.4-12,0-17.8
					l258.2-620.7c4.9-11.8,18.5-17.4,30.3-12.5l35.2,14.6c11.8,4.9,17.4,18.5,12.5,30.3L547.3,793c-2.4,5.7-6.8,10.2-12.6,12.5
					C530.8,807.2,526.6,807.7,522.6,807.1z M750,140.9c-3.5-0.5-7.1,1.4-8.5,4.8L483.3,766.4c-1.7,4.1,0.3,8.8,4.3,10.5l35.2,14.6
					c1.9,0.8,4.1,0.8,6.1,0c2-0.8,3.5-2.4,4.3-4.3l0,0l258.2-620.7c0.8-1.9,0.8-4.1,0-6.1c-0.8-2-2.4-3.5-4.3-4.3l-35.2-14.6
					C751.3,141.1,750.6,140.9,750,140.9z" class="st1"></path>
			</g>
			<g>
				<path d="M737.6,134.8c-3.3,7.9,8.3,20.4,25.9,27.6c17.6,7.3,34.6,6.9,37.9-1.1c3.3-7.9-8.3-20.4-25.9-27.6
					C757.9,126.3,740.9,126.8,737.6,134.8z" class="st6"></path>
				<path d="M779.1,174.6c-5.9-0.8-12.2-2.6-18.5-5.2c-9.5-3.9-17.8-9.5-23.5-15.5c-9.5-10.1-8.2-18.3-6.6-22.2l0,0
					c1.6-3.9,6.4-10.5,20.3-10.9c8.2-0.3,18,1.8,27.5,5.8s17.8,9.5,23.5,15.5c9.5,10.1,8.2,18.3,6.6,22.2
					c-1.6,3.9-6.4,10.5-20.3,10.9C785.2,175.3,782.2,175.1,779.1,174.6z M744.6,137.7c-0.2,2.6,6.8,11.5,21.8,17.7
					c15.1,6.3,26.4,4.9,28,3c0.3-2.3-6.8-11.4-21.8-17.6C757.6,134.4,746.4,135.7,744.6,137.7z M744.5,137.8L744.5,137.8
					L744.5,137.8L744.5,137.8z M737.6,134.8L737.6,134.8L737.6,134.8z" class="st1"></path>
			</g>
		</g>
		<g>
			<path d="M631.1,576.7c0,0-31.3-6.7-67.8-28.3" class="st6"></path>
			<path d="M630,584.3c-0.2-0.1-0.3,0-0.5-0.1c-1.3-0.3-33-7.2-70.1-29.1c-3.6-2.2-4.9-6.8-2.7-10.4s6.8-4.9,10.4-2.7
				c34.9,20.5,65.3,27.3,65.6,27.3c4.1,0.8,6.7,5,5.9,9C637.7,582.3,633.9,584.8,630,584.3z" class="st1"></path>
		</g>
	</g>
	<g>
		<path d="M356.1,377.9l539.4,224.3c1.2,0.5,2.5,0,3-1.2l24.8-59.8c0.5-1.2,0-2.5-1.2-3L382.7,313.9
			c-1.2-0.5-2.5,0-3,1.2l-24.8,59.8C354.4,376,355,377.4,356.1,377.9z" class="st7"></path>
		<path d="M890.7,607.9c-1.3-0.2-2.7-0.6-4-1.1L359.2,387.4c-8.3-3.5-12.3-13-8.8-21.4l19.9-47.8
			c3.5-8.3,13-12.3,21.4-8.8l527.5,219.4c4.1,1.7,7.2,4.8,8.8,8.8c1.7,4.1,1.7,8.5,0,12.6L908.1,598
			C905.1,605,897.8,608.9,890.7,607.9z M385.6,323.3c-0.2,0-0.4,0-0.6,0.1c-0.3,0.1-0.4,0.3-0.6,0.6l-19.9,47.8
			c-0.2,0.6,0,1.2,0.6,1.4l0,0l527.5,219.4c0.4,0.2,0.6,0,0.9,0c0.3-0.1,0.4-0.3,0.6-0.6l19.9-47.8c0.2-0.6,0-1.2-0.6-1.4
			L385.9,323.5C385.7,323.4,385.6,323.3,385.6,323.3z" class="st1"></path>
	</g>
	<g>
		<g>
			<path d="M397.1,700c7.3,3.7,15.6,3.9,22.8,1.4c2.3,7.3,7.4,13.7,14.8,17.4c14.3,7.1,31.6,1.3,38.6-12.8
				c2-3.9,0.3-8.6-3.6-10.6s-8.6-0.3-10.6,3.6c-3.2,6.4-10.9,8.9-17.4,5.7c-6.5-3.2-9.2-11-6-17.3c2-3.9,0.3-8.6-3.6-10.6
				s-8.6-0.3-10.6,3.6c-3.2,6.4-10.9,8.9-17.4,5.7c-6.5-3.2-9.2-11-6-17.3c2-3.9,0.3-8.6-3.6-10.6c-3.9-2-8.6-0.3-10.6,3.6
				C376.9,675.6,382.8,692.9,397.1,700z" class="st5"></path>
		</g>
	</g>
	<g>
		<g>
			<path d="M524.3,703.3c-5-0.7-9.9-2-14.5-4c-14.7-6.1-26.1-17.5-32.2-32.3c-6-14.7-6-30.9,0.1-45.6
				c10.4-25.1,36.5-39.9,63.3-36.1c5,0.7,9.9,2,14.5,4c30.3,12.6,44.7,47.5,32.1,77.9C577.2,692.3,551.2,707,524.3,703.3
				L524.3,703.3z" class="st0"></path>
		</g>
		<g>
			<path d="M539.9,592.9c4.3,0.6,8.5,1.8,12.6,3.5c26.5,11,39,41.4,28,67.9c-9.3,22.4-32.4,34.7-55.2,31.5
				c-4.3-0.6-8.5-1.8-12.6-3.5c-26.5-11-39-41.4-28-67.9C494,602.1,517,589.7,539.9,592.9 M542.1,577.8
				c-30.3-4.3-59.6,12.4-71.5,40.7c-6.9,16.5-6.9,34.8-0.1,51.4c6.9,16.6,19.7,29.5,36.3,36.4c5.3,2.2,10.8,3.7,16.3,4.5
				c30.3,4.3,59.6-12.4,71.5-40.7c14.2-34.2-2-73.6-36.2-87.8C553.2,580.1,547.7,578.6,542.1,577.8L542.1,577.8z" class="st1"></path>
		</g>
	</g>
	<g>
		<g>
			<path d="M399.2,638c-5-0.7-9.9-2-14.5-4c-14.7-6.1-26.1-17.5-32.2-32.3c-6-14.7-6-30.9,0.1-45.6
				c10.4-25.1,36.5-39.9,63.3-36.1c5,0.7,9.9,2,14.5,4c30.3,12.6,44.7,47.5,32.1,77.9C452.1,626.9,426.1,641.8,399.2,638L399.2,638z" class="st0"></path>
		</g>
		<g>
			<path d="M414.8,527.6c4.3,0.6,8.5,1.8,12.6,3.5c26.5,11,39,41.4,28,67.9c-9.3,22.4-32.4,34.7-55.2,31.5
				c-4.3-0.6-8.5-1.8-12.6-3.5c-26.5-11-39-41.4-28-67.9C368.9,536.8,392,524.4,414.8,527.6 M417,512.5
				c-30.3-4.3-59.6,12.4-71.5,40.7c-14.2,34.2,2,73.6,36.2,87.8c5.3,2.2,10.8,3.7,16.3,4.5c30.3,4.3,59.6-12.4,71.5-40.7
				c6.9-16.5,6.9-34.8,0.1-51.4c-6.9-16.6-19.7-29.5-36.3-36.4C428.1,514.9,422.6,513.3,417,512.5L417,512.5z" class="st1"></path>
		</g>
	</g>
	<g>
		<g>
			<g>
				<path d="M533.5,679.8c2.3,1.2,5.3,1.1,7.7-0.4c3.8-2.3,4.8-7.2,2.6-10.9l-14-22.4l26.5,0.9c4.4,0.2,8.1-3.3,8.2-7.7
					c0.2-4.4-3.3-8.1-7.7-8.2l-41.3-1.4c-2.9-0.1-5.7,1.4-7.2,4c-1.5,2.5-1.4,5.7,0.1,8.2l21.7,35.1
					C531.1,678.1,532.2,679.1,533.5,679.8z" class="st1"></path>
			</g>
		</g>
		<g>
			<g>
				<path d="M384.4,601c1.3,0.6,2.8,0.9,4.2,0.8l41-3.9c2.9-0.3,5.5-2.2,6.6-4.9s0.7-5.8-1.2-8.1l-26.1-32.1
					c-2.7-3.4-7.8-3.9-11.1-1.1c-3.4,2.8-3.9,7.8-1.1,11.1l16.8,20.6l-26.3,2.5c-4.4,0.4-7.5,4.2-7.1,8.6
					C380.2,597.4,381.9,599.8,384.4,601z" class="st1"></path>
			</g>
		</g>
	</g>
</g>
<g>
	<g>
		<g>
			<path d="M179.1,485.8c-72.7,0-131.9-59.2-131.9-131.9S106.4,222,179.1,222S311,281.1,311,353.9
				S251.9,485.8,179.1,485.8z" class="st0"></path>
		</g>
		<g>
			<path d="M179.1,230.1c68.3,0,123.7,55.4,123.7,123.7c0,68.3-55.4,123.7-123.7,123.7c-68.3,0-123.7-55.4-123.7-123.7
				C55.4,285.5,110.8,230.1,179.1,230.1 M179.1,213.8C101.9,213.8,39,276.6,39,353.9C39,431.1,101.9,494,179.1,494
				s140.1-62.9,140.1-140.1C319.2,276.6,256.4,213.8,179.1,213.8L179.1,213.8z" class="st1"></path>
		</g>
	</g>
	<g>
		<path d="M252.6,254.5c10.2,18,16,38.7,16,60.8c0,68.3-55.4,123.7-123.7,123.7c-27.6,0-52.9-9.1-73.5-24.4
			c21.2,37.6,61.5,63,107.7,63c68.3,0,123.7-55.4,123.7-123.7C302.9,313.1,283,277,252.6,254.5z" class="st2"></path>
	</g>
	<g>
		<path d="M205.4,260c0,0-69.3-14-98.3,47.4" class="st0"></path>
		<path d="M107.1,315.6c-1.2,0-2.4-0.2-3.5-0.8c-4.1-1.9-5.8-6.8-3.9-10.9c31.3-66.5,106.6-52.1,107.3-51.9
			c4.4,0.9,7.3,5.2,6.4,9.7c-0.9,4.4-5.2,7.3-9.6,6.4c-2.7-0.5-63.5-11.8-89.3,42.8C113.2,313.8,110.2,315.6,107.1,315.6z" class="st1"></path>
	</g>
	<g>
		<path d="M94,356.4c0,0,1.2-5.4-0.5,4.1" class="st0"></path>
		<path d="M93.5,368.7c-0.5,0-1,0-1.5-0.1c-4.4-0.8-7.4-5.1-6.6-9.5c0.2-0.9,0.3-1.6,0.4-2.3c0-0.7,0-1.5,0.2-2.2
			c2-8.9,8.7-8,10-7.7c8,1.6,6.6,8.8,5.5,15.1C100.8,366,97.4,368.7,93.5,368.7z" class="st1"></path>
	</g>
</g>
<g>
	<g>
		<g>
			<circle r="54.5" cy="86.9" cx="631.1" class="st0"></circle>
		</g>
		<g>
			<path d="M631.1,40.6c25.6,0,46.3,20.7,46.3,46.3c0,25.6-20.7,46.3-46.3,46.3c-25.6,0-46.3-20.7-46.3-46.3
				C584.8,61.3,605.5,40.6,631.1,40.6 M631.1,24.2c-34.6,0-62.7,28.1-62.7,62.7c0,34.6,28.1,62.7,62.7,62.7
				c34.6,0,62.7-28.1,62.7-62.7C693.8,52.3,665.7,24.2,631.1,24.2L631.1,24.2z" class="st1"></path>
		</g>
	</g>
	<g>
		<path d="M658.6,49.7c3.8,6.7,6,14.5,6,22.8c0,25.6-20.7,46.3-46.3,46.3c-10.3,0-19.8-3.4-27.5-9.1
			c8,14.1,23,23.6,40.3,23.6c25.6,0,46.3-20.7,46.3-46.3C677.4,71.6,670,58.1,658.6,49.7z" class="st2"></path>
	</g>
	<g>
		<path d="M641,51.8c0,0-26-5.3-36.8,17.7" class="st0"></path>
		<path d="M604.2,77.7c-1.2,0-2.4-0.2-3.5-0.8c-4.1-1.9-5.8-6.8-3.9-10.9c10.7-22.8,34.7-24.5,45.8-22.3
			c4.4,0.9,7.3,5.2,6.4,9.7c-0.9,4.4-5.2,7.3-9.6,6.4c-0.9-0.2-19.9-3.5-27.8,13.2C610.2,75.9,607.2,77.7,604.2,77.7z" class="st1"></path>
	</g>
	<g>
		<path d="M599.3,87.9c0,0,0.5-2-0.2,1.6" class="st0"></path>
		<path d="M599.1,97.6c-0.5,0-1,0-1.5-0.1c-4.4-0.8-7.4-5.1-6.6-9.5c0-0.1,0.1-0.3,0.1-0.4c0-0.5,0.1-1,0.2-1.5
			c1.4-6.2,6.6-7.4,9.8-6.8c3,0.6,7.7,2.9,6.1,11.6C606.4,94.8,602.9,97.6,599.1,97.6z" class="st1"></path>
	</g>
</g>
<g>
	<g>
		<g>
			<circle r="104.6" cy="158.6" cx="1015.1" class="st0"></circle>
		</g>
		<g>
			<path d="M1015.1,62.1c53.3,0,96.5,43.2,96.5,96.5c0,53.3-43.2,96.5-96.5,96.5c-53.3,0-96.5-43.2-96.5-96.5
				C918.6,105.3,961.8,62.1,1015.1,62.1 M1015.1,45.7c-62.2,0-112.8,50.6-112.8,112.8c0,62.2,50.6,112.8,112.8,112.8
				c62.2,0,112.8-50.6,112.8-112.8C1127.9,96.3,1077.3,45.7,1015.1,45.7L1015.1,45.7z" class="st1"></path>
		</g>
	</g>
	<g>
		<path d="M1072.4,81.1c7.9,14,12.5,30.1,12.5,47.4c0,53.3-43.2,96.5-96.5,96.5c-21.5,0-41.3-7.1-57.3-19
			c16.6,29.3,47.9,49.1,84,49.1c53.3,0,96.5-43.2,96.5-96.5C1111.5,126.8,1096.1,98.7,1072.4,81.1z" class="st2"></path>
	</g>
	<g>
		<path d="M1035.6,85.4c0,0-54-10.9-76.6,36.9" class="st0"></path>
		<path d="M959,130.5c-1.2,0-2.4-0.3-3.5-0.8c-4.1-1.9-5.8-6.8-3.9-10.9c20-42.5,64.8-45.7,85.7-41.5
			c4.4,0.9,7.3,5.2,6.4,9.6c-0.9,4.4-5.2,7.3-9.6,6.4c-2.1-0.4-48.1-8.9-67.6,32.4C965,128.8,962.1,130.5,959,130.5z" class="st1"></path>
	</g>
	<g>
		<path d="M948.8,160.5c0,0,0.9-4.2-0.4,3.2" class="st0"></path>
		<path d="M948.3,171.9c-0.5,0-1,0-1.5-0.1c-4.4-0.8-7.4-5.1-6.6-9.5c0.1-0.6,0.2-1.1,0.3-1.6c0-0.7,0-1.3,0.2-2
			c2-8.8,9.1-7.6,9.9-7.4c7.9,1.6,6.5,9.3,5.7,13.9C955.7,169.2,952.2,171.9,948.3,171.9z" class="st1"></path>
	</g>
</g>
</svg>
