<?xml version="1.0" standalone="no"?><!DOCTYPE svg PUBLIC "-//W3C//DTD SVG 1.1//EN" "http://www.w3.org/Graphics/SVG/1.1/DTD/svg11.dtd"><svg height="1200" node-id="1" sillyvg="true" template-height="1200" template-width="1200" version="1.1" viewBox="0 0 1200 1200" width="1200" xmlns="http://www.w3.org/2000/svg" xmlns:xlink="http://www.w3.org/1999/xlink"><defs node-id="220"></defs><g node-id="783"><g node-id="786"><g node-id="828"><path d="M 368.20 939.60 C 338.60 939.60 309.30 934.70 281.00 925.00 C 262.90 918.80 245.50 910.70 229.40 901.00 C 192.80 879.00 161.60 848.10 139.20 811.50 C 137.40 808.50 135.60 805.40 133.90 802.40 L 132.50 799.90 C 131.10 797.30 129.90 795.00 128.70 792.70 L 127.20 789.80 C 125.70 786.80 124.20 783.70 122.90 780.60 C 122.60 780.00 121.60 777.60 121.60 777.60 C 120.70 775.40 119.80 773.30 118.90 771.10 C 118.30 769.70 117.80 768.20 117.20 766.80 C 116.50 765.00 115.80 763.20 115.20 761.30 L 114.70 760.00 C 114.30 758.90 113.90 757.80 113.50 756.70 C 112.60 753.90 111.70 751.10 110.80 748.20 C 110.30 746.50 109.80 744.70 109.30 743.00 C 109.30 743.00 108.40 739.80 108.10 738.60 C 107.50 736.40 107.00 734.30 106.50 732.10 L 106.00 729.80 C 104.30 722.10 102.80 714.30 101.80 706.50 L 101.60 705.00 C 98.20 678.80 98.70 652.50 103.00 626.70 C 105.40 612.10 109.10 597.50 113.90 583.40 C 128.00 542.30 152.10 504.80 183.50 475.20 C 216.70 443.80 257.70 421.30 302.00 410.00 C 323.70 404.50 346.00 401.70 368.30 401.70 C 397.90 401.70 427.20 406.60 455.50 416.30 C 457.30 416.90 459.00 417.50 460.70 418.20 C 495.30 430.90 526.30 450.00 552.80 475.10 C 599.20 518.90 628.60 578.10 635.60 641.60 C 639.90 681.00 635.60 720.10 622.60 757.90 C 613.70 783.90 601.00 808.10 584.90 830.00 C 558.40 866.10 522.70 895.30 481.80 914.40 C 446.20 930.80 407.00 939.60 368.20 939.60 C 368.20 939.60 368.20 939.60 368.20 939.60 Z" fill="#f9fcfd" fill-rule="nonzero" group-id="1,4,46" node-id="228" stroke="none" target-height="537.89996" target-width="541.7" target-x="98.2" target-y="401.7"></path></g><path d="M 368.10 409.30 C 396.20 409.30 424.80 413.90 452.90 423.50 C 454.60 424.10 456.30 424.70 458.00 425.30 L 458.00 425.30 C 492.30 437.90 522.40 456.90 547.50 480.60 C 592.60 523.20 621.20 580.80 627.90 642.40 C 632.00 679.40 628.10 717.90 615.30 755.40 C 606.50 781.20 594.00 804.70 578.70 825.50 C 552.40 861.30 517.70 889.20 478.50 907.50 C 444.30 923.40 406.70 932.00 368.20 932.00 C 340.10 932.00 311.50 927.40 283.40 917.80 C 265.50 911.70 248.80 903.80 233.20 894.40 C 196.70 872.50 166.90 842.40 145.50 807.40 C 143.70 804.50 142.00 801.50 140.30 798.50 C 139.80 797.60 139.30 796.70 138.80 795.80 C 137.60 793.60 136.40 791.30 135.30 789.10 C 134.80 788.20 134.30 787.30 133.90 786.30 C 132.40 783.40 131.00 780.40 129.70 777.40 C 129.30 776.40 128.90 775.40 128.40 774.50 C 127.50 772.40 126.60 770.30 125.70 768.20 C 125.10 766.80 124.60 765.40 124.10 764.00 C 123.40 762.20 122.80 760.50 122.10 758.70 C 121.60 757.20 121.00 755.70 120.50 754.30 C 119.60 751.60 118.70 748.80 117.90 746.10 C 117.30 744.20 116.80 742.30 116.30 740.30 C 116.00 739.10 115.60 737.90 115.30 736.70 C 114.80 734.60 114.20 732.50 113.70 730.40 C 113.50 729.70 113.40 728.90 113.20 728.20 C 111.50 720.70 110.10 713.20 109.10 705.60 C 109.00 705.10 109.00 704.70 108.90 704.20 C 105.70 679.30 105.90 653.70 110.20 628.10 C 112.50 614.00 116.10 600.00 120.80 586.00 C 135.00 544.50 158.60 509.00 188.40 480.90 C 220.80 450.30 260.60 428.50 303.60 417.50 C 324.60 412.10 346.20 409.30 368.10 409.30 M 368.10 394.30 C 345.20 394.30 322.20 397.20 300.00 402.90 C 254.50 414.50 212.40 437.70 178.20 469.90 C 145.90 500.30 121.20 538.80 106.70 581.10 C 101.70 595.60 98.00 610.50 95.40 625.60 C 91.00 652.00 90.60 679.10 94.10 706.00 L 94.30 707.50 C 95.40 715.50 96.80 723.50 98.60 731.40 L 98.80 732.10 C 98.90 732.60 99.00 733.20 99.20 733.70 C 99.70 735.90 100.30 738.10 100.90 740.30 C 101.20 741.60 101.60 742.80 101.90 744.10 L 102.10 744.70 C 102.60 746.50 103.10 748.40 103.70 750.20 C 104.60 753.10 105.50 756.10 106.50 758.90 C 106.90 760.10 107.30 761.30 107.80 762.50 L 108.20 763.70 C 108.90 765.60 109.60 767.50 110.30 769.30 C 110.90 770.80 111.40 772.30 112.00 773.70 C 112.90 775.90 113.80 778.20 114.80 780.40 L 115.20 781.40 C 115.50 782.10 115.80 782.80 116.10 783.50 C 117.40 786.50 118.90 789.60 120.50 792.90 C 120.80 793.60 121.20 794.30 121.60 795.00 L 122.00 795.80 C 123.20 798.20 124.50 800.50 125.70 802.90 L 125.90 803.30 C 126.40 804.10 126.80 805.00 127.30 805.80 C 129.30 809.40 131.10 812.40 132.80 815.20 C 155.90 852.80 187.90 884.60 225.60 907.20 C 242.10 917.20 260.00 925.50 278.60 931.90 C 307.70 941.90 337.80 946.90 368.20 946.90 C 408.10 946.90 448.50 937.90 484.80 921.00 C 526.90 901.40 563.50 871.40 590.80 834.30 C 607.30 811.80 620.40 786.90 629.50 760.20 C 642.80 721.40 647.30 681.10 642.80 640.70 C 635.70 575.40 605.50 514.70 557.70 469.60 C 530.40 443.80 498.60 424.20 463.10 411.20 L 462.90 411.10 L 462.80 411.10 C 461.10 410.50 459.30 409.90 457.60 409.30 C 428.70 399.30 398.60 394.30 368.10 394.30 L 368.10 394.30 Z" fill="#22286e" fill-rule="nonzero" group-id="1,4,47" node-id="233" stroke="none" target-height="552.60004" target-width="556.7" target-x="90.6" target-y="394.3"></path></g><g node-id="787"><g node-id="830"><path d="M 368.20 939.60 C 338.60 939.60 309.30 934.70 281.00 925.00 C 262.90 918.80 245.50 910.70 229.40 901.00 C 227.10 899.60 225.70 897.00 225.80 894.30 C 225.90 891.60 227.40 889.10 229.80 887.90 C 254.50 874.90 273.00 861.10 281.60 849.40 C 267.70 830.30 233.90 781.20 224.70 758.90 C 205.70 755.20 168.60 746.60 151.10 742.60 L 153.10 807.40 C 153.20 810.80 151.00 813.90 147.70 814.80 C 147.00 815.00 146.30 815.10 145.50 815.10 C 142.90 815.10 140.50 813.80 139.10 811.50 C 105.10 756.20 92.20 690.60 102.90 626.80 C 103.30 624.20 105.10 622.00 107.60 621.00 C 108.50 620.70 109.40 620.50 110.30 620.50 C 112.00 620.50 113.60 621.10 115.00 622.20 C 116.20 623.20 117.40 624.10 118.50 625.00 C 132.90 585.80 150.50 557.60 172.20 539.20 C 169.30 523.00 172.40 502.50 181.50 478.20 C 181.90 477.10 182.50 476.20 183.40 475.40 C 216.60 444.00 257.60 421.50 301.90 410.20 C 302.50 410.00 303.10 410.00 303.80 410.00 C 304.10 410.00 304.40 410.00 304.60 410.00 C 343.90 414.40 359.80 419.20 367.00 423.70 C 379.50 419.70 405.00 416.80 430.90 416.80 C 440.20 416.80 449.50 417.10 458.50 417.80 C 459.20 417.80 459.80 418.00 460.50 418.20 C 495.10 430.90 526.10 450.00 552.60 475.10 C 554.00 476.40 554.90 478.30 554.90 480.20 C 555.80 498.80 555.20 525.70 548.30 550.10 C 569.60 578.00 593.50 629.20 602.40 648.80 L 624.00 635.80 C 625.20 635.10 626.50 634.70 627.90 634.70 C 629.00 634.70 630.20 635.00 631.20 635.50 C 633.50 636.60 635.10 638.90 635.30 641.40 C 639.60 680.80 635.30 719.90 622.30 757.70 C 613.40 783.70 600.70 807.90 584.60 829.80 C 583.20 831.80 580.90 832.90 578.50 832.90 C 578.00 832.90 577.40 832.80 576.90 832.70 C 574.00 832.10 571.70 829.80 571.10 826.90 L 556.50 756.50 C 545.90 760.10 526.40 765.10 500.90 765.10 C 490.30 765.10 479.50 764.20 468.90 762.40 C 460.90 779.10 435.30 830.10 412.30 851.70 C 427.30 864.70 453.90 884.90 481.90 900.70 C 484.40 902.10 485.80 904.70 485.70 907.50 C 485.60 910.30 483.90 912.80 481.40 914.00 C 446.20 930.80 407.00 939.60 368.20 939.60 Z" fill="#f9fcfd" fill-rule="nonzero" group-id="1,5,48" node-id="241" stroke="none" target-height="529.6" target-width="547.39996" target-x="92.2" target-y="410"></path></g><path d="M 303.70 417.40 C 329.80 420.40 360.30 425.20 365.60 432.20 C 372.30 428.50 398.60 424.20 430.90 424.20 C 439.60 424.20 448.70 424.50 458.00 425.20 L 458.00 425.20 C 492.30 437.80 522.40 456.80 547.50 480.50 C 548.40 499.90 547.80 527.40 540.10 551.70 C 566.40 584.10 599.10 659.70 599.10 659.70 L 628.00 642.30 C 632.10 679.30 628.20 717.80 615.40 755.30 C 606.60 781.10 594.10 804.60 578.80 825.40 L 562.40 746.40 C 562.40 746.40 538.40 757.70 501.30 757.70 C 490.30 757.70 478.10 756.70 465.00 754.10 C 465.00 754.10 428.20 834.00 401.10 851.60 C 413.40 863.20 444.20 888.10 478.60 907.40 C 444.40 923.30 406.80 931.90 368.30 931.90 C 340.20 931.90 311.60 927.30 283.50 917.70 C 265.60 911.60 248.90 903.70 233.30 894.30 C 251.20 884.90 280.40 867.40 290.70 848.80 C 275.50 828.40 235.70 770.30 230.20 752.00 C 208.20 747.90 143.20 732.70 143.20 732.70 L 145.50 807.30 C 113.30 755.00 99.70 691.40 110.30 628.00 C 114.50 631.40 118.70 634.60 122.30 636.80 C 137.60 591.60 156.60 560.80 180.60 542.10 C 175.50 523.40 181.60 499.60 188.60 480.90 C 221.00 450.20 260.70 428.40 303.70 417.40 M 303.70 402.40 C 302.40 402.40 301.20 402.60 300.00 402.90 C 254.50 414.50 212.40 437.70 178.20 469.90 C 176.50 471.50 175.30 473.40 174.40 475.50 C 165.60 499.00 162.10 519.40 164.10 536.20 C 144.50 553.90 128.20 579.50 114.70 613.70 C 113.30 613.30 111.80 613.00 110.30 613.00 C 108.50 613.00 106.70 613.30 104.90 614.00 C 99.90 615.90 96.30 620.30 95.40 625.60 C 84.50 691.10 97.70 758.50 132.60 815.40 C 135.40 819.90 140.30 822.60 145.40 822.60 C 146.80 822.60 148.30 822.40 149.70 822.00 C 156.20 820.00 160.60 813.90 160.40 807.10 L 158.70 752.10 C 176.50 756.20 202.60 762.10 219.20 765.50 C 230.10 788.80 258.20 829.80 272.00 849.10 C 263.00 859.00 246.70 870.50 226.20 881.30 C 221.40 883.80 218.30 888.70 218.10 894.20 C 217.90 899.60 220.70 904.70 225.40 907.50 C 242.00 917.50 259.80 925.80 278.50 932.20 C 307.60 942.20 337.70 947.20 368.10 947.20 C 408.00 947.20 448.40 938.20 484.70 921.30 C 489.80 918.90 493.20 913.90 493.40 908.20 C 493.60 902.60 490.70 897.30 485.70 894.50 C 461.60 880.90 438.60 864.00 423.40 851.50 C 443.80 828.90 464.00 790.10 473.40 771.00 C 482.60 772.30 491.80 772.90 501.00 772.90 C 521.90 772.90 539.10 769.60 550.90 766.30 L 563.90 828.60 C 565.10 834.40 569.60 839.00 575.40 840.20 C 576.50 840.40 577.50 840.50 578.60 840.50 C 583.30 840.50 587.80 838.30 590.70 834.40 C 607.30 811.90 620.30 787.00 629.50 760.30 C 642.80 721.50 647.30 681.20 642.80 640.80 C 642.20 635.70 639.10 631.20 634.50 629.00 C 632.40 628.00 630.10 627.40 627.80 627.40 C 625.10 627.40 622.40 628.10 620.10 629.50 L 605.70 638.10 C 595.30 615.60 575.20 574.30 556.50 548.60 C 562.80 524.20 563.20 498.20 562.40 479.90 C 562.20 476.00 560.50 472.30 557.70 469.70 C 530.40 443.90 498.60 424.20 463.10 411.20 C 463.00 411.10 462.80 411.10 462.70 411.00 C 461.50 410.60 460.30 410.40 459.10 410.30 C 449.90 409.60 440.40 409.20 430.90 409.20 C 409.70 409.20 383.60 411.20 367.80 415.50 C 358.70 411.00 341.30 406.50 305.30 402.40 C 304.80 402.40 304.30 402.40 303.70 402.40 L 303.70 402.40 Z" fill="#22286e" fill-rule="nonzero" group-id="1,5,49" node-id="246" stroke="none" target-height="544.80005" target-width="562.8" target-x="84.5" target-y="402.4"></path></g><g node-id="788"><g node-id="832"><path d="M 147.00 733.80 C 131.30 717.40 117.90 699.00 107.00 679.30 C 108.50 725.00 122.00 769.20 145.60 807.50 L 143.30 732.90 C 143.20 732.90 144.60 733.20 147.00 733.80 Z" fill="#73c0d7" fill-opacity="0.44" fill-rule="nonzero" group-id="1,6,50" node-id="254" stroke="none" target-height="128.20001" target-width="40" target-x="107" target-y="679.3"></path></g><g node-id="833"><path d="M 446.80 789.50 C 389.80 816.30 323.10 822.60 258.60 802.70 C 270.60 821.10 283.40 839.30 290.60 849.00 C 280.30 867.60 251.00 885.10 233.20 894.50 C 248.70 903.90 265.50 911.70 283.40 917.90 C 350.00 940.70 419.40 935.10 478.50 907.60 C 444.10 888.30 413.30 863.30 401.00 851.80 C 415.90 841.90 433.80 813.30 446.80 789.50 Z" fill="#73c0d7" fill-opacity="0.44" fill-rule="nonzero" group-id="1,6,51" node-id="259" stroke="none" target-height="151.20001" target-width="245.3" target-x="233.2" target-y="789.5"></path></g><path d="M 627.90 642.40 L 599.00 659.80 C 599.00 659.80 593.60 647.20 585.40 630.20 C 584.60 632.80 583.80 635.30 582.90 637.90 C 566.10 687.00 536.00 727.90 498.10 757.90 C 536.90 758.50 562.20 746.60 562.20 746.60 L 578.60 825.60 C 593.90 804.80 606.40 781.30 615.20 755.50 C 628.20 717.90 632.00 679.40 627.90 642.40 Z" fill="#73c0d7" fill-opacity="0.44" fill-rule="nonzero" group-id="1,6,52" node-id="264" stroke="none" target-height="195.39996" target-width="133.9" target-x="498.1" target-y="630.2"></path></g><g node-id="789"><path d="M 180.50 542.00 C 156.50 560.70 137.60 591.50 122.20 636.70 C 118.60 634.50 114.40 631.30 110.20 627.90 C 112.50 613.80 116.10 599.80 120.80 585.80 C 135.00 544.30 158.60 508.80 188.40 480.70 C 181.50 499.50 175.50 523.40 180.50 542.00 Z" fill="#22286e" fill-rule="nonzero" group-id="1,7" node-id="270" stroke="none" target-height="156" target-width="78.2" target-x="110.2" target-y="480.7"></path></g><g node-id="790"><path d="M 290.70 849.00 C 280.40 867.60 251.10 885.10 233.30 894.50 C 196.80 872.60 167.00 842.50 145.60 807.50 L 143.30 732.90 C 143.30 732.90 208.30 748.10 230.30 752.20 C 235.70 770.50 275.40 828.60 290.70 849.00 Z" fill="#22286e" fill-rule="nonzero" group-id="1,8" node-id="275" stroke="none" target-height="161.59998" target-width="147.40001" target-x="143.3" target-y="732.9"></path></g><g node-id="791"><path d="M 578.70 825.50 C 552.40 861.30 517.70 889.20 478.50 907.50 C 444.10 888.20 413.30 863.20 401.00 851.70 C 428.10 834.10 464.90 754.20 464.90 754.20 C 521.90 765.50 562.30 746.50 562.30 746.50 L 578.70 825.50 Z" fill="#22286e" fill-rule="nonzero" group-id="1,9" node-id="280" stroke="none" target-height="161" target-width="177.70001" target-x="401" target-y="746.5"></path></g><g node-id="792"><path d="M 356.80 488.90 L 255.00 553.50 L 284.60 662.00 L 404.40 660.90 L 450.40 557.30 Z" fill="#22286e" fill-rule="nonzero" group-id="1,10" node-id="285" stroke="none" target-height="173.1" target-width="195.4" target-x="255" target-y="488.9"></path></g><g node-id="793"><path d="M 458.00 425.30 C 414.20 422.00 374.20 427.50 365.60 432.20 C 360.30 425.20 329.80 420.30 303.70 417.40 C 351.30 405.20 402.90 406.30 452.90 423.50 C 454.60 424.10 456.30 424.70 458.00 425.30 Z" fill="#22286e" fill-rule="nonzero" group-id="1,11" node-id="290" stroke="none" target-height="27" target-width="154.29999" target-x="303.7" target-y="405.2"></path></g><g node-id="794"><path d="M 627.90 642.40 L 599.00 659.80 C 599.00 659.80 566.40 584.20 540.00 551.80 C 547.70 527.50 548.30 500.00 547.40 480.60 C 592.60 523.20 621.20 580.80 627.90 642.40 Z" fill="#22286e" fill-rule="nonzero" group-id="1,12" node-id="295" stroke="none" target-height="179.19998" target-width="87.900024" target-x="540" target-y="480.6"></path></g><g node-id="795"><g node-id="835"><path d="M 358.10 494.80 C 357.80 494.80 357.50 494.80 357.20 494.70 L 354.40 494.30 C 351.30 493.80 349.20 490.90 349.70 487.90 L 358.60 431.20 C 358.80 429.70 359.60 428.40 360.80 427.50 C 362.00 426.60 363.50 426.20 365.00 426.50 L 367.80 426.90 C 370.90 427.40 373.00 430.30 372.50 433.30 L 363.60 490.00 C 363.40 491.50 362.60 492.80 361.40 493.70 C 360.50 494.40 359.30 494.80 358.10 494.80 Z" fill="#22286e" fill-rule="nonzero" group-id="1,13,53" node-id="302" stroke="none" target-height="68.599976" target-width="23.799988" target-x="349.2" target-y="426.2"></path></g></g><g node-id="796"><g node-id="836"><path d="M 450.50 564.30 C 447.50 564.30 445.10 562.00 444.90 559.00 L 444.70 556.20 C 444.60 554.70 445.10 553.20 446.10 552.10 C 447.10 551.00 448.50 550.30 450.00 550.20 L 539.70 544.70 C 543.00 544.50 545.50 546.90 545.70 550.00 L 545.90 552.80 C 546.00 554.30 545.50 555.80 544.50 556.90 C 543.50 558.00 542.10 558.70 540.60 558.80 L 450.90 564.30 C 450.70 564.30 450.60 564.30 450.50 564.30 Z" fill="#22286e" fill-rule="nonzero" group-id="1,14,54" node-id="310" stroke="none" target-height="19.799988" target-width="101.399994" target-x="444.6" target-y="544.5"></path></g></g><g node-id="797"><g node-id="837"><path d="M 463.50 760.40 C 461.40 760.40 459.40 759.20 458.40 757.20 C 458.10 756.60 428.80 697.10 399.20 665.70 C 397.10 663.40 397.20 659.90 399.40 657.70 L 401.40 655.80 C 402.50 654.80 403.90 654.20 405.40 654.30 C 406.90 654.30 408.30 655.00 409.30 656.10 C 440.20 688.90 469.70 748.60 470.90 751.10 C 471.60 752.40 471.70 754.00 471.20 755.40 C 470.70 756.80 469.70 758.00 468.30 758.60 L 465.80 759.80 C 465.20 760.30 464.40 760.40 463.50 760.40 Z" fill="#22286e" fill-rule="nonzero" group-id="1,15,55" node-id="318" stroke="none" target-height="106.20001" target-width="74.600006" target-x="397.1" target-y="654.2"></path></g></g><g node-id="798"><g node-id="838"><path d="M 231.40 758.60 C 230.40 758.60 229.40 758.30 228.50 757.80 L 226.10 756.40 C 223.40 754.80 222.60 751.30 224.20 748.70 L 278.50 658.50 C 279.30 657.20 280.50 656.30 282.00 655.90 C 283.50 655.50 285.00 655.80 286.30 656.50 L 288.70 657.90 C 291.40 659.50 292.20 663.00 290.60 665.60 L 236.30 755.80 C 235.50 757.10 234.30 758.00 232.80 758.40 C 232.30 758.50 231.90 758.60 231.40 758.60 Z" fill="#22286e" fill-rule="nonzero" group-id="1,16,56" node-id="326" stroke="none" target-height="103.099976" target-width="69.600006" target-x="222.6" target-y="655.5"></path></g></g><g node-id="799"><g node-id="839"><path d="M 254.50 560.40 C 253.70 560.40 253.00 560.20 252.20 559.90 C 207.50 540.30 183.20 548.50 183.00 548.60 C 180.10 549.60 176.90 548.20 175.80 545.30 L 174.80 542.70 C 174.30 541.30 174.30 539.70 174.90 538.40 C 175.50 537.00 176.60 536.00 178.00 535.40 C 180.90 534.30 207.80 525.10 257.80 547.00 C 260.70 548.30 262.00 551.60 260.70 554.40 L 259.60 557.00 C 259.00 558.40 257.90 559.40 256.50 560.00 C 255.90 560.30 255.20 560.40 254.50 560.40 Z" fill="#22286e" fill-rule="nonzero" group-id="1,17,57" node-id="334" stroke="none" target-height="35.30005" target-width="87.7" target-x="174.3" target-y="525.1"></path></g></g><g node-id="800"><g node-id="840"><path d="M 141.90 739.10 C 141.20 739.10 140.40 739.00 139.70 738.70 C 138.30 738.10 137.20 737.00 136.60 735.60 C 112.80 678.00 115.10 638.00 115.20 636.30 C 115.30 634.80 116.00 633.40 117.10 632.40 C 118.20 631.40 119.70 630.90 121.20 631.00 L 124.00 631.20 C 125.50 631.30 126.90 632.00 127.90 633.10 C 128.90 634.20 129.40 635.70 129.30 637.20 C 129.30 637.50 127.10 675.50 149.70 730.10 C 150.90 733.00 149.50 736.30 146.60 737.50 L 144.00 738.60 C 143.40 738.90 142.60 739.10 141.90 739.10 Z" fill="#22286e" fill-rule="nonzero" group-id="1,18,58" node-id="342" stroke="none" target-height="108.19995" target-width="38.09999" target-x="112.8" target-y="630.9"></path></g></g><g node-id="801"><g node-id="841"><path d="M 360.30 861.60 C 323.30 861.60 289.90 856.00 289.50 855.90 C 286.40 855.40 284.40 852.40 284.90 849.40 L 285.40 846.60 C 285.90 843.50 288.80 841.50 291.90 842.00 C 292.50 842.10 353.60 852.30 399.80 844.70 C 401.30 844.50 402.80 844.80 404.00 845.70 C 405.20 846.60 406.00 847.90 406.30 849.40 L 406.80 852.20 C 407.30 855.30 405.20 858.20 402.10 858.70 C 388.70 860.80 374.30 861.60 360.30 861.60 Z M 290.40 850.40 L 290.40 850.40 L 290.40 850.40 Z" fill="#22286e" fill-rule="nonzero" group-id="1,19,59" node-id="350" stroke="none" target-height="20.099976" target-width="122.899994" target-x="284.4" target-y="841.5"></path></g></g><path d="M 563.40 752.90 C 562.20 752.90 561.10 752.50 560.10 751.90 L 557.80 750.30 C 555.30 748.50 554.70 745.00 556.50 742.40 C 577.80 712.20 591.60 660.20 592.20 658.00 C 593.00 655.00 596.10 653.20 599.10 653.90 L 601.80 654.60 C 604.80 655.40 606.60 658.40 605.90 661.50 C 605.80 662.10 591.40 717.50 568.10 750.50 C 567.20 751.70 565.90 752.60 564.40 752.80 C 564.00 752.90 563.70 752.90 563.40 752.90 Z" fill="#22286e" fill-rule="nonzero" group-id="1,20,60" node-id="358" stroke="none" target-height="99.70001" target-width="51.899963" target-x="554.7" target-y="653.2"></path></g><g node-id="784"><g node-id="803"><g node-id="843"><path d="M 408.30 201.30 C 399.10 178.60 401.00 153.60 413.60 132.70 C 434.20 98.50 478.20 85.70 513.80 103.60 C 515.30 104.30 517.10 105.30 519.10 106.50 L 585.30 146.30 C 586.60 147.10 587.50 148.20 588.00 149.50 C 588.80 151.40 588.70 153.60 587.50 155.40 L 515.20 275.70 C 513.30 278.90 509.20 279.90 506.10 278.00 L 439.90 238.20 C 425.50 229.50 414.60 216.80 408.30 201.30 C 408.30 201.30 408.30 201.30 408.30 201.30 Z" fill="#fff7ee" fill-rule="nonzero" group-id="2,21,61" node-id="369" stroke="none" target-height="194.2" target-width="189.69998" target-x="399.1" target-y="85.7"></path></g><path d="M 581.90 152.00 L 509.60 272.30 L 474.20 251.00 L 443.30 232.40 C 429.80 224.30 420.00 212.30 414.50 198.80 C 406.50 179.00 407.50 155.80 419.40 136.10 C 438.40 104.50 478.40 93.20 510.90 109.50 C 512.50 110.30 514.20 111.20 515.70 112.10 L 581.90 152.00 M 594.20 147.00 C 593.20 144.40 591.30 142.20 588.70 140.60 L 522.50 100.80 C 520.40 99.50 518.40 98.50 516.60 97.60 C 478.00 78.30 430.30 92.20 408.00 129.30 C 394.30 152.10 392.20 179.20 402.20 203.90 C 409.00 220.70 420.90 234.50 436.50 243.90 L 467.40 262.50 L 502.70 283.70 C 505.70 285.50 509.40 286.10 512.80 285.20 C 516.20 284.30 519.20 282.20 521.00 279.10 L 593.30 158.80 C 595.50 155.10 595.70 150.70 594.20 147.00 L 594.20 147.00 Z" fill="#22286e" fill-rule="nonzero" group-id="2,21,62" node-id="374" stroke="none" target-height="207.8" target-width="203.5" target-x="392.2" target-y="78.3"></path></g><g node-id="804"><g node-id="845"><g node-id="891"><path d="M 561.50 157.20 C 561.00 156.10 560.90 154.80 561.10 153.60 C 561.70 150.00 565.20 147.50 568.80 148.20 L 726.40 175.40 C 730.00 176.00 732.50 179.50 731.80 183.10 C 731.20 186.70 727.70 189.20 724.10 188.50 L 566.50 161.30 C 564.20 160.80 562.30 159.20 561.50 157.20 Z" fill="#22286e" fill-rule="nonzero" group-id="2,22,63,109" node-id="384" stroke="none" target-height="41.699997" target-width="171.59998" target-x="560.9" target-y="147.5"></path></g></g><g node-id="846"><g node-id="892"><g node-id="905"><path d="M 560.70 161.80 C 560.20 160.70 560.10 159.40 560.30 158.20 L 561.90 149.00 C 562.20 147.30 563.20 145.70 564.60 144.70 C 566.00 143.70 567.80 143.30 569.60 143.60 L 699.80 166.10 L 727.30 170.80 C 729.00 171.10 730.60 172.10 731.60 173.50 C 731.90 173.90 732.10 174.40 732.30 174.80 C 732.80 175.90 732.90 177.20 732.70 178.40 L 731.10 187.70 C 730.50 191.30 727.00 193.70 723.40 193.10 L 675.90 184.90 L 664.70 183.00 L 651.50 180.70 L 630.40 177.10 L 565.80 166.00 C 564.10 165.70 562.50 164.70 561.50 163.30 C 561.10 162.70 560.90 162.30 560.70 161.80 Z" fill="#ffffff" fill-rule="nonzero" group-id="2,22,64,110,123" node-id="394" stroke="none" target-height="50.399994" target-width="172.80005" target-x="560.1" target-y="143.3"></path></g><path d="M 726.10 177.20 L 725.30 181.80 L 724.50 186.40 L 697.10 181.70 L 677.00 178.20 L 665.80 176.30 L 652.70 174.00 L 631.60 170.40 L 623.00 169.00 L 611.20 167.00 L 609.70 166.70 L 566.70 159.30 L 567.50 154.70 L 568.30 150.00 L 612.10 157.60 L 625.50 159.90 L 632.30 161.10 L 655.40 165.10 L 668.50 167.40 L 678.30 169.10 L 698.40 172.60 L 726.10 177.20 M 738.40 172.20 C 738.00 171.30 737.50 170.40 736.90 169.50 C 734.90 166.60 731.80 164.70 728.30 164.10 L 700.80 159.40 L 680.70 155.90 L 671.00 154.20 L 657.80 151.90 L 634.70 147.90 L 627.90 146.70 L 614.50 144.40 L 570.70 136.80 C 567.20 136.20 563.60 137.00 560.70 139.10 C 557.80 141.10 555.90 144.30 555.30 147.80 L 554.50 152.50 L 553.70 157.10 C 553.30 159.60 553.60 162.10 554.50 164.40 C 554.90 165.30 555.40 166.20 556.00 167.10 C 558.00 170.00 561.10 171.90 564.60 172.50 L 607.60 179.90 L 609.00 180.20 L 620.80 182.20 L 629.20 183.70 L 650.40 187.30 L 663.50 189.60 L 674.80 191.50 L 694.90 195.00 L 722.30 199.70 C 729.50 200.90 736.40 196.10 737.70 188.90 L 738.50 184.30 L 739.30 179.70 C 739.60 177.00 739.30 174.50 738.40 172.20 L 738.40 172.20 Z" fill="#22286e" fill-rule="nonzero" group-id="2,22,64,110,124" node-id="399" stroke="none" target-height="64.7" target-width="186.29999" target-x="553.3" target-y="136.2"></path></g></g></g><g node-id="805"><g node-id="847"><g node-id="893"><path d="M 553.80 176.10 L 732.50 230.30" fill="#ecdb89" fill-rule="nonzero" group-id="2,23,65,111" node-id="411" stroke="none" target-height="54.199997" target-width="178.70001" target-x="553.8" target-y="176.1"></path><path d="M 547.60 178.70 C 547.00 177.30 546.90 175.80 547.40 174.30 C 548.50 170.80 552.20 168.80 555.70 169.90 L 734.40 224.00 C 737.90 225.10 739.90 228.80 738.80 232.30 C 737.70 235.80 734.00 237.80 730.50 236.70 L 551.80 182.60 C 549.90 181.90 548.30 180.40 547.60 178.70 Z" fill="#22286e" fill-rule="nonzero" group-id="2,23,65,111" node-id="413" stroke="none" target-height="69" target-width="193" target-x="546.9" target-y="168.8"></path></g></g><g node-id="848"><g node-id="894"><g node-id="907"><path d="M 546.30 183.20 C 545.70 181.80 545.60 180.30 546.10 178.80 L 548.80 169.80 C 549.30 168.10 550.50 166.70 552.00 165.90 C 553.60 165.10 555.40 164.90 557.10 165.40 L 735.80 219.50 C 737.80 220.10 739.30 221.60 740.00 223.40 C 740.60 224.80 740.70 226.30 740.20 227.80 L 737.50 236.80 C 737.00 238.50 735.80 239.90 734.30 240.70 C 732.70 241.50 730.90 241.70 729.20 241.20 L 550.50 187.00 C 548.50 186.40 547.00 185.00 546.30 183.20 Z" fill="#ffffff" fill-rule="nonzero" group-id="2,23,66,112,125" node-id="423" stroke="none" target-height="76.8" target-width="195.10004" target-x="545.6" target-y="164.9"></path></g><path d="M 733.80 225.80 L 731.10 234.80 L 552.40 180.70 L 555.10 171.70 L 733.80 225.80 M 746.20 220.80 C 744.70 217.20 741.70 214.30 737.70 213.10 L 559.00 158.90 C 555.60 157.90 552.00 158.20 548.90 159.90 C 545.80 161.60 543.50 164.40 542.40 167.80 L 539.70 176.80 C 538.80 179.80 539.00 182.90 540.10 185.70 C 541.60 189.30 544.60 192.20 548.60 193.40 L 727.30 247.50 C 730.70 248.50 734.30 248.20 737.40 246.50 C 740.50 244.80 742.80 242.00 743.90 238.60 L 746.60 229.60 C 747.50 226.60 747.30 223.50 746.20 220.80 L 746.20 220.80 Z" fill="#22286e" fill-rule="nonzero" group-id="2,23,66,112,126" node-id="428" stroke="none" target-height="90.600006" target-width="208.70001" target-x="538.8" target-y="157.9"></path></g></g></g><g node-id="806"><g node-id="849"><g node-id="895"><path d="M 706.70 286.30 L 545.90 200.70" fill="#ecdb89" fill-rule="nonzero" group-id="2,24,67,113" node-id="440" stroke="none" target-height="85.59999" target-width="160.79999" target-x="545.9" target-y="200.7"></path><path d="M 539.80 203.20 C 539.10 201.40 539.10 199.40 540.10 197.60 C 541.80 194.40 545.90 193.10 549.10 194.90 L 709.90 280.50 C 713.10 282.20 714.40 286.30 712.60 289.50 C 710.90 292.70 706.80 294.00 703.60 292.30 L 542.80 206.70 C 541.40 205.80 540.30 204.60 539.80 203.20 Z" fill="#22286e" fill-rule="nonzero" group-id="2,24,67,113" node-id="442" stroke="none" target-height="100.899994" target-width="175.30005" target-x="539.1" target-y="193.1"></path></g></g><g node-id="850"><g node-id="896"><g node-id="909"><path d="M 537.50 207.40 C 536.80 205.60 536.80 203.60 537.80 201.80 L 542.20 193.50 C 543.00 191.90 544.40 190.80 546.10 190.30 C 547.80 189.80 549.60 190.00 551.20 190.80 L 712.00 276.40 C 713.40 277.10 714.50 278.30 715.00 279.80 C 715.10 280.00 715.10 280.20 715.20 280.40 C 715.70 282.10 715.50 283.90 714.70 285.50 L 710.30 293.80 C 708.60 297.00 704.50 298.30 701.30 296.60 L 540.50 211.00 C 539.20 210.00 538.10 208.80 537.50 207.40 Z" fill="#ffffff" fill-rule="nonzero" group-id="2,24,68,114,127" node-id="452" stroke="none" target-height="108.499985" target-width="178.90002" target-x="536.8" target-y="189.8"></path></g><path d="M 708.90 282.10 L 704.50 290.40 L 543.70 204.80 L 548.10 196.50 L 708.90 282.10 M 721.30 277.10 C 720.20 274.30 718.10 271.90 715.20 270.40 L 554.40 184.80 C 551.30 183.10 547.60 182.80 544.30 183.80 C 540.90 184.80 538.10 187.20 536.40 190.30 L 532.00 198.60 C 530.10 202.20 530.00 206.40 531.40 209.90 C 532.50 212.70 534.60 215.10 537.50 216.60 L 698.30 302.20 C 701.40 303.90 705.10 304.20 708.40 303.20 C 711.80 302.20 714.60 299.80 716.30 296.70 L 720.70 288.40 C 722.60 284.80 722.70 280.60 721.30 277.10 L 721.30 277.10 Z" fill="#22286e" fill-rule="nonzero" group-id="2,24,68,114,128" node-id="457" stroke="none" target-height="121.40001" target-width="192.70001" target-x="530" target-y="182.8"></path></g></g></g><g node-id="807"><g node-id="851"><g node-id="897"><path d="M 657.00 340.30 L 529.90 227.10" fill="#ecdb89" fill-rule="nonzero" group-id="2,25,69,115" node-id="469" stroke="none" target-height="113.19998" target-width="127.099976" target-x="529.9" target-y="227.1"></path><path d="M 523.70 229.60 C 522.80 227.30 523.10 224.60 524.90 222.70 C 527.30 220.00 531.60 219.70 534.30 222.20 L 661.40 335.40 C 664.20 337.80 664.40 342.10 661.90 344.80 C 659.50 347.50 655.20 347.80 652.50 345.30 L 525.40 232.10 C 524.70 231.40 524.10 230.60 523.70 229.60 Z" fill="#22286e" fill-rule="nonzero" group-id="2,25,69,115" node-id="471" stroke="none" target-height="128.09999" target-width="141.60004" target-x="522.8" target-y="219.7"></path></g></g><g node-id="852"><g node-id="898"><g node-id="911"><path d="M 520.60 233.20 C 519.70 230.90 520.00 228.20 521.80 226.30 L 528.10 219.30 C 529.30 218.00 530.90 217.20 532.70 217.10 C 534.50 217.00 536.20 217.60 537.50 218.80 L 664.60 332.00 C 665.40 332.70 666.00 333.50 666.30 334.50 C 667.20 336.80 666.90 339.50 665.10 341.40 L 658.80 348.40 C 657.60 349.70 656.00 350.50 654.20 350.60 C 652.40 350.70 650.70 350.10 649.40 348.90 L 522.30 235.60 C 521.50 234.90 520.90 234.10 520.60 233.20 Z" fill="#ffffff" fill-rule="nonzero" group-id="2,25,70,116,129" node-id="481" stroke="none" target-height="133.70001" target-width="147.5" target-x="519.7" target-y="217"></path></g><path d="M 660.10 336.80 L 653.80 343.80 L 526.70 230.60 L 533.00 223.60 L 660.10 336.80 M 672.50 331.80 C 671.80 330.00 670.60 328.30 669.00 326.90 L 541.90 213.70 C 539.30 211.40 535.80 210.10 532.30 210.30 C 528.80 210.50 525.50 212.10 523.10 214.70 L 516.80 221.70 C 513.30 225.60 512.60 231.00 514.40 235.60 C 515.10 237.40 516.30 239.10 517.90 240.50 L 645.00 353.80 C 647.60 356.10 651.10 357.40 654.60 357.20 C 658.10 357.00 661.40 355.40 663.80 352.80 L 670.10 345.80 C 673.60 341.70 674.30 336.30 672.50 331.80 L 672.50 331.80 Z" fill="#22286e" fill-rule="nonzero" group-id="2,25,70,116,130" node-id="486" stroke="none" target-height="147.29999" target-width="161.70001" target-x="512.6" target-y="210.1"></path></g></g></g><g node-id="808"><g node-id="853"><g node-id="899"><path d="M 629.50 386.00 L 509.20 242.20" fill="#ecdb89" fill-rule="nonzero" group-id="2,26,71,117" node-id="498" stroke="none" target-height="143.8" target-width="120.29999" target-x="509.2" target-y="242.2"></path><path d="M 503.10 244.70 C 502.00 242.10 502.70 239.00 505.00 237.10 C 507.80 234.70 512.00 235.10 514.40 237.90 L 634.70 381.80 C 637.10 384.60 636.70 388.80 633.90 391.20 C 631.10 393.60 626.90 393.20 624.50 390.40 L 504.10 246.40 C 503.70 245.90 503.30 245.30 503.10 244.70 Z" fill="#22286e" fill-rule="nonzero" group-id="2,26,71,117" node-id="500" stroke="none" target-height="158.90001" target-width="135.09998" target-x="502" target-y="234.7"></path></g></g><g node-id="854"><g node-id="900"><g node-id="913"><path d="M 499.50 247.70 C 498.40 245.10 499.10 242.00 501.40 240.10 L 508.60 234.10 C 510.00 233.00 511.70 232.40 513.50 232.60 C 515.30 232.80 516.90 233.60 518.00 235.00 L 638.30 378.90 C 638.80 379.40 639.10 380.00 639.40 380.70 C 640.50 383.30 639.80 386.40 637.50 388.30 L 630.30 394.30 C 628.90 395.40 627.20 396.00 625.40 395.80 C 623.60 395.60 622.00 394.80 620.90 393.40 L 500.50 249.40 C 500.10 248.90 499.70 248.30 499.50 247.70 Z" fill="#ffffff" fill-rule="nonzero" group-id="2,26,72,118,131" node-id="510" stroke="none" target-height="163.6" target-width="142.1" target-x="498.4" target-y="232.4"></path></g><path d="M 633.10 383.00 L 625.90 389.00 L 505.60 245.20 L 512.80 239.20 L 633.10 383.00 M 645.50 378.00 C 645.00 376.80 644.30 375.60 643.40 374.50 L 523.10 230.60 C 520.80 227.90 517.60 226.20 514.10 225.90 C 510.60 225.60 507.10 226.70 504.40 228.90 L 497.20 234.90 C 492.60 238.70 491.30 244.90 493.40 250.10 C 493.90 251.30 494.60 252.50 495.50 253.60 L 615.80 397.50 C 618.10 400.20 621.30 401.90 624.80 402.20 C 628.30 402.50 631.80 401.40 634.50 399.20 L 641.70 393.20 C 646.20 389.40 647.60 383.20 645.50 378.00 L 645.50 378.00 Z" fill="#22286e" fill-rule="nonzero" group-id="2,26,72,118,132" node-id="515" stroke="none" target-height="176.9" target-width="156.29999" target-x="491.3" target-y="225.6"></path></g></g></g><g node-id="809"><g node-id="855"><g node-id="901"><path d="M 496.40 261.60 C 495.30 258.90 496.10 255.80 498.40 253.90 C 501.30 251.60 505.50 252.10 507.80 254.90 L 621.70 397.60 C 624.00 400.50 623.50 404.70 620.70 407.00 C 617.80 409.30 613.60 408.80 611.30 406.00 L 497.40 263.20 C 497.00 262.70 496.70 262.20 496.40 261.60 Z" fill="#22286e" fill-rule="nonzero" group-id="2,27,73,119" node-id="527" stroke="none" target-height="157.69998" target-width="128.70001" target-x="495.3" target-y="251.6"></path></g></g><g node-id="856"><g node-id="902"><g node-id="915"><path d="M 492.80 264.50 C 491.70 261.80 492.50 258.70 494.80 256.80 L 502.20 250.90 C 503.60 249.80 505.30 249.30 507.10 249.50 C 508.90 249.70 510.50 250.60 511.60 252.00 L 540.90 288.70 L 598.50 360.70 L 625.60 394.60 C 626.00 395.10 626.30 395.70 626.60 396.20 C 627.70 398.90 626.90 402.00 624.60 403.90 L 617.20 409.80 C 615.80 410.90 614.10 411.40 612.30 411.20 C 610.50 411.00 608.90 410.10 607.80 408.70 L 580.60 374.60 L 567.90 358.60 L 532.60 314.40 L 525.30 305.30 C 525.20 305.10 525.00 305.00 524.90 304.80 L 493.90 266.00 C 493.30 265.70 493.00 265.10 492.80 264.50 Z" fill="#ffffff" fill-rule="nonzero" group-id="2,27,74,120,133" node-id="537" stroke="none" target-height="162.09999" target-width="136" target-x="491.7" target-y="249.3"></path></g><path d="M 620.20 398.80 L 616.50 401.80 L 612.80 404.80 L 585.60 370.70 L 572.90 354.70 L 565.60 345.50 L 557.30 335.10 L 543.10 317.30 L 537.60 310.50 L 530.30 301.40 L 530.30 301.40 L 529.40 300.30 L 498.90 262.00 L 502.60 259.00 L 506.30 256.10 L 535.60 292.80 L 537.10 294.60 L 543.80 303.10 L 549.80 310.70 L 563.70 328.10 L 572.00 338.50 L 580.30 348.90 L 593.00 364.80 L 620.20 398.80 M 632.50 393.80 C 632.00 392.60 631.40 391.50 630.60 390.50 L 603.50 356.60 L 590.80 340.70 L 582.50 330.30 L 574.20 319.90 L 560.20 302.50 L 554.20 294.90 L 547.50 286.50 L 546.00 284.60 L 516.80 247.90 C 514.60 245.10 511.40 243.40 507.90 243.00 C 504.40 242.60 500.90 243.60 498.10 245.80 L 494.40 248.70 L 490.70 251.70 C 486.00 255.50 484.50 261.80 486.70 267.10 C 487.20 268.30 487.80 269.40 488.60 270.40 L 519.10 308.60 L 519.40 309.00 C 519.60 309.30 519.80 309.50 520.00 309.70 L 527.30 318.80 L 532.70 325.60 L 546.90 343.40 L 555.20 353.80 L 562.50 363.00 L 575.20 378.90 L 602.40 413.00 C 604.60 415.80 607.80 417.50 611.30 417.90 C 614.80 418.30 618.30 417.30 621.10 415.10 L 624.80 412.10 L 628.50 409.10 C 633.20 405.40 634.70 399.10 632.50 393.80 L 632.50 393.80 Z" fill="#22286e" fill-rule="nonzero" group-id="2,27,74,120,134" node-id="542" stroke="none" target-height="175.69998" target-width="150.20001" target-x="484.5" target-y="242.6"></path></g></g></g><g node-id="810"><g node-id="857"><path d="M 595.60 399.80 C 592.40 392.00 589.50 382.40 594.90 376.90 C 595.40 376.40 595.90 376.00 596.50 375.70 C 603.00 372.30 612.60 376.70 625.20 388.90 C 625.40 389.10 625.60 389.30 625.70 389.50 L 669.60 443.40 C 670.00 443.90 670.40 444.50 670.60 445.10 C 670.90 445.80 671.00 446.50 671.10 447.20 L 672.50 469.80 C 672.60 472.00 671.60 474.20 669.80 475.50 C 668.00 476.80 665.70 477.20 663.50 476.40 L 642.20 468.70 C 640.90 468.20 639.80 467.40 639.00 466.20 L 599.70 408.90 C 599.60 408.70 599.40 408.50 599.30 408.20 C 599.40 408.00 597.50 404.40 595.60 399.80 C 595.60 399.80 595.60 399.80 595.60 399.80 Z" fill="#c98a58" fill-rule="nonzero" group-id="2,28,75" node-id="552" stroke="none" target-height="104.900024" target-width="83.099976" target-x="589.5" target-y="372.3"></path></g><path d="M 664.50 447.50 L 665.90 470.10 L 644.60 462.40 L 605.40 405.00 C 605.40 405.00 603.60 401.60 601.90 397.30 C 599.50 391.50 597.30 384.10 599.80 381.50 C 605.30 378.60 620.70 393.60 620.70 393.60 L 664.50 447.50 M 676.90 442.50 C 676.40 441.30 675.70 440.10 674.90 439.10 L 631.00 385.20 C 630.70 384.80 630.30 384.40 629.90 384.10 C 607.50 362.40 596.90 368.00 593.40 369.80 C 592.20 370.40 591.10 371.30 590.10 372.20 C 582.00 380.50 585.50 392.60 589.40 402.30 C 591.40 407.10 593.40 411.00 593.50 411.20 C 593.70 411.70 594.00 412.10 594.30 412.50 L 633.60 469.80 C 635.20 472.10 637.40 473.80 640.10 474.80 L 661.40 482.50 C 665.60 484.00 670.30 483.30 673.90 480.60 C 677.50 477.90 679.50 473.60 679.20 469.10 L 677.80 446.50 C 677.70 445.20 677.40 443.80 676.90 442.50 L 676.90 442.50 Z" fill="#22286e" fill-rule="nonzero" group-id="2,28,76" node-id="557" stroke="none" target-height="121.600006" target-width="97.5" target-x="582" target-y="362.4"></path></g><g node-id="811"><path d="M 474.20 251.00 L 443.30 232.40 C 410.10 212.40 399.40 169.30 419.30 136.10 C 438.30 104.50 478.30 93.20 510.80 109.50 C 491.00 115.30 473.30 128.20 461.90 147.30 C 441.40 181.40 447.60 224.00 474.20 251.00 Z" fill="#73c0d7" fill-rule="nonzero" group-id="2,29" node-id="563" stroke="none" target-height="157.8" target-width="111.399994" target-x="399.4" target-y="93.2"></path></g><g node-id="812"><g node-id="859"><path d="M 551.10 337.60 C 550.30 335.80 550.50 333.60 551.50 331.80 C 551.50 331.70 551.60 331.60 551.60 331.60 C 551.90 331.20 552.20 330.80 552.50 330.40 L 552.90 330.00 C 553.80 329.00 554.70 328.10 555.60 327.10 C 556.70 325.90 557.80 324.80 558.70 323.70 C 606.70 271.00 634.10 205.90 646.20 171.80 C 646.60 170.60 647.00 169.50 647.40 168.40 L 647.80 167.40 C 648.30 165.90 648.80 164.60 649.20 163.30 L 649.30 163.10 C 650.30 159.90 653.50 157.90 656.80 158.50 L 669.90 160.80 C 671.80 161.10 673.50 162.30 674.50 163.90 C 674.70 164.20 674.80 164.50 675.00 164.90 C 675.60 166.30 675.70 167.90 675.20 169.40 C 674.90 170.20 674.70 171.10 674.40 171.90 L 673.70 173.90 L 672.10 178.50 C 659.00 215.10 629.40 285.00 577.00 343.00 C 575.90 344.20 574.80 345.40 573.60 346.60 C 572.60 347.70 571.40 348.90 570.30 350.20 C 569.00 351.60 567.10 352.30 565.20 352.20 C 563.30 352.10 561.50 351.20 560.30 349.70 L 552.00 339.30 C 551.70 338.80 551.40 338.20 551.10 337.60 Z" fill="#e58456" fill-rule="nonzero" group-id="2,30,77" node-id="570" stroke="none" target-height="194.4" target-width="125.400024" target-x="550.3" target-y="157.9"></path></g><path d="M 668.80 167.30 C 668.40 168.70 667.80 170.20 667.30 171.80 C 666.80 173.20 666.30 174.70 665.70 176.30 C 652.90 212.30 623.80 281.20 572.10 338.50 C 571.00 339.70 570.00 340.80 568.90 342.00 C 567.80 343.20 566.80 344.30 565.60 345.50 L 557.30 335.10 C 557.30 335.10 557.30 335.10 557.30 335.00 C 558.40 333.90 559.50 332.70 560.50 331.60 C 561.60 330.50 562.70 329.30 563.70 328.10 C 612.80 274.20 640.70 207.30 652.50 174.00 C 653.10 172.40 653.60 170.90 654.10 169.50 C 654.60 168.00 655.10 166.60 655.50 165.30 C 655.50 165.20 655.60 165.10 655.60 165.00 L 668.80 167.30 M 681.10 162.30 C 680.80 161.60 680.50 161.00 680.10 160.40 C 678.10 157.10 674.80 154.80 671.00 154.20 L 657.90 151.90 C 651.30 150.80 644.90 154.70 642.90 161.10 C 642.90 161.20 642.80 161.40 642.80 161.50 C 642.40 162.60 642.00 163.80 641.60 165.10 L 641.20 166.40 C 640.90 167.40 640.50 168.40 640.10 169.50 C 628.10 203.30 601.10 267.40 554.00 319.20 C 553.90 319.30 553.90 319.30 553.80 319.40 C 552.90 320.50 551.90 321.50 550.90 322.50 C 550.80 322.60 550.80 322.60 550.70 322.70 C 549.90 323.60 549.00 324.50 548.20 325.40 L 547.70 326.00 C 547.00 326.70 546.40 327.50 545.90 328.30 C 543.70 332.00 543.40 336.40 545.00 340.30 C 545.50 341.50 546.10 342.60 546.90 343.60 L 555.20 354.00 C 557.60 357.00 561.10 358.80 564.90 359.00 C 568.70 359.20 572.40 357.80 575.10 355.00 C 576.30 353.80 577.50 352.50 578.60 351.30 C 579.70 350.10 580.80 348.90 581.90 347.70 C 635.10 288.80 665.10 218.00 678.20 181.00 L 679.00 178.70 L 679.80 176.40 C 679.80 176.30 679.80 176.30 679.90 176.20 C 680.10 175.50 680.30 174.90 680.60 174.20 C 680.90 173.30 681.20 172.40 681.50 171.50 C 682.40 168.40 682.30 165.20 681.10 162.30 L 681.10 162.30 Z" fill="#22286e" fill-rule="nonzero" group-id="2,30,78" node-id="575" stroke="none" target-height="208.40001" target-width="139" target-x="543.4" target-y="150.8"></path></g><g node-id="813"><g node-id="861"><path d="M 523.20 302.70 C 522.30 300.40 522.70 297.70 524.40 295.80 C 525.30 294.80 526.10 293.90 526.90 292.90 C 527.10 292.70 527.20 292.50 527.40 292.30 C 528.30 291.20 529.10 290.30 529.90 289.30 C 529.90 289.20 530.10 289.00 530.30 288.80 C 579.10 230.10 597.10 185.90 603.50 164.80 C 603.50 164.70 603.70 164.30 603.70 164.10 C 604.10 162.80 604.40 161.70 604.70 160.70 C 604.80 160.50 604.80 160.20 604.90 160.00 C 605.30 158.40 605.60 157.10 605.80 156.20 C 606.50 152.70 609.90 150.40 613.40 151.00 L 626.80 153.30 C 628.60 153.60 630.30 154.70 631.30 156.30 C 631.50 156.60 631.70 157.00 631.90 157.40 C 632.40 158.70 632.50 160.20 632.20 161.60 C 632.20 161.60 631.90 162.90 631.70 163.30 C 631.50 164.20 631.20 165.20 630.90 166.20 C 630.80 166.80 630.60 167.30 630.40 167.90 C 630.10 168.90 629.80 169.90 629.40 171.00 C 621.90 194.80 601.40 244.20 548.90 307.40 L 546.70 310.10 C 546.50 310.40 546.20 310.80 545.80 311.20 C 545.10 312.00 544.40 312.90 543.70 313.70 C 543.60 313.90 543.20 314.30 542.80 314.70 C 541.50 316.20 539.50 317.10 537.60 317.10 C 535.60 317.10 533.70 316.20 532.50 314.70 L 525.20 305.60 C 525.10 305.40 524.90 305.30 524.80 305.10 L 524.30 304.50 C 523.80 303.80 523.50 303.20 523.20 302.70 Z" fill="#e58456" fill-rule="nonzero" group-id="2,31,79" node-id="583" stroke="none" target-height="166.70001" target-width="110.20001" target-x="522.3" target-y="150.4"></path></g><path d="M 625.70 159.90 C 625.60 160.40 625.40 161.00 625.20 161.60 C 625.00 162.50 624.70 163.40 624.40 164.40 C 624.30 164.90 624.10 165.40 624.00 165.90 C 623.70 166.90 623.40 167.90 623.10 168.90 C 615.40 193.30 595.10 241.30 543.80 303.10 C 543.10 303.90 542.40 304.80 541.60 305.70 C 541.30 306.00 541.00 306.40 540.70 306.70 C 540.00 307.50 539.30 308.40 538.60 309.20 C 538.30 309.60 537.90 310.00 537.60 310.40 L 530.30 301.30 L 530.30 301.30 L 529.40 300.20 C 530.30 299.10 531.20 298.10 532.10 297.10 C 532.20 296.90 532.40 296.70 532.60 296.60 C 533.50 295.60 534.30 294.60 535.10 293.60 C 535.30 293.40 535.50 293.20 535.60 293.00 C 585.60 232.80 603.80 187.00 609.90 166.90 C 610.00 166.70 610.00 166.60 610.10 166.40 C 610.60 164.90 611.00 163.60 611.20 162.40 C 611.20 162.30 611.30 162.20 611.30 162.10 C 611.80 160.30 612.10 158.80 612.40 157.80 L 625.70 159.90 M 638.00 154.90 C 637.70 154.10 637.30 153.40 636.90 152.70 C 634.90 149.60 631.60 147.40 628.00 146.80 L 614.60 144.50 C 607.60 143.30 600.80 147.90 599.30 154.80 C 599.10 155.70 598.90 156.70 598.50 158.00 C 598.40 158.40 598.30 158.80 598.20 159.20 C 598.00 159.90 597.70 161.00 597.40 162.10 C 597.30 162.30 597.30 162.40 597.20 162.60 C 597.20 162.70 597.10 162.80 597.10 162.90 C 592.10 179.50 575.00 224.60 525.30 284.40 C 525.30 284.40 525.20 284.50 525.20 284.60 C 525.00 284.80 524.80 285.00 524.70 285.20 C 524.00 286.10 523.20 287.00 522.40 287.90 C 522.10 288.20 521.90 288.40 521.70 288.70 C 520.90 289.70 520.20 290.50 519.40 291.40 C 516.00 295.30 515.20 300.60 517.10 305.20 C 517.60 306.40 518.20 307.50 519.00 308.50 L 519.40 308.90 C 519.60 309.20 519.80 309.40 520.00 309.60 L 527.30 318.70 C 529.80 321.80 533.50 323.60 537.40 323.70 C 541.30 323.80 545.10 322.10 547.70 319.10 L 547.90 318.90 C 548.30 318.50 548.60 318.10 548.90 317.70 C 549.60 316.90 550.20 316.20 550.90 315.40 C 551.30 315.00 551.60 314.60 551.90 314.20 C 552.20 313.80 552.60 313.40 552.90 313.00 C 553.20 312.60 553.60 312.20 553.90 311.80 C 554.00 311.70 554.00 311.70 554.10 311.60 C 607.30 247.50 628.10 197.20 635.80 172.90 C 636.10 171.80 636.50 170.70 636.80 169.70 C 637.00 169.20 637.10 168.60 637.30 168.00 C 637.60 167.10 637.90 166.10 638.10 165.00 C 638.20 164.50 638.30 164.10 638.50 163.60 L 638.60 163.20 C 639.30 160.40 639.10 157.50 638.00 154.90 L 638.00 154.90 Z" fill="#22286e" fill-rule="nonzero" group-id="2,31,80" node-id="588" stroke="none" target-height="180.49998" target-width="124.099976" target-x="515.2" target-y="143.3"></path></g><g node-id="814"><g node-id="863"><path d="M 688.80 256.60 C 687.00 252.10 686.60 247.80 687.70 243.90 C 687.80 243.40 688.00 243.00 688.30 242.50 C 697.30 226.00 733.00 231.10 740.10 232.30 C 740.50 232.40 740.80 232.40 741.10 232.60 L 856.50 271.90 C 858.20 272.50 859.60 273.70 860.40 275.30 L 879.70 315.80 C 879.80 315.90 879.80 316.00 879.90 316.20 C 880.60 317.80 880.60 319.60 879.90 321.20 C 879.20 322.90 877.80 324.30 876.00 324.90 L 833.90 340.40 C 832.20 341.00 830.40 340.90 828.70 340.20 L 718.60 287.90 C 718.30 287.70 718.00 287.60 717.70 287.40 C 715.30 285.70 694.70 271.20 688.80 256.60 C 688.80 256.60 688.80 256.60 688.80 256.60 Z" fill="#fff7ee" fill-rule="nonzero" group-id="2,32,81" node-id="596" stroke="none" target-height="115" target-width="194" target-x="686.6" target-y="226"></path></g><path d="M 873.60 318.60 L 873.60 318.60 M 873.60 318.60 L 831.50 334.10 L 721.40 281.80 C 721.40 281.80 700.30 267.20 694.90 254.00 C 693.70 251.10 693.30 248.20 694.00 245.60 C 701.10 232.40 738.80 238.80 738.80 238.80 L 854.20 278.10 L 873.60 318.60 M 885.90 313.60 C 885.90 313.60 885.90 313.60 885.90 313.60 L 885.90 313.60 C 885.90 313.50 885.90 313.50 885.90 313.60 C 885.90 313.50 885.90 313.50 885.90 313.50 C 885.90 313.50 885.90 313.50 885.90 313.50 C 885.80 313.30 885.70 313.00 885.60 312.80 L 866.30 272.40 C 864.80 269.20 862.00 266.70 858.60 265.50 L 743.20 226.20 C 742.50 226.00 741.80 225.80 741.10 225.70 C 727.00 223.30 692.90 219.90 682.40 239.30 C 681.90 240.20 681.60 241.10 681.30 242.00 C 679.80 247.40 680.20 253.10 682.70 259.00 C 689.20 275.10 709.90 289.90 713.90 292.70 C 714.50 293.10 715.10 293.50 715.80 293.80 L 825.90 346.10 C 829.10 347.60 832.90 347.80 836.20 346.60 L 877.80 331.20 C 878.10 331.10 878.40 331.00 878.70 330.90 C 885.40 328.20 888.70 320.40 885.90 313.60 C 885.90 313.60 885.90 313.60 885.90 313.60 L 885.90 313.60 Z M 861.20 323.70 L 861.20 323.70 L 861.20 323.70 L 861.20 323.70 Z" fill="#22286e" fill-rule="nonzero" group-id="2,32,82" node-id="601" stroke="none" target-height="127.899994" target-width="208.90002" target-x="679.8" target-y="219.9"></path></g><g node-id="815"><g node-id="865"><path d="M 714.70 201.40 C 714.10 199.90 713.80 198.30 713.80 196.80 C 713.80 196.20 713.90 195.60 714.10 195.00 C 717.60 183.10 739.90 180.80 752.90 180.50 C 753.20 180.50 753.50 180.50 753.80 180.50 L 849.80 190.40 C 851.30 190.60 852.70 191.20 853.80 192.30 L 876.90 214.90 C 877.60 215.50 878.10 216.30 878.40 217.20 C 878.80 218.30 879.00 219.50 878.80 220.70 C 878.50 222.80 877.20 224.70 875.30 225.60 L 846.60 240.40 C 845.30 241.10 843.70 241.30 842.30 241.00 L 747.60 222.40 C 747.30 222.30 747.00 222.30 746.80 222.20 C 740.30 219.90 719.10 212.10 714.70 201.40 C 714.70 201.40 714.70 201.40 714.70 201.40 Z" fill="#fff7ee" fill-rule="nonzero" group-id="2,33,83" node-id="609" stroke="none" target-height="60.800003" target-width="165.20001" target-x="713.8" target-y="180.5"></path></g><path d="M 872.20 219.50 L 843.50 234.30 L 748.80 215.70 C 748.80 215.70 724.40 207.60 720.90 198.90 C 720.60 198.20 720.50 197.50 720.50 196.80 C 723.20 187.80 753.10 187.00 753.10 187.00 L 849.10 196.90 L 872.20 219.50 M 884.50 214.50 C 883.80 212.80 882.80 211.30 881.50 210.00 L 858.40 187.40 C 856.30 185.30 853.50 184.00 850.50 183.70 L 754.50 173.80 C 753.90 173.70 753.40 173.70 752.80 173.70 C 752.50 173.70 744.30 173.90 735.60 175.40 C 725.40 177.10 711.30 180.80 707.70 193.00 C 707.30 194.20 707.20 195.40 707.20 196.70 C 707.20 199.10 707.70 201.60 708.60 203.90 C 713.70 216.40 733.40 224.60 744.60 228.30 C 745.10 228.50 745.70 228.60 746.20 228.70 L 840.90 247.30 C 843.80 247.90 846.90 247.40 849.60 246.10 L 878.30 231.30 C 882.10 229.30 884.70 225.70 885.40 221.40 C 885.70 219.10 885.40 216.70 884.50 214.50 L 884.50 214.50 Z" fill="#22286e" fill-rule="nonzero" group-id="2,33,84" node-id="614" stroke="none" target-height="74.2" target-width="178.5" target-x="707.2" target-y="173.7"></path></g><g node-id="816"><g node-id="867"><path d="M 708.40 183.40 C 707.90 182.20 707.70 181.00 707.70 179.80 C 707.70 179.10 707.80 178.40 708.00 177.70 C 710.20 170.70 720.60 167.20 738.80 167.20 C 739.00 167.20 739.30 167.20 739.50 167.20 L 812.00 175.20 C 813.30 175.30 814.60 175.90 815.60 176.80 L 833.40 192.00 C 834.20 192.70 834.90 193.60 835.30 194.60 C 835.70 195.70 835.90 196.90 835.70 198.10 C 835.40 200.40 833.90 202.30 831.80 203.20 L 810.30 212.50 C 809.10 213.00 807.70 213.20 806.40 212.90 L 734.70 199.30 C 734.50 199.30 734.20 199.20 734.00 199.10 C 725.80 196.40 711.50 191.00 708.40 183.40 C 708.40 183.40 708.40 183.40 708.40 183.40 Z" fill="#8064a0" fill-rule="nonzero" group-id="2,34,85" node-id="622" stroke="none" target-height="46" target-width="128.20001" target-x="707.7" target-y="167.2"></path></g><path d="M 829.10 196.90 L 807.60 206.20 L 736.00 192.50 C 736.00 192.50 717.00 186.60 714.60 180.80 C 714.40 180.40 714.40 180.00 714.40 179.70 C 716.30 173.80 738.90 173.80 738.90 173.80 L 811.40 181.80 L 829.10 196.90 M 841.40 191.90 C 840.60 190.00 839.40 188.20 837.70 186.80 L 819.90 171.60 C 817.90 169.90 815.40 168.80 812.70 168.50 L 740.20 160.50 C 739.70 160.40 739.20 160.40 738.70 160.40 C 706.40 160.50 702.90 171.40 701.60 175.60 C 701.20 177.00 700.90 178.40 701.00 179.80 C 701.00 181.80 701.40 183.80 702.20 185.80 C 705.40 193.50 715.40 200.10 732.00 205.20 C 732.50 205.30 733.00 205.50 733.40 205.60 L 805.10 219.20 C 807.70 219.70 810.40 219.40 812.90 218.30 L 834.40 209.00 C 838.60 207.20 841.60 203.30 842.30 198.70 C 842.60 196.50 842.30 194.10 841.40 191.90 L 841.40 191.90 Z" fill="#22286e" fill-rule="nonzero" group-id="2,34,86" node-id="627" stroke="none" target-height="59.300003" target-width="141.69995" target-x="700.9" target-y="160.4"></path></g><g node-id="817"><g node-id="869"><path d="M 661.20 315.40 C 658.40 308.60 658.20 302.60 660.40 297.70 C 660.60 297.30 660.90 296.80 661.20 296.40 C 672.60 281.50 707.10 292.00 713.90 294.30 C 714.20 294.40 714.60 294.60 714.90 294.70 L 822.80 351.40 C 824.20 352.10 825.30 353.30 825.90 354.80 C 826.00 355.00 826.10 355.20 826.10 355.40 L 838.90 398.40 C 839.40 400.20 839.20 402.10 838.20 403.70 C 837.20 405.30 835.60 406.40 833.80 406.80 L 789.80 415.60 C 788.00 416.00 786.20 415.60 784.70 414.60 L 684.00 345.80 C 683.70 345.60 683.40 345.40 683.20 345.10 C 682.60 344.60 666.90 329.60 661.20 315.40 L 661.20 315.40 Z" fill="#8064a0" fill-rule="nonzero" group-id="2,35,87" node-id="635" stroke="none" target-height="134.5" target-width="181.20001" target-x="658.2" target-y="281.5"></path></g><path d="M 819.70 357.40 L 832.50 400.40 L 788.50 409.20 L 687.80 340.40 C 687.80 340.40 672.60 325.90 667.30 312.90 C 665.50 308.40 664.80 304.00 666.40 300.50 C 675.50 288.60 711.70 300.70 711.70 300.70 L 819.70 357.40 M 832.00 352.40 C 830.80 349.50 828.70 347.10 825.90 345.60 L 718.00 288.90 C 717.40 288.60 716.70 288.30 716.00 288.10 C 702.40 283.50 669.30 274.90 655.90 292.50 C 655.30 293.30 654.80 294.10 654.40 295.00 C 651.30 301.70 651.50 309.40 655.00 318.00 C 661.20 333.30 676.90 348.50 678.70 350.10 C 679.20 350.60 679.80 351.00 680.40 351.40 L 781.00 420.20 C 784.00 422.20 787.60 423.00 791.10 422.30 L 835.10 413.50 C 838.80 412.80 842.00 410.50 843.90 407.30 C 845.80 404.10 846.30 400.20 845.30 396.60 L 832.50 353.60 C 832.30 353.20 832.20 352.80 832.00 352.40 L 832.00 352.40 Z" fill="#22286e" fill-rule="nonzero" group-id="2,35,88" node-id="640" stroke="none" target-height="148.1" target-width="195" target-x="651.3" target-y="274.9"></path></g><g node-id="818"><g node-id="871"><path d="M 640.10 356.90 C 635.00 344.30 634.80 334.70 639.50 328.20 C 639.80 327.80 640.10 327.40 640.50 327.10 C 654.70 314.70 686.40 332.00 692.60 335.50 C 692.90 335.70 693.20 335.90 693.50 336.10 L 788.00 413.20 C 788.90 413.90 789.50 414.80 790.00 415.90 C 790.20 416.50 790.40 417.20 790.50 417.80 L 794.50 462.50 C 794.70 464.40 794.00 466.20 792.80 467.60 C 791.50 469.00 789.70 469.80 787.90 469.80 L 743.10 469.70 C 741.30 469.70 739.60 469.00 738.30 467.70 L 653.30 380.30 C 653.10 380.00 652.80 379.80 652.60 379.50 C 652.10 378.90 644.80 368.40 640.10 356.90 L 640.10 356.90 Z" fill="#fff7ee" fill-rule="nonzero" group-id="2,36,89" node-id="648" stroke="none" target-height="155.09998" target-width="159.90002" target-x="634.8" target-y="314.7"></path></g><path d="M 783.70 418.40 L 787.70 463.10 L 742.90 463.00 L 657.90 375.60 C 657.90 375.60 650.80 365.40 646.30 354.40 C 642.90 346.10 641.10 337.40 644.90 332.20 C 656.20 322.30 689.30 341.40 689.30 341.40 L 783.70 418.40 M 796.00 413.40 C 795.20 411.40 793.80 409.50 792.10 408.10 L 697.60 331.00 C 697.00 330.50 696.50 330.10 695.80 329.80 C 683.40 322.60 652.70 307.50 636.00 322.10 C 635.30 322.70 634.60 323.50 634.00 324.30 C 627.80 332.70 627.80 344.50 633.90 359.40 C 638.90 371.60 646.60 382.70 646.90 383.20 C 647.30 383.80 647.80 384.30 648.30 384.90 L 733.30 472.30 C 735.80 474.90 739.20 476.30 742.80 476.30 L 787.60 476.40 C 791.30 476.40 794.90 474.80 797.50 472.10 C 800.00 469.30 801.30 465.60 800.90 461.90 L 796.90 417.20 C 796.80 415.90 796.50 414.60 796.00 413.40 L 796.00 413.40 Z" fill="#22286e" fill-rule="nonzero" group-id="2,36,90,121" node-id="655" stroke="none" target-height="168.9" target-width="173.5" target-x="627.8" target-y="307.5"></path></g><g node-id="819"><g node-id="873"><path d="M 622.40 370.70 C 619.70 364.00 616.60 354.30 621.70 348.00 C 622.10 347.50 622.60 347.00 623.20 346.60 C 633.80 339.60 654.30 353.80 665.60 362.90 C 665.80 363.10 666.00 363.20 666.20 363.40 L 742.80 441.50 C 743.40 442.10 743.90 442.90 744.20 443.70 C 744.40 444.20 744.50 444.70 744.60 445.20 L 750.00 480.40 C 750.30 482.60 749.50 484.90 747.90 486.40 C 746.20 487.90 743.90 488.50 741.80 487.90 L 707.40 478.90 C 706.10 478.50 704.80 477.80 704.00 476.70 L 634.00 392.40 C 633.80 392.20 633.70 392.00 633.50 391.80 C 633.30 391.40 626.50 381.00 622.40 370.70 C 622.40 370.70 622.40 370.70 622.40 370.70 Z" fill="#fff7ee" fill-rule="nonzero" group-id="2,37,91" node-id="664" stroke="none" target-height="148.9" target-width="133.70001" target-x="616.6" target-y="339.6"></path></g><path d="M 738.00 446.20 L 743.40 481.40 L 709.00 472.40 L 639.10 388.20 C 639.10 388.20 632.50 378.00 628.50 368.20 C 625.80 361.60 624.30 355.20 626.80 352.20 C 634.90 346.80 661.30 368.10 661.30 368.10 L 738.00 446.20 M 750.30 441.10 C 749.60 439.50 748.70 438.00 747.50 436.80 L 670.90 358.70 C 670.50 358.30 670.20 358.00 669.70 357.70 C 647.20 339.60 630.30 334.00 619.50 341.10 C 618.40 341.80 617.30 342.80 616.50 343.80 C 609.20 352.80 612.80 364.90 616.20 373.20 C 620.60 384.00 627.70 395.00 628.00 395.40 C 628.30 395.80 628.60 396.30 628.90 396.70 L 698.80 480.90 C 700.60 483.00 703.00 484.60 705.70 485.30 L 740.10 494.30 C 744.40 495.40 749.10 494.30 752.40 491.30 C 755.70 488.30 757.30 483.80 756.60 479.40 L 751.20 444.20 C 751.00 443.10 750.70 442.10 750.30 441.10 L 750.30 441.10 Z" fill="#22286e" fill-rule="nonzero" group-id="2,37,92" node-id="669" stroke="none" target-height="161.4" target-width="148.09998" target-x="609.2" target-y="334"></path></g><g node-id="820"><g node-id="875"><path d="M 613.90 396.60 C 607.90 381.90 607.50 373.10 612.40 368.10 C 612.90 367.60 613.40 367.20 614.00 366.90 C 623.70 361.80 639.00 373.50 650.10 384.30 C 650.30 384.50 650.50 384.70 650.60 384.90 L 710.10 457.80 C 710.50 458.30 710.90 458.90 711.10 459.50 C 711.40 460.20 711.50 460.90 711.60 461.60 L 713.50 492.20 C 713.60 494.40 712.60 496.60 710.80 497.90 C 709.00 499.20 706.70 499.60 704.50 498.80 L 675.70 488.40 C 674.40 487.90 673.30 487.10 672.50 485.90 L 619.30 408.30 C 619.20 408.10 619.00 407.90 618.90 407.60 C 618.80 407.40 616.30 402.60 613.90 396.60 L 613.90 396.60 Z" fill="#8064a0" fill-rule="nonzero" group-id="2,38,93" node-id="677" stroke="none" target-height="137.80002" target-width="106.099976" target-x="607.5" target-y="361.8"></path></g><path d="M 705.00 462.00 L 706.90 492.60 L 678.10 482.20 L 624.90 404.60 C 624.90 404.60 622.50 400.00 620.10 394.20 C 616.90 386.30 613.80 376.30 617.20 372.80 C 624.60 368.90 645.50 389.20 645.50 389.20 L 705.00 462.00 M 717.30 457.00 C 716.80 455.80 716.10 454.60 715.30 453.60 L 655.80 380.70 C 655.50 380.30 655.10 379.90 654.70 379.60 C 626.80 352.60 614.80 359.00 610.80 361.10 C 609.60 361.70 608.50 362.60 607.50 363.50 C 598.40 372.70 602.80 387.40 607.60 399.20 C 610.20 405.50 612.80 410.60 612.90 410.80 C 613.10 411.30 613.40 411.70 613.70 412.10 L 666.90 489.70 C 668.50 492.00 670.70 493.70 673.40 494.70 L 702.20 505.10 C 706.40 506.60 711.10 505.90 714.70 503.20 C 718.30 500.50 720.30 496.20 720.00 491.70 L 718.10 461.10 C 718.20 459.80 717.80 458.40 717.30 457.00 L 717.30 457.00 Z" fill="#22286e" fill-rule="nonzero" group-id="2,38,94" node-id="682" stroke="none" target-height="154" target-width="121.89996" target-x="598.4" target-y="352.6"></path></g><g node-id="821"><g node-id="877"><path d="M 477.20 259.10 C 477.00 258.60 476.80 258.10 476.80 257.50 C 476.50 255.50 477.20 253.50 478.50 252.00 C 493.40 236.10 513.70 206.10 519.80 196.50 C 522.80 191.10 543.70 151.90 549.40 134.20 C 550.00 132.30 551.50 130.70 553.40 130.00 C 555.30 129.30 557.40 129.50 559.20 130.50 L 586.30 146.80 C 587.60 147.60 588.50 148.70 589.00 150.00 C 589.60 151.60 589.70 153.40 589.00 155.10 C 588.50 156.20 577.30 182.90 556.30 217.90 C 556.30 217.90 555.70 218.80 555.70 218.80 C 534.60 253.70 516.30 276.10 515.50 277.10 C 513.40 279.70 509.70 280.30 506.90 278.60 L 480.00 262.30 C 478.70 261.50 477.80 260.40 477.20 259.10 Z" fill="#e58456" fill-rule="nonzero" group-id="2,39,95" node-id="690" stroke="none" target-height="150.99998" target-width="113.20001" target-x="476.5" target-y="129.3"></path></g><path d="M 582.90 152.50 C 582.90 152.50 571.60 179.40 550.70 214.40 L 550.70 214.40 C 550.60 214.60 550.50 214.70 550.40 214.80 C 550.30 215.00 550.20 215.10 550.10 215.30 L 550.10 215.30 C 529.00 250.20 510.50 272.80 510.50 272.80 L 483.40 256.50 C 500.50 238.30 522.80 204.30 525.60 199.90 C 528.10 195.40 549.90 154.90 555.80 136.10 L 582.90 152.50 M 595.20 147.50 C 594.10 144.90 592.30 142.60 589.70 141.10 L 562.60 124.80 C 559.10 122.70 554.90 122.30 551.00 123.70 C 547.20 125.10 544.20 128.20 543.00 132.10 C 537.80 148.20 518.30 185.40 514.00 193.00 C 507.90 202.60 488.00 231.90 473.50 247.30 C 470.80 250.20 469.50 254.30 470.00 258.20 C 470.20 259.30 470.40 260.40 470.90 261.40 C 472.00 264.00 473.90 266.30 476.40 267.80 L 503.50 284.10 C 509.20 287.50 516.50 286.20 520.70 281.10 C 521.50 280.20 539.90 257.50 561.20 222.40 C 561.30 222.30 561.30 222.20 561.40 222.00 L 561.60 221.70 L 561.70 221.60 L 561.80 221.50 L 562.00 221.20 C 562.10 221.10 562.20 220.90 562.20 220.80 C 583.20 185.60 594.60 158.70 595.10 157.50 C 596.60 154.30 596.50 150.70 595.20 147.50 L 595.20 147.50 Z" fill="#22286e" fill-rule="nonzero" group-id="2,39,96" node-id="695" stroke="none" target-height="165.2" target-width="127.099976" target-x="469.5" target-y="122.3"></path></g><g node-id="822"><g node-id="879"><path d="M 677.80 286.40 C 675.40 280.50 675.10 275.20 676.90 270.60 C 677.10 270.10 677.30 269.70 677.60 269.30 C 688.20 253.80 723.20 262.50 730.10 264.40 C 730.40 264.50 730.80 264.60 731.10 264.80 L 842.00 315.50 C 843.50 316.20 844.80 317.50 845.40 319.00 C 845.40 319.10 860.60 361.50 860.60 361.50 C 861.20 363.30 861.10 365.20 860.20 366.90 C 859.30 368.60 857.80 369.80 856.00 370.20 L 812.60 381.40 C 810.90 381.80 809.00 381.60 807.50 380.60 L 703.20 317.40 C 702.90 317.20 702.60 317.00 702.30 316.80 C 701.60 316.20 683.70 300.90 677.80 286.40 L 677.80 286.40 Z" fill="#fff7ee" fill-rule="nonzero" group-id="2,40,97" node-id="703" stroke="none" target-height="127.999985" target-width="186.10004" target-x="675.1" target-y="253.8"></path></g><path d="M 839.20 321.60 L 854.30 363.80 L 810.90 375.00 L 706.60 311.80 C 706.60 311.80 689.30 297.00 683.90 283.90 C 682.30 280.00 681.80 276.30 683.00 273.10 C 691.40 260.70 728.20 270.80 728.20 270.80 L 839.20 321.60 M 851.50 316.60 C 850.20 313.50 847.80 310.90 844.70 309.50 L 733.80 258.70 C 733.10 258.40 732.50 258.20 731.80 258.00 C 718.00 254.20 684.50 247.30 672.00 265.60 C 671.40 266.40 671.00 267.30 670.60 268.20 C 668.10 274.40 668.40 281.40 671.50 288.90 C 677.90 304.60 695.80 320.20 697.90 321.90 C 698.40 322.40 699.00 322.80 699.60 323.20 L 804.00 386.40 C 807.10 388.30 810.80 388.80 814.20 387.90 L 857.60 376.70 C 861.20 375.80 864.30 373.30 866.00 370.00 C 867.80 366.70 868.00 362.80 866.80 359.30 L 851.70 317.10 C 851.70 316.90 851.60 316.70 851.50 316.60 L 851.50 316.60 Z" fill="#22286e" fill-rule="nonzero" group-id="2,40,98" node-id="708" stroke="none" target-height="141.49998" target-width="199.90002" target-x="668.1" target-y="247.3"></path></g><g node-id="823"><g node-id="881"><path d="M 702.50 228.00 C 701.70 226.00 701.40 223.90 701.60 222.00 C 701.70 221.30 701.90 220.60 702.20 220.00 C 707.40 208.70 731.80 210.00 745.90 211.70 C 746.20 211.70 746.40 211.80 746.70 211.80 L 850.70 237.10 C 852.00 237.40 853.20 238.20 854.20 239.20 L 877.00 265.40 C 877.50 266.00 877.90 266.60 878.10 267.30 C 878.70 268.70 878.80 270.20 878.30 271.60 C 877.70 273.80 876.00 275.50 873.80 276.10 L 840.60 286.20 C 839.30 286.60 837.90 286.60 836.60 286.10 L 735.00 252.50 C 734.80 252.40 734.50 252.30 734.30 252.20 C 728.00 249.20 706.90 238.70 702.50 228.00 C 702.50 228.00 702.50 228.00 702.50 228.00 Z" fill="#8064a0" fill-rule="nonzero" group-id="2,41,99" node-id="716" stroke="none" target-height="77.90001" target-width="177.39996" target-x="701.4" target-y="208.7"></path></g><path d="M 871.90 269.70 L 871.90 269.70 M 871.90 269.70 L 838.70 279.80 L 737.10 246.10 C 737.10 246.10 712.40 234.60 708.70 225.50 C 708.30 224.60 708.20 223.70 708.30 222.80 C 712.30 214.20 745.20 218.30 745.20 218.30 L 849.20 243.60 L 871.90 269.70 M 884.30 264.70 C 884.20 264.50 884.20 264.40 884.10 264.20 C 883.50 262.90 882.70 261.70 881.80 260.70 L 859.20 234.80 C 857.40 232.70 855.00 231.20 852.30 230.60 L 748.30 205.30 C 747.80 205.20 747.30 205.10 746.80 205.00 C 704.30 199.80 698.20 212.80 696.20 217.10 C 695.60 218.40 695.20 219.70 695.10 221.10 C 694.70 224.20 695.20 227.40 696.40 230.50 C 701.30 242.70 720.60 253.10 731.60 258.20 C 732.10 258.40 732.50 258.60 733.00 258.80 L 834.60 292.50 C 837.20 293.40 840.00 293.40 842.70 292.60 L 875.40 282.60 C 875.90 282.50 876.50 282.30 877.00 282.10 C 883.80 279.30 887.10 271.60 884.40 264.80 C 884.30 264.80 884.30 264.80 884.30 264.70 L 884.30 264.70 Z M 859.60 274.80 L 859.60 274.80 L 859.60 274.80 L 859.60 274.80 Z" fill="#22286e" fill-rule="nonzero" group-id="2,41,100" node-id="721" stroke="none" target-height="93.59999" target-width="192.39996" target-x="694.7" target-y="199.8"></path></g></g><g node-id="785"><g node-id="824"><g node-id="883"><path d="M 789.40 1132.40 C 780.20 1132.40 771.10 1132.00 762.30 1131.20 C 738.70 1129.00 715.40 1124.00 692.80 1116.30 C 646.30 1100.40 604.30 1073.00 571.20 1037.20 C 560.70 1025.80 551.00 1013.50 542.40 1000.60 C 515.70 960.80 498.90 914.60 493.80 867.20 C 492.60 856.00 492.00 844.80 492.10 834.10 C 492.10 828.40 492.30 823.20 492.60 818.20 C 494.20 791.40 499.40 764.80 508.20 739.10 C 515.40 718.20 524.80 698.10 536.30 679.60 C 539.20 674.90 542.40 670.00 545.80 665.10 C 574.50 624.00 613.60 590.70 658.80 568.60 C 667.20 564.50 675.90 560.70 684.90 557.30 C 718.40 544.70 753.40 538.40 789.00 538.40 C 821.70 538.40 854.10 543.80 885.40 554.50 C 928.60 569.30 966.80 593.10 998.80 625.10 C 998.90 625.20 999.10 625.40 999.20 625.50 C 1006.40 632.80 1013.30 640.40 1019.60 648.20 C 1062.10 700.70 1085.70 766.60 1086.10 833.90 C 1086.10 838.70 1086.00 843.80 1085.80 849.20 C 1085.30 858.60 1084.50 867.80 1083.30 876.50 C 1080.70 895.10 1076.30 913.70 1070.00 931.80 C 1059.70 961.80 1044.80 989.80 1025.80 1014.90 C 1022.40 1019.40 1018.80 1024.00 1014.90 1028.40 C 959.30 1093.40 878.40 1131.30 793.00 1132.50 C 791.80 1132.40 790.60 1132.40 789.40 1132.40 Z" fill="#e16b4c" fill-rule="nonzero" group-id="3,42,101" node-id="732" stroke="none" target-height="594.1" target-width="594.1" target-x="492" target-y="538.4"></path></g><path d="M 789.10 545.90 C 820.20 545.90 851.90 551.00 883.00 561.60 C 926.20 576.40 963.70 600.40 993.90 630.70 L 993.90 630.70 C 1000.90 637.80 1007.60 645.20 1013.80 652.80 C 1054.90 703.50 1078.30 767.40 1078.60 833.80 C 1078.60 838.80 1078.50 843.70 1078.30 848.70 C 1077.90 857.50 1077.10 866.40 1075.80 875.30 C 1073.30 893.30 1069.00 911.40 1062.90 929.20 C 1052.60 959.20 1038.00 986.30 1019.80 1010.20 C 1016.40 1014.70 1012.90 1019.10 1009.20 1023.40 C 955.30 1086.50 876.20 1123.70 792.90 1124.80 C 791.70 1124.80 790.50 1124.80 789.30 1124.80 C 780.50 1124.80 771.70 1124.40 762.90 1123.60 C 740.30 1121.50 717.60 1116.70 695.20 1109.10 C 648.20 1093.00 608.20 1066.10 576.70 1032.00 C 566.40 1020.80 557.00 1008.90 548.60 996.40 C 522.70 957.70 506.30 913.10 501.20 866.40 C 500.10 855.70 499.50 845.00 499.50 834.10 C 499.50 828.90 499.70 823.80 500.00 818.60 C 501.50 792.90 506.50 767.10 515.20 741.50 C 522.30 720.80 531.50 701.40 542.50 683.50 C 545.40 678.70 548.50 674.00 551.70 669.40 C 580.20 628.60 618.40 596.50 661.80 575.30 C 670.10 571.20 678.60 567.60 687.30 564.30 C 719.70 552.30 754.00 545.90 789.10 545.90 M 789.10 530.80 C 752.60 530.80 716.70 537.30 682.30 550.20 C 673.00 553.70 664.00 557.60 655.50 561.80 C 609.10 584.50 569.10 618.70 539.60 660.80 C 536.10 665.70 532.80 670.80 529.80 675.70 C 518.10 694.60 508.40 715.10 501.10 736.60 C 492.10 763.00 486.70 790.20 485.10 817.70 C 484.80 822.80 484.60 828.20 484.60 834.00 C 484.50 845.00 485.10 856.40 486.40 868.00 C 491.60 916.60 508.90 963.90 536.20 1004.80 C 545.00 1018.00 554.90 1030.60 565.70 1042.30 C 599.60 1079.00 642.70 1107.10 690.40 1123.40 C 713.50 1131.30 737.50 1136.50 761.60 1138.70 C 770.60 1139.50 780.00 1140.00 789.40 1140.00 C 790.60 1140.00 791.90 1140.00 793.10 1140.00 C 880.70 1138.90 963.70 1100.00 1020.70 1033.30 C 1024.60 1028.70 1028.40 1024.00 1031.90 1019.40 C 1051.40 993.70 1066.60 965.00 1077.20 934.20 C 1083.60 915.60 1088.20 896.50 1090.80 877.50 C 1092.10 868.60 1092.90 859.20 1093.40 849.60 C 1093.70 843.90 1093.80 838.80 1093.70 833.90 C 1093.30 765.00 1069.10 697.40 1025.50 643.60 C 1019.00 635.60 1011.90 627.80 1004.60 620.30 C 1004.40 620.10 1004.20 619.90 1004.00 619.70 C 971.20 587.00 932.10 562.70 887.90 547.50 C 855.90 536.40 822.60 530.80 789.10 530.80 L 789.10 530.80 Z" fill="#22286e" fill-rule="nonzero" group-id="3,42,102,122" node-id="739" stroke="none" target-height="609.2" target-width="609.30005" target-x="484.5" target-y="530.8"></path></g><g node-id="825"><path d="M 529.00 902.60 C 527.90 891.90 527.30 881.20 527.30 870.30 C 527.30 865.10 527.50 860.00 527.80 854.80 C 529.30 829.10 534.30 803.30 543.00 777.70 C 550.10 757.00 559.30 737.60 570.30 719.70 C 573.20 714.90 576.30 710.20 579.50 705.60 C 608.00 664.80 646.20 632.70 689.60 611.50 C 697.90 607.40 706.40 603.80 715.10 600.50 C 775.70 577.80 844.40 575.10 910.50 597.80 C 953.70 612.60 991.20 636.60 1021.40 666.90 L 1021.40 666.90 C 1024.90 670.40 1028.40 674.10 1031.70 677.80 C 1026.10 669.20 1020.10 660.80 1013.70 652.80 C 1007.50 645.10 1000.80 637.80 993.80 630.70 L 993.80 630.70 C 963.60 600.40 926.20 576.40 882.90 561.60 C 816.80 538.90 748.20 541.60 687.50 564.30 C 678.80 567.60 670.30 571.30 662.00 575.30 C 618.50 596.50 580.40 628.60 551.90 669.40 C 548.70 674.00 545.60 678.70 542.70 683.50 C 531.70 701.40 522.50 720.80 515.40 741.50 C 506.70 767.00 501.70 792.90 500.20 818.60 C 499.90 823.80 499.80 829.00 499.70 834.10 C 499.60 844.90 500.20 855.70 501.40 866.40 C 506.40 913.10 522.90 957.80 548.80 996.40 C 556.50 1007.90 565.00 1018.80 574.30 1029.20 C 549.60 991.30 533.90 948.00 529.00 902.60 Z" fill="#f7d9cc" fill-rule="nonzero" group-id="3,43" node-id="746" stroke="none" target-height="490.29993" target-width="532.1" target-x="499.6" target-y="538.9"></path></g><g node-id="826"><g node-id="885"><path d="M 548.10 996.70 C 522.20 958.00 505.80 913.40 500.70 866.70 C 514.00 884.70 529.10 901.50 545.70 916.80 C 536.70 940.00 540.70 970.00 548.10 996.70 Z" fill="#dd4d2d" fill-rule="nonzero" group-id="3,44,103" node-id="753" stroke="none" target-height="130" target-width="47.399963" target-x="500.7" target-y="866.7"></path></g><g node-id="886"><path d="M 623.10 971.30 C 650.80 1029.50 697.80 1081.00 762.40 1124.00 C 739.80 1121.90 717.10 1117.10 694.70 1109.50 C 647.70 1093.40 607.70 1066.50 576.20 1032.40 C 564.60 1005.30 548.80 959.20 557.60 927.30 C 577.40 944.10 599.40 958.90 623.10 971.30 Z" fill="#dd4d2d" fill-rule="nonzero" group-id="3,44,104" node-id="758" stroke="none" target-height="196.70001" target-width="213.60004" target-x="548.8" target-y="927.3"></path></g><g node-id="887"><path d="M 890.20 999.00 C 925.70 1008.90 965.00 1017.50 1008.70 1023.70 C 954.80 1086.80 875.70 1124.00 792.40 1125.10 C 735.30 1090.90 679.80 1044.20 644.90 981.70 C 654.30 985.90 664.00 989.70 674.00 993.10 C 746.50 1018.10 821.50 1018.50 890.20 999.00 Z" fill="#dd4d2d" fill-rule="nonzero" group-id="3,44,105" node-id="763" stroke="none" target-height="143.39996" target-width="363.8" target-x="644.9" target-y="981.7"></path></g><path d="M 1062.30 929.50 C 1052.00 959.50 1037.40 986.60 1019.20 1010.50 C 981.50 1005.50 947.00 998.70 915.40 990.80 C 977.60 968.10 1033.30 928.50 1075.10 875.60 C 1072.70 893.60 1068.40 911.70 1062.30 929.50 Z" fill="#dd4d2d" fill-rule="nonzero" group-id="3,44,106" node-id="768" stroke="none" target-height="134.90002" target-width="159.69995" target-x="915.4" target-y="875.6"></path></g><g node-id="827"><g node-id="889"><path d="M 789.70 1133.00 C 780.50 1133.00 771.40 1132.60 762.60 1131.80 C 761.40 1131.70 760.20 1131.30 759.10 1130.60 C 693.40 1086.90 645.70 1034.50 617.20 974.90 C 606.20 951.90 598.10 927.70 593.10 902.70 C 592.00 903.00 590.90 903.30 589.80 903.70 C 578.50 907.60 571.30 914.20 567.30 924.60 C 566.70 926.10 566.20 927.60 565.70 929.40 C 557.40 959.80 573.60 1005.30 584.00 1029.70 C 585.40 1033.10 584.20 1037.00 581.20 1039.00 C 579.90 1039.80 578.50 1040.20 577.10 1040.20 C 575.10 1040.20 573.00 1039.40 571.60 1037.80 C 561.10 1026.40 551.40 1014.10 542.80 1001.20 C 542.40 1000.50 542.00 999.80 541.80 999.10 C 532.10 964.30 531.40 935.90 539.60 914.50 L 539.70 914.30 C 547.10 895.50 560.70 882.60 580.30 875.90 C 583.00 875.00 585.80 874.20 588.70 873.60 C 586.70 856.00 585.60 838.30 585.40 820.90 C 556.40 826.30 528.50 833.40 502.30 842.10 C 501.50 842.40 500.70 842.50 499.90 842.50 C 498.30 842.50 496.80 842.00 495.50 841.10 C 493.50 839.70 492.40 837.40 492.40 835.00 C 492.40 829.30 492.60 824.10 492.90 819.10 C 493.10 816.00 495.20 813.30 498.10 812.40 C 525.60 803.60 555.10 796.30 586.00 790.90 C 587.10 771.60 589.30 752.40 592.60 733.70 C 588.50 733.20 584.50 732.30 580.70 731.00 C 576.70 729.60 572.70 727.70 568.80 725.40 C 556.10 717.80 545.10 705.20 536.20 688.00 C 535.00 685.70 535.10 682.90 536.50 680.60 C 539.40 675.80 542.60 670.90 546.00 666.10 C 547.40 664.10 549.70 662.90 552.20 662.90 C 552.40 662.90 552.70 662.90 552.90 662.90 C 555.60 663.20 558.00 664.90 559.00 667.40 C 566.00 683.40 574.40 694.40 584.00 700.10 C 588.60 702.90 593.50 704.40 598.80 704.60 C 610.80 657.00 630.00 612.50 656.00 571.90 C 656.70 570.70 657.80 569.80 659.00 569.20 C 667.40 565.10 676.10 561.30 685.10 557.90 C 686.00 557.60 686.90 557.40 687.80 557.40 C 690.10 557.40 692.30 558.40 693.80 560.30 C 695.80 562.90 695.90 566.60 694.00 569.30 C 666.40 607.90 645.60 650.00 632.30 694.60 C 641.50 690.40 651.80 685.20 663.20 679.50 C 722.10 650.10 802.40 609.90 899.50 609.90 C 932.30 609.90 964.80 614.70 996.30 624.10 C 997.50 624.50 998.60 625.10 999.50 626.00 C 1006.70 633.20 1013.60 640.90 1019.90 648.70 C 1022.00 651.30 1022.10 655.10 1020.20 657.90 C 1018.80 659.90 1016.50 661.00 1014.10 661.00 C 1013.20 661.00 1012.30 660.80 1011.40 660.50 C 975.30 646.70 937.70 639.80 899.60 639.80 C 808.90 639.80 732.40 678.10 676.50 706.00 C 658.20 715.10 642.50 723.00 628.80 728.30 C 626.90 729.00 625.10 729.60 623.50 730.20 C 619.80 748.50 617.20 767.20 615.90 785.90 C 622.90 784.90 629.80 784.10 636.70 783.30 C 668.80 779.70 702.70 777.90 737.60 777.90 C 843.40 777.90 958.90 794.50 1080.90 827.30 C 1084.20 828.20 1086.50 831.10 1086.50 834.50 C 1086.50 839.40 1086.40 844.40 1086.20 849.80 C 1086.10 852.10 1085.00 854.20 1083.10 855.50 C 1081.80 856.50 1080.20 856.90 1078.70 856.90 C 1078.00 856.90 1077.40 856.80 1076.70 856.60 C 956.00 823.90 842.00 807.30 737.80 807.30 C 704.10 807.30 671.20 809.10 640.20 812.50 C 631.80 813.40 623.40 814.50 615.00 815.70 C 615.00 834.50 616.10 853.50 618.40 872.40 C 647.10 876.00 679.60 891.00 719.90 909.70 C 767.50 931.80 832.70 962.10 918.30 983.70 C 952.40 992.30 986.10 998.70 1021.20 1003.30 C 1023.90 1003.60 1026.10 1005.40 1027.20 1007.80 C 1028.20 1010.30 1027.90 1013.10 1026.30 1015.20 C 1022.90 1019.70 1019.20 1024.30 1015.40 1028.80 C 1014.00 1030.50 1011.90 1031.40 1009.70 1031.40 C 1009.40 1031.40 1009.00 1031.40 1008.60 1031.30 C 967.90 1025.50 927.70 1017.20 889.20 1006.40 C 812.00 984.90 751.60 956.90 707.50 936.50 C 673.60 920.80 645.90 908.00 623.60 903.10 C 629.50 929.40 639.20 954.60 652.40 978.30 C 682.40 1032.00 731.10 1079.30 797.20 1118.90 C 800.10 1120.60 801.50 1124.10 800.60 1127.30 C 799.70 1130.60 796.80 1132.80 793.40 1132.90 C 792.10 1133.00 790.90 1133.00 789.70 1133.00 Z" fill="#1e7cb9" fill-rule="nonzero" group-id="3,45,107" node-id="776" stroke="none" target-height="575.6" target-width="594.1" target-x="492.4" target-y="557.4"></path></g><path d="M 687.90 564.90 C 662.20 600.80 636.20 648.40 620.90 707.60 C 633.50 702.80 648.80 695.10 666.60 686.20 C 723.30 657.90 804.10 617.40 899.50 617.40 C 929.70 617.40 961.40 621.50 994.20 631.20 L 994.20 631.20 C 1001.20 638.30 1007.90 645.70 1014.10 653.30 C 974.20 638.10 935.90 632.10 899.60 632.10 C 807.10 632.10 728.30 671.50 673.00 699.10 C 654.90 708.10 639.30 715.90 626.10 721.00 C 623.00 722.20 620.00 723.10 617.00 723.90 C 612.30 745.90 609.00 769.40 607.80 794.30 C 617.40 792.90 627.30 791.60 637.50 790.40 C 666.80 787.10 700.20 785.00 737.50 785.00 C 827.70 785.00 941.40 797.20 1078.80 834.10 C 1078.80 839.10 1078.70 844.00 1078.50 849.00 C 941.00 811.70 827.50 799.50 737.60 799.50 C 700.80 799.50 668.00 801.60 639.10 804.80 C 628.10 806.00 617.50 807.50 607.30 809.00 C 607.00 831.30 608.20 854.60 611.50 879.10 C 640.30 881.10 674.10 896.70 716.50 916.30 C 765.70 939.20 830.30 969.10 916.20 990.80 C 947.80 998.70 982.30 1005.60 1020.00 1010.50 C 1016.60 1015.00 1013.10 1019.40 1009.40 1023.70 C 965.70 1017.50 926.40 1008.90 890.90 999.00 C 814.50 977.80 756.00 950.60 710.40 929.50 C 669.60 910.60 638.90 896.40 613.80 893.80 C 619.80 926.20 630.80 955.40 645.60 981.80 C 680.50 1044.30 736.00 1091.00 793.10 1125.20 C 791.90 1125.20 790.70 1125.20 789.60 1125.20 C 780.80 1125.20 772.00 1124.80 763.20 1124.00 C 698.60 1081.10 651.70 1029.50 623.90 971.30 C 612.20 947.00 603.90 921.00 599.10 894.00 C 595.10 894.50 591.10 895.30 587.30 896.60 C 573.90 901.20 565.10 909.50 560.20 921.90 C 559.50 923.70 558.90 925.60 558.40 927.60 C 549.60 959.60 565.50 1005.60 577.00 1032.70 C 566.70 1021.50 557.30 1009.60 548.90 997.10 C 541.50 970.40 537.60 940.40 546.50 917.20 L 546.70 916.70 C 553.10 900.30 565.20 889.00 582.60 883.00 C 587.20 881.40 592.00 880.40 596.90 879.80 C 593.80 856.10 592.60 833.40 592.80 811.80 C 556.50 818.10 525.60 826.30 499.90 834.80 C 499.90 829.60 500.10 824.50 500.40 819.30 C 526.40 811.00 557.30 803.10 593.20 797.00 C 594.20 771.90 597.20 748.30 601.60 726.40 C 601.20 726.40 600.90 726.40 600.50 726.40 C 594.50 726.40 588.70 725.50 583.20 723.60 C 579.60 722.40 576.10 720.70 572.70 718.70 C 559.70 710.90 550.10 698.10 542.90 684.30 C 545.80 679.50 548.90 674.80 552.10 670.20 C 558.50 684.80 567.60 698.80 580.10 706.30 C 586.40 710.10 593.10 711.90 600.40 711.90 C 601.80 711.90 603.30 711.80 604.70 711.70 C 618.10 655.10 640.60 609.60 662.20 576.10 C 670.70 571.90 679.20 568.20 687.90 564.90 M 687.90 549.90 C 686.10 549.90 684.30 550.20 682.60 550.90 C 673.40 554.40 664.40 558.30 655.80 562.50 C 653.30 563.70 651.20 565.60 649.80 567.90 C 624.50 607.20 605.60 650.20 593.50 695.80 C 591.70 695.20 589.90 694.40 588.20 693.40 C 580.10 688.50 572.50 678.40 566.20 664.10 C 564.00 659.10 559.30 655.70 553.90 655.20 C 553.40 655.20 552.90 655.10 552.40 655.10 C 547.50 655.10 542.90 657.50 540.10 661.50 C 536.60 666.50 533.30 671.50 530.30 676.40 C 527.60 680.90 527.40 686.50 529.80 691.10 C 539.30 709.60 551.30 723.20 565.20 731.50 C 569.50 734.10 574.00 736.20 578.50 737.70 C 580.30 738.30 582.20 738.90 584.10 739.30 C 581.70 754.00 580.00 769.00 579.00 784.10 C 549.90 789.50 522.00 796.40 495.90 804.80 C 490.00 806.70 485.80 812.00 485.50 818.30 C 485.20 823.40 485.00 828.80 485.00 834.60 C 485.00 839.40 487.30 844.00 491.20 846.90 C 493.80 848.80 496.90 849.80 500.10 849.80 C 501.70 849.80 503.30 849.60 504.80 849.00 C 528.00 841.40 552.60 834.90 578.10 829.80 C 578.40 842.40 579.30 855.10 580.50 867.80 C 579.60 868.10 578.70 868.40 577.80 868.70 C 556.30 876.10 540.80 890.80 532.80 911.20 C 532.70 911.40 532.60 911.60 532.60 911.80 L 532.50 912.10 C 523.80 935.00 524.50 965.00 534.50 1001.20 C 534.90 1002.70 535.60 1004.20 536.50 1005.50 C 545.30 1018.70 555.20 1031.30 566.00 1043.00 C 568.90 1046.20 573.00 1047.80 577.00 1047.80 C 579.80 1047.80 582.70 1047.00 585.20 1045.40 C 591.30 1041.40 593.70 1033.60 590.90 1026.90 C 573.90 986.90 567.30 952.20 572.90 931.70 C 573.30 930.10 573.80 928.80 574.20 927.70 C 576.90 920.80 581.10 916.20 587.60 913.00 C 592.80 935.60 600.40 957.50 610.50 978.40 C 639.50 1039.20 688.10 1092.60 755.00 1137.10 C 757.10 1138.50 759.50 1139.30 761.90 1139.60 C 770.90 1140.40 780.30 1140.90 789.70 1140.90 C 790.90 1140.90 792.20 1140.90 793.40 1140.90 C 800.10 1140.80 806.00 1136.30 807.80 1129.80 C 809.60 1123.30 806.80 1116.40 801.00 1113.00 C 736.10 1074.10 688.30 1027.80 658.90 975.20 C 648.10 955.90 639.70 935.50 633.90 914.30 C 653.30 920.30 676.70 931.20 704.20 943.90 C 748.50 964.50 809.30 992.60 887.00 1014.30 C 925.90 1025.20 966.40 1033.60 1007.40 1039.40 C 1008.10 1039.50 1008.80 1039.50 1009.50 1039.50 C 1013.90 1039.50 1018.00 1037.60 1020.90 1034.30 C 1024.90 1029.70 1028.60 1025.00 1032.10 1020.40 C 1035.30 1016.10 1036.00 1010.50 1033.90 1005.50 C 1031.80 1000.50 1027.30 997.10 1022.00 996.40 C 987.10 991.80 953.80 985.50 919.90 977.00 C 835.10 955.10 770.30 925.00 722.90 903.00 C 684.60 885.30 653.40 870.80 625.10 865.90 C 623.50 851.40 622.60 836.80 622.40 822.30 C 628.50 821.50 634.70 820.70 640.80 820.00 C 671.60 816.50 704.10 814.80 737.60 814.80 C 841.10 814.80 954.50 831.30 1074.60 863.80 C 1075.90 864.20 1077.20 864.30 1078.50 864.30 C 1081.70 864.30 1084.80 863.30 1087.40 861.40 C 1091.10 858.70 1093.40 854.50 1093.60 849.90 C 1093.90 844.30 1094.00 839.20 1093.90 834.20 C 1093.90 827.40 1089.30 821.50 1082.80 819.80 C 960.20 786.90 844.10 770.20 737.60 770.20 C 702.50 770.20 668.30 772.00 635.90 775.70 C 632.00 776.10 628.10 776.60 624.20 777.10 C 625.50 763.20 627.40 749.40 630.10 735.80 C 630.60 735.60 631.10 735.40 631.70 735.20 C 645.70 729.80 661.50 721.90 679.90 712.70 C 735.20 685.00 810.90 647.30 899.80 647.30 C 936.90 647.30 973.60 654.10 1008.90 667.60 C 1010.60 668.30 1012.50 668.60 1014.30 668.60 C 1019.00 668.60 1023.60 666.40 1026.50 662.40 C 1030.50 656.90 1030.30 649.40 1026.00 644.10 C 1019.50 636.10 1012.50 628.30 1005.10 620.90 C 1003.50 619.30 1001.50 618.00 999.30 617.30 C 999.10 617.20 998.90 617.20 998.70 617.10 C 966.50 607.50 933.20 602.60 899.70 602.60 C 800.90 602.60 716.30 644.90 660.30 672.90 L 660.10 673.00 C 654.90 675.60 649.90 678.10 645.10 680.50 C 658.10 642.80 676.60 607.00 700.40 573.90 C 704.30 568.50 704.10 561.20 700.10 556.00 C 696.90 552.00 692.40 549.90 687.90 549.90 L 687.90 549.90 Z M 687.90 580.00 L 687.90 580.00 L 687.90 580.00 L 687.90 580.00 Z" fill="#22286e" fill-rule="nonzero" group-id="3,45,108" node-id="781" stroke="none" target-height="591" target-width="609" target-x="485" target-y="549.9"></path></g></g></svg>