<?xml version="1.0" standalone="no"?><!DOCTYPE svg PUBLIC "-//W3C//DTD SVG 1.1//EN" "http://www.w3.org/Graphics/SVG/1.1/DTD/svg11.dtd"><svg height="1200" node-id="1" sillyvg="true" template-height="1200" template-width="1200" version="1.1" viewBox="0 0 1200 1200" width="1200" xmlns="http://www.w3.org/2000/svg" xmlns:xlink="http://www.w3.org/1999/xlink"><defs node-id="292"><clipPath id="SVGID_2_" node-id="53"><path d="M 983.50 1107.00 C 982.80 1107.00 982.10 1106.90 981.40 1106.60 L 677.60 994.60 C 674.60 993.50 673.00 990.20 674.00 987.10 C 680.20 968.40 670.60 948.40 652.20 941.60 C 651.20 941.20 650.10 940.90 649.20 940.70 C 647.50 940.30 646.10 939.20 645.30 937.70 C 644.50 936.20 644.40 934.40 645.00 932.80 L 697.70 789.80 C 698.30 788.20 699.50 786.90 701.10 786.30 C 701.80 786.00 702.50 785.90 703.30 785.90 C 704.20 785.90 705.20 786.10 706.00 786.50 C 707.00 787.00 708.00 787.50 708.90 787.80 C 712.10 789.00 715.30 789.70 718.60 789.90 C 719.60 790.00 720.60 790.00 721.50 790.00 C 736.60 790.00 750.30 780.40 755.50 766.20 C 756.50 763.60 757.10 760.90 757.40 758.40 C 757.60 756.60 758.70 755.00 760.20 754.00 C 761.20 753.40 762.20 753.10 763.30 753.10 C 764.00 753.10 764.70 753.20 765.40 753.50 L 1071.10 866.20 C 1072.80 866.80 1074.20 868.20 1074.70 870.00 C 1075.30 871.70 1075.00 873.60 1074.00 875.20 C 1072.80 877.00 1071.80 878.90 1071.10 880.80 C 1070.90 881.30 1070.70 881.70 1070.40 882.10 C 1070.40 882.10 1070.40 882.10 1070.40 882.10 C 1070.40 882.10 1070.40 882.20 1070.30 882.40 C 1069.30 885.20 1068.60 887.80 1068.40 890.40 C 1068.40 890.70 1068.30 891.00 1068.30 891.20 L 1068.30 891.50 L 1068.20 892.20 C 1066.90 908.30 1076.60 923.50 1091.80 929.10 C 1092.70 929.40 1093.80 929.70 1094.80 930.00 C 1096.50 930.40 1097.90 931.50 1098.70 933.00 C 1099.50 934.50 1099.60 936.30 1099.00 937.90 L 1046.30 1080.90 C 1045.70 1082.50 1044.50 1083.80 1042.90 1084.40 C 1042.20 1084.70 1041.50 1084.80 1040.70 1084.80 C 1039.80 1084.80 1038.80 1084.60 1038.00 1084.20 C 1037.10 1083.80 1036.10 1083.30 1035.10 1083.00 C 1031.00 1081.50 1026.80 1080.70 1022.60 1080.70 C 1007.70 1080.70 994.50 1089.60 989.00 1103.40 C 988.10 1105.50 985.80 1107.00 983.50 1107.00 Z" fill="#000000" fill-rule="nonzero" node-id="295" stroke="none" target-height="353.90002" target-width="455.19995" target-x="644.4" target-y="753.1"></path></clipPath></defs><g node-id="1089"><g node-id="1092"><g node-id="1118"><g node-id="1171"><g node-id="1208"><path d="M 813.50 1001.90 C 811.30 1001.90 809.20 1000.70 808.10 998.60 C 801.90 986.30 789.50 978.60 775.70 978.60 C 770.40 978.60 765.30 979.70 760.40 982.00 C 759.50 982.40 758.60 982.90 757.60 983.50 C 756.60 984.10 755.60 984.40 754.50 984.40 C 753.90 984.40 753.30 984.30 752.80 984.10 C 751.20 983.60 749.80 982.40 749.10 980.90 L 684.90 842.80 C 684.20 841.20 684.20 839.40 684.90 837.90 C 685.60 836.30 686.90 835.10 688.60 834.60 C 689.50 834.30 690.50 833.90 691.50 833.50 C 705.50 826.90 713.80 812.10 712.10 796.70 C 711.70 792.80 710.60 789.00 708.90 785.30 C 707.70 782.80 706.30 780.40 704.70 778.40 C 703.60 777.00 703.20 775.10 703.60 773.30 C 704.00 771.50 705.20 770.00 706.90 769.30 L 1002.30 631.90 C 1003.10 631.50 1004.00 631.30 1004.80 631.30 C 1005.70 631.30 1006.60 631.50 1007.50 631.90 C 1009.10 632.70 1010.30 634.20 1010.70 636.00 C 1011.30 638.70 1012.20 641.40 1013.30 643.70 C 1019.20 656.40 1032.20 664.70 1046.20 664.70 C 1051.50 664.70 1056.60 663.60 1061.50 661.30 C 1062.60 660.80 1063.60 660.20 1064.50 659.70 C 1065.40 659.20 1066.40 658.90 1067.40 658.90 C 1068.00 658.90 1068.60 659.00 1069.20 659.20 C 1070.80 659.70 1072.10 660.90 1072.80 662.40 L 1137.10 800.50 C 1137.80 802.10 1137.80 803.80 1137.20 805.40 C 1136.50 807.00 1135.20 808.20 1133.60 808.70 C 1132.50 809.10 1131.60 809.40 1130.90 809.80 C 1112.80 818.20 1104.80 838.90 1112.60 857.00 C 1113.90 860.00 1112.60 863.40 1109.60 864.80 L 1099.80 869.30 L 1068.00 884.10 L 1053.70 890.70 L 816.00 1001.30 C 815.20 1001.70 814.30 1001.90 813.50 1001.90 Z" fill="#d52061" fill-rule="nonzero" group-id="1,4,30,83,120" node-id="309" stroke="none" target-height="370.60004" target-width="453.60004" target-x="684.2" target-y="631.3"></path></g></g><path d="M 1004.90 637.20 C 1005.50 640.20 1006.50 643.30 1007.90 646.20 C 1015.10 661.60 1030.40 670.60 1046.30 670.60 C 1052.30 670.60 1058.30 669.30 1064.10 666.60 C 1065.30 666.10 1066.40 665.40 1067.50 664.80 L 1131.80 802.90 C 1130.60 803.30 1129.40 803.70 1128.20 804.30 C 1107.40 814.00 1098.20 838.30 1107.10 859.20 L 1097.30 863.70 L 1065.50 878.60 L 1051.30 885.20 L 813.50 995.90 C 806.10 981.20 791.30 972.60 775.80 972.60 C 769.80 972.60 763.80 973.90 758.00 976.50 C 756.80 977.00 755.70 977.70 754.60 978.30 L 690.40 840.20 C 691.50 839.90 692.80 839.30 693.90 838.80 C 710.70 830.90 720.00 813.30 718.10 795.80 C 717.60 791.30 716.40 786.80 714.40 782.50 C 713.10 779.60 711.40 776.90 709.50 774.40 L 769.80 746.40 L 1004.90 637.20 M 1004.90 625.30 C 1003.20 625.30 1001.50 625.70 999.90 626.40 L 764.70 735.70 L 704.40 763.70 C 701.10 765.20 698.70 768.20 697.80 771.70 C 696.90 775.20 697.80 779.00 700.00 781.90 C 701.30 783.60 702.50 785.50 703.50 787.70 C 704.90 790.80 705.80 794.00 706.10 797.20 C 707.50 810.10 700.70 822.40 689.00 828.00 C 688.20 828.40 687.30 828.70 686.80 828.90 C 683.50 829.90 680.80 832.30 679.40 835.50 C 678.00 838.70 678.00 842.30 679.50 845.40 L 743.70 983.50 C 745.10 986.60 747.80 988.90 751.10 989.90 C 752.20 990.20 753.40 990.40 754.50 990.40 C 756.70 990.40 758.90 989.80 760.80 988.60 C 761.60 988.10 762.30 987.70 763.00 987.40 C 767.10 985.50 771.40 984.60 775.80 984.60 C 787.30 984.60 797.70 991.00 802.90 1001.30 C 805.00 1005.50 809.20 1007.90 813.60 1007.90 C 815.30 1007.90 817.00 1007.50 818.60 1006.80 L 1056.40 896.20 L 1070.60 889.60 L 1102.50 874.70 L 1112.20 870.20 C 1118.10 867.50 1120.70 860.60 1118.20 854.60 C 1111.70 839.50 1118.30 822.20 1133.30 815.30 C 1133.40 815.20 1133.60 815.20 1133.70 815.10 C 1134.00 815.00 1134.50 814.70 1135.50 814.40 C 1138.80 813.30 1141.40 810.90 1142.80 807.80 C 1144.20 804.70 1144.10 801.10 1142.70 798.00 L 1078.40 659.90 C 1077.00 656.90 1074.40 654.60 1071.20 653.60 C 1070.00 653.20 1068.80 653.00 1067.60 653.00 C 1065.60 653.00 1063.50 653.50 1061.70 654.60 C 1060.80 655.10 1060.00 655.60 1059.20 655.90 C 1055.10 657.80 1050.80 658.80 1046.40 658.80 C 1034.60 658.80 1023.80 651.90 1018.90 641.30 C 1018.00 639.40 1017.30 637.10 1016.80 634.80 C 1016.00 631.30 1013.70 628.20 1010.40 626.60 C 1008.60 625.70 1006.70 625.30 1004.90 625.30 L 1004.90 625.30 Z" fill="#22286e" fill-rule="nonzero" group-id="1,4,30,84,121" node-id="317" stroke="none" target-height="382.60004" target-width="466.19995" target-x="678" target-y="625.3"></path></g></g><g node-id="1093"><g node-id="1119"><path d="M 1036.40 696.30 L 1086.70 804.40 C 1085.80 804.70 1084.80 805.10 1083.90 805.50 C 1067.30 813.20 1059.70 832.50 1066.70 848.80 L 831.50 958.20 C 823.50 942.30 803.90 935.70 787.30 943.40 C 786.40 943.80 785.40 944.30 784.60 944.80 L 734.30 836.70 C 735.20 836.40 736.20 836.00 737.10 835.60 C 754.10 827.70 761.60 807.90 753.90 791.30 C 752.80 789.00 751.50 786.90 750.00 785.00 L 986.60 675.00 C 987.10 677.30 987.90 679.70 988.90 682.00 C 996.60 698.60 1016.60 705.60 1033.60 697.70 C 1034.70 697.30 1035.60 696.80 1036.40 696.30 Z" fill="#de5c3b" fill-rule="nonzero" group-id="1,5,31" node-id="327" stroke="none" target-height="283.2" target-width="352.39996" target-x="734.3" target-y="675"></path><path d="M 831.50 964.20 C 829.30 964.20 827.20 963.00 826.20 960.90 C 819.60 947.70 803.60 942.40 789.90 948.80 C 789.20 949.10 788.50 949.50 787.90 949.90 C 786.40 950.80 784.70 951.00 783.00 950.60 C 781.40 950.10 780.00 948.90 779.30 947.40 L 729.00 839.30 C 728.30 837.70 728.30 836.00 728.90 834.40 C 729.60 832.80 730.90 831.60 732.50 831.10 C 733.20 830.90 733.90 830.60 734.70 830.20 C 741.50 827.00 746.60 821.50 749.30 814.60 C 751.90 807.70 751.60 800.40 748.60 793.80 C 747.80 792.00 746.70 790.20 745.50 788.70 C 744.40 787.30 744.00 785.40 744.40 783.60 C 744.80 781.80 746.00 780.30 747.70 779.60 L 984.30 669.60 C 986.00 668.80 987.90 668.90 989.50 669.70 C 991.10 670.50 992.30 672.00 992.70 673.80 C 993.10 675.70 993.70 677.70 994.60 679.50 C 1000.90 693.10 1017.40 698.80 1031.40 692.30 C 1032.10 692.00 1032.80 691.60 1033.40 691.20 C 1034.90 690.30 1036.60 690.10 1038.30 690.50 C 1039.90 691.00 1041.30 692.20 1042.00 693.70 L 1092.30 801.80 C 1093.00 803.40 1093.00 805.10 1092.40 806.70 C 1091.70 808.30 1090.40 809.50 1088.80 810.00 C 1088.10 810.20 1087.40 810.50 1086.60 810.90 C 1072.90 817.30 1066.60 832.90 1072.40 846.50 C 1073.70 849.50 1072.40 852.90 1069.40 854.30 L 834.00 963.60 C 833.20 964.00 832.40 964.20 831.50 964.20 Z M 802.00 934.20 C 814.50 934.20 826.50 940.10 833.90 950.60 L 1059.30 845.80 C 1054.80 828.60 1062.60 810.40 1078.70 801.50 L 1033.50 704.40 C 1014.20 711.80 992.20 703.30 983.50 684.60 C 983.30 684.20 983.10 683.80 983.00 683.40 L 758.80 787.60 C 759.00 788.00 759.20 788.40 759.40 788.80 C 763.80 798.30 764.20 809.00 760.40 818.90 C 757.00 827.80 750.70 835.20 742.30 839.80 L 787.50 936.90 C 792.30 935.00 797.20 934.20 802.00 934.20 Z" fill="#22286e" fill-rule="nonzero" group-id="1,5,31" node-id="329" stroke="none" target-height="295.40002" target-width="364.7" target-x="728.3" target-y="668.8"></path></g></g><g node-id="1094"><g node-id="1120"><g node-id="1173"><g node-id="1210"><path d="M 800.50 778.60 L 811.70 787.60 L 825.50 783.50 L 820.40 797.00 L 828.60 808.80 L 814.20 808.10 L 805.50 819.60 L 801.70 805.70 L 788.10 800.90 L 800.20 793.00 Z" fill="#f4d12c" fill-rule="nonzero" group-id="1,6,32,85,122" node-id="341" stroke="none" target-height="41" target-width="40.5" target-x="788.1" target-y="778.6"></path></g></g></g><g node-id="1121"><g node-id="1174"><g node-id="1211"><path d="M 851.10 753.80 L 862.40 762.90 L 876.20 758.70 L 871.10 772.20 L 879.30 784.00 L 864.90 783.30 L 856.10 794.80 L 852.40 780.90 L 838.80 776.10 L 850.80 768.20 Z" fill="#f4d12c" fill-rule="nonzero" group-id="1,6,33,86,123" node-id="352" stroke="none" target-height="41" target-width="40.5" target-x="838.8" target-y="753.8"></path></g></g></g><g node-id="1122"><g node-id="1175"><g node-id="1212"><path d="M 897.70 732.20 L 909.00 741.20 L 922.80 737.10 L 917.60 750.50 L 925.80 762.40 L 911.50 761.70 L 902.70 773.10 L 898.90 759.20 L 885.30 754.50 L 897.40 746.60 Z" fill="#f4d12c" fill-rule="nonzero" group-id="1,6,34,87,124" node-id="363" stroke="none" target-height="40.899963" target-width="40.5" target-x="885.3" target-y="732.2"></path></g></g></g><path d="M 944.30 710.50 L 955.60 719.50 L 969.40 715.40 L 964.20 728.90 L 972.40 740.70 L 958.00 740.00 L 949.30 751.50 L 945.50 737.60 L 931.90 732.80 L 944.00 724.90 Z" fill="#f4d12c" fill-rule="nonzero" group-id="1,6,35,88,125" node-id="374" stroke="none" target-height="41" target-width="40.5" target-x="931.9" target-y="710.5"></path></g><g node-id="1095"><g node-id="1124"><path d="M 826.00 863.90 C 822.30 865.70 820.10 868.40 819.30 872.00 C 818.50 875.60 819.20 879.70 821.40 884.30 C 823.70 889.10 826.50 892.20 829.80 893.70 C 833.00 895.20 836.50 895.00 840.40 893.10 C 842.10 892.30 843.60 891.30 845.00 890.30 C 846.40 889.20 847.80 888.00 849.20 886.70 L 851.90 892.20 C 849.40 894.90 846.20 897.10 842.30 899.00 C 836.60 901.80 831.40 902.20 826.60 900.30 C 821.80 898.30 817.90 894.10 814.70 887.70 C 812.70 883.60 811.70 879.70 811.70 876.00 C 811.70 872.20 812.70 868.80 814.70 865.80 C 816.70 862.80 819.60 860.40 823.40 858.50 C 827.40 856.50 831.50 855.60 835.70 855.60 L 836.00 862.00 C 834.40 862.00 832.70 862.20 831.00 862.40 C 829.30 862.60 827.60 863.10 826.00 863.90 Z" fill="#22286e" fill-rule="nonzero" group-id="1,7,36" node-id="384" stroke="none" target-height="46.600037" target-width="40.200012" target-x="811.7" target-y="855.6"></path></g><g node-id="1125"><path d="M 860.80 889.20 L 841.70 850.20 L 848.10 847.10 L 867.20 886.10 L 860.80 889.20 Z" fill="#22286e" fill-rule="nonzero" group-id="1,7,37" node-id="389" stroke="none" target-height="42.100037" target-width="25.5" target-x="841.7" target-y="847.1"></path></g><g node-id="1126"><path d="M 910.00 865.10 L 902.20 868.90 L 867.80 847.20 L 867.60 847.30 L 868.60 849.00 C 870.50 852.20 872.10 855.20 873.40 857.90 L 883.30 878.20 L 877.50 881.00 L 858.40 842.00 L 866.10 838.20 L 900.40 859.80 L 900.60 859.70 C 900.40 859.30 899.60 857.90 898.20 855.30 C 896.80 852.80 895.80 850.80 895.10 849.40 L 885.10 828.90 L 890.90 826.00 L 910.00 865.10 Z" fill="#22286e" fill-rule="nonzero" group-id="1,7,38" node-id="394" stroke="none" target-height="55" target-width="51.599976" target-x="858.4" target-y="826"></path></g><g node-id="1127"><path d="M 942.40 849.20 L 920.30 860.00 L 901.20 821.00 L 923.30 810.20 L 925.90 815.60 L 910.20 823.30 L 915.40 833.90 L 930.10 826.70 L 932.70 832.00 L 918.00 839.20 L 924.00 851.50 L 939.70 843.80 L 942.40 849.20 Z" fill="#22286e" fill-rule="nonzero" group-id="1,7,39" node-id="399" stroke="none" target-height="49.799988" target-width="41.200012" target-x="901.2" target-y="810.2"></path></g><g node-id="1128"><path d="M 967.70 836.80 L 940.40 809.70 L 940.20 809.80 C 942.90 814.50 945.30 819.00 947.30 823.20 L 956.60 842.20 L 950.80 845.00 L 931.70 806.00 L 940.70 801.60 L 966.80 827.30 L 967.00 827.20 L 963.00 790.70 L 972.00 786.30 L 991.10 825.30 L 985.00 828.30 L 975.50 809.00 C 974.60 807.10 973.40 804.50 971.90 801.30 C 970.50 798.10 969.60 796.20 969.40 795.50 L 969.20 795.60 L 973.40 833.90 L 967.70 836.80 Z" fill="#22286e" fill-rule="nonzero" group-id="1,7,40" node-id="404" stroke="none" target-height="58.700012" target-width="59.399963" target-x="931.7" target-y="786.3"></path></g><path d="M 1025.50 808.50 L 1016.30 799.60 L 1001.40 806.90 L 1002.90 819.60 L 996.20 822.90 L 991.60 776.50 L 998.50 773.10 L 1032.30 805.10 L 1025.50 808.50 Z M 1011.90 794.90 L 1003.00 786.10 C 1002.40 785.50 1001.50 784.60 1000.20 783.30 C 999.00 782.00 998.10 781.00 997.60 780.40 C 998.20 782.80 998.70 785.60 999.00 788.60 L 1000.50 800.50 L 1011.90 794.90 Z" fill="#22286e" fill-rule="nonzero" group-id="1,7,41" node-id="409" stroke="none" target-height="49.80005" target-width="40.700073" target-x="991.6" target-y="773.1"></path></g><g node-id="1096"><g node-id="1130"><g node-id="1177"><g node-id="1214"><g node-id="1238"><g clip-path="url(#SVGID_2_)" group-id="1,8,42,89,126,150" node-id="421"><path d="M 713.50 753.20 L 644.30 941.00 L 644.30 753.20 Z" fill="#dd4d2d" fill-rule="nonzero" group-id="1,8,42,89,126,150" node-id="423" stroke="none" target-height="187.79999" target-width="69.20001" target-x="644.3" target-y="753.2"></path></g></g><g node-id="1239"><g clip-path="url(#SVGID_2_)" group-id="1,8,42,89,126,151" node-id="426"><path d="M 735.10 753.20 L 647.80 990.00 L 644.30 988.70 L 644.30 941.00 L 713.50 753.20 Z" fill="#dd4d2d" fill-rule="nonzero" group-id="1,8,42,89,126,151" node-id="428" stroke="none" target-height="236.79999" target-width="90.79999" target-x="644.3" target-y="753.2"></path></g></g><g node-id="1240"><g clip-path="url(#SVGID_2_)" group-id="1,8,42,89,126,152" node-id="431"><path d="M 756.70 753.20 L 666.80 997.00 L 647.80 990.00 L 735.10 753.20 Z" fill="#de4e2d" fill-rule="nonzero" group-id="1,8,42,89,126,152" node-id="433" stroke="none" target-height="243.79999" target-width="108.900024" target-x="647.8" target-y="753.2"></path></g></g><g node-id="1241"><g clip-path="url(#SVGID_2_)" group-id="1,8,42,89,126,153" node-id="436"><path d="M 778.30 753.20 L 685.90 1004.00 L 666.80 997.00 L 756.70 753.20 Z" fill="#de4f2e" fill-rule="nonzero" group-id="1,8,42,89,126,153" node-id="438" stroke="none" target-height="250.79999" target-width="111.5" target-x="666.8" target-y="753.2"></path></g></g><g node-id="1242"><g clip-path="url(#SVGID_2_)" group-id="1,8,42,89,126,154" node-id="441"><path d="M 781.70 753.20 L 797.70 759.10 L 704.90 1011.10 L 685.90 1004.00 L 778.30 753.20 Z" fill="#df502e" fill-rule="nonzero" group-id="1,8,42,89,126,154" node-id="443" stroke="none" target-height="257.89996" target-width="111.79999" target-x="685.9" target-y="753.2"></path></g></g><g node-id="1243"><g clip-path="url(#SVGID_2_)" group-id="1,8,42,89,126,155" node-id="448"><path d="M 704.80 1011.09 L 797.65 759.15 L 816.69 766.17 L 723.85 1018.11 Z" fill="#e0512e" fill-rule="nonzero" group-id="1,8,42,89,126,155,185" node-id="450" stroke="none" target-height="258.95996" target-width="111.890015" target-x="704.8" target-y="759.15"></path></g></g><g node-id="1244"><g clip-path="url(#SVGID_2_)" group-id="1,8,42,89,126,156" node-id="456"><path d="M 723.93 1018.05 L 816.78 766.12 L 835.83 773.14 L 742.98 1025.07 Z" fill="#e0522f" fill-rule="nonzero" group-id="1,8,42,89,126,156,186" node-id="458" stroke="none" target-height="258.94995" target-width="111.900024" target-x="723.93" target-y="766.12"></path></g></g><g node-id="1245"><g clip-path="url(#SVGID_2_)" group-id="1,8,42,89,126,157" node-id="464"><path d="M 742.94 1025.07 L 835.78 773.14 L 854.83 780.16 L 761.98 1032.09 Z" fill="#e1532f" fill-rule="nonzero" group-id="1,8,42,89,126,157,187" node-id="466" stroke="none" target-height="258.94995" target-width="111.890015" target-x="742.94" target-y="773.14"></path></g></g><g node-id="1246"><g clip-path="url(#SVGID_2_)" group-id="1,8,42,89,126,158" node-id="472"><path d="M 761.94 1032.10 L 854.79 780.16 L 873.83 787.18 L 780.99 1039.12 Z" fill="#e2542f" fill-rule="nonzero" group-id="1,8,42,89,126,158,188" node-id="474" stroke="none" target-height="258.96002" target-width="111.890015" target-x="761.94" target-y="780.16"></path></g></g><g node-id="1247"><g clip-path="url(#SVGID_2_)" group-id="1,8,42,89,126,159" node-id="480"><path d="M 780.94 1039.12 L 873.79 787.19 L 892.84 794.21 L 799.99 1046.14 Z" fill="#e25530" fill-rule="nonzero" group-id="1,8,42,89,126,159,189" node-id="482" stroke="none" target-height="258.95" target-width="111.900024" target-x="780.94" target-y="787.19"></path></g></g><g node-id="1248"><g clip-path="url(#SVGID_2_)" group-id="1,8,42,89,126,160" node-id="488"><path d="M 799.95 1046.15 L 892.79 794.21 L 911.84 801.23 L 818.99 1053.17 Z" fill="#e35630" fill-rule="nonzero" group-id="1,8,42,89,126,160,190" node-id="490" stroke="none" target-height="258.96002" target-width="111.890015" target-x="799.95" target-y="794.21"></path></g></g><g node-id="1249"><g clip-path="url(#SVGID_2_)" group-id="1,8,42,89,126,161" node-id="496"><path d="M 818.98 1053.08 L 911.83 801.14 L 930.88 808.16 L 838.03 1060.10 Z" fill="#e45831" fill-rule="nonzero" group-id="1,8,42,89,126,161,191" node-id="498" stroke="none" target-height="258.95996" target-width="111.900024" target-x="818.98" target-y="801.14"></path></g></g><g node-id="1250"><g clip-path="url(#SVGID_2_)" group-id="1,8,42,89,126,162" node-id="504"><path d="M 837.99 1060.10 L 930.83 808.17 L 949.88 815.19 L 857.04 1067.12 Z" fill="#e45931" fill-rule="nonzero" group-id="1,8,42,89,126,162,192" node-id="506" stroke="none" target-height="258.95" target-width="111.890015" target-x="837.99" target-y="808.17"></path></g></g><g node-id="1251"><g clip-path="url(#SVGID_2_)" group-id="1,8,42,89,126,163" node-id="512"><path d="M 856.99 1067.12 L 949.84 815.19 L 968.89 822.21 L 876.04 1074.14 Z" fill="#e55a31" fill-rule="nonzero" group-id="1,8,42,89,126,163,193" node-id="514" stroke="none" target-height="258.95" target-width="111.900024" target-x="856.99" target-y="815.19"></path></g></g><g node-id="1252"><g clip-path="url(#SVGID_2_)" group-id="1,8,42,89,126,164" node-id="520"><path d="M 875.99 1074.15 L 968.84 822.21 L 987.89 829.23 L 895.04 1081.17 Z" fill="#e55b32" fill-rule="nonzero" group-id="1,8,42,89,126,164,194" node-id="522" stroke="none" target-height="258.96002" target-width="111.900024" target-x="875.99" target-y="822.21"></path></g></g><g node-id="1253"><g clip-path="url(#SVGID_2_)" group-id="1,8,42,89,126,165" node-id="528"><path d="M 895.00 1081.17 L 987.85 829.24 L 1006.89 836.26 L 914.05 1088.19 Z" fill="#e65c32" fill-rule="nonzero" group-id="1,8,42,89,126,165,195" node-id="530" stroke="none" target-height="258.94995" target-width="111.890015" target-x="895" target-y="829.24"></path></g></g><g node-id="1254"><g clip-path="url(#SVGID_2_)" group-id="1,8,42,89,126,166" node-id="536"><path d="M 914.13 1088.13 L 1006.98 836.20 L 1026.03 843.22 L 933.18 1095.15 Z" fill="#e75d32" fill-rule="nonzero" group-id="1,8,42,89,126,166,196" node-id="538" stroke="none" target-height="258.95" target-width="111.900024" target-x="914.13" target-y="836.2"></path></g></g><g node-id="1255"><g clip-path="url(#SVGID_2_)" group-id="1,8,42,89,126,167" node-id="544"><path d="M 933.13 1095.16 L 1025.98 843.22 L 1045.03 850.24 L 952.18 1102.18 Z" fill="#e75e33" fill-rule="nonzero" group-id="1,8,42,89,126,167,197" node-id="546" stroke="none" target-height="258.96008" target-width="111.900024" target-x="933.13" target-y="843.22"></path></g></g><g node-id="1256"><g clip-path="url(#SVGID_2_)" group-id="1,8,42,89,126,168" node-id="550"><path d="M 1045.00 850.20 L 1064.00 857.20 L 972.00 1107.00 L 965.10 1107.00 L 952.10 1102.20 Z" fill="#e85f33" fill-rule="nonzero" group-id="1,8,42,89,126,168" node-id="552" stroke="none" target-height="256.8" target-width="111.900024" target-x="952.1" target-y="850.2"></path></g></g><g node-id="1257"><g clip-path="url(#SVGID_2_)" group-id="1,8,42,89,126,169" node-id="555"><path d="M 1064.00 857.20 L 1083.00 864.20 L 993.60 1107.00 L 972.00 1107.00 Z" fill="#e96033" fill-rule="nonzero" group-id="1,8,42,89,126,169" node-id="557" stroke="none" target-height="249.79999" target-width="111" target-x="972" target-y="857.2"></path></g></g><g node-id="1258"><g clip-path="url(#SVGID_2_)" group-id="1,8,42,89,126,170" node-id="560"><path d="M 1083.00 864.20 L 1099.70 870.40 L 1099.70 877.60 L 1015.20 1107.00 L 993.60 1107.00 Z" fill="#e96134" fill-rule="nonzero" group-id="1,8,42,89,126,170" node-id="562" stroke="none" target-height="242.79999" target-width="106.099976" target-x="993.6" target-y="864.2"></path></g></g><g node-id="1259"><g clip-path="url(#SVGID_2_)" group-id="1,8,42,89,126,171" node-id="565"><path d="M 1099.70 936.20 L 1036.80 1107.00 L 1015.20 1107.00 L 1099.70 877.60 Z" fill="#ea6234" fill-rule="nonzero" group-id="1,8,42,89,126,171" node-id="567" stroke="none" target-height="229.40002" target-width="84.49994" target-x="1015.2" target-y="877.6"></path></g></g><g clip-path="url(#SVGID_2_)" group-id="1,8,42,89,126,172" node-id="570"><path d="M 1036.80 1107.00 L 1099.70 936.20 L 1099.70 1107.00 Z" fill="#ea6234" fill-rule="nonzero" group-id="1,8,42,89,126,172" node-id="572" stroke="none" target-height="170.79999" target-width="62.899902" target-x="1036.8" target-y="936.2"></path></g></g></g><path d="M 763.30 759.20 L 1069.00 871.90 C 1067.60 874.00 1066.40 876.20 1065.50 878.70 C 1065.20 879.20 1064.90 879.80 1064.80 880.30 C 1063.70 883.40 1062.90 886.60 1062.50 889.70 C 1062.30 890.30 1062.30 890.90 1062.30 891.50 C 1060.80 910.00 1071.60 928.00 1089.80 934.70 C 1091.00 935.10 1092.30 935.50 1093.50 935.80 L 1040.80 1078.80 C 1039.70 1078.20 1038.50 1077.70 1037.30 1077.30 C 1032.50 1075.50 1027.50 1074.70 1022.70 1074.70 C 1005.90 1074.70 990.10 1084.80 983.50 1101.10 L 679.60 989.00 C 686.80 967.40 675.60 943.90 654.10 936.00 C 652.90 935.60 651.60 935.20 650.40 934.90 L 703.10 791.90 C 704.20 792.50 705.40 793.10 706.60 793.50 C 710.30 794.90 714.20 795.70 718.00 795.90 C 719.10 796.00 720.20 796.00 721.30 796.00 C 738.50 796.00 754.60 785.40 760.90 768.30 C 762.10 765.30 762.90 762.20 763.30 759.20 M 763.30 747.20 C 761.10 747.20 759.00 747.80 757.10 749.00 C 754.00 750.90 751.90 754.10 751.50 757.80 C 751.30 759.90 750.70 762.10 749.90 764.30 C 745.50 776.20 734.10 784.20 721.50 784.20 C 720.70 784.20 719.90 784.20 719.10 784.10 C 719.00 784.10 719.00 784.10 718.90 784.10 C 716.20 783.90 713.50 783.30 710.90 782.40 C 710.20 782.20 709.20 781.60 708.70 781.40 C 707.00 780.50 705.10 780.10 703.30 780.10 C 701.80 780.10 700.30 780.40 698.90 780.90 C 695.70 782.10 693.20 784.70 692.00 787.90 L 639.30 930.90 C 638.10 934.10 638.40 937.70 640.00 940.70 C 641.60 943.70 644.40 945.90 647.80 946.70 C 648.50 946.90 649.30 947.10 650.10 947.40 C 665.50 953.10 673.60 969.80 668.30 985.40 C 666.30 991.50 669.40 998.20 675.50 1000.40 L 979.30 1112.40 C 980.70 1112.90 982.10 1113.10 983.40 1113.10 C 988.10 1113.10 992.60 1110.30 994.50 1105.60 C 999.20 1094.10 1010.20 1086.60 1022.60 1086.60 C 1026.20 1086.60 1029.70 1087.20 1033.10 1088.50 C 1033.90 1088.80 1034.70 1089.10 1035.30 1089.50 C 1037.00 1090.40 1038.90 1090.80 1040.70 1090.80 C 1042.20 1090.80 1043.70 1090.50 1045.10 1090.00 C 1048.30 1088.80 1050.80 1086.20 1052.00 1083.00 L 1104.70 940.00 C 1105.90 936.80 1105.60 933.20 1104.00 930.20 C 1102.40 927.20 1099.60 925.00 1096.20 924.20 C 1095.70 924.10 1094.50 923.80 1093.80 923.50 C 1081.10 918.80 1073.00 906.10 1074.10 892.60 C 1074.10 892.40 1074.10 892.10 1074.20 891.90 C 1074.30 891.60 1074.30 891.30 1074.30 890.90 C 1074.50 888.90 1075.00 886.70 1075.90 884.50 C 1076.20 884.00 1076.50 883.40 1076.70 882.80 C 1077.20 881.40 1078.00 879.90 1078.90 878.40 C 1080.90 875.30 1081.40 871.50 1080.30 868.10 C 1079.20 864.60 1076.50 861.90 1073.10 860.60 L 767.40 747.90 C 766.10 747.40 764.70 747.20 763.30 747.20 L 763.30 747.20 Z" fill="#22286e" fill-rule="nonzero" group-id="1,8,42,90,127" node-id="581" stroke="none" target-height="365.89996" target-width="467.80005" target-x="638.1" target-y="747.2"></path></g></g><g node-id="1097"><g node-id="1131"><path d="M 1049.30 935.90 L 1008.10 1047.80 C 1007.20 1047.40 1006.30 1046.90 1005.30 1046.60 C 988.10 1040.30 969.10 1048.50 962.50 1065.00 L 719.20 975.30 C 724.80 958.40 715.80 939.90 698.50 933.50 C 697.50 933.10 696.50 932.80 695.60 932.60 L 736.80 820.70 C 737.70 821.10 738.60 821.60 739.60 821.90 C 757.20 828.40 776.50 819.70 782.90 802.50 C 783.80 800.20 784.30 797.70 784.60 795.30 L 1029.40 885.50 C 1028.10 887.50 1026.90 889.70 1026.10 892.10 C 1019.80 909.30 1028.90 928.40 1046.40 934.90 C 1047.30 935.30 1048.30 935.60 1049.30 935.90 Z" fill="#e58456" fill-rule="nonzero" group-id="1,9,43" node-id="591" stroke="none" target-height="269.7" target-width="353.70007" target-x="695.6" target-y="795.3"></path><path d="M 962.40 1070.90 C 961.70 1070.90 961.00 1070.80 960.30 1070.50 L 717.00 980.80 C 714.00 979.70 712.40 976.40 713.40 973.30 C 718.10 959.30 710.60 944.30 696.30 939.00 C 695.60 938.70 694.80 938.50 694.10 938.30 C 692.40 937.90 691.00 936.80 690.20 935.30 C 689.40 933.80 689.30 932.00 689.90 930.40 L 731.10 818.50 C 731.70 816.90 732.90 815.60 734.50 815.00 C 736.10 814.40 737.90 814.50 739.40 815.30 C 740.10 815.60 740.80 816.00 741.50 816.20 C 755.90 821.50 771.90 814.40 777.10 800.40 C 777.80 798.60 778.30 796.50 778.50 794.60 C 778.70 792.80 779.80 791.20 781.30 790.20 C 782.90 789.20 784.80 789.10 786.50 789.70 L 1031.30 879.90 C 1033.00 880.50 1034.40 881.90 1034.90 883.70 C 1035.50 885.40 1035.20 887.30 1034.20 888.90 C 1033.10 890.50 1032.20 892.40 1031.50 894.20 C 1029.00 901.00 1029.40 908.40 1032.50 915.00 C 1035.70 921.70 1041.30 926.80 1048.30 929.30 C 1049.00 929.60 1049.80 929.80 1050.50 930.00 C 1052.20 930.40 1053.60 931.50 1054.40 933.00 C 1055.20 934.50 1055.30 936.30 1054.70 937.90 L 1013.50 1049.80 C 1012.90 1051.40 1011.70 1052.70 1010.10 1053.30 C 1008.50 1053.90 1006.70 1053.80 1005.20 1053.00 C 1004.50 1052.70 1003.80 1052.30 1003.10 1052.10 C 988.90 1046.90 973.40 1053.40 967.90 1067.10 C 967.00 1069.50 964.80 1070.90 962.40 1070.90 Z M 726.20 971.40 L 959.50 1057.40 C 968.50 1042.10 987.00 1034.80 1004.60 1040.00 L 1041.60 939.50 C 1032.90 935.60 1026.00 928.80 1021.90 920.20 C 1017.40 910.60 1016.90 900.00 1020.50 890.10 C 1020.70 889.70 1020.80 889.30 1021.00 888.80 L 789.00 803.30 C 788.90 803.70 788.70 804.10 788.60 804.60 C 781.50 823.90 760.30 834.20 740.40 828.40 L 703.40 928.90 C 719.90 936.40 729.20 954.00 726.20 971.40 Z" fill="#22286e" fill-rule="nonzero" group-id="1,9,43" node-id="593" stroke="none" target-height="281.80005" target-width="366.00006" target-x="689.3" target-y="789.1"></path></g></g><g node-id="1098"><g node-id="1132"><g node-id="1179"><g node-id="1216"><path d="M 829.70 827.30 L 831.20 841.60 L 843.80 848.50 L 830.70 854.30 L 828.10 868.50 L 818.40 857.80 L 804.10 859.70 L 811.30 847.20 L 805.10 834.20 L 819.20 837.20 Z" fill="#f4d12c" fill-rule="nonzero" group-id="1,10,44,91,128" node-id="605" stroke="none" target-height="41.200012" target-width="39.700012" target-x="804.1" target-y="827.3"></path></g></g></g><g node-id="1133"><g node-id="1180"><g node-id="1217"><path d="M 877.90 845.00 L 879.40 859.40 L 892.00 866.20 L 878.90 872.10 L 876.30 886.30 L 866.60 875.60 L 852.30 877.40 L 859.50 865.00 L 853.30 852.00 L 867.40 854.90 Z" fill="#f4d12c" fill-rule="nonzero" group-id="1,10,45,92,129" node-id="616" stroke="none" target-height="41.299988" target-width="39.700012" target-x="852.3" target-y="845"></path></g></g></g><g node-id="1134"><g node-id="1181"><g node-id="1218"><path d="M 926.10 862.80 L 927.60 877.10 L 940.30 884.00 L 927.10 889.90 L 924.50 904.00 L 914.80 893.30 L 900.60 895.20 L 907.70 882.70 L 901.50 869.70 L 915.60 872.70 Z" fill="#f4d12c" fill-rule="nonzero" group-id="1,10,46,93,130" node-id="627" stroke="none" target-height="41.200012" target-width="39.700012" target-x="900.6" target-y="862.8"></path></g></g></g><path d="M 974.30 880.60 L 975.80 894.90 L 988.50 901.80 L 975.30 907.60 L 972.70 921.80 L 963.00 911.10 L 948.80 913.00 L 956.00 900.50 L 949.80 887.50 L 963.80 890.50 Z" fill="#f4d12c" fill-rule="nonzero" group-id="1,10,47,94,131" node-id="638" stroke="none" target-height="41.200012" target-width="39.700012" target-x="948.8" target-y="880.6"></path></g><g node-id="1099"><g node-id="1136"><path d="M 785.30 900.40 C 781.50 899.00 778.00 899.20 774.80 901.10 C 771.60 903.00 769.10 906.40 767.40 911.10 C 765.60 916.10 765.20 920.30 766.40 923.60 C 767.60 926.90 770.10 929.40 774.10 930.80 C 775.80 931.40 777.60 931.90 779.30 932.10 C 781.00 932.40 782.90 932.50 784.80 932.60 L 782.70 938.30 C 779.10 938.30 775.20 937.60 771.10 936.10 C 765.10 933.90 761.20 930.40 759.30 925.60 C 757.40 920.80 757.70 915.00 760.20 908.30 C 761.80 904.10 763.90 900.60 766.60 898.00 C 769.30 895.40 772.50 893.80 776.00 893.20 C 779.60 892.60 783.30 893.00 787.30 894.50 C 791.50 896.00 795.00 898.30 797.90 901.40 L 793.50 906.10 C 792.40 904.90 791.10 903.80 789.80 902.80 C 788.50 901.90 787.00 901.10 785.30 900.40 Z" fill="#22286e" fill-rule="nonzero" group-id="1,11,48" node-id="648" stroke="none" target-height="45.700012" target-width="40.5" target-x="757.4" target-y="892.6"></path></g><g node-id="1137"><path d="M 791.00 943.00 L 806.00 902.20 L 812.70 904.70 L 797.70 945.50 L 791.00 943.00 Z" fill="#22286e" fill-rule="nonzero" group-id="1,11,49" node-id="653" stroke="none" target-height="43.299988" target-width="21.700012" target-x="791" target-y="902.2"></path></g><g node-id="1138"><path d="M 842.40 962.00 L 834.20 959.00 L 826.10 919.10 L 825.90 919.00 L 825.40 920.90 C 824.40 924.50 823.30 927.70 822.30 930.50 L 814.50 951.70 L 808.40 949.50 L 823.40 908.70 L 831.50 911.70 L 839.60 951.40 L 839.80 951.50 C 839.90 951.10 840.40 949.50 841.30 946.70 C 842.20 944.00 842.90 941.90 843.50 940.30 L 851.40 918.90 L 857.50 921.20 L 842.40 962.00 Z" fill="#22286e" fill-rule="nonzero" group-id="1,11,50" node-id="658" stroke="none" target-height="53.299988" target-width="49.099976" target-x="808.4" target-y="908.7"></path></g><g node-id="1139"><path d="M 876.30 974.50 L 853.20 966.00 L 868.20 925.20 L 891.30 933.70 L 889.20 939.30 L 872.80 933.30 L 868.70 944.40 L 884.10 950.10 L 882.00 955.70 L 866.60 950.00 L 861.90 962.80 L 878.30 968.80 L 876.30 974.50 Z" fill="#22286e" fill-rule="nonzero" group-id="1,11,51" node-id="663" stroke="none" target-height="49.299988" target-width="38.099976" target-x="853.2" target-y="925.2"></path></g><g node-id="1140"><path d="M 902.70 984.20 L 903.40 945.80 L 903.20 945.70 C 901.70 950.90 900.10 955.70 898.40 960.10 L 891.10 979.90 L 885.00 977.70 L 900.00 936.90 L 909.40 940.40 L 908.80 977.00 L 909.00 977.10 L 932.60 949.00 L 942.00 952.50 L 927.00 993.30 L 920.60 990.90 L 928.00 970.70 C 928.70 968.70 929.80 966.10 931.10 962.80 C 932.40 959.60 933.20 957.60 933.50 957.00 L 933.30 956.90 L 908.50 986.40 L 902.70 984.20 Z" fill="#22286e" fill-rule="nonzero" group-id="1,11,52" node-id="668" stroke="none" target-height="56.399963" target-width="57" target-x="885" target-y="936.9"></path></g><path d="M 963.10 1006.50 L 963.20 993.70 L 947.60 988.00 L 939.40 997.90 L 932.40 995.30 L 962.80 960.00 L 970.10 962.70 L 970.30 1009.30 L 963.10 1006.50 Z M 963.60 987.30 L 963.90 974.80 C 963.90 974.00 963.90 972.60 964.00 970.90 C 964.10 969.10 964.20 967.80 964.30 967.00 C 963.00 969.10 961.30 971.30 959.30 973.70 L 951.70 983.00 L 963.60 987.30 Z" fill="#22286e" fill-rule="nonzero" group-id="1,11,53" node-id="673" stroke="none" target-height="49.299988" target-width="37.899963" target-x="932.4" target-y="960"></path></g></g><g node-id="1090"><g node-id="1100"><g node-id="1142"><g node-id="1183"><g node-id="1220"><g node-id="1261"><g node-id="1286"><path d="M 1022.90 550.70 C 1018.10 550.60 1013.40 549.10 1009.50 546.30 C 1008.40 545.60 1003.10 544.10 999.20 542.90 C 984.40 538.50 972.70 535.10 973.00 526.60 C 973.00 526.40 973.00 526.20 973.10 526.00 L 1006.80 287.60 L 968.00 296.50 C 966.30 296.90 964.50 297.10 962.70 297.10 C 951.60 297.10 942.30 289.50 940.00 278.60 C 937.40 265.90 945.50 253.20 958.20 250.30 L 1027.40 234.40 C 1029.20 234.00 1031.00 233.80 1032.80 233.80 C 1038.30 233.80 1043.30 235.70 1047.50 239.20 C 1053.10 243.80 1056.10 250.60 1055.90 258.00 L 1047.20 527.40 C 1046.80 540.20 1036.10 550.70 1023.30 550.70 C 1023.20 550.70 1023.00 550.70 1022.90 550.70 Z" fill="#73c0d7" fill-rule="nonzero" group-id="2,12,54,95,132,173,198" node-id="692" stroke="none" target-height="316.90002" target-width="118.69995" target-x="937.4" target-y="233.8"></path></g></g><path d="M 1032.80 239.80 C 1036.70 239.80 1040.50 241.10 1043.70 243.80 C 1047.80 247.20 1050.10 252.40 1050.00 257.80 L 1041.30 527.20 C 1041.00 536.90 1033.00 544.70 1023.40 544.70 C 1023.30 544.70 1023.30 544.70 1023.20 544.70 C 1019.50 544.70 1016.10 543.40 1013.30 541.40 C 1008.80 538.10 979.10 532.80 979.30 526.80 L 1014.20 279.80 L 967.00 290.60 C 965.70 290.90 964.30 291.10 963.00 291.10 C 955.00 291.10 947.80 285.50 946.10 277.30 C 944.10 267.80 950.20 258.30 959.70 256.10 L 1028.90 240.20 C 1030.10 240.00 1031.40 239.80 1032.80 239.80 M 1032.80 227.80 C 1030.50 227.80 1028.30 228.10 1026.10 228.60 L 957.00 244.50 C 941.20 248.10 931.00 264.00 934.30 279.80 C 937.10 293.30 949.10 303.10 962.90 303.10 C 965.10 303.10 967.40 302.80 969.50 302.30 L 999.80 295.30 L 967.40 525.00 C 967.30 525.40 967.30 525.90 967.30 526.30 C 966.90 539.40 981.20 543.60 997.80 548.50 C 1001.00 549.40 1005.30 550.70 1006.80 551.40 C 1011.60 554.70 1017.20 556.50 1023.00 556.60 L 1023.40 556.60 C 1039.40 556.60 1052.80 543.60 1053.30 527.50 L 1062.00 258.10 C 1062.30 248.90 1058.40 240.30 1051.40 234.50 C 1046.10 230.20 1039.60 227.80 1032.80 227.80 L 1032.80 227.80 Z" fill="#22286e" fill-rule="nonzero" group-id="2,12,54,95,132,174,199" node-id="700" stroke="none" target-height="328.8" target-width="131.30005" target-x="931" target-y="227.8"></path></g></g></g><g node-id="1143"><g node-id="1184"><path d="M 957.60 280.40 C 955.60 270.90 961.70 261.40 971.20 259.20 L 1040.40 243.30 C 1041.10 243.10 1041.80 243.00 1042.50 242.90 C 1038.50 240.00 1033.50 239.20 1028.70 240.30 L 959.50 256.20 C 950.00 258.40 943.90 267.90 945.90 277.40 C 947.70 286.20 955.90 292.00 964.60 291.10 C 961.10 288.60 958.50 284.90 957.60 280.40 Z" fill="#ffffff" fill-rule="nonzero" group-id="2,12,55,96" node-id="711" stroke="none" target-height="52.800003" target-width="98.599976" target-x="943.9" target-y="239.2"></path></g><path d="M 1024.80 544.40 C 1020.30 541.10 990.60 535.80 990.80 529.80 L 1025.70 282.80 L 1013.20 285.70 L 979.20 526.80 C 979.00 532.80 1008.70 538.20 1013.20 541.40 C 1016.00 543.40 1019.40 544.60 1023.10 544.70 C 1023.80 544.70 1024.50 544.70 1025.20 544.60 C 1025.00 544.50 1024.90 544.50 1024.80 544.40 Z" fill="#ffffff" fill-rule="nonzero" group-id="2,12,55,97" node-id="716" stroke="none" target-height="261.90002" target-width="46.69995" target-x="979" target-y="282.8"></path></g><g node-id="1144"><g node-id="1186"><g node-id="1221"><g node-id="1263"><g node-id="1288"><path d="M 572.70 238.00 C 566.10 238.00 560.50 230.30 551.80 217.60 C 549.50 214.30 546.40 209.70 545.30 208.80 C 541.50 206.00 538.60 202.10 537.10 197.50 C 533.00 185.20 539.50 171.70 551.80 167.30 L 805.40 75.90 C 808.00 75.00 810.70 74.50 813.40 74.50 C 817.80 74.50 822.20 75.80 825.90 78.10 C 832.00 81.90 835.90 88.30 836.60 95.70 L 842.80 166.40 C 843.90 179.30 834.40 191.00 821.50 192.40 C 820.60 192.50 819.80 192.50 818.90 192.50 C 806.80 192.50 796.80 183.40 795.80 171.20 L 792.30 131.60 L 576.00 237.30 C 575.80 237.40 575.60 237.50 575.40 237.60 C 574.60 237.80 573.70 238.00 572.70 238.00 C 572.70 238.00 572.70 238.00 572.70 238.00 Z" fill="#73c0d7" fill-rule="nonzero" group-id="2,12,56,98,133,175,200" node-id="730" stroke="none" target-height="163.5" target-width="310.90002" target-x="533" target-y="74.5"></path></g></g><path d="M 813.50 80.50 C 816.80 80.50 820.00 81.40 822.80 83.20 C 827.50 86.10 830.20 90.90 830.70 96.30 L 836.90 167.00 C 837.80 176.70 830.60 185.50 820.90 186.50 C 820.30 186.60 819.60 186.60 819.00 186.60 C 810.10 186.60 802.60 179.90 801.80 170.80 L 797.50 122.50 L 573.40 231.90 C 573.20 232.00 573.00 232.00 572.70 232.00 C 566.60 232.00 553.30 207.20 549.00 204.00 C 546.20 202.00 544.00 199.10 542.80 195.60 C 539.70 186.40 544.60 176.20 553.80 172.90 L 807.40 81.50 C 809.50 80.90 811.50 80.50 813.50 80.50 M 813.50 68.50 C 810.10 68.50 806.70 69.10 803.50 70.30 L 549.90 161.70 C 534.60 167.20 526.40 184.10 531.60 199.50 C 533.50 205.10 536.90 209.80 541.50 213.40 C 542.60 214.70 545.10 218.30 547.00 221.10 C 556.70 235.30 563.20 244.10 572.80 244.10 C 574.40 244.10 576.00 243.80 577.50 243.30 C 577.90 243.20 578.30 243.00 578.70 242.80 L 787.20 141.10 L 789.90 172.00 C 791.20 187.20 803.70 198.70 819.00 198.70 C 820.10 198.70 821.20 198.60 822.20 198.50 C 838.30 196.70 850.20 182.20 848.80 166.00 L 842.60 95.30 C 841.80 86.00 836.90 77.90 829.10 73.10 C 824.50 70.10 819.10 68.50 813.50 68.50 L 813.50 68.50 Z" fill="#22286e" fill-rule="nonzero" group-id="2,12,56,98,133,176,201" node-id="738" stroke="none" target-height="175.6" target-width="323.8" target-x="526.4" target-y="68.5"></path></g></g></g><path d="M 547.60 202.80 C 548.90 196.90 553.10 191.70 559.10 189.60 L 812.70 98.20 C 817.80 96.40 823.40 97.00 828.00 99.80 C 829.20 100.50 830.30 101.40 831.20 102.40 L 830.70 96.30 C 830.20 90.90 827.50 86.10 822.80 83.20 C 818.30 80.30 812.70 79.70 807.50 81.60 L 553.90 173.00 C 544.70 176.30 539.70 186.50 542.90 195.70 C 543.80 198.50 545.50 200.90 547.60 202.80 Z" fill="#ffffff" fill-rule="nonzero" group-id="2,12,57,99" node-id="749" stroke="none" target-height="123.100006" target-width="291.5" target-x="539.7" target-y="79.7"></path></g><g node-id="1101"><g node-id="1146"><path d="M 759.20 499.90 L 948.60 637.60 L 1037.50 555.90 C 1053.40 541.30 1052.30 515.90 1035.10 503.40 L 852.90 370.90 L 759.20 499.90 Z" fill="#73c0d7" fill-rule="nonzero" group-id="2,13,58" node-id="758" stroke="none" target-height="266.69998" target-width="294.2" target-x="759.2" target-y="370.9"></path></g></g><g node-id="1102"><g node-id="1147"><g node-id="1188"><g node-id="1222"><g node-id="1265"><path d="M 827.70 411.70 C 826.50 411.70 825.20 411.30 824.20 410.60 L 727.60 340.40 C 726.30 339.50 725.50 338.10 725.20 336.50 C 725.00 334.90 725.30 333.30 726.30 332.00 L 747.90 302.30 C 749.10 300.70 750.90 299.80 752.70 299.80 C 753.90 299.80 755.20 300.20 756.20 300.90 L 852.80 371.10 C 854.10 372.00 854.90 373.40 855.20 375.00 C 855.40 376.60 855.10 378.20 854.10 379.50 L 832.50 409.20 C 831.30 410.80 829.50 411.70 827.70 411.70 Z" fill="#73c0d7" fill-rule="nonzero" group-id="2,14,59,100,134,177" node-id="772" stroke="none" target-height="111.900024" target-width="130.40002" target-x="725" target-y="299.8"></path></g></g><path d="M 752.70 305.80 L 849.30 376.00 L 827.70 405.70 L 731.10 335.50 L 752.70 305.80 M 752.70 293.80 C 752.10 293.80 751.50 293.80 750.80 293.90 C 747.70 294.40 744.90 296.10 743.00 298.70 L 721.40 328.40 C 717.50 333.70 718.70 341.20 724.00 345.10 L 820.60 415.30 C 822.70 416.80 825.20 417.60 827.60 417.60 C 831.30 417.60 834.90 415.90 837.30 412.70 L 858.90 383.00 C 860.80 380.40 861.50 377.20 861.00 374.10 C 860.50 371.00 858.80 368.20 856.20 366.30 L 759.60 296.10 C 757.70 294.60 755.20 293.80 752.70 293.80 L 752.70 293.80 Z" fill="#22286e" fill-rule="nonzero" group-id="2,14,59,100,135,178" node-id="780" stroke="none" target-height="123.80002" target-width="144" target-x="717.5" target-y="293.8"></path></g></g></g><g node-id="1103"><g node-id="1148"><g node-id="1189"><path d="M 802.90 514.30 L 933.90 446.00 L 966.20 467.00 L 835.40 537.90 Z" fill="#ffffff" fill-opacity="0.33" fill-rule="nonzero" group-id="2,15,60,101" node-id="793" stroke="none" target-height="91.900024" target-width="163.29999" target-x="802.9" target-y="446"></path></g></g><path d="M 853.60 551.20 L 984.60 482.80 L 998.10 493.90 L 867.30 561.20 Z" fill="#ffffff" fill-opacity="0.33" fill-rule="nonzero" group-id="2,15,61,102" node-id="801" stroke="none" target-height="78.400024" target-width="144.5" target-x="853.6" target-y="482.8"></path></g><g node-id="1104"><g node-id="1150"><g node-id="1191"><path d="M 665.70 432.00 L 476.30 294.20 L 523.30 191.50 C 534.00 168.20 563.10 160.20 583.40 174.90 L 759.40 302.90 L 665.70 432.00 Z" fill="#d9353e" fill-rule="nonzero" group-id="2,16,62,103" node-id="812" stroke="none" target-height="271.8" target-width="283.10004" target-x="476.3" target-y="160.2"></path></g></g><g node-id="1151"><g node-id="1192"><g node-id="1224"><path d="M 501.20 295.00 L 632.20 226.60 L 664.50 247.70 L 533.70 318.60 Z" fill="#ffffff" fill-opacity="0.33" fill-rule="nonzero" group-id="2,16,63,104,136" node-id="822" stroke="none" target-height="92" target-width="163.29999" target-x="501.2" target-y="226.6"></path></g></g><path d="M 551.90 331.80 L 682.90 263.50 L 696.40 274.50 L 565.70 341.80 Z" fill="#ffffff" fill-opacity="0.33" fill-rule="nonzero" group-id="2,16,63,105,137" node-id="830" stroke="none" target-height="78.29999" target-width="144.5" target-x="551.9" target-y="263.5"></path></g><g node-id="1152"><g node-id="1194"><g node-id="1226"><g node-id="1267"><path d="M 665.40 451.90 C 661.20 451.90 657.30 450.60 653.90 448.20 L 464.50 310.50 C 456.90 305.00 454.30 294.80 458.30 286.10 L 505.40 183.40 C 513.00 166.80 527.40 154.50 544.90 149.70 C 550.10 148.30 555.50 147.50 560.90 147.50 C 573.40 147.50 585.30 151.40 595.40 158.70 L 771.40 286.70 C 775.70 289.80 778.50 294.40 779.30 299.70 C 780.10 304.90 778.80 310.20 775.60 314.50 L 681.80 443.50 C 677.90 448.80 671.80 451.90 665.40 451.90 Z M 661.50 404.10 L 731.70 307.60 L 571.70 191.30 C 568.30 188.90 564.40 187.60 560.20 187.60 C 558.40 187.60 556.60 187.80 554.80 188.30 C 548.90 189.90 544.00 194.10 541.40 199.80 L 501.20 287.60 L 661.50 404.10 Z" fill="#1e7cb9" fill-rule="nonzero" group-id="2,16,64,106,138,179" node-id="843" stroke="none" target-height="304.4" target-width="325.8" target-x="454.3" target-y="147.5"></path></g></g><path d="M 560.80 153.60 C 571.90 153.60 582.70 157.00 591.80 163.70 L 767.80 291.70 C 774.00 296.20 775.20 304.90 770.70 311.20 L 676.90 440.20 C 674.10 444.00 669.80 446.10 665.50 446.10 C 662.70 446.10 659.90 445.30 657.50 443.50 L 468.00 305.60 C 462.70 301.80 460.90 294.60 463.70 288.60 L 510.80 185.90 C 517.70 170.90 530.60 159.80 546.40 155.50 C 551.10 154.20 556.00 153.60 560.80 153.60 M 662.80 412.50 L 740.00 306.30 L 575.20 186.40 C 570.80 183.20 565.50 181.50 560.20 181.50 C 557.90 181.50 555.50 181.80 553.20 182.50 C 545.60 184.60 539.30 190.00 535.90 197.20 L 493.60 289.50 L 662.80 412.50 M 560.80 141.60 C 560.80 141.60 560.80 141.60 560.80 141.60 C 554.90 141.60 549.00 142.40 543.20 144.00 C 524.00 149.30 508.20 162.70 499.90 181.00 L 452.80 283.70 C 447.70 294.90 451.10 308.20 461.00 315.40 L 650.40 453.00 C 654.80 456.20 660.00 457.90 665.40 457.90 C 673.70 457.90 681.60 453.90 686.50 447.10 L 780.30 318.10 C 788.70 306.50 786.30 290.20 774.80 281.90 L 598.80 153.90 C 587.60 145.90 574.50 141.60 560.80 141.60 L 560.80 141.60 Z M 508.60 285.50 L 546.80 202.20 C 548.70 198.20 552.10 195.20 556.40 194.00 C 557.70 193.70 558.90 193.50 560.20 193.50 C 563.10 193.50 565.90 194.40 568.20 196.10 L 723.40 308.90 L 660.30 395.80 L 508.60 285.50 L 508.60 285.50 Z" fill="#22286e" fill-rule="nonzero" group-id="2,16,64,106,139,180" node-id="851" stroke="none" target-height="316.3" target-width="341" target-x="447.7" target-y="141.6"></path></g></g><path d="M 469.90 307.00 L 517.00 204.30 C 523.90 189.30 536.80 178.20 552.60 173.90 C 568.40 169.60 584.90 172.50 598.00 182.00 L 772.10 308.60 C 774.80 302.70 773.10 295.50 767.80 291.60 L 591.80 163.60 C 578.70 154.10 562.20 151.10 546.40 155.50 C 530.60 159.80 517.60 170.90 510.80 185.90 L 463.70 288.60 C 460.90 294.70 462.70 301.80 468.00 305.60 L 469.90 307.00 C 469.90 307.00 469.90 307.00 469.90 307.00 Z" fill="#ffffff" fill-rule="nonzero" group-id="2,16,65,107" node-id="861" stroke="none" target-height="157.5" target-width="313.9" target-x="460.9" target-y="151.1"></path></g><g node-id="1105"><g node-id="1154"><g node-id="1196"><g node-id="1228"><path d="M 948.30 657.60 C 944.10 657.60 940.10 656.30 936.80 653.90 L 747.40 516.10 C 738.60 509.70 736.70 497.20 743.20 488.30 L 837.00 359.30 C 840.80 354.10 846.90 351.00 853.30 351.00 C 857.50 351.00 861.40 352.30 864.80 354.70 L 1047.00 487.20 C 1060.00 496.70 1067.90 511.40 1068.60 527.70 C 1069.30 543.90 1062.90 559.50 1050.80 570.60 L 961.90 652.30 C 958.20 655.70 953.30 657.60 948.30 657.60 Z M 947.30 611.90 L 1024.20 541.20 C 1027.40 538.30 1029.10 534.20 1028.90 530.00 C 1028.70 525.80 1026.70 522.00 1023.40 519.60 L 857.10 398.80 L 786.90 495.30 L 947.30 611.90 Z" fill="#1e7cb9" fill-rule="nonzero" group-id="2,17,66,108,140" node-id="874" stroke="none" target-height="306.59998" target-width="332.60004" target-x="736.7" target-y="351"></path></g></g><path d="M 853.20 357.00 C 856.00 357.00 858.80 357.80 861.20 359.60 L 1043.40 492.00 C 1054.90 500.40 1061.90 513.50 1062.60 527.90 C 1063.30 542.30 1057.50 556.30 1046.80 566.10 L 957.90 647.80 C 955.20 650.30 951.80 651.50 948.40 651.50 C 945.60 651.50 942.80 650.60 940.40 648.90 L 750.90 511.30 C 744.70 506.80 743.50 498.10 748.00 491.80 L 841.80 362.80 C 844.60 359.00 848.90 357.00 853.20 357.00 M 947.80 619.60 L 1028.30 545.60 C 1032.80 541.50 1035.20 535.70 1034.90 529.70 C 1034.60 523.70 1031.70 518.20 1026.90 514.70 L 855.80 390.40 L 778.60 496.60 L 947.80 619.60 M 853.20 345.00 C 853.20 345.00 853.20 345.00 853.20 345.00 C 844.90 345.00 837.00 349.00 832.10 355.80 L 738.30 484.80 C 729.90 496.40 732.30 512.70 743.80 521.00 L 933.20 658.70 C 937.60 661.90 942.80 663.60 948.20 663.60 C 954.70 663.60 961.00 661.20 965.80 656.70 L 1054.70 575.00 C 1068.00 562.70 1075.20 545.40 1074.40 527.40 C 1073.60 509.30 1064.80 492.90 1050.30 482.40 L 868.20 349.90 C 863.90 346.70 858.70 345.00 853.20 345.00 L 853.20 345.00 Z M 795.30 494.00 L 858.40 407.10 L 1019.80 524.40 C 1021.70 525.80 1022.80 527.80 1022.90 530.20 C 1023.00 532.70 1022.00 535.10 1020.20 536.80 L 946.90 604.10 L 795.30 494.00 L 795.30 494.00 Z" fill="#22286e" fill-rule="nonzero" group-id="2,17,66,109,141" node-id="882" stroke="none" target-height="318.59998" target-width="345.29993" target-x="729.9" target-y="345"></path></g></g><path d="M 750.90 511.30 L 750.90 511.30 C 751.20 511.00 751.30 510.60 751.60 510.30 L 845.40 381.30 C 850.00 375.00 858.70 373.50 864.80 378.00 L 1047.00 510.50 C 1054.00 515.60 1059.30 522.50 1062.60 530.30 C 1062.60 529.50 1062.70 528.70 1062.60 527.90 C 1062.00 513.50 1055.00 500.40 1043.40 492.00 L 861.20 359.50 C 855.00 355.00 846.40 356.50 841.80 362.80 L 748.00 491.80 C 743.50 498.10 744.70 506.80 750.90 511.30 Z" fill="#ffffff" fill-rule="nonzero" group-id="2,18,67" node-id="892" stroke="none" target-height="175.29999" target-width="319.19995" target-x="743.5" target-y="355"></path></g><g node-id="1091"><g node-id="1107"><g node-id="1156"><g node-id="1198"><g node-id="1230"><g node-id="1269"><path d="M 275.00 813.40 C 273.50 813.40 272.10 812.90 271.00 811.90 C 269.60 810.70 269.20 809.80 264.30 798.70 C 251.80 770.70 218.50 696.50 177.30 646.00 C 170.20 637.40 165.10 628.40 162.00 619.20 C 161.50 617.70 161.60 616.10 162.30 614.60 C 182.80 573.30 212.50 536.00 248.20 506.70 C 249.30 505.80 250.60 505.30 252.00 505.30 C 253.20 505.30 254.40 505.70 255.50 506.40 C 257.70 508.00 258.60 510.80 257.60 513.40 C 250.60 531.90 240.40 547.40 231.40 561.00 C 209.60 594.00 209.70 599.20 219.70 611.40 C 239.60 635.80 271.90 677.90 312.80 739.70 C 313.80 741.30 314.50 742.30 314.80 742.70 C 316.20 744.60 316.40 747.20 315.20 749.30 L 280.20 810.40 C 279.30 812.00 277.70 813.10 276.00 813.30 C 275.70 813.30 275.30 813.40 275.00 813.40 Z" fill="#8064a0" fill-rule="nonzero" group-id="3,19,68,110,142,181" node-id="909" stroke="none" target-height="308.10004" target-width="154.9" target-x="161.5" target-y="505.3"></path></g></g><path d="M 252.00 511.30 C 245.20 529.20 235.00 544.60 226.30 557.90 C 205.60 589.30 201.80 599.00 215.10 615.20 C 264.80 676.20 309.60 745.80 310.10 746.30 L 275.10 807.40 C 272.80 805.40 233.70 705.50 182.00 642.20 C 175.00 633.70 170.40 625.30 167.70 617.30 C 188.10 576.10 217.10 540.00 252.00 511.30 M 252.00 499.30 C 249.30 499.30 246.60 500.20 244.40 502.00 C 208.10 531.90 177.80 569.90 156.90 611.90 C 155.50 614.70 155.30 618.00 156.30 621.00 C 159.60 630.90 165.10 640.60 172.70 649.80 C 213.40 699.60 246.40 773.30 258.80 801.10 C 264.20 813.20 264.70 814.20 267.00 816.30 C 269.20 818.30 272.10 819.40 275.00 819.40 C 275.60 819.40 276.30 819.40 276.90 819.30 C 280.50 818.70 283.60 816.60 285.40 813.40 L 320.40 752.30 C 322.80 748.10 322.40 743.00 319.60 739.20 C 319.30 738.80 318.70 737.80 317.80 736.40 C 276.80 674.50 244.30 632.20 224.30 607.70 C 217.10 598.90 215.10 596.50 236.20 564.50 L 236.30 564.40 C 245.00 551.20 255.90 534.70 263.20 515.60 C 265.10 510.50 263.40 504.80 259.00 501.60 C 256.90 500.00 254.50 499.30 252.00 499.30 L 252.00 499.30 Z M 252.00 523.20 L 252.00 523.20 L 252.00 523.20 L 252.00 523.20 Z" fill="#22286e" fill-rule="nonzero" group-id="3,19,68,110,143,182" node-id="917" stroke="none" target-height="320.10004" target-width="167.49998" target-x="155.3" target-y="499.3"></path></g></g><g node-id="1157"><g node-id="1199"><g node-id="1232"><g node-id="1271"><path d="M 167.30 623.20 C 164.90 623.00 162.80 621.50 162.00 619.20 C 158.40 608.80 157.50 597.80 159.40 586.50 C 162.90 565.40 175.50 546.40 185.70 531.10 C 205.10 501.80 220.40 478.70 203.60 441.30 C 196.80 426.20 189.10 422.90 183.20 421.80 C 181.10 421.40 178.90 421.20 176.50 421.20 C 141.10 421.20 83.90 464.40 63.20 484.10 C 62.10 485.20 60.60 485.80 59.10 485.80 C 58.20 485.80 57.40 485.60 56.60 485.20 C 54.40 484.10 53.00 481.80 53.20 479.40 L 57.00 425.30 C 57.10 423.80 57.80 422.40 58.80 421.40 L 60.10 420.10 C 105.70 375.50 146.20 366.20 172.10 366.20 C 179.30 366.20 186.60 366.90 193.60 368.30 C 212.10 371.90 237.60 383.60 253.50 419.10 C 265.20 445.00 268.30 469.70 263.10 494.50 C 261.80 500.90 259.90 507.40 257.60 513.50 C 257.20 514.50 256.60 515.30 255.80 516.00 C 221.40 544.30 192.80 580.20 173.00 620.00 C 172.00 622.00 169.90 623.30 167.60 623.30 C 167.60 623.20 167.40 623.20 167.30 623.20 Z" fill="#8064a0" fill-rule="nonzero" group-id="3,19,69,111,144,183" node-id="931" stroke="none" target-height="257.09998" target-width="215.29999" target-x="53" target-y="366.2"></path></g></g><path d="M 172.20 372.00 C 178.80 372.00 185.60 372.60 192.60 374.00 C 209.70 377.30 233.30 388.20 248.10 421.40 C 260.40 448.70 261.70 472.40 257.30 493.10 C 256.00 499.50 254.20 505.50 252.10 511.20 C 217.20 539.90 188.20 576.00 167.70 617.20 C 164.10 606.90 163.80 597.00 165.40 587.50 C 168.70 567.90 180.40 550.10 190.80 534.40 C 210.40 504.70 227.30 479.10 209.20 438.90 C 201.20 421.10 191.30 417.30 184.50 415.90 C 182.00 415.40 179.40 415.20 176.70 415.20 C 137.70 415.20 77.70 462.10 59.30 479.70 L 63.10 425.60 C 71.40 417.50 115.20 372.00 172.20 372.00 M 172.20 360.10 C 172.20 360.10 172.20 360.10 172.20 360.10 C 145.10 360.10 103.00 369.80 56.00 415.70 L 54.70 417.00 C 52.60 419.10 51.30 421.80 51.10 424.80 L 47.30 478.90 C 47.00 483.80 49.70 488.50 54.10 490.60 C 55.70 491.40 57.50 491.70 59.20 491.70 C 62.20 491.70 65.20 490.60 67.50 488.40 C 89.90 467.10 144.90 427.20 176.60 427.20 C 178.60 427.20 180.50 427.40 182.20 427.70 C 185.10 428.30 191.90 429.60 198.30 443.80 C 213.70 478.20 199.90 499.00 180.90 527.80 C 170.40 543.60 157.40 563.20 153.70 585.60 C 151.60 597.90 152.60 609.90 156.50 621.20 C 158.10 625.80 162.20 628.90 167.00 629.20 C 167.30 629.20 167.50 629.20 167.80 629.20 C 172.30 629.20 176.50 626.60 178.50 622.60 C 197.90 583.60 226.00 548.30 259.70 520.60 C 261.30 519.30 262.50 517.60 263.30 515.60 C 265.80 509.10 267.70 502.40 269.10 495.50 C 274.50 469.90 271.10 443.30 259.10 416.50 C 242.20 378.60 214.80 366.10 194.90 362.30 C 187.40 360.80 179.70 360.10 172.20 360.10 L 172.20 360.10 Z" fill="#22286e" fill-rule="nonzero" group-id="3,19,69,111,145,184" node-id="939" stroke="none" target-height="269.1" target-width="227.5" target-x="47" target-y="360.1"></path></g></g></g><g node-id="1108"><g node-id="1158"><path d="M 472.40 441.20 C 298.70 431.40 148.90 562.90 136.70 737.00 C 124.70 908.40 250.60 1057.70 420.00 1076.00 C 593.60 1085.80 743.50 954.20 755.70 780.20 C 767.70 608.80 641.70 459.60 472.40 441.20 Z M 439.80 971.80 C 436.40 971.60 432.90 971.20 429.60 970.80 C 429.40 970.90 429.20 970.90 428.90 970.70 C 316.90 957.20 234.10 858.10 242.00 744.40 C 250.10 629.10 348.30 541.70 463.00 546.40 C 463.20 546.30 463.40 546.40 463.60 546.40 C 465.60 546.30 467.60 546.50 469.50 546.60 C 586.90 554.80 675.40 656.70 667.20 774.10 C 659.00 891.50 557.10 980.00 439.80 971.80 Z" fill="#7c7c78" fill-rule="nonzero" group-id="3,20,70" node-id="950" stroke="none" target-height="654.4" target-width="643" target-x="124.7" target-y="431.4"></path></g></g><g node-id="1109"><g node-id="1159"><g node-id="1200"><g node-id="1234"><path d="M 438.00 925.10 C 434.10 925.10 430.10 925.00 426.20 924.70 C 395.90 922.60 366.80 912.30 342.10 894.90 L 341.50 894.50 C 340.90 894.00 340.20 893.60 339.60 893.10 C 292.70 859.00 267.20 804.20 271.20 746.40 C 275.20 688.50 308.20 637.80 359.30 610.60 C 360.00 610.20 360.60 609.80 361.30 609.50 L 361.80 609.30 C 385.40 597.30 411.60 591.00 437.70 591.00 C 441.60 591.00 445.50 591.10 449.40 591.40 C 493.90 594.50 534.60 614.80 563.80 648.50 C 593.10 682.20 607.50 725.30 604.40 769.80 C 598.40 856.80 525.30 925.10 438.00 925.10 Z" fill="#9aa2cc" fill-rule="nonzero" group-id="3,21,71,112,146" node-id="962" stroke="none" target-height="334.09998" target-width="340.3" target-x="267.2" target-y="591"></path></g></g><path d="M 437.70 596.90 C 441.50 596.90 445.20 597.00 449.00 597.30 C 537.80 603.50 604.60 680.60 598.40 769.30 C 592.50 854.20 521.70 919.10 437.90 919.10 C 434.10 919.10 430.30 919.00 426.50 918.70 C 396.30 916.60 368.60 906.20 345.40 890.00 C 344.70 889.50 343.90 888.90 343.10 888.30 C 299.70 856.80 273.00 804.20 277.00 746.70 C 281.00 689.20 314.80 640.80 362.20 615.60 C 363.00 615.10 363.70 614.70 364.50 614.30 C 386.70 603.20 411.60 596.90 437.70 596.90 M 437.70 584.90 L 437.70 584.90 C 410.60 584.90 383.40 591.40 359.10 603.80 C 359.00 603.80 359.00 603.90 358.90 603.90 L 358.50 604.10 C 357.90 604.40 357.10 604.80 356.20 605.40 C 303.30 633.60 269.30 686.10 265.10 746.00 C 260.90 805.80 287.30 862.50 335.80 897.80 C 336.60 898.50 337.40 899.00 337.90 899.40 L 338.40 899.70 C 338.50 899.70 338.50 899.80 338.60 899.80 C 364.20 917.80 394.30 928.40 425.70 930.60 C 429.80 930.90 433.90 931.00 437.90 931.00 C 481.60 931.00 523.40 914.60 555.50 884.70 C 587.80 854.70 607.30 814.00 610.30 770.00 C 613.50 723.90 598.60 679.30 568.30 644.40 C 538.00 609.50 495.90 588.50 449.80 585.30 C 445.90 585.00 441.80 584.90 437.70 584.90 L 437.70 584.90 Z" fill="#22286e" fill-rule="nonzero" group-id="3,21,71,113,147" node-id="970" stroke="none" target-height="346.09998" target-width="352.6" target-x="260.9" target-y="584.9"></path></g></g><g node-id="1110"><g node-id="1160"><path d="M 598.90 769.80 C 592.70 858.00 516.20 925.40 428.10 919.30 C 396.00 917.10 366.70 906.10 342.80 888.00 C 365.20 903.80 392.30 912.20 421.60 914.20 C 507.70 920.20 582.50 855.30 588.50 769.10 C 594.50 683.00 529.60 608.20 443.40 602.10 C 414.00 600.00 386.70 603.10 362.20 615.60 C 388.40 600.90 418.90 595.00 451.10 597.30 C 539.30 603.60 605.00 681.80 598.90 769.80 Z" fill="#8064a0" fill-rule="nonzero" group-id="3,22,72" node-id="980" stroke="none" target-height="330.40002" target-width="262.2" target-x="342.8" target-y="595"></path></g></g><g node-id="1111"><g node-id="1161"><g node-id="1202"><path d="M 659.60 790.40 L 213.70 759.20 C 209.60 758.90 206.40 755.30 206.70 751.20 L 208.00 732.50 C 208.30 728.40 211.90 725.20 216.00 725.50 L 661.90 756.70 C 666.00 757.00 669.20 760.60 668.90 764.70 L 667.60 783.40 C 667.30 787.60 663.70 790.70 659.60 790.40 Z" fill="#ffffff" fill-rule="nonzero" group-id="3,23,73,114" node-id="990" stroke="none" target-height="65.5" target-width="462.80002" target-x="206.4" target-y="725.2"></path><path d="M 660.10 796.40 C 659.80 796.40 659.50 796.40 659.20 796.40 L 213.30 765.20 C 209.70 765.00 206.40 763.30 204.10 760.60 C 201.70 757.90 200.60 754.40 200.80 750.80 L 202.10 732.10 C 202.30 728.50 204.00 725.20 206.70 722.90 C 209.40 720.50 212.90 719.40 216.50 719.60 L 662.40 750.80 C 669.80 751.30 675.40 757.80 674.90 765.20 L 673.60 783.90 C 673.00 791.00 667.10 796.40 660.10 796.40 Z M 660.00 784.50 C 660.70 784.60 661.60 783.90 661.60 783.10 L 662.90 764.40 C 663.00 763.60 662.30 762.80 661.50 762.80 L 215.60 731.60 C 215.10 731.60 214.70 731.80 214.50 732.00 C 214.30 732.20 214.00 732.50 214.00 733.00 L 212.70 751.70 C 212.70 752.20 212.90 752.60 213.10 752.80 C 213.30 753.00 213.60 753.30 214.10 753.30 L 660.00 784.50 Z" fill="#22286e" fill-rule="nonzero" group-id="3,23,73,114" node-id="992" stroke="none" target-height="77" target-width="474.80002" target-x="200.6" target-y="719.4"></path></g></g><g node-id="1162"><g node-id="1203"><path d="M 616.20 622.30 L 281.90 919.00 C 278.80 921.70 274.00 921.50 271.30 918.40 L 258.80 904.40 C 256.10 901.30 256.30 896.50 259.40 893.80 L 593.70 597.00 C 596.80 594.30 601.60 594.50 604.30 597.60 L 616.80 611.60 C 619.50 614.80 619.20 619.50 616.20 622.30 Z" fill="#ffffff" fill-rule="nonzero" group-id="3,23,74,115" node-id="1000" stroke="none" target-height="327.40002" target-width="363.4" target-x="256.1" target-y="594.3"></path><path d="M 276.90 926.80 C 276.60 926.80 276.40 926.80 276.10 926.80 C 272.50 926.60 269.20 925.00 266.80 922.30 L 254.30 908.30 C 251.90 905.60 250.70 902.10 250.90 898.50 C 251.10 894.90 252.70 891.60 255.40 889.20 L 589.70 592.50 C 595.30 587.60 603.80 588.10 608.70 593.60 L 621.20 607.60 C 623.60 610.30 624.80 613.80 624.60 617.40 C 624.40 621.00 622.80 624.30 620.10 626.70 L 620.10 626.70 L 285.80 923.40 C 283.40 925.60 280.20 926.80 276.90 926.80 Z M 598.70 601.10 C 598.30 601.10 598.00 601.20 597.70 601.50 L 263.40 898.20 C 263.00 898.60 262.90 899.00 262.90 899.20 C 262.90 899.40 262.90 899.90 263.30 900.30 L 275.80 914.30 C 276.20 914.70 276.60 914.80 276.80 914.80 C 277.00 914.80 277.50 914.80 277.90 914.40 L 612.20 617.70 C 612.60 617.30 612.70 616.90 612.70 616.70 C 612.70 616.50 612.70 616.00 612.30 615.60 L 599.80 601.60 C 599.60 601.30 599.10 601.10 598.70 601.10 Z" fill="#22286e" fill-rule="nonzero" group-id="3,23,74,115" node-id="1002" stroke="none" target-height="339.2" target-width="374.09998" target-x="250.7" target-y="587.6"></path></g></g><g node-id="1163"><g node-id="1204"><path d="M 280.10 598.80 L 569.80 939.10 C 572.50 942.20 577.20 942.60 580.40 939.90 L 594.70 927.70 C 597.80 925.00 598.20 920.30 595.50 917.10 L 305.80 576.90 C 303.10 573.80 298.40 573.40 295.20 576.10 L 280.90 588.30 C 277.80 590.90 277.40 595.60 280.10 598.80 Z" fill="#ffffff" fill-rule="nonzero" group-id="3,23,75,116" node-id="1010" stroke="none" target-height="369.19995" target-width="320.80002" target-x="277.4" target-y="573.4"></path><path d="M 575.60 947.70 C 575.20 947.70 574.90 947.70 574.50 947.70 C 570.90 947.40 567.60 945.70 565.30 943.00 L 275.50 602.60 C 273.20 599.90 272.00 596.40 272.30 592.80 C 272.60 589.20 274.30 585.90 277.00 583.60 L 291.30 571.40 C 294.00 569.10 297.50 567.90 301.10 568.20 C 304.70 568.50 308.00 570.20 310.30 572.90 L 600.00 913.20 C 604.80 918.90 604.10 927.40 598.50 932.20 L 584.20 944.40 C 581.80 946.60 578.80 947.70 575.60 947.70 Z M 284.60 594.90 L 574.30 935.20 C 574.70 935.60 575.10 935.70 575.30 935.70 C 575.50 935.70 576.00 935.70 576.40 935.40 L 590.70 923.20 C 591.30 922.70 591.40 921.70 590.90 921.10 L 301.20 580.80 C 300.80 580.40 300.40 580.30 300.20 580.30 C 300.00 580.30 299.50 580.30 299.10 580.60 L 284.80 592.80 C 284.40 593.10 284.30 593.60 284.30 593.80 C 284.30 594.00 284.30 594.50 284.60 594.90 L 284.60 594.90 Z" fill="#22286e" fill-rule="nonzero" group-id="3,23,75,116" node-id="1012" stroke="none" target-height="379.8" target-width="332.8" target-x="272" target-y="567.9"></path></g></g><g node-id="1164"><g node-id="1205"><path d="M 470.60 531.40 L 438.70 986.90 C 438.60 988.40 437.30 989.50 435.90 989.40 L 407.50 987.40 C 406.00 987.30 404.90 986.00 405.00 984.60 L 436.90 529.00 C 437.00 527.50 438.30 526.40 439.70 526.50 L 468.10 528.50 C 469.60 528.70 470.70 529.90 470.60 531.40 Z" fill="#ffffff" fill-rule="nonzero" group-id="3,23,76,117" node-id="1020" stroke="none" target-height="463.09998" target-width="65.80002" target-x="404.9" target-y="526.4"></path><path d="M 431.10 995.00 C 430.80 995.00 430.40 995.00 430.10 995.00 L 412.30 993.80 C 404.60 993.30 398.80 986.60 399.30 978.90 L 430.40 534.00 C 430.70 530.30 432.40 526.90 435.20 524.40 C 438.00 521.90 441.70 520.70 445.30 521.00 L 463.00 522.20 C 470.70 522.70 476.50 529.40 476.00 537.10 L 445.10 982.00 C 444.60 989.40 438.40 995.00 431.10 995.00 Z M 444.50 532.90 C 443.90 532.90 443.40 533.20 443.20 533.40 C 443.00 533.60 442.60 534.10 442.50 534.80 L 411.40 979.70 C 411.40 980.40 411.70 980.90 411.90 981.10 C 412.10 981.30 412.60 981.70 413.30 981.80 L 431.10 983.00 C 431.80 983.10 432.30 982.70 432.50 982.50 C 432.70 982.30 433.10 981.80 433.20 981.10 L 464.30 536.20 C 464.40 535.10 463.50 534.10 462.40 534.10 L 444.70 532.90 C 444.60 532.90 444.50 532.90 444.50 532.90 Z" fill="#22286e" fill-rule="nonzero" group-id="3,23,76,117" node-id="1022" stroke="none" target-height="474.3" target-width="77.70001" target-x="398.8" target-y="520.7"></path></g></g></g><g node-id="1112"><g node-id="1165"><path d="M 512.10 763.30 C 509.20 804.40 473.60 835.40 432.50 832.50 C 391.40 829.60 360.40 794.00 363.30 752.90 C 366.20 711.80 401.80 680.80 442.90 683.70 C 484.00 686.60 514.90 722.20 512.10 763.30 Z" fill="#ffffff" fill-rule="nonzero" group-id="3,24,77" node-id="1031" stroke="none" target-height="154.60004" target-width="154.50003" target-x="360.4" target-y="680.8"></path><path d="M 437.80 838.70 C 435.90 838.70 434.00 838.60 432.10 838.50 C 410.60 837.00 391.00 827.20 376.90 811.00 C 362.80 794.80 355.80 774.00 357.30 752.50 C 360.40 708.20 399.00 674.60 443.30 677.70 C 487.60 680.80 521.20 719.40 518.10 763.70 L 518.10 763.70 C 516.60 785.20 506.80 804.80 490.60 818.90 C 475.70 831.80 457.20 838.70 437.80 838.70 Z M 437.60 689.50 C 401.90 689.50 371.70 717.20 369.20 753.30 C 367.90 771.60 373.80 789.30 385.90 803.10 C 397.90 816.90 414.60 825.30 432.90 826.50 C 451.20 827.80 468.90 821.90 482.70 809.80 C 496.50 797.80 504.90 781.10 506.10 762.80 L 506.10 762.80 C 508.70 725.10 480.20 692.20 442.40 689.60 C 440.80 689.60 439.20 689.50 437.60 689.50 Z" fill="#22286e" fill-rule="nonzero" group-id="3,24,77" node-id="1033" stroke="none" target-height="164.10004" target-width="165.40002" target-x="355.8" target-y="674.6"></path></g></g><g node-id="1113"><g node-id="1166"><path d="M 471.40 760.50 C 470.10 779.00 454.10 792.90 435.60 791.60 C 417.10 790.30 403.20 774.30 404.50 755.80 C 405.80 737.30 421.80 723.40 440.30 724.70 C 458.70 726.00 472.60 742.00 471.40 760.50 Z" fill="#202020" fill-rule="nonzero" group-id="3,25,78" node-id="1041" stroke="none" target-height="69.5" target-width="69.399994" target-x="403.2" target-y="723.4"></path></g></g><g node-id="1114"><g node-id="1167"><g node-id="1206"><g node-id="1236"><path d="M 438.30 1082.60 C 438.30 1082.60 438.30 1082.60 438.30 1082.60 C 432.20 1082.60 426.00 1082.40 419.90 1082.10 C 418.30 1082.10 416.70 1082.00 415.20 1081.90 C 379.30 1079.40 344.60 1071.10 311.90 1057.20 C 311.00 1057.00 310.10 1056.60 309.00 1056.00 C 182.80 1001.50 104.40 872.70 114.00 735.40 C 125.30 573.70 255.60 444.10 417.00 434.00 C 423.80 433.50 430.80 433.30 437.90 433.30 C 445.30 433.30 452.80 433.60 460.40 434.10 C 464.70 434.40 468.90 434.80 473.10 435.30 C 556.60 444.30 632.50 484.90 686.60 549.50 C 740.90 614.30 767.60 696.40 761.70 780.70 C 749.90 949.90 607.80 1082.60 438.30 1082.60 Z M 429.90 964.80 C 432.70 964.90 435.50 965.00 438.20 965.00 C 546.30 965.00 636.80 880.40 644.40 772.50 C 652.10 662.30 572.40 565.60 462.90 552.40 C 462.90 552.40 462.90 552.40 462.90 552.40 C 462.70 552.40 462.40 552.40 462.20 552.40 C 458.90 552.00 455.60 551.60 452.30 551.40 C 447.40 551.10 442.50 550.90 437.60 550.90 C 329.40 550.90 238.70 635.60 231.10 743.60 C 225.10 829.30 273.60 910.90 351.80 946.50 C 361.80 951.10 372.00 954.80 382.20 957.60 C 395.50 961.30 409.30 963.70 423.30 964.60 C 424.80 964.70 426.30 964.80 427.70 964.80 C 428.00 964.80 428.70 964.80 428.80 964.80 C 429.10 964.80 429.30 964.80 429.60 964.90 C 429.70 964.80 429.80 964.80 429.90 964.80 Z" fill="#73c0d7" fill-rule="nonzero" group-id="3,26,79,118,148" node-id="1053" stroke="none" target-height="649.3" target-width="663.19995" target-x="104.4" target-y="433.3"></path></g></g><path d="M 438.00 439.30 C 445.30 439.30 452.70 439.60 460.10 440.10 C 464.30 440.40 468.40 440.80 472.50 441.30 C 641.80 459.60 767.80 608.80 755.80 780.30 C 744.00 948.20 604.00 1076.60 438.30 1076.60 C 432.30 1076.60 426.20 1076.40 420.10 1076.10 C 420.10 1076.10 420.10 1076.10 420.10 1076.10 C 418.60 1076.10 417.10 1076.00 415.70 1075.90 C 379.60 1073.40 345.40 1064.90 313.90 1051.50 C 313.20 1051.30 312.40 1051.00 311.70 1050.60 C 190.90 998.60 110.40 874.40 120.10 735.80 C 131.30 574.50 260.40 449.80 417.40 440.00 C 424.20 439.50 431.00 439.30 438.00 439.30 M 427.80 970.80 C 428.20 970.80 428.50 970.80 428.90 970.80 C 429.10 970.90 429.20 970.90 429.40 970.90 C 429.50 970.90 429.60 970.90 429.70 970.80 C 432.60 970.90 435.40 971.00 438.30 971.00 C 549.20 971.00 642.60 885.20 650.50 772.90 C 658.50 659.10 575.60 559.90 463.70 546.50 C 463.50 546.50 463.40 546.40 463.20 546.40 C 463.10 546.40 463.10 546.40 463.00 546.40 C 459.60 546.00 456.20 545.60 452.70 545.40 C 447.60 545.00 442.60 544.90 437.60 544.90 C 326.60 544.90 233.00 630.80 225.20 743.20 C 218.80 834.30 270.80 916.20 349.40 952.00 C 359.40 956.60 369.90 960.40 380.70 963.40 C 394.20 967.20 408.40 969.60 423.00 970.60 C 424.60 970.70 426.20 970.80 427.80 970.80 M 438.00 427.30 C 430.80 427.30 423.50 427.60 416.60 428.10 C 337.50 433.10 262.50 466.60 205.70 522.60 C 148.40 579.10 113.70 654.50 108.10 735.00 C 98.30 874.80 178.10 1006.00 306.50 1061.50 C 307.70 1062.10 308.80 1062.50 309.90 1062.90 C 343.10 1076.90 378.40 1085.30 414.80 1087.90 C 416.30 1088.00 418.00 1088.10 419.80 1088.10 C 426.00 1088.40 432.20 1088.60 438.40 1088.60 C 521.90 1088.60 601.60 1057.20 663.00 1000.20 C 724.70 942.90 761.90 865.10 767.80 781.10 C 773.80 695.20 746.70 611.60 691.40 545.70 C 636.30 479.90 559.00 438.70 473.90 429.40 C 469.70 428.90 465.30 428.50 461.00 428.20 C 453.20 427.60 445.50 427.30 438.00 427.30 L 438.00 427.30 Z M 427.80 958.80 C 426.60 958.80 425.20 958.70 423.80 958.60 C 410.20 957.60 396.80 955.30 383.90 951.80 C 374.00 949.10 364.10 945.50 354.40 941.00 C 278.40 906.40 231.30 827.20 237.10 743.90 C 244.40 638.90 332.50 556.70 437.60 556.70 C 442.30 556.70 447.10 556.90 451.90 557.20 C 455.10 557.40 458.30 557.70 461.50 558.20 C 461.80 558.20 462.20 558.30 462.50 558.30 C 568.70 571.20 646.00 665.00 638.50 772.00 C 631.20 876.80 543.20 959.00 438.30 959.00 C 435.60 959.00 432.90 958.90 430.20 958.80 C 430.20 958.80 430.20 958.80 430.20 958.80 C 429.80 958.80 429.40 958.70 429.00 958.70 C 428.90 958.70 428.70 958.70 428.60 958.70 C 428.20 958.80 428.00 958.80 427.80 958.80 L 427.80 958.80 Z" fill="#22286e" fill-rule="nonzero" group-id="3,26,79,119,149" node-id="1061" stroke="none" target-height="661.3" target-width="675.5" target-x="98.3" target-y="427.3"></path></g></g><g node-id="1115"><g node-id="1168"><path d="M 755.70 780.30 C 743.40 955.80 591.10 1088.30 415.60 1076.00 C 411.40 1075.70 413.50 1075.80 409.50 1075.30 C 583.10 1085.10 726.80 953.10 738.90 779.00 C 750.90 607.50 624.90 458.30 455.60 440.00 C 457.10 440.00 458.60 440.10 460.10 440.20 C 635.60 452.60 768.00 604.70 755.70 780.30 Z" fill="#1e7cb9" fill-rule="nonzero" group-id="3,27,80" node-id="1071" stroke="none" target-height="648.30005" target-width="358.5" target-x="409.5" target-y="440"></path></g></g><g node-id="1116"><g node-id="1169"><path d="M 257.30 493.10 C 307.50 459.40 367.80 439.90 432.00 439.20 C 364.60 443.40 313.50 477.00 263.40 518.40 C 228.50 547.10 199.50 583.20 179.00 624.40 C 160.20 661.70 148.40 703.10 145.30 746.90 C 135.60 885.50 204.50 1004.10 325.20 1056.10 C 195.50 1008.50 107.80 878.00 117.90 733.30 C 121.70 679.40 138.60 629.90 165.30 587.40 C 189.00 549.70 220.40 517.60 257.30 493.10 Z" fill="#ffffff" fill-rule="nonzero" group-id="3,28,81" node-id="1079" stroke="none" target-height="616.89996" target-width="324.2" target-x="107.8" target-y="439.2"></path></g></g><path d="M 432.10 439.30 C 431.90 440.30 432.00 439.90 432.00 439.30 L 432.10 439.30 Z" fill="#eae9e9" fill-rule="nonzero" group-id="3,29,82" node-id="1087" stroke="none" target-height="1" target-width="0.2000122" target-x="431.9" target-y="439.3"></path></g></svg>