<?xml version="1.0" standalone="no"?><!DOCTYPE svg PUBLIC "-//W3C//DTD SVG 1.1//EN" "http://www.w3.org/Graphics/SVG/1.1/DTD/svg11.dtd"><svg height="1200" node-id="1" sillyvg="true" template-height="1200" template-width="1200" version="1.1" viewBox="0 0 1200 1200" width="1200" xmlns="http://www.w3.org/2000/svg" xmlns:xlink="http://www.w3.org/1999/xlink"><defs node-id="247"></defs><g node-id="880"><g node-id="882"><g node-id="890"><g node-id="925"><path d="M 305.80 417.10 C 299.70 417.10 294.00 414.60 289.30 409.90 C 280.70 401.20 276.30 385.10 276.60 363.60 C 277.50 300.00 223.00 136.20 222.50 134.60 C 221.20 130.80 222.60 126.60 225.80 124.30 C 227.40 123.10 229.30 122.50 231.20 122.50 C 233.10 122.50 235.00 123.10 236.60 124.30 C 327.20 190.00 358.30 289.70 348.80 354.60 C 343.50 391.40 325.80 417.10 305.80 417.10 C 305.80 417.10 305.80 417.10 305.80 417.10 Z" fill="#1e7cb9" fill-rule="nonzero" group-id="1,3,11,46" node-id="259" stroke="none" target-height="294.6" target-width="137.09999" target-x="221.2" target-y="122.5"></path></g><path d="M 231.20 131.70 C 316.20 193.30 349.20 288.30 339.70 353.30 C 334.50 388.50 318.90 408.00 305.80 408.00 C 294.70 408.00 285.40 394.00 285.80 363.80 C 286.70 297.90 231.20 131.70 231.20 131.70 M 231.20 113.30 C 227.40 113.30 223.60 114.50 220.30 116.90 C 213.90 121.60 211.20 130.00 213.70 137.60 C 214.20 139.20 268.20 301.60 267.40 363.60 C 267.10 388.00 272.20 405.80 282.80 416.50 C 289.10 422.90 297.30 426.40 305.80 426.40 C 330.80 426.40 351.80 398.10 357.90 356.00 C 367.80 288.40 335.70 184.80 242.00 116.90 C 238.80 114.50 235.00 113.30 231.20 113.30 L 231.20 113.30 Z" fill="#22286e" fill-rule="nonzero" group-id="1,3,11,47" node-id="264" stroke="none" target-height="313.09998" target-width="156.59999" target-x="211.2" target-y="113.3"></path></g><g node-id="891"><g node-id="927"><path d="M 369.50 508.50 C 332.40 508.50 290.60 494.10 286.40 462.60 C 286.30 461.80 286.30 461.00 286.40 460.20 C 287.30 453.00 310.20 283.40 425.80 271.50 C 442.20 269.80 457.40 268.90 471.00 268.90 C 542.40 268.90 553.50 292.60 555.00 297.30 C 555.80 299.80 555.50 302.40 554.20 304.70 C 552.90 306.90 550.70 308.50 548.20 309.10 C 546.80 309.40 408.10 340.90 412.30 410.40 C 413.20 425.20 412.50 481.20 404.60 496.90 C 400.80 504.60 388.90 508.50 369.50 508.50 Z" fill="#1e7cb9" fill-rule="nonzero" group-id="1,3,12,48" node-id="272" stroke="none" target-height="239.6" target-width="269.5" target-x="286.3" target-y="268.9"></path></g><path d="M 471.00 278.20 C 539.30 278.20 546.20 300.20 546.20 300.20 C 546.20 300.20 398.40 332.70 403.10 411.00 C 404.10 427.80 402.70 480.20 396.40 492.80 C 394.30 496.90 383.40 499.30 369.40 499.30 C 340.70 499.30 299.10 488.90 295.40 461.40 C 295.40 461.40 317.00 292.00 426.70 280.70 C 443.80 278.90 458.40 278.20 471.00 278.20 M 471.00 259.80 C 471.00 259.80 471.00 259.80 471.00 259.80 C 457.10 259.80 441.60 260.70 424.90 262.40 C 302.10 275.00 278.20 451.60 277.30 459.10 C 277.10 460.70 277.10 462.30 277.30 463.90 C 282.30 501.10 327.20 517.80 369.50 517.80 C 393.00 517.80 407.20 512.40 412.90 501.20 C 422.90 481.50 422.00 417.90 421.60 410.00 C 418.50 358.90 515.90 325.80 550.30 318.20 C 555.30 317.10 559.70 313.90 562.30 309.40 C 564.90 304.90 565.50 299.60 563.90 294.60 C 560.40 284.10 544.80 259.80 471.00 259.80 L 471.00 259.80 Z" fill="#22286e" fill-rule="nonzero" group-id="1,3,12,49" node-id="277" stroke="none" target-height="258" target-width="288.4" target-x="277.1" target-y="259.8"></path></g><g node-id="892"><g node-id="929"><path d="M 298.20 516.20 C 272.70 516.20 238.40 494.90 230.30 474.00 C 230.10 473.50 230.00 473.10 229.90 472.60 C 229.30 469.90 215.00 405.30 158.10 405.30 C 151.30 405.30 144.10 406.20 136.60 408.00 C 123.40 411.20 113.30 412.70 105.60 412.70 C 105.60 412.70 105.60 412.70 105.60 412.70 C 88.00 412.70 85.10 403.30 84.80 399.20 C 82.80 378.80 132.00 351.30 156.90 346.40 C 163.00 345.20 170.20 344.60 178.30 344.60 C 225.90 344.60 319.70 367.10 334.00 452.40 C 338.00 475.90 335.30 493.40 326.00 504.30 C 319.40 512.10 309.80 516.20 298.20 516.20 Z" fill="#1e7cb9" fill-rule="nonzero" group-id="1,3,13,50" node-id="285" stroke="none" target-height="171.6" target-width="255.2" target-x="82.8" target-y="344.6"></path></g><path d="M 178.20 353.80 C 226.80 353.80 312.00 377.70 324.90 453.90 C 331.60 493.60 317.10 507.00 298.20 507.00 C 275.10 507.00 245.30 487.10 238.90 470.70 C 238.90 470.70 223.30 396.10 158.10 396.10 C 150.80 396.10 143.00 397.00 134.40 399.10 C 121.40 402.20 112.00 403.60 105.60 403.60 C 69.70 403.60 124.80 362.20 158.60 355.50 C 164.00 354.40 170.70 353.80 178.20 353.80 M 178.20 335.40 C 178.20 335.40 178.20 335.40 178.20 335.40 C 169.50 335.40 161.80 336.10 155.10 337.40 C 129.40 342.40 72.80 371.30 75.60 400.10 C 76.00 403.70 79.10 421.90 105.60 421.90 C 114.00 421.90 124.80 420.30 138.70 416.90 C 145.50 415.30 152.00 414.40 158.10 414.40 C 207.30 414.40 220.40 472.00 220.90 474.40 C 221.10 475.30 221.40 476.30 221.70 477.20 C 231.20 501.90 268.40 525.30 298.10 525.30 C 312.50 525.30 324.60 520.10 333.00 510.10 C 344.10 497.00 347.50 477.00 343.00 450.70 C 336.40 411.40 312.40 379.60 273.60 358.90 C 246.00 344.30 210.30 335.40 178.20 335.40 L 178.20 335.40 Z" fill="#22286e" fill-rule="nonzero" group-id="1,3,13,51" node-id="290" stroke="none" target-height="189.9" target-width="277.8" target-x="69.7" target-y="335.4"></path></g><g node-id="893"><g node-id="931"><path d="M 326.70 515.20 C 306.10 515.20 290.90 486.40 278.90 424.60 C 245.30 251.30 356.20 195.20 425.40 177.20 C 441.90 172.90 457.90 170.70 473.10 170.70 C 525.80 170.70 551.80 196.60 552.90 197.70 C 555.40 200.20 556.20 204.00 555.00 207.30 C 553.80 210.60 550.80 213.00 547.20 213.30 C 546.60 213.40 484.30 219.60 455.40 234.10 C 339.00 292.50 366.60 431.30 366.80 432.70 C 366.90 433.00 366.90 433.40 367.00 433.70 C 368.90 454.50 360.10 489.70 345.50 505.70 C 338.30 513.60 331.30 515.20 326.70 515.20 C 326.70 515.20 326.70 515.20 326.70 515.20 Z" fill="#73c0d7" fill-rule="nonzero" group-id="1,3,14,52" node-id="298" stroke="none" target-height="344.5" target-width="310.90002" target-x="245.3" target-y="170.7"></path></g><path d="M 473.10 179.90 C 522.60 179.90 546.30 204.10 546.30 204.10 C 546.30 204.10 482.00 210.40 451.30 225.80 C 327.20 288.00 357.90 434.60 357.90 434.60 C 360.10 459.10 345.40 506.00 326.80 506.00 C 314.40 506.00 300.10 485.10 288.10 422.80 C 257.70 267.10 347.30 207.00 427.70 186.10 C 444.70 181.70 459.80 179.90 473.10 179.90 M 473.10 161.50 C 457.10 161.50 440.30 163.80 423.10 168.30 C 370.80 181.90 328.90 207.60 301.80 242.70 C 266.00 289.10 255.30 350.90 269.90 426.40 C 283.10 494.20 300.60 524.50 326.70 524.50 C 333.20 524.50 342.90 522.30 352.30 512.00 C 369.00 493.70 378.30 455.70 376.20 432.90 C 376.10 432.20 376.00 431.50 375.90 430.80 C 375.80 430.50 369.00 396.10 376.40 355.60 C 386.00 303.30 413.90 265.20 459.60 242.30 C 482.30 230.90 531.30 224.10 548.20 222.50 C 555.30 221.80 561.30 217.10 563.70 210.50 C 566.10 203.80 564.50 196.40 559.50 191.30 C 558.30 190.10 529.60 161.50 473.10 161.50 L 473.10 161.50 Z" fill="#22286e" fill-rule="nonzero" group-id="1,3,14,53,122" node-id="305" stroke="none" target-height="363" target-width="310.8" target-x="255.3" target-y="161.5"></path></g><g node-id="894"><g node-id="933"><path d="M 309.90 425.80 C 285.00 425.80 259.30 379.20 242.10 340.00 C 195.70 234.30 69.10 222.50 67.80 222.40 C 63.50 222.00 60.00 218.70 59.40 214.40 C 58.80 210.10 61.30 206.00 65.40 204.50 C 95.90 193.50 124.60 187.90 150.70 187.90 C 237.70 187.90 298.80 248.40 327.40 362.90 C 331.10 377.60 335.60 404.40 324.80 418.30 C 321.10 423.20 315.80 425.80 309.90 425.80 C 309.90 425.80 309.90 425.80 309.90 425.80 Z" fill="#1e7cb9" fill-rule="nonzero" group-id="1,3,15,54" node-id="314" stroke="none" target-height="237.9" target-width="276.80002" target-x="58.8" target-y="187.9"></path></g><path d="M 150.70 197.20 C 267.50 197.20 305.30 312.50 318.50 365.20 C 326.20 396.10 321.90 416.60 309.90 416.60 C 297.20 416.60 275.80 393.80 250.50 336.30 C 201.30 224.40 68.60 213.20 68.60 213.20 C 99.60 202.00 126.80 197.20 150.70 197.20 M 150.70 178.80 C 123.50 178.80 93.80 184.60 62.30 195.90 C 54.20 198.80 49.20 207.00 50.30 215.60 C 51.40 224.20 58.40 230.80 67.00 231.50 C 68.20 231.60 189.60 243.40 233.60 343.70 C 246.00 372.00 258.40 394.10 270.30 409.30 C 283.80 426.60 296.70 434.90 309.80 434.90 C 318.60 434.90 326.50 431.00 332.00 423.90 C 344.50 407.90 341.20 380.70 336.30 360.70 C 325.20 316.20 309.10 279.20 288.30 250.60 C 253.80 203.00 207.50 178.80 150.70 178.80 L 150.70 178.80 Z" fill="#22286e" fill-rule="nonzero" group-id="1,3,15,55" node-id="319" stroke="none" target-height="256.09998" target-width="295.3" target-x="49.2" target-y="178.8"></path></g><g node-id="895"><g node-id="935"><path d="M 351.70 455.30 C 331.00 455.30 261.00 451.30 231.10 400.10 C 187.70 325.90 66.20 298.10 65.00 297.80 C 60.90 296.90 58.00 293.40 57.80 289.20 C 57.60 285.00 60.30 281.30 64.30 280.00 C 84.20 273.80 104.30 270.70 124.10 270.70 C 270.20 270.70 362.10 434.50 365.90 441.40 C 367.40 444.20 367.40 447.50 365.90 450.30 C 364.40 453.10 361.60 454.90 358.40 455.10 C 358.40 455.10 355.90 455.30 351.70 455.30 Z" fill="#73c0d7" fill-rule="nonzero" group-id="1,3,16,56" node-id="327" stroke="none" target-height="184.59998" target-width="309.8" target-x="57.6" target-y="270.7"></path></g><path d="M 124.10 279.90 C 266.40 279.90 357.80 445.90 357.80 445.90 C 357.80 445.90 355.60 446.00 351.70 446.00 C 331.50 446.00 266.40 442.20 239.00 395.30 C 193.10 316.90 67.00 288.80 67.00 288.80 C 86.80 282.70 105.80 279.90 124.10 279.90 M 124.10 261.50 C 103.30 261.50 82.30 264.80 61.60 271.20 C 53.60 273.70 48.30 281.20 48.70 289.50 C 49.00 297.80 54.90 304.90 63.10 306.70 C 64.30 307.00 182.10 334.10 223.30 404.60 C 255.70 460.10 329.90 464.40 351.90 464.40 C 356.20 464.40 358.80 464.20 359.10 464.20 C 365.40 463.80 371.00 460.20 374.10 454.70 C 377.10 449.20 377.10 442.50 374.10 437.00 C 370.00 429.90 275.50 261.50 124.10 261.50 L 124.10 261.50 Z" fill="#22286e" fill-rule="nonzero" group-id="1,3,16,57,123" node-id="334" stroke="none" target-height="202.9" target-width="328.80002" target-x="48.3" target-y="261.5"></path></g><g node-id="896"><g node-id="937"><path d="M 134.60 532.40 C 130.90 532.40 127.50 530.50 125.70 527.30 C 123.60 523.70 122.40 517.80 131.00 502.80 C 145.50 477.60 175.70 448.30 213.20 448.30 C 217.40 448.30 221.70 448.70 225.80 449.40 C 269.70 457.10 298.60 476.30 299.50 498.20 C 300.00 511.20 290.20 521.70 273.20 526.20 C 272.40 526.40 271.60 526.50 270.90 526.50 C 269.90 526.50 269.00 526.30 268.00 526.00 C 267.60 525.90 224.40 511.90 188.30 511.90 C 169.50 511.90 156.00 515.80 149.50 523.10 C 143.50 529.70 139.20 532.40 134.60 532.40 C 134.60 532.40 134.60 532.40 134.60 532.40 Z" fill="#73c0d7" fill-rule="nonzero" group-id="1,3,17,58" node-id="343" stroke="none" target-height="84.10004" target-width="177.6" target-x="122.4" target-y="448.3"></path></g><path d="M 213.10 457.50 C 216.70 457.50 220.40 457.80 224.10 458.50 C 291.80 470.40 307.80 507.60 270.80 517.30 C 270.80 517.30 226.30 502.70 188.20 502.70 C 169.40 502.70 152.10 506.30 142.50 516.90 C 138.50 521.30 135.90 523.20 134.50 523.20 C 126.40 523.20 160.80 457.50 213.10 457.50 M 213.20 439.10 C 213.20 439.10 213.10 439.10 213.20 439.10 C 181.30 439.10 157.10 457.40 142.40 472.80 C 129.20 486.50 115.10 507.60 115.10 521.40 C 115.10 532.70 123.70 541.60 134.70 541.60 C 144.00 541.60 150.90 535.30 156.40 529.20 C 161.00 524.00 172.70 521.10 188.40 521.10 C 223.00 521.10 264.90 534.70 265.30 534.80 C 267.20 535.40 269.10 535.70 271.00 535.70 C 272.60 535.70 274.10 535.50 275.70 535.10 C 301.00 528.50 309.40 511.50 308.90 497.90 C 307.80 471.10 276.60 449.10 227.60 440.40 C 222.70 439.50 217.90 439.10 213.20 439.10 L 213.20 439.10 Z" fill="#22286e" fill-rule="nonzero" group-id="1,3,17,59,124" node-id="350" stroke="none" target-height="102.49997" target-width="194.29999" target-x="115.1" target-y="439.1"></path></g><g node-id="897"><g node-id="939"><path d="M 343.40 510.00 C 311.70 510.00 302.60 497.60 300.50 487.20 C 293.90 453.80 358.40 400.10 403.50 381.60 C 414.10 377.20 425.80 375.00 438.20 375.00 C 498.00 375.00 558.50 425.20 561.00 427.40 C 564.10 430.00 565.10 434.20 563.60 438.00 C 562.20 441.50 558.80 443.70 555.10 443.70 C 554.80 443.70 554.60 443.70 554.30 443.70 C 554.10 443.70 534.30 442.10 460.40 437.90 C 458.50 437.80 456.70 437.70 454.90 437.70 C 392.20 437.70 370.00 500.10 369.10 502.80 C 367.90 506.20 364.90 508.60 361.40 509.00 C 354.90 509.60 348.80 510.00 343.40 510.00 L 343.40 510.00 Z" fill="#1e7cb9" fill-rule="nonzero" group-id="1,3,18,60" node-id="359" stroke="none" target-height="135" target-width="271.19998" target-x="293.9" target-y="375"></path></g><path d="M 438.20 384.30 C 495.30 384.30 555.10 434.50 555.10 434.50 C 555.10 434.50 535.90 432.90 461.00 428.70 C 458.90 428.60 456.90 428.50 455.00 428.50 C 384.70 428.50 360.50 499.80 360.50 499.80 C 354.10 500.50 348.40 500.80 343.40 500.80 C 260.70 500.80 346.70 414.90 407.00 390.10 C 417.00 386.00 427.60 384.30 438.20 384.30 M 438.20 365.90 C 424.50 365.90 411.70 368.30 400.00 373.10 C 358.70 390.10 283.10 446.30 291.50 489.00 C 293.70 500.30 303.40 519.20 343.40 519.20 C 349.20 519.20 355.60 518.80 362.50 518.10 C 369.60 517.30 375.70 512.50 378.00 505.70 C 378.80 503.40 399.10 446.90 455.10 446.90 C 456.70 446.90 458.40 446.90 460.10 447.00 C 533.70 451.10 553.60 452.80 553.80 452.80 C 554.30 452.80 554.80 452.90 555.30 452.90 C 562.70 452.90 569.50 448.40 572.30 441.50 C 575.40 434.10 573.30 425.60 567.10 420.40 C 564.30 418.20 501.30 365.90 438.20 365.90 L 438.20 365.90 Z" fill="#22286e" fill-rule="nonzero" group-id="1,3,18,61" node-id="364" stroke="none" target-height="153.30002" target-width="314.7" target-x="260.7" target-y="365.9"></path></g><g node-id="898"><g node-id="941"><path d="M 337.10 565.00 C 320.80 565.00 301.60 552.90 280.20 529.00 C 279.20 527.90 278.40 526.50 278.10 525.00 C 277.90 524.10 256.90 436.80 218.40 410.90 C 215.10 408.70 206.20 402.70 208.90 393.90 C 210.10 390.10 213.60 385.50 223.80 385.50 C 246.20 385.50 317.70 407.00 354.70 448.60 C 371.30 467.30 378.50 487.40 376.10 508.40 C 371.70 546.00 358.60 565.00 337.10 565.00 Z" fill="#73c0d7" fill-rule="nonzero" group-id="1,3,19,62" node-id="372" stroke="none" target-height="179.5" target-width="172.3" target-x="206.2" target-y="385.5"></path></g><path d="M 223.80 394.70 C 253.00 394.70 375.20 436.70 367.00 507.30 C 362.70 544.10 350.70 555.80 337.20 555.80 C 318.00 555.80 295.60 532.30 287.10 522.90 C 287.10 522.90 265.50 431.50 223.60 403.30 C 214.90 397.50 216.30 394.70 223.80 394.70 M 223.80 376.30 C 223.80 376.30 223.80 376.30 223.80 376.30 C 206.50 376.30 201.40 386.70 200.10 391.20 C 198.00 398.20 198.50 408.60 213.30 418.50 C 242.80 438.40 263.70 503.70 269.20 527.10 C 269.90 530.10 271.40 532.90 273.40 535.20 C 296.70 561.10 318.10 574.20 337.20 574.20 C 355.70 574.20 379.10 563.00 385.30 509.40 C 388.00 486.00 379.80 462.90 361.60 442.40 C 325.00 401.40 251.60 376.30 223.80 376.30 L 223.80 376.30 Z" fill="#22286e" fill-rule="nonzero" group-id="1,3,19,63,125" node-id="379" stroke="none" target-height="197.90002" target-width="190" target-x="198" target-y="376.3"></path></g></g><g node-id="883"><g node-id="899"><path d="M 334.70 968.10 C 330.10 968.10 325.80 967.90 321.70 967.60 C 283.10 964.60 201.50 901.50 178.50 763.50 C 152.80 609.20 191.20 542.10 216.30 515.90 C 249.00 481.70 302.90 479.20 315.60 479.10 C 322.90 476.20 348.40 467.10 377.10 467.10 C 393.50 467.10 408.50 470.10 421.50 475.90 C 454.70 490.80 515.50 538.60 549.50 691.20 C 580.00 827.80 528.00 916.90 493.40 934.20 C 462.60 949.60 418.50 957.10 409.00 958.60 C 399.00 960.90 365.60 968.10 334.70 968.10 C 334.70 968.10 334.70 968.10 334.70 968.10 Z" fill="#e58456" fill-rule="nonzero" group-id="1,4,20" node-id="389" stroke="none" target-height="500.99997" target-width="427.2" target-x="152.8" target-y="467.1"></path></g><path d="M 377.10 476.20 C 390.50 476.20 404.60 478.30 417.80 484.20 C 462.80 504.40 512.10 565.30 540.60 693.10 C 569.10 821.00 522.30 909.40 489.30 925.90 C 457.90 941.60 411.60 948.80 407.30 949.50 C 403.50 950.40 367.30 958.90 334.70 958.90 C 330.50 958.90 326.40 958.80 322.40 958.40 C 285.60 955.50 209.10 891.10 187.50 761.90 C 166.00 632.70 188.90 557.80 223.00 522.20 C 254.30 489.60 307.90 488.20 316.60 488.20 C 317.00 488.20 317.30 488.20 317.50 488.20 C 320.60 486.90 346.90 476.20 377.10 476.20 M 377.10 457.80 C 348.60 457.80 323.70 466.10 313.80 469.80 C 297.70 470.10 243.50 474.00 209.60 509.40 C 183.30 537.00 143.00 606.70 169.40 765.00 C 191.40 897.10 271.60 972.90 321.00 976.80 C 325.30 977.10 329.90 977.30 334.70 977.30 C 366.40 977.30 400.10 970.10 410.80 967.50 C 421.20 965.90 465.80 958.20 497.50 942.30 C 541.80 920.10 587.70 819.80 558.50 689.10 C 523.70 532.60 460.10 483.00 425.30 467.40 C 411.10 461.00 394.90 457.80 377.10 457.80 L 377.10 457.80 Z" fill="#22286e" fill-rule="nonzero" group-id="1,4,21,64" node-id="396" stroke="none" target-height="519.5" target-width="444.7" target-x="143" target-y="457.8"></path></g><g node-id="884"><path d="M 417.80 484.20 C 408.50 480.00 398.70 477.80 389.00 476.80 C 421.90 512.80 453.00 572.90 473.80 666.20 C 504.60 804.10 454.10 899.50 418.50 917.30 C 384.60 934.30 334.70 942.00 330.00 942.70 C 327.70 943.20 314.10 946.40 296.40 949.10 C 306.20 954.60 315.10 957.70 322.50 958.30 C 357.50 961.10 403.10 950.30 407.40 949.30 C 411.80 948.60 458.00 941.50 489.40 925.70 C 522.40 909.20 569.20 820.80 540.70 692.90 C 512.10 565.30 462.80 504.40 417.80 484.20 Z" fill="#dd4d2d" fill-rule="nonzero" group-id="1,5" node-id="403" stroke="none" target-height="484.3" target-width="272.80002" target-x="296.4" target-y="476.8"></path></g><g node-id="885"><g node-id="901"><g node-id="944"><path d="M 261.40 602.00 C 253.40 602.00 246.50 597.80 242.50 590.50 C 241.90 589.50 241.80 588.30 242.10 587.20 C 245.30 574.60 252.80 539.40 249.40 527.70 C 248.40 524.10 248.00 523.00 249.40 521.10 C 250.30 519.90 251.60 519.30 253.10 519.30 C 256.50 519.30 257.20 521.60 258.40 525.40 C 270.30 563.70 275.50 576.70 277.80 580.90 C 280.20 585.20 280.20 589.80 277.80 593.80 C 274.80 598.70 268.40 602.00 261.40 602.00 Z" fill="#dd4d2d" fill-rule="nonzero" group-id="1,6,22,65" node-id="412" stroke="none" target-height="82.70001" target-width="38.40001" target-x="241.8" target-y="519.3"></path></g><path d="M 253.10 523.80 C 253.20 523.80 267.70 571.80 273.80 583.00 C 278.10 590.70 270.20 597.40 261.50 597.40 C 256.00 597.40 250.20 594.80 246.60 588.30 C 246.60 588.30 258.40 541.90 253.90 526.40 C 253.30 524.60 253.10 523.80 253.10 523.80 M 253.10 514.60 C 250.20 514.60 247.50 516.00 245.70 518.30 C 242.90 522.00 243.90 525.20 245.00 528.90 C 247.60 537.90 242.30 567.70 237.60 586.00 C 237.00 588.20 237.30 590.60 238.40 592.70 C 243.10 601.40 251.70 606.60 261.40 606.60 C 270.00 606.60 277.90 602.40 281.70 596.00 C 284.90 590.60 284.90 584.20 281.80 578.50 C 279.60 574.60 274.60 561.90 262.80 523.90 C 261.60 520.30 259.90 514.60 253.10 514.60 L 253.10 514.60 Z" fill="#22286e" fill-rule="nonzero" group-id="1,6,22,66" node-id="417" stroke="none" target-height="92" target-width="47.899994" target-x="237" target-y="514.6"></path></g><g node-id="902"><g node-id="946"><path d="M 352.90 651.00 C 344.90 651.00 338.00 646.80 334.00 639.50 C 333.40 638.50 333.30 637.30 333.60 636.20 C 336.80 623.60 344.30 588.40 340.90 576.70 C 339.90 573.20 339.50 572.00 340.90 570.10 C 341.80 568.90 343.10 568.30 344.60 568.30 C 348.00 568.30 348.70 570.60 349.90 574.50 C 361.80 612.80 367.00 625.70 369.30 629.90 C 371.70 634.20 371.70 638.80 369.30 642.80 C 366.30 647.70 359.90 651.00 352.90 651.00 Z" fill="#dd4d2d" fill-rule="nonzero" group-id="1,6,23,67" node-id="425" stroke="none" target-height="82.70001" target-width="38.400024" target-x="333.3" target-y="568.3"></path></g><path d="M 344.60 572.80 C 344.70 572.80 359.20 620.80 365.30 632.00 C 369.60 639.70 361.70 646.40 352.90 646.40 C 347.40 646.40 341.60 643.80 338.00 637.30 C 338.00 637.30 349.80 590.90 345.30 575.40 C 344.80 573.60 344.60 572.80 344.60 572.80 M 344.60 563.60 C 341.70 563.60 339.00 565.00 337.20 567.30 C 334.50 571.00 335.40 574.20 336.50 577.90 C 339.10 586.90 333.80 616.70 329.10 635.00 C 328.50 637.20 328.80 639.60 329.90 641.70 C 334.60 650.40 343.20 655.60 352.90 655.60 C 361.50 655.60 369.40 651.40 373.20 645.00 C 376.40 639.60 376.40 633.30 373.30 627.50 C 371.10 623.60 366.10 610.90 354.30 573.00 C 353.20 569.30 351.40 563.60 344.60 563.60 L 344.60 563.60 Z" fill="#22286e" fill-rule="nonzero" group-id="1,6,23,68" node-id="430" stroke="none" target-height="92" target-width="47.899994" target-x="328.5" target-y="563.6"></path></g><g node-id="903"><g node-id="948"><path d="M 211.70 698.50 C 203.70 698.50 196.80 694.30 192.80 687.00 C 192.20 686.00 192.10 684.80 192.40 683.70 C 195.60 671.10 203.10 635.90 199.70 624.20 C 198.70 620.70 198.30 619.50 199.70 617.60 C 200.60 616.40 201.90 615.80 203.40 615.80 C 206.80 615.80 207.50 618.20 208.60 621.70 C 220.50 660.10 225.80 673.10 228.10 677.30 C 230.50 681.60 230.50 686.20 228.10 690.20 C 225.10 695.20 218.70 698.50 211.70 698.50 Z" fill="#dd4d2d" fill-rule="nonzero" group-id="1,6,24,69" node-id="438" stroke="none" target-height="82.70001" target-width="38.399994" target-x="192.1" target-y="615.8"></path></g><path d="M 203.40 620.30 C 203.50 620.30 218.00 668.30 224.10 679.50 C 228.40 687.20 220.50 693.90 211.70 693.90 C 206.20 693.90 200.40 691.30 196.80 684.80 C 196.80 684.80 208.60 638.40 204.10 622.90 C 203.60 621.10 203.40 620.30 203.40 620.30 M 203.40 611.10 C 200.40 611.10 197.60 612.60 195.80 615.10 C 193.30 618.70 194.20 621.70 195.30 625.50 C 197.90 634.50 192.60 664.30 187.90 682.60 C 187.30 684.80 187.60 687.20 188.70 689.30 C 193.40 698.00 202.00 703.20 211.70 703.20 C 220.30 703.20 228.20 699.00 232.00 692.60 C 235.20 687.20 235.20 680.90 232.10 675.10 C 230.30 671.80 225.40 660.40 213.00 620.40 C 211.90 616.70 210.20 611.10 203.40 611.10 L 203.40 611.10 Z" fill="#22286e" fill-rule="nonzero" group-id="1,6,24,70" node-id="443" stroke="none" target-height="92.10004" target-width="47.899994" target-x="187.3" target-y="611.1"></path></g><g node-id="904"><g node-id="950"><path d="M 416.40 582.80 C 408.40 582.80 401.50 578.60 397.50 571.30 C 396.90 570.30 396.80 569.10 397.10 568.00 C 400.30 555.40 407.80 520.20 404.40 508.50 C 403.40 504.90 403.00 503.80 404.40 501.90 C 405.30 500.70 406.60 500.10 408.10 500.10 C 411.50 500.10 412.20 502.50 413.30 506.00 C 425.20 544.40 430.50 557.40 432.80 561.60 C 435.20 565.90 435.20 570.50 432.80 574.50 C 429.70 579.60 423.30 582.80 416.40 582.80 Z" fill="#dd4d2d" fill-rule="nonzero" group-id="1,6,25,71" node-id="451" stroke="none" target-height="82.69998" target-width="38.400024" target-x="396.8" target-y="500.1"></path></g><path d="M 408.00 504.70 C 408.10 504.70 422.60 552.70 428.70 563.90 C 433.00 571.60 425.10 578.30 416.40 578.30 C 410.90 578.30 405.10 575.70 401.50 569.20 C 401.50 569.20 413.30 522.80 408.80 507.30 C 408.20 505.50 408.00 504.70 408.00 504.70 M 408.00 495.50 C 405.00 495.50 402.20 497.00 400.50 499.40 C 398.00 503.00 398.80 506.00 399.90 509.80 C 402.50 518.80 397.20 548.60 392.50 566.90 C 391.90 569.10 392.20 571.50 393.30 573.60 C 398.00 582.30 406.60 587.50 416.30 587.50 C 424.90 587.50 432.80 583.30 436.60 576.90 C 439.80 571.50 439.80 565.10 436.70 559.40 C 434.90 556.20 430.10 544.70 417.60 504.70 C 416.50 501.00 414.80 495.50 408.00 495.50 L 408.00 495.50 Z" fill="#22286e" fill-rule="nonzero" group-id="1,6,25,72" node-id="456" stroke="none" target-height="92" target-width="47.899994" target-x="391.9" target-y="495.5"></path></g><g node-id="905"><g node-id="952"><path d="M 284.70 753.90 C 276.70 753.90 269.80 749.70 265.80 742.40 C 265.20 741.40 265.10 740.20 265.40 739.10 C 268.60 726.50 276.10 691.30 272.70 679.60 C 271.70 676.00 271.30 674.80 272.70 673.00 C 273.60 671.80 274.90 671.20 276.40 671.20 C 279.80 671.20 280.50 673.40 281.70 677.40 C 291.30 708.10 297.80 726.70 301.10 732.70 C 303.50 737.00 303.50 741.60 301.10 745.60 C 298.10 750.60 291.60 753.90 284.70 753.90 Z" fill="#dd4d2d" fill-rule="nonzero" group-id="1,6,26,73" node-id="464" stroke="none" target-height="82.70001" target-width="38.399994" target-x="265.1" target-y="671.2"></path></g><path d="M 276.30 675.70 C 276.40 675.70 290.90 723.70 297.00 734.90 C 301.30 742.60 293.40 749.30 284.60 749.30 C 279.10 749.30 273.30 746.70 269.70 740.20 C 269.70 740.20 281.50 693.80 277.00 678.30 C 276.60 676.50 276.30 675.70 276.30 675.70 M 276.30 666.50 C 273.30 666.50 270.50 667.90 268.80 670.40 C 266.20 674.00 267.10 677.20 268.20 680.90 C 270.80 689.90 265.50 719.70 260.90 738.00 C 260.30 740.20 260.60 742.60 261.70 744.70 C 266.40 753.40 275.00 758.60 284.60 758.60 C 293.20 758.60 301.10 754.40 305.00 748.00 C 308.20 742.60 308.20 736.30 305.10 730.50 C 302.90 726.60 297.90 713.90 286.10 676.10 C 284.80 672.00 283.10 666.50 276.30 666.50 L 276.30 666.50 Z" fill="#22286e" fill-rule="nonzero" group-id="1,6,26,74" node-id="469" stroke="none" target-height="92.099976" target-width="47.900024" target-x="260.3" target-y="666.5"></path></g><g node-id="906"><g node-id="954"><path d="M 445.40 733.60 C 437.40 733.60 430.50 729.40 426.50 722.10 C 425.90 721.10 425.80 719.90 426.10 718.80 C 429.30 706.20 436.80 671.00 433.40 659.30 C 432.40 655.80 432.00 654.60 433.40 652.70 C 434.30 651.50 435.60 650.90 437.10 650.90 C 440.50 650.90 441.20 653.30 442.30 656.80 C 454.20 695.20 459.50 708.20 461.80 712.40 C 464.20 716.70 464.20 721.30 461.80 725.30 C 458.80 730.30 452.40 733.60 445.40 733.60 Z" fill="#dd4d2d" fill-rule="nonzero" group-id="1,6,27,75" node-id="477" stroke="none" target-height="82.69995" target-width="38.400024" target-x="425.8" target-y="650.9"></path></g><path d="M 437.10 655.40 C 437.20 655.40 451.70 703.40 457.80 714.60 C 462.10 722.30 454.20 729.00 445.40 729.00 C 439.90 729.00 434.10 726.40 430.50 719.90 C 430.50 719.90 442.30 673.50 437.80 658.00 C 437.30 656.20 437.10 655.40 437.10 655.40 M 437.10 646.20 C 434.10 646.20 431.30 647.70 429.60 650.10 C 427.00 653.70 427.90 656.70 429.00 660.50 C 431.60 669.50 426.30 699.30 421.60 717.60 C 421.00 719.80 421.30 722.20 422.40 724.30 C 427.10 733.00 435.70 738.20 445.40 738.20 C 454.00 738.20 461.90 734.00 465.70 727.60 C 468.90 722.20 468.90 715.80 465.80 710.10 C 464.00 706.80 459.10 695.40 446.70 655.40 C 445.60 651.80 443.90 646.20 437.10 646.20 L 437.10 646.20 Z" fill="#22286e" fill-rule="nonzero" group-id="1,6,27,76" node-id="482" stroke="none" target-height="92" target-width="47.899994" target-x="421" target-y="646.2"></path></g><g node-id="907"><g node-id="956"><path d="M 334.70 946.40 C 328.80 946.40 323.40 944.00 319.10 939.50 C 318.30 938.70 317.80 937.60 317.80 936.40 C 317.60 923.40 315.70 887.50 309.30 877.00 C 307.40 873.90 306.50 872.40 307.90 870.10 C 308.70 868.60 310.20 867.80 311.90 867.80 C 314.40 867.80 315.20 869.00 317.40 872.40 C 338.90 906.30 347.30 917.50 350.60 920.90 C 354.50 924.90 355.50 930.10 353.40 935.10 C 350.50 941.60 342.70 946.40 334.70 946.40 Z" fill="#dd4d2d" fill-rule="nonzero" group-id="1,6,28,77" node-id="490" stroke="none" target-height="78.60004" target-width="49" target-x="306.5" target-y="867.8"></path></g><path d="M 311.90 872.30 C 312.00 872.30 338.50 914.90 347.30 924.00 C 354.50 931.40 345.40 941.70 334.70 941.70 C 330.50 941.70 326.10 940.10 322.40 936.20 C 322.40 936.20 321.70 888.30 313.30 874.50 C 312.30 873.00 311.90 872.30 311.90 872.30 M 311.90 863.10 C 308.50 863.10 305.40 864.90 303.80 867.90 C 301.30 872.60 303.50 876.20 305.40 879.30 C 310.30 887.30 312.90 917.50 313.20 936.30 C 313.20 938.60 314.10 940.80 315.70 942.50 C 320.80 947.90 327.60 950.90 334.70 950.90 C 344.60 950.90 354.10 945.10 357.60 936.80 C 360.40 930.10 359.10 923.00 353.90 917.60 C 350.80 914.40 342.60 903.40 321.30 869.90 C 319.00 866.30 316.90 863.10 311.90 863.10 L 311.90 863.10 Z" fill="#22286e" fill-rule="nonzero" group-id="1,6,28,78" node-id="495" stroke="none" target-height="87.80005" target-width="59.100006" target-x="301.3" target-y="863.1"></path></g><g node-id="908"><g node-id="958"><path d="M 383.70 839.90 C 375.70 839.90 368.80 835.70 364.80 828.40 C 364.20 827.40 364.10 826.20 364.40 825.10 C 367.60 812.50 375.10 777.30 371.70 765.60 C 370.70 762.00 370.30 760.80 371.70 759.00 C 372.60 757.80 373.90 757.20 375.40 757.20 C 378.80 757.20 379.50 759.50 380.70 763.30 C 392.60 801.60 397.80 814.60 400.10 818.70 C 402.50 823.00 402.50 827.60 400.10 831.60 C 397.10 836.60 390.60 839.90 383.70 839.90 Z" fill="#dd4d2d" fill-rule="nonzero" group-id="1,6,29,79" node-id="503" stroke="none" target-height="82.70001" target-width="38.399994" target-x="364.1" target-y="757.2"></path></g><path d="M 375.40 761.70 C 375.50 761.70 390.00 809.70 396.10 820.90 C 400.40 828.60 392.50 835.30 383.70 835.30 C 378.20 835.30 372.40 832.70 368.80 826.20 C 368.80 826.20 380.60 779.80 376.10 764.30 C 375.60 762.50 375.30 761.70 375.40 761.70 M 375.40 752.50 C 372.50 752.50 369.80 753.90 368.00 756.20 C 365.20 759.90 366.20 763.10 367.30 766.80 C 369.90 775.80 364.60 805.60 359.90 823.90 C 359.30 826.10 359.60 828.50 360.70 830.60 C 365.40 839.30 374.00 844.50 383.70 844.50 C 392.30 844.50 400.20 840.30 404.00 833.90 C 407.20 828.50 407.20 822.10 404.10 816.40 C 401.90 812.50 396.90 799.80 385.10 761.90 C 383.90 758.20 382.10 752.50 375.40 752.50 L 375.40 752.50 Z" fill="#22286e" fill-rule="nonzero" group-id="1,6,29,80" node-id="508" stroke="none" target-height="92" target-width="47.900024" target-x="359.3" target-y="752.5"></path></g><g node-id="909"><g node-id="960"><path d="M 251.00 878.30 C 244.80 878.30 239.00 875.60 234.70 870.50 C 233.90 869.60 233.50 868.50 233.60 867.30 C 234.10 854.30 234.00 818.30 228.20 807.60 C 226.40 804.30 225.70 803.00 227.00 800.70 C 227.80 799.30 229.30 798.50 231.00 798.50 C 233.70 798.50 234.40 799.80 236.40 803.30 C 256.20 838.30 264.00 849.90 267.20 853.50 C 270.80 857.60 271.60 862.70 269.40 867.50 C 266.40 873.80 258.90 878.30 251.00 878.30 Z" fill="#dd4d2d" fill-rule="nonzero" group-id="1,6,30,81" node-id="516" stroke="none" target-height="79.79999" target-width="45.90001" target-x="225.7" target-y="798.5"></path></g><path d="M 230.90 803.10 C 231.00 803.10 255.30 847.00 263.60 856.50 C 270.20 864.10 261.30 873.60 251.00 873.60 C 246.60 873.60 241.90 871.90 238.10 867.40 C 238.10 867.40 239.80 819.50 232.10 805.30 C 231.30 803.80 230.90 803.10 230.90 803.10 M 230.90 793.90 C 227.60 793.90 224.60 795.70 222.90 798.50 C 220.30 803.00 222.20 806.40 224.00 809.80 C 228.50 818.10 229.50 848.30 228.90 867.10 C 228.80 869.40 229.60 871.70 231.10 873.40 C 236.30 879.40 243.30 882.70 250.90 882.70 C 260.50 882.70 269.80 877.20 273.40 869.30 C 276.30 862.90 275.20 855.80 270.50 850.40 C 268.10 847.60 260.90 837.50 240.30 801.10 C 238.30 797.40 236.30 793.90 230.90 793.90 L 230.90 793.90 Z" fill="#22286e" fill-rule="nonzero" group-id="1,6,30,82" node-id="521" stroke="none" target-height="88.79999" target-width="55.999985" target-x="220.3" target-y="793.9"></path></g></g><g node-id="886"><g node-id="910"><g node-id="962"><path d="M 467.90 920.50 C 460.50 920.50 451.30 916.60 447.50 905.70 C 447.10 904.60 447.20 903.40 447.60 902.30 C 452.80 890.40 466.10 857.00 464.70 844.90 C 464.30 841.10 464.10 840.20 465.50 838.70 C 466.40 837.70 467.60 837.20 468.90 837.20 C 472.90 837.20 473.40 840.50 473.80 843.90 C 479.20 883.80 482.20 897.50 483.80 902.00 C 485.30 906.20 484.80 910.40 482.30 913.90 C 479.40 918.00 474.00 920.50 467.90 920.50 Z" fill="#dd4d2d" fill-rule="nonzero" group-id="1,7,31,83" node-id="532" stroke="none" target-height="83.29999" target-width="38.19998" target-x="447.1" target-y="837.2"></path></g><path d="M 469.00 841.70 C 469.10 841.70 475.40 891.50 479.60 903.50 C 482.20 910.90 475.50 915.90 467.90 915.90 C 461.60 915.90 454.70 912.50 451.90 904.20 C 451.90 904.20 471.20 860.40 469.30 844.40 C 469.00 842.50 468.90 841.70 469.00 841.70 M 469.00 832.50 C 466.20 832.50 463.60 833.70 461.90 835.90 C 459.40 838.90 459.70 841.50 460.20 845.40 C 461.30 854.70 451.10 883.20 443.50 900.50 C 442.60 902.60 442.50 905.00 443.20 907.20 C 446.90 918.10 456.70 925.10 467.90 925.10 C 475.50 925.10 482.40 921.90 486.20 916.50 C 489.50 911.80 490.20 906.10 488.30 900.50 C 487.10 897.00 484.20 884.90 478.50 843.30 C 478.00 840.00 477.00 832.50 469.00 832.50 L 469.00 832.50 Z" fill="#22286e" fill-rule="nonzero" group-id="1,7,31,84" node-id="537" stroke="none" target-height="92.599976" target-width="47.700012" target-x="442.5" target-y="832.5"></path></g><g node-id="911"><g node-id="964"><path d="M 485.50 633.80 C 477.50 633.80 470.60 629.60 466.60 622.30 C 466.00 621.30 465.90 620.10 466.20 619.00 C 469.40 606.40 476.90 571.20 473.50 559.50 C 472.50 556.00 472.10 554.80 473.50 552.90 C 474.40 551.70 475.70 551.10 477.20 551.10 C 480.60 551.10 481.40 553.50 482.40 556.90 C 494.40 595.40 499.60 608.40 501.90 612.60 C 504.30 616.90 504.30 621.50 501.90 625.50 C 498.90 630.60 492.50 633.80 485.50 633.80 Z" fill="#dd4d2d" fill-rule="nonzero" group-id="1,7,32,85" node-id="545" stroke="none" target-height="82.70001" target-width="38.399994" target-x="465.9" target-y="551.1"></path></g><path d="M 477.20 555.70 C 477.30 555.70 491.80 603.70 497.90 614.90 C 502.20 622.60 494.30 629.30 485.50 629.30 C 480.00 629.30 474.20 626.70 470.60 620.20 C 470.60 620.20 482.40 573.80 477.90 558.30 C 477.40 556.50 477.20 555.70 477.20 555.70 M 477.20 546.50 C 474.20 546.50 471.40 548.00 469.70 550.40 C 467.10 554.00 468.00 557.00 469.10 560.80 C 471.70 569.80 466.40 599.60 461.70 617.90 C 461.10 620.10 461.40 622.50 462.50 624.60 C 467.20 633.30 475.80 638.50 485.50 638.50 C 494.10 638.50 502.00 634.30 505.90 627.90 C 509.10 622.50 509.10 616.20 506.00 610.40 C 504.20 607.10 499.30 595.70 486.90 555.60 C 485.70 552.10 484.00 546.50 477.20 546.50 L 477.20 546.50 Z" fill="#22286e" fill-rule="nonzero" group-id="1,7,32,86" node-id="550" stroke="none" target-height="92" target-width="48" target-x="461.1" target-y="546.5"></path></g><g node-id="912"><g node-id="966"><path d="M 513.00 823.50 C 505.60 823.50 496.30 819.60 492.60 808.70 C 492.20 807.60 492.30 806.40 492.70 805.30 C 498.00 793.40 511.30 760.00 509.90 747.90 C 509.50 744.10 509.40 743.20 510.70 741.70 C 511.60 740.70 512.80 740.20 514.10 740.20 C 518.10 740.20 518.60 743.60 519.00 746.80 C 524.30 786.80 527.30 800.50 528.90 805.10 C 530.40 809.30 529.80 813.50 527.40 816.90 C 524.60 821.00 519.10 823.50 513.00 823.50 Z" fill="#dd4d2d" fill-rule="nonzero" group-id="1,7,33,87" node-id="558" stroke="none" target-height="83.29999" target-width="38.200012" target-x="492.2" target-y="740.2"></path></g><path d="M 514.20 744.70 C 514.30 744.70 520.50 794.50 524.60 806.50 C 527.20 813.90 520.50 818.90 512.90 818.90 C 506.60 818.90 499.70 815.50 496.80 807.20 C 496.80 807.20 516.20 763.40 514.40 747.40 C 514.30 745.50 514.20 744.70 514.20 744.70 M 514.20 735.50 C 511.60 735.50 509.00 736.60 507.30 738.60 C 504.60 741.70 504.90 744.50 505.40 748.40 C 506.50 757.70 496.20 786.20 488.50 803.40 C 487.60 805.50 487.50 807.90 488.20 810.10 C 491.90 821.00 501.70 828.10 513.00 828.10 C 520.60 828.10 527.50 824.90 531.30 819.50 C 534.60 814.80 535.40 809.20 533.40 803.50 C 532.20 800.00 529.30 787.80 523.80 746.20 C 523.30 743.30 522.30 735.50 514.20 735.50 L 514.20 735.50 Z" fill="#22286e" fill-rule="nonzero" group-id="1,7,33,88" node-id="563" stroke="none" target-height="92.599976" target-width="47.900024" target-x="487.5" target-y="735.5"></path></g></g></g><g node-id="881"><g node-id="887"><g node-id="913"><g node-id="968"><g node-id="1005"><path d="M 478.00 780.30 C 514.60 780.30 548.30 768.80 584.10 744.20 C 662.70 690.00 730.10 597.80 772.80 530.00 C 798.90 488.60 853.90 391.90 847.20 374.70 C 845.30 369.80 840.90 366.70 835.70 366.70 C 823.90 366.70 809.00 382.40 759.90 446.80 C 756.00 451.90 752.30 456.80 748.90 461.20 C 745.60 465.50 741.90 470.50 737.90 475.90 C 709.60 514.00 662.20 577.80 594.80 602.30 C 551.80 617.90 513.50 625.90 482.80 632.30 C 456.60 637.80 434.00 642.50 416.30 650.20 C 382.80 664.80 357.20 679.20 349.60 687.90 C 347.50 690.20 346.70 693.50 347.40 696.50 L 354.60 727.80 C 355.00 729.50 355.80 731.00 357.00 732.30 C 358.60 734.00 396.90 774.40 431.70 776.70 C 435.90 777.00 440.60 777.50 445.50 778.10 C 454.90 779.10 465.70 780.30 478.00 780.30 Z" fill="#f4d12c" fill-rule="nonzero" group-id="2,8,34,89,126" node-id="579" stroke="none" target-height="413.59998" target-width="507.2" target-x="346.7" target-y="366.7"></path></g><path d="M 835.70 376.30 C 836.80 376.30 837.60 376.90 838.10 378.10 C 843.30 391.60 723.30 636.30 578.60 736.10 C 537.80 764.30 504.70 770.50 478.10 770.50 C 460.10 770.50 444.90 767.60 432.30 766.80 C 400.90 764.70 364.10 725.40 364.10 725.40 L 356.90 694.10 C 362.10 688.20 383.10 675.00 420.20 658.90 C 457.30 642.80 518.50 640.10 598.20 611.20 C 677.90 582.30 729.10 502.70 756.70 467.00 C 781.60 434.60 824.30 376.30 835.70 376.30 M 835.70 356.90 C 819.50 356.90 805.50 371.00 752.20 440.80 C 748.30 445.90 744.60 450.80 741.20 455.20 C 737.80 459.60 734.00 464.70 730.10 470.00 C 702.40 507.20 656.10 569.50 591.50 593.00 C 549.20 608.40 512.80 616.00 480.80 622.70 C 454.10 628.30 431.00 633.10 412.40 641.20 C 395.50 648.60 354.70 667.20 342.20 681.50 C 338.10 686.20 336.50 692.60 337.90 698.70 L 345.10 730.00 C 345.90 733.30 347.50 736.40 349.90 738.90 C 354.20 743.50 393.10 783.80 431.00 786.30 C 435.00 786.60 439.50 787.10 444.30 787.60 C 454.10 788.70 465.20 790.00 478.10 790.00 C 516.80 790.00 552.20 778.00 589.70 752.10 C 669.70 696.90 737.90 603.60 781.10 535.10 C 802.60 500.90 822.70 465.00 837.70 434.20 C 861.60 384.80 858.80 377.50 856.30 371.10 C 852.80 362.50 844.80 356.90 835.70 356.90 C 835.70 356.90 835.70 356.90 835.70 356.90 L 835.70 356.90 Z" fill="#22286e" fill-rule="nonzero" group-id="2,8,34,89,127" node-id="584" stroke="none" target-height="433.1" target-width="525.1" target-x="336.5" target-y="356.9"></path></g><g node-id="969"><path d="M 356.70 694.30 C 358.20 692.60 361.10 690.20 365.40 687.30 C 372.60 694.60 404.50 725.30 432.20 727.10 C 463.50 729.20 510.10 743.60 578.50 696.40 C 685.10 622.80 778.30 470.70 817.90 390.20 C 828.40 379.00 836.10 373.10 838.10 378.10 C 843.30 391.60 723.30 636.30 578.60 736.10 C 510.10 783.40 463.60 768.90 432.30 766.80 C 400.90 764.70 364.10 725.40 364.10 725.40 L 356.70 694.30 Z" fill="#e58456" fill-rule="nonzero" group-id="2,8,34,90" node-id="590" stroke="none" target-height="410.30002" target-width="486.59998" target-x="356.7" target-y="373.1"></path></g><path d="M 383.90 686.60 C 383.90 686.60 444.60 668.90 484.90 669.60 C 525.20 670.30 612.10 647.90 659.20 608.30 C 706.20 568.70 813.70 432.40 817.40 421.40 C 821.10 410.40 812.30 412.20 772.80 466.40 C 733.30 520.50 655.40 591.90 626.90 610.50 C 569.30 648.20 491.20 655.20 455.70 659.70 C 420.20 664.30 399.60 673.40 383.90 686.60 Z" fill="#f9fcfd" fill-rule="nonzero" group-id="2,8,34,91" node-id="595" stroke="none" target-height="276.19998" target-width="437.19998" target-x="383.9" target-y="410.4"></path></g><g node-id="914"><g node-id="971"><g node-id="1007"><path d="M 728.00 886.90 C 766.90 886.90 842.60 877.30 912.50 813.30 C 995.00 737.80 1089.70 621.40 1072.50 495.70 C 1060.40 406.90 1027.20 352.30 974.10 333.50 C 946.90 323.90 920.80 307.20 915.60 298.80 C 913.50 295.40 910.50 288.10 907.60 281.10 C 898.20 258.20 891.70 244.00 881.20 240.20 C 878.10 239.10 874.30 238.50 869.80 238.50 C 858.80 238.50 836.30 242.60 830.20 258.20 C 827.60 264.80 827.30 275.20 840.10 287.60 C 845.90 297.80 886.20 368.00 895.20 388.50 C 905.90 412.60 917.90 541.70 833.20 639.80 C 744.40 742.70 732.70 751.30 709.30 762.80 C 649.30 792.10 643.10 798.60 640.80 804.50 C 637.70 812.50 629.10 859.50 664.50 876.30 C 675.30 881.40 697.80 886.90 728.00 886.90 Z" fill="#e58456" fill-rule="nonzero" group-id="2,8,35,92,128" node-id="605" stroke="none" target-height="648.4" target-width="460.59998" target-x="629.1" target-y="238.5"></path></g><path d="M 869.70 248.20 C 872.90 248.20 875.70 248.60 877.70 249.30 C 888.60 253.30 899.70 291.90 907.20 303.90 C 914.70 316.00 944.70 333.40 970.70 342.70 C 996.80 351.90 1046.70 379.80 1062.80 497.10 C 1078.90 614.40 994.00 725.50 905.90 806.20 C 844.80 862.20 776.70 877.20 728.00 877.20 C 700.40 877.20 679.00 872.40 668.50 867.40 C 639.60 853.70 647.60 813.40 649.70 807.90 C 651.80 802.50 682.60 786.50 713.40 771.40 C 738.30 759.20 750.40 750.40 840.40 646.10 C 930.40 541.80 914.00 407.30 903.90 384.60 C 893.90 361.90 847.60 281.60 847.60 281.60 C 823.40 259.00 852.40 248.20 869.70 248.20 M 869.70 228.80 C 855.40 228.80 829.10 234.30 821.10 254.70 C 818.20 262.20 815.90 277.00 832.30 293.60 C 846.00 317.40 878.70 375.20 886.30 392.50 C 892.30 405.90 913.10 532.40 825.80 633.50 C 738.50 734.70 726.60 743.50 705.00 754.00 C 640.10 785.70 635.00 792.20 631.70 800.90 C 625.60 816.80 621.00 866.30 660.30 884.90 C 675.70 892.20 701.10 896.50 728.10 896.50 C 768.40 896.50 846.80 886.60 919.10 820.40 C 1003.30 743.30 1099.90 624.20 1082.10 494.40 C 1069.40 401.70 1034.20 344.50 977.30 324.40 C 950.10 314.80 927.20 299.10 923.80 293.70 C 922.10 290.90 919.10 283.70 916.50 277.40 C 906.10 252.10 898.70 236.30 884.50 231.10 C 880.30 229.60 875.40 228.80 869.70 228.80 C 869.70 228.80 869.70 228.80 869.70 228.80 L 869.70 228.80 Z" fill="#22286e" fill-rule="nonzero" group-id="2,8,35,92,129" node-id="610" stroke="none" target-height="667.7" target-width="478.90002" target-x="621" target-y="228.8"></path></g><g node-id="972"><g node-id="1009"><path d="M 864.40 772.80 C 952.50 692.10 1037.40 581.10 1021.30 463.70 C 1013.30 405.10 996.80 368.90 979.10 346.10 C 1006.30 358.40 1048.40 391.40 1062.90 497.10 C 1079.00 614.40 994.10 725.50 906.00 806.20 C 810.30 893.90 697.60 881.10 668.60 867.50 C 656.40 861.70 650.80 851.10 648.50 840.40 C 693.60 849.20 784.90 845.60 864.40 772.80 Z" fill="#dd4d2d" fill-rule="nonzero" group-id="2,8,35,93,130" node-id="618" stroke="none" target-height="547.80005" target-width="430.5" target-x="648.5" target-y="346.1"></path></g></g><path d="M 682.00 825.80 C 682.00 825.90 682.00 825.90 682.00 825.80 C 682.30 825.90 682.70 826.00 682.90 826.00 C 682.80 826.00 682.50 825.90 682.10 825.90 C 682.10 825.90 682.10 825.90 682.10 825.90 C 682.50 826.00 682.80 826.00 682.90 826.00 C 682.90 826.00 682.90 826.00 683.00 826.00 C 683.10 826.00 683.10 826.00 683.00 826.00 C 683.10 826.00 683.40 825.90 683.90 825.80 C 688.10 825.10 688.50 824.70 693.10 822.30 C 702.10 817.60 709.00 811.90 717.00 805.20 C 734.90 790.00 751.20 773.00 767.00 755.60 C 783.10 738.00 799.20 720.40 814.20 702.00 C 827.80 685.30 841.00 668.30 855.20 652.20 C 868.70 636.90 881.80 622.60 892.20 604.90 C 904.50 584.00 913.60 561.20 923.20 539.00 C 932.10 518.50 943.30 497.00 946.20 474.60 C 951.20 436.80 933.70 399.30 908.90 371.80 C 900.00 362.00 901.10 336.10 912.10 343.60 C 954.40 372.30 956.40 413.20 966.30 444.30 C 986.30 506.90 918.40 626.90 892.10 658.40 C 805.70 762.10 738.10 825.40 705.00 839.10 C 694.10 843.60 681.70 849.80 670.70 843.20 C 659.60 836.40 670.60 819.00 682.00 825.80 Z M 683.00 826.10 C 683.00 826.10 683.00 826.10 683.00 826.10 C 683.00 826.10 682.90 826.10 682.90 826.10 C 682.90 826.10 683.00 826.10 683.00 826.10 Z" fill="#f4d12c" fill-rule="nonzero" group-id="2,8,35,94" node-id="624" stroke="none" target-height="513.69995" target-width="326.7" target-x="659.6" target-y="336.1"></path></g><g node-id="915"><g node-id="974"><g node-id="1010"><path d="M 547.20 870.10 C 582.40 870.10 637.10 860.70 697.90 816.10 C 759.40 770.90 906.10 648.30 938.90 486.80 C 959.90 383.30 907.50 346.00 891.80 337.30 L 872.50 279.10 C 873.80 262.30 869.60 243.10 853.60 241.30 C 848.30 240.70 842.00 240.10 835.70 240.10 C 818.20 240.10 807.80 245.30 805.00 255.50 C 804.90 255.90 796.00 291.00 806.30 304.30 C 814.30 322.70 821.00 346.80 817.80 353.10 L 815.50 357.70 C 808.00 372.60 796.70 395.00 778.60 444.70 C 760.00 495.80 688.60 620.30 607.60 676.60 C 591.40 687.90 577.40 697.60 565.30 705.90 C 513.80 741.60 498.20 752.30 490.40 761.50 C 479.80 773.90 463.10 804.50 462.40 805.80 C 461.20 808.00 460.90 810.70 461.60 813.10 L 468.60 837.70 C 469.10 839.50 470.20 841.20 471.70 842.40 C 472.40 843.00 490.00 857.80 505.00 863.90 C 511.70 866.90 526.90 870.10 547.20 870.10 Z" fill="#f4d12c" fill-rule="nonzero" group-id="2,8,36,95,131" node-id="634" stroke="none" target-height="630" target-width="499.00003" target-x="460.9" target-y="240.1"></path></g><path d="M 835.60 249.90 C 841.50 249.90 847.50 250.50 852.40 251.00 C 865.50 252.40 862.50 280.20 862.50 280.20 L 883.70 344.10 C 883.70 344.10 952.00 372.60 929.30 484.80 C 901.20 623.60 786.20 739.10 692.10 808.20 C 634.40 850.60 581.60 860.30 547.20 860.30 C 527.40 860.30 513.70 857.10 508.60 855.00 C 494.90 849.40 477.90 835.00 477.90 835.00 L 470.90 810.40 C 470.90 810.40 487.70 779.60 497.80 767.80 C 506.50 757.60 530.90 741.70 613.10 684.50 C 695.40 627.30 767.80 502.50 787.70 447.90 C 807.50 393.30 819.00 372.30 826.50 357.30 C 834.00 342.20 814.50 298.80 814.50 298.80 C 808.60 294.10 811.30 268.60 814.30 258.00 C 816.10 251.60 825.60 249.90 835.60 249.90 M 835.60 230.50 C 807.70 230.50 798.40 242.70 795.50 253.00 C 795.00 254.70 785.10 290.90 797.60 309.20 C 804.40 325.10 809.50 343.60 808.60 349.60 C 808.00 350.90 807.30 352.10 806.60 353.50 C 799.00 368.60 787.50 391.40 769.20 441.60 C 751.00 491.70 681.00 613.80 601.80 668.90 C 585.60 680.20 571.60 689.90 559.50 698.20 C 507.10 734.40 491.30 745.40 482.70 755.50 C 471.70 768.50 455.40 798.10 453.60 801.40 C 451.20 805.90 450.60 811.10 452.00 816.00 L 459.00 840.60 C 460.10 844.30 462.20 847.60 465.10 850.10 C 467.10 851.80 484.90 866.60 501.00 873.20 C 509.00 876.40 525.20 879.90 546.90 879.90 C 583.60 879.90 640.50 870.20 703.30 824.00 C 742.60 795.10 800.10 747.50 850.30 684.90 C 901.80 620.70 934.70 554.70 948.10 488.80 C 969.00 385.90 920.20 343.80 899.50 330.90 L 881.90 277.90 C 883.40 251.70 872.80 233.80 854.20 231.70 C 848.90 231.10 842.30 230.50 835.60 230.50 C 835.60 230.50 835.60 230.50 835.60 230.50 L 835.60 230.50 Z" fill="#22286e" fill-rule="nonzero" group-id="2,8,36,95,132" node-id="639" stroke="none" target-height="649.4" target-width="518.4" target-x="450.6" target-y="230.5"></path></g><g node-id="975"><g node-id="1012"><path d="M 648.80 775.70 C 747.80 708.70 870.00 595.00 904.30 454.10 C 914.60 411.90 911.60 380.90 903.70 358.70 C 921.80 376.70 943.60 414.20 929.30 484.90 C 901.20 623.70 786.20 739.20 692.10 808.30 C 601.10 875.20 522.30 860.70 508.60 855.10 C 494.90 849.50 477.90 835.10 477.90 835.10 L 473.70 820.30 C 503.60 826.40 571.00 828.30 648.80 775.70 Z" fill="#e58456" fill-rule="nonzero" group-id="2,8,36,96,133" node-id="647" stroke="none" target-height="516.5" target-width="469.89996" target-x="473.7" target-y="358.7"></path></g></g><g node-id="976"><path d="M 477.70 810.80 C 477.70 810.80 499.80 774.90 510.80 767.70 C 521.80 760.40 673.40 685.60 732.80 578.70 C 792.20 471.80 805.60 424.30 814.70 401.70 C 823.80 379.10 843.70 348.00 843.70 348.00 L 854.90 348.00 C 854.90 348.00 839.60 363.70 828.90 388.70 C 818.30 413.70 783.50 540.70 733.00 605.30 C 655.50 704.50 561.70 751.10 515.80 774.20 C 498.80 782.80 477.70 810.80 477.70 810.80 Z" fill="#f9fcfd" fill-rule="nonzero" group-id="2,8,36,97" node-id="653" stroke="none" target-height="462.8" target-width="377.2" target-x="477.7" target-y="348"></path></g><g node-id="977"><path d="M 473.40 806.10 C 473.40 806.10 477.10 807.30 481.30 814.80 C 485.50 822.30 485.80 836.00 477.90 835.30 C 470.00 834.50 463.30 808.40 473.40 806.10 Z" fill="#e1a115" fill-rule="nonzero" group-id="2,8,36,98" node-id="658" stroke="none" target-height="29.900024" target-width="22.5" target-x="463.3" target-y="806.1"></path></g><path d="M 844.40 250.30 C 844.40 250.30 838.00 270.60 842.30 279.30 C 846.50 288.00 842.60 292.40 840.60 294.80 C 838.60 297.10 850.30 322.20 854.10 327.50 C 858.00 332.80 843.80 340.60 839.90 340.40 C 836.00 340.20 828.00 345.70 828.00 345.70 C 828.00 345.70 827.70 354.40 827.00 356.00 C 826.40 357.60 846.20 345.80 856.00 347.00 C 865.90 348.20 883.70 344.30 883.70 344.30 L 862.50 280.40 C 862.50 280.30 869.80 243.70 844.40 250.30 Z" fill="#e58456" fill-rule="nonzero" group-id="2,8,36,99" node-id="663" stroke="none" target-height="113.90001" target-width="57.299988" target-x="826.4" target-y="243.7"></path></g></g><g node-id="888"><g node-id="916"><g node-id="979"><g node-id="1013"><path d="M 597.30 807.80 C 594.00 804.50 593.90 799.10 597.20 795.70 L 661.10 728.80 C 662.70 727.10 664.90 726.20 667.10 726.10 C 669.40 726.00 671.60 726.90 673.30 728.50 C 673.30 728.50 696.30 750.50 696.30 750.50 C 699.60 753.80 699.70 759.20 696.40 762.60 L 632.50 829.50 C 630.90 831.20 628.70 832.10 626.50 832.20 C 624.20 832.30 622.00 831.40 620.30 829.80 C 620.30 829.80 597.30 807.90 597.30 807.80 Z" fill="#73c0d7" fill-rule="nonzero" group-id="2,9,37,100,134" node-id="676" stroke="none" target-height="106.29999" target-width="105.79999" target-x="593.9" target-y="726"></path></g><path d="M 690.20 756.70 L 626.30 823.60 L 603.40 801.70 L 667.30 734.80 L 690.20 756.70 M 702.40 744.50 C 702.30 744.40 702.20 744.30 702.10 744.20 L 679.20 722.30 C 672.30 715.70 661.40 716.00 654.80 722.90 L 590.90 789.80 C 584.40 796.60 584.60 807.30 591.20 813.90 C 591.30 814.00 591.40 814.10 591.50 814.20 L 614.40 836.10 C 617.70 839.30 622.10 841.00 626.70 840.90 C 631.30 840.80 635.60 838.90 638.80 835.60 L 702.70 768.70 C 705.90 765.40 707.60 761.00 707.50 756.40 C 707.40 751.80 705.60 747.60 702.40 744.50 L 702.40 744.50 Z" fill="#22286e" fill-rule="nonzero" group-id="2,9,37,100,135,147" node-id="683" stroke="none" target-height="125.29999" target-width="123.19995" target-x="584.4" target-y="715.7"></path></g><g node-id="980"><g node-id="1015"><path d="M 623.40 860.20 C 622.50 859.30 621.80 858.20 621.30 856.80 L 611.20 826.80 C 610.50 824.60 610.60 822.30 611.70 820.20 C 612.70 818.10 614.50 816.60 616.70 815.90 L 704.40 786.40 C 707.60 785.30 711.00 786.20 713.30 788.50 C 714.20 789.40 714.90 790.50 715.40 791.90 L 725.50 821.90 C 727.00 826.40 724.60 831.30 720.10 832.80 L 632.40 862.30 C 629.00 863.30 625.60 862.40 623.40 860.20 Z" fill="#73c0d7" fill-rule="nonzero" group-id="2,9,37,101,136" node-id="692" stroke="none" target-height="78" target-width="116.5" target-x="610.5" target-y="785.3"></path></g><path d="M 707.20 794.60 L 717.30 824.60 L 629.50 854.00 L 619.40 824.00 L 707.20 794.60 M 719.40 782.40 C 714.90 777.90 708.10 776.10 701.70 778.20 L 614.00 807.70 C 609.70 809.20 606.10 812.30 604.00 816.40 C 602.00 820.50 601.60 825.20 603.10 829.60 L 613.20 859.60 C 614.10 862.20 615.50 864.50 617.30 866.30 C 621.80 870.80 628.60 872.60 635.00 870.50 L 722.70 841.00 C 731.70 838.00 736.60 828.20 733.60 819.10 L 723.50 789.10 C 722.60 786.50 721.20 784.20 719.40 782.40 L 719.40 782.40 Z" fill="#22286e" fill-rule="nonzero" group-id="2,9,37,101,137,148" node-id="699" stroke="none" target-height="96.5" target-width="135" target-x="601.6" target-y="776.1"></path></g><g node-id="981"><path d="M 618.40 808.40 C 615.10 805.10 615.00 799.60 618.30 796.30 L 657.20 756.60 C 660.50 753.20 666.00 753.10 669.40 756.50 C 669.40 756.50 669.40 756.50 669.50 756.60 C 672.80 759.90 672.90 765.40 669.60 768.70 L 630.70 808.40 C 627.30 811.70 621.90 811.80 618.40 808.40 C 618.40 808.40 618.40 808.40 618.40 808.40 Z" fill="#1e7cb9" fill-rule="nonzero" group-id="2,9,37,102" node-id="706" stroke="none" target-height="58.700012" target-width="57.900024" target-x="615" target-y="753.1"></path></g><g node-id="982"><path d="M 647.10 835.10 C 646.10 834.10 645.40 833.00 645.00 831.60 C 643.60 827.00 646.10 822.20 650.70 820.80 L 694.00 807.20 C 698.60 805.80 703.40 808.30 704.80 812.90 C 706.20 817.50 703.70 822.30 699.10 823.70 L 655.80 837.30 C 652.60 838.30 649.30 837.30 647.10 835.10 Z" fill="#1e7cb9" fill-rule="nonzero" group-id="2,9,37,103" node-id="711" stroke="none" target-height="32.5" target-width="62.600037" target-x="643.6" target-y="805.8"></path></g><g node-id="983"><g node-id="1017"><path d="M 610.30 863.60 C 607.70 861.00 606.90 856.80 608.80 853.30 L 624.10 825.60 C 625.20 823.60 627.10 822.10 629.30 821.50 C 631.50 820.90 633.90 821.10 635.90 822.20 L 716.90 866.90 C 717.60 867.30 718.30 867.80 718.80 868.40 C 719.80 869.40 720.60 870.70 721.00 872.10 C 721.60 874.30 721.40 876.70 720.30 878.70 L 705.00 906.30 C 702.70 910.50 697.40 912.00 693.30 909.70 L 612.30 865.00 C 611.50 864.60 610.90 864.10 610.30 863.60 Z" fill="#73c0d7" fill-rule="nonzero" group-id="2,9,37,104,138" node-id="718" stroke="none" target-height="91.099976" target-width="114.69995" target-x="606.9" target-y="820.9"></path></g><path d="M 712.70 874.40 L 697.40 902.10 L 616.40 857.40 L 631.70 829.70 L 712.70 874.40 M 725.00 862.20 C 723.90 861.10 722.60 860.10 721.10 859.30 L 640.10 814.60 C 636.10 812.40 631.40 811.90 627.00 813.10 C 622.60 814.40 618.90 817.30 616.70 821.40 L 601.40 849.10 C 597.60 856.00 599.00 864.30 604.30 869.60 C 605.40 870.70 606.70 871.70 608.20 872.50 L 689.20 917.20 C 697.60 921.80 708.10 918.80 712.70 910.40 L 728.00 882.70 C 731.70 875.80 730.30 867.50 725.00 862.20 L 725.00 862.20 Z" fill="#22286e" fill-rule="nonzero" group-id="2,9,37,104,139,149" node-id="725" stroke="none" target-height="109.89996" target-width="134.10004" target-x="597.6" target-y="811.9"></path></g><g node-id="984"><path d="M 638.60 863.90 C 635.90 861.20 635.20 857.00 637.20 853.60 C 639.50 849.40 644.80 847.90 648.90 850.30 L 697.50 877.40 C 701.70 879.70 703.20 885.00 700.80 889.10 C 698.50 893.30 693.20 894.80 689.10 892.40 L 640.50 865.30 C 639.80 865.00 639.20 864.50 638.60 863.90 Z" fill="#1e7cb9" fill-rule="nonzero" group-id="2,9,37,105" node-id="732" stroke="none" target-height="46.899963" target-width="68" target-x="635.2" target-y="847.9"></path></g><g node-id="985"><g node-id="1019"><path d="M 159.20 965.60 C 143.10 949.50 141.90 927.90 156.10 911.90 C 174.80 890.80 432.20 790.40 483.70 770.50 C 489.50 768.20 541.80 748.40 567.20 757.90 C 579.80 762.60 593.90 772.20 606.10 784.40 C 619.00 797.30 628.80 812.10 633.50 826.00 C 643.50 855.40 645.90 873.80 633.90 904.80 C 618.70 944.20 542.70 967.40 482.20 975.30 C 430.00 982.10 213.80 987.00 185.90 980.40 C 175.50 977.90 166.30 972.80 159.20 965.60 Z" fill="#e58456" fill-rule="nonzero" group-id="2,9,37,106,140" node-id="739" stroke="none" target-height="238.59998" target-width="504.00003" target-x="141.9" target-y="748.4"></path></g><path d="M 599.90 790.50 C 611.10 801.70 620.60 815.30 625.20 828.80 C 634.40 855.80 637.00 872.40 625.70 901.70 C 611.50 938.40 534.50 959.70 481.00 966.70 C 427.50 973.70 213.70 978.00 187.90 971.90 C 179.00 969.80 171.10 965.30 165.40 959.50 C 153.90 948.00 150.50 931.30 162.70 917.60 C 180.90 897.00 486.90 778.50 486.90 778.50 C 486.90 778.50 541.20 757.30 564.30 765.90 C 575.70 770.30 588.60 779.20 599.90 790.50 M 612.10 778.30 L 612.10 778.30 C 598.90 765.10 584.00 755.00 570.20 749.80 C 542.30 739.40 490.60 758.50 480.50 762.50 C 479.80 762.80 403.00 792.50 325.00 824.40 C 163.70 890.30 154.60 900.60 149.70 906.20 C 132.50 925.60 133.90 952.50 153.10 971.70 C 161.40 980.00 172.00 985.80 183.90 988.70 C 213.30 995.60 429.00 990.90 483.30 983.80 C 506.00 980.80 620.50 963.20 641.90 907.90 C 654.80 874.60 652.10 854.10 641.70 823.20 C 636.40 808.10 626.00 792.10 612.10 778.30 L 612.10 778.30 Z" fill="#22286e" fill-rule="nonzero" group-id="2,9,37,106,141,150" node-id="746" stroke="none" target-height="256.19995" target-width="522.3" target-x="132.5" target-y="739.4"></path></g><g node-id="986"><g node-id="1021"><path d="M 465.80 786.70 L 477.70 817.20" fill="#ffffff" fill-rule="nonzero" group-id="2,9,37,107,142" node-id="755" stroke="none" target-height="30.5" target-width="11.900024" target-x="465.8" target-y="786.7"></path></g><path d="M 473.80 783.60 L 477.70 817.20 L 457.70 789.90 C 454.80 785.90 455.70 780.30 459.60 777.40 C 463.60 774.50 469.20 775.40 472.10 779.30 C 473.10 780.60 473.70 782.10 473.80 783.60 Z" fill="#22286e" fill-rule="nonzero" group-id="2,9,37,107,143" node-id="760" stroke="none" target-height="42.700012" target-width="22.900024" target-x="454.8" target-y="774.5"></path></g><g node-id="987"><g node-id="1023"><path d="M 364.50 827.00 L 374.00 849.80" fill="#ffffff" fill-rule="nonzero" group-id="2,9,37,108,144" node-id="768" stroke="none" target-height="22.799988" target-width="9.5" target-x="364.5" target-y="827"></path></g><path d="M 372.50 823.70 L 374.00 849.90 L 356.60 830.40 C 353.20 826.60 353.60 820.80 357.30 817.50 C 361.10 814.10 366.90 814.50 370.20 818.20 C 371.60 819.70 372.40 821.70 372.50 823.70 Z" fill="#22286e" fill-rule="nonzero" group-id="2,9,37,108,145" node-id="773" stroke="none" target-height="35.80005" target-width="20.799988" target-x="353.2" target-y="814.1"></path></g><g node-id="988"><path d="M 306.60 972.60 L 306.80 934.60 L 323.40 968.80 C 325.50 973.20 323.70 978.50 319.30 980.70 C 314.90 982.80 309.60 981.00 307.40 976.60 C 306.80 975.30 306.60 973.90 306.60 972.60 Z" fill="#22286e" fill-rule="nonzero" group-id="2,9,37,109" node-id="779" stroke="none" target-height="48.200012" target-width="18.899994" target-x="306.6" target-y="934.6"></path></g><g node-id="989"><path d="M 395.40 972.90 L 400.00 938.00 L 412.60 970.90 C 414.40 975.50 412.10 980.60 407.50 982.40 C 402.90 984.20 397.80 981.90 396.00 977.30 C 395.40 975.80 395.30 974.30 395.40 972.90 Z" fill="#22286e" fill-rule="nonzero" group-id="2,9,37,110" node-id="784" stroke="none" target-height="46.200012" target-width="19.100006" target-x="395.3" target-y="938"></path></g><g node-id="990"><path d="M 507.10 962.90 L 502.00 910.00 L 523.80 958.50 C 525.80 962.90 523.80 968.10 519.40 970.10 C 515.00 972.10 509.80 970.10 507.80 965.70 C 507.40 964.80 507.20 963.80 507.10 962.90 Z" fill="#22286e" fill-rule="nonzero" group-id="2,9,37,111" node-id="789" stroke="none" target-height="62.099976" target-width="23.799988" target-x="502" target-y="910"></path></g><g node-id="991"><path d="M 557.80 948.90 L 554.10 910.90 L 574.20 943.40 C 576.80 947.60 575.50 953.00 571.30 955.60 C 567.10 958.20 561.70 956.90 559.10 952.70 C 558.30 951.50 557.90 950.20 557.80 948.90 Z" fill="#22286e" fill-rule="nonzero" group-id="2,9,37,112" node-id="794" stroke="none" target-height="47.299988" target-width="22.700012" target-x="554.1" target-y="910.9"></path></g><path d="M 235.20 912.20 C 236.80 916.70 308.10 884.90 396.70 853.90 C 485.30 822.90 552.10 805.30 556.20 800.20 C 563.20 791.40 480.10 813.10 391.50 844.10 C 302.80 875.10 233.80 908.30 235.20 912.20 Z" fill="#f7d9cc" fill-rule="nonzero" group-id="2,9,37,113" node-id="799" stroke="none" target-height="125.29999" target-width="329.40002" target-x="233.8" target-y="791.4"></path></g></g><g node-id="889"><g node-id="917"><g node-id="993"><path d="M 798.60 1043.90 C 790.90 1043.90 782.50 1043.40 773.70 1042.40 C 702.20 1034.50 663.40 982.90 661.40 893.20 C 660.80 864.00 668.90 840.60 685.60 823.50 C 704.80 803.90 735.20 793.50 773.60 793.50 C 782.30 793.50 791.60 794.00 801.10 795.10 C 855.40 801.10 894.10 818.80 912.80 846.20 C 926.90 866.90 929.90 892.70 921.80 923.00 C 898.70 1008.90 863.00 1043.90 798.60 1043.90 Z" fill="#dd4d2d" fill-rule="nonzero" group-id="2,10,38,114" node-id="810" stroke="none" target-height="250.40002" target-width="269.10004" target-x="660.8" target-y="793.5"></path></g><path d="M 773.60 800.40 C 782.10 800.40 791.10 800.90 800.30 801.90 C 877.90 810.50 935.60 844.40 915.00 921.10 C 892.30 1005.40 859.30 1036.80 798.50 1036.80 C 790.90 1036.80 782.90 1036.30 774.40 1035.40 C 702.80 1027.50 670.10 975.30 668.30 893.00 C 667.00 830.50 708.60 800.40 773.60 800.40 M 773.60 786.50 C 773.60 786.50 773.60 786.50 773.60 786.50 C 733.30 786.50 701.20 797.60 680.60 818.60 C 662.50 837.10 653.70 862.30 654.40 893.40 C 657.00 1011.80 720.30 1043.60 772.90 1049.40 C 782.00 1050.40 790.60 1050.90 798.60 1050.90 C 866.80 1050.90 904.50 1014.40 928.60 924.80 C 937.30 892.40 933.90 864.60 918.60 842.20 C 898.40 812.60 859.10 794.40 801.90 788.00 C 792.10 787.00 782.60 786.50 773.60 786.50 L 773.60 786.50 Z" fill="#22286e" fill-rule="nonzero" group-id="2,10,38,115" node-id="815" stroke="none" target-height="264.40002" target-width="283.59998" target-x="653.7" target-y="786.5"></path></g><g node-id="918"><g node-id="995"><path d="M 820.70 837.20 C 811.60 837.20 801.80 836.00 793.30 833.80 C 791.10 833.20 788.90 832.70 786.80 832.10 C 770.70 828.00 761.80 825.80 760.20 820.00 C 759.50 817.40 760.30 814.80 762.80 812.20 C 763.20 811.80 763.60 811.50 764.10 811.30 C 764.40 811.20 772.50 808.20 786.90 808.20 C 792.70 808.20 798.70 808.70 804.90 809.60 C 827.10 813.00 840.30 817.50 844.30 823.10 C 845.90 825.30 845.90 827.40 845.70 828.70 C 844.50 836.10 829.50 837.20 820.70 837.20 Z" fill="#d52061" fill-rule="nonzero" group-id="2,10,39,116" node-id="823" stroke="none" target-height="29" target-width="86.400024" target-x="759.5" target-y="808.2"></path></g><path d="M 786.90 811.70 C 791.90 811.70 797.80 812.10 804.40 813.10 C 829.40 816.90 843.30 822.40 842.30 828.10 C 841.70 831.50 832.50 833.70 820.70 833.70 C 812.50 833.70 803.10 832.70 794.20 830.40 C 772.50 824.80 758.10 822.20 765.40 814.60 C 765.40 814.50 773.00 811.70 786.90 811.70 M 786.90 804.70 L 786.90 804.70 C 772.10 804.70 763.80 807.70 762.90 808.00 C 761.90 808.40 761.00 809.00 760.30 809.70 C 756.00 814.20 756.10 818.30 756.80 820.90 C 759.00 828.70 768.60 831.10 785.90 835.50 C 788.00 836.00 790.10 836.60 792.40 837.10 C 801.20 839.40 811.20 840.60 820.60 840.60 C 838.20 840.60 847.80 836.80 849.10 829.30 C 849.50 827.30 849.40 824.20 847.10 821.10 C 844.10 817.00 836.60 811.00 805.40 806.20 C 799.10 805.20 792.90 804.70 786.90 804.70 L 786.90 804.70 Z" fill="#22286e" fill-rule="nonzero" group-id="2,10,39,117,146" node-id="830" stroke="none" target-height="35.899963" target-width="93.5" target-x="756" target-y="804.7"></path></g><g node-id="919"><g node-id="997"><path d="M 808.90 836.50 C 808.50 836.40 800.10 835.30 797.10 834.60 C 793.30 833.70 793.30 829.30 794.70 821.40 C 794.80 820.00 798.70 780.60 813.90 757.50 C 819.10 749.60 824.20 745.80 829.50 745.80 C 836.20 745.80 840.20 751.90 842.40 755.20 C 842.70 755.60 842.90 756.00 843.10 756.30 C 843.80 756.80 844.30 757.40 844.60 758.20 C 845.00 759.40 844.80 760.40 844.10 761.40 C 846.80 761.80 849.60 762.40 852.50 763.30 C 861.00 765.80 878.20 776.40 876.70 782.00 C 876.20 783.70 874.50 789.00 870.40 789.00 L 870.40 789.00 C 869.30 789.00 867.30 788.60 866.00 785.80 C 863.50 781.80 861.50 778.90 849.40 774.40 C 845.40 772.60 841.70 771.70 838.40 771.70 C 836.40 771.70 834.50 772.00 832.70 772.60 C 828.50 777.30 825.30 782.10 823.10 786.90 C 812.70 809.70 812.80 832.80 812.80 833.00 C 812.80 834.00 812.40 835.00 811.60 835.70 C 811.00 836.30 810.10 836.60 809.30 836.60 C 809.20 836.60 809.10 836.50 808.90 836.50 Z" fill="#73c0d7" fill-rule="nonzero" group-id="2,10,40,118" node-id="839" stroke="none" target-height="90.79999" target-width="84.900024" target-x="793.3" target-y="745.8"></path></g><path d="M 829.50 749.30 C 836.20 749.30 839.90 759.10 841.10 759.20 C 841.80 759.30 839.50 761.10 836.00 764.40 C 836.40 764.40 836.70 764.40 837.10 764.40 C 842.10 764.40 847.20 765.40 851.60 766.70 C 862.30 769.80 873.80 779.80 873.40 781.10 C 873.10 782.10 871.90 785.50 870.50 785.50 C 870.00 785.50 869.60 785.10 869.20 784.10 C 866.40 779.60 864.10 776.10 850.80 771.10 C 846.20 769.00 842.20 768.20 838.60 768.20 C 835.70 768.20 833.10 768.80 830.90 769.70 C 827.10 773.90 823.00 779.20 820.10 785.50 C 809.20 809.30 809.50 833.10 809.50 833.10 C 809.50 833.10 800.90 831.90 798.00 831.30 C 796.70 831.00 798.20 822.10 798.20 822.10 C 798.20 822.10 802.00 782.10 816.90 759.50 C 821.90 751.90 826.00 749.30 829.50 749.30 M 829.50 742.30 C 823.00 742.30 816.90 746.60 811.00 755.60 C 795.80 778.60 791.60 817.10 791.20 821.10 C 790.20 827.20 788.70 836.30 796.30 838.00 C 799.40 838.70 807.50 839.80 808.40 840.00 C 808.70 840.00 809.00 840.10 809.30 840.10 C 811.00 840.10 812.60 839.50 813.90 838.30 C 815.40 837.00 816.30 835.00 816.30 833.00 C 816.30 832.80 816.20 810.40 826.20 788.40 C 828.10 784.10 831.00 779.90 834.60 775.70 C 835.80 775.40 837.00 775.20 838.30 775.20 C 841.10 775.20 844.30 776.00 847.70 777.50 C 847.80 777.60 848.00 777.60 848.10 777.70 C 858.90 781.80 860.60 784.00 862.80 787.60 C 865.00 792.10 868.70 792.60 870.30 792.60 C 876.80 792.60 879.30 785.30 879.90 783.10 C 881.10 778.70 878.70 775.00 870.50 769.00 C 867.20 766.60 860.50 762.10 853.30 760.00 C 851.50 759.50 849.70 759.00 848.00 758.70 C 847.90 758.20 847.80 757.80 847.70 757.30 C 847.30 756.00 846.50 754.90 845.50 754.00 C 845.40 753.80 845.30 753.70 845.10 753.50 C 842.90 749.80 838.00 742.30 829.50 742.30 C 829.50 742.30 829.50 742.30 829.50 742.30 L 829.50 742.30 Z" fill="#22286e" fill-rule="nonzero" group-id="2,10,40,119" node-id="844" stroke="none" target-height="97.79999" target-width="92.39996" target-x="788.7" target-y="742.3"></path></g><g node-id="920"><path d="M 865.60 776.50 C 863.20 775.30 860.70 774.10 858.30 772.90 C 853.00 770.10 847.40 768.80 842.10 766.30 C 841.40 766.00 837.40 764.40 835.90 764.40 C 839.40 761.10 841.80 759.30 841.00 759.20 C 840.50 759.20 839.70 757.60 838.40 755.80 C 826.00 762.50 816.70 776.80 811.90 789.30 C 807.50 800.90 807.50 813.60 800.40 824.00 C 799.70 825.10 798.60 825.30 797.60 825.10 C 797.30 827.70 797.00 831.00 797.80 831.20 C 800.70 831.90 809.30 833.00 809.30 833.00 C 809.30 833.00 809.00 809.20 819.90 785.40 C 822.80 779.10 826.90 773.70 830.70 769.60 C 835.80 767.60 842.30 767.30 850.70 771.00 C 864.00 776.00 866.30 779.60 869.10 784.00 C 870.10 786.20 871.10 785.40 872.00 784.10 C 870.60 781.00 869.00 778.30 865.60 776.50 Z" fill="#1e7cb9" fill-rule="nonzero" group-id="2,10,41" node-id="850" stroke="none" target-height="77.20001" target-width="75" target-x="797" target-y="755.8"></path></g><g node-id="921"><g node-id="999"><path d="M 951.90 845.90 C 939.50 845.90 923.50 843.10 904.60 837.60 C 851.40 822.10 852.10 773.40 852.10 772.90 C 852.10 771.80 852.40 770.70 852.90 769.70 C 860.00 756.60 871.50 749.70 885.90 749.70 C 902.20 749.70 922.00 758.30 944.70 775.20 C 981.60 802.70 974.50 836.30 974.10 837.70 C 973.70 839.30 972.80 840.80 971.40 841.80 C 970.20 842.70 964.90 845.90 951.90 845.90 C 951.90 845.90 951.90 845.90 951.90 845.90 Z" fill="#73c0d7" fill-rule="nonzero" group-id="2,10,42,120" node-id="857" stroke="none" target-height="96.20001" target-width="130.19995" target-x="851.4" target-y="749.7"></path></g><path d="M 886.00 756.60 C 901.70 756.60 921.00 766.10 940.60 780.70 C 974.30 805.80 967.40 836.00 967.40 836.00 C 967.40 836.00 963.60 838.70 951.90 838.70 C 942.60 838.70 928.10 836.90 906.50 830.60 C 857.80 816.40 859.00 772.80 859.00 772.80 C 865.30 761.50 874.70 756.60 886.00 756.60 M 886.00 742.70 C 869.10 742.70 855.20 751.10 846.80 766.40 C 845.70 768.30 845.20 770.50 845.10 772.70 C 844.60 791.50 856.00 830.60 902.60 844.30 C 922.20 850.00 938.80 852.90 951.90 852.90 C 966.00 852.90 972.80 849.50 975.60 847.50 C 978.30 845.50 980.20 842.60 981.00 839.30 C 981.40 837.70 989.40 799.80 948.90 769.60 C 925.00 751.70 903.80 742.70 886.00 742.70 L 886.00 742.70 Z" fill="#22286e" fill-rule="nonzero" group-id="2,10,42,121" node-id="862" stroke="none" target-height="110.20001" target-width="144.80005" target-x="844.6" target-y="742.7"></path></g><g node-id="922"><path d="M 940.40 824.50 C 928.90 817.70 915.90 813.70 905.20 805.40 C 900.50 801.80 895.90 797.70 891.70 793.40 C 880.60 787.40 870.30 779.70 861.30 769.70 C 860.60 770.80 859.80 771.80 859.20 773.00 C 859.20 773.00 858.00 816.60 906.70 830.80 C 947.10 842.60 962.40 838.50 966.30 836.70 C 957.10 834.20 949.10 829.60 940.40 824.50 Z" fill="#1e7cb9" fill-rule="nonzero" group-id="2,10,43" node-id="868" stroke="none" target-height="72.89996" target-width="108.29999" target-x="858" target-y="769.7"></path></g><g node-id="923"><path d="M 790.20 1016.30 C 752.80 1016.00 701.40 994.10 714.70 1008.40 C 718.60 1012.60 718.40 1014.20 733.40 1024.30 C 745.30 1030.00 759.00 1033.80 774.40 1035.50 C 850.80 1044.00 889.50 1016.10 915.00 921.20 C 922.40 893.80 919.70 872.00 909.80 854.70 C 909.80 854.90 901.40 892.10 890.90 917.60 C 878.30 948.20 833.10 1016.70 790.20 1016.30 Z" fill="#d52061" fill-rule="nonzero" group-id="2,10,44" node-id="873" stroke="none" target-height="189.29999" target-width="221" target-x="701.4" target-y="854.7"></path></g><path d="M 699.00 952.60 C 699.00 952.60 683.70 909.70 685.80 880.30 C 688.00 851.00 706.10 828.50 717.70 826.50 C 729.20 824.50 723.10 830.70 731.60 833.10 C 740.10 835.50 758.00 845.20 763.20 843.90 C 768.40 842.70 777.10 837.40 779.90 844.70 C 782.70 852.00 775.30 866.80 769.20 868.70 C 763.10 870.60 752.70 875.60 747.00 871.70 C 741.20 867.80 722.70 870.50 717.70 865.90 C 712.70 861.50 686.00 878.90 699.00 952.60 Z" fill="#f7d9cc" fill-rule="nonzero" group-id="2,10,45" node-id="878" stroke="none" target-height="128.09998" target-width="99" target-x="683.7" target-y="824.5"></path></g></g></svg>