<?xml version="1.0" standalone="no"?>
<!DOCTYPE svg PUBLIC "-//W3C//DTD SVG 1.1//EN" "http://www.w3.org/Graphics/SVG/1.1/DTD/svg11.dtd" >
<svg xmlns="http://www.w3.org/2000/svg">
  <metadata>Created by iconfont</metadata>
  <defs>
  <font id="iconfont" horiz-adv-x="1024">
    <font-face
      font-family="iconfont"
      font-weight="400"
      font-stretch="normal"
      units-per-em="1024"
      ascent="896"
      descent="-128"
    />
      <missing-glyph />
      
      <glyph glyph-name="multiply" unicode="&#59498;" d="M237.933714 164.352c-14.573714-14.573714-14.994286-39.424 0-54.418286 14.573714-14.994286 39.424-14.573714 54.418286 0l219.428571 219.849143 219.867429-219.849143c14.573714-14.573714 39.424-14.994286 53.997714 0 15.433143 14.994286 14.994286 39.862857 0 54.418286l-219.428571 219.867429 219.428571 219.428571c14.994286 14.573714 15.433143 39.862857 0 54.418286-14.573714 14.994286-39.424 14.573714-53.997714 0L511.780571 438.217143l-219.428571 219.849143c-14.994286 14.573714-39.862857 14.994286-54.418286 0-14.994286-14.573714-14.573714-39.862857 0-54.418286l219.428572-219.428571z"  horiz-adv-x="1024" />
      
      <glyph glyph-name="nosign" unicode="&#59499;" d="M512-53.138286c238.72 0 437.138286 197.997714 437.138286 437.138286 0 238.72-198.857143 437.138286-437.577143 437.138286C272.438857 821.138286 74.88 622.72 74.88 384c0-239.140571 197.997714-437.138286 437.138286-437.138286z m-0.420571 801.426286c201.856 0 364.269714-162.432 364.708571-364.288 0-89.563429-31.725714-171.428571-84.845714-234.422857L277.577143 663.405714c62.994286 53.138286 144.420571 84.845714 234.002286 84.845715zM512 19.712C309.705143 19.712 148.114286 181.723429 148.114286 384c0 89.142857 31.286857 170.569143 84.004571 233.563429l513.865143-513.846858c-63.433143-52.717714-144.859429-84.004571-234.002286-84.004571z"  horiz-adv-x="1024" />
      
      <glyph glyph-name="pause_fill" unicode="&#59502;" d="M307.785143 34.925714h97.28c37.723429 0 56.996571 19.712 56.996571 57.417143V676.096c0 38.985143-19.273143 56.996571-56.996571 56.996571h-97.28c-37.723429 0-57.417143-19.712-57.417143-56.996571V92.342857c0-37.723429 19.712-57.417143 57.417143-57.417143z m311.149714 0h97.28c37.723429 0 57.417143 19.712 57.417143 57.417143V676.096c0 38.985143-19.712 56.996571-57.417143 56.996571h-97.28c-37.723429 0-56.996571-19.712-56.996571-56.996571V92.342857c0-37.723429 19.273143-57.417143 56.996571-57.417143z"  horiz-adv-x="1024" />
      
      <glyph glyph-name="pause_circle_fill" unicode="&#59503;" d="M512-53.138286c238.72 0 437.138286 197.997714 437.138286 437.138286 0 238.72-198.857143 437.138286-437.577143 437.138286C272.438857 821.138286 74.88 622.72 74.88 384c0-239.140571 197.997714-437.138286 437.138286-437.138286z m-112.274286 282.422857c-19.730286 0-28.306286 10.294857-28.306285 26.148572V512.146286c0 15.433143 8.594286 26.148571 28.288 26.148571h39.003428c19.712 0 28.288-10.715429 28.288-26.148571v-256.731429c0-15.835429-8.576-26.130286-28.288-26.130286z m185.124572 0c-19.273143 0-28.708571 10.294857-28.708572 26.148572V512.146286c0 15.433143 9.435429 26.148571 28.708572 26.148571h39.003428c19.291429 0 28.288-10.715429 28.288-26.148571v-256.731429c0-15.835429-8.996571-26.130286-28.288-26.130286z"  horiz-adv-x="1024" />
      
      <glyph glyph-name="pencil" unicode="&#59504;" d="M791.643429 586.496l43.282285 42.422857c21.869714 21.869714 22.710857 45.44 3.437715 65.152l-14.573715 14.573714c-19.291429 19.291429-42.861714 17.133714-64.731428-3.858285l-43.282286-42.861715zM286.354286 82.505143l467.565714 467.145143-74.989714 75.428571-468.004572-467.565714L170.24 62.354286c-3.858286-10.276571 6.857143-22.290286 17.133714-17.993143z"  horiz-adv-x="1024" />
      
      <glyph glyph-name="pencil_ellipsis_rectangle" unicode="&#59505;" d="M986.002286 599.734857l25.673143 26.020572c12.324571 12.653714 12.324571 29.44 0.347428 41.069714l-8.228571 8.210286c-10.934857 10.953143-28.050286 9.929143-39.68-1.718858l-25.673143-25.325714z m-393.234286-354.56l69.814857 31.140572 298.112 297.746285-47.908571 47.579429-297.782857-297.746286-32.841143-67.437714c-2.742857-5.814857 4.114286-14.025143 10.605714-11.282286zM100.278857 19.968h673.536c64.694857 0 99.931429 33.883429 99.931429 98.56V401.92l-55.094857-55.094857v-231.021714c0-28.416-16.091429-44.489143-44.489143-44.489143H99.602286c-28.416 0-44.507429 16.091429-44.507429 44.489143v287.817142c0 28.416 16.091429 44.507429 44.507429 44.507429h554.093714l51.675429 51.328H100.278857C35.584 499.456 0 465.572571 0 400.896v-282.349714c0-64.694857 35.584-98.56 100.278857-98.56z m86.582857 195.766857c24.32 0 44.16 19.858286 44.16 43.812572a43.958857 43.958857 0 0 1-44.16 43.812571 43.666286 43.666286 0 0 1-43.794285-43.812571 43.885714 43.885714 0 0 1 43.794285-43.812572z m137.581715 0c24.32 0 44.16 19.858286 44.16 43.812572a43.958857 43.958857 0 0 1-44.16 43.812571 43.757714 43.757714 0 0 1-44.141715-43.812571 43.958857 43.958857 0 0 1 44.141715-43.812572z m137.252571 0a44.123429 44.123429 0 0 1 43.794286 43.812572 43.885714 43.885714 0 0 1-43.794286 43.812571 43.958857 43.958857 0 0 1-44.16-43.812571c0-23.954286 19.858286-43.812571 44.16-43.812572z"  horiz-adv-x="1024" />
      
      <glyph glyph-name="pencil_circle" unicode="&#59506;" d="M512-53.138286c238.72 0 437.138286 197.997714 437.138286 437.138286 0 238.72-198.857143 437.138286-437.577143 437.138286C272.438857 821.138286 74.88 622.72 74.88 384c0-239.140571 197.997714-437.138286 437.138286-437.138286z m0 72.850286C309.705143 19.712 148.114286 181.723429 148.114286 384c0 201.874286 161.152 364.288 363.446857 364.288 201.856 0 364.269714-162.432 364.708571-364.288 0.420571-202.294857-162.432-364.288-364.288-364.288z m164.150857 480.859429l29.988572 30.427428c13.293714 14.134857 14.573714 29.147429 1.718857 41.563429l-8.996572 9.435428c-12.434286 12.434286-27.867429 11.154286-41.581714-2.139428l-30.427429-29.988572z m-297.874286-296.576l273.005715 272.146285-49.28 48.859429-272.146286-271.725714-23.588571-55.277715a11.446857 11.446857 0 0 1 14.592-15.433143z"  horiz-adv-x="1024" />
      
      <glyph glyph-name="pause" unicode="&#59507;" d="M370.578286 29.988571c20.132571 0 36.425143 15.433143 36.425143 35.584V701.988571a36.022857 36.022857 0 0 1-36.425143 35.986286c-20.150857 0-36.864-15.853714-36.864-35.986286v-636.434285c0-20.150857 16.713143-35.565714 36.864-35.565715z m283.282285 0c20.132571 0 36.425143 15.433143 36.425143 35.584V701.988571a36.022857 36.022857 0 0 1-36.425143 35.986286c-20.150857 0-36.864-15.853714-36.864-35.986286v-636.434285c0-20.150857 16.713143-35.565714 36.864-35.565715z"  horiz-adv-x="1024" />
      
      <glyph glyph-name="pause_circle" unicode="&#59508;" d="M512-53.138286c238.72 0 437.138286 197.997714 437.138286 437.138286 0 238.72-198.857143 437.138286-437.577143 437.138286C272.438857 821.138286 74.88 622.72 74.88 384c0-239.140571 197.997714-437.138286 437.138286-437.138286z m0 72.850286C309.705143 19.712 148.114286 181.723429 148.114286 384c0 201.874286 161.152 364.288 363.446857 364.288 201.856 0 364.269714-162.432 364.708571-364.288 0.420571-202.294857-162.432-364.288-364.288-364.288z m-117.430857 201.874286h40.722286c20.132571 0 29.568 11.136 29.568 27.428571V518.546286c0 16.292571-9.435429 27.428571-29.568 27.428571h-40.722286c-20.992 0-30.427429-11.136-30.427429-27.428571v-269.568c0-16.274286 9.435429-27.428571 30.427429-27.428572z m193.718857 0h40.704c20.571429 0 30.006857 11.136 30.006857 27.428571V518.546286c0 16.292571-9.435429 27.428571-29.988571 27.428571h-40.722286c-20.150857 0-29.988571-11.136-29.988571-27.428571v-269.568c0-16.274286 9.837714-27.428571 29.988571-27.428572z"  horiz-adv-x="1024" />
      
      <glyph glyph-name="play_fill" unicode="&#59511;" d="M239.433143 21.211429c17.133714 0 31.707429 6.857143 48.859428 16.713142l499.712 288.859429c35.565714 21.010286 48 34.724571 48 57.417143 0 22.729143-12.434286 36.443429-48 57.014857L288.292571 730.496c-17.152 9.874286-31.725714 16.274286-48.859428 16.274286-31.725714 0-51.437714-23.990857-51.437714-61.257143v-602.587429c0-37.284571 19.712-61.714286 51.437714-61.714285z"  horiz-adv-x="1024" />
      
      <glyph glyph-name="play_circle_fill" unicode="&#59512;" d="M512-53.138286c238.72 0 437.138286 197.997714 437.138286 437.138286 0 238.72-198.857143 437.138286-437.577143 437.138286C272.438857 821.138286 74.88 622.72 74.88 384c0-239.140571 197.997714-437.138286 437.138286-437.138286z m-78.445714 271.725715c-19.693714-12.013714-41.984-2.596571-41.984 17.974857V531.456c0 19.712 23.570286 28.269714 42.002285 17.554286l240.859429-142.701715c17.554286-10.294857 17.993143-34.724571 0-45.44z"  horiz-adv-x="1024" />
      
      <glyph glyph-name="play_rectangle" unicode="&#59513;" d="M141.074286-10.496h741.851428c89.581714 0 134.582857 44.562286 134.582857 132.845714V645.668571c0 88.283429-45.001143 132.845714-134.582857 132.845715H141.074286C51.931429 778.496 6.491429 734.354286 6.491429 645.668571V122.331429c0-88.704 45.44-132.845714 134.582857-132.845715z m1.28 68.992c-42.861714 0-66.852571 22.710857-66.852572 67.291429V642.194286c0 44.580571 23.990857 67.291429 66.852572 67.291428h739.291428c42.422857 0 66.852571-22.710857 66.852572-67.291428V125.805714c0-44.580571-24.429714-67.291429-66.852572-67.291428zM383.634286 244.077714c0-19.712 21.869714-28.288 40.722285-17.152l229.284572 135.424c16.713143 10.294857 16.274286 33.865143 0 43.300572l-229.284572 136.283428c-17.572571 10.276571-40.722286 2.139429-40.722285-17.152z"  horiz-adv-x="1024" />
      
      <glyph glyph-name="exclamationmark_circle" unicode="&#59514;" d="M512-53.138286c238.72 0 437.138286 197.997714 437.138286 437.138286 0 238.72-198.857143 437.138286-437.577143 437.138286C272.438857 821.138286 74.88 622.72 74.88 384c0-239.140571 197.997714-437.138286 437.138286-437.138286z m0 72.850286C309.705143 19.712 148.114286 181.723429 148.114286 384c0 201.874286 161.152 364.288 363.446857 364.288 201.856 0 364.269714-162.432 364.708571-364.288 0.420571-202.294857-162.432-364.288-364.288-364.288z m-0.420571 286.72c20.553143 0 32.128 11.574857 32.548571 33.846857l6.436571 226.285714c0.438857 21.869714-16.713143 38.144-39.424 38.144-23.149714 0-39.424-15.853714-39.003428-37.705142l5.577143-226.724572c0.420571-21.851429 12.434286-33.846857 33.865143-33.846857z m0-139.282286c24.411429 0 46.262857 19.712 46.262857 44.562286 0 25.289143-21.412571 44.580571-46.262857 44.580571-25.289143 0-46.299429-19.712-46.299429-44.580571 0-24.429714 21.430857-44.562286 46.299429-44.562286z"  horiz-adv-x="1024" />
      
      <glyph glyph-name="plus_circle" unicode="&#59516;" d="M512-53.138286c238.72 0 437.138286 197.997714 437.138286 437.138286 0 238.72-198.857143 437.138286-437.577143 437.138286C272.438857 821.138286 74.88 622.72 74.88 384c0-239.140571 197.997714-437.138286 437.138286-437.138286z m0 72.850286C309.705143 19.712 148.114286 181.723429 148.114286 384c0 201.874286 161.152 364.288 363.446857 364.288 201.856 0 364.269714-162.432 364.708571-364.288 0.420571-202.294857-162.432-364.288-364.288-364.288z m-1.28 160.731429c23.131429 0 36.845714 15.835429 36.845714 40.704V347.977143h134.144c24.009143 0 40.722286 12.434286 40.722286 35.145143 0 23.149714-15.853714 36.425143-40.722286 36.425143h-134.144v134.582857c0 25.289143-13.714286 40.704-36.845714 40.704-22.729143 0-35.145143-16.274286-35.145143-40.704v-134.582857h-133.723428c-25.289143 0-41.142857-13.275429-41.142858-36.425143 0-22.710857 17.152-35.145143 41.142858-35.145143h133.723428v-126.848c0-24.009143 12.434286-40.722286 35.145143-40.722286z"  horiz-adv-x="1024" />
      
      <glyph glyph-name="plus_rectangle" unicode="&#59517;" d="M141.074286-10.496h741.851428c89.581714 0 134.582857 44.562286 134.582857 132.845714V645.668571c0 88.283429-45.001143 132.845714-134.582857 132.845715H141.074286C51.931429 778.496 6.491429 734.354286 6.491429 645.668571V122.331429c0-88.704 45.44-132.845714 134.582857-132.845715z m1.28 68.992c-42.861714 0-66.852571 22.710857-66.852572 67.291429V642.194286c0 44.580571 23.990857 67.291429 66.852572 67.291428h739.291428c42.422857 0 66.852571-22.710857 66.852572-67.291428V125.805714c0-44.580571-24.429714-67.291429-66.852572-67.291428z m369.005714 120.868571c23.131429 0 36.425143 15.853714 36.425143 40.704v124.708572h130.706286c24.009143 0 40.722286 12.873143 40.722285 35.584 0 23.131429-15.433143 36.425143-40.722285 36.425143h-130.706286v132.864c0 24.850286-13.293714 40.704-36.425143 40.704-22.710857 0-35.145143-16.713143-35.145143-40.704v-132.864h-130.724571c-24.850286 0-40.704-13.293714-40.704-36.425143 0-22.710857 16.713143-35.565714 40.704-35.565714h130.724571v-124.708572c0-24.009143 12.434286-40.722286 35.145143-40.722286z"  horiz-adv-x="1024" />
      
      <glyph glyph-name="plus" unicode="&#59518;" d="M511.780571 23.149714c21.010286 0 38.582857 16.713143 38.582858 37.284572V345.417143h276.845714c20.571429 0 38.582857 17.554286 38.582857 38.564571 0 20.992-18.011429 38.144-38.582857 38.144h-276.845714v285.44c0 20.553143-17.572571 37.266286-38.582858 37.266286-20.992 0-38.144-16.713143-38.144-37.284571v-285.44h-276.845714c-20.571429 0-38.582857-17.133714-38.582857-38.125715s18.011429-38.582857 38.582857-38.582857h276.845714v-284.982857c0-20.571429 17.152-37.302857 38.144-37.302857z"  horiz-adv-x="1024" />
      
      <glyph glyph-name="plus_square_fill" unicode="&#59519;" d="M252.068571-10.496h520.283429c89.581714 0 134.144 44.562286 134.144 132.845714V645.668571c0 88.283429-44.562286 132.845714-134.144 132.845715H252.068571c-89.142857 0-134.582857-44.141714-134.582857-132.845715V122.331429c0-88.704 45.44-132.845714 134.582857-132.845715z m259.712 181.705143c-24.429714 0-37.284571 17.572571-37.284571 42.422857v133.302857h-140.562286c-25.289143 0-42.861714 13.275429-42.861714 36.845714 0 24.429714 16.713143 38.144 42.861714 38.144h140.562286v141.860572c0 24.868571 12.854857 42.422857 37.302857 42.422857 23.552 0 38.125714-16.713143 38.125714-42.422857v-141.860572h141.001143c26.148571 0 42.422857-13.714286 42.422857-38.144 0-23.570286-17.133714-36.845714-42.422857-36.845714h-140.982857v-133.302857c0-25.709714-14.592-42.422857-38.162286-42.422857z"  horiz-adv-x="1024" />
      
      <glyph glyph-name="plus_app_fill" unicode="&#59515;" d="M851.858286 723.2c-43.702857 43.721143-105.435429 50.578286-178.285715 50.578286H349.568c-71.990857 0-133.705143-6.857143-177.426286-50.56-43.702857-43.702857-50.139429-104.996571-50.139428-176.566857v-324.022858c0-73.270857 6.436571-134.125714 50.139428-177.846857 43.702857-43.702857 105.435429-50.56 178.724572-50.56h322.706285c72.850286 0 134.582857 6.857143 178.285715 50.56 43.702857 43.702857 50.139429 104.576 50.139428 177.865143V545.353143c0 73.289143-6.418286 134.582857-50.139428 177.865143zM512 132.662857a33.92 33.92 0 0 0-33.865143 33.846857V350.354286h-183.405714c-18.870857 0-33.865143 15.433143-33.865143 33.426285 0 18.011429 14.994286 34.285714 33.846857 34.285715h183.424V601.508571c0 19.273143 14.994286 34.285714 33.865143 34.285715 19.291429 0 33.865143-14.994286 33.865143-34.285715v-183.442285h183.844571c18.870857 0 33.865143-16.274286 33.865143-34.285715 0-17.993143-14.994286-33.426286-33.865143-33.426285H545.865143v-183.862857A33.645714 33.645714 0 0 0 512 132.644571z"  horiz-adv-x="1024" />
      
      <glyph glyph-name="plus_square" unicode="&#59528;" d="M252.068571-10.496h520.283429c89.581714 0 134.144 44.562286 134.144 132.845714V645.668571c0 88.283429-44.562286 132.845714-134.144 132.845715H252.068571c-89.142857 0-134.582857-44.141714-134.582857-132.845715V122.331429c0-88.704 45.44-132.845714 134.582857-132.845715z m1.28 68.992c-42.843429 0-66.852571 22.710857-66.852571 67.291429V642.194286c0 44.580571 24.009143 67.291429 66.852571 67.291428h517.723429c42.422857 0 66.432-22.710857 66.432-67.291428V125.805714c0-44.580571-24.009143-67.291429-66.432-67.291428z m258.432 123.008c22.710857 0 36.425143 15.853714 36.425143 40.704v126.427429h134.144c24.009143 0 40.722286 12.873143 40.722286 35.584 0 23.131429-15.853714 36.425143-40.722286 36.425142H548.205714v134.582858c0 24.850286-13.714286 40.704-36.425143 40.704s-35.565714-16.713143-35.565714-40.722286v-134.582857H342.491429c-24.850286 0-41.142857-13.275429-41.142858-36.406857 0-22.710857 17.152-35.584 41.142858-35.584h133.723428v-126.427429c0-23.990857 12.854857-40.704 35.565714-40.704z"  horiz-adv-x="1024" />
      
      <glyph glyph-name="search" unicode="&#59539;" d="M438.070857 132.205714a329.508571 329.508571 0 0 1 191.579429 61.732572l203.136-203.154286a48.603429 48.603429 0 0 1 34.706285-14.134857c27.867429 0 48 21.430857 48 48.859428 0 12.854857-4.278857 24.850286-13.714285 34.267429L699.922286 262.089143c42.422857 55.716571 67.712 124.708571 67.712 199.716571 0 181.284571-148.278857 329.563429-329.563429 329.563429-181.723429 0-329.563429-148.278857-329.563428-329.563429S256.347429 132.205714 438.070857 132.205714z m0 71.149715c-141.860571 0-258.432 116.992-258.432 258.432 0 141.421714 116.571429 258.432 258.432 258.432 141.421714 0 258.432-117.010286 258.432-258.432 0-141.44-117.010286-258.432-258.432-258.432z"  horiz-adv-x="1024" />
      
      <glyph glyph-name="text_justify" unicode="&#59560;" d="M112.786286 688.274286h797.988571c18.432 0 33.005714 14.153143 33.005714 32.585143 0 17.993143-14.573714 32.146286-32.987428 32.146285H112.786286c-18.432 0-32.566857-14.153143-32.566857-32.146285 0-18.432 14.134857-32.566857 32.548571-32.566858z m0-224.548572h797.988571c18.432 0 33.005714 14.134857 33.005714 32.548572 0 18.011429-14.573714 32.146286-32.987428 32.146285H112.786286c-18.432 0-32.566857-14.134857-32.566857-32.128 0-18.432 14.134857-32.585143 32.548571-32.585142z m0-224.585143h797.988571a32.658286 32.658286 0 0 1 33.005714 32.566858c0 18.011429-14.573714 32.146286-32.987428 32.146285H112.786286c-18.432 0-32.566857-14.134857-32.566857-32.146285 0-17.993143 14.134857-32.548571 32.548571-32.548572z m0-224.146285h797.988571c18.432 0 33.005714 14.153143 33.005714 32.146285s-14.573714 32.566857-32.987428 32.566858H112.786286a32.292571 32.292571 0 0 1-32.566857-32.548572c0-18.011429 14.134857-32.164571 32.548571-32.164571z"  horiz-adv-x="1024" />
      
      <glyph glyph-name="search_circle" unicode="&#59562;" d="M512-53.138286c238.72 0 437.138286 197.997714 437.138286 437.138286 0 238.72-198.857143 437.138286-437.577143 437.138286C272.438857 821.138286 74.88 622.72 74.88 384c0-239.140571 197.997714-437.138286 437.138286-437.138286z m0 72.850286C309.705143 19.712 148.114286 181.723429 148.114286 384c0 201.874286 161.152 364.288 363.446857 364.288 201.856 0 364.269714-162.432 364.708571-364.288 0.420571-202.294857-162.432-364.288-364.288-364.288z m-44.580571 246.857143c33.426286 0 64.292571 10.294857 90.441142 27.428571l105.417143-105.856c8.155429-8.137143 16.292571-11.154286 26.148572-11.154285 16.713143 0 29.147429 12.434286 29.147428 30.445714 0 8.137143-3.858286 16.274286-9.874285 22.272l-106.697143 106.715428a165.156571 165.156571 0 0 1 29.988571 95.158858c0 90.422857-74.130286 164.571429-164.571428 164.571428-90.843429 0-164.992-74.148571-164.992-164.571428 0-90.88 74.148571-165.010286 164.992-165.010286z m0 47.579428c-64.274286 0-117.430857 53.138286-117.430858 117.430858 0 63.414857 53.156571 116.571429 117.430858 116.571428 63.451429 0 116.571429-53.156571 116.571428-116.571428 0-64.292571-53.138286-117.430857-116.571428-117.430858z"  horiz-adv-x="1024" />
      
      <glyph glyph-name="square_split_x" unicode="&#59583;" d="M252.068571-10.496h520.283429c89.581714 0 134.144 44.562286 134.144 132.845714V645.668571c0 88.283429-44.562286 132.845714-134.144 132.845715H252.068571c-89.142857 0-134.582857-44.141714-134.582857-132.845715V122.331429c0-88.704 45.44-132.845714 134.582857-132.845715z m1.28 68.992c-42.843429 0-66.852571 22.710857-66.852571 67.291429V642.194286c0 44.580571 24.009143 67.291429 66.852571 67.291428h222.866286v-651.008z m517.723429 651.008c42.422857 0 66.432-22.710857 66.432-67.291429V125.805714c0-44.580571-24.009143-67.291429-66.432-67.291428H548.205714V709.504z"  horiz-adv-x="1024" />
      
      <glyph glyph-name="square_righthalf_fill" unicode="&#59596;" d="M252.068571-10.496h520.283429c89.581714 0 134.144 44.562286 134.144 132.845714V645.668571c0 88.283429-44.562286 132.845714-134.144 132.845715H252.068571c-89.142857 0-134.582857-44.141714-134.582857-132.845715V122.331429c0-88.704 45.44-132.845714 134.582857-132.845715zM771.072 709.485714c42.422857 0 66.432-22.710857 66.432-67.291428V125.805714c0-44.580571-24.009143-67.291429-66.432-67.291428H512.219429V709.504z"  horiz-adv-x="1024" />
      
      <glyph glyph-name="square_lefthalf_fill" unicode="&#59597;" d="M252.068571-10.496h520.283429c89.581714 0 134.144 44.562286 134.144 132.845714V645.668571c0 88.283429-44.562286 132.845714-134.144 132.845715H252.068571c-89.142857 0-134.582857-44.141714-134.582857-132.845715V122.331429c0-88.704 45.44-132.845714 134.582857-132.845715z m1.28 68.992c-42.843429 0-66.852571 22.710857-66.852571 67.291429V642.194286c0 44.580571 24.009143 67.291429 66.852571 67.291428h258.870858v-651.008z"  horiz-adv-x="1024" />
      
      <glyph glyph-name="stop_circle" unicode="&#59607;" d="M512-53.138286c238.72 0 437.138286 197.997714 437.138286 437.138286 0 238.72-198.857143 437.138286-437.577143 437.138286C272.438857 821.138286 74.88 622.72 74.88 384c0-239.140571 197.997714-437.138286 437.138286-437.138286z m0 72.850286C309.705143 19.712 148.114286 181.723429 148.114286 384c0 201.874286 161.152 364.288 363.446857 364.288 201.856 0 364.269714-162.432 364.708571-364.288 0.420571-202.294857-162.432-364.288-364.288-364.288z m-151.277714 253.714286c0-25.709714 15.414857-41.142857 41.563428-41.142857h219.428572c25.709714 0 41.563429 15.433143 41.563428 41.142857V494.573714c0 25.289143-15.853714 40.704-41.563428 40.704H402.285714c-26.148571 0-41.563429-15.414857-41.563428-40.704z"  horiz-adv-x="1024" />
      
      <glyph glyph-name="tag" unicode="&#59613;" d="M477.494857-40.502857c61.293714-61.275429 124.288-62.134857 187.282286 0.438857L936.064 230.765714c62.573714 62.573714 61.714286 125.988571 0.438857 187.282286L517.357714 836.352c-32.146286 32.146286-50.139429 34.285714-95.579428 34.285714H258.925714c-45.421714 0-59.574857-11.154286-91.702857-43.282285l-98.578286-98.56c-32.566857-32.585143-43.282286-46.72-43.282285-92.16v-162.852572c0-44.982857 1.700571-63.433143 34.285714-95.561143z m46.299429 51.858286L108.068571 427.062857c-8.576 8.594286-13.714286 17.572571-13.714285 31.725714v180.845715c0 13.293714 4.717714 22.308571 13.714285 31.286857l116.571429 116.571428c9.435429 9.014857 18.011429 14.153143 31.725714 14.153143h180.425143c14.573714 0 23.131429-5.577143 32.146286-14.153143l415.707428-415.268571c30.427429-30.445714 31.268571-63.451429-0.420571-94.72L618.477714 11.776c-31.268571-31.707429-64.274286-31.268571-94.72-0.420571zM309.065143 527.780571c33.426286 0 58.715429 26.148571 58.715428 58.715429 0 33.005714-25.289143 58.715429-58.697142 58.715429-33.444571 0-58.733714-25.709714-58.733715-58.697143 0-32.585143 25.289143-58.733714 58.715429-58.733715z"  horiz-adv-x="1024" />
      
      <glyph glyph-name="bars1" unicode="&#59614;" d="M146.285714 566.857143c0 20.205714 16.310857 36.571429 36.516572 36.571428h658.395428c20.169143 0 36.516571-16.237714 36.516572-36.571428 0-20.205714-16.310857-36.571429-36.516572-36.571429H182.802286A36.461714 36.461714 0 0 0 146.285714 566.857143z m0-182.857143c0 20.205714 16.310857 36.571429 36.516572 36.571429h658.395428c20.169143 0 36.516571-16.237714 36.516572-36.571429 0-20.205714-16.310857-36.571429-36.516572-36.571429H182.802286A36.461714 36.461714 0 0 0 146.285714 384z m0-182.857143c0 20.205714 16.310857 36.571429 36.516572 36.571429h658.395428c20.169143 0 36.516571-16.237714 36.516572-36.571429 0-20.205714-16.310857-36.571429-36.516572-36.571428H182.802286A36.461714 36.461714 0 0 0 146.285714 201.142857z"  horiz-adv-x="1024" />
      
      <glyph glyph-name="arrow__circlepath" unicode="&#59323;" d="M986.496 415.030857h-56.448c-22.674286 209.737143-203.154286 376.630857-418.249143 376.630857-125.275429 0-238.994286-56.868571-316.470857-146.285714-15.670857-17.737143-13.202286-39.552 2.870857-51.090286 16.493714-11.538286 35.84-7.844571 49.462857 7.405715a349.586286 349.586286 0 0 0 264.137143 119.917714 348.781714 348.781714 0 0 0 347.373714-306.578286h-61.403428c-29.257143 0-37.083429-19.785143-21.028572-42.441143l91.904-131.456c13.184-18.962286 32.969143-19.382857 46.573715 0l92.288 131.035429c16.493714 23.076571 8.667429 42.861714-21.010286 42.861714z m-948.992-87.771428h56.448c22.674286-209.737143 203.154286-376.228571 417.828571-376.228572 126.098286 0 239.835429 57.289143 317.312 146.285714 14.829714 17.737143 12.763429 39.972571-2.889142 51.510858-16.475429 11.538286-35.84 7.424-49.444572-7.826286-63.451429-73.764571-158.244571-119.917714-264.96-119.917714A348.342857 348.342857 0 0 0 164.827429 327.259429h61.403428c29.257143 0 37.083429 20.187429 21.028572 42.422857l-92.324572 131.474285c-13.165714 18.944-32.548571 19.364571-46.153143 0L16.475429 370.102857C0 347.428571 7.826286 327.241143 37.504 327.241143z"  horiz-adv-x="1024" />
      
      <glyph glyph-name="arrow_left_circle_fill" unicode="&#59329;" d="M512-53.138286c238.72 0 437.138286 197.997714 437.138286 437.138286 0 238.72-198.857143 437.138286-437.577143 437.138286C272.438857 821.138286 74.88 622.72 74.88 384c0-239.140571 197.997714-437.138286 437.138286-437.138286z m-249.856 437.577143c0 10.276571 3.419429 18.834286 13.275429 28.708572l164.150857 164.132571c6.857143 6.436571 15.433143 9.874286 25.709714 9.874286 20.150857 0 36.004571-15.433143 36.004571-35.584 0-10.276571-5.138286-19.712-11.154285-25.709715L429.714286 465.865143l-58.294857-48.859429 103.296 4.278857h251.136c21.430857 0 36.004571-15.433143 36.425142-36.864 0-21.412571-14.994286-36.845714-36.425142-36.845714H474.715429l-103.296 3.84 58.294857-49.28 60.434285-59.136c6.418286-6.436571 11.136-15.433143 11.136-26.148571 0-20.132571-15.853714-35.565714-36.004571-35.565715-10.276571 0-18.852571 4.278857-25.709714 10.294858l-164.150857 163.712c-9.417143 9.417143-13.275429 17.993143-13.275429 29.129142z"  horiz-adv-x="1024" />
      
      <glyph glyph-name="arrow_left_circle" unicode="&#59330;" d="M512-53.138286c238.72 0 437.138286 197.997714 437.138286 437.138286 0 238.72-198.857143 437.138286-437.577143 437.138286C272.438857 821.138286 74.88 622.72 74.88 384c0-239.140571 197.997714-437.138286 437.138286-437.138286z m0 72.850286C309.705143 19.712 148.114286 181.723429 148.114286 384c0 201.874286 161.152 364.288 363.446857 364.288 201.856 0 364.269714-162.432 364.708571-364.288 0.420571-202.294857-162.432-364.288-364.288-364.288zM291.291429 384.420571c0-9.856 4.278857-17.133714 12.434285-25.270857l144.841143-145.298285c5.577143-5.558857 13.293714-8.996571 22.290286-8.996572 17.554286 0 30.848 14.153143 30.848 31.286857 0 9.435429-3.419429 17.152-9.417143 23.149715l-53.997714 52.717714-51.437715 43.702857 90.422858-3.419429h223.725714c18.432 0 31.707429 13.714286 31.707428 32.128 0 18.432-13.275429 32.146286-31.707428 32.146286H477.257143l-90.422857-3.419428 51.437714 43.282285 53.997714 53.138286a31.634286 31.634286 0 0 1 9.417143 22.710857c0 17.572571-13.275429 30.866286-30.848 30.866286-8.996571 0-16.713143-2.998857-22.290286-8.576l-144.859428-145.28c-8.576-8.576-12.434286-15.853714-12.434286-24.868572z"  horiz-adv-x="1024" />
      
      <glyph glyph-name="arrow_left" unicode="&#59331;" d="M114.066286 384c0-10.715429 4.717714-20.571429 13.293714-28.708571l284.562286-284.16c8.996571-8.137143 18.011429-11.995429 27.867428-11.995429 21.430857 0 37.705143 15.433143 37.705143 36.864 0 10.294857-3.84 20.571429-10.715428 27.008l-95.561143 97.700571-144.859429 131.584 104.137143-6.436571H872.228571c22.290286 0 37.723429 15.853714 37.723429 38.144 0 22.290286-15.433143 38.144-37.723429 38.144H330.496l-103.716571-6.436571 144.438857 131.584 95.561143 97.700571c7.296 6.875429 10.715429 16.731429 10.715428 27.008 0 21.430857-16.274286 36.864-37.705143 36.864-9.874286 0-19.291429-3.437714-28.708571-12.873143L127.341714 412.708571c-8.576-8.137143-13.293714-17.993143-13.293714-28.708571z"  horiz-adv-x="1024" />
      
      <glyph glyph-name="arrow_left_square_fill" unicode="&#59332;" d="M252.068571-10.496h520.283429c89.581714 0 134.144 44.562286 134.144 132.845714V645.668571c0 88.283429-44.562286 132.845714-134.144 132.845715H252.068571c-89.142857 0-134.582857-44.141714-134.582857-132.845715V122.331429c0-88.704 45.44-132.845714 134.582857-132.845715z m21.010286 395.574857c0 10.276571 3.419429 18.834286 13.275429 28.708572l164.150857 164.132571c6.857143 6.436571 15.414857 9.874286 25.709714 9.874286 20.132571 0 36.004571-15.433143 36.004572-35.584 0-10.276571-5.156571-19.712-11.154286-25.709715l-60.416-59.995428-58.294857-48.859429 103.277714 4.278857h251.154286c21.430857 0 36.004571-15.433143 36.425143-36.845714 0-21.430857-14.573714-36.864-36.425143-36.864H485.632l-103.277714 3.84 58.294857-49.261714 60.416-59.154286c6.436571-6.418286 11.154286-15.433143 11.154286-26.148571 0-20.132571-15.872-35.565714-36.022858-35.565715-10.276571 0-18.834286 4.297143-25.691428 10.294858l-164.150857 163.712c-9.435429 9.417143-13.275429 17.993143-13.275429 29.147428z"  horiz-adv-x="1024" />
      
      <glyph glyph-name="arrow_left_square" unicode="&#59333;" d="M252.068571-10.496h520.283429c89.581714 0 134.144 44.562286 134.144 132.845714V645.668571c0 88.283429-44.562286 132.845714-134.144 132.845715H252.068571c-89.142857 0-134.582857-44.141714-134.582857-132.845715V122.331429c0-88.704 45.44-132.845714 134.582857-132.845715z m1.28 68.992c-42.843429 0-66.852571 22.710857-66.852571 67.291429V642.194286c0 44.580571 24.009143 67.291429 66.852571 67.291428h517.723429c42.422857 0 66.432-22.710857 66.432-67.291428V125.805714c0-44.580571-24.009143-67.291429-66.432-67.291428z m38.144 326.582857c0-9.874286 4.297143-17.152 12.434286-25.289143l144.859429-144.859428c5.577143-5.577143 13.293714-8.996571 22.290285-8.996572 17.554286 0 30.848 13.714286 30.848 31.268572 0 9.435429-3.419429 17.152-9.435428 22.729143l-53.577143 52.717714-51.84 43.702857 90.422857-3.419429h223.725714c18.413714 0 32.128 13.714286 32.128 32.146286 0 18.834286-13.714286 32.128-32.128 32.128H477.494857l-90.422857-3.419428 51.858286 43.282285 53.577143 53.138286c5.558857 5.997714 9.417143 13.714286 9.417142 23.149714 0 17.152-13.275429 30.866286-30.848 30.866286-8.996571 0-16.713143-3.017143-22.308571-8.594286l-144.841143-145.700571c-8.576-8.576-12.434286-15.853714-12.434286-24.868572z"  horiz-adv-x="1024" />
      
      <glyph glyph-name="arrow_uturn_left_circle_fill" unicode="&#59345;" d="M512-53.138286c238.72 0 437.138286 198.418286 437.138286 437.138286 0 239.140571-198.857143 437.138286-437.577143 437.138286C272.438857 821.138286 74.88 623.140571 74.88 384c0-238.72 197.997714-437.138286 437.138286-437.138286zM736.548571 320.146286c0-111.433143-81.426286-181.284571-189.44-181.284572h-64.274285c-20.132571 0-35.565714 12.434286-35.565715 33.426286 0 21.430857 15.433143 33.005714 34.706286 33.005714h65.152c70.290286 0 121.289143 45.421714 121.289143 118.710857 0 71.570286-52.717714 110.573714-120.868571 110.573715h-138.422858l-55.296 1.700571 27.008-20.132571 58.294858-55.296c6.857143-5.997714 10.276571-15.414857 10.276571-23.990857 0-19.291429-14.994286-34.285714-33.426286-34.285715-9.435429 0-16.713143 3.419429-23.588571 10.276572l-123.849143 126.427428c-7.277714 7.716571-12.434286 16.731429-12.434286 27.867429 0 11.154286 5.156571 20.571429 12.434286 28.708571l123.428571 124.708572c6.857143 7.296 13.714286 10.294857 23.588572 10.294857 18.834286 0 33.846857-14.573714 33.846857-33.865143 0-9.417143-4.278857-18.413714-10.715429-23.990857l-48.420571-46.72-36.443429-28.708572 55.296 1.718858h138.422858c107.995429 0 189.001143-67.712 189.001142-179.145143z"  horiz-adv-x="1024" />
      
      <glyph glyph-name="arrow_uturn_left" unicode="&#59346;" d="M916.992 257.572571c0 163.712-110.555429 276.845714-306.413714 276.845715H322.998857l-100.717714-4.699429 81.444571 69.430857 123.428572 120.850286c6.838857 6.857143 10.276571 14.994286 10.276571 26.148571 0 22.272-14.994286 37.705143-37.723428 37.705143-9.417143 0-20.571429-4.717714-27.849143-11.995428L119.862857 524.580571c-8.576-8.155429-12.854857-18.011429-12.854857-28.708571 0-10.294857 4.278857-20.150857 12.854857-28.306286l251.995429-247.277714a40.118857 40.118857 0 0 1 27.867428-11.995429c22.710857 0 37.705143 15.414857 37.705143 37.705143 0 11.154286-3.437714 19.291429-10.294857 26.148572l-123.428571 120.429714-81.426286 69.430857 100.717714-4.297143h293.997714c146.139429 0 223.725714-80.566857 223.725715-195.84 0-115.730286-77.586286-201.435429-223.725715-201.435428h-98.56c-23.588571 0-39.003429-17.152-39.003428-38.144 0-21.010286 15.433143-38.144 39.003428-38.144h98.998858c192 0 299.556571 109.275429 299.556571 273.426285z"  horiz-adv-x="1024" />
      
      <glyph glyph-name="arrow_uturn_left_square_fill" unicode="&#59347;" d="M252.068571-10.496h520.283429c89.581714 0 134.144 44.562286 134.144 132.845714V645.668571c0 88.283429-44.562286 132.845714-134.144 132.845715H252.068571c-89.142857 0-134.582857-44.141714-134.582857-132.845715V122.331429c0-88.704 45.44-132.845714 134.582857-132.845715z m489.874286 347.136c0-108.434286-78.866286-176.146286-184.301714-176.146286h-61.714286c-19.712 0-34.706286 11.574857-34.706286 31.725715 0 20.992 14.994286 32.566857 33.846858 32.566857h62.573714c68.571429 0 118.290286 43.702857 118.290286 115.291428 0 69.430857-51.017143 107.574857-117.869715 107.574857h-134.985143l-53.577142 1.700572 26.148571-19.273143 56.996571-54.436571c6.857143-5.997714 9.856-14.994286 9.856-23.149715 0-18.834286-14.134857-32.987429-31.725714-32.987428-9.417143 0-16.713143 2.998857-22.710857 9.856l-120.850286 122.989714c-6.857143 7.296-11.995429 16.274286-11.995428 27.008 0 10.715429 5.138286 19.712 11.995428 27.428571l120.429715 121.289143c6.418286 6.857143 13.293714 9.856 22.290285 9.856 18.432 0 32.548571-13.714286 32.548572-32.146285 0-9.435429-4.278857-17.572571-10.276572-23.149715l-47.140571-45.860571-35.565714-28.269714 53.577142 1.700571h135.003429c105.417143 0 183.844571-65.133714 183.844571-173.568z"  horiz-adv-x="1024" />
      
      <glyph glyph-name="arrow_uturn_left_square" unicode="&#59348;" d="M252.068571-10.496h520.283429c89.581714 0 134.144 44.562286 134.144 132.845714V645.668571c0 88.283429-44.562286 132.845714-134.144 132.845715H252.068571c-89.142857 0-134.582857-44.141714-134.582857-132.845715V122.331429c0-88.704 45.44-132.845714 134.582857-132.845715z m1.28 68.992c-42.843429 0-66.852571 22.710857-66.852571 67.291429V642.194286c0 44.141714 24.009143 67.291429 66.852571 67.291428h517.723429c42.422857 0 66.432-23.149714 66.432-67.291428V125.805714c0-44.580571-24.009143-67.291429-66.432-67.291428z m480.859429 275.565714c0 102.875429-74.569143 165.430857-174.427429 165.430857h-128.146285l-50.56-1.700571 33.846857 26.989714 44.141714 42.861715c5.997714 5.138286 9.874286 13.293714 9.874286 21.851428 0 18.011429-13.293714 31.286857-30.866286 31.286857a27.977143 27.977143 0 0 1-21.851428-9.417143l-114.011429-115.291428c-6.857143-7.296-11.574857-16.274286-11.574857-26.569143 0-9.874286 4.717714-18.432 11.574857-25.709714l114.432-117.010286c5.997714-5.997714 12.854857-8.576 21.851429-8.576 17.152 0 30.427429 13.293714 30.427428 30.866286 0 8.137143-2.998857 16.713143-9.417143 22.290285l-53.577143 51.419429-24.868571 18.432 50.578286-1.718857h128.146285c63.012571 0 111.433143-36.004571 111.433143-101.997714 0-67.712-47.140571-109.293714-111.853714-109.293715h-59.574857c-18.432 0-32.566857-11.136-32.566857-30.848s14.134857-30.427429 33.426285-30.427428h58.697143c99.876571 0 174.866286 63.853714 174.866286 167.131428z"  horiz-adv-x="1024" />
      
      <glyph glyph-name="arrowtriangle_right_circle_fill" unicode="&#59353;" d="M512-53.138286c238.72 0 437.138286 197.997714 437.138286 437.138286 0 238.72-198.857143 437.138286-437.577143 437.138286C272.438857 821.138286 74.88 622.72 74.88 384c0-239.140571 197.997714-437.138286 437.138286-437.138286z m-78.445714 271.725715c-19.693714-12.013714-41.984-2.596571-41.984 17.974857V531.456c0 19.712 23.570286 28.269714 42.002285 17.554286l240.859429-142.701715c17.554286-10.294857 17.993143-34.724571 0-45.44z"  horiz-adv-x="1024" />
      
      <glyph glyph-name="arrowtriangle_right_fill" unicode="&#59354;" d="M214.125714 43.282286c17.152 0 30.866286 7.296 48.877715 16.274285L813.714286 326.582857c36.425143 18.011429 48 34.724571 48 57.435429s-11.574857 39.003429-48 56.996571L263.003429 708.425143c-18.432 8.996571-32.146286 16.274286-49.28 16.274286-31.725714 0-51.437714-23.990857-51.437715-61.257143l0.420572-558.866286c0-37.302857 19.730286-61.293714 51.437714-61.293714z"  horiz-adv-x="1024" />
      
      <glyph glyph-name="arrowtriangle_right_circle" unicode="&#59355;" d="M512-53.138286c238.72 0 437.138286 197.997714 437.138286 437.138286 0 238.72-198.857143 437.138286-437.577143 437.138286C272.438857 821.138286 74.88 622.72 74.88 384c0-239.140571 197.997714-437.138286 437.138286-437.138286z m0 72.850286C309.705143 19.712 148.114286 181.723429 148.114286 384c0 201.874286 161.152 364.288 363.446857 364.288 201.856 0 364.269714-162.432 364.708571-364.288 0.420571-202.294857-162.432-364.288-364.288-364.288z m-75.428571 206.573714l229.284571 135.424c16.713143 10.294857 16.274286 33.865143 0 43.282286l-229.302857 136.301714c-17.554286 10.276571-40.704 2.139429-40.704-17.152v-280.722285c0-19.712 21.869714-28.269714 40.722286-17.133715z"  horiz-adv-x="1024" />
      
      <glyph glyph-name="arrowtriangle_right_square" unicode="&#59356;" d="M252.068571-10.496h520.283429c89.581714 0 134.144 44.562286 134.144 132.845714V645.668571c0 88.283429-44.562286 132.845714-134.144 132.845715H252.068571c-89.142857 0-134.582857-44.141714-134.582857-132.845715V122.331429c0-88.704 45.44-132.845714 134.582857-132.845715z m1.28 68.992c-42.843429 0-66.852571 22.710857-66.852571 67.291429V642.194286c0 44.580571 24.009143 67.291429 66.852571 67.291428h517.723429c42.422857 0 66.432-22.710857 66.432-67.291428V125.805714c0-44.580571-24.009143-67.291429-66.432-67.291428z m135.442286 466.285714v-280.704c0-19.712 21.412571-28.288 40.283429-17.152l229.284571 135.424c16.713143 10.294857 16.274286 33.865143 0 43.300572l-229.302857 136.283428c-17.554286 10.276571-40.265143 2.139429-40.265143-17.152z"  horiz-adv-x="1024" />
      
      <glyph glyph-name="arrowtriangle_right" unicode="&#59357;" d="M214.125714 43.282286c17.152 0 30.866286 7.296 48.877715 16.274285L813.714286 326.582857c36.425143 18.011429 48 34.724571 48 57.435429s-11.574857 39.003429-48 56.996571L263.003429 708.425143c-18.432 8.996571-32.146286 16.274286-49.28 16.274286-31.725714 0-51.437714-23.990857-51.437715-61.257143l0.420572-558.866286c0-37.302857 19.730286-61.293714 51.437714-61.293714z m21.449143 81.426285c-2.56 0-4.297143 1.718857-4.297143 5.156572V638.153143c0 3.419429 1.718857 5.12 4.297143 5.12 1.718857 0 3.419429-0.841143 5.138286-2.139429l525.001143-252.416c2.139429-0.859429 3.84-2.56 3.84-4.717714 0-2.139429-1.700571-3.84-3.84-4.717714L240.713143 126.427429c-1.718857-0.859429-3.419429-1.718857-5.138286-1.718858z"  horiz-adv-x="1024" />
      
      <glyph glyph-name="bars" unicode="&#59363;" d="M146.285714 566.857143c0 20.205714 16.310857 36.571429 36.516572 36.571428h658.395428c20.169143 0 36.516571-16.237714 36.516572-36.571428 0-20.205714-16.310857-36.571429-36.516572-36.571429H182.802286A36.461714 36.461714 0 0 0 146.285714 566.857143z m0-182.857143c0 20.205714 16.310857 36.571429 36.516572 36.571429h658.395428c20.169143 0 36.516571-16.237714 36.516572-36.571429 0-20.205714-16.310857-36.571429-36.516572-36.571429H182.802286A36.461714 36.461714 0 0 0 146.285714 384z m0-182.857143c0 20.205714 16.310857 36.571429 36.516572 36.571429h658.395428c20.169143 0 36.516571-16.237714 36.516572-36.571429 0-20.205714-16.310857-36.571429-36.516572-36.571428H182.802286A36.461714 36.461714 0 0 0 146.285714 201.142857z"  horiz-adv-x="1024" />
      
      <glyph glyph-name="bin_xmark" unicode="&#59365;" d="M288.128-10.020571h447.744c84.096 0 121.654857 39.277714 134.034286 122.934857l63.597714 428.123428h9.398857c52.48 0 81.097143 32.877714 81.097143 84.937143v64.896c0 52.077714-28.598857 84.937143-81.097143 84.937143H81.078857C31.158857 775.808 0 742.948571 0 690.870857v-64.896c0-52.059429 28.598857-84.937143 81.097143-84.937143h9.819428l63.177143-428.123428c12.8-84.077714 49.92-122.934857 134.034286-122.934857zM98.596571 605.494857c-21.339429 0-29.878857 8.96-29.878857 30.299429v45.257143c0 21.339429 8.539429 30.299429 29.878857 30.299428h827.227429c21.339429 0 29.44-8.96 29.44-30.299428v-45.257143c0-21.339429-8.100571-30.299429-29.44-30.299429z m190.372572-551.058286c-38.4 0-60.178286 17.078857-66.578286 59.337143L158.793143 541.037714h706.413714l-63.597714-427.264c-5.979429-42.258286-28.598857-59.337143-66.578286-59.337143z m99.035428 89.216c8.96 0 16.64 4.260571 22.619429 10.24l101.156571 101.156572 101.174858-101.156572c5.961143-5.540571 13.659429-10.24 23.04-10.24 17.92 0 32.438857 15.36 32.438857 33.28 0 9.837714-3.84 16.658286-9.819429 23.058286l-100.736 100.754286 101.174857 101.997714c6.4 6.838857 9.801143 13.238857 9.801143 22.198857a32.603429 32.603429 0 0 1-32.859428 32.859429c-8.100571 0-15.36-3.401143-22.198858-10.24l-102.016-101.156572-101.577142 100.736c-6.4 6.4-13.238857 9.819429-22.198858 9.819429-17.92 0-32.877714-14.08-32.877714-32.018286 0-9.398857 3.84-16.64 9.819429-22.619428l100.754285-101.595429-100.754285-101.156571c-5.961143-5.979429-9.819429-13.238857-9.819429-22.619429 0-17.92 14.518857-33.298286 32.877714-33.298286z"  horiz-adv-x="1024" />
      
      <glyph glyph-name="checkmark" unicode="&#59387;" d="M421.997714 17.792c18.432 0 33.005714 8.137143 43.282286 23.990857L870.290286 679.497143c7.716571 12.434286 11.154286 21.851429 11.154285 31.725714 0 23.570286-15.872 38.985143-39.442285 38.985143-16.713143 0-26.569143-5.558857-36.864-21.851429L420.278857 115.072 220.562286 376.502857c-10.697143 14.994286-20.992 20.992-36.845715 20.992-24.009143 0-41.142857-16.713143-41.142857-40.283428 0-9.856 4.278857-20.992 12.434286-31.268572L377.417143 42.624c13.275429-16.713143 26.148571-24.868571 44.562286-24.868571z"  horiz-adv-x="1024" />
      
      <glyph glyph-name="circle_grid_x_fill" unicode="&#59394;" d="M512 551.131429c67.712 0 123.428571 55.716571 123.428571 123.428571 0 67.730286-55.716571 123.428571-123.428571 123.008-67.712-0.420571-123.428571-55.277714-123.428571-122.989714 0-67.730286 55.716571-123.428571 123.428571-123.428572z m311.149714 0c67.291429 0 122.989714 55.716571 122.989715 123.428571 0 67.730286-55.716571 123.428571-122.989715 123.008-67.712-0.420571-123.428571-55.277714-123.428571-122.989714 0-67.730286 55.716571-123.428571 123.428571-123.428572z m-621.860571 0.438857c67.291429 0 122.989714 55.277714 122.989714 122.569143s-55.716571 123.428571-122.989714 123.428571c-67.712 0-123.428571-56.137143-123.428572-123.428571s55.716571-122.569143 123.428572-122.569143zM512 260.571429c67.712 0 123.428571 55.716571 123.428571 123.428571 0 67.291429-55.716571 123.428571-123.428571 123.008-67.712-0.438857-123.428571-55.716571-123.428571-123.008 0-67.712 55.716571-123.428571 123.428571-123.428571z m-310.710857 0c67.291429 0 122.989714 55.716571 122.989714 123.428571 0 67.291429-55.716571 123.428571-122.989714 123.008-67.712-0.438857-123.428571-55.716571-123.428572-123.008 0-67.712 55.716571-123.428571 123.428572-123.428571z m621.860571 0c67.291429 0 122.989714 55.716571 122.989715 123.428571 0 67.291429-55.716571 123.428571-122.989715 123.008-67.712-0.438857-123.428571-55.716571-123.428571-123.008 0-67.712 55.716571-123.428571 123.428571-123.428571zM201.289143-29.988571c67.291429 0 122.989714 55.698286 122.989714 123.428571 0 67.291429-55.716571 122.989714-122.989714 122.989714-67.712 0-123.428571-55.716571-123.428572-123.008 0-67.712 55.716571-123.428571 123.428572-123.428571z m310.710857 0c67.712 0 123.428571 55.698286 123.428571 123.428571 0 67.291429-55.716571 122.989714-123.428571 122.989714s-123.428571-55.716571-123.428571-123.008c0-67.712 55.716571-123.428571 123.428571-123.428571z m311.149714 0c67.291429 0 122.989714 55.698286 122.989715 123.428571 0 67.291429-55.716571 122.989714-122.989715 122.989714-67.712 0-123.428571-55.716571-123.428571-123.008 0-67.712 55.716571-123.428571 123.428571-123.428571z"  horiz-adv-x="1024" />
      
      <glyph glyph-name="circle_grid_x" unicode="&#59404;" d="M512 553.709714c68.571429 0 125.147429 56.576 125.147429 125.568 0 68.571429-56.576 125.147429-125.147429 124.708572-68.571429-0.420571-125.147429-56.137143-125.147429-124.708572 0-68.992 56.576-125.568 125.147429-125.568z m315.849143 0c68.571429 0 125.147429 56.576 125.147428 125.568 0 68.571429-56.557714 125.147429-125.129142 124.708572-68.571429-0.420571-125.147429-56.137143-125.147429-124.708572 0-68.992 56.557714-125.568 125.129143-125.568z m-631.277714 0.438857c68.150857 0 124.708571 56.137143 124.708571 124.708572 0 68.150857-56.557714 125.147429-124.708571 125.147428-68.992 0-125.568-56.996571-125.568-125.147428 0-68.571429 56.576-124.708571 125.568-124.708572z m631.277714 60.854858c-36.425143 0-63.414857 28.288-63.414857 64.274285 0 35.584 26.989714 64.292571 63.414857 64.292572a63.835429 63.835429 0 0 0 63.872-64.292572c0-35.986286-28.288-64.274286-63.853714-64.274285zM196.571429 617.142857c-35.145143 0-62.573714 27.428571-62.573715 62.134857A62.354286 62.354286 0 0 0 196.571429 741.851429c34.285714 0 61.714286-28.288 61.714285-62.573715 0-34.706286-27.428571-62.134857-61.714285-62.134857z m315.428571 0c-35.145143 0-62.134857 27.428571-62.134857 62.134857 0 34.285714 26.989714 62.573714 62.134857 62.573715 35.145143 0 61.714286-28.288 62.134857-62.573715 0.859429-34.706286-26.989714-62.134857-62.134857-62.134857z m315.849143-358.290286c68.571429 0 125.147429 56.576 125.147428 125.147429 0 68.150857-56.557714 125.147429-125.129142 124.708571-68.571429-0.420571-125.147429-56.557714-125.147429-124.708571 0-68.571429 56.557714-125.147429 125.129143-125.147429z m-315.849143 0c68.571429 0 125.147429 56.576 125.147429 125.147429 0 68.150857-56.576 125.147429-125.147429 124.708571-68.571429-0.420571-125.147429-56.557714-125.147429-124.708571 0-68.571429 56.576-125.147429 125.147429-125.147429z m-315.428571 0c68.150857 0 124.708571 56.576 124.708571 125.147429 0 68.150857-56.557714 125.147429-124.708571 124.708571-68.992-0.420571-125.568-56.557714-125.568-124.708571 0-68.571429 56.576-125.147429 125.568-125.147429z m631.277714 60.854858c-36.425143 0-63.414857 28.708571-63.414857 64.731428 0 35.126857 26.989714 63.853714 63.414857 63.853714a63.744 63.744 0 0 0 63.872-63.872c0-35.986286-28.288-64.713143-63.853714-64.713142z m-315.849143 0c-36.004571 0-64.274286 28.708571-64.274286 64.731428A63.835429 63.835429 0 0 0 512 448.274286a63.835429 63.835429 0 0 0 64.292571-63.872c0-35.986286-28.288-64.713143-64.292571-64.713143z m-315.428571 0c-36.004571 0-64.292571 28.708571-64.292572 64.731428a63.835429 63.835429 0 0 0 64.292572 63.853714c35.565714 0 62.994286-28.708571 62.994285-63.872 0-35.986286-27.428571-64.713143-62.994285-64.713142z m631.277714-356.132572c68.571429 0 125.147429 56.576 125.147428 125.147429 0 68.571429-56.557714 125.129143-125.129142 125.129143s-125.147429-56.557714-125.147429-125.129143 56.557714-125.147429 125.129143-125.147429z m-315.849143 0c68.571429 0 125.147429 56.576 125.147429 125.147429 0 68.571429-56.576 125.129143-125.147429 125.129143-68.571429 0-125.147429-56.557714-125.147429-125.129143S443.428571-36.425143 512-36.425143z m-315.428571 0c68.150857 0 124.708571 56.576 124.708571 125.147429 0 68.571429-56.557714 125.129143-124.708571 125.129143-68.992 0-125.568-56.557714-125.568-125.129143s56.576-125.147429 125.568-125.147429zM512 24.429714c-36.004571 0-64.274286 28.708571-64.274286 64.713143A63.835429 63.835429 0 0 0 512 152.996571a63.835429 63.835429 0 0 0 64.292571-63.853714c0-36.004571-28.288-64.731429-64.292571-64.731428z m315.849143 0c-36.425143 0-63.414857 28.708571-63.414857 64.713143 0 35.145143 26.989714 63.853714 63.414857 63.853714a63.744 63.744 0 0 0 63.872-63.853714c0-36.004571-28.288-64.731429-63.853714-64.731428z m-631.277714 0c-36.004571 0-64.292571 28.708571-64.292572 64.713143a63.835429 63.835429 0 0 0 64.292572 63.853714c35.565714 0 62.994286-28.708571 62.994285-63.853714 0-36.004571-27.428571-64.731429-62.994285-64.731428z"  horiz-adv-x="1024" />
      
      <glyph glyph-name="doc_plaintext" unicode="&#59421;" d="M284.434286-75.428571h455.131428c88.722286 0 132.864 44.580571 132.864 134.144V708.864c0 89.142857-44.141714 134.564571-132.864 134.564571h-455.131428c-88.283429 0-132.864-45.421714-132.864-134.582857v-650.130285c0-89.563429 44.580571-134.144 132.864-134.144z m3.419428 68.992c-44.141714 0-67.291429 23.588571-67.291428 66.432V707.565714c0 42.422857 23.149714 66.870857 67.730285 66.870857h447.853715c44.562286 0 67.291429-24.009143 67.291428-66.870857v-647.570285c0-42.843429-22.729143-66.432-66.870857-66.432z m62.153143 601.728h324.845714c14.994286 0 26.569143 11.995429 26.569143 26.989714 0 14.573714-11.556571 25.709714-26.569143 25.709714H350.006857c-15.872 0-27.008-11.136-27.008-25.709714 0-14.994286 11.154286-26.989714 27.008-26.989714z m0-149.577143h324.845714c14.994286 0 26.569143 11.995429 26.569143 27.008 0 14.555429-11.556571 25.709714-26.569143 25.709714H350.006857c-15.872 0-27.008-11.154286-27.008-25.709714 0-14.994286 11.154286-27.008 27.008-27.008z m0-149.577143h153.856c14.994286 0 26.569143 11.574857 26.569143 26.148571 0 14.994286-11.574857 26.569143-26.569143 26.569143H349.988571c-15.872 0-27.008-11.574857-27.008-26.569143 0-14.573714 11.154286-26.148571 27.008-26.148571z"  horiz-adv-x="1024" />
      
      <glyph glyph-name="doc_text" unicode="&#59423;" d="M284.434286-75.428571h455.131428c88.722286 0 132.864 45.001143 132.864 134.144V447.853714c0 55.296-5.997714 79.286857-40.283428 114.432L595.565714 802.724571c-32.548571 33.426286-59.136 40.704-107.574857 40.704H284.452571c-88.283429 0-132.864-45.421714-132.864-134.582857v-650.130285c0-89.563429 44.580571-134.144 132.864-134.144z m3.419428 68.992c-44.141714 0-67.291429 23.588571-67.291428 66.432V707.565714c0 42.422857 23.149714 66.870857 67.730285 66.870857h190.281143v-249.014857c0-53.997714 27.428571-80.566857 80.566857-80.566857h244.297143v-384.859428c0-42.843429-22.729143-66.432-67.291428-66.432zM566.857143 509.586286c-16.713143 0-23.588571 6.838857-23.588572 23.990857V761.142857l246.857143-251.574857z m102.857143-182.582857h-325.302857c-15.414857 0-26.550857-11.574857-26.550858-26.148572 0-14.994286 11.154286-26.569143 26.569143-26.569143h325.284572a26.148571 26.148571 0 0 1 26.569143 26.569143c0 14.573714-11.574857 26.148571-26.569143 26.148572z m0-149.577143h-325.302857c-15.414857 0-26.550857-11.995429-26.550858-26.989715 0-14.573714 11.154286-25.728 26.569143-25.728h325.284572c14.994286 0 26.569143 11.154286 26.569143 25.728 0 14.994286-11.574857 26.989714-26.569143 26.989715z"  horiz-adv-x="1024" />
      
      <glyph glyph-name="doc" unicode="&#59422;" d="M284.434286-75.428571h455.131428c88.722286 0 132.864 45.001143 132.864 134.144V447.853714c0 55.296-5.997714 79.286857-40.283428 114.432L595.565714 802.724571c-32.548571 33.426286-59.136 40.704-107.574857 40.704H284.452571c-88.283429 0-132.864-45.421714-132.864-134.582857v-650.130285c0-89.563429 44.580571-134.144 132.864-134.144z m3.419428 68.992c-44.141714 0-67.291429 23.588571-67.291428 66.432V707.565714c0 42.422857 23.149714 66.870857 67.730285 66.870857h190.281143v-249.014857c0-53.997714 27.428571-80.566857 80.566857-80.566857h244.297143v-384.859428c0-42.843429-22.729143-66.432-67.291428-66.432zM566.857143 509.586286c-16.713143 0-23.588571 6.838857-23.588572 23.990857V761.142857l246.857143-251.574857z"  horiz-adv-x="1024" />
      
      <glyph glyph-name="eye_fill" unicode="&#59425;" d="M512.182857 47.488C814.738286 47.488 1024 292.260571 1024 368.566857c0 76.672-209.645714 321.060571-511.817143 321.060572C211.894857 689.627429 0 445.238857 0 368.566857c0-76.306286 213.412571-321.078857 512.182857-321.078857z m0 110.683429c-117.851429 0-210.761143 95.561143-211.510857 210.395428C300.288 486.4 394.331429 578.925714 512.182857 578.925714c117.101714 0 211.145143-92.525714 211.145143-210.377143 0-114.834286-94.043429-210.395429-211.145143-210.395428z m0 134.473142c41.929143 0 76.690286 34.377143 76.690286 75.922286 0 41.929143-34.742857 76.288-76.690286 76.288-42.294857 0-77.056-34.377143-77.056-76.288 0-41.563429 34.742857-75.922286 77.056-75.922286z"  horiz-adv-x="1024" />
      
      <glyph glyph-name="eye" unicode="&#59427;" d="M512.182857 46.518857c302.738286 0 511.817143 244.662857 511.817143 321.097143 0 76.818286-209.444571 321.097143-511.817143 321.097143C213.577143 688.731429 0 444.452571 0 367.634286c0-76.434286 213.193143-321.097143 512.182857-321.097143z m0 59.209143c-246.528 0-446.610286 209.078857-446.610286 261.906286 0 44.580571 200.082286 261.888 446.610286 261.888 245.796571 0 446.244571-217.307429 446.244572-261.888 0-52.845714-200.448-261.906286-446.244572-261.906286z m0 52.077714c116.534857 0 210.194286 95.542857 210.194286 209.828572 0 117.266286-93.659429 209.810286-210.194286 209.810285-117.266286 0-211.309714-92.525714-210.56-209.810285 0.365714-114.285714 93.293714-209.828571 210.56-209.828572z m0 140.123429c-38.948571 0-70.436571 31.488-70.436571 69.705143 0 38.582857 31.469714 69.668571 70.436571 69.668571 38.582857 0 70.070857-31.085714 70.070857-69.668571 0-38.217143-31.469714-69.705143-70.070857-69.705143z"  horiz-adv-x="1024" />
      
      <glyph glyph-name="flag_fill" unicode="&#59429;" d="M164.004571-36.644571c17.993143 0 32.566857 14.134857 32.566858 32.566857V233.782857c10.715429 4.717714 51.017143 20.150857 113.993142 20.150857 158.573714 0 258.011429-77.568 408.868572-77.568 66.852571 0 91.702857 7.277714 124.288 21.851429 29.568 13.275429 48.859429 35.565714 48.859428 74.989714V708.644571c0 22.710857-19.730286 36.425143-44.580571 36.425143-20.992 0-60.434286-18.432-134.144-18.432-150.857143 0-249.856 78.006857-408.868571 78.006857-66.852571 0-92.123429-7.277714-124.708572-21.851428-29.568-13.293714-48.841143-36.022857-48.841143-75.008v-711.862857c0-17.554286 14.994286-32.548571 32.548572-32.548572z"  horiz-adv-x="1024" />
      
      <glyph glyph-name="flag_circle_fill" unicode="&#59430;" d="M512-53.138286c238.72 0 437.138286 198.418286 437.138286 437.138286 0 239.140571-198.857143 437.138286-437.577143 437.138286C272.438857 821.138286 74.88 623.140571 74.88 384c0-238.72 197.997714-437.138286 437.138286-437.138286z m-165.851429 203.154286c-10.715429 0-20.150857 9.417143-20.150857 19.693714V533.577143c0 18.432 8.996571 32.146286 26.569143 39.862857 15.433143 6.838857 28.708571 10.697143 61.714286 10.697143 77.568 0 125.988571-38.144 198.857143-38.144 35.145143 0 53.577143 9.014857 64.731428 9.014857 14.555429 0 25.709714-9.014857 25.709715-21.430857v-211.291429c0-19.291429-8.155429-31.707429-26.587429-39.862857-15.853714-7.277714-29.568-11.136-61.714286-11.136-74.569143 0-122.148571 37.705143-198.857143 37.705143-26.148571 0-43.282286-5.12-50.998857-8.557714v-130.724572c0-10.715429-8.137143-19.712-19.273143-19.712z"  horiz-adv-x="1024" />
      
      <glyph glyph-name="flag" unicode="&#59431;" d="M164.004571-36.644571c17.993143 0 32.566857 14.134857 32.566858 32.566857V233.782857c10.715429 4.717714 51.017143 20.150857 113.993142 20.150857 158.573714 0 258.011429-77.568 408.868572-77.568 66.852571 0 91.702857 7.277714 124.288 21.851429 29.568 13.275429 48.859429 35.565714 48.859428 74.989714V708.644571c0 22.710857-19.730286 36.425143-44.580571 36.425143-20.992 0-60.434286-18.432-134.144-18.432-150.857143 0-249.856 78.006857-408.868571 78.006857-66.852571 0-92.123429-7.277714-124.708572-21.851428-29.568-13.293714-48.841143-36.022857-48.841143-75.008v-711.862857c0-17.554286 14.994286-32.548571 32.548572-32.548572z m555.428572 278.144c-142.72 0-243.858286 77.147429-408.868572 77.147428-47.140571 0-89.563429-5.577143-113.993142-15.433143V706.066286c5.997714 13.714286 41.563429 33.426286 108.434285 33.426285 150.857143 0 251.574857-77.568 408.868572-77.568 46.701714 0 85.266286 5.577143 113.974857 14.153143v-401.152c-5.997714-13.714286-41.563429-33.426286-108.434286-33.426285z"  horiz-adv-x="1024" />
      
      <glyph glyph-name="folder" unicode="&#59435;" d="M154.569143-13.714286h728.137143c76.708571 0 121.289143 44.580571 121.289143 132.864v451.291429c0 88.265143-44.982857 132.406857-134.144 132.406857H452.845714c-29.129143 0-46.701714 7.296-68.132571 25.289143l-26.148572 21.869714c-28.288 23.570286-50.139429 31.707429-92.562285 31.707429H138.276571c-74.989714 0-118.272-42.861714-118.272-129.426286v-533.138286c0-88.722286 45.421714-132.864 134.564572-132.864zM88.996571 648.850286c0 42.422857 22.710857 63.853714 63.433143 63.853714h96c28.288 0 45.421714-6.838857 67.291429-25.709714l26.148571-21.412572c27.849143-23.149714 50.56-31.725714 92.982857-31.725714H868.571429c42.422857 0 66.432-22.710857 66.432-67.291429v-25.709714H88.996571z m66.852572-593.554286c-42.843429 0-66.852571 22.710857-66.852572 67.291429V476.123429h846.006858v-354.011429c0-44.123429-24.009143-66.852571-66.432-66.852571z"  horiz-adv-x="1024" />
      
      <glyph glyph-name="gear_alt_fill" unicode="&#59439;" d="M416.768-44.489143a436.059429 436.059429 0 0 0-125.769143 49.261714l2.267429 44.342858c3.090286 60.470857-43.593143 106.971429-103.899429 103.899428l-49.005714-2.505143a436.498286 436.498286 0 0 0-52.187429 119.168l38.473143 34.742857c44.946286 40.557714 44.836571 106.459429 0 146.925715l-41.014857 37.028571A436.150857 436.150857 0 0 0 133.12 605.622857l56.246857-2.870857c60.470857-3.090286 106.971429 43.593143 103.899429 103.899429L290.377143 762.88a436.150857 436.150857 0 0 0 117.211428 47.488l37.046858-41.014857c40.594286-44.946286 106.477714-44.836571 146.944 0l34.742857 38.473143a436.498286 436.498286 0 0 0 119.149714-52.169143l-2.505143-49.005714c-3.090286-60.489143 43.593143-106.989714 103.899429-103.917715l44.342857 2.267429a436.059429 436.059429 0 0 0 49.261714-125.769143l-30.902857-27.885714c-44.928-40.594286-44.8-106.477714 0-146.944l28.544-25.746286a436.370286 436.370286 0 0 0-54.089143-127.542857l-37.156571 1.901714c-60.470857 3.090286-106.971429-43.593143-103.899429-103.899428l1.901714-37.156572a436.370286 436.370286 0 0 0-127.542857-54.089143l-25.746285 28.525715c-40.594286 44.946286-106.477714 44.836571-146.944 0l-27.885715-30.902858zM512 201.142857c100.992 0 182.857143 81.865143 182.857143 182.857143s-81.865143 182.857143-182.857143 182.857143-182.857143-81.865143-182.857143-182.857143 81.865143-182.857143 182.857143-182.857143z"  horiz-adv-x="1024" />
      
      <glyph glyph-name="gobackward_minus" unicode="&#59443;" d="M512-98.779429c238.72 0 437.138286 197.997714 437.138286 437.138286 0 210.852571-154.276571 389.577143-354.432 428.982857V828.233143c0 30.427429-20.992 38.582857-44.562286 21.851428l-136.722286-95.561142c-19.273143-13.714286-19.712-34.285714 0-48.438858l136.283429-96c24.009143-17.133714 45.001143-8.996571 45.001143 21.869715V693.211429c162.011429-36.845714 281.142857-181.284571 281.142857-354.852572A362.788571 362.788571 0 0 0 512-25.929143c-202.294857 0-364.708571 162.011429-364.288 364.288 0.420571 121.709714 59.574857 229.284571 150.857143 294.418286 17.572571 13.293714 23.149714 33.444571 11.995428 51.437714-10.276571 17.554286-33.846857 22.290286-52.717714 7.716572C147.291429 611.785143 74.861714 482.358857 74.861714 338.358857c0-239.140571 197.997714-437.138286 437.138286-437.138286z m-147.017143 393.856h293.595429c20.571429 0 34.706286 11.154286 34.706285 30.427429 0 19.712-12.854857 31.268571-34.706285 31.268571H364.982857c-21.010286 0-34.724571-11.556571-34.724571-31.268571 0-19.291429 14.573714-30.427429 34.724571-30.427429z"  horiz-adv-x="1024" />
      
      <glyph glyph-name="goforward_plus" unicode="&#59445;" d="M512-98.779429c238.72 0 437.138286 197.997714 437.138286 437.138286 0 144-72.850286 273.426286-183.003429 353.572572-18.834286 14.573714-42.422857 9.856-53.138286-7.716572-10.715429-17.993143-5.138286-38.144 11.995429-51.437714 91.282286-65.133714 150.857143-172.708571 151.296-294.418286C876.708571 136.045714 713.856-25.929143 512-25.929143c-202.294857 0-363.867429 162.011429-363.867429 364.288 0 173.568 119.149714 317.988571 281.161143 354.852572v-61.714286c0-30.427429 20.992-38.582857 44.123429-21.851429l137.142857 96c19.291429 13.275429 19.730286 33.846857 0 48l-136.704 96c-23.588571 17.133714-44.580571 8.996571-44.580571-21.869714v-60.416C228.736 728.356571 74.88 549.211429 74.88 338.358857c0-239.140571 197.997714-437.138286 437.138286-437.138286z m-0.859429 249.856c19.712 0 31.707429 13.275429 31.707429 34.285715V295.497143h115.730286c20.571429 0 34.706286 11.154286 34.706285 30.427428 0 19.291429-12.854857 30.866286-34.706285 30.866286h-115.730286v116.571429c0 21.430857-11.995429 34.706286-31.707429 34.706285-19.291429 0-29.988571-14.134857-29.988571-34.706285v-116.571429H364.982857c-21.010286 0-34.724571-11.574857-34.724571-30.866286s14.573714-30.427429 34.724571-30.427428h116.132572v-110.134857c0-20.150857 10.715429-34.285714 30.006857-34.285715z"  horiz-adv-x="1024" />
      
      <glyph glyph-name="gear_alt" unicode="&#59444;" d="M645.632 26.916571c10.422857 3.913143 20.662857 8.265143 30.701714 13.074286-0.512 100.845714 78.756571 180.187429 179.675429 179.675429 4.809143 10.038857 9.161143 20.297143 13.074286 30.72-73.124571 72.118857-72.045714 187.026286 3.401142 257.883428-3.2 9.325714-6.765714 18.505143-10.697142 27.52C755.236571 532.077714 671.104 617.197714 676.571429 724.297143l0.182857 3.657143a378.624 378.624 0 0 1-22.4 9.874285l-2.852572-3.145142c-72.484571-80.292571-193.810286-80.365714-266.349714 0l-6.162286 6.820571a378.148571 378.148571 0 0 1-19.401143-7.826286l0.475429-9.380571c5.522286-108.032-80.219429-193.865143-188.342857-188.342857l-9.380572 0.475428c-2.779429-6.4-5.394286-12.854857-7.826285-19.382857l6.820571-6.180571c80.292571-72.484571 80.365714-193.792 0-266.349715l-3.145143-2.852571c3.053714-7.570286 6.345143-15.049143 9.874286-22.4l3.657143 0.182857c106.971429 5.467429 192.201143-78.573714 188.489143-185.234286 9.014857-3.913143 18.212571-7.478857 27.52-10.678857 70.802286 75.373714 185.709714 76.580571 257.901714 3.401143z m-228.864-71.405714a436.059429 436.059429 0 0 0-125.769143 49.261714l2.267429 44.342858c3.090286 60.470857-43.593143 106.971429-103.899429 103.899428l-49.005714-2.505143a436.498286 436.498286 0 0 0-52.187429 119.168l38.473143 34.742857c44.946286 40.557714 44.836571 106.459429 0 146.925715l-41.014857 37.028571A436.150857 436.150857 0 0 0 133.12 605.622857l56.246857-2.870857c60.470857-3.090286 106.971429 43.593143 103.899429 103.899429L290.377143 762.88a436.150857 436.150857 0 0 0 117.211428 47.488l37.046858-41.014857c40.594286-44.946286 106.477714-44.836571 146.944 0l34.742857 38.473143a436.498286 436.498286 0 0 0 119.149714-52.169143l-2.505143-49.005714c-3.090286-60.489143 43.593143-106.989714 103.899429-103.917715l44.342857 2.267429a436.059429 436.059429 0 0 0 49.261714-125.769143l-30.902857-27.885714c-44.928-40.594286-44.8-106.477714 0-146.944l28.544-25.746286a436.370286 436.370286 0 0 0-54.089143-127.542857l-37.156571 1.901714c-60.470857 3.090286-106.971429-43.593143-103.899429-103.899428l1.901714-37.156572a436.370286 436.370286 0 0 0-127.542857-54.089143l-25.746285 28.525715c-40.594286 44.946286-106.477714 44.836571-146.944 0l-27.885715-30.902858zM512 274.285714a109.714286 109.714286 0 1 1 0 219.428572 109.714286 109.714286 0 0 1 0-219.428572z m0-54.857143a164.571429 164.571429 0 1 0 0 329.142858 164.571429 164.571429 0 0 0 0-329.142858z"  horiz-adv-x="1024" />
      
      <glyph glyph-name="equal" unicode="&#59468;" d="M252.288 481.078857h519.862857c20.571429 0 38.144 17.554286 38.144 38.564572 0 20.992-17.572571 38.144-38.144 38.144h-519.862857c-20.571429 0-38.582857-17.152-38.582857-38.144s18.011429-38.582857 38.582857-38.582858z m0-270.866286h519.862857c20.571429 0 38.144 17.152 38.144 38.144s-17.572571 38.582857-38.144 38.582858h-519.862857c-20.571429 0-38.582857-17.590857-38.582857-38.582858s18.011429-38.144 38.582857-38.144z"  horiz-adv-x="1024" />
      
      <glyph glyph-name="checkmark_alt" unicode="&#59469;" d="M834.669714 628.187429l12.946286-12.946286a36.571429 36.571429 0 0 0 0-51.712l-419.474286-419.474286a36.571429 36.571429 0 0 0-51.712 0l-181.76 181.76a36.571429 36.571429 0 0 0 0 51.712l12.946286 12.946286a36.571429 36.571429 0 0 0 51.712 0l117.101714-117.101714a36.571429 36.571429 0 0 1 51.712 0l354.816 354.816a36.571429 36.571429 0 0 0 51.712 0z"  horiz-adv-x="1024" />
      
      <glyph glyph-name="line_horizontal_" unicode="&#59473;" d="M110.866286 538.715429h801.846857c17.993143 0 33.005714 14.134857 33.005714 32.146285 0 17.993143-14.994286 32.566857-33.005714 32.566857H110.866286a32.548571 32.548571 0 0 1-32.585143-32.566857 32.182857 32.182857 0 0 1 32.585143-32.146285z m0-186.861715h801.846857c17.993143 0 33.005714 14.153143 33.005714 32.146286 0 18.432-14.994286 33.005714-33.005714 33.005714H110.866286c-18.011429 0-32.585143-14.573714-32.585143-33.005714a32.182857 32.182857 0 0 1 32.585143-32.146286z m0-187.282285h801.846857c17.993143 0 33.005714 14.573714 33.005714 33.005714 0 17.993143-14.994286 32.146286-33.005714 32.146286H110.866286a32.182857 32.182857 0 0 1-32.585143-32.146286c0-18.432 14.573714-33.005714 32.585143-33.005714z"  horiz-adv-x="1024" />
      
      <glyph glyph-name="menu" unicode="&#59486;" d="M182.857143 548.571429m-54.857143 0a54.857143 54.857143 0 1 1 109.714286 0 54.857143 54.857143 0 1 1-109.714286 0ZM182.857143 365.714286m-54.857143 0a54.857143 54.857143 0 1 1 109.714286 0 54.857143 54.857143 0 1 1-109.714286 0ZM182.857143 182.857143m-54.857143 0a54.857143 54.857143 0 1 1 109.714286 0 54.857143 54.857143 0 1 1-109.714286 0ZM292.571429 548.571429c0 20.205714 16.274286 36.571429 36.608 36.571428h511.926857C861.330286 585.142857 877.714286 568.905143 877.714286 548.571429c0-20.205714-16.274286-36.571429-36.608-36.571429H329.179429A36.498286 36.498286 0 0 0 292.571429 548.571429z m0-182.857143c0 20.205714 16.274286 36.571429 36.608 36.571428h511.926857c20.224 0 36.608-16.237714 36.608-36.571428 0-20.205714-16.274286-36.571429-36.608-36.571429H329.179429A36.498286 36.498286 0 0 0 292.571429 365.714286z m0-182.857143c0 20.205714 16.274286 36.571429 36.608 36.571428h511.926857c20.224 0 36.608-16.237714 36.608-36.571428 0-20.205714-16.274286-36.571429-36.608-36.571429H329.179429A36.498286 36.498286 0 0 0 292.571429 182.857143z"  horiz-adv-x="1024" />
      
      <glyph glyph-name="multiply_circle_fill" unicode="&#59495;" d="M512-53.138286c238.72 0 437.138286 197.997714 437.138286 437.138286 0 238.72-198.857143 437.138286-437.577143 437.138286C272.438857 821.138286 74.88 622.72 74.88 384c0-239.140571 197.997714-437.138286 437.138286-437.138286z m-153.856 246.857143a36.388571 36.388571 0 0 0-36.425143 36.425143c0 9.856 4.278857 18.432 11.136 24.868571l127.707429 128.548572-127.707429 128.585143a33.024 33.024 0 0 0-11.154286 24.868571c0 19.693714 16.292571 35.565714 36.443429 35.565714 9.856 0 18.432-3.858286 24.868571-10.715428l128.548572-128.146286 129.444571 128.566857c7.277714 7.716571 14.994286 11.154286 24.429715 11.154286 20.132571 0 36.425143-16.292571 36.425142-36.022857 0-9.837714-3.437714-17.993143-10.715428-24.850286l-128.566857-128.987428 128.128-127.725715c6.436571-6.857143 10.715429-15.433143 10.715428-25.709714a36.388571 36.388571 0 0 0-36.425143-36.425143 35.218286 35.218286 0 0 0-25.289142 10.715429l-128.146286 128.566857-127.707429-128.566857a35.254857 35.254857 0 0 0-25.709714-10.715429z"  horiz-adv-x="1024" />
      
      <glyph glyph-name="multiply_square" unicode="&#59496;" d="M252.068571-10.496h520.283429c89.581714 0 134.144 44.562286 134.144 132.845714V645.668571c0 88.283429-44.562286 132.845714-134.144 132.845715H252.068571c-89.142857 0-134.582857-44.141714-134.582857-132.845715V122.331429c0-88.704 45.44-132.845714 134.582857-132.845715z m1.28 68.992c-42.843429 0-66.852571 22.710857-66.852571 67.291429V642.194286c0 44.580571 24.009143 67.291429 66.852571 67.291428h517.723429c42.422857 0 66.432-22.710857 66.432-67.291428V125.805714c0-44.580571-24.009143-67.291429-66.432-67.291428z m112.731429 144.859429c9.417143 0 17.993143 3.858286 24.411429 10.715428l121.728 121.709714 121.709714-121.709714c6.436571-6.436571 14.994286-10.715429 24.868571-10.715428a34.486857 34.486857 0 0 1 34.267429 34.706285c0 9.874286-3.84 17.572571-10.276572 24.448l-121.728 121.709715 122.148572 122.569142c6.857143 7.277714 10.294857 14.573714 10.294857 23.990858a34.377143 34.377143 0 0 1-34.285714 34.285714c-8.996571 0-16.713143-3.419429-24.009143-10.715429l-122.989714-122.148571-122.587429 121.728a30.848 30.848 0 0 1-23.552 10.294857c-19.291429 0-34.304-14.994286-34.304-33.865143 0-9.435429 3.437714-17.572571 10.294857-24.009143l121.709714-122.148571-121.709714-122.130286a31.780571 31.780571 0 0 1-10.294857-24.009143c0-19.273143 14.994286-34.706286 34.304-34.706285z"  horiz-adv-x="1024" />
      
      <glyph glyph-name="multiply_circle" unicode="&#59497;" d="M512-53.138286c238.72 0 437.138286 197.997714 437.138286 437.138286 0 238.72-198.857143 437.138286-437.577143 437.138286C272.438857 821.138286 74.88 622.72 74.88 384c0-239.140571 197.997714-437.138286 437.138286-437.138286z m0 72.850286C309.705143 19.712 148.114286 181.723429 148.114286 384c0 201.874286 161.152 364.288 363.446857 364.288 201.856 0 364.269714-162.432 364.708571-364.288 0.420571-202.294857-162.432-364.288-364.288-364.288z m-146.578286 182.564571c9.435429 0 18.011429 3.858286 24.429715 10.715429l121.728 122.148571 121.709714-122.148571c6.418286-6.418286 14.994286-10.715429 24.868571-10.715429 18.834286 0 34.267429 15.872 34.267429 34.724572 0 9.856-3.84 17.993143-10.276572 24.429714l-121.728 121.709714 122.148572 122.569143c6.857143 7.296 10.294857 14.573714 10.294857 24.009143a34.102857 34.102857 0 0 1-34.285714 34.285714c-9.014857 0-16.731429-2.998857-24.009143-10.294857l-123.008-122.569143-122.569143 122.148572c-6.418286 6.857143-14.134857 9.856-23.570286 9.856-19.273143 0-34.285714-14.573714-34.285714-33.865143 0-9.417143 3.437714-17.554286 10.294857-23.990857l121.709714-122.148572-121.709714-122.148571c-6.857143-5.997714-10.294857-14.555429-10.294857-23.990857 0-18.852571 14.994286-34.706286 34.285714-34.706286z"  horiz-adv-x="1024" />
      
      <glyph glyph-name="play" unicode="&#59522;" d="M239.433143 21.211429c17.133714 0 31.707429 6.857143 48.859428 16.713142l499.712 288.859429c35.565714 21.010286 48 34.724571 48 57.417143 0 22.729143-12.434286 36.443429-48 57.014857L288.292571 730.496c-17.152 9.874286-31.725714 16.274286-48.859428 16.274286-31.725714 0-51.437714-23.990857-51.437714-61.257143v-602.587429c0-37.284571 19.712-61.714286 51.437714-61.714285z m21.851428 81.865142c-2.56 0-4.278857 1.700571-4.278857 5.138286V660.224c0 3.419429 1.700571 5.12 4.278857 5.12 1.718857 0 3.437714-0.841143 5.138286-2.121143l474.441143-274.285714c2.139429-1.28 3.84-2.578286 3.84-4.717714 0-2.139429-1.700571-3.858286-3.84-4.717715L266.422857 104.777143c-1.700571-0.841143-3.419429-1.700571-5.12-1.700572z"  horiz-adv-x="1024" />
      
      <glyph glyph-name="rectangle_split_x" unicode="&#59532;" d="M141.074286-10.496h741.851428c89.581714 0 134.582857 44.562286 134.582857 132.845714V645.668571c0 88.283429-45.001143 132.845714-134.582857 132.845715H141.074286C51.931429 778.496 6.491429 734.354286 6.491429 645.668571V122.331429c0-88.704 45.44-132.845714 134.582857-132.845715z m1.28 68.992c-42.861714 0-66.852571 22.710857-66.852572 67.291429V642.194286c0 44.580571 23.990857 67.291429 66.852572 67.291428h180.425143v-651.008z m245.138285 0V709.504H636.525714v-651.008z m494.153143 651.008c42.422857 0 66.852571-22.710857 66.852572-67.291429V125.805714c0-44.580571-24.429714-67.291429-66.852572-67.291428h-180.425143V709.504z"  horiz-adv-x="1024" />
      
      <glyph glyph-name="speaker__fill" unicode="&#59552;" d="M579.072-9.216c29.147429 0 50.139429 21.430857 50.139429 50.139429V724.498286c0 28.708571-20.992 52.717714-50.998858 52.717714-20.992 0-35.145143-9.435429-57.856-30.866286l-189.001142-178.706285a16.768 16.768 0 0 0-11.154286-3.858286h-127.268572c-60.434286 0-93.001143-33.005714-93.001142-97.28v-166.290286c0-64.292571 32.566857-97.28 93.001142-97.28h127.268572c4.297143 0 8.155429-1.28 11.154286-3.858286l189.001142-180.425142c20.571429-19.291429 37.705143-27.867429 58.697143-27.867429z m243.419429 203.154286c14.573714-10.294857 35.584-6.875429 48 9.837714 33.444571 45.019429 53.577143 110.994286 53.577142 178.285714 0 67.291429-20.571429 132.864-53.577142 178.724572-12.434286 16.713143-32.987429 20.150857-48 9.874285-18.834286-12.434286-20.992-34.304-7.277715-53.156571 24.868571-33.426286 39.862857-84.425143 39.862857-135.424 0-51.017143-15.872-102.016-40.283428-135.862857-12.873143-18.432-10.715429-39.424 7.698286-52.297143z"  horiz-adv-x="1024" />
      
      <glyph glyph-name="speaker_" unicode="&#59553;" d="M606.08-9.216c29.129143 0 50.139429 21.430857 50.139429 50.139429V724.498286c0 28.708571-21.010286 52.717714-51.017143 52.717714-20.992 0-34.706286-10.294857-57.837715-30.866286l-201.435428-178.706285c-2.56-2.56-6.418286-3.858286-10.715429-3.858286h-127.268571c-60.873143 0-90.88-30.427429-90.88-95.140572V298.057143c0-64.731429 30.006857-95.140571 90.88-95.140572h127.268571c4.297143 0 8.137143-1.28 10.715429-3.858285l201.435428-180.425143c20.992-18.870857 37.705143-27.867429 58.697143-27.867429z m-24.868571 90.422857c-2.139429 0-4.717714 1.28-7.277715 3.858286l-189.860571 171.008c-10.294857 9.435429-18.852571 11.574857-30.427429 11.574857h-142.72c-16.713143 0-24.868571 7.716571-24.868571 24.868571v181.705143c0 16.713143 8.155429 24.850286 24.868571 24.850286h142.72c11.574857 0 19.712 1.718857 30.427429 11.574857l189.860571 172.288c2.139429 1.700571 4.717714 3.419429 7.277715 3.419429 3.858286 0 5.997714-2.56 5.997714-5.997715v-592.713142c0-3.858286-2.139429-6.436571-5.997714-6.436572z m224.146285 112.713143c14.573714-10.276571 35.565714-6.838857 48 9.874286 33.426286 44.982857 53.577143 110.994286 53.577143 178.285714 0 67.291429-20.571429 132.845714-53.577143 178.706286-12.434286 16.713143-33.005714 20.150857-48 9.874285-18.852571-12.434286-20.992-34.304-7.277714-53.156571 24.850286-33.426286 39.862857-84.425143 39.862857-135.424 0-51.017143-15.872-102.016-40.301714-135.862857-12.854857-18.432-10.715429-39.424 7.716571-52.297143z"  horiz-adv-x="1024" />
      
      <glyph glyph-name="speaker_1" unicode="&#59554;" d="M501.942857-9.216c29.129143 0 50.121143 21.430857 50.121143 50.139429V724.498286c0 28.708571-20.992 52.717714-50.998857 52.717714-20.992 0-34.706286-10.294857-57.856-30.866286l-201.417143-178.706285c-2.578286-2.56-6.436571-3.858286-10.715429-3.858286H103.789714c-60.854857 0-90.861714-30.427429-90.861714-95.140572V298.057143c0-64.731429 29.988571-95.140571 90.861714-95.140572h127.268572c4.297143 0 8.155429-1.28 10.733714-3.858285l201.417143-180.425143c21.010286-18.870857 37.723429-27.867429 58.715428-27.867429z m370.285714 87.424c16.694857-11.136 37.266286-6.857143 49.28 10.294857 56.557714 78.848 89.563429 183.844571 89.563429 293.558857 0 110.153143-32.566857 215.149714-89.563429 294.016-12.434286 16.713143-32.585143 20.992-49.298285 9.856-16.274286-11.154286-18.852571-32.146286-5.997715-50.578285 46.72-68.571429 75.867429-158.573714 75.867429-253.275429 0-94.72-28.288-185.581714-75.867429-253.293714-12.434286-18.432-10.294857-39.424 5.997715-50.578286z m-395.154285 2.998857c-2.139429 0-4.717714 1.28-7.296 3.858286L279.954286 256.073143c-10.294857 9.435429-18.870857 11.574857-30.427429 11.574857H106.788571c-16.713143 0-24.868571 7.716571-24.868571 24.868571v181.705143c0 16.713143 8.155429 24.850286 24.868571 24.850286h142.72c11.556571 0 19.712 1.718857 30.427429 11.574857l189.842286 172.288c2.157714 1.700571 4.717714 3.419429 7.296 3.419429 3.84 0 5.997714-2.56 5.997714-5.997715v-592.713142c0-3.858286-2.139429-6.436571-5.997714-6.436572z m224.146285 112.713143c14.573714-10.276571 35.565714-6.838857 48 9.874286 33.426286 44.982857 53.577143 110.994286 53.577143 178.285714 0 67.291429-20.571429 132.845714-53.577143 178.706286-12.434286 16.713143-33.005714 20.150857-48 9.874285-18.870857-12.434286-21.010286-34.304-7.296-53.156571 24.868571-33.426286 39.862857-84.425143 39.862858-135.424 0-51.017143-15.853714-102.016-40.283429-135.862857-12.854857-18.432-10.715429-39.424 7.716571-52.297143z"  horiz-adv-x="1024" />
      
      <glyph glyph-name="speaker__fill1" unicode="&#59555;" d="M475.428571-8.246857c28.909714 0 49.755429 21.266286 49.755429 49.755428V719.780571c0 28.489143-20.845714 52.297143-50.596571 52.297143-20.845714 0-34.870857-9.344-57.417143-30.610285l-187.538286-177.334858a16.658286 16.658286 0 0 0-11.044571-3.821714H92.251429C32.329143 560.310857 0 527.579429 0 463.780571v-164.992c0-63.798857 32.310857-96.548571 92.269714-96.548571h126.299429c4.260571 0 8.082286-1.28 11.062857-3.821714l187.538286-179.017143c20.406857-19.145143 37.412571-27.648 58.258285-27.648z m411.227429 86.747428c16.566857-11.044571 36.992-6.802286 48.896 10.203429 56.137143 78.262857 88.448 182.436571 88.448 291.291429 0 109.293714-31.890286 213.485714-88.448 291.730285-12.324571 16.585143-32.329143 20.845714-48.896 9.782857-16.164571-11.062857-18.724571-31.890286-5.961143-50.176 46.354286-68.041143 74.843429-157.348571 74.843429-251.318857 0-93.988571-27.648-184.137143-75.282286-251.337143-11.885714-18.285714-9.764571-39.131429 6.4-50.176z m-169.691429 114.834286c14.464-10.221714 35.291429-6.820571 47.634286 9.764572 33.170286 44.653714 53.156571 110.153143 53.156572 176.914285 0 66.742857-20.406857 131.821714-53.156572 177.316572-12.324571 16.585143-32.731429 19.986286-47.634286 9.782857-18.706286-12.324571-20.845714-34.011429-7.222857-52.717714 24.667429-33.170286 39.552-83.785143 39.552-134.4 0-50.596571-15.725714-101.193143-39.972571-134.784-12.763429-18.285714-10.642286-39.131429 7.643428-51.894858z"  horiz-adv-x="1024" />
      
      <glyph glyph-name="speaker_fill" unicode="&#59556;" d="M726.491429-9.216c29.147429 0 50.157714 21.430857 50.157714 50.139429V724.498286c0 28.708571-21.010286 52.717714-51.017143 52.717714-20.992 0-35.126857-9.435429-57.837714-30.866286l-189.001143-178.706285a16.786286 16.786286 0 0 0-11.154286-3.858286h-127.268571c-60.434286 0-93.019429-33.005714-93.019429-97.28v-166.290286c0-64.292571 32.585143-97.28 93.001143-97.28h127.286857c4.297143 0 8.137143-1.28 11.154286-3.858286l188.982857-180.425142c20.589714-19.291429 37.723429-27.867429 58.733714-27.867429z"  horiz-adv-x="1024" />
      
      <glyph glyph-name="speaker_2" unicode="&#59557;" d="M876.562286-7.021714c13.476571-9.088 31.323429-5.449143 41.874285 9.472C985.051429 97.828571 1024 220.507429 1024 350.464c0 129.956571-39.314286 252.982857-105.563429 348.361143-10.550857 14.921143-28.397714 18.56-41.874285 9.106286-13.824-9.472-16.018286-27.666286-5.449143-42.971429 58.605714-86.253714 95.012571-196.937143 95.012571-314.514286s-35.309714-229.686857-95.012571-314.514285c-10.569143-14.921143-8.374857-33.115429 5.449143-42.953143zM415.36 18.102857c24.740571 0 42.587429 18.194286 42.587429 42.605714V641.298286c0 24.393143-17.846857 44.763429-43.337143 44.763428-17.828571 0-29.476571-8.722286-49.133715-26.203428l-171.081142-151.789715c-2.194286-2.194286-5.467429-3.291429-9.106286-3.291428H77.165714c-51.675429 0-77.165714-25.837714-77.165714-80.822857v-144.859429c0-54.966857 25.472-80.822857 77.165714-80.822857h108.123429c3.638857 0 6.912-1.097143 9.106286-3.273143l171.081142-153.252571c17.846857-16.018286 32.036571-23.661714 49.883429-23.661715z m314.514286 74.258286c14.189714-9.453714 31.670857-5.814857 41.856 8.740571 48.054857 66.980571 76.068571 156.16 76.068571 249.362286 0 93.549714-27.648 182.729143-76.068571 249.709714-10.550857 14.208-27.666286 17.846857-41.874286 8.374857-13.824-9.472-16-27.300571-5.083429-42.971428 39.68-58.221714 64.438857-134.674286 64.438858-215.113143 0-80.457143-24.027429-157.622857-64.438858-215.149714-10.550857-15.652571-8.740571-33.481143 5.101715-42.953143z m-335.634286 2.56c-1.828571 0-4.022857 1.097143-6.198857 3.273143l-161.261714 145.243428c-8.722286 8.009143-16 9.819429-25.837715 9.819429h-121.234285c-14.189714 0-21.101714 6.564571-21.101715 21.12v154.331428c0 14.208 6.912 21.12 21.12 21.12h121.216c9.819429 0 16.749714 1.462857 25.837715 9.837715l161.28 146.340571c1.810286 1.462857 3.986286 2.907429 6.180571 2.907429 3.273143 0 5.101714-2.194286 5.101714-5.101715V100.388571c0-3.291429-1.828571-5.449143-5.12-5.449142z m190.390857 95.725714c12.361143-8.740571 30.208-5.814857 40.777143 8.374857 28.379429 38.217143 45.476571 94.281143 45.476571 151.442286 0 57.142857-17.462857 112.822857-45.494857 151.789714-10.550857 14.189714-28.032 17.115429-40.777143 8.374857-16-10.550857-17.828571-29.129143-6.180571-45.147428 21.12-28.379429 33.846857-71.698286 33.846857-115.017143 0-43.337143-13.458286-86.637714-34.194286-115.401143-10.934857-15.652571-9.124571-33.499429 6.528-44.416z"  horiz-adv-x="1024" />
      
      <glyph glyph-name="star_circle_fill" unicode="&#59558;" d="M512-53.138286c238.72 0 437.138286 197.997714 437.138286 437.138286 0 238.72-198.857143 437.138286-437.577143 437.138286C272.438857 821.138286 74.88 622.72 74.88 384c0-239.140571 197.997714-437.138286 437.138286-437.138286z m-171.008 198.418286c-10.276571 7.716571-11.995429 20.150857-5.997714 37.723429l52.297143 156.416-133.723429 95.579428c-15.433143 10.715429-20.992 22.710857-17.554286 34.706286 3.84 11.574857 15.835429 17.572571 34.267429 17.572571l164.571428-1.28 50.139429 157.293715c5.156571 17.554286 14.153143 26.989714 27.008 26.989714 12.854857 0 21.430857-9.417143 27.008-26.989714l50.139429-157.293715 164.132571 1.28c18.870857 0 29.988571-5.997714 34.285714-17.554285 4.297143-12.013714-2.139429-24.009143-17.133714-34.724572l-134.144-95.579428 52.297143-156.416c5.979429-17.572571 4.278857-29.988571-5.595429-37.723429-10.697143-8.137143-23.131429-5.12-38.125714 5.997714L512 248.557714l-132.864-97.28c-15.433143-11.136-27.849143-14.134857-38.144-5.997714z"  horiz-adv-x="1024" />
      
      <glyph glyph-name="star_fill" unicode="&#59569;" d="M218.861714-60.214857c17.554286-13.293714 39.862857-8.576 66.432 10.715428L512 116.790857l227.145143-166.290286c26.569143-19.291429 48.420571-24.009143 66.432-10.715428 17.554286 13.293714 21.430857 35.145143 10.715428 66.432l-89.581714 266.569143 228.864 164.571428c26.569143 18.852571 37.284571 38.582857 30.427429 59.995429-6.857143 20.571429-27.008 30.866286-59.995429 30.427428l-280.722286-1.700571-85.284571 267.849143C549.723429 825.636571 534.308571 841.490286 512 841.490286c-21.851429 0-37.284571-15.853714-47.579429-47.561143L379.136 526.08l-280.704 1.700571c-33.005714 0.438857-53.138286-9.856-59.995429-30.427428-7.296-21.430857 3.84-41.142857 30.427429-59.995429l228.845714-164.571428-89.563428-266.569143c-10.715429-31.286857-6.857143-53.138286 10.715428-66.432z"  horiz-adv-x="1024" />
      
      <glyph glyph-name="star" unicode="&#59571;" d="M218.861714-60.214857c17.554286-13.293714 39.862857-8.576 66.432 10.715428L512 116.790857l227.145143-166.290286c26.569143-19.291429 48.420571-24.009143 66.432-10.715428 17.554286 13.293714 21.430857 35.145143 10.715428 66.432l-89.581714 266.569143 228.864 164.571428c26.569143 18.852571 37.284571 38.582857 30.427429 59.995429-6.857143 20.571429-27.008 30.866286-59.995429 30.427428l-280.722286-1.700571-85.284571 267.849143C549.723429 825.636571 534.308571 841.490286 512 841.490286c-21.851429 0-37.284571-15.853714-47.579429-47.561143L379.136 526.08l-280.704 1.700571c-33.005714 0.438857-53.138286-9.856-59.995429-30.427428-7.296-21.430857 3.84-41.142857 30.427429-59.995429l228.845714-164.571428-89.563428-266.569143c-10.715429-31.286857-6.857143-53.138286 10.715428-66.432z m61.714286 84.845714c-0.859429 0.859429-0.438857 1.298286 0 3.876572l85.284571 245.138285c5.577143 16.713143 2.56 29.988571-12.434285 40.283429L139.995429 461.366857c-2.139429 1.28-2.56 2.139429-2.139429 3.419429 0.438857 1.28 1.28 1.28 3.858286 1.28l259.291428-4.717715c17.554286-0.420571 28.708571 6.857143 34.285715 24.429715l74.148571 248.137143c0.841143 2.578286 1.700571 3.437714 2.56 3.437714 1.28 0 2.139429-0.859429 2.56-3.419429l74.587429-248.137143c5.138286-17.590857 16.713143-24.868571 34.285714-24.448l259.291428 4.717715c2.56 0 3.419429 0 3.84-1.28 0.438857-1.28-0.420571-2.139429-2.139428-3.437715l-213.430857-147.419428c-14.994286-10.294857-18.413714-23.588571-12.434286-40.283429l85.302857-245.138285c0.420571-2.578286 0.859429-2.998857 0-3.858286-0.859429-1.28-2.139429-0.438857-3.858286 0.859428l-206.153142 157.275429c-13.714286 10.715429-29.568 10.715429-43.282286 0l-206.134857-157.293714c-1.718857-1.28-2.998857-2.139429-3.858286-0.841143z"  horiz-adv-x="1024" />
      
      <glyph glyph-name="trash" unicode="&#59575;" d="M814.134857 6.217143l29.586286 626.56h42.843428c17.572571 0 31.725714 14.573714 31.725715 32.146286s-14.153143 32.585143-31.725715 32.585142H699.282286V761.782857c0 61.293714-41.563429 101.138286-107.574857 101.138286h-160.274286c-66.011429 0-107.154286-39.862857-107.154286-101.12v-64.292572H137.874286c-17.133714 0-32.146286-14.994286-32.146286-32.585142 0-17.554286 14.994286-32.146286 32.146286-32.146286h42.861714L210.285714 5.778286c2.998857-61.714286 43.702857-100.699429 105.435429-100.699429h392.996571c61.275429 0 102.418286 39.424 105.417143 101.12zM392.850286 757.504c0 24.429714 18.011429 41.563429 43.721143 41.563429h150.436571c26.148571 0 44.141714-17.133714 44.141714-41.563429v-59.995429H392.850286z m-70.710857-788.150857c-24.868571 0-43.282286 18.870857-44.562286 43.702857l-29.988572 619.739429h527.542858l-28.269715-619.721143c-1.28-25.289143-19.291429-43.702857-44.580571-43.702857z m317.147428 75.428571c14.134857 0 24.868571 11.574857 25.289143 27.867429l12.854857 452.571428c0.420571 16.274286-10.715429 28.288-25.289143 28.288-13.275429 0-24.429714-12.434286-24.868571-27.867428l-12.836572-452.992c-0.438857-15.433143 10.276571-27.867429 24.850286-27.867429z m-254.134857 0c14.573714 0 25.270857 12.434286 24.850286 27.867429l-12.854857 452.992c-0.438857 15.433143-11.995429 27.867429-25.289143 27.867428-14.573714 0-25.289143-12.013714-24.868572-28.288l13.293715-452.571428c0.438857-16.292571 10.715429-27.867429 24.868571-27.867429z m152.996571 27.867429V525.641143c0 15.433143-11.574857 27.867429-25.728 27.867428-14.134857 0-26.148571-12.434286-26.148571-27.867428v-452.992c0-15.433143 12.013714-27.867429 26.148571-27.867429 13.714286 0 25.728 12.434286 25.728 27.867429z"  horiz-adv-x="1024" />
      
      <glyph glyph-name="xmark_seal" unicode="&#59576;" d="M432.713143-62.134857c54.436571-54.436571 104.137143-54.016 158.153143 0l65.993143 65.572571c6.857143 6.418286 12.854857 8.996571 21.851428 8.996572h92.580572c76.708571 0 112.274286 35.145143 112.274285 112.274285v92.580572c0 8.996571 2.578286 14.994286 8.996572 21.851428l65.152 66.011429c54.857143 53.997714 54.418286 103.698286 0 158.134857l-65.152 66.011429c-6.418286 6.4-8.996571 12.836571-8.996572 21.412571v93.001143c0 76.288-35.145143 112.274286-112.274285 112.274286h-92.580572c-8.996571 0-14.994286 2.157714-21.851428 8.594285l-66.011429 65.554286c-53.997714 54.436571-103.698286 54.016-158.134857 0l-66.011429-65.572571c-6.4-6.418286-12.836571-8.557714-21.412571-8.557715h-93.001143c-76.708571 0-112.274286-35.145143-112.274286-112.274285v-93.019429c0-8.576-2.157714-14.994286-8.594285-21.430857l-65.554286-66.011429c-54.436571-54.418286-54.016-104.118857 0-158.134857l65.572571-65.993143c6.418286-6.857143 8.557714-12.854857 8.557715-21.851428v-92.580572c0-76.708571 35.584-112.274286 112.274285-112.274285h93.019429c8.576 0 14.994286-2.578286 21.430857-8.996572z m48 48l-80.566857 81.005714c-9.435429 9.837714-19.291429 13.714286-32.566857 13.714286h-115.291429c-38.144 0-44.141714 5.979429-44.141714 44.123428v115.291429c0 12.854857-3.858286 22.710857-13.293715 32.146286l-81.005714 80.566857c-26.989714 27.428571-26.989714 35.145143 0 62.573714l81.005714 80.566857c9.435429 9.435429 13.293714 19.291429 13.293715 32.566857v115.291429c0 38.582857 5.577143 44.141714 44.141714 44.141714h115.291429c13.275429 0 23.131429 3.437714 32.548571 13.293715l80.585143 81.005714c27.428571 26.989714 35.145143 26.989714 62.573714 0l80.566857-81.005714c9.435429-9.874286 19.291429-13.293714 32.146286-13.293715h115.291429c38.144 0 44.141714-5.997714 44.141714-44.141714v-115.291429c0-13.275429 4.278857-23.131429 13.714286-32.548571l81.005714-80.585143c26.989714-27.428571 26.989714-35.145143 0-62.573714l-81.005714-80.566857c-9.435429-9.435429-13.714286-19.291429-13.714286-32.146286v-115.291429c0-38.144-5.997714-44.141714-44.141714-44.141714h-115.291429c-12.854857 0-22.710857-3.84-32.146286-13.714286l-80.566857-81.005714c-27.428571-26.989714-35.145143-26.989714-62.573714 0z m-115.291429 215.131428c9.435429 0 18.011429 3.437714 24.429715 10.294858l121.728 122.148571 121.709714-122.148571c6.418286-6.436571 14.994286-10.294857 24.868571-10.294858a34.486857 34.486857 0 0 1 34.267429 34.724572c0 9.856-3.84 17.554286-10.276572 24.429714l-121.728 121.709714 122.148572 122.569143c6.857143 7.277714 10.294857 14.573714 10.294857 23.990857a34.377143 34.377143 0 0 1-34.285714 34.285715c-8.996571 0-16.713143-3.419429-24.009143-10.697143l-122.989714-122.148572-122.587429 121.709715a30.848 30.848 0 0 1-23.570286 10.294857c-19.273143 0-34.285714-14.994286-34.285714-33.865143 0-9.435429 3.437714-17.572571 10.294857-24.009143l121.709714-122.148571-121.709714-122.130286a31.762286 31.762286 0 0 1-10.294857-23.990857c0-19.291429 14.994286-34.724571 34.285714-34.724572z"  horiz-adv-x="1024" />
      
      <glyph glyph-name="xmark_circle" unicode="&#59611;" d="M512-53.138286c238.72 0 437.138286 197.997714 437.138286 437.138286 0 238.72-198.857143 437.138286-437.577143 437.138286C272.438857 821.138286 74.88 622.72 74.88 384c0-239.140571 197.997714-437.138286 437.138286-437.138286z m0 72.850286C309.705143 19.712 148.114286 181.723429 148.114286 384c0 201.874286 161.152 364.288 363.446857 364.288 201.856 0 364.269714-162.432 364.708571-364.288 0.420571-202.294857-162.432-364.288-364.288-364.288z m-146.578286 182.564571c9.435429 0 18.011429 3.858286 24.429715 10.715429l121.728 122.148571 121.709714-122.148571c6.418286-6.418286 14.994286-10.715429 24.868571-10.715429 18.834286 0 34.267429 15.872 34.267429 34.724572 0 9.856-3.84 17.993143-10.276572 24.429714l-121.728 121.709714 122.148572 122.569143c6.857143 7.296 10.294857 14.573714 10.294857 24.009143a34.102857 34.102857 0 0 1-34.285714 34.285714c-9.014857 0-16.731429-2.998857-24.009143-10.294857l-123.008-122.569143-122.569143 122.148572c-6.418286 6.857143-14.134857 9.856-23.570286 9.856-19.273143 0-34.285714-14.573714-34.285714-33.865143 0-9.417143 3.437714-17.554286 10.294857-23.990857l121.709714-122.148572-121.709714-122.148571c-6.857143-5.997714-10.294857-14.555429-10.294857-23.990857 0-18.852571 14.994286-34.706286 34.285714-34.706286z"  horiz-adv-x="1024" />
      
      <glyph glyph-name="rectangle" unicode="&#59534;" d="M141.074286-10.496h741.851428c89.581714 0 134.582857 44.562286 134.582857 132.845714V645.668571c0 88.283429-45.001143 132.845714-134.582857 132.845715H141.074286C51.931429 778.496 6.491429 734.354286 6.491429 645.668571V122.331429c0-88.704 45.44-132.845714 134.582857-132.845715z m1.28 68.992c-42.861714 0-66.852571 22.710857-66.852572 67.291429V642.194286c0 44.580571 23.990857 67.291429 66.852572 67.291428h739.291428c42.422857 0 66.852571-22.710857 66.852572-67.291428V125.805714c0-44.580571-24.429714-67.291429-66.852572-67.291428z"  horiz-adv-x="1024" />
      
      <glyph glyph-name="sidebar_left" unicode="&#59544;" d="M141.074286-10.496h741.851428c89.581714 0 134.582857 44.562286 134.582857 132.845714V645.668571c0 88.283429-45.001143 132.845714-134.582857 132.845715H141.074286C51.931429 778.496 6.491429 734.354286 6.491429 645.668571V122.331429c0-88.704 45.44-132.845714 134.582857-132.845715z m1.28 68.992c-42.861714 0-66.852571 22.710857-66.852572 67.291429V642.194286c0 44.580571 23.990857 67.291429 66.852572 67.291428h190.72v-651.008z m739.291428 651.008c42.422857 0 66.852571-22.710857 66.852572-67.291429V125.805714c0-44.580571-24.429714-67.291429-66.852572-67.291428h-481.28V709.504z m-630.857143-159.012571c12.854857 0 24.429714 11.574857 24.429715 24.009142 0 12.854857-11.574857 23.990857-24.429715 23.990858h-92.16c-12.836571 0-23.990857-11.136-23.990857-23.990858 0-12.434286 11.154286-24.009143 24.009143-24.009142z m0-110.994286c12.854857 0 24.429714 11.574857 24.429715 24.429714 0 12.854857-11.574857 23.588571-24.429715 23.588572h-92.16c-12.836571 0-23.990857-10.733714-23.990857-23.588572 0-12.854857 11.154286-24.429714 24.009143-24.429714z m0-110.573714c12.854857 0 24.429714 10.715429 24.429715 23.588571 0 12.836571-11.574857 23.990857-24.429715 23.990857h-92.16c-12.836571 0-23.990857-11.154286-23.990857-24.009143s11.154286-23.570286 24.009143-23.570285z"  horiz-adv-x="1024" />
      
    </font>
</defs>
</svg>
