<?xml version="1.0" standalone="no"?><!DOCTYPE svg PUBLIC "-//W3C//DTD SVG 1.1//EN" "http://www.w3.org/Graphics/SVG/1.1/DTD/svg11.dtd"><svg t="1675219785236" class="icon" viewBox="0 0 1024 1024" version="1.1" xmlns="http://www.w3.org/2000/svg" p-id="4343" xmlns:xlink="http://www.w3.org/1999/xlink" width="200" height="200"><path d="M522.592 32a165.376 165.376 0 0 1 158.048 116.544 165.312 165.312 0 0 1 148.512 157.504l0.16 6.976-0.032 158.944H960a32 32 0 0 1 3.744 63.808L960 536h-37.696l-30.336 319.04a96.064 96.064 0 0 1-88.64 78.112l-5.76 0.192H226.368c-44.256 0-82.496-30.24-93.44-75.2l-1.28-5.952-30.208-316.192H64a32 32 0 0 1-3.744-63.776L64 472l119.904-0.032V313.024a165.312 165.312 0 0 1 180.768-164.608A165.376 165.376 0 0 1 522.56 32z m70.272 638.656h-161.984l-3.744 0.224a32 32 0 0 0 0 63.552l3.744 0.224h161.984l3.712-0.224a32 32 0 0 0 0-63.552l-3.712-0.224zM522.56 96a101.44 101.44 0 0 0-96.576 70.592 165.248 165.248 0 0 1 88.384 138.848l0.16 7.584v158.944h109.376V197.344A101.312 101.312 0 0 0 522.592 96zM688 214.56l-0.032 257.408h77.344l0.032-158.944c0-47.68-32.96-87.68-77.344-98.464z m-338.752-2.88a101.312 101.312 0 0 0-101.12 95.584l-0.192 5.76v36.96h50.08a32 32 0 0 1 3.744 63.808l-3.744 0.192H247.872l0.032 57.984h202.656V313.024a101.312 101.312 0 0 0-89.92-100.672l-5.664-0.48-5.76-0.16z" fill="#404852" p-id="4344"></path></svg>