<?xml version="1.0" standalone="no"?><!DOCTYPE svg PUBLIC "-//W3C//DTD SVG 1.1//EN" "http://www.w3.org/Graphics/SVG/1.1/DTD/svg11.dtd"><svg t="1675219483621" class="icon" viewBox="0 0 1024 1024" version="1.1" xmlns="http://www.w3.org/2000/svg" p-id="4199" xmlns:xlink="http://www.w3.org/1999/xlink" width="200" height="200"><path d="M213.52 426.71c0 11.774-9.542 21.33-21.314 21.33s-21.314-9.556-21.314-21.33 9.542-21.33 21.314-21.33 21.314 9.558 21.314 21.33zM341.438 426.71c0 11.774-9.542 21.33-21.314 21.33s-21.314-9.556-21.314-21.33 9.542-21.33 21.314-21.33 21.314 9.558 21.314 21.33zM533.314 85.586c0 11.774-9.542 21.33-21.314 21.33s-21.314-9.556-21.314-21.33S500.228 64.288 512 64.288s21.314 9.524 21.314 21.298zM682.578 213.504c0 11.774-9.554 21.33-21.362 21.33-11.742 0-21.298-9.556-21.298-21.33s9.556-21.298 21.298-21.298c11.808 0 21.362 9.524 21.362 21.298zM384.082 384.082c0 11.774-9.542 21.298-21.314 21.298s-21.33-9.526-21.33-21.298 9.556-21.33 21.33-21.33 21.314 9.556 21.314 21.33zM384.082 298.792c0 11.774-9.542 21.33-21.314 21.33s-21.33-9.556-21.33-21.33 9.556-21.33 21.33-21.33 21.314 9.558 21.314 21.33zM384.082 213.504c0 11.774-9.542 21.33-21.314 21.33s-21.33-9.556-21.33-21.33 9.556-21.298 21.33-21.298 21.314 9.524 21.314 21.298zM682.578 298.792c0 11.774-9.554 21.33-21.362 21.33-11.742 0-21.298-9.556-21.298-21.33s9.556-21.33 21.298-21.33c11.808 0 21.362 9.558 21.362 21.33zM384.082 469.34c0 11.774-9.542 21.33-21.314 21.33s-21.33-9.556-21.33-21.33 9.556-21.298 21.33-21.298 21.314 9.524 21.314 21.298zM384.082 554.628c0 11.774-9.542 21.33-21.314 21.33s-21.33-9.556-21.33-21.33 9.556-21.33 21.33-21.33 21.314 9.558 21.314 21.33zM682.578 384.082c0 11.774-9.554 21.298-21.362 21.298-11.742 0-21.298-9.526-21.298-21.298s9.556-21.33 21.298-21.33c11.808 0 21.362 9.556 21.362 21.33zM341.438 512c0 11.774-9.542 21.298-21.314 21.298s-21.314-9.526-21.314-21.298 9.542-21.33 21.314-21.33 21.314 9.556 21.314 21.33zM213.52 512c0 11.774-9.542 21.298-21.314 21.298S170.89 523.774 170.89 512s9.542-21.33 21.314-21.33S213.52 500.226 213.52 512zM213.52 597.258c0 11.774-9.542 21.33-21.314 21.33s-21.314-9.556-21.314-21.33 9.542-21.298 21.314-21.298 21.314 9.524 21.314 21.298zM234.85 682.546c0 11.774-9.556 21.33-21.33 21.33s-21.314-9.556-21.314-21.33 9.542-21.33 21.314-21.33 21.33 9.558 21.33 21.33zM320.124 703.876c0 11.774-9.542 21.298-21.314 21.298s-21.33-9.526-21.33-21.298 9.556-21.33 21.33-21.33 21.314 9.558 21.314 21.33zM384.082 767.836c0 11.774-9.542 21.298-21.314 21.298s-21.33-9.526-21.33-21.298 9.556-21.33 21.33-21.33 21.314 9.556 21.314 21.33zM384.082 853.094c0 11.774-9.542 21.33-21.314 21.33s-21.33-9.556-21.33-21.33 9.556-21.298 21.33-21.298 21.314 9.524 21.314 21.298zM810.496 192.206c0 11.774-9.554 21.298-21.36 21.298-11.744 0-21.3-9.526-21.3-21.298 0-11.774 9.556-21.33 21.3-21.33 11.806 0 21.36 9.554 21.36 21.33zM725.176 256.164a21.284 21.284 0 0 1-21.298 21.298c-11.774 0-21.298-9.526-21.298-21.298s9.526-21.33 21.298-21.33c11.774 0 21.298 9.556 21.298 21.33zM895.754 256.164c0 11.774-9.554 21.298-21.296 21.298-11.806 0-21.364-9.526-21.364-21.298s9.556-21.33 21.364-21.33c11.742 0 21.296 9.556 21.296 21.33zM895.754 341.422c0 11.774-9.554 21.33-21.296 21.33-11.806 0-21.364-9.556-21.364-21.33s9.556-21.298 21.364-21.298c11.742 0 21.296 9.524 21.296 21.298zM895.754 426.71c0 11.774-9.554 21.33-21.296 21.33-11.806 0-21.364-9.556-21.364-21.33s9.556-21.33 21.364-21.33c11.742 0 21.296 9.558 21.296 21.33zM895.754 512c0 11.774-9.554 21.298-21.296 21.298-11.806 0-21.364-9.526-21.364-21.298s9.556-21.33 21.364-21.33c11.742 0 21.296 9.556 21.296 21.33zM874.458 597.258c0 11.774-9.558 21.33-21.364 21.33-11.742 0-21.296-9.556-21.296-21.33s9.554-21.298 21.296-21.298c11.804-0.002 21.364 9.524 21.364 21.298zM789.136 618.588c0 11.774-9.528 21.33-21.3 21.33s-21.296-9.556-21.296-21.33 9.524-21.33 21.296-21.33 21.3 9.556 21.3 21.33zM703.876 618.588c0 11.774-9.556 21.33-21.298 21.33-11.804 0-21.362-9.556-21.362-21.33s9.556-21.33 21.362-21.33c11.742 0 21.298 9.556 21.298 21.33zM682.578 725.176c0 11.774-9.554 21.33-21.362 21.33-11.742 0-21.298-9.556-21.298-21.33s9.556-21.298 21.298-21.298c11.808-0.002 21.362 9.524 21.362 21.298zM682.578 810.464c0 11.774-9.554 21.33-21.362 21.33-11.742 0-21.298-9.556-21.298-21.33s9.556-21.33 21.298-21.33c11.808 0 21.362 9.558 21.362 21.33zM682.578 895.754c0 11.774-9.554 21.298-21.362 21.298-11.742 0-21.298-9.526-21.298-21.298s9.556-21.33 21.298-21.33c11.808 0 21.362 9.556 21.362 21.33zM725.176 341.422c0 11.774-9.524 21.33-21.298 21.33s-21.298-9.556-21.298-21.33 9.526-21.298 21.298-21.298a21.284 21.284 0 0 1 21.298 21.298zM725.176 426.71c0 11.774-9.524 21.33-21.298 21.33s-21.298-9.556-21.298-21.33 9.526-21.33 21.298-21.33c11.774 0 21.298 9.558 21.298 21.33zM277.478 362.752c0 11.774-9.542 21.33-21.314 21.33s-21.314-9.556-21.314-21.33 9.542-21.33 21.314-21.33 21.314 9.556 21.314 21.33z" fill="#E6E9ED" p-id="4200"></path><path d="M256.164 362.752c35.322 0 63.958 28.638 63.958 63.958v149.248h127.918v127.918h-191.876c-35.322 0-63.958-28.638-63.958-63.958V426.71c0-35.32 28.636-63.958 63.958-63.958zM789.136 192.206c-47.098 0-85.26 38.162-85.26 85.258v170.578h-170.562v170.546h255.822c47.124 0 85.32-38.162 85.32-85.29V277.462c0.002-47.094-38.194-85.256-85.32-85.256z" fill="#8CC153" p-id="4201"></path><path d="M512 85.586c-82.416 0-149.232 66.832-149.232 149.248v724.878h298.45V234.834c-0.002-82.416-66.802-149.248-149.218-149.248z" fill="#A0D468" p-id="4202"></path><path d="M512 85.586c-7.246 0-14.35 0.53-21.314 1.53 72.314 10.338 127.934 72.548 127.934 147.718v724.878h42.598V234.834c-0.002-82.416-66.802-149.248-149.218-149.248z" fill="#FFFFFF" opacity=".2" p-id="4203"></path><path d="M1002.376 917.052H21.642c-11.774 0-21.314 9.556-21.314 21.33s9.54 21.33 21.314 21.33h980.732c11.742 0 21.296-9.556 21.296-21.33s-9.552-21.33-21.294-21.33z" fill="#434A54" p-id="4204"></path></svg>