<?xml version="1.0" standalone="no"?><!DOCTYPE svg PUBLIC "-//W3C//DTD SVG 1.1//EN" "http://www.w3.org/Graphics/SVG/1.1/DTD/svg11.dtd"><svg t="1675231782353" class="icon" viewBox="0 0 1024 1024" version="1.1" xmlns="http://www.w3.org/2000/svg" p-id="4625" xmlns:xlink="http://www.w3.org/1999/xlink" width="200" height="200"><path d="M512 85.333333c94.293333 0 170.666667 76.373333 170.666667 170.666667v384h42.666666c23.466667 0 42.666667-19.2 42.666667-42.666667V341.333333a42.666667 42.666667 0 0 1 85.333333 0v256c0 70.826667-57.173333 128-128 128h-42.666666v128h85.333333v85.333334H256v-85.333334h85.333333v-256H298.666667a128 128 0 0 1-128-128V384a42.666667 42.666667 0 0 1 85.333333 0v85.333333c0 23.466667 19.2 42.666667 42.666667 42.666667h42.666666V256c0-94.293333 76.373333-170.666667 170.666667-170.666667z m0 85.333334a85.333333 85.333333 0 0 0-85.333333 85.333333v597.333333h170.666666V256a85.333333 85.333333 0 0 0-85.333333-85.333333z" p-id="4626"></path></svg>