<?xml version="1.0" standalone="no"?><!DOCTYPE svg PUBLIC "-//W3C//DTD SVG 1.1//EN" "http://www.w3.org/Graphics/SVG/1.1/DTD/svg11.dtd"><svg t="1678783017864" class="icon" viewBox="0 0 1024 1024" version="1.1" xmlns="http://www.w3.org/2000/svg" p-id="3028" xmlns:xlink="http://www.w3.org/1999/xlink" width="200" height="200"><path d="M748.736 448.736c-10.88 0.64-17.984-2.88-18.88-3.488l-53.984 34.496c11.872 18.624 36.384 31.264 63.872 32.896 2.144 0.096 4.256 0.096 6.4 0.096 36.096 0 71.616-18.24 98.496-50.72 45.856-55.776 78.08-114.88 79.488-117.376l14.496-26.88-26.112-15.744c-145.024-87.136-227.872-45.76-256.768-23.904a119.04 119.04 0 0 0-44.864 119.648c-29.76 18.976-59.392 42.976-83.008 72.256-13.632-31.904-34.88-60.512-59.616-85.76 2.24-5.888 3.744-11.616 4.736-15.872 0.512-2.24 0.992-4.384 1.632-6.272 16.384-54.848-6.112-118.848-56-159.104-35.52-28.64-136.384-85.12-305.984 8.352l-21.888 12 6.24 24c1.28 4.896 31.52 118.88 91.648 185.632 25.984 28.896 58.624 45.12 94.496 46.88 2.24 0.128 4.48 0.128 6.624 0.128 40.256 0 74.752-17.888 88.736-30.624l-43.008-47.36c-0.48 0.352-54.24 38.08-99.232-11.904-34.88-38.624-58.624-100.608-69.888-134.624 121.12-58.368 188.16-21.984 212-2.752 28 22.624 41.888 56 36.16 85.024C345.6 286.72 273.856 258.24 268.096 256.128l-23.136 59.616C310.4 341.024 480 431.488 480 544v100.64a127.68 127.68 0 0 0-63.36 38.368A111.296 111.296 0 0 0 368 672c-45.76 0-85.12 27.52-102.496 67.008A109.408 109.408 0 0 0 240 736C178.24 736 128 786.24 128 848v16h64v-16A48 48 0 0 1 240 800c12.864 0 22.72 5.376 28.736 9.888L320 784.384v-0.512A48.16 48.16 0 0 1 368 736c12.864 0 24.992 5.12 34.112 14.4l51.872-9.024A64.16 64.16 0 0 1 512 704a63.68 63.68 0 0 1 56 34.016l50.496 7.744c6.4-6.272 14.88-9.76 23.744-9.76 18.752 0 34.144 15.36 34.144 34.112 0 3.776-0.768 7.52-2.24 11.648l51.36 34.88c8.48-7.648 22.72-16.64 42.496-16.64 35.264 0 64 28.736 64 64h64c0-70.624-57.376-128-128-128-11.008 0-21.888 1.504-32.256 4.256a98.368 98.368 0 0 0-131.616-60.64A127.616 127.616 0 0 0 544 644.64V608h0.128v-10.496c0-132.864 208.992-196.48 211.136-197.12l-18.016-61.376c-3.264 0.864-29.376 8.864-63.744 24.64 2.496-13.28 9.376-25.664 20.992-34.4 33.888-25.76 91.392-20.864 157.248 12.384a723.84 723.84 0 0 1-56.48 79.744c-17.632 21.376-35.008 26.752-46.528 27.36z m-317.248-102.496l0.384 5.024c-1.6-1.28-3.36-2.528-4.992-3.904 1.504-0.352 2.88-0.96 4.608-1.12z" p-id="3029"></path></svg>