<?xml version="1.0" standalone="no"?><!DOCTYPE svg PUBLIC "-//W3C//DTD SVG 1.1//EN" "http://www.w3.org/Graphics/SVG/1.1/DTD/svg11.dtd"><svg t="1678175438032" class="icon" viewBox="0 0 1024 1024" version="1.1" xmlns="http://www.w3.org/2000/svg" p-id="2292" xmlns:xlink="http://www.w3.org/1999/xlink" width="200" height="200"><path d="M813.903448 854.510345H210.096552c-8.827586 0-15.889655-7.062069-15.889655-17.655173s7.062069-17.655172 15.889655-17.655172h603.806896c8.827586 0 15.889655 7.062069 15.889655 17.655172s-7.062069 17.655172-15.889655 17.655173z" p-id="2293"></path><path d="M457.268966 847.448276c-8.827586 0-17.655172-7.062069-17.655173-17.655173 0-17.655172 0-436.082759 316.027586-568.496551 8.827586-3.531034 19.42069 0 22.951724 8.827586 3.531034 8.827586 0 19.42069-8.827586 22.951724C476.689655 416.662069 474.924138 826.262069 474.924138 829.793103c0 8.827586-7.062069 17.655172-17.655172 17.655173z" p-id="2294"></path><path d="M423.724138 637.351724c-1.765517 0-5.296552 0-7.062069-1.765517C70.62069 471.393103 107.696552 171.255172 107.696552 167.724138l1.765517-12.358621 14.124138-3.531034c250.703448-40.606897 324.855172 95.337931 328.386207 100.634483 5.296552 8.827586 1.765517 19.42069-7.062069 22.951724-8.827586 5.296552-19.42069 1.765517-22.951724-7.062069-3.531034-5.296552-65.324138-114.758621-278.951724-84.744828-3.531034 56.496552 3.531034 282.482759 289.544827 418.427586 8.827586 3.531034 12.358621 14.124138 8.827586 22.951724-5.296552 8.827586-10.593103 12.358621-17.655172 12.358621z" p-id="2295"></path><path d="M568.496552 649.710345c-8.827586 0-15.889655-7.062069-17.655173-15.889655-1.765517-8.827586 5.296552-19.42069 14.124138-19.42069 317.793103-45.903448 317.793103-346.041379 314.262069-409.6-134.17931-35.310345-240.110345-22.951724-314.262069 37.075862-143.006897 116.524138-121.82069 377.82069-121.820689 379.586207 0 10.593103-7.062069 17.655172-15.889656 19.42069-10.593103 1.765517-17.655172-7.062069-19.420689-15.889656-1.765517-10.593103-21.186207-282.482759 134.17931-409.6 84.744828-70.62069 204.8-82.97931 356.634483-40.606896l10.593103 3.531034 1.765518 12.358621c0 3.531034 38.841379 406.068966-344.275863 460.8l1.765518-1.765517z" p-id="2296"></path></svg>