<?xml version="1.0" standalone="no"?><!DOCTYPE svg PUBLIC "-//W3C//DTD SVG 1.1//EN" "http://www.w3.org/Graphics/SVG/1.1/DTD/svg11.dtd"><svg t="1675231715503" class="icon" viewBox="0 0 1024 1024" version="1.1" xmlns="http://www.w3.org/2000/svg" p-id="4485" xmlns:xlink="http://www.w3.org/1999/xlink" width="200" height="200"><path d="M477.437127 0C373.856431 0.118717 289.918024 84.06252 289.801105 187.63782v341.164251H170.386063c-9.414628 0-17.052097 7.637469-17.052097 17.052097v102.353952c0 9.421823 7.637469 17.061091 17.052097 17.061091h54.109828L290.101496 1009.635227A17.057493 17.057493 0 0 0 306.851403 1023.485559h341.164252a17.057493 17.057493 0 0 0 16.751706-13.850332l65.603806-344.366016h54.102634a17.059292 17.059292 0 0 0 17.06109-17.061091v-102.352153c0-9.416427-7.637469-17.052097-17.06109-17.052097h-119.404251v-51.174278h85.292862c65.905995-0.084541 119.321508-53.498256 119.40425-119.413244V255.87139c0-47.103719-38.187343-85.292862-85.292861-85.292862s-85.285667 38.187343-85.285667 85.292862v51.174278h-34.118584v-119.407848C664.947236 84.06252 581.014225 0.118717 477.437127 0z m17.052096 528.802071V35.124082a152.051461 152.051461 0 0 1 51.174278 15.19939v478.478599z m-34.111388 0h-51.174278V50.323472a152.051461 152.051461 0 0 1 51.174278-15.19939zM323.912494 187.63782a152.976016 152.976016 0 0 1 51.172479-114.099753v455.264004h-51.174278z m309.995608 801.73635H320.958956l-61.732908-324.104959h436.411364zM767.421704 631.14703H187.445354v-68.23357H767.421704z m-187.63782-102.346757V73.538067a152.976016 152.976016 0 0 1 51.172479 114.099753v341.164251z m255.871389-272.930682v102.344958c-0.05756 47.083933-38.210727 85.237101-85.292861 85.292862h-85.285667v-34.118584h85.285667c28.265469 0 51.179674-22.90701 51.179674-51.174278v-150.376829a51.176077 51.176077 0 0 1 34.113187 48.031871z m-119.406049 85.292862c9.421823 0 17.052097-7.637469 17.052097-17.059292V255.87139a51.174278 51.174278 0 0 1 34.120383-48.031872v150.384025c0 9.416427-7.637469 17.052097-17.059292 17.052097h-85.285667v-34.111389z m0 0" p-id="4486"></path></svg>