<?xml version="1.0" standalone="no"?><!DOCTYPE svg PUBLIC "-//W3C//DTD SVG 1.1//EN" "http://www.w3.org/Graphics/SVG/1.1/DTD/svg11.dtd"><svg class="icon" width="200px" height="200.00px" viewBox="0 0 1024 1024" version="1.1" xmlns="http://www.w3.org/2000/svg"><path d="M320 896 320 548.192C239.104 570.656 219.392 582.016 134.016 582.016c-73.888 0-134.016-60.128-134.016-134.016 0-73.888 60.128-134.016 134.016-134.016 103.968 0 151.936-38.72 205.696-115.104 1.6-2.272 3.168-4.576 4.704-6.912L256 192 256 0l640 0 0 192-56.992 0c4.288 63.648 22.208 81.12 44.096 102.432 16.896 16.448 37.92 36.928 53.28 74.016C952.48 407.424 960 458.112 960 528l0 48 0 16.992c0 61.952-51.264 112.32-114.272 112.32-10.464 0-20.864-1.408-30.912-4.192-20.992 19.712-48.992 30.976-78.816 30.976-10.464 0-20.864-1.408-30.912-4.192-20.992 19.712-48.992 30.976-78.816 30.976-18.048 0-35.104-4.128-50.272-11.488L576 896c0 70.688-57.312 128-128 128C377.312 1024 320 966.688 320 896zM832 96c0-17.664-14.336-32-32-32s-32 14.336-32 32 14.336 32 32 32S832 113.664 832 96zM512 890.016 512 640.544 512 634.016l64 0 0 6.528c0 26.656 22.56 48.32 50.272 48.32 17.376 0 33.28-8.48 42.592-22.656l16.256-24.8 25.952 14.304c7.552 4.16 16.192 6.368 24.928 6.368 17.376 0 33.28-8.48 42.592-22.656l16.256-24.8 25.952 14.304c7.552 4.16 16.192 6.368 24.928 6.368 27.712 0 50.272-21.664 50.272-48.32L896 570.016l0-48c0-126.56-38.208-152.096-65.952-179.104-28.32-27.584-60-58.496-66.72-150.88L428.96 192c-8.256 15.744-17.248 30.688-27.104 44.672C334.016 333.056 262.304 384 134.016 384c-31.968 0-58.016 30.016-58.016 62.016s26.016 60 58.016 60c85.664 0 105.408-12.416 186.016-36.96 22.752-6.112 45.28-11.936 63.328-15.872L384 890.016c0 35.296 28.704 64 64 64C483.296 954.016 512 925.28 512 890.016z" fill="#000000" /></svg>