<?xml version="1.0" standalone="no"?><!DOCTYPE svg PUBLIC "-//W3C//DTD SVG 1.1//EN" "http://www.w3.org/Graphics/SVG/1.1/DTD/svg11.dtd"><svg t="1603866525355" class="icon" viewBox="0 0 1024 1024" version="1.1" xmlns="http://www.w3.org/2000/svg" p-id="2853" xmlns:xlink="http://www.w3.org/1999/xlink" width="200" height="200"><defs><style type="text/css"></style></defs><path d="M722.904 301.896H60.064c-16.872 0-30.128 13.2-30.128 30v542.08C29.936 956.8 97.424 1024 180.576 1024h421.808c83.16 0 150.648-67.208 150.648-150.024v-542.08c0-16.8-13.256-30-30.128-30z" fill="#32D736" p-id="2854"></path><path d="M601.176 588.736c-3.616-10.8-13.256-18.608-24.704-20.4l-110.272-16.208L416.8 452.52c-5.424-9.6-14.464-16.208-25.304-16.8h-1.816c-11.44 0-21.688 6.592-27.112 16.8l-49.408 99.608-110.28 16.208c-11.44 1.792-21.088 9.6-24.704 20.4-3.008 10.8 0 22.8 7.84 30.6l80.136 78.016-19.28 111.208a30.624 30.624 0 0 0 12.056 29.416c9.64 6.6 21.688 7.8 31.936 2.4l98.816-51.616 1.808 1.2 97.016 50.408c10.248 5.4 22.296 4.2 31.944-2.4a30.624 30.624 0 0 0 12.048-29.4l-19.28-111.216 80.144-78.016c8.432-7.8 10.848-19.8 7.824-30.6z" fill="#FEDB41" p-id="2855"></path><path d="M184 224.568a30.016 30.016 0 0 1 17.616-38.648 18.16 18.16 0 0 0 11.8-16.904 18.16 18.16 0 0 0-11.8-16.904c-30.392-11.376-50.84-42.728-50.84-75.112 0-32.384 20.448-63.736 50.84-75.104 15.536-5.744 32.96 1.992 38.808 17.544a30.016 30.016 0 0 1-17.624 38.648c-7.032 2.616-11.76 11.408-11.76 18.912 0 7.496 4.728 14.296 11.76 16.904 30.424 11.368 50.88 42.76 50.88 75.112 0 32.344-20.456 61.736-50.88 73.104-15.84 5.832-33.032-2.2-38.8-17.552zM545.544 224.568a30.016 30.016 0 0 1 17.616-38.648 18.16 18.16 0 0 0 11.8-16.904 18.16 18.16 0 0 0-11.8-16.904c-30.392-11.376-50.84-42.728-50.84-75.112 0-32.384 20.448-63.744 50.848-75.104 15.616-5.744 32.976 1.992 38.8 17.544a30.016 30.016 0 0 1-17.616 38.648c-7.04 2.616-11.768 11.408-11.768 18.912 0 7.496 4.736 14.296 11.76 16.904 30.432 11.368 50.88 42.76 50.88 75.112 0 32.344-20.448 61.736-50.88 73.104a30.184 30.184 0 0 1-38.8-17.552z" fill="#CCEFFF" p-id="2856"></path><path d="M843.416 361.904h-150.64V481.92h150.64c16.64 0 30.128 13.44 30.128 30v242.04a30.064 30.064 0 0 1-30.128 30h-150.64v120.024h150.64c83.064 0 150.64-67.304 150.64-150.024V511.92c0-82.712-67.576-150.016-150.64-150.016z" fill="#0CA656" p-id="2857"></path><path d="M753.032 331.896v542.08c0 82.816-67.488 150.024-150.64 150.024H391.472V301.896h331.424c16.88 0 30.128 13.2 30.128 30z" fill="#10BB67" p-id="2858"></path><path d="M593.344 619.344l-80.136 78.008 19.28 111.216a30.624 30.624 0 0 1-12.056 29.408c-9.64 6.6-21.688 7.8-31.936 2.4l-97.016-50.416V435.712c10.848 0.6 19.888 7.2 25.312 16.8l49.408 99.616 110.272 16.2c11.448 1.8 21.088 9.6 24.704 20.408 3.024 10.8 0.608 22.8-7.832 30.608z" fill="#FFCC33" p-id="2859"></path><path d="M454.152 169.28a77.72 77.72 0 0 1-50.616 72.608c-4.216 1.8-7.84 2.4-12.056 1.8-11.44-0.6-22.296-7.8-26.512-19.2-6.024-15.6 1.808-33.008 17.472-38.408 4.224-1.8 7.232-4.8 9.04-7.8 1.816-3 2.408-6 2.408-9.008 0-3-0.592-6.6-2.4-9a17.704 17.704 0 0 0-9.04-8.4c-30.736-11.4-50.624-42.208-50.624-74.616 0-32.4 19.888-63.808 50.616-75.2 3.016-1.208 6.032-1.808 9.04-1.208 12.664-1.8 25.312 6 29.528 18.6 6.032 15.6-1.8 33.008-17.472 38.408-7.232 3-11.44 11.6-11.44 19.4 0 7.2 4.208 13.808 11.44 16.8 30.728 11.416 50.616 42.816 50.616 75.216z" fill="#CCEFFF" p-id="2860"></path></svg>