<?xml version="1.0" standalone="no"?><!DOCTYPE svg PUBLIC "-//W3C//DTD SVG 1.1//EN" "http://www.w3.org/Graphics/SVG/1.1/DTD/svg11.dtd"><svg t="1603866507087" class="icon" viewBox="0 0 1024 1024" version="1.1" xmlns="http://www.w3.org/2000/svg" p-id="2537" xmlns:xlink="http://www.w3.org/1999/xlink" width="200" height="200"><defs><style type="text/css"></style></defs><path d="M223.7116 1023.152a29.864 29.864 0 0 1-21.12-8.776l-193.84-194.176a29.984 29.984 0 0 1-7.176-30.76 29.872 29.872 0 0 1 24.336-20.088l228.168-31.968a29.6 29.6 0 0 1 25.096 8.504 29.776 29.776 0 0 1 8.464 25.144l-34.328 226.16a29.776 29.776 0 0 1-29.6 25.96z" fill="#32D736" p-id="2538"></path><path d="M202.5916 1014.376a29.872 29.872 0 0 0 30.696 7.2 29.776 29.776 0 0 0 20.016-24.392l34.336-226.152a29.768 29.768 0 0 0-8.464-25.144L105.6876 917.296l96.912 97.08z" fill="#10BB67" p-id="2539"></path><path d="M764.7276 289.312a29.904 29.904 0 0 1-29.6-33.92l33.584-228.6A29.776 29.776 0 0 1 788.7356 2.408a29.928 29.928 0 0 1 30.696 7.192l193.84 194.208a29.984 29.984 0 0 1 7.176 30.76 29.872 29.872 0 0 1-24.344 20.088L768.6876 289.04a30.4 30.4 0 0 1-3.968 0.272z" fill="#32D736" p-id="2540"></path><path d="M764.7276 289.312c1.28 0 2.616-0.088 3.96-0.264l227.416-34.392a29.888 29.888 0 0 0 24.344-20.08 29.984 29.984 0 0 0-7.184-30.76l-96.92-97.12-172.752 173.84a29.92 29.92 0 0 0 21.128 8.776z" fill="#10BB67" p-id="2541"></path><path d="M885.3516 362.144c-7.176-22.16-19.128-43.12-35.864-59.88l-1.792-1.8-126.704-126.952c-56.184-56.888-154.8-56.888-210.976 0L172.3276 511.856c-8.96 8.976-17.336 19.16-23.312 29.944a144.912 144.912 0 0 0-20.92 75.448c0 14.968 2.4 29.944 6.576 44.32 7.176 22.152 19.12 43.112 35.864 59.88l1.792 1.792 22.112 22.16 85.464 85.632 19.12 19.16c28.096 28.744 65.752 44.32 105.792 44.32a146.32 146.32 0 0 0 105.184-44.32L638.5116 721.44l209.184-209.584c8.96-8.984 17.328-19.16 23.304-29.944a144.912 144.912 0 0 0 20.92-75.448c0-14.976-2.392-29.944-6.568-44.32z" fill="#FD003A" p-id="2542"></path><path d="M510.0076 850.192L638.5196 721.44l209.184-209.584c8.96-8.984 17.328-19.16 23.304-29.944a144.912 144.912 0 0 0 20.92-75.448c0-14.976-2.392-29.944-6.576-44.32-7.176-22.16-19.12-43.12-35.856-59.88l-1.792-1.8-62-62.112-506.52 507.536-42.112 42.2 42.848 42.936 19.12 19.16c28.096 28.752 65.752 44.32 105.792 44.32 39.448 0 77.104-15.568 105.192-44.32z" fill="#E50027" p-id="2543"></path><path d="M885.3516 362.144h-563.6l59.76-59.88h467.976c16.736 16.768 28.688 37.72 35.864 59.88zM870.9996 481.912c-5.976 10.776-14.344 20.96-23.304 29.944l-29.888 29.936H149.0236c5.976-10.776 14.344-20.96 23.304-29.944l29.888-29.936h668.784zM698.2796 661.56l-59.76 59.888H170.5356c-16.744-16.776-28.688-37.728-35.864-59.888h563.6z" fill="#32D736" p-id="2544"></path><path d="M698.2796 661.56H363.3356l-59.76 59.888h334.936zM817.8156 541.792l29.88-29.944c8.96-8.984 17.328-19.16 23.304-29.936H542.6236l-59.76 59.88h334.952zM885.3516 362.144c-7.176-22.16-19.128-43.12-35.864-59.88H721.9116l-59.76 59.88h223.2z" fill="#10BB67" p-id="2545"></path></svg>