<?xml version="1.0" standalone="no"?><!DOCTYPE svg PUBLIC "-//W3C//DTD SVG 1.1//EN" "http://www.w3.org/Graphics/SVG/1.1/DTD/svg11.dtd"><svg t="1603866531696" class="icon" viewBox="0 0 1024 1024" version="1.1" xmlns="http://www.w3.org/2000/svg" p-id="3008" xmlns:xlink="http://www.w3.org/1999/xlink" width="200" height="200"><defs><style type="text/css"></style></defs><path d="M403.239954 81.064215A149.607953 149.607953 0 0 0 269.999996 0.00024C187.296021 0.00024 120.000043 67.296219 120.000043 150.000193S187.296021 300.000146 269.999996 300.000146h119.999962l84.847974-110.271965c-26.447992-29.767991-48.959985-64.98398-71.599978-108.663966z" fill="#32D736" p-id="3009"></path><path d="M449.999939 240.000165c-62.51998 0-116.695964-30.48799-153.159952-103.415968a29.999991 29.999991 0 1 0-53.671983 26.839992C290.527989 258.136159 366.143966 300.000146 449.999939 300.000146c16.583995 0 31.99999-13.415996 31.99999-29.99999s-15.415995-29.999991-31.99999-29.999991zM753.999844 0.00024a149.599953 149.599953 0 0 0-133.239958 81.063975c-22.647993 43.679986-45.151986 78.895975-71.607978 108.663966L633.999882 300.000146h119.999962c82.703974 0 149.999953-67.295979 149.999954-149.999953S836.703819 0.00024 753.999844 0.00024z" fill="#10BB67" p-id="3010"></path><path d="M511.99992 120.000202c-49.799984 0-91.999971 40.199987-91.999971 89.999972S462.199936 300.000146 511.99992 300.000146s91.999971-40.199987 91.999971-89.999972S561.799904 120.000202 511.99992 120.000202z" fill="#10BB67" p-id="3011"></path><path d="M767.41584 123.168202a30.079991 30.079991 0 0 0-40.255987 13.415995C690.935864 209.040175 637.039881 240.000165 573.999901 240.000165c-16.583995 0-31.99999 13.415996-31.99999 29.999991s15.415995 29.999991 31.99999 29.99999c84.375974 0 159.67995-42.279987 206.839935-136.583957a29.999991 29.999991 0 0 0-13.423996-40.247987z" fill="#0CA656" p-id="3012"></path><path d="M603.999891 210.000174c0 49.799984-42.199987 89.999972-91.999971 89.999972V120.000202c49.799984 0 91.999971 40.199987 91.999971 89.999972z" fill="#0CA656" p-id="3013"></path><path d="M963.999779 420.000109v513.999839c0 49.799984-40.199987 89.999972-89.999972 89.999972h-723.999774A89.879972 89.879972 0 0 1 60.000061 933.999948V420.000109h903.999718z" fill="#E50027" p-id="3014"></path><path d="M511.99992 1023.99992h361.999887c49.799984 0 89.999972-40.199987 89.999972-89.999972V420.000109H511.99992V1023.99992z" fill="#C1001F" p-id="3015"></path><path d="M1023.99976 330.000137v59.999981c0 49.799984-40.199987 89.999972-89.999972 89.999972H90.000052A89.879972 89.879972 0 0 1 0.00008 390.000118v-59.999981C0.00008 280.200152 40.200067 240.000165 90.000052 240.000165h843.999736c49.799984 0 89.999972 40.199987 89.999972 89.999972z" fill="#FD003A" p-id="3016"></path><path d="M1023.99976 330.000137v59.999981c0 49.799984-40.199987 89.999972-89.999972 89.999972H511.99992V240.000165h421.999868c49.799984 0 89.999972 40.199987 89.999972 89.999972z" fill="#E50027" p-id="3017"></path><path d="M359.999968 240.000165h303.999905v783.999755H359.999968z" fill="#FEDB41" p-id="3018"></path><path d="M511.99992 240.000165h151.999953v783.999755H511.99992z" fill="#FFCC33" p-id="3019"></path><path d="M541.999911 240.000165v89.999972c0 16.799995-13.199996 29.999991-29.999991 29.99999s-29.999991-13.199996-29.999991-29.99999V240.000165h59.999982z" fill="#FEA832" p-id="3020"></path><path d="M541.999911 240.000165v89.999972c0 16.799995-13.199996 29.999991-29.999991 29.99999V240.000165h29.999991z" fill="#FE9923" p-id="3021"></path><path d="M541.999911 933.999948V1023.99992h-59.999982v-89.999972c0-16.799995 13.199996-29.999991 29.999991-29.99999s29.999991 13.199996 29.999991 29.99999z" fill="#FEA832" p-id="3022"></path><path d="M541.999911 933.999948V1023.99992H511.99992v-119.999962c16.799995 0 29.999991 13.199996 29.999991 29.99999z" fill="#FE9923" p-id="3023"></path></svg>