<?xml version="1.0" standalone="no"?><!DOCTYPE svg PUBLIC "-//W3C//DTD SVG 1.1//EN" "http://www.w3.org/Graphics/SVG/1.1/DTD/svg11.dtd"><svg t="1603866543132" class="icon" viewBox="0 0 1024 1024" version="1.1" xmlns="http://www.w3.org/2000/svg" p-id="3169" xmlns:xlink="http://www.w3.org/1999/xlink" width="200" height="200"><defs><style type="text/css"></style></defs><path d="M996.568 535.136c-19.16 47.416-47.912 92.416-86.24 130.824-36.528 36.6-78.456 64.2-122.776 82.8h-0.592a391.728 391.728 0 0 1-297.056 3.6c-47.32-19.2-92.24-48-130.56-86.4-36.536-36.608-64.08-78.616-82.648-123.016-40.128-94.816-41.328-202.824-3.6-298.24 19.168-47.4 47.92-92.408 86.24-130.816 36.536-36.6 78.464-64.208 122.784-82.8 0.592-0.608 1.192-0.608 1.792 0a388.696 388.696 0 0 1 295.856-3.6c47.32 19.2 92.24 48 130.56 86.4 36.536 36.608 64.08 78.616 82.648 123.016v1.2a392.368 392.368 0 0 1 3.6 297.04z" fill="#FEDB41" p-id="3170"></path><path d="M996.568 535.136c-19.16 47.416-47.912 92.416-86.24 130.824-36.528 36.6-78.456 64.2-122.776 82.8h-0.592a391.728 391.728 0 0 1-297.056 3.6c-47.32-19.2-92.24-48-130.56-86.4l550.984-552.072c36.536 36.608 64.08 78.616 82.648 123.016v1.2a392.368 392.368 0 0 1 3.6 297.04z" fill="#FFCC33" p-id="3171"></path><path d="M992.976 236.904v1.2c-2.392 42.608-18.56 84.016-49.104 119.416-79.056 90.016-213.216 104.416-309.04 32.4 101.816-14.4 179.68-94.808 193.448-193.816 2.4-15.6 3-31.808 1.8-48.008-2.992-46.8-21.56-88.808-50.312-120.608 47.32 19.2 92.24 48 130.56 86.408 36.536 36.6 64.08 78.608 82.648 123.008z" fill="#FD003A" p-id="3172"></path><path d="M634.84 389.92c-16.776-118.208-122.176-204.024-241.36-195.616-46.72 3-88.64 21.6-120.376 50.4 19.168-47.4 47.92-92.408 86.24-130.808C395.88 77.28 437.8 49.68 482.12 31.088c0.6-0.6 1.2-0.6 1.792 0 41.92 3 83.848 19.2 118.584 49.2 89.84 79.208 104.208 213.624 32.344 309.64z" fill="#FD003A" p-id="3173"></path><path d="M445.584 706.768l-289.128 289.688c-41.928 42.008-94.64 31.208-126.376-0.6-31.744-32.4-42.52-85.2-0.592-127.216l289.12-289.096 63.496 63.608 63.48 63.616z" fill="#CCEFFF" p-id="3174"></path><path d="M445.584 706.768l-289.128 289.688c-41.928 42.008-94.64 31.208-126.376-0.6l352.016-352.704 63.488 63.616z" fill="#ACE3FC" p-id="3175"></path><path d="M441.392 583.744c-2.4 15.6-2.992 31.808-1.8 48.008 3 46.8 21.56 88.808 50.32 120.616-47.32-19.2-92.24-48.008-130.568-86.416-36.536-36.6-64.08-78.608-82.648-123.008 2.4-43.208 18.56-85.208 49.112-120.616 79.048-90.016 213.2-104.416 309.032-32.4-101.816 14.4-179.68 94.808-193.44 193.816z" fill="#FD003A" p-id="3176"></path><path d="M996.568 535.136c-19.16 47.416-47.912 92.416-86.24 130.824-36.528 36.6-78.456 64.2-122.776 82.8h-0.592c-42.52-2.392-84.448-18.6-119.784-49.2-89.84-79.2-104.208-213.624-32.336-309.632 16.768 118.208 122.168 204.024 241.36 195.624 46.712-3.008 88.632-21.6 120.368-50.416zM489.904 752.368c-47.312-19.2-92.24-48.008-130.56-86.416l82.048-82.208c-2.4 15.6-2.992 31.808-1.8 48.008 2.992 46.808 21.56 88.816 50.32 120.616z" fill="#E50027" p-id="3177"></path><path d="M992.976 236.904v1.2c-2.392 42.608-18.56 84.016-49.104 119.416-79.056 90.016-213.216 104.416-309.04 32.4 101.816-14.4 179.68-94.808 193.448-193.816l82.056-82.208c36.528 36.6 64.08 78.608 82.64 123.008z" fill="#E50027" p-id="3178"></path></svg>