<?xml version="1.0" standalone="no"?><!DOCTYPE svg PUBLIC "-//W3C//DTD SVG 1.1//EN" "http://www.w3.org/Graphics/SVG/1.1/DTD/svg11.dtd"><svg t="1603866472296" class="icon" viewBox="0 0 1024 1024" version="1.1" xmlns="http://www.w3.org/2000/svg" p-id="1225" xmlns:xlink="http://www.w3.org/1999/xlink" width="200" height="200"><defs><style type="text/css"></style></defs><path d="M501.869227 817.902933c-136.103253 78.650027-221.047467 105.63584-254.85312 80.943787-33.792-24.692053-33.792-109.663573 0-254.921387C129.911467 550.017707 77.78304 483.14368 90.658133 443.303253c12.875093-39.840427 85.292373-69.952853 217.245014-90.350933C389.26336 195.017387 451.037867 116.053333 493.192533 116.053333c42.16832 0 104.73472 78.964053 187.712854 236.898987 140.916053 17.769813 218.23488 47.88224 231.95648 90.350933 13.7216 42.468693-46.537387 109.34272-180.783787 200.62208 49.54112 144.7936 57.091413 229.76512 22.664533 254.921387-34.42688 25.14944-118.715733-1.829547-252.873386-80.943787z" fill="#86BFFF" p-id="1226"></path><path d="M919.69536 436.770133c13.673813 42.441387-46.373547 109.267627-180.148907 200.492374l5.126827 15.271253c44.714667 135.420587 50.537813 215.251627 17.455787 239.49312-19.47648 14.267733-54.975147 11.741867-106.496-7.5776 45.335893-34.133333 35.068587-147.667627-30.808747-340.5824l18.404693-12.65664c87.197013-60.6208 149.108053-112.88576 185.73312-156.79488 52.401493 16.472747 82.650453 37.25312 90.733227 62.354773z m-601.634133 376.64768c47.67744 28.166827 110.57152-18.295467 148.814506 0-98.727253 51.03616-182.647467 99.150507-210.691413 78.609067-14.88896-10.91584-29.184-55.76704-30.90432-90.23488 26.794667-13.824 62.11584 29.375147 92.781227 11.625813z m246.3744-662.801066l4.990293 5.71392-12.936533-1.67936A3243.287893 3243.287893 0 0 0 543.27296 129.706667c6.731093 5.7344 13.789867 12.704427 21.162667 20.916906z" fill="#70B1FA" p-id="1227"></path><path d="M512.382293 88.814933c-53.896533 2.53952-120.429227 78.88896-212.220586 232.188587l-3.249494 5.440853-3.76832 0.628054c-131.570347 21.79072-205.02528 53.937493-221.620906 105.130666l-0.873814 2.921814c-14.52032 52.947627 37.533013 121.084587 152.528214 214.766933l-1.727147 7.871147c-30.76096 140.970667-28.44672 224.597333 15.571627 256.641706l2.43712 1.693014c44.557653 29.395627 127.638187 4.8128 258.116266-68.027734l9.489067-5.352106 2.74432 1.47456c146.466133 77.632853 236.939947 103.048533 282.043733 70.212266l2.4576-1.870506c42.47552-33.95584 42.53696-117.405013 8.533334-255.515307l-1.706667-6.792533 5.71392-4.32128c117.917013-90.364587 170.195627-158.399147 152.261973-213.701974l-1.058133-3.044693c-19.121493-51.350187-94.72-82.520747-227.77856-101.505707l-10.704213-1.488213-2.225494-4.143787C633.186987 165.533013 570.197333 88.746667 515.15392 88.746667l-2.771627 0.068266z m2.771627 52.606294c27.204267 0 86.869333 74.888533 164.379307 221.45024a26.282667 26.282667 0 0 0 19.954346 13.796693l15.332694 2.013867c120.395093 16.52736 185.535147 42.755413 194.300586 69.79584 8.465067 26.098347-40.891733 86.54848-153.442986 170.093226a26.364587 26.364587 0 0 0-9.775787 27.8528l3.72736 14.506667c31.122773 123.753813 31.798613 195.959467 11.332267 210.86208-21.99552 16.008533-106.530133-9.202347-241.821014-82.3296a26.23488 26.23488 0 0 0-25.572693 0.34816c-125.678933 72.37632-204.547413 97.34144-225.641813 81.98144-20.957867-15.2576-20.957867-92.8768 10.1376-226.05824a26.364587 26.364587 0 0 0-9.202347-26.589867l-11.69408-9.44128C157.969067 528.827733 114.05312 471.49056 121.521493 448.477867c8.410453-25.961813 74.110293-53.18656 195.672747-71.912107a26.282667 26.282667 0 0 0 18.6368-12.629333c86.766933-147.12832 151.435947-222.5152 179.32288-222.5152z" fill="#7B7BA3" p-id="1228"></path><path d="M512 716.8c86.719147 0 157.013333 0.314027 157.013333-75.093333s-70.294187-136.533333-157.013333-136.533334c-86.71232 0-157.013333 61.125973-157.013333 136.533334s70.301013 75.093333 157.013333 75.093333z" fill="#FFFD75" p-id="1229"></path><path d="M583.195307 518.826667c50.940587 22.7328 85.818027 69.0176 85.818026 122.422613 0 71.809707-63.051093 75.373227-143.414613 75.55072l-36.90496-0.04096c-72.157867-0.49152-128.354987-5.91872-133.707093-65.788587 21.2992 3.229013 46.24384 3.66592 73.127253 3.720534l36.461227-0.034134c76.096853-0.498347 134.560427-6.362453 134.560426-75.50976 0-20.691627-5.236053-40.318293-14.609066-57.91744l-1.3312-2.402986z" fill="#FFEC70" p-id="1230"></path><path d="M515.413333 477.866667c-99.1232 0-180.906667 72.47872-180.906666 164.037973 0 47.2064 22.3232 77.687467 62.83264 91.42272 22.418773 7.59808 43.349333 10.001067 86.746453 10.60864l32.37888 0.170667 24.733013-0.109227c47.2064-0.477867 68.93568-2.751147 92.289707-10.67008 40.50944-13.74208 62.83264-44.21632 62.83264-91.42272 0-91.559253-81.783467-164.0448-180.906667-164.0448z m0 53.248c72.157867 0 129.221973 50.56512 129.221974 110.789973 0 23.770453-7.61856 34.16064-27.306667 40.843947l-4.123307 1.303893c-16.725333 4.93568-37.021013 6.47168-79.6672 6.7584l-19.182933 0.047787-17.066667-0.054614c-46.196053-0.300373-66.157227-2.082133-83.78368-8.055466-19.694933-6.683307-27.306667-17.073493-27.306666-40.843947 0-60.224853 57.05728-110.7968 129.215146-110.7968z" fill="#7B7BA3" p-id="1231"></path><path d="M430.08 416.426667a88.746667 85.333333 90 1 0 170.666667 0 88.746667 85.333333 90 1 0-170.666667 0Z" fill="#FFFD75" p-id="1232"></path><path d="M515.413333 300.373333c-62.211413 0-112.64 51.95776-112.64 116.053334s50.428587 116.053333 112.64 116.053333 112.64-51.95776 112.64-116.053333-50.428587-116.053333-112.64-116.053334z m0 53.562027c33.498453 0 60.654933 27.97568 60.654934 62.491307 0 34.5088-27.15648 62.491307-60.654934 62.491306s-60.654933-27.982507-60.654933-62.491306c0-34.515627 27.15648-62.491307 60.654933-62.491307z" fill="#7B7BA3" p-id="1233"></path></svg>