<?xml version="1.0" standalone="no"?><!DOCTYPE svg PUBLIC "-//W3C//DTD SVG 1.1//EN" "http://www.w3.org/Graphics/SVG/1.1/DTD/svg11.dtd"><svg t="1603866459188" class="icon" viewBox="0 0 1024 1024" version="1.1" xmlns="http://www.w3.org/2000/svg" p-id="942" xmlns:xlink="http://www.w3.org/1999/xlink" width="200" height="200"><defs><style type="text/css"></style></defs><path d="M871.28064 210.909867c-1.024-1.071787-2.061653-2.157227-3.11296-3.21536-45.48608-45.868373-105.92256-71.154347-170.222933-71.154347a240.8448 240.8448 0 0 0-36.440747 2.757973c-15.701333 2.37568-31.1296 6.335147-46.045867 11.823787a239.581867 239.581867 0 0 0-87.722666 56.56576l-15.755947 15.906133-15.74912-15.906133a243.193173 243.193173 0 0 0-45.090133-35.84 235.369813 235.369813 0 0 0-38.693547-19.2512A238.578347 238.578347 0 0 0 326.0416 136.533333c-64.293547 0-124.736853 25.279147-170.1888 71.154347C110.3872 253.590187 85.333333 314.59328 85.333333 379.460267c0 38.912 9.0112 76.445013 26.043734 110.127786a243.11808 243.11808 0 0 0 44.455253 61.678934l315.910827 319.542613c10.615467 10.717867 24.94464 16.657067 40.318293 16.657067 16.233813 0 32.331093-6.84032 44.100267-18.711894l311.999146-317.487786a242.551467 242.551467 0 0 0 14.656854-16.186027 241.547947 241.547947 0 0 0 52.92032-117.57568c1.938773-12.47232 2.92864-25.176747 2.92864-38.045013 0-63.371947-23.893333-123.037013-67.386027-168.5504z" fill="#7B7BA3" p-id="943"></path><path d="M291.457707 614.4l-26.262187-28.474027v-0.75776L238.933333 556.714667 442.661547 392.533333l52.271786 58.067627a34.024107 34.024107 0 0 0-4.662613 3.140267l-195.242667 157.334186a33.450667 33.450667 0 0 0-3.570346 3.324587z" fill="#FFBF71" p-id="944"></path><path d="M848.03584 494.523733a193.06496 193.06496 0 0 1-16.213333 18.479787L526.5408 825.357653c-3.966293 3.9936-9.23648 6.280533-14.452053 6.280534-3.017387 0-7.33184-0.750933-10.87488-4.307627l-40.2432-40.38656L611.1232 657.257813c9.782613-7.284053 12.520107-20.206933 6.116693-28.829013-6.382933-8.635733-19.47648-9.734827-29.259093-2.430293L431.854933 758.033067l-46.67392-46.81728 141.612374-111.506774c10.410667-7.734613 13.666987-21.026133 7.277226-29.67552-6.41024-8.615253-20.015787-9.3184-30.419626-1.583786L369.52064 670.651733c-0.607573 0.45056-8.963413 13.585067-9.530027 14.09024L316.484267 641.092267l210.056533-163.498667a33.867093 33.867093 0 0 0 7.522987-7.714133l22.145706 22.780586c16.233813 16.698027 38.475093 26.269013 61.023574 26.269014 20.322987 0 39.34208-7.645867 53.521066-21.52448a74.123947 74.123947 0 0 0 17.271467-26.0096c11.912533-29.893973 4.389547-64.853333-19.16928-89.053867l-26.17344-26.897067a42.78272 42.78272 0 0 0-2.2528-2.505386L560.162133 270.41792l-11.81696-11.851093 14.97088-15.025494c24.405333-24.49408 54.299307-41.49248 86.882987-49.834666a189.713067 189.713067 0 0 1 47.363413-5.973334c0.53248 0 1.092267 0 1.624747 0.034134 43.042133 0.341333 83.82464 14.97088 116.9408 41.6768a187.890347 187.890347 0 0 1 15.701333 14.097066c35.478187 35.621547 55.227733 82.827947 55.610027 133.106347 0.027307 0.53248 0.027307 1.092267 0.027307 1.624747 0.013653 16.042667-1.993387 32.017067-5.952854 47.55456a188.17024 188.17024 0 0 1-33.477973 68.696746z" fill="#FFBF71" p-id="945"></path><path d="M191.542613 524.110507a196.491947 196.491947 0 0 1-30.57664-41.977174 200.471893 200.471893 0 0 1-17.517226-44.01152A207.394133 207.394133 0 0 1 136.533333 384.771413c0-52.619947 19.524267-102.099627 55.002454-139.332266 35.464533-37.21216 82.643627-57.705813 132.778666-57.705814 17.42848 0 34.474667 2.471253 50.83136 7.277227a179.5072 179.5072 0 0 1 38.62528 16.411307 188.258987 188.258987 0 0 1 27.374934 19.039573c3.700053 3.106133 29.054293 21.497173 76.0832 55.17312l84.084053 88.221013 34.788693 39.40352c12.690773 13.646507 16.930133 32.877227 10.752 49.09056a37.116587 37.116587 0 0 1-8.178346 12.92288c-6.84032 6.970027-16.124587 10.827093-26.146134 10.827094-12.028587 0-24.00256-5.46816-32.856746-15.005014-63.392427-69.632-98.34496-107.219627-104.8576-112.749226-9.762133-8.2944-25.176747-18.0224-54.777174 0.054613-19.729067 12.055893-92.924587 67.672747-219.579733 166.864213a43.23328 43.23328 0 0 0-4.191573 3.802454l-4.724054-4.95616z" fill="#FFFB7F" p-id="946"></path><path d="M887.302827 375.712427c0 16.042667-1.993387 32.017067-5.95968 47.55456a188.17024 188.17024 0 0 1-33.477974 68.703573 193.06496 193.06496 0 0 1-16.206506 18.47296l-305.288534 312.36096c-3.966293 3.9936-9.23648 6.280533-14.452053 6.280533-3.017387 0-7.33184-0.750933-10.87488-4.307626l-27.2384-35.252907 302.830933-297.55392c7.70048-7.768747 55.022933-68.703573 60.921174-161.928533 1.37216-21.742933 7.84384-41.765547 7.830186-63.023787l-0.034133-2.1504a260.307627 260.307627 0 0 0-0.218453-8.86784 189.119147 189.119147 0 0 1 41.984 111.889067l0.18432 7.82336z" fill="#FEAB65" p-id="947"></path></svg>