<?xml version="1.0" standalone="no"?><!DOCTYPE svg PUBLIC "-//W3C//DTD SVG 1.1//EN" "http://www.w3.org/Graphics/SVG/1.1/DTD/svg11.dtd"><svg t="1603866563206" class="icon" viewBox="0 0 1072 1024" version="1.1" xmlns="http://www.w3.org/2000/svg" p-id="770" xmlns:xlink="http://www.w3.org/1999/xlink" width="209.375" height="200"><defs><style type="text/css"></style></defs><path d="M805.717333 0a268.921905 268.921905 0 0 0-248.344381 184.124952A268.921905 268.921905 0 0 0 311.56419 0C163.913143 0 44.397714 164.230095 44.397714 328.850286c0.828952 70.217143 16.286476 139.459048 45.446096 203.288381h156.42819l41.155048-161.792c16.335238-63.878095 45.056-96.109714 86.211047-96.109715 40.764952 0 70.948571 32.621714 85.820953 96.49981l55.344762 221.379048 26.282666-106.447239c15.945143-66.023619 45.056-99.718095 86.162286-99.718095 41.155048 0 70.948571 33.694476 86.211048 99.718095l11.361523 46.470096h100.059429a53.199238 53.199238 0 0 1 0 106.398476h-113.90781a91.184762 91.184762 0 0 1-83.382857-58.855619l-25.843809 106.398476c-15.993905 65.29219-44.714667 98.645333-85.869715 98.645333-40.813714 0-70.948571-33.01181-86.211047-97.913904L373.248 464.700952l-27.306667 106.447238a90.794667 90.794667 0 0 1-85.820952 67.388953H53.223619a53.199238 53.199238 0 1 0 0 106.447238H230.716952c130.535619 144.725333 287.695238 236.982857 327.094858 236.982857 70.948571 0 514.389333-292.668952 514.389333-653.116952C1073.176381 164.230095 953.270857 0 805.717333 0z" fill="#FF0000" p-id="771"></path></svg>