<?xml version="1.0" standalone="no"?><!DOCTYPE svg PUBLIC "-//W3C//DTD SVG 1.1//EN" "http://www.w3.org/Graphics/SVG/1.1/DTD/svg11.dtd"><svg height="1200" node-id="1" sillyvg="true" template-height="1200" template-width="1200" version="1.1" viewBox="0 0 1200 1200" width="1200" xmlns="http://www.w3.org/2000/svg" xmlns:xlink="http://www.w3.org/1999/xlink"><defs node-id="319"><clipPath id="SVGID_2_" node-id="25"><path d="M 671.00 352.30 C 671.00 464.75 579.85 555.90 467.40 555.90 C 354.95 555.90 263.80 464.75 263.80 352.30 C 263.80 239.85 354.95 148.70 467.40 148.70 C 579.85 148.70 671.00 239.85 671.00 352.30 Z" fill="#000000" fill-rule="nonzero" node-id="322" stroke="none" target-height="407.2" target-width="407.2" target-x="263.8" target-y="148.7"></path></clipPath></defs><g node-id="1204"><g node-id="1210"><path d="M 807.80 1050.90 L 704.10 1088.50 C 701.60 1089.40 698.80 1088.10 697.90 1085.60 L 665.80 997.10 C 664.90 994.60 666.20 991.80 668.70 990.90 L 772.40 953.30 C 774.90 952.40 777.70 953.70 778.60 956.20 L 810.70 1044.70 C 811.60 1047.20 810.30 1050.00 807.80 1050.90 Z" fill="#8064a0" fill-rule="nonzero" group-id="1,7" node-id="330" stroke="none" target-height="137" target-width="146.69995" target-x="664.9" target-y="952.4"></path><path d="M 710.60 1092.60 C 706.80 1092.60 703.00 1091.80 699.50 1090.10 C 693.20 1087.10 688.40 1081.90 686.00 1075.40 L 663.20 1012.50 C 658.30 999.00 665.30 984.00 678.80 979.10 L 756.90 950.80 C 763.40 948.40 770.50 948.80 776.90 951.70 C 783.20 954.70 788.00 959.90 790.40 966.40 L 813.20 1029.30 C 818.10 1042.80 811.10 1057.80 797.60 1062.70 L 797.60 1062.70 L 719.50 1091.00 C 716.60 1092.00 713.60 1092.60 710.60 1092.60 Z M 765.90 964.40 C 764.70 964.40 763.40 964.60 762.20 965.10 L 684.10 993.40 C 681.40 994.40 679.20 996.40 678.00 999.00 C 676.80 1001.60 676.60 1004.60 677.60 1007.30 L 700.40 1070.20 C 702.40 1075.80 708.70 1078.80 714.30 1076.70 L 792.40 1048.40 C 795.10 1047.40 797.30 1045.40 798.50 1042.80 C 799.70 1040.20 799.90 1037.20 798.90 1034.50 L 776.10 971.60 C 774.50 967.10 770.30 964.40 765.90 964.40 Z M 795.00 1055.50 L 795.00 1055.50 L 795.00 1055.50 Z" fill="#22286e" fill-rule="nonzero" group-id="1,7" node-id="332" stroke="none" target-height="144.19995" target-width="159.79999" target-x="658.3" target-y="948.4"></path></g><g node-id="1211"><g node-id="1236"><path d="M 466.70 563.10 C 380.30 563.10 303.70 511.30 271.50 431.10 C 228.30 323.50 280.60 200.80 388.20 157.50 C 413.30 147.40 439.70 142.30 466.50 142.30 C 552.90 142.30 629.50 194.10 661.70 274.30 C 682.60 326.40 682.00 383.60 660.00 435.30 C 638.00 487.00 597.10 526.90 545.00 547.90 C 519.90 558.00 493.50 563.10 466.70 563.10 Z" fill="#73c0d7" fill-rule="nonzero" group-id="1,8,33" node-id="339" stroke="none" target-height="420.8" target-width="454.3" target-x="228.3" target-y="142.3"></path></g><path d="M 466.50 150.00 C 546.80 150.00 622.90 198.10 654.60 277.20 C 696.40 381.00 646.00 499.10 542.20 540.80 C 517.40 550.80 491.90 555.50 466.70 555.50 C 386.40 555.50 310.30 507.40 278.60 428.30 C 236.90 324.40 287.20 206.40 391.10 164.70 C 415.80 154.70 441.40 150.00 466.50 150.00 M 466.50 134.80 C 466.50 134.80 466.50 134.80 466.50 134.80 C 438.70 134.80 411.30 140.10 385.30 150.60 C 273.80 195.40 219.50 322.60 264.30 434.10 C 280.80 475.30 309.00 509.90 345.90 534.40 C 381.90 558.30 423.60 570.90 466.60 570.90 C 494.40 570.90 521.70 565.60 547.80 555.10 C 601.80 533.40 644.10 492.00 667.00 438.40 C 689.80 384.90 690.50 325.60 668.80 271.60 C 652.30 230.40 624.10 195.80 587.20 171.30 C 551.30 147.40 509.50 134.80 466.50 134.80 L 466.50 134.80 Z" fill="#22286e" fill-rule="nonzero" group-id="1,8,34" node-id="344" stroke="none" target-height="436.10004" target-width="476.90002" target-x="219.5" target-y="134.8"></path></g><g node-id="1212"><path d="M 316.60 423.70 C 274.90 319.80 325.20 201.80 429.10 160.10 C 439.80 155.80 450.70 152.50 461.60 150.10 C 438.00 150.70 414.20 155.40 391.00 164.70 C 287.10 206.40 236.80 324.50 278.50 428.30 C 315.90 521.50 414.70 571.50 509.60 550.80 C 427.50 552.80 349.00 504.40 316.60 423.70 Z" fill="#ffffff" fill-rule="nonzero" group-id="1,9" node-id="350" stroke="none" target-height="421.4" target-width="272.8" target-x="236.8" target-y="150.1"></path></g><g node-id="1213"><path d="M 552.00 168.60 C 573.20 188.30 590.60 212.90 602.10 241.50 C 643.80 345.40 593.50 463.40 489.60 505.10 C 436.00 526.60 378.70 523.60 330.00 501.50 C 385.70 553.20 468.40 571.30 543.60 541.10 C 647.40 499.40 697.80 381.40 656.00 277.50 C 635.80 227.20 597.70 189.50 552.00 168.60 Z" fill="#1e7cb9" fill-rule="nonzero" group-id="1,10" node-id="355" stroke="none" target-height="402.69998" target-width="367.8" target-x="330" target-y="168.6"></path></g><g node-id="1214"><g node-id="1238"><path d="M 451.00 824.60 C 450.30 824.60 449.60 824.50 448.90 824.30 C 446.50 823.60 444.70 821.80 443.80 819.50 L 367.40 603.60 C 366.40 600.90 367.10 597.80 369.10 595.70 L 445.50 517.90 C 446.90 516.40 448.90 515.60 450.90 515.60 C 451.10 515.60 451.20 515.60 451.40 515.60 C 453.60 515.70 455.60 516.80 457.00 518.60 L 597.50 702.40 C 600.00 705.70 599.40 710.50 596.10 713.00 L 455.70 823.00 C 454.40 824.00 452.70 824.60 451.00 824.60 Z" fill="#73c0d7" fill-rule="nonzero" group-id="1,11,35" node-id="362" stroke="none" target-height="309" target-width="233.6" target-x="366.4" target-y="515.6"></path></g><path d="M 451.10 523.30 L 591.60 707.10 L 451.00 817.00 L 374.60 601.10 L 451.10 523.30 M 451.10 508.00 C 447.00 508.00 443.10 509.60 440.20 512.60 L 363.80 590.40 C 359.70 594.60 358.40 600.70 360.30 606.20 L 436.70 822.00 C 438.30 826.60 442.10 830.20 446.80 831.50 C 448.20 831.90 449.60 832.10 451.10 832.10 C 454.50 832.10 457.80 831.00 460.50 828.90 L 601.00 719.10 C 607.60 714.00 608.80 704.50 603.70 697.80 L 463.20 514.00 C 460.50 510.50 456.40 508.30 452.00 508.00 C 451.70 508.10 451.40 508.00 451.10 508.00 L 451.10 508.00 Z" fill="#22286e" fill-rule="nonzero" group-id="1,11,36" node-id="367" stroke="none" target-height="324.09998" target-width="250.4" target-x="358.4" target-y="508"></path></g><g node-id="1215"><g clip-path="url(#SVGID_2_)" group-id="1,12" node-id="373"><path d="M 1.20 468.30 L 619.30 732.10" fill="#f4be44" fill-rule="nonzero" group-id="1,12,37,55,66,112" node-id="381" stroke="none" target-height="263.8" target-width="618.1" target-x="1.2" target-y="468.3"></path><path d="M -1.80 475.36 L 4.16 461.38 L 622.36 725.18 L 616.39 739.16 Z" fill="#22286e" fill-rule="nonzero" group-id="1,12,37,55,66,112,172" node-id="385" stroke="none" target-height="277.77997" target-width="624.16" target-x="-1.8" target-y="461.38"></path><path d="M 619.30 739.70 C 618.30 739.70 617.30 739.50 616.30 739.10 L -1.80 475.30 C -5.70 473.60 -7.50 469.20 -5.80 465.30 C -4.10 461.40 0.30 459.60 4.20 461.30 L 622.30 725.10 C 626.20 726.80 628.00 731.20 626.30 735.10 C 625.10 738.00 622.30 739.70 619.30 739.70 Z" fill="#22286e" fill-rule="nonzero" group-id="1,12,37,55,66,113" node-id="391" stroke="none" target-height="280.1" target-width="635.5" target-x="-7.5" target-y="459.6"></path><path d="M 23.90 433.00 L 642.00 696.80" fill="#f4be44" fill-rule="nonzero" group-id="1,12,37,55,67,114" node-id="399" stroke="none" target-height="263.8" target-width="618.1" target-x="23.9" target-y="433"></path><path d="M 20.91 440.06 L 26.87 426.07 L 645.07 689.87 L 639.10 703.85 Z" fill="#22286e" fill-rule="nonzero" group-id="1,12,37,55,67,114,173" node-id="403" stroke="none" target-height="277.77997" target-width="624.16003" target-x="20.91" target-y="426.07"></path><path d="M 642.00 704.40 C 641.00 704.40 640.00 704.20 639.00 703.80 L 20.90 440.00 C 17.00 438.30 15.20 433.90 16.90 430.00 C 18.60 426.10 23.00 424.30 26.90 426.00 L 645.00 689.80 C 648.90 691.50 650.70 695.90 649.00 699.80 C 647.80 702.70 645.00 704.40 642.00 704.40 Z" fill="#22286e" fill-rule="nonzero" group-id="1,12,37,55,67,115" node-id="409" stroke="none" target-height="280.10004" target-width="635.5" target-x="15.2" target-y="424.3"></path><path d="M 46.60 397.70 L 664.70 661.50" fill="#f4be44" fill-rule="nonzero" group-id="1,12,37,55,68,116" node-id="417" stroke="none" target-height="263.8" target-width="618.10004" target-x="46.6" target-y="397.7"></path><path d="M 43.62 404.76 L 49.58 390.77 L 667.78 654.57 L 661.81 668.55 Z" fill="#22286e" fill-rule="nonzero" group-id="1,12,37,55,68,116,174" node-id="421" stroke="none" target-height="277.78" target-width="624.16003" target-x="43.62" target-y="390.77"></path><path d="M 664.70 669.10 C 663.70 669.10 662.70 668.90 661.70 668.50 L 43.60 404.70 C 39.70 403.00 37.90 398.60 39.60 394.70 C 41.30 390.80 45.70 389.00 49.60 390.70 L 667.70 654.50 C 671.60 656.20 673.40 660.60 671.70 664.50 C 670.50 667.40 667.70 669.10 664.70 669.10 Z" fill="#22286e" fill-rule="nonzero" group-id="1,12,37,55,68,117" node-id="427" stroke="none" target-height="280.09998" target-width="635.5" target-x="37.9" target-y="389"></path><path d="M 69.30 362.40 L 687.40 626.20" fill="#f4be44" fill-rule="nonzero" group-id="1,12,37,55,69,118" node-id="435" stroke="none" target-height="263.80002" target-width="618.10004" target-x="69.3" target-y="362.4"></path><path d="M 66.37 369.37 L 72.33 355.39 L 690.53 619.19 L 684.56 633.17 Z" fill="#22286e" fill-rule="nonzero" group-id="1,12,37,55,69,118,175" node-id="439" stroke="none" target-height="277.77997" target-width="624.16003" target-x="66.37" target-y="355.39"></path><path d="M 687.40 633.80 C 686.40 633.80 685.40 633.60 684.40 633.20 L 66.30 369.40 C 62.40 367.70 60.60 363.30 62.30 359.40 C 64.00 355.50 68.40 353.70 72.30 355.40 L 690.40 619.20 C 694.30 620.90 696.10 625.30 694.40 629.20 C 693.20 632.10 690.40 633.80 687.40 633.80 Z" fill="#22286e" fill-rule="nonzero" group-id="1,12,37,55,69,119" node-id="445" stroke="none" target-height="280.09998" target-width="635.5" target-x="60.6" target-y="353.7"></path><path d="M 92.00 327.10 L 710.10 590.90" fill="#f4be44" fill-rule="nonzero" group-id="1,12,37,55,70,120" node-id="453" stroke="none" target-height="263.80002" target-width="618.1" target-x="92" target-y="327.1"></path><path d="M 89.08 334.07 L 95.04 320.09 L 713.24 583.89 L 707.27 597.87 Z" fill="#22286e" fill-rule="nonzero" group-id="1,12,37,55,70,120,176" node-id="457" stroke="none" target-height="277.78" target-width="624.16" target-x="89.08" target-y="320.09"></path><path d="M 710.10 598.50 C 709.10 598.50 708.10 598.30 707.10 597.90 L 89.00 334.10 C 85.10 332.40 83.30 328.00 85.00 324.10 C 86.70 320.20 91.10 318.40 95.00 320.10 L 713.10 583.90 C 717.00 585.60 718.80 590.00 717.10 593.90 C 715.90 596.80 713.10 598.50 710.10 598.50 Z" fill="#22286e" fill-rule="nonzero" group-id="1,12,37,55,70,121" node-id="463" stroke="none" target-height="280.1" target-width="635.5" target-x="83.3" target-y="318.4"></path><path d="M 114.70 291.80 L 732.80 555.60" fill="#f4be44" fill-rule="nonzero" group-id="1,12,37,55,71,122" node-id="471" stroke="none" target-height="263.8" target-width="618.1" target-x="114.7" target-y="291.8"></path><path d="M 111.79 298.77 L 117.76 284.79 L 735.95 548.59 L 729.99 562.57 Z" fill="#22286e" fill-rule="nonzero" group-id="1,12,37,55,71,122,177" node-id="475" stroke="none" target-height="277.78" target-width="624.16003" target-x="111.79" target-y="284.79"></path><path d="M 732.80 563.20 C 731.80 563.20 730.80 563.00 729.80 562.60 L 111.70 298.80 C 107.80 297.10 106.00 292.70 107.70 288.80 C 109.40 284.90 113.80 283.10 117.70 284.80 L 735.80 548.60 C 739.70 550.30 741.50 554.70 739.80 558.60 C 738.60 561.50 735.80 563.20 732.80 563.20 Z" fill="#22286e" fill-rule="nonzero" group-id="1,12,37,55,71,123" node-id="481" stroke="none" target-height="280.1" target-width="635.5" target-x="106" target-y="283.1"></path><path d="M 137.40 256.50 L 755.60 520.30" fill="#f4be44" fill-rule="nonzero" group-id="1,12,37,55,72,124" node-id="489" stroke="none" target-height="263.8" target-width="618.19995" target-x="137.4" target-y="256.5"></path><path d="M 134.50 263.48 L 140.47 249.49 L 758.66 513.29 L 752.70 527.27 Z" fill="#22286e" fill-rule="nonzero" group-id="1,12,37,55,72,124,178" node-id="493" stroke="none" target-height="277.78003" target-width="624.16" target-x="134.5" target-y="249.49"></path><path d="M 755.60 527.90 C 754.60 527.90 753.60 527.70 752.60 527.30 L 134.40 263.50 C 130.50 261.80 128.70 257.40 130.40 253.50 C 132.10 249.60 136.50 247.80 140.40 249.50 L 758.50 513.30 C 762.40 515.00 764.20 519.40 762.50 523.30 C 761.30 526.20 758.50 527.90 755.60 527.90 Z" fill="#22286e" fill-rule="nonzero" group-id="1,12,37,55,72,125" node-id="499" stroke="none" target-height="280.10004" target-width="635.5" target-x="128.7" target-y="247.8"></path><path d="M 160.10 221.20 L 778.30 485.00" fill="#f4be44" fill-rule="nonzero" group-id="1,12,37,55,73,126" node-id="507" stroke="none" target-height="263.8" target-width="618.19995" target-x="160.1" target-y="221.2"></path><path d="M 157.12 228.14 L 163.08 214.16 L 781.19 477.92 L 775.22 491.90 Z" fill="#22286e" fill-rule="nonzero" group-id="1,12,37,55,73,126,179" node-id="511" stroke="none" target-height="277.74" target-width="624.07" target-x="157.12" target-y="214.16"></path><path d="M 778.30 492.60 C 777.30 492.60 776.30 492.40 775.30 492.00 L 157.20 228.20 C 153.30 226.50 151.50 222.10 153.20 218.20 C 154.90 214.30 159.30 212.50 163.20 214.20 L 781.30 478.00 C 785.20 479.70 787.00 484.10 785.30 488.00 C 784.00 490.80 781.20 492.60 778.30 492.60 Z" fill="#22286e" fill-rule="nonzero" group-id="1,12,37,55,73,127" node-id="517" stroke="none" target-height="280.1" target-width="635.5" target-x="151.5" target-y="212.5"></path><path d="M 182.90 185.90 L 801.00 449.70" fill="#f4be44" fill-rule="nonzero" group-id="1,12,37,55,74,128" node-id="525" stroke="none" target-height="263.80002" target-width="618.1" target-x="182.9" target-y="185.9"></path><path d="M 179.83 192.84 L 185.79 178.86 L 803.99 442.66 L 798.03 456.64 Z" fill="#22286e" fill-rule="nonzero" group-id="1,12,37,55,74,128,180" node-id="529" stroke="none" target-height="277.78003" target-width="624.16" target-x="179.83" target-y="178.86"></path><path d="M 801.00 457.30 C 800.00 457.30 799.00 457.10 798.00 456.70 L 179.90 192.90 C 176.00 191.20 174.20 186.80 175.90 182.90 C 177.60 179.00 182.00 177.20 185.90 178.90 L 804.00 442.60 C 807.90 444.30 809.70 448.70 808.00 452.60 C 806.70 455.50 803.90 457.30 801.00 457.30 Z" fill="#22286e" fill-rule="nonzero" group-id="1,12,37,55,74,129" node-id="535" stroke="none" target-height="280.09998" target-width="635.5" target-x="174.2" target-y="177.2"></path><path d="M 205.60 150.60 L 823.70 414.30" fill="#f4be44" fill-rule="nonzero" group-id="1,12,37,55,75,130" node-id="543" stroke="none" target-height="263.69998" target-width="618.1" target-x="205.6" target-y="150.6"></path><path d="M 202.54 157.54 L 208.50 143.56 L 826.70 407.36 L 820.74 421.34 Z" fill="#22286e" fill-rule="nonzero" group-id="1,12,37,55,75,130,181" node-id="547" stroke="none" target-height="277.78" target-width="624.16003" target-x="202.54" target-y="143.56"></path><path d="M 823.70 422.00 C 822.70 422.00 821.70 421.80 820.70 421.40 L 202.60 157.60 C 198.70 155.90 196.90 151.50 198.60 147.60 C 200.30 143.70 204.70 141.90 208.60 143.60 L 826.70 407.40 C 830.60 409.10 832.40 413.50 830.70 417.40 C 829.50 420.20 826.60 422.00 823.70 422.00 Z" fill="#22286e" fill-rule="nonzero" group-id="1,12,37,55,75,131" node-id="553" stroke="none" target-height="280.1" target-width="635.5" target-x="196.9" target-y="141.9"></path><path d="M 228.30 115.30 L 846.40 379.00" fill="#f4be44" fill-rule="nonzero" group-id="1,12,37,55,76,132" node-id="561" stroke="none" target-height="263.7" target-width="618.10004" target-x="228.3" target-y="115.3"></path><path d="M 225.25 122.25 L 231.22 108.26 L 849.41 372.06 L 843.45 386.04 Z" fill="#22286e" fill-rule="nonzero" group-id="1,12,37,55,76,132,182" node-id="565" stroke="none" target-height="277.78" target-width="624.16" target-x="225.25" target-y="108.26"></path><path d="M 846.40 386.70 C 845.40 386.70 844.40 386.50 843.40 386.10 L 225.30 122.30 C 221.40 120.60 219.60 116.20 221.30 112.30 C 223.00 108.40 227.40 106.60 231.30 108.30 L 849.40 372.00 C 853.30 373.70 855.10 378.10 853.40 382.00 C 852.20 384.90 849.30 386.70 846.40 386.70 Z" fill="#22286e" fill-rule="nonzero" group-id="1,12,37,55,76,133" node-id="571" stroke="none" target-height="280.1" target-width="635.5" target-x="219.6" target-y="106.6"></path><path d="M 251.00 80.00 L 869.10 343.70" fill="#f4be44" fill-rule="nonzero" group-id="1,12,37,55,77,134" node-id="579" stroke="none" target-height="263.7" target-width="618.1" target-x="251" target-y="80"></path><path d="M 247.96 86.95 L 253.93 72.96 L 872.12 336.76 L 866.16 350.75 Z" fill="#22286e" fill-rule="nonzero" group-id="1,12,37,55,77,134,183" node-id="583" stroke="none" target-height="277.79" target-width="624.16" target-x="247.96" target-y="72.96"></path><path d="M 869.10 351.40 C 868.10 351.40 867.10 351.20 866.10 350.80 L 248.00 87.00 C 244.10 85.30 242.30 80.90 244.00 77.00 C 245.70 73.10 250.10 71.30 254.00 73.00 L 872.10 336.80 C 876.00 338.50 877.80 342.90 876.10 346.80 C 874.90 349.60 872.10 351.40 869.10 351.40 Z" fill="#22286e" fill-rule="nonzero" group-id="1,12,37,55,77,135" node-id="589" stroke="none" target-height="280.09998" target-width="635.5" target-x="242.3" target-y="71.3"></path><path d="M 273.70 44.60 L 891.80 308.40" fill="#f4be44" fill-rule="nonzero" group-id="1,12,37,55,78,136" node-id="597" stroke="none" target-height="263.8" target-width="618.1" target-x="273.7" target-y="44.6"></path><path d="M 270.67 51.65 L 276.64 37.67 L 894.84 301.47 L 888.87 315.45 Z" fill="#22286e" fill-rule="nonzero" group-id="1,12,37,55,78,136,184" node-id="601" stroke="none" target-height="277.78003" target-width="624.17004" target-x="270.67" target-y="37.67"></path><path d="M 891.80 316.00 C 890.80 316.00 889.80 315.80 888.80 315.40 L 270.70 51.70 C 266.80 50.00 265.00 45.60 266.70 41.70 C 268.40 37.80 272.80 36.00 276.70 37.70 L 894.80 301.50 C 898.70 303.20 900.50 307.60 898.80 311.50 C 897.60 314.30 894.80 316.00 891.80 316.00 Z" fill="#22286e" fill-rule="nonzero" group-id="1,12,37,55,78,137" node-id="607" stroke="none" target-height="280" target-width="635.5" target-x="265" target-y="36"></path><path d="M 296.40 9.30 L 914.50 273.10" fill="#f4be44" fill-rule="nonzero" group-id="1,12,37,55,79,138" node-id="615" stroke="none" target-height="263.80002" target-width="618.1" target-x="296.4" target-y="9.3"></path><path d="M 293.38 16.35 L 299.35 2.37 L 917.55 266.17 L 911.58 280.15 Z" fill="#22286e" fill-rule="nonzero" group-id="1,12,37,55,79,138,185" node-id="619" stroke="none" target-height="277.78" target-width="624.17" target-x="293.38" target-y="2.37"></path><path d="M 914.50 280.70 C 913.50 280.70 912.50 280.50 911.50 280.10 L 293.40 16.30 C 289.50 14.60 287.70 10.20 289.40 6.30 C 291.10 2.40 295.50 0.60 299.40 2.30 L 917.50 266.10 C 921.40 267.80 923.20 272.20 921.50 276.10 C 920.30 279.00 917.50 280.70 914.50 280.70 Z" fill="#22286e" fill-rule="nonzero" group-id="1,12,37,55,79,139" node-id="625" stroke="none" target-height="280.1" target-width="635.5" target-x="287.7" target-y="0.6"></path><path d="M 319.10 -26.00 L 937.20 237.80" fill="#f4be44" fill-rule="nonzero" group-id="1,12,37,55,80,140" node-id="633" stroke="none" target-height="263.8" target-width="618.1" target-x="319.1" target-y="-26"></path><path d="M 316.09 -18.95 L 322.06 -32.93 L 940.26 230.87 L 934.29 244.85 Z" fill="#22286e" fill-rule="nonzero" group-id="1,12,37,55,80,140,186" node-id="637" stroke="none" target-height="277.78" target-width="624.17004" target-x="316.09" target-y="-32.93"></path><path d="M 937.20 245.40 C 936.20 245.40 935.20 245.20 934.20 244.80 L 316.10 -19.00 C 312.20 -20.70 310.40 -25.10 312.10 -29.00 C 313.80 -32.90 318.20 -34.70 322.10 -33.00 L 940.20 230.80 C 944.10 232.50 945.90 236.90 944.20 240.80 C 943.00 243.70 940.20 245.40 937.20 245.40 Z" fill="#22286e" fill-rule="nonzero" group-id="1,12,37,55,80,141" node-id="643" stroke="none" target-height="280.1" target-width="635.5" target-x="310.4" target-y="-34.7"></path><path d="M 590.20 844.50 L 867.20 195.50" fill="#f4be44" fill-rule="nonzero" group-id="1,12,37,56,81,142" node-id="654" stroke="none" target-height="649" target-width="277" target-x="590.2" target-y="195.5"></path><path d="M 583.23 841.53 L 860.22 192.50 L 874.20 198.47 L 597.21 847.50 Z" fill="#22286e" fill-rule="nonzero" group-id="1,12,37,56,81,142,187" node-id="658" stroke="none" target-height="655" target-width="290.97003" target-x="583.23" target-y="192.5"></path><path d="M 590.20 852.10 C 589.20 852.10 588.20 851.90 587.20 851.50 C 583.30 849.80 581.50 845.40 583.20 841.50 L 860.20 192.50 C 861.90 188.60 866.30 186.80 870.20 188.50 C 874.10 190.20 875.90 194.60 874.20 198.50 L 597.20 847.50 C 596.00 850.40 593.20 852.10 590.20 852.10 Z" fill="#22286e" fill-rule="nonzero" group-id="1,12,37,56,81,143" node-id="664" stroke="none" target-height="665.3" target-width="294.40002" target-x="581.5" target-y="186.8"></path><path d="M 553.20 820.70 L 830.10 171.60" fill="#f4be44" fill-rule="nonzero" group-id="1,12,37,56,82,144" node-id="672" stroke="none" target-height="649.1" target-width="276.89996" target-x="553.2" target-y="171.6"></path><path d="M 546.10 817.69 L 823.09 168.66 L 837.07 174.62 L 560.08 823.66 Z" fill="#22286e" fill-rule="nonzero" group-id="1,12,37,56,82,144,188" node-id="676" stroke="none" target-height="655" target-width="290.97003" target-x="546.1" target-y="168.66"></path><path d="M 553.20 828.30 C 552.20 828.30 551.20 828.10 550.20 827.70 C 546.30 826.00 544.50 821.60 546.20 817.70 L 823.20 168.70 C 824.90 164.80 829.30 163.00 833.20 164.70 C 837.10 166.40 838.90 170.80 837.20 174.70 L 560.20 823.70 C 558.90 826.50 556.10 828.30 553.20 828.30 Z" fill="#22286e" fill-rule="nonzero" group-id="1,12,37,56,82,145" node-id="682" stroke="none" target-height="665.3" target-width="294.40002" target-x="544.5" target-y="163"></path><path d="M 516.10 796.80 L 793.10 147.80" fill="#f4be44" fill-rule="nonzero" group-id="1,12,37,56,83,146" node-id="690" stroke="none" target-height="649" target-width="277" target-x="516.1" target-y="147.8"></path><path d="M 509.06 793.88 L 786.05 144.85 L 800.03 150.82 L 523.04 799.85 Z" fill="#22286e" fill-rule="nonzero" group-id="1,12,37,56,83,146,189" node-id="694" stroke="none" target-height="655" target-width="290.97003" target-x="509.06" target-y="144.85"></path><path d="M 516.10 804.40 C 515.10 804.40 514.10 804.20 513.10 803.80 C 509.20 802.10 507.40 797.70 509.10 793.80 L 786.10 144.80 C 787.70 140.90 792.20 139.10 796.10 140.80 C 800.00 142.50 801.80 146.90 800.10 150.80 L 523.10 799.80 C 521.90 802.70 519.00 804.40 516.10 804.40 Z" fill="#22286e" fill-rule="nonzero" group-id="1,12,37,56,83,147" node-id="700" stroke="none" target-height="665.30005" target-width="294.4" target-x="507.4" target-y="139.1"></path><path d="M 479.00 773.00 L 756.00 123.90" fill="#f4be44" fill-rule="nonzero" group-id="1,12,37,56,84,148" node-id="708" stroke="none" target-height="649.1" target-width="277" target-x="479" target-y="123.9"></path><path d="M 471.97 769.95 L 748.95 120.92 L 762.93 126.88 L 485.94 775.91 Z" fill="#22286e" fill-rule="nonzero" group-id="1,12,37,56,84,148,190" node-id="712" stroke="none" target-height="654.99" target-width="290.96" target-x="471.97" target-y="120.92"></path><path d="M 479.00 780.60 C 478.00 780.60 477.00 780.40 476.00 780.00 C 472.10 778.30 470.30 773.90 472.00 770.00 L 749.00 121.00 C 750.70 117.10 755.10 115.30 759.00 117.00 C 762.90 118.70 764.70 123.10 763.00 127.00 L 486.00 776.00 C 484.80 778.90 482.00 780.60 479.00 780.60 Z" fill="#22286e" fill-rule="nonzero" group-id="1,12,37,56,84,149" node-id="718" stroke="none" target-height="665.3" target-width="294.40002" target-x="470.3" target-y="115.3"></path><path d="M 441.90 749.10 L 718.90 100.10" fill="#f4be44" fill-rule="nonzero" group-id="1,12,37,56,85,150" node-id="726" stroke="none" target-height="649" target-width="277.00003" target-x="441.9" target-y="100.1"></path><path d="M 434.92 746.14 L 711.91 97.11 L 725.89 103.08 L 448.90 752.11 Z" fill="#22286e" fill-rule="nonzero" group-id="1,12,37,56,85,150,191" node-id="730" stroke="none" target-height="655" target-width="290.97" target-x="434.92" target-y="97.11"></path><path d="M 441.90 756.80 C 440.90 756.80 439.90 756.60 438.90 756.20 C 435.00 754.50 433.20 750.10 434.90 746.20 L 711.90 97.20 C 713.60 93.30 718.00 91.50 721.90 93.20 C 725.80 94.90 727.60 99.30 725.90 103.20 L 448.90 752.20 C 447.70 755.00 444.90 756.80 441.90 756.80 Z" fill="#22286e" fill-rule="nonzero" group-id="1,12,37,56,85,151" node-id="736" stroke="none" target-height="665.3" target-width="294.39996" target-x="433.2" target-y="91.5"></path><path d="M 404.90 725.30 L 681.80 76.20" fill="#f4be44" fill-rule="nonzero" group-id="1,12,37,56,86,152" node-id="744" stroke="none" target-height="649.1" target-width="276.9" target-x="404.9" target-y="76.2"></path><path d="M 397.79 722.30 L 674.78 73.27 L 688.76 79.23 L 411.77 728.26 Z" fill="#22286e" fill-rule="nonzero" group-id="1,12,37,56,86,152,192" node-id="748" stroke="none" target-height="654.99" target-width="290.97" target-x="397.79" target-y="73.27"></path><path d="M 404.90 732.90 C 403.90 732.90 402.90 732.70 401.90 732.30 C 398.00 730.60 396.20 726.20 397.90 722.30 L 674.90 73.30 C 676.50 69.40 681.00 67.60 684.90 69.30 C 688.80 71.00 690.60 75.40 688.90 79.30 L 411.90 728.30 C 410.60 731.20 407.80 732.90 404.90 732.90 Z" fill="#22286e" fill-rule="nonzero" group-id="1,12,37,56,86,153" node-id="754" stroke="none" target-height="665.30005" target-width="294.39996" target-x="396.2" target-y="67.6"></path><path d="M 367.80 701.40 L 644.80 52.40" fill="#f4be44" fill-rule="nonzero" group-id="1,12,37,56,87,154" node-id="762" stroke="none" target-height="649" target-width="277" target-x="367.8" target-y="52.4"></path><path d="M 360.75 698.49 L 637.73 49.46 L 651.71 55.43 L 374.73 704.46 Z" fill="#22286e" fill-rule="nonzero" group-id="1,12,37,56,87,154,193" node-id="766" stroke="none" target-height="655" target-width="290.96002" target-x="360.75" target-y="49.46"></path><path d="M 367.80 709.10 C 366.80 709.10 365.80 708.90 364.80 708.50 C 360.90 706.80 359.10 702.40 360.80 698.50 L 637.80 49.50 C 639.50 45.60 643.90 43.80 647.80 45.50 C 651.70 47.20 653.50 51.60 651.80 55.50 L 374.80 704.50 C 373.60 707.30 370.70 709.10 367.80 709.10 Z" fill="#22286e" fill-rule="nonzero" group-id="1,12,37,56,87,155" node-id="772" stroke="none" target-height="665.3" target-width="294.4" target-x="359.1" target-y="43.8"></path><path d="M 330.70 677.60 L 607.70 28.50" fill="#f4be44" fill-rule="nonzero" group-id="1,12,37,56,88,156" node-id="780" stroke="none" target-height="649.1" target-width="277" target-x="330.7" target-y="28.5"></path><path d="M 323.74 674.60 L 600.73 25.56 L 614.71 31.53 L 337.72 680.56 Z" fill="#22286e" fill-rule="nonzero" group-id="1,12,37,56,88,156,194" node-id="784" stroke="none" target-height="655" target-width="290.97003" target-x="323.74" target-y="25.56"></path><path d="M 330.70 685.20 C 329.70 685.20 328.70 685.00 327.70 684.60 C 323.80 682.90 322.00 678.50 323.70 674.60 L 600.70 25.60 C 602.40 21.70 606.80 19.90 610.70 21.60 C 614.60 23.30 616.40 27.70 614.70 31.60 L 337.70 680.60 C 336.50 683.50 333.70 685.20 330.70 685.20 Z" fill="#22286e" fill-rule="nonzero" group-id="1,12,37,56,88,157" node-id="790" stroke="none" target-height="665.3" target-width="294.40002" target-x="322" target-y="19.9"></path><path d="M 293.60 653.80 L 570.60 4.70" fill="#f4be44" fill-rule="nonzero" group-id="1,12,37,56,89,158" node-id="798" stroke="none" target-height="649.1" target-width="276.99997" target-x="293.6" target-y="4.7"></path><path d="M 286.61 650.75 L 563.60 1.72 L 577.58 7.68 L 300.59 656.72 Z" fill="#22286e" fill-rule="nonzero" group-id="1,12,37,56,89,158,195" node-id="802" stroke="none" target-height="655" target-width="290.97003" target-x="286.61" target-y="1.72"></path><path d="M 293.60 661.40 C 292.60 661.40 291.60 661.20 290.60 660.80 C 286.70 659.10 284.90 654.70 286.60 650.80 L 563.60 1.80 C 565.30 -2.10 569.70 -3.90 573.60 -2.20 C 577.50 -0.50 579.30 3.90 577.60 7.80 L 300.60 656.80 C 299.40 659.60 296.60 661.40 293.60 661.40 Z" fill="#22286e" fill-rule="nonzero" group-id="1,12,37,56,89,159" node-id="808" stroke="none" target-height="665.30005" target-width="294.4" target-x="284.9" target-y="-3.9"></path><path d="M 256.60 629.90 L 533.50 -19.10" fill="#f4be44" fill-rule="nonzero" group-id="1,12,37,56,90,160" node-id="816" stroke="none" target-height="649" target-width="276.9" target-x="256.6" target-y="-19.1"></path><path d="M 249.56 626.93 L 526.54 -22.11 L 540.52 -16.14 L 263.54 632.89 Z" fill="#22286e" fill-rule="nonzero" group-id="1,12,37,56,90,160,196" node-id="820" stroke="none" target-height="655" target-width="290.96002" target-x="249.56" target-y="-22.11"></path><path d="M 256.60 637.50 C 255.60 637.50 254.60 637.30 253.60 636.90 C 249.70 635.20 247.90 630.80 249.60 626.90 L 526.60 -22.10 C 528.30 -26.00 532.70 -27.80 536.60 -26.10 C 540.50 -24.40 542.30 -20.00 540.60 -16.10 L 263.60 632.90 C 262.30 635.80 259.50 637.50 256.60 637.50 Z" fill="#22286e" fill-rule="nonzero" group-id="1,12,37,56,90,161" node-id="826" stroke="none" target-height="665.3" target-width="294.4" target-x="247.9" target-y="-27.8"></path><path d="M 219.50 606.10 L 496.50 -43.00" fill="#f4be44" fill-rule="nonzero" group-id="1,12,37,56,91,162" node-id="834" stroke="none" target-height="649.1" target-width="277" target-x="219.5" target-y="-43"></path><path d="M 212.41 603.09 L 489.47 -45.94 L 503.45 -39.97 L 226.39 609.06 Z" fill="#22286e" fill-rule="nonzero" group-id="1,12,37,56,91,162,197" node-id="838" stroke="none" target-height="655" target-width="291.04" target-x="212.41" target-y="-45.94"></path><path d="M 219.50 613.70 C 218.50 613.70 217.50 613.50 216.50 613.10 C 212.60 611.40 210.80 607.00 212.50 603.10 L 489.50 -45.90 C 491.20 -49.80 495.60 -51.60 499.50 -49.90 C 503.40 -48.20 505.20 -43.80 503.50 -39.90 L 226.50 609.10 C 225.30 611.90 222.40 613.70 219.50 613.70 Z" fill="#22286e" fill-rule="nonzero" group-id="1,12,37,56,91,163" node-id="844" stroke="none" target-height="665.3" target-width="294.40002" target-x="210.8" target-y="-51.6"></path><path d="M 182.40 582.20 L 459.40 -66.80" fill="#f4be44" fill-rule="nonzero" group-id="1,12,37,56,92,164" node-id="852" stroke="none" target-height="649" target-width="277" target-x="182.4" target-y="-66.8"></path><path d="M 175.41 579.19 L 452.47 -69.84 L 466.45 -63.87 L 189.39 585.16 Z" fill="#22286e" fill-rule="nonzero" group-id="1,12,37,56,92,164,198" node-id="856" stroke="none" target-height="655" target-width="291.04" target-x="175.41" target-y="-69.84"></path><path d="M 182.40 589.80 C 181.40 589.80 180.40 589.60 179.40 589.20 C 175.50 587.50 173.70 583.10 175.40 579.20 L 452.40 -69.80 C 454.10 -73.70 458.50 -75.50 462.40 -73.80 C 466.30 -72.10 468.10 -67.70 466.40 -63.80 L 189.40 585.20 C 188.20 588.10 185.40 589.80 182.40 589.80 Z" fill="#22286e" fill-rule="nonzero" group-id="1,12,37,56,92,165" node-id="862" stroke="none" target-height="665.3" target-width="294.40002" target-x="173.7" target-y="-75.5"></path><path d="M 145.30 558.40 L 422.30 -90.70" fill="#f4be44" fill-rule="nonzero" group-id="1,12,37,56,93,166" node-id="870" stroke="none" target-height="649.10004" target-width="277" target-x="145.3" target-y="-90.7"></path><path d="M 138.27 555.35 L 415.33 -93.68 L 429.31 -87.71 L 152.25 561.32 Z" fill="#22286e" fill-rule="nonzero" group-id="1,12,37,56,93,166,199" node-id="874" stroke="none" target-height="655" target-width="291.03998" target-x="138.27" target-y="-93.68"></path><path d="M 145.30 566.00 C 144.30 566.00 143.30 565.80 142.30 565.40 C 138.40 563.70 136.60 559.30 138.30 555.40 L 415.30 -93.60 C 416.90 -97.50 421.40 -99.30 425.30 -97.60 C 429.20 -95.90 431.00 -91.50 429.30 -87.60 L 152.30 561.40 C 151.10 564.30 148.30 566.00 145.30 566.00 Z" fill="#22286e" fill-rule="nonzero" group-id="1,12,37,56,93,167" node-id="880" stroke="none" target-height="665.3" target-width="294.4" target-x="136.6" target-y="-99.3"></path><path d="M 108.30 534.50 L 385.20 -114.50" fill="#f4be44" fill-rule="nonzero" group-id="1,12,37,56,94,168" node-id="888" stroke="none" target-height="649" target-width="276.90002" target-x="108.3" target-y="-114.5"></path><path d="M 101.23 531.55 L 378.29 -117.48 L 392.27 -111.52 L 115.21 537.51 Z" fill="#22286e" fill-rule="nonzero" group-id="1,12,37,56,94,168,200" node-id="892" stroke="none" target-height="654.99" target-width="291.03998" target-x="101.23" target-y="-117.48"></path><path d="M 108.30 542.10 C 107.30 542.10 106.30 541.90 105.30 541.50 C 101.40 539.80 99.60 535.40 101.30 531.50 L 378.30 -117.50 C 380.00 -121.40 384.40 -123.20 388.30 -121.50 C 392.20 -119.80 394.00 -115.40 392.30 -111.50 L 115.30 537.50 C 114.00 540.40 111.20 542.10 108.30 542.10 Z" fill="#22286e" fill-rule="nonzero" group-id="1,12,37,56,94,169" node-id="898" stroke="none" target-height="665.3" target-width="294.4" target-x="99.6" target-y="-123.2"></path><path d="M 71.20 510.70 L 348.20 -138.40" fill="#f4be44" fill-rule="nonzero" group-id="1,12,37,56,95,170" node-id="906" stroke="none" target-height="649.1" target-width="277" target-x="71.2" target-y="-138.4"></path><path d="M 64.10 507.71 L 341.15 -141.33 L 355.13 -135.36 L 78.08 513.67 Z" fill="#22286e" fill-rule="nonzero" group-id="1,12,37,56,95,170,201" node-id="910" stroke="none" target-height="655" target-width="291.03" target-x="64.1" target-y="-141.33"></path><path d="M 71.20 518.30 C 70.20 518.30 69.20 518.10 68.20 517.70 C 64.30 516.00 62.50 511.60 64.20 507.70 L 341.20 -141.30 C 342.90 -145.20 347.30 -147.00 351.20 -145.30 C 355.10 -143.60 356.90 -139.20 355.20 -135.30 L 78.20 513.70 C 77.00 516.60 74.20 518.30 71.20 518.30 Z" fill="#22286e" fill-rule="nonzero" group-id="1,12,37,56,95,171" node-id="916" stroke="none" target-height="665.3" target-width="294.4" target-x="62.5" target-y="-147"></path></g></g><g node-id="1216"><g node-id="1241"><path d="M 282.00 467.30 C 268.50 467.30 256.50 459.20 251.40 446.60 C 248.10 438.40 248.20 429.50 251.70 421.40 C 255.20 413.30 261.60 407.00 269.70 403.80 L 646.10 252.60 C 650.00 251.00 654.20 250.20 658.40 250.20 C 671.90 250.20 683.90 258.30 689.00 270.90 C 692.30 279.10 692.20 288.00 688.70 296.10 C 685.20 304.20 678.80 310.50 670.70 313.70 L 294.30 464.90 C 290.40 466.50 286.20 467.30 282.00 467.30 Z" fill="#ffffff" fill-rule="nonzero" group-id="1,13,38" node-id="927" stroke="none" target-height="217.09999" target-width="444.19998" target-x="248.1" target-y="250.2"></path></g><path d="M 658.40 257.80 C 668.40 257.80 678.00 263.80 681.90 273.70 C 687.10 286.70 680.80 301.40 667.80 306.70 L 291.50 457.90 C 288.40 459.10 285.20 459.70 282.10 459.70 C 272.10 459.70 262.50 453.70 258.60 443.80 C 253.40 430.80 259.70 416.10 272.70 410.80 L 649.10 259.60 C 652.00 258.40 655.20 257.80 658.40 257.80 M 658.40 242.50 C 658.40 242.50 658.40 242.50 658.40 242.50 C 653.20 242.50 648.10 243.50 643.30 245.40 L 266.90 396.70 C 246.10 405.00 236.00 428.70 244.40 449.50 C 250.60 465.00 265.40 475.00 282.10 475.00 C 287.30 475.00 292.40 474.00 297.20 472.10 L 673.60 320.90 C 683.70 316.90 691.50 309.10 695.80 299.20 C 700.10 289.20 700.20 278.20 696.10 268.10 C 689.80 252.50 675.10 242.50 658.40 242.50 L 658.40 242.50 Z" fill="#22286e" fill-rule="nonzero" group-id="1,13,39" node-id="932" stroke="none" target-height="232.5" target-width="464.2" target-x="236" target-y="242.5"></path></g><g node-id="1217"><g node-id="1243"><path d="M 675.30 1056.30 C 662.70 1056.30 650.50 1048.10 644.10 1035.50 L 413.00 581.20 C 405.40 566.20 403.40 556.50 406.40 549.00 C 409.80 540.60 418.20 537.70 426.30 534.80 C 428.50 534.00 430.80 533.20 433.10 532.30 L 617.40 459.10 C 619.90 458.10 622.30 457.00 624.50 455.90 C 630.10 453.30 635.40 450.80 641.00 450.80 C 654.80 450.80 661.00 465.40 665.40 479.80 L 812.90 967.70 C 818.30 985.40 811.00 1003.90 796.30 1009.80 L 685.20 1054.40 C 682.10 1055.60 678.80 1056.30 675.30 1056.30 Z" fill="#9aa2cc" fill-rule="nonzero" group-id="1,14,40" node-id="940" stroke="none" target-height="605.50006" target-width="414.9" target-x="403.4" target-y="450.8"></path></g><path d="M 641.10 458.40 C 647.50 458.40 652.70 463.80 658.20 481.90 L 805.70 969.80 C 809.90 983.70 804.40 998.30 793.50 1002.60 L 682.40 1047.20 C 680.10 1048.10 677.80 1048.50 675.30 1048.50 C 666.00 1048.50 656.10 1042.20 650.90 1031.90 L 419.80 577.80 C 403.50 545.80 418.00 546.70 436.00 539.50 L 620.20 466.30 C 628.80 462.80 635.40 458.40 641.10 458.40 M 641.10 443.20 C 641.10 443.20 641.10 443.20 641.10 443.20 C 633.80 443.20 627.50 446.20 621.30 449.10 C 619.10 450.10 616.80 451.20 614.50 452.10 L 430.30 525.30 C 428.10 526.20 425.90 527.00 423.80 527.70 C 415.00 530.80 404.00 534.60 399.30 546.20 C 394.30 558.50 400.00 572.60 406.10 584.70 L 637.20 1039.00 C 644.90 1054.20 659.80 1063.90 675.20 1063.90 C 679.60 1063.90 683.90 1063.10 688.00 1061.50 L 799.10 1016.90 C 817.40 1009.50 826.70 987.00 820.20 965.50 L 672.70 477.60 C 669.60 467.30 662.40 443.20 641.10 443.20 L 641.10 443.20 Z" fill="#22286e" fill-rule="nonzero" group-id="1,14,41" node-id="945" stroke="none" target-height="620.7" target-width="432.40002" target-x="394.3" target-y="443.2"></path></g><g node-id="1218"><g node-id="1245"><path d="M 627.10 463.20 L 638.10 458.80 C 634.80 459.50 631.20 461.20 627.10 463.20 Z" fill="#ffffff" fill-rule="nonzero" group-id="1,15,42" node-id="953" stroke="none" target-height="4.4000244" target-width="11" target-x="627.1" target-y="458.8"></path></g><path d="M 713.50 1034.60 C 702.60 1039.00 688.60 1032.30 682.00 1019.30 L 450.90 565.10 C 441.30 546.20 442.40 538.80 448.60 534.40 L 435.90 539.40 C 417.90 546.60 403.40 545.70 419.70 577.70 L 650.90 1032.00 C 657.50 1045.00 671.50 1051.70 682.40 1047.30 L 793.50 1002.70 C 794.20 1002.40 794.90 1002.10 795.60 1001.70 L 713.50 1034.60 Z" fill="#ffffff" fill-rule="nonzero" group-id="1,15,43" node-id="958" stroke="none" target-height="517.2999" target-width="392.19998" target-x="403.4" target-y="534.4"></path></g><g node-id="1219"><path d="M 620.20 466.20 L 610.70 470.00 C 618.00 468.90 623.70 473.40 629.80 493.40 L 777.30 981.30 C 781.50 995.20 776.00 1009.80 765.10 1014.10 L 793.50 1002.70 C 804.40 998.30 809.90 983.80 805.70 969.90 L 658.20 482.00 C 647.80 447.60 638.30 459.00 620.20 466.20 Z" fill="#8064a0" fill-rule="nonzero" group-id="1,16" node-id="964" stroke="none" target-height="566.5" target-width="199.20001" target-x="610.7" target-y="447.6"></path></g><g node-id="1220"><path d="M 661.20 257.90 C 662.80 259.80 664.10 262.10 665.10 264.50 L 665.10 264.50 C 670.30 277.50 664.00 292.20 651.00 297.50 L 274.60 448.70 C 270.60 450.30 266.40 450.80 262.40 450.40 C 269.20 458.80 280.90 462.10 291.50 457.90 L 667.90 306.70 C 680.90 301.50 687.20 286.70 682.00 273.70 L 682.00 273.70 C 678.30 264.70 670.20 258.90 661.20 257.90 Z" fill="#73c0d7" fill-rule="nonzero" group-id="1,17" node-id="969" stroke="none" target-height="204.20001" target-width="424.80002" target-x="262.4" target-y="257.9"></path></g><g node-id="1221"><g node-id="1247"><path d="M 549.60 277.70 C 541.20 277.70 534.20 272.00 532.40 263.90 L 530.80 256.30 C 530.60 255.60 530.10 255.00 529.40 254.70 L 522.20 251.70 C 516.00 249.10 511.80 243.40 511.40 236.70 C 510.90 230.00 514.30 223.70 520.10 220.40 L 526.90 216.50 C 527.50 216.10 528.00 215.50 528.00 214.70 L 528.60 206.90 C 529.30 197.70 536.80 190.70 546.10 190.70 C 550.40 190.70 554.50 192.30 557.70 195.20 L 563.50 200.40 C 563.90 200.80 564.50 201.00 565.00 201.00 C 565.20 201.00 565.40 201.00 565.50 200.90 L 573.10 199.10 C 574.50 198.80 575.90 198.60 577.30 198.60 C 583.20 198.60 588.70 201.60 591.90 206.60 C 595.10 211.60 595.60 217.80 593.20 223.20 L 590.00 230.40 C 589.70 231.10 589.80 231.90 590.10 232.50 L 594.20 239.20 C 597.60 244.70 597.70 251.30 594.60 256.90 C 591.50 262.40 585.70 265.90 579.40 265.90 C 578.80 265.90 578.20 265.90 577.60 265.80 C 577.60 265.80 569.80 265.00 569.80 265.00 C 568.90 265.00 568.30 265.30 567.90 265.80 L 562.80 271.80 C 559.60 275.50 554.70 277.70 549.60 277.70 Z" fill="#f4d12c" fill-rule="nonzero" group-id="1,18,44" node-id="976" stroke="none" target-height="87.000015" target-width="86.80002" target-x="510.9" target-y="190.7"></path></g><path d="M 546.10 198.20 C 548.40 198.20 550.70 199.00 552.70 200.70 L 558.50 205.90 C 560.30 207.50 562.70 208.40 565.10 208.40 C 565.90 208.40 566.70 208.30 567.40 208.10 L 575.00 206.30 C 575.80 206.10 576.60 206.00 577.40 206.00 C 584.30 206.00 589.40 213.20 586.40 219.90 L 583.20 227.10 C 581.90 230.10 582.10 233.50 583.80 236.30 L 587.90 243.00 C 592.00 249.70 587.10 258.10 579.50 258.10 C 579.20 258.10 578.80 258.10 578.40 258.00 L 570.60 257.20 C 570.30 257.20 569.90 257.10 569.60 257.10 C 566.70 257.10 563.90 258.40 562.10 260.60 L 557.00 266.60 C 555.00 269.00 552.20 270.10 549.50 270.10 C 545.10 270.10 540.80 267.20 539.80 262.30 L 538.20 254.70 C 537.50 251.50 535.30 248.90 532.30 247.60 L 525.10 244.60 C 517.50 241.50 516.80 231.00 523.90 226.90 L 530.70 223.00 C 533.50 221.40 535.40 218.40 535.60 215.20 L 536.20 207.40 C 536.60 201.80 541.20 198.20 546.10 198.20 M 546.10 182.90 C 546.10 182.90 546.10 182.90 546.10 182.90 C 532.80 182.90 522.00 192.90 521.00 206.10 L 520.60 211.10 L 516.30 213.60 C 508.00 218.40 503.20 227.40 503.80 237.00 C 504.50 246.60 510.40 254.90 519.30 258.50 L 523.90 260.40 L 525.00 265.30 C 527.50 277.00 537.60 285.20 549.60 285.20 C 556.90 285.20 563.90 282.00 568.70 276.30 L 572.00 272.50 L 577.00 273.00 C 577.90 273.10 578.70 273.10 579.60 273.10 C 588.70 273.10 597.10 268.20 601.50 260.20 C 605.90 252.30 605.70 242.50 601.00 234.80 L 598.40 230.50 L 600.40 225.90 C 603.80 218.10 603.10 209.20 598.50 202.00 C 593.80 194.80 586.00 190.50 577.50 190.50 C 575.50 190.50 573.50 190.70 571.50 191.20 L 566.60 192.40 L 562.90 189.10 C 558.20 185.20 552.20 182.90 546.10 182.90 L 546.10 182.90 Z" fill="#22286e" fill-rule="nonzero" group-id="1,18,45,57" node-id="983" stroke="none" target-height="102.30002" target-width="102.70001" target-x="503.2" target-y="182.9"></path></g><g node-id="1222"><g node-id="1249"><path d="M 636.70 852.90 C 628.20 852.90 620.50 847.50 617.60 839.50 L 590.90 765.70 C 589.10 760.60 589.30 755.10 591.60 750.20 C 593.90 745.30 598.00 741.50 603.10 739.70 L 635.30 728.00 C 637.50 727.20 639.80 726.80 642.20 726.80 C 650.70 726.80 658.40 732.20 661.30 740.20 L 688.00 814.00 C 689.80 819.10 689.60 824.60 687.30 829.50 C 685.00 834.40 680.90 838.20 675.80 840.00 L 643.60 851.70 C 641.40 852.50 639.00 852.90 636.70 852.90 Z" fill="#f4d12c" fill-rule="nonzero" group-id="1,19,46" node-id="992" stroke="none" target-height="126.10004" target-width="100.70001" target-x="589.1" target-y="726.8"></path></g><path d="M 642.10 734.40 C 647.30 734.40 652.20 737.60 654.10 742.80 L 680.80 816.60 C 683.20 823.20 679.80 830.50 673.20 832.90 L 641.00 844.50 C 639.60 845.00 638.10 845.30 636.70 845.30 C 631.50 845.30 626.60 842.10 624.70 836.90 L 598.00 763.10 C 595.60 756.50 599.00 749.20 605.60 746.80 L 637.80 735.10 C 639.20 734.70 640.60 734.40 642.10 734.40 M 642.10 719.20 C 642.10 719.20 642.10 719.20 642.10 719.20 C 638.90 719.20 635.70 719.80 632.60 720.90 L 600.40 732.60 C 585.90 737.80 578.40 753.90 583.70 768.40 L 610.40 842.20 C 614.40 853.20 625.00 860.60 636.70 860.60 C 639.90 860.60 643.10 860.00 646.20 858.90 L 678.40 847.20 C 685.40 844.70 691.00 839.50 694.20 832.80 C 697.40 826.00 697.70 818.40 695.20 811.40 L 668.50 737.60 C 664.40 726.60 653.80 719.20 642.10 719.20 L 642.10 719.20 Z" fill="#22286e" fill-rule="nonzero" group-id="1,19,47" node-id="997" stroke="none" target-height="141.39996" target-width="119.29999" target-x="578.4" target-y="719.2"></path></g><g node-id="1223"><g node-id="1251"><path d="M 452.90 830.40 C 449.70 830.40 446.80 828.40 445.70 825.30 L 369.30 609.40 C 367.90 605.50 369.90 601.20 373.70 599.70 L 727.70 463.60 C 728.60 463.30 729.50 463.10 730.40 463.10 C 731.50 463.10 732.70 463.40 733.70 463.90 C 735.60 464.80 737.00 466.50 737.70 468.50 L 817.60 727.00 C 818.20 729.00 818.00 731.10 817.00 733.00 C 816.00 734.80 814.30 736.10 812.30 736.70 L 454.80 830.20 C 454.10 830.40 453.50 830.40 452.90 830.40 Z" fill="#ffffff" fill-rule="nonzero" group-id="1,20,48" node-id="1005" stroke="none" target-height="367.30002" target-width="450.30002" target-x="367.9" target-y="463.1"></path></g><path d="M 730.50 470.90 L 810.40 729.40 L 452.90 822.90 L 376.50 607.00 L 730.50 470.90 M 730.50 455.60 C 728.70 455.60 726.80 455.90 725.00 456.60 L 371.00 592.70 C 363.30 595.70 359.30 604.20 362.10 612.00 L 438.50 827.90 C 440.70 834.10 446.50 838.10 452.90 838.10 C 454.20 838.10 455.50 837.90 456.80 837.60 L 814.30 744.10 C 818.30 743.00 821.70 740.40 823.80 736.80 C 825.80 733.20 826.30 728.90 825.00 724.90 L 745.00 466.40 C 743.80 462.40 740.90 459.00 737.10 457.20 C 735.00 456.10 732.70 455.60 730.50 455.60 L 730.50 455.60 Z" fill="#22286e" fill-rule="nonzero" group-id="1,20,49" node-id="1010" stroke="none" target-height="382.49997" target-width="467" target-x="359.3" target-y="455.6"></path></g><g node-id="1224"><path d="M 682.20 762.80 L 810.40 729.30 L 730.50 470.90 L 685.90 488.00 Z" fill="#73c0d7" fill-rule="nonzero" group-id="1,21" node-id="1016" stroke="none" target-height="291.9" target-width="128.20001" target-x="682.2" target-y="470.9"></path></g><g node-id="1225"><g node-id="1253"><g node-id="1261"><g node-id="1299"><path d="M 462.30 758.70 C 458.30 758.70 454.60 756.10 453.30 752.10 L 421.70 655.50 C 420.90 653.10 421.10 650.50 422.30 648.20 C 423.40 645.90 425.40 644.20 427.80 643.50 L 447.10 637.20 C 448.10 636.90 449.10 636.70 450.10 636.70 C 454.10 636.70 457.80 639.30 459.10 643.30 L 464.20 658.90 L 473.40 632.50 C 474.40 629.70 476.60 627.50 479.40 626.60 L 500.70 619.60 C 501.70 619.30 502.70 619.10 503.70 619.10 C 506.20 619.10 508.70 620.10 510.50 622.00 C 513.00 624.60 513.90 628.40 512.60 631.90 L 497.70 673.40 L 546.70 716.40 C 549.30 718.70 550.40 722.10 549.70 725.50 C 549.00 728.90 546.60 731.60 543.30 732.60 L 522.00 739.60 C 521.00 739.90 520.00 740.10 519.00 740.10 C 516.70 740.10 514.40 739.30 512.60 737.70 L 484.00 712.00 L 482.60 716.00 L 490.50 740.00 C 491.30 742.40 491.10 745.00 489.90 747.30 C 488.80 749.60 486.80 751.30 484.40 752.00 L 465.10 758.30 C 464.30 758.50 463.30 758.70 462.30 758.70 Z" fill="#22286e" fill-rule="nonzero" group-id="1,22,50,58,96" node-id="1027" stroke="none" target-height="139.60004" target-width="129.50003" target-x="420.9" target-y="619.1"></path></g><path d="M 503.70 628.70 L 503.70 628.70 M 503.70 628.70 L 486.60 676.30 L 540.50 723.50 L 519.20 730.50 L 480.10 695.30 L 472.70 715.60 L 481.60 742.70 L 462.30 749.00 L 430.70 652.40 L 450.00 646.10 L 463.70 688.00 L 464.10 687.90 L 482.40 635.60 L 503.70 628.70 M 503.70 609.70 C 503.30 609.70 502.90 609.70 502.50 609.70 C 500.70 609.80 499.00 610.20 497.40 610.70 L 476.60 617.50 C 471.00 619.30 466.50 623.70 464.50 629.30 L 463.40 632.50 C 459.90 629.10 455.10 627.10 450.10 627.10 C 448.10 627.10 446.10 627.40 444.20 628.00 L 424.90 634.30 C 420.10 635.90 416.10 639.30 413.80 643.80 C 411.50 648.30 411.10 653.50 412.70 658.30 L 444.30 754.90 C 446.90 762.90 454.40 768.00 462.40 768.00 C 464.40 768.00 466.40 767.70 468.30 767.10 L 487.60 760.80 C 496.90 757.80 502.20 748.30 500.40 739.00 L 506.60 744.50 C 510.10 747.70 514.70 749.40 519.30 749.40 C 521.30 749.40 523.30 749.10 525.20 748.50 L 546.50 741.50 C 553.00 739.40 557.90 733.90 559.20 727.20 C 560.60 720.50 558.20 713.60 553.10 709.10 L 509.00 670.40 L 521.50 635.60 C 522.40 633.40 522.90 631.00 522.90 628.50 C 522.90 618.10 514.60 609.70 504.30 609.50 C 503.90 609.70 503.80 609.70 503.70 609.70 L 503.70 609.70 Z M 503.70 647.80 L 503.70 647.80 L 503.70 647.80 L 503.70 647.80 Z" fill="#22286e" fill-rule="nonzero" group-id="1,22,50,58,97" node-id="1032" stroke="none" target-height="158.5" target-width="149.49997" target-x="411.1" target-y="609.5"></path></g><g node-id="1262"><g node-id="1301"><path d="M 551.80 729.40 C 547.80 729.40 544.10 726.80 542.80 722.80 L 511.20 626.20 C 509.60 621.20 512.30 615.80 517.30 614.20 L 536.60 607.90 C 537.60 607.60 538.60 607.40 539.60 607.40 C 541.10 607.40 542.60 607.70 543.90 608.40 C 546.20 609.50 547.90 611.50 548.60 613.90 L 580.20 710.50 C 581.00 712.90 580.80 715.50 579.60 717.80 C 578.50 720.10 576.50 721.80 574.10 722.50 L 554.80 728.80 C 553.80 729.20 552.80 729.40 551.80 729.40 Z" fill="#22286e" fill-rule="nonzero" group-id="1,22,50,59,98" node-id="1040" stroke="none" target-height="122" target-width="71.399994" target-x="509.6" target-y="607.4"></path></g><path d="M 539.50 617.00 L 571.10 713.60 L 551.80 719.90 L 520.20 623.30 L 539.50 617.00 M 539.50 597.90 C 537.50 597.90 535.50 598.20 533.60 598.80 L 514.30 605.10 C 509.50 606.70 505.50 610.10 503.20 614.60 C 500.90 619.10 500.50 624.30 502.10 629.10 L 533.70 725.70 C 535.30 730.50 538.70 734.50 543.20 736.80 C 545.90 738.20 548.80 738.90 551.80 738.90 C 553.80 738.90 555.80 738.60 557.70 738.00 L 577.00 731.70 C 587.00 728.40 592.50 717.70 589.20 707.70 L 557.60 611.10 C 555.00 603.00 547.60 597.90 539.50 597.90 L 539.50 597.90 Z" fill="#22286e" fill-rule="nonzero" group-id="1,22,50,59,99" node-id="1045" stroke="none" target-height="141" target-width="92" target-x="500.5" target-y="597.9"></path></g><g node-id="1263"><g node-id="1303"><path d="M 594.90 715.30 C 590.90 715.30 587.20 712.70 585.90 708.70 L 554.30 612.10 C 553.50 609.70 553.70 607.10 554.90 604.80 C 556.00 602.50 558.00 600.80 560.40 600.10 L 580.10 593.70 C 581.10 593.40 582.10 593.20 583.10 593.20 C 585.50 593.20 587.80 594.10 589.60 595.80 L 619.80 624.20 L 609.90 593.90 C 609.10 591.50 609.30 588.90 610.50 586.60 C 611.60 584.30 613.60 582.60 616.00 581.90 L 634.30 575.90 C 635.30 575.60 636.30 575.40 637.30 575.40 C 641.30 575.40 645.00 578.00 646.30 582.00 L 677.90 678.60 C 678.70 681.00 678.50 683.60 677.30 685.90 C 676.20 688.20 674.20 689.90 671.80 690.60 L 652.20 697.00 C 651.20 697.30 650.20 697.50 649.20 697.50 C 646.80 697.50 644.40 696.60 642.60 694.90 L 612.10 665.90 L 622.20 696.80 C 623.00 699.20 622.80 701.80 621.60 704.10 C 620.50 706.40 618.50 708.10 616.10 708.80 L 597.80 714.80 C 596.80 715.20 595.80 715.30 594.90 715.30 Z" fill="#22286e" fill-rule="nonzero" group-id="1,22,50,60,100" node-id="1053" stroke="none" target-height="139.89996" target-width="125.20001" target-x="553.5" target-y="575.4"></path></g><path d="M 637.20 585.10 L 668.80 681.70 L 649.20 688.10 L 604.40 645.60 L 587.80 628.10 L 587.10 628.30 C 591.40 638.40 596.80 650.10 600.50 661.20 L 613.20 700.00 L 594.90 706.00 L 563.30 609.40 L 583.00 603.00 L 627.90 645.20 L 644.40 662.90 L 645.10 662.70 C 640.80 653.00 635.20 640.70 631.60 629.70 L 618.90 591.00 L 637.20 585.10 M 637.20 566.00 C 635.20 566.00 633.20 566.30 631.30 566.90 L 613.00 572.90 C 604.50 575.70 599.30 583.90 599.90 592.50 L 596.10 588.90 C 592.50 585.50 587.80 583.70 583.00 583.70 C 581.00 583.70 579.00 584.00 577.10 584.60 L 557.40 591.00 C 547.40 594.30 541.90 605.00 545.20 615.00 L 576.80 711.60 C 578.40 716.40 581.80 720.40 586.30 722.70 C 589.00 724.10 591.90 724.80 594.90 724.80 C 596.90 724.80 598.90 724.50 600.80 723.90 L 619.10 717.90 C 627.70 715.10 632.90 706.70 632.20 698.10 L 636.10 701.80 C 639.70 705.20 644.40 707.00 649.20 707.00 C 651.20 707.00 653.20 706.70 655.10 706.10 L 674.70 699.70 C 684.70 696.40 690.10 685.70 686.90 675.70 L 655.30 579.10 C 653.70 574.30 650.30 570.30 645.80 568.00 C 643.10 566.70 640.10 566.00 637.20 566.00 L 637.20 566.00 Z" fill="#22286e" fill-rule="nonzero" group-id="1,22,50,60,101" node-id="1058" stroke="none" target-height="158.79999" target-width="148.19995" target-x="541.9" target-y="566"></path></g><g node-id="1264"><g node-id="1305"><path d="M 717.70 674.40 C 692.50 674.40 672.10 658.00 663.10 630.40 C 657.30 612.80 658.00 596.00 664.90 581.70 C 671.50 568.10 683.60 557.80 698.90 552.80 C 704.60 550.90 710.30 550.00 716.00 550.00 C 724.40 550.00 732.50 552.00 740.20 556.00 C 744.60 558.30 746.50 563.50 744.60 568.00 L 738.30 583.60 C 737.30 586.10 735.30 588.00 732.90 588.90 C 731.80 589.30 730.60 589.50 729.50 589.50 C 728.10 589.50 726.60 589.20 725.30 588.50 C 721.90 586.80 719.30 586.10 716.50 586.10 C 714.70 586.10 712.90 586.40 710.80 587.10 C 699.40 590.80 695.50 602.10 700.50 617.30 C 704.80 630.30 711.40 636.90 720.20 636.90 C 722.60 636.90 725.30 636.40 728.10 635.50 C 729.30 635.10 730.30 634.70 731.10 634.20 L 729.70 629.90 L 721.70 632.50 C 720.70 632.80 719.70 633.00 718.70 633.00 C 717.20 633.00 715.70 632.70 714.40 632.00 C 712.10 630.90 710.40 628.90 709.70 626.50 L 704.50 610.70 C 702.90 605.70 705.60 600.30 710.60 598.70 L 744.90 587.50 C 745.90 587.20 746.90 587.00 747.90 587.00 C 751.90 587.00 755.60 589.60 756.90 593.60 L 771.20 637.20 C 772.00 639.60 771.80 642.30 770.60 644.60 C 764.40 656.50 752.10 666.40 737.60 671.10 C 731.00 673.30 724.30 674.40 717.70 674.40 Z" fill="#22286e" fill-rule="nonzero" group-id="1,22,50,61,102" node-id="1066" stroke="none" target-height="124.400024" target-width="114.70001" target-x="657.3" target-y="550"></path></g><path d="M 716.00 559.50 C 723.80 559.50 730.50 561.70 735.80 564.40 L 729.50 580.00 C 725.50 578.10 721.40 576.60 716.60 576.60 C 713.90 576.60 711.10 577.00 708.00 578.10 C 691.90 583.30 684.80 599.50 691.60 620.30 C 697.10 637.10 707.00 646.50 720.30 646.50 C 723.70 646.50 727.30 645.90 731.20 644.60 C 735.90 643.10 740.20 640.20 742.10 637.00 L 735.90 617.90 L 718.80 623.50 L 713.60 607.70 L 747.90 596.50 L 762.20 640.10 C 757.80 648.60 748.10 657.60 734.70 662.00 C 729.00 663.90 723.20 664.80 717.70 664.80 C 697.90 664.80 680.40 652.60 672.10 627.40 C 661.70 595.60 676.20 570.20 701.90 561.80 C 707.00 560.20 711.70 559.50 716.00 559.50 M 716.00 540.50 C 709.30 540.50 702.60 541.60 696.00 543.80 C 658.70 556.00 641.00 593.70 654.00 633.50 C 664.30 665.10 688.20 684.00 717.70 684.00 C 725.30 684.00 733.00 682.70 740.60 680.20 C 757.40 674.70 771.80 663.00 779.10 649.00 C 781.50 644.50 781.90 639.20 780.30 634.30 L 766.00 590.70 C 764.40 585.90 761.00 581.90 756.50 579.60 C 754.70 578.70 752.90 578.10 750.90 577.80 L 753.40 571.60 C 757.10 562.50 753.20 552.10 744.50 547.60 C 735.60 542.90 726.00 540.50 716.00 540.50 L 716.00 540.50 Z" fill="#22286e" fill-rule="nonzero" group-id="1,22,50,61,103" node-id="1071" stroke="none" target-height="143.5" target-width="140.90002" target-x="641" target-y="540.5"></path></g></g><g node-id="1254"><g node-id="1265"><g node-id="1307"><path d="M 450.70 750.60 C 449.50 750.60 448.30 750.30 447.30 749.80 C 445.50 748.90 444.10 747.30 443.50 745.40 L 411.90 648.80 C 410.60 644.80 412.80 640.50 416.80 639.20 L 436.10 632.90 C 436.90 632.70 437.70 632.50 438.50 632.50 C 439.70 632.50 440.90 632.80 441.90 633.30 C 443.70 634.20 445.10 635.80 445.70 637.70 L 452.60 658.70 L 463.70 627.00 C 464.50 624.80 466.30 623.00 468.50 622.30 L 489.80 615.30 C 490.60 615.00 491.40 614.90 492.20 614.90 C 494.20 614.90 496.20 615.70 497.70 617.20 C 499.70 619.30 500.40 622.30 499.40 625.10 L 484.10 667.80 L 534.10 711.60 C 536.20 713.40 537.10 716.20 536.50 718.90 C 536.00 721.60 534.00 723.80 531.40 724.60 L 510.10 731.60 C 509.30 731.90 508.50 732.00 507.70 732.00 C 505.80 732.00 504.00 731.30 502.60 730.00 L 471.90 702.40 L 469.30 709.60 L 477.40 734.30 C 478.70 738.30 476.50 742.60 472.50 743.90 L 453.20 750.20 C 452.30 750.50 451.50 750.60 450.70 750.60 Z" fill="#e16b4c" fill-rule="nonzero" group-id="1,22,51,62,104" node-id="1082" stroke="none" target-height="135.69995" target-width="126.49997" target-x="410.6" target-y="614.9"></path></g><path d="M 492.10 622.60 L 492.10 622.60 M 492.10 622.60 L 475.00 670.20 L 528.90 717.40 L 507.60 724.40 L 468.50 689.20 L 461.10 709.50 L 470.00 736.60 L 450.70 742.90 L 419.10 646.30 L 438.40 640.00 L 452.10 681.90 L 452.50 681.80 L 470.80 629.50 L 492.10 622.60 M 492.10 607.30 C 491.80 607.30 491.50 607.30 491.10 607.30 C 489.70 607.40 488.30 607.70 487.00 608.10 L 466.10 614.90 C 461.60 616.40 458.00 619.90 456.50 624.40 L 452.90 634.80 C 451.60 631.20 448.90 628.10 445.50 626.40 C 443.30 625.30 441.00 624.80 438.60 624.80 C 437.00 624.80 435.40 625.00 433.90 625.60 L 414.60 631.90 C 410.80 633.20 407.60 635.90 405.70 639.50 C 403.90 643.10 403.60 647.30 404.80 651.10 L 436.40 747.70 C 438.50 754.10 444.50 758.20 450.90 758.20 C 452.50 758.20 454.10 758.00 455.60 757.40 L 474.90 751.10 C 482.90 748.50 487.30 739.90 484.60 731.90 L 481.00 720.80 L 497.50 735.70 C 500.30 738.30 504.00 739.60 507.70 739.60 C 509.30 739.60 510.90 739.40 512.40 738.80 L 533.70 731.80 C 538.90 730.10 542.80 725.70 543.90 720.40 C 545.00 715.00 543.10 709.50 539.00 705.90 L 492.90 665.50 L 506.30 628.20 C 507.00 626.40 507.40 624.50 507.40 622.50 C 507.40 614.20 500.70 607.40 492.40 607.30 C 492.30 607.30 492.20 607.30 492.10 607.30 L 492.10 607.30 Z M 492.10 637.80 L 492.10 637.80 L 492.10 637.80 L 492.10 637.80 Z" fill="#22286e" fill-rule="nonzero" group-id="1,22,51,62,105" node-id="1087" stroke="none" target-height="150.90002" target-width="141.4" target-x="403.6" target-y="607.3"></path></g><g node-id="1266"><g node-id="1309"><path d="M 540.20 721.30 C 539.00 721.30 537.80 721.00 536.80 720.50 C 535.00 719.60 533.60 718.00 533.00 716.10 L 501.40 619.50 C 500.80 617.60 500.90 615.50 501.80 613.70 C 502.70 611.90 504.30 610.50 506.20 609.90 L 525.50 603.60 C 526.30 603.30 527.10 603.20 527.90 603.20 C 531.10 603.20 534.10 605.20 535.10 608.50 L 566.70 705.10 C 568.00 709.10 565.80 713.40 561.80 714.70 L 542.50 721.00 C 541.80 721.20 541.00 721.30 540.20 721.30 Z" fill="#e16b4c" fill-rule="nonzero" group-id="1,22,51,63,106" node-id="1095" stroke="none" target-height="118.099976" target-width="67.20001" target-x="500.8" target-y="603.2"></path></g><path d="M 528.00 610.80 L 559.60 707.40 L 540.30 713.70 L 508.70 617.10 L 528.00 610.80 M 528.00 595.60 C 526.40 595.60 524.80 595.80 523.30 596.40 L 504.00 602.70 C 500.20 604.00 497.00 606.70 495.10 610.30 C 493.30 613.90 493.00 618.10 494.20 621.90 L 525.80 718.50 C 527.90 724.90 533.90 729.00 540.30 729.00 C 541.90 729.00 543.50 728.80 545.00 728.20 L 564.30 721.90 C 572.30 719.30 576.70 710.70 574.00 702.70 L 542.40 606.10 C 540.30 599.70 534.40 595.60 528.00 595.60 L 528.00 595.60 Z" fill="#22286e" fill-rule="nonzero" group-id="1,22,51,63,107" node-id="1100" stroke="none" target-height="133.40002" target-width="83.70001" target-x="493" target-y="595.6"></path></g><g node-id="1267"><g node-id="1311"><path d="M 583.30 707.30 C 582.10 707.30 580.90 707.00 579.90 706.50 C 578.10 705.60 576.70 704.00 576.10 702.10 L 544.50 605.50 C 543.20 601.50 545.40 597.20 549.40 595.90 L 569.10 589.50 C 569.90 589.20 570.70 589.10 571.50 589.10 C 573.40 589.10 575.30 589.80 576.70 591.20 L 612.30 624.80 L 600.10 587.40 C 599.50 585.50 599.60 583.40 600.50 581.60 C 601.40 579.80 603.00 578.40 604.90 577.80 L 623.20 571.80 C 624.00 571.50 624.80 571.40 625.60 571.40 C 628.80 571.40 631.80 573.40 632.80 576.70 L 664.40 673.30 C 665.70 677.30 663.50 681.60 659.50 682.90 L 639.90 689.30 C 639.10 689.60 638.30 689.70 637.50 689.70 C 635.60 689.70 633.70 689.00 632.30 687.60 L 596.30 653.50 L 608.70 691.50 C 610.00 695.50 607.80 699.80 603.80 701.10 L 585.50 707.10 C 584.90 707.10 584.10 707.30 583.30 707.30 Z" fill="#e16b4c" fill-rule="nonzero" group-id="1,22,51,64,108" node-id="1108" stroke="none" target-height="135.89996" target-width="122.5" target-x="543.2" target-y="571.4"></path></g><path d="M 625.60 578.90 L 657.20 675.50 L 637.60 681.90 L 592.80 639.40 L 576.20 621.90 L 575.50 622.10 C 579.80 632.20 585.20 643.90 588.90 655.00 L 601.60 693.80 L 583.30 699.80 L 551.70 603.20 L 571.40 596.80 L 616.30 639.00 L 632.80 656.70 L 633.50 656.50 C 629.20 646.80 623.60 634.50 620.00 623.50 L 607.40 585.00 L 625.60 578.90 M 625.60 563.70 C 624.00 563.70 622.40 563.90 620.90 564.50 L 602.60 570.50 C 594.60 573.10 590.20 581.70 592.90 589.70 L 595.80 598.70 L 581.90 585.60 C 579.00 582.90 575.30 581.50 571.50 581.50 C 569.90 581.50 568.30 581.70 566.80 582.30 L 547.10 588.70 C 543.30 590.00 540.10 592.70 538.20 596.30 C 536.40 599.90 536.10 604.10 537.30 607.90 L 568.90 704.50 C 571.00 710.90 577.00 715.00 583.40 715.00 C 585.00 715.00 586.60 714.80 588.10 714.20 L 606.40 708.20 C 610.20 706.90 613.40 704.20 615.30 700.60 C 617.10 697.00 617.40 692.80 616.20 689.00 L 613.10 679.60 L 627.20 693.00 C 630.10 695.70 633.80 697.20 637.70 697.20 C 639.30 697.20 640.90 697.00 642.40 696.40 L 662.00 690.00 C 670.00 687.40 674.40 678.80 671.70 670.80 L 640.10 574.20 C 638.80 570.40 636.10 567.20 632.50 565.30 C 630.30 564.20 628.00 563.70 625.60 563.70 L 625.60 563.70 Z" fill="#22286e" fill-rule="nonzero" group-id="1,22,51,64,109" node-id="1113" stroke="none" target-height="151.29999" target-width="138.30005" target-x="536.1" target-y="563.7"></path></g><g node-id="1268"><g node-id="1313"><path d="M 706.10 666.40 C 681.80 666.40 662.00 650.50 653.30 623.80 C 642.20 589.80 656.40 558.90 688.00 548.50 C 693.50 546.70 699.00 545.80 704.50 545.80 C 712.60 545.80 720.40 547.80 727.80 551.60 C 731.30 553.40 732.80 557.60 731.40 561.20 L 725.10 576.80 C 724.30 578.80 722.70 580.30 720.80 581.10 C 719.90 581.40 719.00 581.60 718.10 581.60 C 717.00 581.60 715.80 581.30 714.70 580.80 C 711.10 579.00 708.10 578.20 705.10 578.20 C 703.10 578.20 701.10 578.60 698.80 579.30 C 686.40 583.30 682.00 595.80 687.30 611.90 C 691.80 625.80 699.10 632.80 708.80 632.80 C 711.40 632.80 714.30 632.30 717.30 631.30 C 719.20 630.70 720.80 629.90 722.00 629.00 L 719.50 621.50 L 709.60 624.70 C 708.80 625.00 708.00 625.10 707.20 625.10 C 704.00 625.10 701.00 623.10 700.00 619.80 L 694.80 604.00 C 694.20 602.10 694.30 600.00 695.20 598.20 C 696.10 596.40 697.70 595.00 699.60 594.40 L 733.90 583.20 C 734.70 583.00 735.50 582.80 736.30 582.80 C 737.50 582.80 738.70 583.10 739.70 583.60 C 741.50 584.50 742.90 586.10 743.50 588.00 L 757.80 631.60 C 758.40 633.50 758.30 635.70 757.30 637.50 C 751.40 648.90 739.40 658.50 725.40 663.10 C 719.00 665.30 712.50 666.40 706.10 666.40 Z" fill="#e16b4c" fill-rule="nonzero" group-id="1,22,51,65,110" node-id="1121" stroke="none" target-height="120.60004" target-width="116.20001" target-x="642.2" target-y="545.8"></path></g><path d="M 704.50 553.40 C 712.30 553.40 719.00 555.60 724.30 558.30 L 718.00 574.00 C 714.00 572.10 709.90 570.60 705.10 570.60 C 702.40 570.60 699.60 571.00 696.50 572.10 C 680.40 577.30 673.30 593.50 680.10 614.30 C 685.60 631.10 695.50 640.50 708.80 640.50 C 712.20 640.50 715.80 639.90 719.70 638.60 C 724.40 637.10 728.70 634.20 730.60 631.00 L 724.40 611.90 L 707.30 617.50 L 702.10 601.70 L 736.40 590.50 L 750.70 634.10 C 746.30 642.60 736.60 651.60 723.20 656.00 C 717.50 657.90 711.70 658.80 706.20 658.80 C 686.40 658.80 668.90 646.60 660.60 621.40 C 650.20 589.60 664.70 564.20 690.40 555.80 C 695.40 554.10 700.10 553.40 704.50 553.40 M 704.50 538.20 C 698.20 538.20 691.90 539.20 685.70 541.30 C 650.50 552.80 633.80 588.50 646.10 626.20 C 655.90 656.20 678.40 674.10 706.20 674.10 C 713.40 674.10 720.70 672.90 727.90 670.50 C 743.80 665.30 757.40 654.30 764.20 641.20 C 766.10 637.60 766.40 633.30 765.20 629.40 L 750.90 585.80 C 749.60 582.00 746.90 578.80 743.30 576.90 C 741.10 575.80 738.80 575.30 736.40 575.30 C 735.50 575.30 734.70 575.40 733.80 575.50 L 738.40 564.10 C 741.30 556.80 738.30 548.50 731.30 544.90 C 722.80 540.40 713.80 538.20 704.50 538.20 L 704.50 538.20 Z" fill="#22286e" fill-rule="nonzero" group-id="1,22,51,65,111" node-id="1126" stroke="none" target-height="135.89996" target-width="132.60004" target-x="633.8" target-y="538.2"></path></g></g></g></g><g node-id="1205"><g node-id="1226"><path d="M 226.90 1122.00 C 212.80 1106.90 208.20 1086.10 215.00 1067.70 C 220.00 1054.40 230.20 1043.90 243.80 1038.30 C 257.20 1032.80 272.30 1032.60 286.40 1037.80 C 293.90 1040.60 300.80 1044.90 306.50 1050.20 L 364.00 895.30 C 366.80 887.80 375.10 884.00 382.50 886.80 L 386.60 888.30 C 388.70 889.10 390.60 890.30 392.10 892.00 C 395.90 896.00 397.00 901.70 395.10 906.90 L 394.50 908.40 C 395.30 909.30 396.10 910.20 396.90 911.10 C 397.60 911.90 398.40 912.60 399.20 913.40 C 401.40 915.50 403.50 917.60 405.50 919.70 C 414.10 928.80 420.70 938.70 425.70 949.80 C 452.70 1010.00 407.40 1062.60 381.30 1078.60 C 377.40 1081.00 372.40 1080.30 369.20 1077.00 L 369.20 1077.00 C 365.90 1073.50 365.70 1068.20 368.60 1064.50 C 384.70 1044.00 405.50 1004.50 375.10 960.80 L 320.10 1109.00 C 319.90 1109.40 319.70 1109.90 319.50 1110.30 C 308.00 1135.70 277.50 1147.40 249.50 1137.00 C 240.90 1133.70 233.00 1128.60 226.90 1122.00 Z" fill="#ffffff" fill-rule="nonzero" group-id="2,23" node-id="1137" stroke="none" target-height="263.40002" target-width="244.50002" target-x="208.2" target-y="884"></path></g><path d="M 386.60 897.20 C 388.30 899.00 389.00 901.70 388.00 904.20 L 385.90 909.70 C 387.60 911.90 389.40 914.10 391.40 916.20 C 392.20 917.10 393.10 918.00 394.00 918.80 C 396.00 920.70 398.00 922.60 400.00 924.70 C 407.10 932.30 413.70 941.40 418.80 952.70 C 444.10 1009.10 400.50 1057.70 377.30 1071.90 C 376.40 1072.50 375.40 1072.20 374.80 1071.60 C 374.20 1070.90 374.00 1069.90 374.70 1069.00 C 390.00 1049.50 419.90 999.00 372.80 945.20 L 366.00 963.60 L 313.00 1106.30 L 312.90 1106.30 C 303.40 1128.40 276.70 1138.90 252.10 1129.80 C 244.30 1126.90 237.60 1122.30 232.30 1116.80 C 220.60 1104.30 216.00 1086.60 222.00 1070.40 C 230.70 1047.00 258.30 1035.60 283.50 1045.00 C 291.30 1047.90 298.00 1052.50 303.20 1058.00 C 305.30 1060.20 307.20 1062.70 308.80 1065.20 L 348.90 957.30 L 354.80 941.50 L 371.00 897.90 C 372.30 894.40 376.20 892.60 379.80 893.90 L 383.90 895.40 C 385.10 895.90 385.90 896.50 386.60 897.20 M 397.70 886.80 C 397.70 886.80 397.70 886.80 397.70 886.80 C 395.40 884.30 392.50 882.40 389.30 881.20 L 385.20 879.70 C 373.80 875.50 361.10 881.30 356.90 892.70 L 340.70 936.30 L 334.80 952.10 L 302.90 1037.90 C 298.60 1035.00 293.90 1032.60 288.90 1030.80 C 273.10 1024.90 256.00 1025.10 240.80 1031.40 C 225.20 1037.80 213.50 1049.80 207.80 1065.20 C 200.00 1086.30 205.10 1110.10 221.20 1127.30 C 228.20 1134.70 237.00 1140.60 246.80 1144.20 C 278.40 1156.00 313.00 1142.60 326.30 1113.80 C 326.70 1113.10 327.00 1112.40 327.30 1111.70 L 376.70 978.60 C 392.20 1013.00 375.80 1043.10 362.70 1059.70 C 357.40 1066.40 357.80 1075.90 363.70 1082.20 C 369.40 1088.20 378.20 1089.40 385.30 1085.10 C 413.40 1067.90 461.90 1011.50 432.70 946.70 C 427.30 934.80 420.30 924.30 411.20 914.50 C 409.10 912.30 406.80 910.00 404.50 907.80 C 404.10 907.40 403.70 907.00 403.20 906.60 C 404.80 899.50 402.80 892.20 397.70 886.80 L 397.70 886.80 Z" fill="#22286e" fill-rule="nonzero" group-id="2,24" node-id="1142" stroke="none" target-height="280.5" target-width="261.9" target-x="200" target-y="875.5"></path></g><g node-id="1206"><g node-id="1228"><path d="M 963.40 998.30 C 943.70 998.30 926.70 985.80 922.00 967.90 C 919.10 957.10 921.00 945.80 927.20 936.00 C 933.30 926.40 942.90 919.40 954.30 916.40 C 958.30 915.40 962.30 914.80 966.40 914.80 C 968.80 914.80 971.10 915.00 973.40 915.30 L 939.80 788.40 C 938.20 782.50 941.80 776.40 947.70 774.80 L 951.10 773.90 C 952.00 773.70 953.00 773.50 953.90 773.50 C 957.70 773.50 961.20 775.50 963.20 778.60 C 984.10 778.80 1045.80 783.90 1053.50 835.90 C 1053.90 838.50 1052.50 841.00 1050.00 842.00 C 1049.30 842.30 1048.60 842.40 1047.80 842.40 C 1046.00 842.40 1044.30 841.60 1043.20 840.10 C 1028.90 820.50 1006.30 816.40 989.90 816.40 C 983.90 816.40 978.40 816.90 974.00 817.60 L 978.70 835.20 C 996.70 835.20 1054.30 839.20 1061.40 887.30 C 1061.80 889.90 1060.40 892.40 1057.90 893.40 C 1057.20 893.70 1056.50 893.80 1055.70 893.80 C 1053.90 893.80 1052.20 893.00 1051.10 891.50 C 1038.40 874.10 1018.30 870.40 1003.60 870.40 C 997.60 870.40 992.30 871.00 988.30 871.60 L 1008.20 946.70 C 1008.30 947.00 1008.30 947.40 1008.40 947.70 C 1012.50 969.20 998.20 990.60 975.50 996.60 C 971.60 997.70 967.50 998.30 963.40 998.30 Z" fill="#1e7cb9" fill-rule="nonzero" group-id="3,25" node-id="1150" stroke="none" target-height="224.79999" target-width="142.70007" target-x="919.1" target-y="773.5"></path></g><path d="M 953.80 779.30 C 956.20 779.30 958.40 780.90 959.00 783.30 L 959.30 784.40 C 960.10 784.40 960.90 784.40 961.80 784.40 C 982.20 784.40 1040.60 788.60 1047.80 836.80 C 1032.30 815.60 1008.50 810.80 989.90 810.80 C 980.00 810.80 971.70 812.20 966.90 813.20 L 967.90 816.80 L 971.90 831.80 L 974.40 841.10 C 975.40 841.10 976.80 841.00 978.50 841.00 C 996.80 841.00 1049.40 844.80 1055.90 888.20 C 1042.00 869.10 1020.50 864.80 1003.80 864.80 C 993.60 864.80 985.20 866.40 981.40 867.30 L 1002.80 948.30 L 1002.80 948.30 C 1006.80 966.90 994.30 985.90 974.20 991.20 C 970.60 992.10 967.10 992.60 963.60 992.60 C 946.90 992.60 931.90 982.30 927.70 966.40 C 922.60 947.30 935.30 927.30 955.90 921.90 C 959.50 921.00 963.00 920.50 966.50 920.50 C 971.80 920.50 976.90 921.50 981.50 923.40 L 958.20 835.30 L 954.80 822.40 L 945.40 786.80 C 944.60 783.90 946.40 781.00 949.20 780.20 L 952.60 779.30 C 952.90 779.30 953.40 779.30 953.80 779.30 M 953.80 767.80 C 953.80 767.80 953.80 767.80 953.80 767.80 C 952.30 767.80 950.90 768.00 949.50 768.40 L 946.10 769.30 C 941.80 770.40 938.10 773.20 935.90 777.10 C 933.60 781.00 933.00 785.50 934.20 789.90 L 943.60 825.50 L 947.00 838.40 L 965.70 909.20 C 961.40 909.20 957.00 909.80 952.80 911.00 C 926.10 918.10 909.80 944.30 916.50 969.50 C 921.90 989.90 941.20 1004.20 963.50 1004.20 C 968.00 1004.20 972.60 1003.60 977.00 1002.40 C 1002.50 995.60 1018.60 971.50 1014.10 947.20 C 1014.00 946.60 1013.90 946.10 1013.80 945.50 L 995.60 876.70 C 998.10 876.50 1000.80 876.30 1003.70 876.30 C 1023.10 876.30 1037.50 882.60 1046.60 895.00 C 1048.80 898.00 1052.30 899.70 1055.80 899.70 C 1057.30 899.70 1058.70 899.40 1060.10 898.80 C 1065.00 896.80 1067.80 891.70 1067.10 886.50 C 1064.40 868.30 1055.30 855.90 1043.70 847.40 C 1045.00 847.90 1046.40 848.20 1047.80 848.20 C 1049.30 848.20 1050.70 847.90 1052.10 847.30 C 1057.00 845.30 1059.80 840.20 1059.10 835.00 C 1051.00 780.70 990.30 773.50 965.90 772.90 C 962.90 769.80 958.50 767.80 953.80 767.80 L 953.80 767.80 Z M 981.30 822.60 C 984.00 822.40 986.90 822.20 990.00 822.20 C 1011.90 822.20 1028.30 829.40 1038.60 843.60 C 1038.90 844.00 1039.20 844.30 1039.50 844.70 C 1020.40 832.80 996.50 830.20 983.20 829.70 L 983.00 828.90 L 981.30 822.60 L 981.30 822.60 Z" fill="#22286e" fill-rule="nonzero" group-id="3,26" node-id="1155" stroke="none" target-height="236.40002" target-width="158.00006" target-x="909.8" target-y="767.8"></path></g><g node-id="1207"><g node-id="1230"><path d="M 888.60 626.90 C 883.80 626.90 878.90 626.20 874.20 624.70 C 849.80 617.20 835.70 592.50 842.70 569.60 C 848.20 551.60 865.40 539.50 885.30 539.50 C 890.10 539.50 895.00 540.20 899.70 541.70 C 905.20 543.40 910.40 546.00 914.90 549.50 L 952.60 426.70 C 954.30 421.20 959.30 417.50 965.00 417.50 C 966.30 417.50 967.60 417.70 968.80 418.10 L 972.10 419.10 C 975.40 420.10 978.10 422.40 979.80 425.40 C 980.60 426.90 981.10 428.60 981.30 430.20 C 1002.10 443.50 1048.60 480.00 1027.60 528.40 C 1026.40 531.20 1023.60 533.00 1020.60 533.00 C 1020.20 533.00 1019.80 533.00 1019.30 532.90 C 1015.80 532.30 1013.20 529.50 1013.00 526.00 C 1010.80 496.10 984.50 479.80 969.20 472.80 L 964.90 486.80 C 982.80 498.30 1026.40 531.80 1007.10 576.30 C 1005.90 579.10 1003.10 580.90 1000.10 580.90 C 999.70 580.90 999.30 580.90 998.80 580.80 C 995.30 580.20 992.70 577.40 992.50 573.90 C 990.50 546.90 966.10 532.30 952.80 526.30 L 930.60 598.50 C 930.50 598.90 930.30 599.30 930.10 599.70 C 923.90 615.90 907.30 626.90 888.60 626.90 Z" fill="#f4d12c" fill-rule="nonzero" group-id="4,27" node-id="1163" stroke="none" target-height="209.40002" target-width="212.89996" target-x="835.7" target-y="417.5"></path></g><path d="M 965.00 424.90 C 965.50 424.90 966.10 425.00 966.60 425.10 L 969.90 426.10 C 972.70 427.00 974.30 430.00 973.50 432.80 L 973.20 433.90 C 988.30 442.90 1040.90 478.40 1020.70 525.10 C 1017.70 484.90 977.70 467.10 964.50 462.30 L 963.40 465.90 L 958.80 480.70 L 956.00 489.90 C 966.90 496.20 1019.30 529.10 1000.30 572.90 C 997.50 534.90 957.80 519.10 948.10 515.80 L 923.50 595.90 L 923.50 595.90 C 918.30 610.10 904.20 619.10 888.70 619.10 C 884.70 619.10 880.60 618.50 876.50 617.30 C 856.10 611.00 844.30 590.60 850.10 571.70 C 854.80 556.50 869.30 546.90 885.40 546.90 C 889.40 546.90 893.50 547.50 897.60 548.70 C 906.40 551.40 913.70 556.80 918.60 563.50 L 945.30 476.40 L 949.20 463.70 L 960.00 428.50 C 960.60 426.40 962.70 424.90 965.00 424.90 M 965.00 409.70 C 965.00 409.70 965.00 409.70 965.00 409.70 C 955.90 409.70 948.00 415.60 945.30 424.30 L 934.50 459.50 L 930.60 472.20 L 910.50 537.70 C 907.80 536.30 904.90 535.20 902.00 534.30 C 896.60 532.60 891.00 531.80 885.40 531.80 C 862.10 531.80 842.00 546.10 835.50 567.30 C 827.20 594.20 843.60 623.20 872.00 631.90 C 877.40 633.60 883.00 634.40 888.60 634.40 C 910.30 634.40 929.60 621.60 937.20 602.50 C 937.50 601.90 937.80 601.20 938.00 600.50 L 957.50 536.90 C 969.30 543.60 983.60 555.50 985.00 574.20 C 985.50 581.20 990.70 586.90 997.70 588.10 C 998.60 588.20 999.40 588.30 1000.20 588.30 C 1006.20 588.30 1011.70 584.80 1014.20 579.10 C 1020.10 565.50 1020.90 552.40 1018.10 540.20 C 1018.90 540.30 1019.80 540.40 1020.60 540.40 C 1026.60 540.40 1032.10 536.90 1034.60 531.20 C 1053.30 488.10 1024.00 449.20 988.10 425.30 C 987.70 424.00 987.20 422.80 986.60 421.50 C 984.00 416.60 979.70 413.10 974.40 411.40 L 971.10 410.40 C 969.10 410.00 967.10 409.70 965.00 409.70 L 965.00 409.70 Z M 995.10 501.00 C 989.30 495.10 982.90 489.70 976.10 484.90 C 982.60 488.80 989.60 494.10 995.10 501.00 L 995.10 501.00 Z" fill="#22286e" fill-rule="nonzero" group-id="4,28,52" node-id="1170" stroke="none" target-height="224.70001" target-width="226.10004" target-x="827.2" target-y="409.7"></path></g><g node-id="1208"><g node-id="1232"><path d="M 1023.90 358.60 C 1015.90 358.60 1008.10 357.00 1000.60 353.80 C 971.80 341.60 957.80 309.70 969.20 282.70 C 977.30 263.50 996.80 251.10 1018.80 251.10 C 1026.80 251.10 1034.60 252.70 1042.10 255.90 C 1048.80 258.80 1054.90 262.80 1060.10 267.70 L 1076.70 228.50 L 966.90 187.80 L 929.00 277.40 C 928.80 277.90 928.50 278.30 928.30 278.80 C 919.40 296.30 901.00 307.20 880.20 307.20 C 872.20 307.20 864.40 305.60 856.90 302.40 C 843.10 296.50 832.20 286.00 826.20 272.70 C 820.10 259.20 819.90 244.50 825.50 231.30 C 833.60 212.10 853.10 199.70 875.10 199.70 C 883.10 199.70 890.90 201.30 898.40 204.50 C 905.10 207.30 911.20 211.40 916.40 216.30 L 971.90 85.30 C 974.60 79.00 980.60 75.00 987.40 75.00 C 989.40 75.00 991.30 75.30 993.20 76.00 L 1138.20 128.90 C 1142.50 130.50 1146.10 133.80 1147.90 138.00 C 1149.70 142.20 1149.80 147.10 1148.00 151.30 L 1072.70 328.80 C 1072.50 329.30 1072.20 329.70 1072.00 330.20 C 1063.00 347.80 1044.70 358.60 1023.90 358.60 Z M 1087.40 203.50 L 1100.60 172.40 L 990.60 132.20 L 977.60 162.80 L 1087.40 203.50 Z" fill="#e58456" fill-rule="nonzero" group-id="5,29" node-id="1179" stroke="none" target-height="283.6" target-width="329.90002" target-x="819.9" target-y="75"></path></g><path d="M 987.50 83.90 C 988.40 83.90 989.30 84.10 990.20 84.40 L 1135.20 137.30 C 1139.50 138.90 1141.60 143.70 1139.80 147.90 L 1129.10 173.20 L 1064.60 325.40 L 1064.50 325.40 C 1057.10 340.70 1041.10 349.70 1023.90 349.70 C 1017.30 349.70 1010.60 348.40 1004.10 345.60 C 979.80 335.30 967.90 308.70 977.40 286.20 C 984.40 269.70 1000.90 260.00 1018.80 260.00 C 1025.40 260.00 1032.10 261.30 1038.60 264.10 C 1049.10 268.60 1057.30 276.10 1062.50 285.00 L 1088.60 223.40 L 962.00 176.60 L 920.70 273.90 L 920.60 273.90 C 913.20 289.20 897.20 298.20 880.00 298.20 C 873.40 298.20 866.70 296.90 860.20 294.10 C 835.90 283.80 824.00 257.20 833.50 234.70 C 840.50 218.20 857.00 208.50 874.90 208.50 C 881.50 208.50 888.20 209.80 894.70 212.60 C 905.20 217.10 913.40 224.60 918.60 233.50 L 968.90 114.80 L 980.00 88.70 C 981.40 85.80 984.30 83.90 987.50 83.90 M 1092.30 214.80 L 1110.80 171.10 C 1111.70 169.00 1110.60 166.50 1108.50 165.70 L 989.30 122.20 C 988.80 122.00 988.40 122.00 987.90 122.00 C 986.30 122.00 984.80 122.90 984.20 124.50 L 965.80 168.00 L 1092.30 214.80 M 987.50 66.10 C 977.10 66.10 967.80 72.30 963.80 81.80 L 952.70 107.90 L 912.80 202.10 C 909.40 199.90 905.70 197.90 901.90 196.30 C 893.30 192.70 884.30 190.80 875.10 190.80 C 849.50 190.80 826.80 205.30 817.30 227.80 C 803.90 259.30 820.10 296.40 853.40 310.60 C 862.00 314.20 871.00 316.10 880.20 316.10 C 904.30 316.10 925.50 303.60 936.10 283.20 C 936.50 282.50 936.90 281.70 937.30 280.90 L 971.90 199.30 L 1065.00 233.80 L 1056.60 253.60 C 1053.20 251.40 1049.50 249.40 1045.70 247.80 C 1037.10 244.20 1028.10 242.30 1018.90 242.30 C 993.30 242.30 970.60 256.80 961.10 279.30 C 954.50 294.80 954.80 312.00 961.90 327.80 C 968.80 343.10 981.30 355.30 997.20 362.00 C 1005.80 365.60 1014.80 367.50 1024.00 367.50 C 1048.10 367.50 1069.30 354.90 1079.90 334.60 C 1080.30 333.90 1080.70 333.10 1081.10 332.30 L 1145.60 180.10 L 1156.30 154.80 C 1159.00 148.30 1159.00 140.90 1156.20 134.50 C 1153.40 128.00 1148.00 123.00 1141.40 120.60 L 996.40 67.70 C 993.50 66.60 990.50 66.10 987.50 66.10 L 987.50 66.10 Z M 989.40 157.70 L 995.40 143.50 L 1088.70 177.50 L 1082.50 192.20 L 989.40 157.70 L 989.40 157.70 Z" fill="#22286e" fill-rule="nonzero" group-id="5,30" node-id="1184" stroke="none" target-height="301.4" target-width="355.09998" target-x="803.9" target-y="66.1"></path></g><g node-id="1209"><g node-id="1234"><g node-id="1256"><path d="M 229.00 896.20 C 226.60 896.20 224.10 896.10 221.70 895.80 C 217.40 895.30 213.20 894.50 209.30 893.30 C 197.20 890.80 187.10 883.10 181.30 872.20 C 170.70 852.10 178.50 827.20 198.60 816.60 C 204.50 813.50 211.10 811.90 217.70 811.90 C 233.00 811.90 247.00 820.30 254.20 833.90 C 259.40 843.80 260.20 855.20 256.90 865.40 C 258.00 864.80 259.00 864.20 260.10 863.60 C 262.70 862.00 265.50 860.10 268.50 858.00 C 270.80 856.20 272.90 854.30 274.50 852.20 C 277.90 848.10 280.00 843.00 280.70 837.40 C 281.50 832.00 281.10 825.80 279.60 819.00 C 276.60 805.10 270.20 791.60 264.80 781.20 C 252.00 792.10 238.50 800.20 224.60 805.30 C 212.60 809.80 199.50 812.20 186.70 812.20 C 180.20 812.20 173.70 811.60 167.40 810.40 C 147.90 806.70 129.50 797.00 115.40 783.10 C 102.00 769.60 92.00 752.30 86.80 732.80 C 82.40 716.50 81.10 698.90 82.90 678.90 C 84.50 662.80 87.90 646.60 93.30 629.40 C 98.00 614.50 103.90 599.70 111.30 584.20 L 113.90 578.90 C 113.90 578.90 123.50 559.50 124.50 557.30 C 123.00 554.90 121.60 552.60 120.20 550.20 C 113.20 538.50 105.00 524.50 97.60 509.40 L 95.00 504.00 L 92.50 498.30 C 92.50 498.30 90.10 492.10 90.00 492.00 L 89.60 490.80 C 89.00 489.10 88.50 487.40 88.00 485.70 C 85.50 476.60 84.30 467.40 84.50 458.40 C 84.70 448.40 86.70 438.80 90.40 430.00 C 94.90 419.40 101.40 410.80 109.80 404.70 C 114.90 401.00 120.40 398.30 126.20 396.80 C 129.90 395.80 133.80 395.30 137.70 395.30 C 140.30 395.30 142.90 395.50 145.50 396.00 C 151.50 397.00 157.50 399.30 162.80 402.70 C 167.30 405.50 171.70 409.10 175.60 413.30 C 176.30 414.00 177.00 414.90 177.70 415.70 L 178.10 416.10 L 180.30 418.80 C 181.50 420.30 182.60 421.80 183.80 423.50 L 184.50 424.40 C 187.30 428.60 189.80 432.80 191.90 437.20 C 194.10 442.10 195.80 446.80 197.10 451.50 C 198.40 456.70 199.30 461.60 199.70 466.30 C 200.50 474.90 200.10 484.00 198.50 494.20 C 197.30 502.00 195.40 510.10 192.80 519.20 C 188.00 535.60 181.90 551.00 176.50 564.20 C 174.70 568.40 173.00 572.50 171.10 576.70 C 177.60 587.40 184.60 598.80 193.00 612.20 C 195.70 616.60 198.50 621.00 201.20 625.30 C 208.90 622.60 217.20 621.20 225.60 621.20 C 237.00 621.20 248.20 623.80 258.10 628.70 C 266.90 633.00 275.20 639.40 281.90 647.10 C 283.30 648.70 284.80 650.60 286.50 652.80 L 288.50 655.70 L 290.40 658.60 C 293.00 662.70 295.20 666.80 297.10 671.00 C 301.30 680.10 303.90 689.70 304.70 699.60 C 305.60 709.70 304.40 720.30 301.30 730.10 C 299.90 734.70 298.00 739.40 295.60 744.00 C 293.50 748.20 291.00 752.30 288.10 756.30 C 286.50 758.60 284.70 760.90 282.90 763.20 C 283.90 765.20 285.00 767.10 286.00 769.10 C 292.40 781.90 299.40 797.30 302.90 814.50 C 304.90 824.70 305.20 833.10 304.00 841.10 C 303.30 845.90 302.00 850.60 300.20 854.90 C 298.30 859.40 295.70 863.60 292.60 867.40 C 289.70 871.00 286.30 874.20 282.40 877.20 C 278.70 879.90 275.30 882.20 271.90 884.20 C 264.20 888.80 256.20 892.20 248.20 894.30 C 241.90 895.30 235.40 896.20 229.00 896.20 Z M 156.80 608.10 C 151.20 620.50 146.40 632.90 142.50 645.00 C 137.90 659.50 135.00 672.20 133.80 683.90 C 132.40 697.30 132.90 709.40 135.60 720.00 C 137.00 725.40 138.90 730.60 141.40 735.40 C 144.00 740.20 147.10 744.50 150.50 748.00 C 157.70 755.50 167.20 760.80 177.20 763.00 C 181.10 763.90 185.20 764.30 189.40 764.30 C 196.10 764.30 202.70 763.20 209.30 761.00 C 219.20 757.80 229.40 751.80 240.60 742.50 C 241.00 742.10 241.40 741.80 241.90 741.40 L 240.40 739.10 C 236.90 733.50 233.40 727.80 230.00 722.00 C 228.00 718.60 226.00 715.20 224.20 711.70 C 222.70 708.90 220.90 705.90 218.80 702.50 C 211.60 690.80 203.80 679.00 196.20 667.50 L 195.70 666.70 C 191.90 669.90 188.70 673.70 186.40 678.00 C 185.10 680.50 184.00 683.00 183.10 685.70 C 182.70 686.90 182.40 688.20 182.00 689.80 C 181.60 691.50 181.40 692.90 181.20 694.30 C 180.30 700.20 180.70 705.50 182.20 710.30 C 183.70 715.00 186.60 719.40 190.70 722.90 C 192.80 724.70 195.10 726.30 197.80 727.80 C 199.10 728.50 200.50 729.20 201.80 729.80 C 203.10 730.30 204.60 730.90 205.70 731.20 C 208.90 732.10 211.40 734.10 212.90 736.80 C 214.40 739.50 214.70 742.60 213.90 745.60 C 212.50 750.50 207.90 753.90 202.80 753.90 C 202.20 753.90 201.50 753.90 200.90 753.70 C 198.50 753.30 196.50 752.80 193.90 752.10 C 191.70 751.40 189.50 750.70 187.30 749.80 C 182.90 748.00 178.70 745.70 175.00 743.00 C 166.60 737.20 160.00 729.00 156.20 720.00 C 152.60 711.50 151.00 701.70 151.60 691.50 C 151.70 688.80 152.00 686.60 152.30 684.60 C 152.60 682.30 153.00 679.90 153.50 677.80 C 154.50 673.30 156.00 668.70 158.00 664.20 C 162.30 654.60 168.80 645.90 177.10 638.90 L 169.40 627.20 C 165.10 620.80 160.90 614.40 156.80 608.10 Z M 221.40 657.20 C 227.80 667.50 234.40 678.20 241.00 689.20 C 243.30 693.10 245.20 696.40 246.90 699.70 C 248.60 703.00 250.30 706.10 252.10 709.30 C 254.30 713.20 256.60 717.00 258.80 720.80 C 259.60 719.20 260.30 717.70 260.80 716.20 C 264.20 707.20 263.80 697.10 259.80 686.80 C 257.60 681.20 254.70 675.80 251.70 672.00 C 248.50 667.80 244.70 664.50 240.50 662.10 C 235.10 659.00 228.70 657.30 222.00 657.30 C 221.90 657.20 221.60 657.20 221.40 657.20 Z M 135.90 432.90 C 134.30 432.90 132.60 433.50 130.80 434.60 C 127.70 436.50 124.70 440.10 122.50 444.40 C 120.30 448.70 118.90 454.00 118.50 459.80 C 118.10 465.30 118.60 471.20 120.00 477.30 C 121.50 483.60 124.40 490.40 126.80 495.70 C 131.10 505.30 136.00 514.80 140.50 523.20 C 143.40 516.40 145.90 510.30 148.10 504.40 C 153.50 489.80 156.20 478.00 156.10 468.40 C 156.10 466.00 155.90 463.60 155.40 460.60 C 155.00 458.40 154.40 456.00 153.40 453.40 C 152.50 451.10 151.40 448.60 150.00 446.30 L 149.40 445.30 C 148.90 444.50 148.40 443.60 147.80 442.80 L 146.20 440.40 C 146.00 440.10 145.70 439.70 145.50 439.40 C 143.20 436.40 139.70 432.90 135.90 432.90 Z" fill="#73c0d7" fill-rule="nonzero" group-id="6,31,53" node-id="1194" stroke="none" target-height="500.90002" target-width="224.5" target-x="81.1" target-y="395.3"></path></g></g><path d="M 137.80 402.80 C 140.00 402.80 142.10 403.00 144.30 403.40 C 149.60 404.30 154.60 406.40 158.90 409.00 C 163.20 411.70 166.90 414.90 170.10 418.30 C 170.90 419.20 171.70 420.10 172.40 420.90 L 174.40 423.40 C 175.80 425.10 177.00 426.90 178.30 428.60 C 180.80 432.20 183.00 436.10 185.00 440.20 C 186.90 444.30 188.50 448.70 189.70 453.10 C 190.80 457.60 191.60 462.10 192.00 466.60 C 192.80 475.60 192.20 484.40 190.90 492.70 C 189.60 501.00 187.70 509.00 185.50 516.70 C 181.00 532.10 175.30 546.60 169.50 560.90 C 167.30 566.30 165.00 571.50 162.60 576.80 C 170.50 589.90 178.50 602.80 186.60 615.80 C 190.40 622.00 194.30 628.10 198.20 634.30 C 199.60 633.70 201.10 633.10 202.50 632.50 C 209.80 629.70 217.70 628.30 225.70 628.30 C 235.70 628.30 245.70 630.50 254.90 635.00 C 263.10 639.00 270.40 644.80 276.30 651.60 C 277.80 653.30 279.20 655.00 280.50 656.80 L 282.40 659.50 L 284.10 662.20 C 286.40 665.80 288.50 669.60 290.30 673.60 C 294.00 681.50 296.50 690.40 297.30 699.60 C 298.10 708.80 297.00 718.30 294.20 727.10 C 292.80 731.50 291.10 735.80 289.00 739.80 C 287.00 743.80 284.60 747.60 282.10 751.20 C 279.50 754.80 276.80 758.20 273.90 761.50 C 275.80 764.90 277.60 768.40 279.30 771.90 C 286.10 785.60 292.40 799.90 295.50 815.40 C 297.00 823.10 297.80 831.20 296.50 839.40 C 295.90 843.50 294.80 847.50 293.20 851.30 C 291.60 855.10 289.40 858.70 286.70 861.90 C 284.10 865.10 281.10 867.90 277.80 870.40 C 274.60 872.70 271.40 874.90 268.00 876.90 C 261.20 880.90 253.90 884.10 246.20 886.20 C 240.60 887.70 234.70 888.50 228.80 888.50 C 226.60 888.50 224.50 888.40 222.30 888.20 C 218.50 887.80 214.70 887.00 211.00 885.90 C 201.40 884.00 192.80 877.90 187.90 868.60 C 179.30 852.20 185.60 831.90 202.00 823.30 C 207.00 820.70 212.30 819.40 217.60 819.40 C 229.70 819.40 241.30 825.90 247.30 837.30 C 255.10 852.20 250.60 870.30 237.50 879.90 C 239.80 879.60 242.00 879.10 244.20 878.50 C 251.10 876.60 257.70 873.70 263.90 869.90 C 267.00 868.10 270.00 866.00 272.90 863.80 C 275.70 861.70 278.20 859.30 280.30 856.70 C 284.60 851.40 287.20 845.00 288.20 838.10 C 289.20 831.30 288.50 824.10 287.00 817.00 C 283.90 802.90 277.80 789.30 270.90 776.10 C 269.60 773.60 268.20 771.10 266.80 768.60 C 266.20 769.20 265.60 769.80 265.00 770.40 C 253.00 781.50 238.60 791.60 222.00 797.70 C 210.90 801.90 198.90 804.20 186.70 804.20 C 180.80 804.20 174.80 803.70 168.90 802.50 C 150.90 799.10 133.90 790.20 120.80 777.30 C 107.60 764.30 98.70 747.70 94.10 730.60 C 89.40 713.40 88.90 696.00 90.50 679.40 C 92.10 662.80 95.70 646.80 100.60 631.50 C 105.40 616.20 111.40 601.50 118.20 587.30 L 120.80 582.00 L 123.30 577.00 L 128.20 566.90 C 129.90 563.50 131.60 560.10 133.20 556.70 C 131.00 553.20 128.90 549.70 126.70 546.10 C 118.90 533.00 111.30 519.80 104.40 505.80 L 101.90 500.50 L 99.50 495.00 L 97.30 489.30 C 96.60 487.30 96.00 485.30 95.40 483.30 C 93.20 475.30 92.00 466.80 92.20 458.20 C 92.40 449.60 94.10 440.90 97.50 432.60 C 101.00 424.30 106.40 416.40 114.40 410.50 C 118.40 407.60 123.10 405.20 128.20 403.80 C 131.30 403.20 134.60 402.80 137.80 402.80 M 141.10 540.20 C 146.30 529.10 151.10 518.10 155.20 507.00 C 160.10 493.80 163.70 480.50 163.70 468.30 C 163.70 465.30 163.40 462.30 162.90 459.40 C 162.40 456.50 161.60 453.60 160.60 450.80 C 159.50 448.00 158.20 445.20 156.70 442.50 C 155.90 441.10 155.10 439.80 154.20 438.40 L 152.80 436.40 C 152.40 435.80 151.90 435.20 151.50 434.60 C 146.80 428.60 141.50 425.30 135.90 425.30 C 132.90 425.30 129.80 426.20 126.70 428.20 C 122.30 430.90 118.40 435.60 115.70 441.00 C 112.90 446.50 111.40 452.80 110.90 459.30 C 110.40 465.80 111.10 472.50 112.60 479.10 C 114.10 485.40 116.80 492.20 119.80 498.90 C 125.80 512.20 132.90 525.50 140.20 538.50 C 140.50 539.00 140.80 539.60 141.10 540.20 M 189.30 771.90 C 196.70 771.90 204.30 770.70 211.60 768.20 C 223.60 764.40 234.70 757.10 245.30 748.40 C 247.50 746.60 249.50 744.70 251.50 742.80 C 250.40 741.10 249.40 739.30 248.30 737.60 C 244.30 731.20 240.30 724.80 236.40 718.20 C 234.50 714.90 232.50 711.50 230.70 708.20 C 229.00 705.00 227.10 701.80 225.10 698.70 C 217.30 686.00 208.90 673.40 200.60 660.80 L 197.60 656.20 C 190.10 660.50 183.70 666.80 179.60 674.50 C 178.10 677.30 176.80 680.30 175.80 683.50 C 175.30 685.10 174.90 686.60 174.50 688.30 C 174.10 690.00 173.80 691.60 173.60 693.30 C 172.60 700.00 172.90 706.60 174.90 712.70 C 176.90 718.80 180.60 724.30 185.70 728.70 C 188.20 730.90 191.10 732.90 194.10 734.50 C 195.60 735.30 197.20 736.10 198.80 736.80 C 200.40 737.50 202.10 738.10 203.60 738.50 L 203.90 738.60 C 206.00 739.20 207.20 741.40 206.60 743.50 C 206.10 745.20 204.50 746.40 202.80 746.40 C 202.60 746.40 202.40 746.40 202.20 746.30 C 199.90 745.90 198.10 745.50 196.10 744.90 C 194.10 744.30 192.20 743.60 190.30 742.90 C 186.50 741.30 182.90 739.40 179.40 737.00 C 172.50 732.20 166.60 725.40 163.30 717.30 C 159.90 709.30 158.80 700.50 159.30 692.10 C 159.40 690.00 159.60 687.90 159.90 685.90 C 160.10 683.90 160.50 681.70 161.00 679.70 C 161.90 675.50 163.30 671.40 165.10 667.50 C 169.90 656.80 177.80 647.50 187.50 640.80 L 175.90 623.20 C 169.20 613.00 162.50 602.80 155.90 592.60 L 151.20 603.00 C 145.20 616.20 139.90 629.50 135.50 643.00 C 131.20 656.50 127.90 670.00 126.40 683.50 C 125.00 696.90 125.40 710.10 128.30 722.20 C 129.80 728.20 132.00 734.00 134.80 739.30 C 137.70 744.60 141.10 749.50 145.20 753.70 C 153.40 762.20 164.10 768.20 175.70 770.80 C 180.00 771.40 184.70 771.90 189.30 771.90 M 258.50 735.00 C 262.60 729.80 265.90 724.40 268.00 718.60 C 272.20 707.60 271.60 695.60 266.90 683.80 C 264.60 677.90 261.40 671.80 257.70 667.10 C 254.00 662.30 249.40 658.20 244.20 655.30 C 237.60 651.50 229.80 649.50 221.90 649.50 C 217.50 649.50 213.00 650.10 208.60 651.30 C 217.20 665.10 225.90 678.90 234.30 693.00 C 236.20 696.30 238.10 699.60 240.00 703.10 C 241.70 706.40 243.50 709.60 245.30 712.90 C 249.00 719.40 252.90 725.80 256.70 732.30 C 257.50 733.20 258.00 734.10 258.50 735.00 M 137.80 387.60 C 133.20 387.60 128.70 388.20 124.40 389.30 C 117.70 391.10 111.30 394.10 105.40 398.40 C 95.90 405.40 88.50 415.00 83.50 426.90 C 79.40 436.70 77.20 447.20 77.00 458.10 C 76.80 467.90 78.10 477.80 80.80 487.60 C 81.30 489.50 81.90 491.30 82.50 493.10 L 82.90 494.30 C 83.00 494.60 83.10 494.80 83.20 495.10 L 85.40 500.80 C 85.50 501.00 85.50 501.20 85.60 501.30 L 88.00 506.80 C 88.10 506.90 88.10 507.10 88.20 507.20 L 90.70 512.50 C 90.70 512.60 90.80 512.60 90.80 512.70 C 98.30 528.10 106.60 542.30 113.70 554.10 C 114.40 555.30 115.10 556.50 115.90 557.70 C 115.50 558.60 115.00 559.50 114.60 560.30 L 109.60 570.40 L 107.10 575.40 L 104.50 580.80 C 96.90 596.70 90.90 611.80 86.10 627.00 C 80.50 644.70 77.00 661.40 75.40 678.00 C 73.50 699.00 74.80 717.50 79.50 734.70 C 85.10 755.50 95.70 774.00 110.30 788.30 C 125.40 803.20 145.30 813.60 166.20 817.60 C 171.40 818.60 176.80 819.20 182.30 819.50 C 177.30 824.80 173.50 831.30 171.20 838.50 C 167.30 850.90 168.60 864.20 174.60 875.70 C 181.30 888.50 193.30 897.60 207.40 900.60 C 211.70 901.90 216.20 902.80 220.80 903.30 C 223.60 903.60 226.30 903.70 229.00 903.70 C 236.10 903.70 243.30 902.80 250.30 900.90 C 258.90 898.60 267.60 895.00 275.90 890.00 C 279.40 887.90 283.10 885.50 287.00 882.60 C 291.50 879.20 295.40 875.50 298.70 871.50 C 302.20 867.20 305.20 862.40 307.40 857.30 C 309.50 852.30 311.00 847.10 311.80 841.60 C 313.10 832.80 312.80 823.50 310.60 812.50 C 306.90 794.30 299.70 778.30 293.10 765.10 C 292.80 764.50 292.50 764.00 292.20 763.40 C 293.00 762.30 293.90 761.20 294.70 760.00 C 297.70 755.80 300.40 751.30 302.80 746.70 C 305.30 741.90 307.40 736.80 309.00 731.60 C 312.40 721.00 313.70 709.40 312.70 698.30 C 311.80 687.60 309.00 677.20 304.40 667.20 C 302.40 662.80 300.00 658.40 297.30 654.10 C 297.30 654.00 297.20 654.00 297.20 653.90 L 295.50 651.20 C 295.40 651.00 295.30 650.90 295.20 650.70 L 293.30 648.00 C 293.20 647.90 293.10 647.80 293.10 647.70 C 291.30 645.20 289.70 643.20 288.00 641.40 C 280.70 633.00 271.60 626.00 261.80 621.30 C 250.90 615.90 238.50 613.00 226.00 613.00 C 218.80 613.00 211.70 613.90 204.90 615.70 C 203.20 613.00 201.50 610.30 199.80 607.60 C 192.30 595.60 185.90 585.30 180.00 575.60 C 181.30 572.70 182.50 569.70 183.80 566.70 C 189.30 553.30 195.50 537.70 200.40 520.90 C 203.10 511.50 205.00 503.00 206.30 495.00 C 207.90 484.10 208.30 474.40 207.50 465.20 C 207.10 460.20 206.20 454.80 204.80 449.30 C 204.80 449.20 204.80 449.20 204.80 449.10 C 203.50 444.00 201.60 438.90 199.20 433.80 C 199.20 433.70 199.10 433.60 199.10 433.60 C 196.90 428.90 194.20 424.30 191.30 420.00 C 191.20 419.90 191.20 419.80 191.10 419.70 L 190.50 418.80 C 189.40 417.20 188.10 415.50 186.70 413.70 L 184.70 411.30 C 184.60 411.20 184.50 411.10 184.40 410.90 L 184.10 410.60 C 183.30 409.70 182.50 408.70 181.60 407.80 C 177.30 403.10 172.40 399.10 167.30 396.00 C 161.20 392.20 154.20 389.50 147.30 388.30 C 143.90 387.90 140.90 387.60 137.80 387.60 L 137.80 387.60 Z M 139.70 505.20 C 137.60 501.10 135.60 496.90 133.70 492.60 C 131.70 488.10 128.80 481.30 127.40 475.60 C 126.10 470.30 125.70 465.20 126.00 460.50 C 126.40 455.70 127.50 451.40 129.20 448.00 C 131.00 444.40 133.20 442.10 134.70 441.20 C 135.30 440.80 135.60 440.70 135.80 440.60 C 136.20 440.80 137.50 441.50 139.50 444.00 C 139.50 444.10 139.60 444.10 139.60 444.20 C 139.80 444.40 139.90 444.60 140.00 444.80 L 140.20 445.10 L 141.40 446.90 C 141.40 447.00 141.50 447.00 141.50 447.10 C 142.00 447.80 142.40 448.40 142.80 449.10 L 143.40 450.10 C 144.50 452.00 145.40 454.00 146.20 456.10 C 146.90 458.20 147.50 460.10 147.80 462.00 C 148.20 464.50 148.40 466.50 148.40 468.40 C 148.40 477.20 146.00 488.10 140.90 501.80 C 140.50 502.80 140.10 504.00 139.70 505.20 L 139.70 505.20 Z M 183.10 756.30 C 181.60 756.10 180.20 755.90 178.80 755.60 C 170.30 753.70 162.10 749.20 156.00 742.80 C 153.00 739.70 150.30 736.00 148.00 731.80 C 145.80 727.70 144.10 723.10 142.90 718.30 C 140.50 708.60 140.00 697.30 141.30 684.90 C 142.50 673.70 145.30 661.40 149.70 647.40 C 152.20 639.80 155.00 632.00 158.20 624.20 C 159.80 626.60 161.30 629.00 162.90 631.40 L 167.10 637.70 C 160.30 644.50 154.80 652.50 151.00 661.10 C 148.80 666.00 147.10 671.10 146.00 676.20 C 145.50 678.50 145.00 681.10 144.70 683.80 C 144.40 686.00 144.20 688.40 144.00 691.20 C 143.40 702.50 145.20 713.60 149.20 723.10 C 153.40 733.30 161.10 742.70 170.70 749.40 C 174.40 752.00 178.60 754.30 183.10 756.30 L 183.10 756.30 Z M 255.40 699.30 C 254.80 698.20 254.30 697.20 253.70 696.10 C 251.90 692.70 250.00 689.30 247.60 685.30 C 244.40 679.90 241.10 674.50 237.80 669.20 C 240.80 671.10 243.40 673.50 245.70 676.50 C 248.30 679.80 250.80 684.50 252.70 689.40 C 254.10 692.80 255.00 696.10 255.40 699.30 L 255.40 699.30 Z M 221.30 747.10 C 223.90 737.10 218.00 726.80 208.10 723.90 L 207.80 723.80 C 206.90 723.50 205.70 723.10 204.80 722.70 C 203.70 722.30 202.60 721.70 201.30 721.00 C 199.20 719.90 197.30 718.60 195.70 717.20 C 192.60 714.50 190.50 711.40 189.40 708.00 C 188.20 704.40 188.00 700.10 188.70 695.50 C 188.90 694.30 189.10 693.10 189.30 691.90 C 189.30 691.70 189.40 691.60 189.40 691.40 C 189.70 690.10 189.90 689.10 190.20 688.30 C 190.20 688.20 190.20 688.20 190.30 688.10 C 191.00 686.00 191.90 683.80 193.00 681.80 C 193.50 680.90 194.00 680.00 194.60 679.20 C 200.60 688.30 206.60 697.50 212.20 706.70 C 214.20 710.00 216.00 712.90 217.40 715.60 C 219.30 719.00 221.30 722.60 223.30 726.00 C 226.10 730.70 228.90 735.30 231.70 739.90 C 228.10 742.60 224.70 745.00 221.30 747.10 L 221.30 747.10 Z M 237.10 808.20 C 245.70 804.20 254.10 799.10 262.30 792.90 C 266.30 801.30 270.20 810.80 272.30 820.50 C 273.60 826.40 273.90 831.70 273.30 836.20 C 272.70 840.50 271.10 844.30 268.70 847.20 C 268.00 848.10 267.20 848.90 266.40 849.70 C 266.00 843.10 264.20 836.40 261.00 830.30 C 255.60 820.20 247.10 812.50 237.10 808.20 L 237.10 808.20 Z" fill="#22286e" fill-rule="nonzero" group-id="6,32,54" node-id="1202" stroke="none" target-height="516.1" target-width="240.20001" target-x="73.5" target-y="387.6"></path></g></svg>