<?xml version="1.0" standalone="no"?><!DOCTYPE svg PUBLIC "-//W3C//DTD SVG 1.1//EN" "http://www.w3.org/Graphics/SVG/1.1/DTD/svg11.dtd"><svg height="1200" node-id="1" sillyvg="true" template-height="1200" template-width="1200" version="1.1" viewBox="0 0 1200 1200" width="1200" xmlns="http://www.w3.org/2000/svg" xmlns:xlink="http://www.w3.org/1999/xlink"><defs node-id="114"></defs><g node-id="393"><g node-id="396"><g node-id="425"><path d="M 270.50 428.50 C 250.90 428.50 231.80 422.80 215.30 412.10 C 168.60 381.60 155.30 318.80 185.80 272.00 C 204.60 243.20 236.30 226.10 270.70 226.10 C 290.30 226.10 309.40 231.80 325.90 242.50 C 372.60 273.00 385.90 335.80 355.40 382.60 C 336.60 411.40 304.90 428.50 270.50 428.50 Z" fill="#ffffff" fill-rule="nonzero" group-id="1,4,33" node-id="122" stroke="none" target-height="202.4" target-width="230.59999" target-x="155.3" target-y="226.1"></path></g><path d="M 270.70 235.40 C 287.90 235.40 305.30 240.20 320.80 250.30 C 363.30 278.00 375.30 334.90 347.60 377.50 C 330.00 404.50 300.60 419.20 270.50 419.20 C 253.30 419.20 235.90 414.40 220.40 404.30 C 177.90 376.60 165.90 319.70 193.60 277.10 C 211.20 250.10 240.70 235.40 270.70 235.40 M 270.70 216.80 L 270.70 235.50 L 270.70 216.80 L 270.70 216.80 C 233.10 216.80 198.50 235.60 178.00 267.00 C 144.70 318.10 159.20 386.70 210.20 420.00 C 228.20 431.70 249.10 438.00 270.50 438.00 C 308.10 438.00 342.70 419.20 363.20 387.80 C 379.30 363.10 384.90 333.50 378.80 304.60 C 372.70 275.70 355.70 250.90 331.00 234.80 C 312.90 223.00 292.10 216.80 270.70 216.80 L 270.70 216.80 Z" fill="#22286e" fill-rule="nonzero" group-id="1,4,34" node-id="127" stroke="none" target-height="221.2" target-width="240.2" target-x="144.7" target-y="216.8"></path></g><g node-id="397"><path d="M 356.60 295.30 C 355.60 310.60 350.90 325.90 341.90 339.60 C 314.20 382.10 257.30 394.10 214.70 366.40 C 197.60 355.20 185.50 339.30 178.90 321.40 C 176.90 353.40 191.60 385.50 220.40 404.30 C 262.90 432.00 319.80 420.00 347.60 377.50 C 364.10 352.10 366.40 321.70 356.60 295.30 Z" fill="#73c0d7" fill-rule="nonzero" group-id="1,5" node-id="133" stroke="none" target-height="136.70001" target-width="189.5" target-x="176.9" target-y="295.3"></path></g><g node-id="398"><path d="M 325.00 279.60 C 325.00 279.60 287.60 242.70 244.60 269.20" fill="#ffffff" fill-rule="nonzero" group-id="1,6" node-id="138" stroke="none" target-height="36.90001" target-width="80.399994" target-x="244.6" target-y="242.7"></path><path d="M 325.00 288.90 C 322.60 288.90 320.30 288.00 318.50 286.20 C 317.10 284.80 285.50 254.90 249.60 277.10 C 245.20 279.80 239.50 278.40 236.80 274.10 C 234.10 269.70 235.50 264.00 239.80 261.30 C 278.70 237.30 316.90 258.50 331.60 273.00 C 335.30 276.60 335.30 282.50 331.70 286.20 C 329.90 288.00 327.50 288.90 325.00 288.90 Z" fill="#22286e" fill-rule="nonzero" group-id="1,6" node-id="140" stroke="none" target-height="51.59999" target-width="101.19998" target-x="234.1" target-y="237.3"></path></g><g node-id="399"><path d="M 216.60 294.40 C 216.60 294.40 219.50 291.60 214.60 296.80" fill="#ffffff" fill-rule="nonzero" group-id="1,7" node-id="145" stroke="none" target-height="5.1999817" target-width="4.899994" target-x="214.6" target-y="291.6"></path><path d="M 214.60 306.10 C 212.30 306.10 210.00 305.30 208.20 303.50 C 204.50 300.00 204.30 294.00 207.90 290.30 C 209.30 288.90 210.00 288.10 210.30 287.80 L 210.20 287.70 C 217.50 280.60 223.90 286.70 224.10 287.00 C 230.70 293.50 224.40 300.00 221.40 303.20 C 219.60 305.10 217.10 306.10 214.60 306.10 Z" fill="#22286e" fill-rule="nonzero" group-id="1,7" node-id="147" stroke="none" target-height="25.5" target-width="26.399994" target-x="204.3" target-y="280.6"></path></g></g><g node-id="394"><g node-id="400"><g node-id="427"><path d="M 423.10 175.50 C 388.80 175.50 361.00 147.60 361.00 113.40 C 361.00 79.10 388.90 51.30 423.10 51.30 C 457.30 51.30 485.20 79.20 485.20 113.40 C 485.30 147.60 457.40 175.50 423.10 175.50 Z" fill="#ffffff" fill-rule="nonzero" group-id="2,8,35" node-id="157" stroke="none" target-height="124.2" target-width="124.29999" target-x="361" target-y="51.3"></path></g><path d="M 423.10 60.50 C 452.30 60.50 475.90 84.10 475.90 113.30 C 475.90 142.50 452.30 166.10 423.10 166.10 C 393.90 166.10 370.30 142.50 370.30 113.30 C 370.30 84.20 394.00 60.50 423.10 60.50 M 423.10 41.90 C 383.70 41.90 351.60 74.00 351.60 113.40 C 351.60 152.80 383.70 184.90 423.10 184.90 C 462.50 184.90 494.60 152.80 494.60 113.40 C 494.60 73.90 462.50 41.90 423.10 41.90 L 423.10 41.90 Z" fill="#22286e" fill-rule="nonzero" group-id="2,8,36" node-id="162" stroke="none" target-height="143" target-width="143" target-x="351.6" target-y="41.9"></path></g><g node-id="401"><path d="M 454.50 70.90 C 458.80 78.60 461.30 87.40 461.30 96.80 C 461.30 126.00 437.70 149.60 408.50 149.60 C 396.70 149.60 385.90 145.70 377.10 139.20 C 386.20 155.20 403.30 166.10 423.10 166.10 C 452.30 166.10 475.90 142.50 475.90 113.30 C 475.90 95.90 467.50 80.50 454.50 70.90 Z" fill="#73c0d7" fill-rule="nonzero" group-id="2,9" node-id="168" stroke="none" target-height="95.200005" target-width="98.79999" target-x="377.1" target-y="70.9"></path></g><g node-id="402"><path d="M 434.40 73.30 C 434.40 73.30 404.80 67.30 392.50 93.50" fill="#ffffff" fill-rule="nonzero" group-id="2,10" node-id="173" stroke="none" target-height="26.199997" target-width="41.899994" target-x="392.5" target-y="67.3"></path><path d="M 392.40 102.80 C 391.10 102.80 389.70 102.50 388.40 101.90 C 383.70 99.70 381.70 94.10 383.90 89.50 C 396.10 63.50 423.40 61.50 436.10 64.10 C 441.20 65.10 444.40 70.00 443.40 75.10 C 442.40 80.10 437.50 83.40 432.40 82.40 C 431.30 82.20 409.70 78.40 400.70 97.40 C 399.30 100.80 395.90 102.80 392.40 102.80 Z" fill="#22286e" fill-rule="nonzero" group-id="2,10" node-id="175" stroke="none" target-height="41.300003" target-width="62.69998" target-x="381.7" target-y="61.5"></path></g><g node-id="403"><path d="M 386.80 114.40 C 386.80 114.40 387.30 112.10 386.60 116.20" fill="#ffffff" fill-rule="nonzero" group-id="2,11" node-id="180" stroke="none" target-height="4.0999985" target-width="0.6999817" target-x="386.6" target-y="112.1"></path><path d="M 386.60 125.50 C 386.00 125.50 385.50 125.40 384.90 125.30 C 379.80 124.40 376.50 119.50 377.40 114.40 C 377.40 114.20 377.50 114.10 377.50 114.00 C 377.50 113.40 377.60 112.90 377.70 112.30 C 379.30 105.30 385.20 103.80 388.80 104.60 C 392.20 105.30 397.50 107.90 395.70 117.80 C 394.90 122.40 391.00 125.50 386.60 125.50 Z" fill="#22286e" fill-rule="nonzero" group-id="2,11" node-id="182" stroke="none" target-height="21.699997" target-width="21" target-x="376.5" target-y="103.8"></path></g></g><g node-id="395"><g node-id="404"><g node-id="429"><path d="M 649.40 1112.40 C 452.30 1112.40 303.70 1066.80 303.70 1006.40 C 303.70 948.70 439.40 911.50 649.40 911.50 C 749.90 911.50 835.90 920.30 898.10 936.90 C 961.60 953.80 995.10 977.90 995.10 1006.40 C 995.10 1066.80 846.50 1112.40 649.40 1112.40 Z" fill="#22286e" fill-rule="evenodd" group-id="3,12,37" node-id="192" stroke="none" target-height="200.90002" target-width="691.39996" target-x="303.7" target-y="911.5"></path></g><path d="M 649.40 920.80 C 857.70 920.80 985.80 959.10 985.80 1006.40 C 985.80 1053.70 857.70 1103.00 649.40 1103.00 C 441.10 1103.00 313.10 1053.60 313.10 1006.40 C 313.10 959.10 441.10 920.80 649.40 920.80 M 649.40 902.10 C 477.80 902.10 294.40 929.50 294.40 1006.40 C 294.40 1040.00 330.10 1069.00 397.50 1090.20 C 462.90 1110.80 550.00 1121.70 649.40 1121.70 C 748.70 1121.70 835.80 1110.80 901.30 1090.20 C 968.80 1069.00 1004.40 1040.00 1004.40 1006.40 C 1004.50 929.50 821.10 902.10 649.40 902.10 L 649.40 902.10 Z" fill="#22286e" fill-rule="nonzero" group-id="3,12,38" node-id="197" stroke="none" target-height="219.59998" target-width="710.1" target-x="294.4" target-y="902.1"></path></g><g node-id="405"><g node-id="431"><path d="M 646.80 1073.30 C 400.60 1073.30 214.90 1017.10 214.90 942.60 C 214.90 872.70 388.50 825.70 646.80 825.70 C 905.10 825.70 1078.70 872.70 1078.70 942.60 C 1078.70 1017.10 893.00 1073.30 646.80 1073.30 Z" fill="#1e7cb9" fill-rule="evenodd" group-id="3,13,39" node-id="205" stroke="none" target-height="247.60004" target-width="863.7999" target-x="214.9" target-y="825.7"></path></g><path d="M 646.80 835.00 C 908.50 835.00 1069.40 883.20 1069.40 942.50 C 1069.40 1001.90 908.50 1063.90 646.80 1063.90 C 385.10 1063.90 224.30 1001.90 224.30 942.50 C 224.20 883.20 385.10 835.00 646.80 835.00 M 646.80 816.30 C 520.00 816.30 411.30 827.40 332.60 848.40 C 248.30 870.90 205.60 902.50 205.60 942.50 C 205.60 1023.70 391.20 1082.60 646.80 1082.60 C 902.50 1082.60 1088.00 1023.70 1088.00 942.50 C 1088.00 902.60 1045.30 870.90 961.00 848.40 C 882.20 827.50 773.60 816.30 646.80 816.30 L 646.80 816.30 Z" fill="#22286e" fill-rule="nonzero" group-id="3,13,40" node-id="210" stroke="none" target-height="266.3" target-width="882.4" target-x="205.6" target-y="816.3"></path></g><g node-id="406"><path d="M 646.80 871.10 C 826.00 871.10 936.20 904.10 936.20 944.70 C 936.20 985.40 826.00 1027.80 646.80 1027.80 C 467.60 1027.80 357.40 985.30 357.40 944.70 C 357.40 904.10 467.60 871.10 646.80 871.10 L 646.80 871.10 L 646.80 871.10 Z" fill="#ffffff" fill-rule="evenodd" group-id="3,14" node-id="216" stroke="none" target-height="156.70007" target-width="578.80005" target-x="357.4" target-y="871.1"></path><path d="M 646.80 1037.20 C 476.50 1037.20 348.10 997.40 348.10 944.70 C 348.10 894.30 465.40 861.70 646.80 861.70 C 828.30 861.70 945.60 894.30 945.60 944.70 C 945.60 997.40 817.10 1037.20 646.80 1037.20 Z M 646.80 880.40 C 453.60 880.40 366.70 918.00 366.70 944.70 C 366.70 974.90 466.40 1018.50 646.80 1018.50 C 827.20 1018.50 926.90 974.90 926.90 944.70 C 926.90 918.00 840.00 880.40 646.80 880.40 Z" fill="#22286e" fill-rule="nonzero" group-id="3,14" node-id="218" stroke="none" target-height="175.49994" target-width="597.5" target-x="348.1" target-y="861.7"></path></g><g node-id="407"><g node-id="433"><g node-id="453"><path d="M 646.80 987.30 C 542.90 987.30 459.60 951.50 399.00 880.80 C 391.10 883.70 382.60 885.50 373.90 886.10 C 371.50 886.30 369.00 886.40 366.50 886.40 C 299.50 886.40 229.80 819.70 207.80 734.50 C 194.40 682.70 200.60 633.70 224.80 600.00 C 241.40 576.80 264.90 563.40 292.60 561.10 C 291.80 544.50 291.50 527.60 291.60 510.80 C 291.60 506.00 295.40 501.90 300.20 501.60 C 464.90 489.00 559.30 483.00 650.50 483.00 C 745.90 483.00 838.30 489.70 993.60 501.60 C 998.40 502.00 1002.20 506.00 1002.20 510.80 C 1003.60 678.90 960.00 816.20 879.50 897.40 C 820.20 957.10 742.00 987.30 646.80 987.30 Z M 302.70 656.30 C 295.10 659.20 288.60 664.40 283.60 671.80 C 272.80 687.80 270.20 712.40 276.70 737.60 C 287.70 780.40 322.70 815.30 354.90 815.90 C 330.70 770.50 313.20 716.90 302.70 656.30 Z" fill="#9aa2cc" fill-rule="evenodd" group-id="3,15,41,61" node-id="227" stroke="none" target-height="504.3" target-width="809.19995" target-x="194.4" target-y="483"></path></g></g><path d="M 650.40 492.40 C 744.20 492.40 833.90 498.80 992.70 511.00 C 994.60 744.00 908.90 978.00 646.70 978.00 C 535.50 978.00 456.10 935.90 401.60 869.60 C 392.90 873.60 383.40 876.10 373.00 876.90 C 370.80 877.10 368.50 877.10 366.30 877.10 C 303.70 877.10 237.70 813.90 216.60 732.20 C 194.80 647.60 229.30 575.10 293.80 570.40 C 296.00 570.20 298.30 570.20 300.50 570.20 C 301.00 570.20 301.60 570.20 302.10 570.20 C 300.90 550.60 300.50 530.80 300.60 511.00 C 465.30 498.40 559.80 492.40 650.40 492.40 M 355.80 825.20 C 357.10 825.20 358.40 825.20 359.80 825.10 C 363.30 824.90 366.60 824.30 369.80 823.30 C 339.70 771.40 320.70 710.00 310.40 644.90 C 274.30 649.50 255.20 691.30 267.80 739.90 C 280.10 788.00 319.00 825.20 355.80 825.20 M 650.40 473.70 L 650.40 492.40 L 650.40 473.70 C 558.90 473.70 464.30 479.70 299.40 492.30 C 289.70 493.00 282.20 501.10 282.20 510.80 C 282.10 524.90 282.30 539.00 282.80 553.00 C 256.40 557.50 233.30 572.00 217.10 594.60 C 191.30 630.60 184.60 682.40 198.60 736.90 C 209.60 779.60 232.50 819.30 263.00 848.80 C 294.40 879.10 331.20 895.80 366.40 895.80 C 369.10 895.80 371.80 895.70 374.50 895.50 C 381.90 895.00 389.10 893.70 396.00 891.60 C 458.10 961.30 542.40 996.60 646.80 996.60 C 744.60 996.60 825.00 965.40 886.00 904.00 C 968.30 821.00 1012.90 681.40 1011.40 510.80 C 1011.30 501.10 1003.80 493.10 994.20 492.30 C 838.70 480.50 746.10 473.70 650.40 473.70 L 650.40 473.70 Z M 337.80 802.60 C 315.10 792.90 293.80 766.40 285.80 735.20 C 280.00 712.60 282.10 690.80 291.40 677.00 C 292.80 674.90 294.40 673.10 296.00 671.40 C 305.40 720.00 319.40 763.90 337.80 802.60 L 337.80 802.60 Z" fill="#22286e" fill-rule="nonzero" group-id="3,15,42" node-id="233" stroke="none" target-height="522.89996" target-width="828.30005" target-x="184.6" target-y="473.7"></path></g><g node-id="408"><path d="M 992.70 511.50 C 981.50 510.60 970.60 509.80 960.00 509.00 C 949.60 724.20 858.30 925.80 615.10 925.80 C 503.90 925.80 462.60 909.90 408.20 843.70 C 407.20 844.20 299.50 849.90 226.90 763.50 C 256.10 831.80 317.10 881.60 373.10 877.50 C 383.40 876.70 393.00 874.20 401.70 870.20 C 456.20 936.50 535.60 978.60 646.80 978.60 C 909.00 978.60 994.70 744.50 992.70 511.50 Z" fill="#8064a0" fill-rule="evenodd" group-id="3,16" node-id="239" stroke="none" target-height="469.59998" target-width="767.80005" target-x="226.9" target-y="509"></path></g><g node-id="409"><g node-id="435"><path d="M 646.80 596.30 C 470.20 596.30 291.50 567.00 291.50 511.00 C 291.50 455.00 470.20 425.70 646.80 425.70 C 823.30 425.70 1002.10 455.00 1002.10 511.00 C 1002.10 567.00 823.40 596.30 646.80 596.30 Z" fill="#22286e" fill-rule="evenodd" group-id="3,17,43" node-id="246" stroke="none" target-height="170.59998" target-width="710.6" target-x="291.5" target-y="425.7"></path></g><path d="M 646.80 435.00 C 837.90 435.00 992.70 469.00 992.70 511.00 C 992.70 553.00 837.80 587.00 646.80 587.00 C 455.70 587.00 300.80 553.00 300.80 511.00 C 300.90 469.00 455.70 435.00 646.80 435.00 M 646.80 416.30 C 553.10 416.30 464.80 424.40 398.20 439.00 C 320.20 456.10 282.20 479.70 282.20 511.00 C 282.20 542.30 320.10 565.80 398.20 583.00 C 464.80 597.60 553.10 605.70 646.80 605.70 C 740.50 605.70 828.80 597.60 895.40 583.00 C 973.40 565.90 1011.40 542.30 1011.40 511.00 C 1011.40 479.70 973.50 456.20 895.40 439.00 C 828.80 424.40 740.50 416.30 646.80 416.30 L 646.80 416.30 Z" fill="#22286e" fill-rule="nonzero" group-id="3,17,44" node-id="251" stroke="none" target-height="189.40002" target-width="729.2" target-x="282.2" target-y="416.3"></path></g><g node-id="410"><g node-id="437"><path d="M 646.80 596.30 C 517.10 596.30 398.50 580.50 337.30 555.10 C 334.20 553.80 332.10 551.00 331.60 547.70 C 331.40 546.50 331.30 545.30 331.30 544.10 C 331.30 489.30 520.00 469.50 646.80 469.50 C 773.60 469.50 962.30 489.40 962.30 544.10 C 962.30 545.30 962.20 546.50 962.00 547.70 C 961.60 551.00 959.40 553.80 956.30 555.10 C 895.10 580.50 776.50 596.30 646.80 596.30 Z" fill="#d9353e" fill-rule="evenodd" group-id="3,18,45" node-id="259" stroke="none" target-height="126.79999" target-width="631" target-x="331.3" target-y="469.5"></path></g><path d="M 646.80 478.70 C 815.90 478.70 953.00 508.00 953.00 544.00 C 953.00 544.80 952.90 545.60 952.80 546.40 C 894.80 570.50 779.50 586.90 646.80 586.90 C 514.10 586.90 398.90 570.50 340.80 546.40 C 340.70 545.60 340.60 544.80 340.60 544.00 C 340.60 508.00 477.70 478.70 646.80 478.70 M 646.80 460.10 C 563.70 460.10 485.50 467.00 426.40 479.60 C 355.10 494.80 321.90 515.30 321.90 544.00 C 321.90 546.10 322.10 547.80 322.30 548.90 C 323.20 555.50 327.50 561.10 333.60 563.60 C 395.90 589.50 515.90 605.50 646.70 605.50 C 777.60 605.50 897.60 589.40 959.80 563.60 C 965.90 561.00 970.30 555.40 971.10 548.80 C 971.30 547.60 971.50 546.00 971.50 544.00 C 971.50 515.20 938.30 494.80 867.00 479.60 C 808.10 467.00 729.90 460.10 646.80 460.10 L 646.80 460.10 Z" fill="#22286e" fill-rule="nonzero" group-id="3,18,46" node-id="264" stroke="none" target-height="145.4" target-width="649.6" target-x="321.9" target-y="460.1"></path></g><g node-id="411"><g node-id="439"><path d="M 727.20 563.70 C 691.00 563.70 656.20 554.20 624.00 535.30 C 621.30 533.70 619.50 530.80 619.40 527.70 C 619.30 524.50 620.70 521.50 623.30 519.70 C 649.10 501.30 682.30 472.00 714.30 443.60 C 746.80 414.90 780.40 385.20 807.00 366.20 C 808.60 365.10 810.50 364.50 812.40 364.50 C 813.10 364.50 813.70 364.60 814.40 364.70 C 896.90 382.70 901.00 429.10 898.90 448.20 C 893.10 502.60 818.40 563.70 727.20 563.70 Z" fill="#1e7cb9" fill-rule="evenodd" group-id="3,19,47" node-id="272" stroke="none" target-height="199.20001" target-width="281.7" target-x="619.3" target-y="364.5"></path></g><path d="M 812.50 373.70 C 967.60 407.60 864.40 554.30 727.20 554.30 C 695.30 554.30 661.50 546.40 628.70 527.20 C 681.20 489.80 760.00 411.10 812.50 373.70 M 812.50 355.00 C 808.60 355.00 804.90 356.20 801.70 358.50 C 774.70 377.80 740.90 407.60 708.20 436.50 C 676.30 464.70 643.30 493.90 617.90 512.00 C 612.70 515.70 609.80 521.70 610.10 528.00 C 610.40 534.30 613.90 540.10 619.30 543.30 C 653.00 563.00 689.30 573.00 727.20 573.00 C 770.70 573.00 813.90 559.50 849.00 535.10 C 883.40 511.10 905.00 479.80 908.30 449.10 C 910.60 427.50 906.40 375.20 816.50 355.50 C 815.10 355.20 813.80 355.00 812.50 355.00 L 812.50 355.00 Z" fill="#22286e" fill-rule="nonzero" group-id="3,19,48" node-id="277" stroke="none" target-height="218" target-width="357.8" target-x="609.8" target-y="355"></path></g><g node-id="412"><g node-id="441"><path d="M 608.10 568.70 C 558.50 568.70 516.00 553.80 485.40 525.70 C 483.30 523.80 482.20 521.10 482.40 518.20 C 482.60 515.40 484.00 512.80 486.30 511.20 C 528.40 481.20 571.30 436.80 612.90 393.90 C 655.00 350.40 698.60 305.40 742.00 274.50 C 743.60 273.40 745.50 272.80 747.40 272.80 C 748.50 272.80 749.60 273.00 750.70 273.40 C 864.00 316.30 871.00 376.40 865.20 408.40 C 850.40 489.30 723.00 568.70 608.10 568.70 Z" fill="#369cd0" fill-rule="evenodd" group-id="3,20,49" node-id="285" stroke="none" target-height="295.90002" target-width="388.8" target-x="482.2" target-y="272.8"></path></g><path d="M 747.40 282.20 C 989.70 374.00 780.50 559.40 608.10 559.40 C 564.30 559.40 522.80 547.40 491.80 518.90 C 577.20 457.90 662.00 343.10 747.40 282.20 M 747.40 263.50 C 743.60 263.50 739.80 264.70 736.60 267.00 C 692.50 298.50 648.60 343.70 606.20 387.50 C 564.90 430.10 522.30 474.20 480.90 503.70 C 476.30 507.00 473.50 512.10 473.10 517.70 C 472.80 523.30 475.00 528.80 479.10 532.60 C 511.50 562.30 556.10 578.10 608.10 578.10 C 663.90 578.10 725.60 559.90 777.50 528.30 C 831.40 495.40 866.70 452.30 874.40 410.10 C 880.80 375.30 873.60 310.00 754.10 264.80 C 751.90 263.90 749.70 263.50 747.40 263.50 L 747.40 263.50 Z" fill="#22286e" fill-rule="nonzero" group-id="3,20,50" node-id="290" stroke="none" target-height="314.59998" target-width="516.9" target-x="472.8" target-y="263.5"></path></g><g node-id="413"><g node-id="443"><path d="M 537.10 560.50 C 484.40 560.50 437.90 536.50 415.80 497.80 C 396.70 464.40 398.30 425.70 420.10 388.90 C 444.50 347.50 494.30 321.80 550.00 321.80 C 551.40 321.80 552.90 321.80 554.30 321.90 C 543.90 303.30 542.40 281.80 550.80 261.60 C 564.40 228.80 599.80 207.50 640.90 207.50 C 651.90 207.50 663.40 209.00 674.80 212.00 C 738.30 228.40 762.60 266.80 771.90 296.10 C 788.10 347.60 770.70 415.30 728.60 464.50 C 696.60 501.80 647.80 534.00 598.00 550.40 C 577.70 557.10 557.20 560.50 537.10 560.50 Z" fill="#73c0d7" fill-rule="evenodd" group-id="3,21,51" node-id="298" stroke="none" target-height="353" target-width="391.39996" target-x="396.7" target-y="207.5"></path></g><path d="M 640.90 216.80 C 650.90 216.80 661.40 218.10 672.50 221.00 C 799.20 253.70 784.30 384.90 721.50 458.40 C 690.00 495.20 642.90 525.70 595.10 541.50 C 575.00 548.10 555.50 551.20 537.10 551.20 C 444.10 551.20 380.70 473.70 428.10 393.60 C 450.10 356.30 496.40 331.10 550.00 331.10 C 558.00 331.10 566.10 331.70 574.40 332.80 C 528.50 287.00 568.00 216.80 640.90 216.80 M 640.90 198.10 C 596.00 198.10 557.20 221.60 542.10 257.90 C 534.60 276.10 534.00 295.10 540.00 312.60 C 485.10 315.50 436.60 342.30 412.00 384.00 C 388.80 423.30 387.20 466.40 407.70 502.30 C 431.40 543.90 481.00 569.70 537.10 569.70 C 558.20 569.70 579.70 566.10 601.00 559.10 C 653.10 541.90 702.20 509.50 735.80 470.40 C 780.00 418.80 798.10 347.50 780.90 293.10 C 771.00 261.50 744.90 220.20 677.30 202.80 C 665.00 199.70 652.80 198.10 640.90 198.10 L 640.90 198.10 Z" fill="#22286e" fill-rule="nonzero" group-id="3,21,52" node-id="303" stroke="none" target-height="371.6" target-width="418.5" target-x="380.7" target-y="198.1"></path></g><g node-id="414"><g node-id="445"><path d="M 629.40 325.10 C 593.20 288.90 610.20 237.70 654.70 217.60 C 576.20 208.50 529.30 278.60 569.40 327.30 C 588.10 323.20 608.40 322.10 629.40 325.10 Z" fill="#ffffff" fill-rule="evenodd" group-id="3,22,53" node-id="311" stroke="none" target-height="118.79999" target-width="125.400024" target-x="529.3" target-y="208.5"></path></g><path d="M 483.10 385.90 C 497.80 361.00 523.50 341.50 554.80 331.30 C 499.20 329.70 450.70 355.20 428.00 393.60 C 372.20 488.00 470.00 578.50 588.90 543.40 C 497.70 541.60 436.30 465.10 483.10 385.90 Z" fill="#ffffff" fill-rule="evenodd" group-id="3,22,54" node-id="316" stroke="none" target-height="248.79999" target-width="216.70001" target-x="372.2" target-y="329.7"></path></g><g node-id="415"><g node-id="447"><path d="M 603.90 342.20 C 585.20 342.20 570.00 327.00 570.00 308.30 C 570.00 289.60 585.20 274.40 603.90 274.40 C 622.60 274.40 637.80 289.60 637.80 308.30 C 637.80 327.00 622.60 342.20 603.90 342.20 Z" fill="#ffffff" fill-rule="evenodd" group-id="3,23,55" node-id="324" stroke="none" target-height="67.80002" target-width="67.79999" target-x="570" target-y="274.4"></path></g><path d="M 603.90 283.70 C 617.50 283.70 628.50 294.70 628.50 308.30 C 628.50 321.90 617.50 332.90 603.90 332.90 C 590.30 332.90 579.30 321.90 579.30 308.30 C 579.30 294.70 590.30 283.70 603.90 283.70 M 603.90 265.00 C 580.00 265.00 560.60 284.40 560.60 308.30 C 560.60 332.10 580.00 351.60 603.90 351.60 C 627.80 351.60 647.20 332.20 647.20 308.30 C 647.20 284.40 627.80 265.00 603.90 265.00 L 603.90 265.00 Z" fill="#22286e" fill-rule="nonzero" group-id="3,23,56" node-id="329" stroke="none" target-height="86.600006" target-width="86.60004" target-x="560.6" target-y="265"></path></g><g node-id="416"><path d="M 523.10 655.50 C 546.40 655.50 565.20 674.40 565.20 697.60 C 565.20 720.90 546.40 739.70 523.10 739.70 C 499.80 739.70 481.00 720.90 481.00 697.60 C 480.90 674.40 499.80 655.50 523.10 655.50 L 523.10 655.50 L 523.10 655.50 Z" fill="#22201f" fill-rule="evenodd" group-id="3,24" node-id="335" stroke="none" target-height="84.20001" target-width="84.30002" target-x="480.9" target-y="655.5"></path></g><g node-id="417"><g node-id="449"><path d="M 523.10 743.80 C 497.60 743.80 476.90 723.10 476.90 697.60 C 476.90 672.10 497.60 651.40 523.10 651.40 C 548.60 651.40 569.30 672.10 569.30 697.60 C 569.30 723.10 548.60 743.80 523.10 743.80 Z" fill="#ffffff" fill-rule="evenodd" group-id="3,25,57" node-id="342" stroke="none" target-height="92.39996" target-width="92.399994" target-x="476.9" target-y="651.4"></path></g><path d="M 523.10 660.80 C 543.50 660.80 560.00 677.30 560.00 697.60 C 560.00 718.00 543.50 734.50 523.10 734.50 C 502.80 734.50 486.20 718.00 486.20 697.60 C 486.20 677.30 502.70 660.80 523.10 660.80 M 523.10 642.10 C 492.50 642.10 467.60 667.00 467.60 697.60 C 467.60 728.20 492.50 753.10 523.10 753.10 C 553.70 753.10 578.60 728.20 578.60 697.60 C 578.60 667.00 553.70 642.10 523.10 642.10 L 523.10 642.10 Z" fill="#22286e" fill-rule="nonzero" group-id="3,25,58" node-id="347" stroke="none" target-height="111" target-width="110.99997" target-x="467.6" target-y="642.1"></path></g><g node-id="418"><path d="M 511.00 684.90 C 522.00 684.90 531.00 693.80 531.00 704.80 C 531.00 715.90 522.00 724.80 511.00 724.80 C 500.00 724.80 491.10 715.90 491.10 704.80 C 491.10 693.80 500.10 684.90 511.00 684.90 L 511.00 684.90 L 511.00 684.90 Z" fill="#22286e" fill-rule="evenodd" group-id="3,26" node-id="353" stroke="none" target-height="39.899963" target-width="39.899994" target-x="491.1" target-y="684.9"></path></g><g node-id="419"><path d="M 768.90 655.50 C 792.20 655.50 811.00 674.40 811.00 697.60 C 811.00 720.90 792.20 739.70 768.90 739.70 C 745.60 739.70 726.80 720.90 726.80 697.60 C 726.80 674.40 745.60 655.50 768.90 655.50 L 768.90 655.50 L 768.90 655.50 Z" fill="#22201f" fill-rule="evenodd" group-id="3,27" node-id="358" stroke="none" target-height="84.20001" target-width="84.20001" target-x="726.8" target-y="655.5"></path></g><g node-id="420"><g node-id="451"><path d="M 768.90 743.80 C 743.40 743.80 722.70 723.10 722.70 697.60 C 722.70 672.10 743.40 651.40 768.90 651.40 C 794.40 651.40 815.10 672.10 815.10 697.60 C 815.10 723.10 794.40 743.80 768.90 743.80 Z" fill="#ffffff" fill-rule="evenodd" group-id="3,28,59" node-id="365" stroke="none" target-height="92.39996" target-width="92.39996" target-x="722.7" target-y="651.4"></path></g><path d="M 768.90 660.80 C 789.30 660.80 805.80 677.30 805.80 697.60 C 805.80 718.00 789.30 734.50 768.90 734.50 C 748.50 734.50 732.00 718.00 732.00 697.60 C 732.00 677.30 748.50 660.80 768.90 660.80 M 768.90 642.10 C 738.30 642.10 713.40 667.00 713.40 697.60 C 713.40 728.20 738.30 753.10 768.90 753.10 C 799.50 753.10 824.40 728.20 824.40 697.60 C 824.40 667.00 799.50 642.10 768.90 642.10 L 768.90 642.10 Z" fill="#22286e" fill-rule="nonzero" group-id="3,28,60" node-id="370" stroke="none" target-height="111" target-width="111" target-x="713.4" target-y="642.1"></path></g><g node-id="421"><path d="M 762.10 683.70 C 773.10 683.70 782.10 692.60 782.10 703.60 C 782.10 714.70 773.10 723.60 762.10 723.60 C 751.10 723.60 742.10 714.70 742.10 703.60 C 742.10 692.60 751.10 683.70 762.10 683.70 L 762.10 683.70 L 762.10 683.70 Z" fill="#22286e" fill-rule="evenodd" group-id="3,29" node-id="376" stroke="none" target-height="39.899963" target-width="40" target-x="742.1" target-y="683.7"></path></g><g node-id="422"><path d="M 860.50 810.70 C 858.80 930.50 627.30 869.10 661.90 800.70 C 685.60 754.00 730.30 793.10 762.40 830.80 C 789.30 862.40 838.00 860.30 860.50 810.70 L 860.50 810.70 L 860.50 810.70 Z M 456.10 810.70 C 457.80 930.50 689.40 869.10 654.70 800.70 C 631.00 754.00 586.30 793.10 554.20 830.70 C 527.20 862.40 478.50 860.30 456.10 810.70 L 456.10 810.70 L 456.10 810.70 Z" fill="#22286e" fill-rule="evenodd" group-id="3,30" node-id="381" stroke="none" target-height="176.5" target-width="404.4" target-x="456.1" target-y="754"></path></g><g node-id="423"><path d="M 437.70 638.80 L 576.90 638.80 C 594.10 638.80 608.30 653.00 608.30 670.20 L 608.30 724.50 C 608.30 741.70 594.20 755.90 576.90 755.90 L 437.70 755.90 C 420.50 755.90 406.30 741.80 406.30 724.50 L 406.30 670.20 C 406.30 652.90 420.40 638.80 437.70 638.80 L 437.70 638.80 L 437.70 638.80 Z M 715.10 638.80 L 854.30 638.80 C 871.50 638.80 885.70 653.00 885.70 670.20 L 885.70 724.50 C 885.70 741.70 871.50 755.90 854.30 755.90 L 715.10 755.90 C 697.90 755.90 683.70 741.80 683.70 724.50 L 683.70 670.20 C 683.80 652.90 697.90 638.80 715.10 638.80 L 715.10 638.80 L 715.10 638.80 Z M 437.70 626.30 L 576.90 626.30 C 601.00 626.30 620.70 646.00 620.70 670.10 L 620.70 685.10 L 671.30 685.10 L 671.30 670.10 C 671.30 646.00 691.00 626.30 715.20 626.30 L 854.40 626.30 C 878.50 626.30 898.20 646.00 898.20 670.10 L 898.20 724.40 C 898.20 748.50 878.40 768.30 854.40 768.30 L 715.10 768.30 C 691.00 768.30 671.20 748.60 671.20 724.40 L 671.20 697.60 L 620.60 697.60 L 620.60 724.40 C 620.60 748.50 600.80 768.30 576.80 768.30 L 437.70 768.30 C 413.60 768.30 393.80 748.60 393.80 724.40 L 393.80 670.10 C 393.80 646.00 413.60 626.30 437.70 626.30 L 437.70 626.30 L 437.70 626.30 Z" fill="#22286e" fill-rule="evenodd" group-id="3,31" node-id="386" stroke="none" target-height="142" target-width="504.40002" target-x="393.8" target-y="626.3"></path></g><path d="M 306.70 602.90 L 301.70 570.10 C 299.10 570.10 296.50 570.10 293.90 570.30 C 229.40 575.00 194.80 647.50 216.70 732.10 C 216.80 732.60 217.00 733.10 217.10 733.60 C 224.90 589.00 306.70 602.90 306.70 602.90 Z" fill="#ffffff" fill-rule="evenodd" group-id="3,32" node-id="391" stroke="none" target-height="163.5" target-width="111.90001" target-x="194.8" target-y="570.1"></path></g></svg>