<?xml version="1.0" standalone="no"?><!DOCTYPE svg PUBLIC "-//W3C//DTD SVG 1.1//EN" "http://www.w3.org/Graphics/SVG/1.1/DTD/svg11.dtd"><svg height="1200" node-id="1" sillyvg="true" template-height="1200" template-width="1200" version="1.1" viewBox="0 0 1200 1200" width="1200" xmlns="http://www.w3.org/2000/svg" xmlns:xlink="http://www.w3.org/1999/xlink"><defs node-id="201"><clipPath id="SVGID_2_" node-id="35"><path d="M 1058.80 568.30 C 1056.50 552.70 1084.00 295.90 972.50 255.00 C 861.10 214.00 729.70 75.60 614.60 69.40 C 614.60 69.40 315.80 191.60 261.10 216.10 C 208.50 239.70 182.60 399.50 182.10 421.50 L 330.30 640.30 C 330.30 640.30 633.80 752.30 803.60 717.50 C 803.60 717.50 959.40 670.90 1027.30 598.10 C 1040.60 606.30 1059.10 570.20 1058.80 568.30 Z" fill="#000000" fill-rule="nonzero" node-id="204" stroke="none" target-height="682.89996" target-width="901.9" target-x="182.1" target-y="69.4"></path></clipPath></defs><g node-id="707"><path d="M 555.80 401.70 C 555.80 401.70 390.10 383.00 335.20 407.20 C 280.40 431.40 213.90 451.80 218.70 474.80 C 223.40 497.90 222.30 584.60 224.60 659.60 C 226.90 734.60 234.00 973.50 229.50 994.60 L 330.00 1086.40 L 692.00 1142.80 L 803.90 1083.80 C 803.90 1083.80 864.40 922.80 896.30 824.70 C 928.20 726.60 965.60 596.60 963.40 580.90 C 961.20 565.30 909.90 495.00 798.70 453.40 C 687.50 411.80 670.80 408.50 555.80 401.70 Z" fill="#de5c3b" fill-rule="nonzero" group-id="1" node-id="212" stroke="none" target-height="759.80005" target-width="751.69995" target-x="213.9" target-y="383"></path><path d="M 693.60 1152.50 L 325.70 1095.20 L 219.00 997.90 L 220.10 992.60 C 221.70 984.90 223.20 931.50 215.00 659.90 C 214.20 634.00 213.80 607.20 213.50 581.20 C 212.90 534.80 212.20 491.00 209.30 476.70 C 204.00 450.80 244.50 434.30 295.80 413.40 C 307.60 408.60 319.80 403.60 331.30 398.50 C 387.30 373.80 546.70 391.10 556.50 392.30 C 672.90 399.30 691.30 403.20 801.90 444.60 C 914.50 486.70 969.60 558.30 972.60 579.70 C 975.60 601.00 927.50 758.90 905.10 827.70 C 873.50 924.90 813.10 1085.60 812.50 1087.20 L 811.20 1090.60 L 693.60 1152.50 Z M 334.20 1077.40 L 690.20 1132.80 L 796.10 1077.00 C 805.00 1053.30 858.20 910.70 887.10 821.70 C 922.00 714.60 955.00 595.90 953.80 582.10 C 952.20 571.30 903.70 502.80 795.20 462.20 C 685.90 421.30 670.20 418.00 555.10 411.10 L 554.60 411.10 C 553.00 410.90 390.80 392.90 338.90 415.80 C 327.10 421.00 314.80 426.00 302.90 430.90 C 274.00 442.70 225.70 462.40 227.90 472.90 C 231.20 488.90 231.80 531.60 232.50 580.90 C 232.90 606.80 233.20 633.50 234.00 659.30 C 241.80 918.20 240.70 975.60 239.40 990.90 L 334.20 1077.40 Z" fill="#22286e" fill-rule="nonzero" group-id="1" node-id="214" stroke="none" target-height="778.7" target-width="771.6" target-x="204" target-y="373.8"></path></g><g node-id="708"><path d="M 327.20 1083.80 L 329.90 1086.30 L 691.90 1142.70 L 697.40 1139.80 L 790.60 757.00 L 328.00 712.90 Z" fill="#e58456" fill-rule="nonzero" group-id="2" node-id="219" stroke="none" target-height="429.79993" target-width="463.39996" target-x="327.2" target-y="712.9"></path><path d="M 691.90 1152.20 C 691.40 1152.20 690.90 1152.20 690.40 1152.10 L 328.40 1095.70 C 326.60 1095.40 324.80 1094.60 323.50 1093.30 L 320.70 1090.80 C 318.70 1089.00 317.60 1086.50 317.60 1083.80 L 318.50 712.90 C 318.50 710.20 319.60 707.70 321.60 705.90 C 323.60 704.10 326.20 703.20 328.90 703.50 L 791.50 747.60 C 794.20 747.90 796.70 749.30 798.30 751.50 C 799.90 753.70 800.40 756.60 799.80 759.20 L 706.60 1142.00 C 706.00 1144.60 704.20 1146.90 701.80 1148.10 L 696.30 1151.00 C 695.00 1151.80 693.40 1152.20 691.90 1152.20 Z M 336.70 1077.80 L 689.40 1132.70 L 778.80 765.40 L 337.50 723.30 L 336.70 1077.80 Z" fill="#22286e" fill-rule="nonzero" group-id="2" node-id="221" stroke="none" target-height="448.99994" target-width="482.80002" target-x="317.6" target-y="703.2"></path></g><g node-id="709"><g node-id="715"><path d="M 745.80 800.30 C 624.70 800.30 337.80 725.30 325.60 722.10 C 324.00 721.70 322.50 720.80 321.30 719.60 L 216.70 613.90 C 215.00 612.20 214.00 609.80 214.00 607.40 L 213.60 581.30 C 213.00 534.80 212.30 491.00 209.40 476.70 C 204.10 450.80 244.60 434.30 295.90 413.40 C 307.70 408.60 319.90 403.60 331.40 398.50 C 351.20 389.70 385.90 385.30 434.30 385.30 C 492.50 385.30 552.20 391.80 556.60 392.20 C 673.00 399.20 691.40 403.10 802.00 444.50 C 914.60 486.60 969.70 558.20 972.70 579.60 C 974.10 589.80 964.40 631.10 943.70 702.40 C 943.10 704.60 941.60 706.50 939.70 707.70 C 879.40 746.40 785.20 795.30 784.30 795.80 C 783.70 796.10 783.00 796.40 782.40 796.50 C 773.20 799.10 761.30 800.30 745.80 800.30 C 745.80 800.30 745.80 800.30 745.80 800.30 Z" fill="#f4d12c" fill-rule="nonzero" group-id="3,9" node-id="228" stroke="none" target-height="415" target-width="770" target-x="204.1" target-y="385.3"></path></g><path d="M 434.30 394.70 C 494.60 394.70 555.80 401.60 555.80 401.60 C 670.90 408.50 687.50 411.70 798.70 453.30 C 909.90 495.00 961.10 565.20 963.30 580.90 C 964.60 590.20 951.90 640.20 934.60 699.80 C 874.00 738.70 780.00 787.50 780.00 787.50 C 771.40 789.80 759.80 790.80 745.80 790.80 C 624.50 790.80 328.00 712.90 328.00 712.90 L 223.40 607.20 C 222.50 548.20 222.30 492.50 218.60 474.70 C 213.90 451.60 280.30 431.30 335.10 407.10 C 356.70 397.60 395.30 394.70 434.30 394.70 M 434.30 375.80 C 383.80 375.80 348.90 380.40 327.50 389.80 C 316.10 394.80 304.00 399.80 292.20 404.60 C 269.40 413.90 247.90 422.70 231.60 432.00 C 222.50 437.20 194.70 453.00 200.00 478.70 C 202.70 492.10 203.40 537.40 204.00 581.30 C 204.10 589.90 204.20 598.70 204.40 607.60 C 204.50 612.50 206.40 617.20 209.90 620.60 L 314.50 726.20 C 316.90 728.60 319.90 730.30 323.10 731.20 C 335.30 734.40 623.30 809.70 745.70 809.70 C 762.00 809.70 774.80 808.40 784.70 805.70 C 786.00 805.30 787.30 804.80 788.50 804.20 C 792.40 802.20 884.00 754.60 944.70 715.60 C 948.60 713.10 951.40 709.30 952.70 704.90 C 984.40 595.50 982.70 583.30 982.00 578.10 C 978.70 554.30 923.10 479.60 805.20 435.50 C 693.50 393.70 674.80 389.70 557.30 382.60 C 550.90 382.00 492.70 375.80 434.30 375.80 L 434.30 375.80 Z" fill="#22286e" fill-rule="nonzero" group-id="3,10,37" node-id="235" stroke="none" target-height="433.90002" target-width="789.7" target-x="194.7" target-y="375.8"></path></g><g node-id="710"><g node-id="717"><path d="M 735.50 736.20 C 548.90 736.20 324.00 652.00 321.80 651.20 C 319.90 650.50 318.20 649.10 317.10 647.40 L 210.40 477.20 C 209.40 475.60 208.90 473.80 209.00 471.90 C 209.60 448.60 247.70 433.00 295.90 413.40 C 307.70 408.60 319.90 403.60 331.40 398.50 C 351.20 389.70 385.90 385.30 434.30 385.30 C 492.50 385.30 552.20 391.80 556.60 392.20 C 673.00 399.20 691.40 403.10 802.00 444.50 C 914.60 486.60 969.70 558.20 972.70 579.60 C 973.00 581.60 973.10 584.90 971.80 593.10 C 971.50 595.00 970.60 596.70 969.30 598.10 C 900.90 670.50 805.30 729.00 801.30 731.50 C 800.10 732.20 798.80 732.70 797.50 732.80 C 778.30 735.10 757.40 736.20 735.50 736.20 C 735.50 736.20 735.50 736.20 735.50 736.20 Z" fill="#73c0d7" fill-rule="nonzero" group-id="4,11" node-id="244" stroke="none" target-height="350.90002" target-width="764.19995" target-x="208.9" target-y="385.3"></path></g><path d="M 434.30 394.70 C 494.60 394.70 555.80 401.60 555.80 401.60 C 670.90 408.50 687.50 411.70 798.70 453.30 C 909.90 495.00 961.10 565.20 963.30 580.90 C 963.60 582.80 963.20 586.50 962.40 591.60 C 894.10 663.90 796.40 723.40 796.40 723.40 C 776.80 725.70 756.40 726.80 735.50 726.80 C 548.40 726.80 325.10 642.40 325.10 642.40 L 218.40 472.10 C 219.00 450.10 282.40 430.40 335.10 407.10 C 356.70 397.60 395.30 394.70 434.30 394.70 M 434.30 375.80 C 383.80 375.80 348.90 380.40 327.50 389.80 C 316.10 394.80 304.00 399.80 292.30 404.60 C 238.90 426.40 200.30 442.20 199.50 471.70 C 199.40 475.40 200.40 479.10 202.40 482.30 L 309.10 652.50 C 311.30 656.00 314.60 658.70 318.50 660.20 C 327.70 663.70 547.20 745.80 735.60 745.80 C 757.90 745.80 779.10 744.60 798.70 742.30 C 801.40 742.00 804.00 741.10 806.30 739.70 C 810.40 737.20 907.00 678.10 976.30 604.70 C 978.90 602.00 980.60 598.50 981.20 594.80 C 982.40 587.30 982.70 582.40 982.20 578.40 C 978.90 554.60 923.30 479.90 805.40 435.80 C 693.70 394.00 675.00 390.00 557.50 382.90 C 550.90 382.00 492.70 375.80 434.30 375.80 L 434.30 375.80 Z" fill="#22286e" fill-rule="nonzero" group-id="4,12,38" node-id="251" stroke="none" target-height="370" target-width="783.30005" target-x="199.4" target-y="375.8"></path></g><g node-id="711"><g node-id="719"><path d="M 745.80 800.30 C 624.70 800.30 337.80 725.30 325.60 722.10 C 321.60 721.00 318.70 717.50 318.50 713.30 L 315.60 642.80 C 315.40 637.70 319.30 633.30 324.40 633.00 L 628.40 612.00 C 628.60 612.00 628.80 612.00 629.00 612.00 C 630.70 612.00 632.40 612.50 633.90 613.40 L 801.30 715.30 C 804.90 717.50 806.60 721.70 805.60 725.70 L 789.20 789.80 C 788.30 793.10 785.80 795.70 782.50 796.60 C 773.20 799.10 761.30 800.30 745.80 800.30 L 745.80 800.30 Z" fill="#f4d12c" fill-rule="nonzero" group-id="5,13" node-id="260" stroke="none" target-height="188.29999" target-width="491.19998" target-x="315.4" target-y="612"></path></g><path d="M 629.00 621.50 L 796.40 723.40 L 780.00 787.50 C 771.40 789.80 759.80 790.80 745.80 790.80 C 624.50 790.80 328.00 712.90 328.00 712.90 L 325.10 642.40 L 629.00 621.50 M 629.00 602.50 C 628.60 602.50 628.10 602.50 627.70 602.50 L 323.80 623.40 C 313.60 624.10 305.70 632.80 306.20 643.10 L 309.10 713.60 C 309.40 721.90 315.20 729.00 323.20 731.10 C 335.40 734.30 623.40 809.60 745.80 809.60 C 762.10 809.60 774.90 808.30 784.80 805.60 C 791.40 803.80 796.60 798.60 798.30 792.00 L 814.70 727.90 C 816.80 719.80 813.30 711.30 806.20 707.00 L 638.90 605.30 C 635.90 603.50 632.50 602.50 629.00 602.50 L 629.00 602.50 Z" fill="#22286e" fill-rule="nonzero" group-id="5,14,39" node-id="267" stroke="none" target-height="207.09998" target-width="511.09998" target-x="305.7" target-y="602.5"></path></g><g node-id="712"><path d="M 963.30 580.90 C 961.10 565.30 909.80 495.00 798.60 453.40 C 687.40 411.80 670.80 408.60 555.70 401.70 C 555.70 401.70 390.00 383.00 335.10 407.20 C 282.40 430.50 218.90 450.20 218.40 472.20 L 325.10 642.40 C 325.10 642.40 601.00 746.70 796.40 723.40 C 796.40 723.40 894.10 663.90 962.40 591.60 C 963.30 586.50 963.60 582.80 963.30 580.90 Z" fill="#f9fcfd" fill-rule="nonzero" group-id="6" node-id="274" stroke="none" target-height="363.7" target-width="745.19995" target-x="218.4" target-y="383"></path><path d="M 734.80 736.30 C 549.10 736.30 331.90 655.10 321.70 651.20 L 318.70 650.10 L 208.90 474.70 L 209.00 471.80 C 209.60 448.50 247.70 432.90 295.90 413.30 C 307.70 408.50 319.90 403.50 331.40 398.40 C 387.40 373.70 546.80 391.00 556.60 392.20 C 673.00 399.20 691.40 403.10 802.00 444.50 C 914.60 486.60 969.70 558.20 972.70 579.60 L 972.70 579.60 C 973.00 581.60 973.10 584.90 971.80 593.10 L 971.30 596.00 L 969.30 598.10 C 900.90 670.50 805.30 729.00 801.30 731.50 L 799.50 732.60 L 797.50 732.80 C 777.30 735.20 756.30 736.30 734.80 736.30 Z M 331.40 634.60 C 361.50 645.60 613.20 734.70 793.10 714.20 C 806.30 706.00 891.90 651.60 953.40 587.20 C 953.90 583.70 953.80 582.40 953.80 582.20 C 952.10 571.20 903.50 502.80 795.20 462.30 C 685.90 421.40 670.20 418.10 555.10 411.20 L 554.60 411.20 C 553.00 411.00 390.80 393.00 338.90 415.90 C 327.10 421.10 314.80 426.10 302.90 431.00 C 274.90 442.40 233.60 459.30 228.30 470.40 L 331.40 634.60 Z" fill="#22286e" fill-rule="nonzero" group-id="6" node-id="276" stroke="none" target-height="362.59998" target-width="764.19995" target-x="208.9" target-y="373.7"></path></g><g node-id="713"><g node-id="721"><g clip-path="url(#SVGID_2_)" group-id="7,15" node-id="281"><path d="M 351.80 710.20 C 350.90 710.20 350.00 710.10 349.10 709.80 C 346.60 709.10 344.50 707.30 343.30 704.90 L 197.20 411.50 C 195.30 407.70 196.20 403.10 199.30 400.30 L 245.20 358.40 C 247.00 356.80 249.20 355.90 251.60 355.90 C 252.10 355.90 252.50 355.90 253.00 356.00 C 255.80 356.40 258.30 358.10 259.80 360.50 C 266.30 371.30 418.90 626.10 425.80 639.90 C 428.80 645.80 436.60 661.40 356.70 708.90 C 355.20 709.80 353.50 710.20 351.80 710.20 Z" fill="#73c0d7" fill-rule="nonzero" group-id="7,15,40" node-id="285" stroke="none" target-height="354.30002" target-width="241.3" target-x="195.3" target-y="355.9"></path><path d="M 251.60 365.40 C 251.60 365.40 410.40 630.50 417.30 644.20 C 424.10 657.80 351.90 700.80 351.90 700.80 L 205.70 407.30 L 251.60 365.40 M 251.60 346.50 C 246.90 346.50 242.30 348.20 238.80 351.50 L 192.90 393.40 C 186.70 399.10 184.90 408.30 188.70 415.80 L 334.80 709.20 C 337.10 713.90 341.40 717.40 346.40 718.90 C 348.20 719.40 350.00 719.70 351.80 719.70 C 355.20 719.70 358.50 718.80 361.50 717.00 C 362.30 716.50 380.50 705.70 398.20 692.90 C 421.20 676.30 444.80 656.80 434.20 635.60 C 427.20 621.70 284.10 382.80 267.80 355.60 C 264.90 350.70 259.90 347.40 254.30 346.60 C 253.40 346.50 252.50 346.50 251.60 346.50 L 251.60 346.50 Z" fill="#22286e" fill-rule="nonzero" group-id="7,15,41,90" node-id="292" stroke="none" target-height="373.2" target-width="259.9" target-x="184.9" target-y="346.5"></path></g></g><g node-id="722"><g clip-path="url(#SVGID_2_)" group-id="7,16" node-id="297"><path d="M 351.80 710.20 C 350.90 710.20 350.00 710.10 349.10 709.80 C 346.60 709.10 344.50 707.30 343.30 704.90 L 211.10 439.30 C 208.90 434.80 210.50 429.40 214.80 426.90 C 216.30 426.00 218.00 425.60 219.60 425.60 C 222.60 425.60 225.60 427.00 227.40 429.70 L 394.70 672.40 C 397.60 676.60 396.60 682.50 392.40 685.50 C 375.10 698.00 357.40 708.50 356.70 708.90 C 355.20 709.80 353.50 710.20 351.80 710.20 Z" fill="#1e7cb9" fill-rule="nonzero" group-id="7,16,42" node-id="301" stroke="none" target-height="284.6" target-width="188.70001" target-x="208.9" target-y="425.6"></path><path d="M 219.50 435.10 L 386.80 677.80 C 369.70 690.20 351.80 700.80 351.80 700.80 L 219.50 435.10 M 219.50 416.10 C 216.20 416.10 212.90 417.00 209.90 418.70 C 201.30 423.80 198.10 434.60 202.60 443.50 L 334.90 709.20 C 337.20 713.90 341.50 717.40 346.50 718.90 C 348.30 719.40 350.10 719.70 351.90 719.70 C 355.30 719.70 358.60 718.80 361.60 717.00 C 362.40 716.50 380.40 705.80 398.00 693.10 C 406.40 687.10 408.40 675.50 402.50 667.00 L 235.20 424.30 C 231.50 419.00 225.60 416.10 219.50 416.10 L 219.50 416.10 Z" fill="#22286e" fill-rule="nonzero" group-id="7,16,43" node-id="306" stroke="none" target-height="303.6" target-width="210.29999" target-x="198.1" target-y="416.1"></path></g></g><g node-id="723"><g clip-path="url(#SVGID_2_)" group-id="7,17" node-id="310"><path d="M 452.80 714.40 C 452.30 714.40 451.90 714.40 451.40 714.30 L 357.80 700.50 C 353.30 699.80 350.00 696.10 349.70 691.60 C 344.20 587.70 326.80 247.30 331.60 230.70 C 332.80 226.60 336.60 223.90 340.70 223.90 C 341.40 223.90 342.20 224.00 342.90 224.20 C 371.20 231.10 403.60 238.20 408.80 238.20 C 409.00 238.20 409.50 238.10 410.10 238.10 C 415.40 238.10 419.30 240.60 423.60 243.10 C 428.80 246.30 435.40 250.40 447.90 252.10 C 452.50 252.80 456.00 256.70 456.10 261.40 L 462.30 704.90 C 462.30 707.70 461.20 710.30 459.10 712.20 C 457.30 713.60 455.10 714.40 452.80 714.40 Z" fill="#73c0d7" fill-rule="nonzero" group-id="7,17,44" node-id="314" stroke="none" target-height="490.50003" target-width="135.5" target-x="326.8" target-y="223.9"></path><path d="M 340.70 233.30 C 340.70 233.30 399.40 247.50 408.80 247.50 C 409.00 247.50 409.20 247.50 409.40 247.50 C 409.60 247.50 409.80 247.50 410.10 247.50 C 416.90 247.50 423.20 258.20 446.50 261.50 L 452.70 705.00 L 359.10 691.20 C 359.20 691.10 336.00 249.70 340.70 233.30 M 340.70 214.30 C 332.50 214.30 324.90 219.70 322.50 228.00 C 321.00 233.30 318.60 241.30 329.20 469.20 C 334.30 580.40 340.10 691.00 340.20 692.10 C 340.70 701.10 347.40 708.50 356.40 709.90 L 450.00 723.70 C 450.90 723.80 451.80 723.90 452.80 723.90 C 457.40 723.90 461.80 722.30 465.30 719.20 C 469.50 715.50 471.80 710.20 471.80 704.70 L 465.60 261.20 C 465.50 251.90 458.50 244.00 449.30 242.70 C 438.80 241.20 433.40 237.90 428.70 235.00 C 424.00 232.10 418.20 228.50 410.30 228.50 C 409.80 228.50 409.40 228.50 408.90 228.50 C 402.00 227.90 370.90 221.00 345.40 214.80 C 343.70 214.50 342.20 214.30 340.70 214.30 L 340.70 214.30 Z" fill="#22286e" fill-rule="nonzero" group-id="7,17,45,91" node-id="321" stroke="none" target-height="509.60004" target-width="153.19998" target-x="318.6" target-y="214.3"></path></g></g><g node-id="724"><g clip-path="url(#SVGID_2_)" group-id="7,18" node-id="326"><path d="M 452.80 714.40 C 452.30 714.40 451.90 714.40 451.40 714.30 L 414.70 708.90 C 410.10 708.20 406.70 704.30 406.60 699.60 L 402.40 247.80 C 402.40 244.90 403.70 242.10 406.00 240.30 C 407.70 238.90 409.80 238.20 411.90 238.20 C 412.60 238.20 413.40 238.30 414.10 238.50 C 417.60 239.30 420.60 241.20 423.70 243.10 C 428.90 246.30 435.50 250.40 448.00 252.10 C 452.60 252.80 456.10 256.70 456.20 261.40 L 462.40 704.90 C 462.40 707.70 461.30 710.30 459.20 712.20 C 457.30 713.60 455.10 714.40 452.80 714.40 Z" fill="#1e7cb9" fill-rule="nonzero" group-id="7,18,46" node-id="330" stroke="none" target-height="476.2" target-width="60" target-x="402.4" target-y="238.2"></path><path d="M 411.80 247.70 C 418.10 249.20 425.10 258.50 446.60 261.50 L 452.80 705.00 L 416.10 699.60 L 411.80 247.70 M 411.80 228.70 C 407.50 228.70 403.40 230.10 400.00 232.80 C 395.40 236.40 392.80 242.00 392.90 247.80 L 397.10 699.60 C 397.20 708.90 404.10 716.80 413.30 718.20 L 450.00 723.60 C 450.90 723.70 451.80 723.80 452.80 723.80 C 457.40 723.80 461.80 722.20 465.30 719.10 C 469.50 715.40 471.80 710.10 471.80 704.60 L 465.60 261.10 C 465.50 251.80 458.50 243.90 449.30 242.60 C 438.80 241.10 433.40 237.80 428.70 234.90 C 425.20 232.80 421.30 230.30 416.30 229.20 C 414.70 228.90 413.30 228.70 411.80 228.70 L 411.80 228.70 Z" fill="#22286e" fill-rule="nonzero" group-id="7,18,47" node-id="335" stroke="none" target-height="495.09998" target-width="79" target-x="392.8" target-y="228.7"></path></g></g><g node-id="725"><g clip-path="url(#SVGID_2_)" group-id="7,19" node-id="339"><path d="M 515.70 765.50 C 514.40 765.50 513.10 765.20 511.90 764.70 L 464.20 743.70 C 460.20 741.90 458.00 737.70 458.70 733.40 C 475.90 632.40 562.90 126.90 590.50 94.60 C 592.40 92.40 595.00 91.30 597.70 91.30 C 599.80 91.30 602.00 92.00 603.80 93.50 C 604.10 93.70 634.10 118.70 664.00 129.90 C 666.30 130.80 668.20 132.50 669.30 134.80 L 705.50 213.60 C 706.50 215.80 706.60 218.30 705.90 220.60 L 524.70 759.10 C 523.90 761.60 522.00 763.70 519.50 764.70 C 518.30 765.30 517.00 765.50 515.70 765.50 Z" fill="#73c0d7" fill-rule="nonzero" group-id="7,19,48" node-id="343" stroke="none" target-height="674.2" target-width="248.59998" target-x="458" target-y="91.3"></path><path d="M 597.70 100.90 C 597.70 100.90 628.80 126.90 660.60 138.90 L 696.80 217.70 L 515.70 756.10 L 468.00 735.10 C 468.00 735.10 570.40 132.80 597.70 100.90 M 597.70 81.90 C 592.40 81.90 587.00 84.10 583.30 88.50 C 576.70 96.20 562.90 112.30 504.00 426.40 C 475.30 579.30 449.60 730.30 449.40 731.80 C 447.90 740.40 452.50 748.80 460.40 752.30 L 508.10 773.30 C 510.50 774.40 513.10 774.90 515.70 774.90 C 518.30 774.90 520.90 774.40 523.40 773.30 C 528.30 771.20 532.00 767.10 533.70 762.00 L 714.80 223.70 C 716.30 219.10 716.10 214.10 714.10 209.70 L 677.90 131.00 C 675.80 126.50 672.00 122.90 667.40 121.20 C 639.10 110.50 610.20 86.60 609.90 86.40 C 606.30 83.40 602.00 81.90 597.70 81.90 L 597.70 81.90 Z" fill="#22286e" fill-rule="nonzero" group-id="7,19,49,92" node-id="350" stroke="none" target-height="693" target-width="268.4" target-x="447.9" target-y="81.9"></path></g></g><g node-id="726"><g clip-path="url(#SVGID_2_)" group-id="7,20" node-id="355"><path d="M 515.70 765.50 C 514.40 765.50 513.10 765.20 511.90 764.70 L 496.90 758.10 C 492.60 756.20 490.40 751.50 491.60 747.00 L 653.90 141.60 C 654.90 137.70 658.30 134.90 662.30 134.60 C 662.60 134.60 662.80 134.60 663.10 134.60 C 666.80 134.60 670.20 136.70 671.70 140.10 L 705.50 213.80 C 706.50 216.00 706.60 218.50 705.90 220.80 L 524.70 759.10 C 523.90 761.60 522.00 763.70 519.50 764.70 C 518.30 765.30 517.00 765.50 515.70 765.50 Z" fill="#1e7cb9" fill-rule="nonzero" group-id="7,20,50" node-id="359" stroke="none" target-height="630.9" target-width="216.19998" target-x="490.4" target-y="134.6"></path><path d="M 663.00 144.00 L 696.80 217.70 L 515.70 756.10 L 500.70 749.50 L 663.00 144.00 M 663.00 125.10 C 662.50 125.10 661.90 125.10 661.40 125.20 C 653.40 125.90 646.80 131.50 644.70 139.20 L 482.40 744.50 C 480.00 753.50 484.50 763.00 493.10 766.80 L 508.10 773.40 C 510.50 774.50 513.10 775.00 515.70 775.00 C 518.30 775.00 520.90 774.50 523.40 773.40 C 528.30 771.30 532.00 767.20 533.70 762.10 L 714.80 223.80 C 716.30 219.20 716.10 214.20 714.10 209.80 L 680.30 136.10 C 677.10 129.30 670.30 125.10 663.00 125.10 L 663.00 125.10 Z" fill="#22286e" fill-rule="nonzero" group-id="7,20,51" node-id="364" stroke="none" target-height="649.9" target-width="236.29999" target-x="480" target-y="125.1"></path></g></g><g node-id="727"><g clip-path="url(#SVGID_2_)" group-id="7,21" node-id="368"><path d="M 693.60 662.20 C 693.00 662.20 692.30 662.10 691.70 662.00 L 611.10 645.30 C 606.50 644.30 603.20 640.10 603.60 635.40 C 610.40 532.10 622.70 357.10 628.50 345.80 C 629.90 343.20 632.40 341.30 635.30 340.80 C 635.90 340.70 649.50 338.40 661.90 338.40 C 670.20 338.40 676.00 339.40 680.30 341.40 C 681.30 341.90 682.30 342.60 683.10 343.40 L 714.80 376.70 C 716.70 378.70 717.70 381.50 717.30 384.30 C 704.40 500.30 694.70 632.30 702.20 648.60 C 703.70 651.80 703.20 655.70 701.00 658.50 C 699.20 660.90 696.50 662.20 693.60 662.20 Z" fill="#73c0d7" fill-rule="nonzero" group-id="7,21,52" node-id="372" stroke="none" target-height="323.80002" target-width="114.5" target-x="603.2" target-y="338.4"></path><path d="M 661.90 348.00 C 667.60 348.00 673.00 348.50 676.20 350.10 L 707.90 383.40 C 707.90 383.40 680.90 625.20 693.60 652.70 L 613.00 636.10 C 613.00 636.10 631.10 361.40 636.90 350.20 C 636.90 350.20 650.20 348.00 661.90 348.00 M 661.90 329.00 C 661.90 329.00 661.90 329.00 661.90 329.00 C 648.70 329.00 634.30 331.40 633.70 331.50 C 627.80 332.50 622.80 336.20 620.00 341.50 C 617.30 346.60 614.60 351.90 603.80 495.90 C 598.60 565.20 594.10 634.10 594.00 634.80 C 593.40 644.20 599.80 652.70 609.10 654.60 L 689.70 671.30 C 691.00 671.60 692.30 671.70 693.50 671.70 C 699.20 671.70 704.70 669.10 708.30 664.50 C 712.70 659.00 713.60 651.50 710.80 645.10 C 704.70 626.10 714.00 498.30 726.60 385.50 C 727.20 379.90 725.40 374.40 721.50 370.30 L 690.00 337.00 C 688.40 335.30 686.60 334.00 684.50 333.00 C 678.80 330.30 671.60 329.00 661.90 329.00 L 661.90 329.00 Z" fill="#22286e" fill-rule="nonzero" group-id="7,21,53,93" node-id="379" stroke="none" target-height="342.7" target-width="133.79999" target-x="593.4" target-y="329"></path></g></g><g node-id="728"><g clip-path="url(#SVGID_2_)" group-id="7,22" node-id="384"><path d="M 693.60 662.20 C 693.00 662.20 692.30 662.10 691.70 662.00 L 656.20 654.70 C 651.50 653.70 648.30 649.40 648.70 644.70 L 671.90 354.70 C 672.20 351.00 674.70 347.80 678.20 346.50 C 679.20 346.10 680.30 346.00 681.40 346.00 C 683.90 346.00 686.40 347.00 688.30 348.90 L 714.90 376.90 C 716.80 378.90 717.80 381.70 717.40 384.50 C 704.50 500.50 694.80 632.50 702.30 648.80 C 703.80 652.00 703.30 655.90 701.10 658.70 C 699.20 660.90 696.50 662.20 693.60 662.20 Z" fill="#1e7cb9" fill-rule="nonzero" group-id="7,22,54" node-id="388" stroke="none" target-height="316.2" target-width="69.5" target-x="648.3" target-y="346"></path><path d="M 681.30 355.40 L 707.90 383.40 C 707.90 383.40 680.90 625.20 693.60 652.70 L 658.10 645.40 L 681.30 355.40 M 681.30 336.50 C 679.20 336.50 677.00 336.90 675.00 337.60 C 667.90 340.10 663.00 346.50 662.40 354.00 L 639.20 644.00 C 638.40 653.50 644.90 662.10 654.30 664.10 L 689.80 671.40 C 691.10 671.70 692.40 671.80 693.60 671.80 C 699.30 671.80 704.80 669.20 708.40 664.60 C 712.80 659.10 713.70 651.60 710.90 645.20 C 704.80 626.20 714.10 498.40 726.70 385.60 C 727.30 380.00 725.50 374.50 721.60 370.40 L 695.00 342.40 C 691.40 338.50 686.40 336.50 681.30 336.50 L 681.30 336.50 Z" fill="#22286e" fill-rule="nonzero" group-id="7,22,55" node-id="393" stroke="none" target-height="335.3" target-width="88.89996" target-x="638.4" target-y="336.5"></path></g></g><g node-id="729"><g clip-path="url(#SVGID_2_)" group-id="7,23" node-id="397"><path d="M 482.60 744.30 C 481.40 744.30 480.30 744.10 479.20 743.70 L 425.60 723.00 C 421.70 721.50 419.20 717.50 419.60 713.30 L 465.90 209.00 C 466.30 204.80 469.40 201.40 473.50 200.60 L 505.10 194.40 C 505.70 194.30 506.30 194.20 506.90 194.20 C 508.70 194.20 510.40 194.70 512.00 195.70 C 516.20 198.30 553.00 222.30 560.30 246.40 C 560.70 247.70 560.80 249.10 560.60 250.50 L 492.00 736.10 C 491.60 739.00 489.90 741.50 487.40 742.90 C 485.90 743.80 484.30 744.30 482.60 744.30 Z" fill="#73c0d7" fill-rule="nonzero" group-id="7,23,56" node-id="401" stroke="none" target-height="550.1" target-width="141.59998" target-x="419.2" target-y="194.2"></path><path d="M 506.90 203.70 C 506.90 203.70 544.70 227.70 551.30 249.20 L 482.60 734.80 L 429.00 714.10 L 475.30 209.90 L 506.90 203.70 M 506.90 184.70 C 505.70 184.70 504.50 184.80 503.30 185.10 L 471.70 191.30 C 463.40 192.90 457.20 199.80 456.50 208.20 L 410.20 712.40 C 409.40 720.80 414.30 728.80 422.20 731.80 L 475.80 752.50 C 478.00 753.40 480.30 753.80 482.60 753.80 C 485.90 753.80 489.20 752.90 492.20 751.20 C 497.20 748.30 500.60 743.20 501.40 737.50 L 570.00 251.80 C 570.40 249.10 570.20 246.30 569.40 243.60 C 561.20 216.70 524.40 192.30 517.10 187.60 C 514.00 185.70 510.50 184.70 506.90 184.70 L 506.90 184.70 Z" fill="#22286e" fill-rule="nonzero" group-id="7,23,57,94" node-id="408" stroke="none" target-height="569.1" target-width="161.00003" target-x="409.4" target-y="184.7"></path></g></g><g node-id="730"><g clip-path="url(#SVGID_2_)" group-id="7,24" node-id="413"><path d="M 487.80 707.80 C 486.80 707.80 485.70 707.60 484.80 707.30 L 457.40 698.00 C 453.20 696.60 450.60 692.50 451.00 688.10 L 497.50 202.70 C 497.80 199.40 499.80 196.50 502.80 195.10 C 504.10 194.50 505.50 194.10 507.00 194.10 C 508.80 194.10 510.50 194.60 512.10 195.60 C 516.30 198.20 553.10 222.20 560.40 246.30 C 560.80 247.60 560.90 249.00 560.70 250.40 L 497.20 699.50 C 496.80 702.30 495.20 704.80 492.80 706.20 C 491.20 707.30 489.50 707.80 487.80 707.80 Z" fill="#1e7cb9" fill-rule="nonzero" group-id="7,24,58" node-id="417" stroke="none" target-height="513.69995" target-width="110.30002" target-x="450.6" target-y="194.1"></path><path d="M 506.90 203.70 C 506.90 203.70 544.70 227.70 551.30 249.20 L 487.80 698.40 L 460.40 689.10 L 506.90 203.70 M 506.90 184.70 C 504.10 184.70 501.20 185.30 498.60 186.60 C 492.70 189.50 488.70 195.30 488.10 201.80 L 441.60 687.20 C 440.80 696.00 446.00 704.10 454.40 707.00 L 481.80 716.30 C 483.80 717.00 485.80 717.30 487.90 717.30 C 491.40 717.30 494.80 716.30 497.80 714.50 C 502.60 711.50 505.80 706.60 506.60 701.00 L 570.00 251.80 C 570.40 249.10 570.20 246.30 569.40 243.60 C 561.20 216.70 524.40 192.30 517.10 187.60 C 514.00 185.70 510.50 184.70 506.90 184.70 L 506.90 184.70 Z" fill="#22286e" fill-rule="nonzero" group-id="7,24,59" node-id="422" stroke="none" target-height="532.6" target-width="129.60004" target-x="440.8" target-y="184.7"></path></g></g><g node-id="731"><g clip-path="url(#SVGID_2_)" group-id="7,25" node-id="426"><path d="M 699.20 794.20 C 696.20 794.20 693.30 792.70 691.50 790.30 C 682.20 777.30 462.40 470.80 431.00 377.20 C 429.80 373.50 430.90 369.40 433.90 366.90 L 472.60 334.90 C 474.30 333.50 476.50 332.70 478.60 332.70 C 479.80 332.70 481.00 332.90 482.10 333.40 L 540.70 356.50 C 542.90 357.40 544.70 359.00 545.70 361.20 C 607.30 488.00 726.50 732.70 737.70 751.10 C 743.80 761.10 742.20 769.10 739.80 774.00 C 732.00 789.80 705.50 793.60 700.30 794.20 C 700.00 794.20 699.60 794.20 699.20 794.20 Z" fill="#73c0d7" fill-rule="nonzero" group-id="7,25,60" node-id="430" stroke="none" target-height="461.5" target-width="314" target-x="429.8" target-y="332.7"></path><path d="M 478.70 342.20 L 537.30 365.30 C 537.30 365.30 715.10 732.40 729.50 756.00 C 743.90 779.70 699.20 784.70 699.20 784.70 C 699.20 784.70 471.40 467.50 440.10 374.20 L 478.70 342.20 M 478.70 323.20 C 474.40 323.20 470.10 324.70 466.60 327.50 L 427.90 359.50 C 421.90 364.50 419.50 372.70 422.00 380.10 C 453.90 475.00 674.40 782.70 683.80 795.70 C 687.40 800.70 693.10 803.60 699.20 803.60 C 699.90 803.60 700.60 803.60 701.30 803.50 C 709.90 802.50 738.60 797.80 748.20 778.10 C 751.00 772.30 754.40 760.50 745.70 746.10 C 735.50 729.30 625.70 504.20 554.30 357.00 C 552.20 352.70 548.60 349.40 544.20 347.60 L 485.60 324.50 C 483.40 323.70 481.10 323.20 478.70 323.20 L 478.70 323.20 Z" fill="#22286e" fill-rule="nonzero" group-id="7,25,61,95" node-id="437" stroke="none" target-height="480.39996" target-width="334.90002" target-x="419.5" target-y="323.2"></path></g></g><g node-id="732"><g clip-path="url(#SVGID_2_)" group-id="7,26" node-id="442"><path d="M 727.40 800.10 C 724.00 800.10 720.80 798.30 719.10 795.20 L 473.50 347.90 C 471.60 344.40 472.10 340.10 474.70 337.10 C 476.50 335.00 479.10 333.90 481.80 333.90 C 483.00 333.90 484.10 334.10 485.30 334.60 L 540.90 356.50 C 543.10 357.40 544.90 359.00 545.90 361.20 C 609.60 492.10 732.90 744.60 744.10 763.00 C 749.20 771.40 748.80 778.30 747.50 782.60 C 745.50 789.40 740.10 795.00 731.50 799.20 C 730.20 799.70 728.80 800.10 727.40 800.10 Z" fill="#1e7cb9" fill-rule="nonzero" group-id="7,26,62" node-id="446" stroke="none" target-height="466.19998" target-width="277.6" target-x="471.6" target-y="333.9"></path><path d="M 481.80 343.40 L 537.40 365.30 C 537.40 365.30 721.60 744.20 736.10 767.90 C 743.00 779.20 736.30 786.30 727.50 790.60 L 481.80 343.40 M 481.80 324.40 C 476.50 324.40 471.20 326.70 467.60 330.80 C 462.30 336.80 461.40 345.50 465.20 352.50 L 710.80 799.70 C 714.20 806.00 720.70 809.50 727.40 809.50 C 730.20 809.50 733.00 808.90 735.60 807.60 C 749.40 800.90 754.60 791.70 756.60 785.20 C 758.40 779.10 759.10 769.40 752.20 758.00 C 742.00 741.20 628.30 509.00 554.40 357.00 C 552.30 352.70 548.70 349.40 544.30 347.70 L 488.70 325.80 C 486.50 324.90 484.10 324.40 481.80 324.40 L 481.80 324.40 Z" fill="#22286e" fill-rule="nonzero" group-id="7,26,63" node-id="451" stroke="none" target-height="485.1" target-width="297.69998" target-x="461.4" target-y="324.4"></path></g></g><g node-id="733"><g clip-path="url(#SVGID_2_)" group-id="7,27" node-id="455"><path d="M 686.30 785.10 C 683.70 785.00 681.30 783.80 679.60 781.80 C 677.90 779.80 677.10 777.30 677.30 774.70 L 721.00 321.50 C 721.30 318.60 722.80 316.10 725.20 314.50 C 726.80 313.50 728.60 312.90 730.40 312.90 C 731.40 312.90 732.30 313.00 733.30 313.30 L 789.40 331.20 C 793.60 332.60 796.40 336.70 796.00 341.10 C 789.70 410.90 757.60 760.00 748.90 781.90 C 747.50 785.50 744.00 787.90 740.10 787.90 C 739.90 787.80 686.30 785.10 686.30 785.10 Z" fill="#73c0d7" fill-rule="nonzero" group-id="7,27,64" node-id="459" stroke="none" target-height="475.00003" target-width="119.30005" target-x="677.1" target-y="312.9"></path><path d="M 730.50 322.40 L 786.60 340.30 C 786.60 340.30 748.80 756.80 740.20 778.40 L 686.90 775.70 L 730.50 322.40 M 730.50 303.40 C 726.80 303.40 723.20 304.50 720.10 306.50 C 715.30 309.70 712.20 314.80 711.70 320.50 L 668.00 773.70 C 667.50 778.90 669.10 784.00 672.50 787.90 C 675.90 791.80 680.70 794.20 685.90 794.50 L 739.20 797.20 C 739.50 797.20 739.90 797.20 740.20 797.20 C 747.90 797.20 754.90 792.50 757.80 785.20 C 766.70 762.70 796.60 440.10 805.50 341.80 C 806.30 332.90 800.80 324.70 792.40 322.00 L 736.30 304.10 C 734.30 303.70 732.40 303.40 730.50 303.40 L 730.50 303.40 Z" fill="#22286e" fill-rule="nonzero" group-id="7,27,65,96" node-id="466" stroke="none" target-height="493.80002" target-width="138.79999" target-x="667.5" target-y="303.4"></path></g></g><g node-id="734"><g clip-path="url(#SVGID_2_)" group-id="7,28" node-id="471"><path d="M 728.30 787.20 C 725.80 787.10 723.40 785.90 721.70 784.00 C 720.00 782.10 719.20 779.60 719.30 777.00 L 752.00 331.60 C 752.20 328.70 753.70 326.10 756.10 324.40 C 757.70 323.30 759.50 322.80 761.40 322.80 C 762.40 322.80 763.30 322.90 764.30 323.20 L 789.40 331.20 C 793.60 332.60 796.40 336.70 796.00 341.10 C 789.70 410.90 757.60 760.00 748.90 781.90 C 747.50 785.50 744.00 787.90 740.10 787.90 C 739.90 787.80 728.30 787.20 728.30 787.20 Z" fill="#1e7cb9" fill-rule="nonzero" group-id="7,28,66" node-id="475" stroke="none" target-height="465.10004" target-width="77.20001" target-x="719.2" target-y="322.8"></path><path d="M 761.40 332.20 L 786.50 340.20 C 786.50 340.20 748.70 756.70 740.10 778.30 L 728.80 777.70 L 761.40 332.20 M 761.40 313.30 C 757.70 313.30 754.00 314.40 750.80 316.60 C 746.00 319.90 742.90 325.10 742.50 330.90 L 709.80 776.40 C 709.40 781.50 711.10 786.50 714.50 790.30 C 717.90 794.10 722.60 796.40 727.70 796.70 L 739.00 797.30 C 739.30 797.30 739.70 797.30 740.00 797.30 C 747.70 797.30 754.70 792.60 757.60 785.30 C 766.50 762.80 796.40 440.20 805.30 341.90 C 806.10 333.00 800.60 324.80 792.20 322.10 L 767.10 314.10 C 765.30 313.60 763.40 313.30 761.40 313.30 L 761.40 313.30 Z" fill="#22286e" fill-rule="nonzero" group-id="7,28,67" node-id="480" stroke="none" target-height="484" target-width="96.69995" target-x="709.4" target-y="313.3"></path></g></g><g node-id="735"><g clip-path="url(#SVGID_2_)" group-id="7,29" node-id="484"><path d="M 650.20 780.10 C 647.00 780.10 644.10 778.50 642.30 775.90 C 640.40 773.00 640.20 769.30 641.80 766.20 L 717.10 624.60 C 718.00 623.00 719.30 621.60 720.90 620.80 C 723.00 619.60 929.80 505.20 969.10 470.20 C 970.90 468.60 973.10 467.80 975.40 467.80 C 976.00 467.80 976.70 467.90 977.30 468.00 L 1023.60 477.60 C 1026.60 478.20 1029.10 480.20 1030.30 483.00 C 1041.70 508.30 1059.30 553.00 1049.80 567.90 C 1048.90 569.30 1047.60 570.50 1046.10 571.30 C 1044.00 572.40 836.80 679.00 784.50 724.50 C 729.10 772.70 654.10 780.00 650.90 780.20 C 650.80 780.10 650.50 780.10 650.20 780.10 Z" fill="#1e7cb9" fill-rule="nonzero" group-id="7,29,68" node-id="488" stroke="none" target-height="312.40002" target-width="419.10004" target-x="640.2" target-y="467.8"></path><path d="M 975.50 477.20 L 1021.80 486.80 C 1021.80 486.80 1050.10 549.90 1041.90 562.80 C 1041.90 562.80 832.20 670.50 778.40 717.20 C 724.60 764.00 650.20 770.60 650.20 770.60 L 725.50 629.00 C 725.50 629.10 934.90 513.40 975.50 477.20 M 975.50 458.30 C 970.90 458.30 966.40 460.00 962.90 463.10 C 930.90 491.60 774.10 580.60 716.40 612.50 C 713.20 614.30 710.60 616.90 708.80 620.20 L 633.50 761.80 C 630.20 767.90 630.60 775.40 634.40 781.20 C 637.90 786.50 643.90 789.70 650.20 789.70 C 650.80 789.70 651.30 789.70 651.90 789.60 C 655.20 789.30 733.10 781.80 790.80 731.60 C 842.20 686.90 1048.40 580.80 1050.50 579.70 C 1053.50 578.20 1056.00 575.80 1057.80 573.00 C 1065.00 561.60 1063.60 545.00 1052.70 513.80 C 1046.40 495.80 1039.30 479.80 1039.00 479.10 C 1036.50 473.50 1031.50 469.50 1025.50 468.30 L 979.20 458.70 C 978.00 458.40 976.70 458.30 975.50 458.30 L 975.50 458.30 Z" fill="#22286e" fill-rule="nonzero" group-id="7,29,69,97" node-id="495" stroke="none" target-height="331.40002" target-width="434.8" target-x="630.2" target-y="458.3"></path></g></g><g node-id="736"><g clip-path="url(#SVGID_2_)" group-id="7,30" node-id="500"><path d="M 651.10 778.50 C 649.00 778.50 646.90 777.80 645.20 776.40 C 641.60 773.60 640.60 768.60 642.80 764.50 L 717.20 624.60 C 718.10 623.00 719.40 621.60 721.00 620.80 C 723.10 619.60 929.90 505.20 969.20 470.20 C 971.00 468.60 973.20 467.80 975.50 467.80 C 976.10 467.80 976.80 467.90 977.40 468.00 L 1023.60 477.50 C 1027.30 478.30 1030.10 481.10 1030.90 484.70 C 1031.70 488.40 1030.30 492.10 1027.30 494.40 C 956.80 546.50 722.00 720.60 657.30 776.20 C 655.50 777.80 653.30 778.50 651.10 778.50 Z" fill="#73c0d7" fill-rule="nonzero" group-id="7,30,70" node-id="504" stroke="none" target-height="310.7" target-width="391.09998" target-x="640.6" target-y="467.8"></path><path d="M 975.50 477.20 L 1021.70 486.70 C 954.10 536.70 716.40 712.90 651.10 769.00 L 725.50 629.10 C 725.50 629.10 934.90 513.40 975.50 477.20 M 975.50 458.30 C 970.90 458.30 966.40 460.00 962.90 463.10 C 930.90 491.60 774.10 580.60 716.40 612.50 C 713.20 614.30 710.60 616.90 708.80 620.20 L 634.40 760.10 C 630.10 768.10 632.20 778.10 639.30 783.80 C 642.80 786.60 647.00 788.00 651.10 788.00 C 655.50 788.00 659.90 786.50 663.50 783.40 C 727.90 728.00 962.50 554.00 1032.90 502.00 C 1038.90 497.60 1041.80 490.00 1040.10 482.70 C 1038.50 475.40 1032.70 469.70 1025.40 468.20 L 979.20 458.70 C 978.00 458.40 976.70 458.30 975.50 458.30 L 975.50 458.30 Z" fill="#22286e" fill-rule="nonzero" group-id="7,30,71" node-id="509" stroke="none" target-height="329.7" target-width="411.70007" target-x="630.1" target-y="458.3"></path></g></g><g node-id="737"><g clip-path="url(#SVGID_2_)" group-id="7,31" node-id="513"><path d="M 670.50 817.40 C 668.90 817.40 667.30 817.00 665.80 816.10 L 602.60 779.70 C 600.20 778.30 598.50 776.00 598.00 773.30 C 597.50 770.60 598.20 767.80 599.90 765.60 C 718.00 617.60 895.50 384.40 900.70 348.30 C 901.20 344.90 903.50 342.00 906.70 340.80 C 907.80 340.40 909.00 340.20 910.10 340.20 C 912.30 340.20 914.40 341.00 916.20 342.40 L 976.20 392.40 C 978.00 393.90 979.20 396.00 979.50 398.40 C 979.50 398.60 983.10 420.90 1003.50 435.60 C 1005.70 437.20 1007.10 439.60 1007.40 442.30 C 1007.70 445.00 1006.80 447.60 1005.00 449.60 L 677.50 814.30 C 675.70 816.40 673.10 817.40 670.50 817.40 Z" fill="#1e7cb9" fill-rule="nonzero" group-id="7,31,72" node-id="517" stroke="none" target-height="477.2" target-width="410.2" target-x="597.5" target-y="340.2"></path><path d="M 910.10 349.80 L 970.10 399.80 C 970.10 399.80 973.70 426.00 997.90 443.40 L 670.50 808.00 L 607.30 771.60 C 607.30 771.60 902.60 401.50 910.10 349.80 M 910.10 330.90 C 907.80 330.90 905.50 331.30 903.30 332.20 C 896.90 334.70 892.30 340.40 891.30 347.20 C 890.20 353.90 875.90 389.80 740.20 569.50 C 666.60 666.90 593.20 759.00 592.50 759.90 C 589.10 764.20 587.70 769.80 588.70 775.30 C 589.70 780.70 593.10 785.40 597.90 788.20 L 661.10 824.60 C 664.10 826.30 667.30 827.10 670.50 827.10 C 675.70 827.10 680.90 824.90 684.60 820.80 L 1012.00 456.10 C 1015.60 452.10 1017.30 446.80 1016.70 441.40 C 1016.10 436.00 1013.30 431.20 1008.90 428.10 C 992.00 415.90 988.80 397.40 988.70 397.20 C 988.10 392.50 985.70 388.30 982.10 385.20 L 922.10 335.20 C 918.80 332.40 914.40 330.90 910.10 330.90 L 910.10 330.90 Z" fill="#22286e" fill-rule="nonzero" group-id="7,31,73" node-id="522" stroke="none" target-height="496.19998" target-width="429.59998" target-x="587.7" target-y="330.9"></path></g></g><g node-id="738"><g clip-path="url(#SVGID_2_)" group-id="7,32" node-id="526"><path d="M 646.80 835.80 C 645.20 835.80 643.60 835.40 642.10 834.50 L 584.40 801.30 C 582.00 799.90 580.30 797.60 579.80 794.80 C 579.30 792.10 580.00 789.30 581.70 787.10 C 707.10 630.50 895.50 384.40 900.70 348.40 C 901.20 345.00 903.50 342.10 906.70 340.90 C 907.80 340.50 909.00 340.30 910.10 340.30 C 912.30 340.30 914.40 341.10 916.20 342.50 L 974.00 390.60 C 977.90 393.80 978.50 399.50 975.50 403.60 L 654.40 832.00 C 652.50 834.50 649.70 835.80 646.80 835.80 Z" fill="#73c0d7" fill-rule="nonzero" group-id="7,32,74" node-id="530" stroke="none" target-height="495.5" target-width="399.2" target-x="579.3" target-y="340.3"></path><path d="M 910.10 349.80 L 967.90 397.90 L 646.80 826.30 L 589.10 793.10 C 589.10 793.10 902.60 401.50 910.10 349.80 M 910.10 330.90 C 907.80 330.90 905.50 331.30 903.30 332.20 C 896.90 334.70 892.30 340.40 891.30 347.10 C 890.10 354.00 874.80 391.20 730.80 580.50 C 652.80 683.10 575.00 780.30 574.20 781.30 C 570.70 785.60 569.30 791.20 570.40 796.70 C 571.40 802.10 574.80 806.90 579.60 809.60 L 637.30 842.80 C 640.30 844.50 643.50 845.30 646.70 845.30 C 652.50 845.30 658.20 842.60 661.90 837.70 L 983.00 409.30 C 989.10 401.20 987.70 389.80 980.00 383.40 L 922.20 335.30 C 918.80 332.40 914.40 330.90 910.10 330.90 L 910.10 330.90 Z" fill="#22286e" fill-rule="nonzero" group-id="7,32,75,98" node-id="537" stroke="none" target-height="514.4" target-width="419.8" target-x="569.3" target-y="330.9"></path></g></g><g node-id="739"><g clip-path="url(#SVGID_2_)" group-id="7,33" node-id="542"><path d="M 581.60 761.60 C 580.50 761.60 579.40 761.40 578.30 761.00 L 537.20 745.70 C 534.70 744.80 532.70 742.80 531.70 740.30 C 530.70 737.80 530.80 735.00 532.00 732.60 C 533.10 730.30 644.00 505.50 849.50 400.20 C 850.90 399.50 852.40 399.20 853.80 399.20 C 856.40 399.20 859.00 400.30 860.80 402.30 C 863.50 405.30 887.60 432.30 890.70 454.40 C 890.90 455.50 890.80 456.60 890.60 457.60 L 883.50 492.00 C 883.00 494.40 881.60 496.50 879.60 497.90 C 877.40 499.40 661.10 649.70 589.50 757.40 C 587.70 760.10 584.70 761.60 581.60 761.60 Z" fill="#73c0d7" fill-rule="nonzero" group-id="7,33,76" node-id="546" stroke="none" target-height="362.39996" target-width="360.2" target-x="530.7" target-y="399.2"></path><path d="M 853.80 408.70 C 853.80 408.70 878.50 435.90 881.30 455.70 L 874.20 490.10 C 874.20 490.10 655.00 641.70 581.60 752.10 L 540.50 736.80 C 540.50 736.80 648.80 513.80 853.80 408.70 M 853.80 389.70 C 850.90 389.70 847.90 390.40 845.20 391.80 C 736.10 447.70 654.50 536.20 605.30 600.60 C 552.10 670.20 524.70 726.20 523.50 728.50 C 521.20 733.30 521.00 738.90 523.00 743.80 C 525.00 748.80 529.00 752.60 534.00 754.50 L 575.10 769.80 C 577.30 770.60 579.50 771.00 581.70 771.00 C 587.90 771.00 593.90 767.90 597.50 762.50 C 668.00 656.40 882.80 507.20 885.00 505.70 C 889.00 502.90 891.80 498.70 892.80 493.90 L 899.90 459.50 C 900.30 457.40 900.40 455.20 900.10 453.00 C 896.70 428.60 872.60 401.10 867.90 395.80 C 864.20 391.90 859.00 389.70 853.80 389.70 L 853.80 389.70 Z" fill="#22286e" fill-rule="nonzero" group-id="7,33,77,99" node-id="553" stroke="none" target-height="381.3" target-width="379.40002" target-x="521" target-y="389.7"></path></g></g><g clip-path="url(#SVGID_2_)" group-id="7,34" node-id="558"><path d="M 581.60 761.60 C 580.50 761.60 579.40 761.40 578.30 761.00 L 537.20 745.70 C 532.40 743.90 529.90 738.60 531.50 733.80 C 531.60 733.40 531.80 733.00 532.00 732.60 L 532.00 732.60 C 535.10 726.30 542.20 725.10 550.40 723.60 C 552.20 723.30 554.90 722.80 556.30 722.40 C 661.10 612.40 828.30 476.00 874.50 442.50 C 876.10 441.30 878.10 440.70 880.10 440.70 C 881.10 440.70 882.10 440.90 883.10 441.20 C 886.00 442.20 888.30 444.50 889.20 447.40 C 889.40 448.00 889.60 448.60 889.70 449.20 L 890.20 451.30 L 890.40 452.30 C 890.50 452.80 890.60 453.60 890.70 454.30 C 890.80 455.40 890.80 456.40 890.60 457.50 L 883.50 491.90 C 883.00 494.30 881.60 496.40 879.60 497.80 C 877.40 499.30 660.90 649.90 589.50 757.30 C 587.70 760.10 584.70 761.60 581.60 761.60 Z" fill="#1e7cb9" fill-rule="nonzero" group-id="7,34,78" node-id="562" stroke="none" target-height="320.89996" target-width="360.89996" target-x="529.9" target-y="440.7"></path><path d="M 880.10 450.30 C 880.20 450.80 880.40 451.20 880.50 451.70 C 880.60 452.00 880.60 452.20 880.70 452.50 C 880.80 452.80 880.90 453.20 880.90 453.50 C 880.90 453.70 881.00 453.90 881.00 454.10 C 881.10 454.60 881.20 455.20 881.30 455.70 C 881.30 455.70 881.30 455.70 881.30 455.70 L 874.20 490.10 C 874.20 490.10 655.00 641.70 581.60 752.10 L 540.50 736.80 C 540.50 736.80 540.50 736.80 540.50 736.80 C 542.30 733.20 559.40 733.00 562.10 730.10 C 663.40 623.60 830.90 485.90 880.10 450.30 M 880.10 431.30 C 876.20 431.30 872.20 432.50 869.00 434.90 C 823.00 468.30 656.90 603.70 551.50 713.80 C 550.60 714.00 549.60 714.10 548.80 714.30 C 539.80 715.90 528.70 717.90 523.50 728.50 C 521.20 733.30 520.90 738.90 522.90 743.90 C 524.90 748.90 528.90 752.80 533.90 754.60 L 575.00 769.90 C 577.20 770.70 579.40 771.10 581.60 771.10 C 587.80 771.10 593.80 768.00 597.40 762.60 C 667.90 656.50 882.80 507.20 885.00 505.70 C 889.00 502.90 891.80 498.70 892.80 493.90 L 899.90 459.50 C 900.30 457.40 900.40 455.20 900.10 453.00 C 900.00 452.10 899.80 451.30 899.70 450.40 L 899.50 449.40 C 899.40 448.90 899.30 448.40 899.10 447.90 L 898.80 446.70 C 898.60 446.00 898.40 445.40 898.20 444.70 C 896.40 438.80 891.90 434.20 886.10 432.20 C 884.20 431.60 882.10 431.30 880.10 431.30 L 880.10 431.30 Z" fill="#22286e" fill-rule="nonzero" group-id="7,34,79" node-id="567" stroke="none" target-height="339.8" target-width="379.5" target-x="520.9" target-y="431.3"></path></g></g><g node-id="714"><g node-id="741"><g node-id="786"><g node-id="806"><path d="M 434.80 947.50 C 434.40 947.50 433.90 947.50 433.40 947.40 L 416.60 945.00 C 411.40 944.30 407.80 939.50 408.60 934.30 L 412.50 907.10 L 399.30 905.20 L 395.40 932.40 C 395.00 934.90 393.70 937.10 391.70 938.60 C 390.10 939.80 388.10 940.50 386.00 940.50 C 385.60 940.50 385.10 940.50 384.60 940.40 L 367.70 938.00 C 365.20 937.60 363.00 936.30 361.50 934.30 C 360.00 932.30 359.40 929.80 359.70 927.30 L 371.90 842.80 C 372.60 838.10 376.60 834.70 381.30 834.70 C 381.80 834.70 382.20 834.70 382.70 834.80 L 399.60 837.20 C 402.10 837.60 404.30 838.90 405.80 840.90 C 407.30 842.90 407.90 845.40 407.60 847.90 L 404.20 871.80 L 417.40 873.70 L 420.80 849.80 C 421.20 847.30 422.50 845.10 424.50 843.60 C 426.10 842.40 428.10 841.70 430.20 841.70 C 430.60 841.70 431.10 841.70 431.60 841.80 L 448.40 844.20 C 453.60 844.90 457.20 849.70 456.40 854.90 L 444.20 939.40 C 443.80 941.90 442.50 944.10 440.50 945.60 C 438.80 946.90 436.80 947.50 434.80 947.50 Z" fill="#22286e" fill-rule="nonzero" group-id="8,35,80,100" node-id="580" stroke="none" target-height="112.79999" target-width="97.80002" target-x="359.4" target-y="834.7"></path></g><path d="M 381.30 844.10 L 398.20 846.50 L 393.40 879.70 L 425.40 884.30 L 430.20 851.10 L 447.00 853.50 L 434.80 938.00 L 418.00 935.60 L 423.30 899.00 L 391.30 894.40 L 386.00 931.00 L 369.10 928.60 L 381.30 844.10 M 381.30 825.10 C 372.00 825.10 363.90 831.90 362.60 841.40 L 350.40 925.90 C 349.70 930.90 351.00 935.90 354.00 940.00 C 357.00 944.00 361.50 946.70 366.50 947.40 L 383.40 949.80 C 384.30 949.90 385.20 950.00 386.10 950.00 C 391.80 950.00 397.10 947.40 400.70 943.20 C 401.30 944.60 402.00 945.80 402.90 947.00 C 405.90 951.00 410.40 953.70 415.40 954.40 L 432.20 956.80 C 433.10 956.90 434.00 957.00 434.90 957.00 C 444.20 957.00 452.30 950.20 453.60 940.70 L 465.80 856.20 C 466.50 851.20 465.20 846.20 462.20 842.10 C 459.20 838.10 454.70 835.40 449.70 834.70 L 432.90 832.30 C 432.00 832.20 431.10 832.10 430.20 832.10 C 424.50 832.10 419.20 834.70 415.60 838.90 C 415.00 837.50 414.30 836.30 413.40 835.10 C 410.40 831.10 405.90 828.40 400.90 827.70 L 384.00 825.30 C 383.10 825.20 382.10 825.10 381.30 825.10 L 381.30 825.10 Z" fill="#22286e" fill-rule="nonzero" group-id="8,35,80,101" node-id="585" stroke="none" target-height="131.90002" target-width="116.79999" target-x="349.7" target-y="825.1"></path></g><g node-id="787"><g node-id="808"><path d="M 504.60 957.60 C 504.20 957.60 503.70 957.60 503.20 957.50 L 489.50 955.50 C 487.30 955.20 485.30 954.10 483.90 952.60 C 480.20 953.80 476.50 954.40 472.90 954.40 C 471.40 954.40 469.90 954.30 468.40 954.10 C 460.40 952.90 453.50 949.00 449.10 942.90 C 444.80 937.00 443.00 929.40 444.10 921.70 C 445.60 911.20 451.30 904.80 458.20 901.00 C 457.80 900.40 457.40 899.60 457.10 898.90 L 452.60 886.90 C 450.80 882.20 453.10 876.90 457.70 874.90 C 466.50 871.00 475.20 869.10 483.50 869.10 C 486.00 869.10 488.40 869.30 490.80 869.60 C 512.40 872.70 522.80 888.20 519.30 912.10 L 513.90 949.50 C 513.50 952.00 512.20 954.20 510.20 955.70 C 508.60 956.90 506.60 957.60 504.60 957.60 Z" fill="#22286e" fill-rule="nonzero" group-id="8,35,81,102" node-id="593" stroke="none" target-height="88.5" target-width="79.79999" target-x="443" target-y="869.1"></path></g><path d="M 483.50 878.50 C 485.50 878.50 487.50 878.60 489.50 878.90 C 505.70 881.20 512.70 892.10 510.00 910.70 L 504.60 948.10 L 490.90 946.10 L 490.60 939.10 L 490.30 939.10 C 484.90 942.50 479.10 945.00 473.00 945.00 C 471.90 945.00 470.90 944.90 469.80 944.80 C 458.40 943.20 452.00 934.00 453.60 923.10 C 455.40 910.40 466.00 904.60 488.30 904.60 C 490.00 904.60 491.90 904.60 493.70 904.70 C 494.40 898.40 492.30 893.20 484.40 892.10 C 483.40 892.00 482.40 891.90 481.30 891.90 C 476.30 891.90 471.20 893.50 465.90 895.60 L 461.40 883.60 C 468.10 880.70 475.60 878.50 483.50 878.50 M 479.10 932.50 C 483.00 932.50 486.40 930.80 490.30 927.80 L 492.20 914.90 C 491.80 914.90 491.40 914.90 491.00 914.90 C 476.00 914.90 470.50 918.30 469.70 923.90 C 469.00 928.90 472.20 931.60 477.10 932.30 C 477.80 932.40 478.50 932.50 479.10 932.50 M 483.50 859.60 C 473.90 859.60 463.90 861.80 453.90 866.20 C 444.70 870.20 440.20 880.80 443.80 890.20 L 446.60 897.70 C 439.10 904.30 435.90 912.70 434.80 920.30 C 433.30 930.50 435.70 940.60 441.50 948.50 C 447.50 956.60 456.50 961.90 467.10 963.50 C 469.00 963.80 471.00 963.90 473.00 963.90 C 476.10 963.90 479.10 963.60 482.20 962.90 C 484.10 963.90 486.10 964.60 488.30 964.90 L 502.00 966.90 C 502.90 967.00 503.80 967.10 504.70 967.10 C 508.80 967.10 512.80 965.80 516.10 963.30 C 520.10 960.30 522.80 955.80 523.50 950.80 L 528.90 913.40 C 533.10 884.40 519.10 864.00 492.30 860.20 C 489.30 859.80 486.40 859.60 483.50 859.60 L 483.50 859.60 Z" fill="#22286e" fill-rule="nonzero" group-id="8,35,81,103" node-id="598" stroke="none" target-height="107.5" target-width="99.79999" target-x="433.3" target-y="859.6"></path></g><g node-id="788"><g node-id="810"><path d="M 534.90 987.00 C 534.50 987.00 534.00 987.00 533.50 986.90 L 516.80 984.50 C 511.60 983.80 508.00 979.00 508.80 973.80 L 521.50 885.30 C 522.20 880.60 526.20 877.20 530.90 877.20 C 531.30 877.20 531.80 877.20 532.30 877.30 L 546.00 879.30 C 548.20 879.60 550.10 880.70 551.50 882.20 C 555.20 881.00 558.90 880.40 562.40 880.40 C 563.80 880.40 565.20 880.50 566.70 880.70 C 587.30 883.70 598.80 902.50 595.20 927.60 C 591.90 950.60 576.20 966.70 557.00 966.70 C 555.40 966.70 553.90 966.60 552.30 966.40 C 550.30 966.10 548.30 965.60 546.30 964.90 L 544.30 979.10 C 543.90 981.60 542.60 983.80 540.60 985.30 C 538.90 986.30 536.90 987.00 534.90 987.00 Z M 551.00 932.20 C 551.70 932.60 552.50 932.90 553.20 933.00 C 553.40 933.00 553.50 933.00 553.70 933.00 C 556.00 933.00 558.20 928.60 559.10 922.40 C 560.00 916.50 559.20 914.00 558.80 913.20 C 558.60 912.80 558.50 912.50 557.10 912.30 L 556.60 912.30 C 555.80 912.30 554.80 912.60 553.60 913.30 L 551.00 932.20 Z" fill="#22286e" fill-rule="nonzero" group-id="8,35,82,104" node-id="606" stroke="none" target-height="109.79999" target-width="90.79999" target-x="508" target-y="877.2"></path></g><path d="M 530.90 886.60 L 544.60 888.60 L 544.80 895.40 L 545.30 895.50 C 550.50 892.20 556.50 889.80 562.40 889.80 C 563.40 889.80 564.30 889.90 565.30 890.00 C 581.10 892.30 588.60 906.50 585.70 926.20 C 582.80 946.40 569.90 957.10 556.90 957.10 C 555.80 957.10 554.70 957.00 553.50 956.90 C 547.90 956.10 542.90 952.80 538.60 947.60 L 537.50 958.20 L 534.70 977.60 L 518.00 975.20 L 530.90 886.60 M 553.70 942.50 C 560.70 942.50 566.70 936.60 568.50 923.80 C 570.30 911.60 567.30 904.30 558.50 903.00 C 557.90 902.90 557.30 902.90 556.70 902.90 C 553.00 902.90 549.30 904.60 544.90 907.80 L 540.90 935.90 C 544.50 940.00 548.40 941.90 551.90 942.40 C 552.40 942.50 553.10 942.50 553.70 942.50 M 530.90 867.60 C 526.80 867.60 522.80 868.90 519.50 871.40 C 515.50 874.40 512.80 878.90 512.10 883.90 L 499.40 972.40 C 497.90 982.80 505.10 992.40 515.50 993.90 L 532.20 996.30 C 533.10 996.40 534.00 996.50 534.90 996.50 C 539.00 996.50 543.00 995.20 546.30 992.70 C 550.30 989.70 553.00 985.20 553.70 980.20 L 554.30 975.90 C 555.20 976.00 556.10 976.00 557.00 976.00 C 581.00 976.00 600.60 956.60 604.60 928.80 C 609.00 898.10 594.30 874.90 568.10 871.20 C 566.30 870.90 564.40 870.80 562.50 870.80 C 559.50 870.80 556.50 871.10 553.50 871.80 C 551.70 870.80 549.60 870.20 547.50 869.90 L 533.80 867.90 C 532.70 867.70 531.80 867.60 530.90 867.60 L 530.90 867.60 Z M 549.90 916.40 L 549.90 916.40 L 549.90 916.40 L 549.90 916.40 Z" fill="#22286e" fill-rule="nonzero" group-id="8,35,82,105" node-id="611" stroke="none" target-height="128.90002" target-width="111.100006" target-x="497.9" target-y="867.6"></path></g><g node-id="789"><g node-id="812"><path d="M 608.40 997.60 C 608.00 997.60 607.50 997.60 607.00 997.50 L 590.30 995.10 C 585.10 994.40 581.50 989.60 582.30 984.40 L 595.00 895.90 C 595.70 891.20 599.70 887.80 604.40 887.80 C 604.80 887.80 605.30 887.80 605.80 887.90 L 619.50 889.90 C 621.70 890.20 623.60 891.30 625.00 892.80 C 628.70 891.60 632.40 891.00 635.90 891.00 C 637.30 891.00 638.70 891.10 640.20 891.30 C 660.80 894.30 672.30 913.10 668.70 938.20 C 665.40 961.20 649.70 977.30 630.50 977.30 C 628.90 977.30 627.30 977.20 625.80 977.00 C 623.80 976.70 621.80 976.20 619.90 975.50 L 617.90 989.70 C 617.50 992.20 616.20 994.40 614.20 995.90 C 612.50 996.90 610.50 997.60 608.40 997.60 Z M 624.50 942.80 C 625.20 943.20 626.00 943.50 626.70 943.60 C 626.90 943.60 627.10 943.60 627.20 943.60 C 629.50 943.60 631.70 939.20 632.60 933.00 C 634.00 923.40 631.60 923.10 630.70 922.90 L 630.20 922.90 C 629.40 922.90 628.40 923.20 627.20 923.90 L 624.50 942.80 Z" fill="#22286e" fill-rule="nonzero" group-id="8,35,83,106" node-id="619" stroke="none" target-height="109.79999" target-width="90.79999" target-x="581.5" target-y="887.8"></path></g><path d="M 604.50 897.20 L 618.20 899.20 L 618.40 906.00 L 618.90 906.10 C 624.10 902.80 630.10 900.40 636.00 900.40 C 637.00 900.40 637.90 900.50 638.90 900.60 C 654.70 902.90 662.20 917.10 659.30 936.80 C 656.40 957.00 643.50 967.70 630.50 967.70 C 629.40 967.70 628.30 967.60 627.10 967.50 C 621.50 966.70 616.50 963.40 612.20 958.20 L 611.10 968.80 L 608.30 988.20 L 591.60 985.80 L 604.50 897.20 M 627.20 953.10 C 634.20 953.10 640.20 947.20 642.00 934.40 C 643.80 922.20 640.80 914.90 632.00 913.60 C 631.40 913.50 630.80 913.50 630.20 913.50 C 626.50 913.50 622.80 915.20 618.40 918.40 L 614.40 946.50 C 618.00 950.60 621.90 952.50 625.40 953.00 C 626.00 953.10 626.60 953.10 627.20 953.10 M 604.50 878.20 C 595.20 878.20 587.10 885.00 585.80 894.50 L 573.00 983.00 C 571.50 993.40 578.70 1003.00 589.10 1004.50 L 605.80 1006.90 C 606.70 1007.00 607.60 1007.10 608.50 1007.10 C 612.60 1007.10 616.60 1005.80 619.90 1003.30 C 623.90 1000.30 626.60 995.80 627.30 990.80 L 627.90 986.50 C 628.80 986.60 629.70 986.60 630.60 986.60 C 654.60 986.60 674.20 967.20 678.20 939.40 C 682.60 908.70 667.90 885.50 641.70 881.80 C 639.90 881.50 638.00 881.40 636.10 881.40 C 633.10 881.40 630.10 881.70 627.10 882.40 C 625.30 881.40 623.20 880.80 621.10 880.50 L 607.40 878.50 C 606.30 878.30 605.40 878.20 604.50 878.20 L 604.50 878.20 Z M 623.50 927.00 L 623.50 927.00 L 623.50 927.00 L 623.50 927.00 Z" fill="#22286e" fill-rule="nonzero" group-id="8,35,83,107" node-id="624" stroke="none" target-height="128.89996" target-width="111.099976" target-x="571.5" target-y="878.2"></path></g><g node-id="790"><g node-id="814"><path d="M 674.20 1007.90 C 672.40 1007.90 670.40 1007.80 668.50 1007.50 C 664.10 1006.90 660.70 1005.90 657.10 1004.10 C 652.60 1001.90 650.60 996.70 652.40 992.10 L 657.30 979.60 C 658.30 977.20 660.20 975.30 662.60 974.30 C 663.70 973.80 664.90 973.60 666.10 973.60 C 667.50 973.60 668.80 973.90 670.10 974.50 C 671.10 975.00 671.70 975.10 671.90 975.20 C 672.10 975.20 672.30 975.20 672.50 975.20 C 672.90 975.20 674.00 975.20 675.40 972.40 L 675.60 972.00 L 660.50 908.80 C 659.80 905.70 660.60 902.50 662.70 900.20 C 664.50 898.20 667.10 897.10 669.70 897.10 C 670.10 897.10 670.60 897.10 671.10 897.20 L 688.00 899.60 C 692.00 900.20 695.20 903.20 696.00 907.20 L 699.60 926.50 L 707.50 909.30 C 709.10 905.90 712.40 903.80 716.10 903.80 C 716.50 903.80 717.00 903.80 717.50 903.90 L 733.60 906.20 C 736.60 906.60 739.30 908.50 740.70 911.20 C 742.10 913.90 742.10 917.20 740.70 919.90 L 708.50 982.50 C 701.90 994.40 692.30 1007.90 674.20 1007.90 Z" fill="#22286e" fill-rule="nonzero" group-id="8,35,84,108" node-id="632" stroke="none" target-height="110.80005" target-width="91.5" target-x="650.6" target-y="897.1"></path></g><path d="M 669.70 906.50 L 686.60 908.90 L 692.50 940.10 C 693.60 946.10 694.30 952.50 695.30 958.90 L 695.90 959.00 C 698.20 953.30 700.70 947.30 703.10 941.60 L 716.20 913.20 L 732.30 915.50 L 700.00 978.20 C 693.10 990.90 685.90 998.40 674.20 998.40 C 672.80 998.40 671.30 998.30 669.80 998.10 C 666.00 997.60 663.60 996.70 661.20 995.60 L 666.10 983.10 C 667.20 983.60 669.00 984.30 670.40 984.50 C 671.10 984.60 671.80 984.60 672.40 984.60 C 677.80 984.60 681.40 981.20 683.80 976.50 L 685.50 972.90 L 669.70 906.50 M 669.70 887.60 C 664.40 887.60 659.30 889.80 655.70 893.80 C 651.50 898.40 649.80 904.90 651.30 911.00 L 664.00 964.30 C 662.30 964.50 660.70 964.90 659.10 965.50 C 654.30 967.40 650.40 971.30 648.50 976.10 L 643.60 988.60 C 639.90 997.80 644.00 1008.30 653.00 1012.60 C 657.40 1014.70 661.80 1016.10 667.20 1016.80 C 669.60 1017.10 672.00 1017.30 674.30 1017.30 C 700.30 1017.30 712.20 995.40 716.70 987.20 C 716.80 987.10 716.80 986.90 716.90 986.80 L 749.10 924.20 C 751.90 918.80 751.90 912.30 749.10 906.80 C 746.30 901.40 741.00 897.60 735.00 896.70 L 718.90 894.40 C 718.00 894.30 717.10 894.20 716.20 894.20 C 711.30 894.20 706.60 896.10 703.10 899.40 C 700.20 894.50 695.30 891.00 689.40 890.10 L 672.50 887.70 C 671.50 887.60 670.60 887.60 669.70 887.60 L 669.70 887.60 Z" fill="#22286e" fill-rule="nonzero" group-id="8,35,84,109" node-id="637" stroke="none" target-height="129.70001" target-width="112" target-x="639.9" target-y="887.6"></path></g></g><g node-id="742"><g node-id="791"><g node-id="816"><path d="M 431.80 935.90 C 431.40 935.90 430.90 935.90 430.40 935.80 L 413.60 933.40 C 408.40 932.70 404.80 927.90 405.60 922.70 L 409.50 895.50 L 396.30 893.60 L 392.40 920.80 C 391.70 925.50 387.70 928.90 383.00 928.90 C 382.50 928.90 382.10 928.90 381.60 928.80 L 364.70 926.40 C 362.20 926.00 360.00 924.70 358.50 922.70 C 357.00 920.70 356.40 918.20 356.70 915.70 L 368.90 831.20 C 369.60 826.50 373.60 823.10 378.30 823.10 C 378.80 823.10 379.20 823.10 379.70 823.20 L 396.60 825.60 C 401.80 826.30 405.40 831.10 404.60 836.30 L 401.20 860.20 L 414.40 862.10 L 417.80 838.20 C 418.50 833.50 422.50 830.10 427.20 830.10 C 427.70 830.10 428.10 830.10 428.60 830.20 L 445.40 832.60 C 450.60 833.30 454.20 838.10 453.40 843.30 L 441.20 927.80 C 440.80 930.30 439.50 932.50 437.50 934.00 C 435.80 935.20 433.80 935.90 431.80 935.90 Z" fill="#d9353e" fill-rule="nonzero" group-id="8,36,85,110" node-id="648" stroke="none" target-height="112.80005" target-width="97.80002" target-x="356.4" target-y="823.1"></path></g><path d="M 378.30 832.40 L 395.20 834.80 L 390.40 868.00 L 422.40 872.60 L 427.20 839.40 L 444.00 841.80 L 431.80 926.30 L 415.00 924.00 L 420.30 887.40 L 388.30 882.80 L 383.00 919.40 L 366.10 917.00 L 378.30 832.40 M 378.20 813.50 C 368.90 813.50 360.80 820.30 359.50 829.80 L 347.30 914.30 C 346.60 919.30 347.90 924.30 350.90 928.40 C 353.90 932.40 358.40 935.10 363.40 935.80 L 380.30 938.20 C 381.20 938.30 382.10 938.40 383.00 938.40 C 387.10 938.40 391.10 937.10 394.40 934.60 C 395.60 933.70 396.70 932.70 397.60 931.50 C 398.20 932.90 398.90 934.10 399.80 935.40 C 402.80 939.40 407.30 942.10 412.30 942.80 L 429.10 945.20 C 430.00 945.30 430.90 945.40 431.80 945.40 C 441.10 945.40 449.20 938.60 450.50 929.10 L 462.70 844.60 C 463.40 839.60 462.10 834.60 459.10 830.50 C 456.10 826.50 451.60 823.80 446.60 823.10 L 429.80 820.70 C 428.90 820.60 428.00 820.50 427.10 820.50 C 421.40 820.50 416.10 823.10 412.50 827.30 C 411.90 825.90 411.20 824.70 410.30 823.50 C 407.30 819.50 402.80 816.80 397.80 816.10 L 380.90 813.70 C 380.00 813.50 379.10 813.50 378.20 813.50 L 378.20 813.50 Z" fill="#22286e" fill-rule="nonzero" group-id="8,36,85,111" node-id="653" stroke="none" target-height="131.90002" target-width="116.79999" target-x="346.6" target-y="813.5"></path></g><g node-id="792"><g node-id="818"><path d="M 501.60 945.90 C 501.20 945.90 500.70 945.90 500.20 945.80 L 486.50 943.80 C 484.30 943.50 482.30 942.40 480.90 940.90 C 477.20 942.10 473.50 942.70 469.90 942.70 C 468.40 942.70 466.90 942.60 465.40 942.40 C 457.40 941.30 450.50 937.30 446.10 931.20 C 441.80 925.30 440.00 917.70 441.10 910.00 C 442.60 899.50 448.30 893.10 455.20 889.30 C 454.80 888.70 454.40 887.90 454.10 887.20 L 449.60 875.20 C 447.80 870.50 450.10 865.20 454.70 863.20 C 463.50 859.30 472.20 857.40 480.50 857.40 C 483.00 857.40 485.40 857.60 487.80 857.90 C 501.40 859.90 508.30 866.60 511.80 872.00 C 516.50 879.30 518.00 888.90 516.40 900.40 L 511.00 937.80 C 510.60 940.30 509.30 942.50 507.30 944.00 C 505.60 945.30 503.60 945.90 501.60 945.90 Z" fill="#d9353e" fill-rule="nonzero" group-id="8,36,86,112" node-id="661" stroke="none" target-height="88.5" target-width="78" target-x="440" target-y="857.4"></path></g><path d="M 480.50 866.90 C 482.50 866.90 484.50 867.00 486.50 867.30 C 502.70 869.60 509.70 880.50 507.00 899.10 L 501.60 936.50 L 487.90 934.50 L 487.60 927.50 L 487.30 927.50 C 481.90 930.90 476.10 933.40 470.00 933.40 C 468.90 933.40 467.90 933.30 466.80 933.20 C 455.40 931.60 449.00 922.40 450.60 911.50 C 452.40 898.80 463.00 893.00 485.30 893.00 C 487.00 893.00 488.90 893.00 490.70 893.10 C 491.40 886.80 489.30 881.60 481.40 880.50 C 480.40 880.40 479.40 880.30 478.30 880.30 C 473.30 880.30 468.20 881.90 462.90 884.00 L 458.40 872.00 C 465.10 869.10 472.60 866.90 480.50 866.90 M 476.10 920.90 C 480.00 920.90 483.40 919.20 487.30 916.20 L 489.20 903.30 C 488.80 903.30 488.40 903.30 488.00 903.30 C 473.00 903.30 467.50 906.70 466.70 912.30 C 466.00 917.30 469.20 920.00 474.10 920.70 C 474.80 920.80 475.50 920.90 476.10 920.90 M 480.50 848.00 C 470.90 848.00 460.90 850.20 450.90 854.60 C 441.70 858.60 437.20 869.20 440.80 878.60 L 443.60 886.10 C 436.10 892.70 432.90 901.10 431.80 908.70 C 430.30 918.90 432.70 929.00 438.50 936.90 C 444.50 945.00 453.50 950.30 464.10 951.90 C 466.00 952.20 468.00 952.30 470.00 952.30 C 473.10 952.30 476.10 952.00 479.20 951.30 C 481.10 952.30 483.10 953.00 485.30 953.30 L 499.00 955.30 C 499.90 955.40 500.80 955.50 501.70 955.50 C 505.80 955.50 509.80 954.20 513.10 951.70 C 517.10 948.70 519.80 944.20 520.50 939.20 L 525.90 901.80 C 530.10 872.80 516.10 852.40 489.30 848.60 C 486.30 848.20 483.40 848.00 480.50 848.00 L 480.50 848.00 Z" fill="#22286e" fill-rule="nonzero" group-id="8,36,86,113" node-id="666" stroke="none" target-height="107.5" target-width="99.79999" target-x="430.3" target-y="848"></path></g><g node-id="793"><g node-id="820"><path d="M 531.90 975.40 C 531.50 975.40 531.00 975.40 530.50 975.30 L 513.80 972.90 C 508.60 972.20 505.00 967.40 505.80 962.20 L 518.50 873.70 C 519.20 869.00 523.20 865.60 527.90 865.60 C 528.30 865.60 528.80 865.60 529.30 865.70 L 543.00 867.70 C 545.20 868.00 547.10 869.10 548.50 870.60 C 552.20 869.40 555.90 868.80 559.40 868.80 C 560.80 868.80 562.20 868.90 563.70 869.10 C 584.30 872.10 595.80 890.90 592.20 916.00 C 588.90 939.00 573.20 955.10 554.00 955.10 C 552.40 955.10 550.90 955.00 549.30 954.80 C 547.30 954.50 545.30 954.00 543.30 953.30 L 541.30 967.50 C 540.90 970.00 539.60 972.20 537.60 973.70 C 535.90 974.70 533.90 975.40 531.90 975.40 Z M 547.90 920.60 C 548.60 921.00 549.40 921.30 550.10 921.40 C 550.30 921.40 550.40 921.40 550.60 921.40 C 552.90 921.40 555.10 917.00 556.00 910.80 C 557.40 901.20 555.00 900.90 554.10 900.70 L 553.60 900.70 C 552.80 900.70 551.80 901.00 550.60 901.70 L 547.90 920.60 Z" fill="#d9353e" fill-rule="nonzero" group-id="8,36,87,114" node-id="674" stroke="none" target-height="109.80005" target-width="90.79999" target-x="505" target-y="865.6"></path></g><path d="M 527.90 874.90 L 541.60 876.90 L 541.80 883.70 L 542.30 883.80 C 547.50 880.50 553.50 878.10 559.40 878.10 C 560.40 878.10 561.30 878.20 562.30 878.30 C 578.10 880.60 585.60 894.80 582.70 914.50 C 579.80 934.70 566.90 945.40 553.90 945.40 C 552.80 945.40 551.70 945.30 550.50 945.20 C 544.90 944.40 539.90 941.10 535.60 935.90 L 534.50 946.50 L 531.70 965.90 L 515.00 963.50 L 527.90 874.90 M 550.70 930.90 C 557.70 930.90 563.70 925.00 565.50 912.20 C 567.30 900.00 564.30 892.70 555.50 891.40 C 554.90 891.30 554.30 891.30 553.70 891.30 C 550.00 891.30 546.30 893.00 541.90 896.20 L 537.90 924.30 C 541.50 928.40 545.40 930.30 548.90 930.80 C 549.40 930.90 550.00 930.90 550.70 930.90 M 527.90 856.00 C 518.60 856.00 510.50 862.80 509.20 872.30 L 496.50 960.80 C 495.00 971.20 502.20 980.80 512.60 982.30 L 529.30 984.70 C 530.20 984.80 531.10 984.90 532.00 984.90 C 536.10 984.90 540.10 983.60 543.40 981.10 C 547.40 978.10 550.10 973.60 550.80 968.60 L 551.40 964.30 C 552.30 964.40 553.20 964.40 554.10 964.40 C 578.10 964.40 597.70 945.00 601.70 917.20 C 603.70 903.30 601.80 890.70 596.30 880.70 C 589.80 869.00 578.80 861.50 565.20 859.60 C 563.40 859.30 561.50 859.20 559.60 859.20 C 556.60 859.20 553.60 859.50 550.60 860.20 C 548.80 859.20 546.70 858.60 544.60 858.30 L 530.90 856.30 C 529.70 856.00 528.80 856.00 527.90 856.00 L 527.90 856.00 Z" fill="#22286e" fill-rule="nonzero" group-id="8,36,87,115" node-id="679" stroke="none" target-height="128.90002" target-width="108.70001" target-x="495" target-y="856"></path></g><g node-id="794"><g node-id="822"><path d="M 605.40 985.90 C 605.00 985.90 604.50 985.90 604.00 985.80 L 587.30 983.40 C 584.80 983.00 582.60 981.70 581.10 979.70 C 579.60 977.70 579.00 975.20 579.30 972.70 L 592.00 884.20 C 592.70 879.50 596.70 876.10 601.40 876.10 C 601.80 876.10 602.30 876.10 602.80 876.20 L 616.50 878.20 C 618.70 878.50 620.60 879.60 622.00 881.10 C 625.70 879.90 629.40 879.30 632.90 879.30 C 634.30 879.30 635.70 879.40 637.20 879.60 C 657.80 882.60 669.30 901.40 665.70 926.50 C 662.40 949.50 646.70 965.60 627.50 965.60 C 625.90 965.60 624.30 965.50 622.80 965.30 C 620.80 965.00 618.80 964.50 616.90 963.80 L 614.90 978.00 C 614.10 982.50 610.10 985.90 605.40 985.90 Z M 621.50 931.20 C 622.20 931.60 623.00 931.90 623.70 932.00 C 623.90 932.00 624.00 932.00 624.20 932.00 C 626.50 932.00 628.70 927.60 629.60 921.40 C 631.00 911.80 628.60 911.50 627.70 911.30 L 627.20 911.30 C 626.40 911.30 625.40 911.60 624.20 912.30 L 621.50 931.20 Z" fill="#d9353e" fill-rule="nonzero" group-id="8,36,88,116" node-id="687" stroke="none" target-height="109.80005" target-width="90.29999" target-x="579" target-y="876.1"></path></g><path d="M 601.50 885.50 L 615.20 887.50 L 615.40 894.30 L 615.90 894.40 C 621.10 891.10 627.10 888.70 633.00 888.70 C 634.00 888.70 634.90 888.80 635.90 888.90 C 651.70 891.20 659.20 905.40 656.30 925.10 C 653.40 945.30 640.50 956.00 627.50 956.00 C 626.40 956.00 625.30 955.90 624.10 955.80 C 618.50 955.00 613.50 951.70 609.20 946.50 L 608.10 957.10 L 605.30 976.50 L 588.60 974.10 L 601.50 885.50 M 624.20 941.50 C 631.20 941.50 637.20 935.60 639.00 922.80 C 640.80 910.60 637.80 903.30 629.00 902.00 C 628.40 901.90 627.80 901.90 627.20 901.90 C 623.50 901.90 619.80 903.60 615.40 906.80 L 611.40 934.90 C 615.00 939.00 618.90 940.90 622.40 941.40 C 623.00 941.40 623.60 941.50 624.20 941.50 M 601.50 866.60 C 592.20 866.60 584.10 873.40 582.80 882.90 L 570.00 971.40 C 568.50 981.80 575.70 991.40 586.10 992.90 L 602.80 995.30 C 603.70 995.40 604.60 995.50 605.50 995.50 C 609.60 995.50 613.60 994.20 616.90 991.70 C 620.90 988.70 623.60 984.20 624.30 979.20 L 624.90 974.90 C 625.80 975.00 626.70 975.00 627.60 975.00 C 651.60 975.00 671.20 955.60 675.20 927.80 C 679.60 897.10 664.90 873.90 638.70 870.20 C 636.90 869.90 635.00 869.80 633.10 869.80 C 630.10 869.80 627.10 870.10 624.10 870.80 C 622.30 869.80 620.20 869.20 618.10 868.90 L 604.40 866.90 C 603.30 866.60 602.30 866.60 601.50 866.60 L 601.50 866.60 Z" fill="#22286e" fill-rule="nonzero" group-id="8,36,88,117" node-id="692" stroke="none" target-height="128.90002" target-width="111.099976" target-x="568.5" target-y="866.6"></path></g><g node-id="795"><g node-id="824"><path d="M 671.20 996.30 C 669.40 996.30 667.40 996.20 665.50 995.90 C 661.10 995.30 657.70 994.30 654.10 992.50 C 649.60 990.30 647.60 985.10 649.40 980.50 L 654.30 968.00 C 655.30 965.60 657.20 963.70 659.60 962.70 C 660.70 962.30 661.90 962.00 663.10 962.00 C 664.50 962.00 665.80 962.30 667.10 962.90 C 668.00 963.30 668.60 963.50 668.90 963.60 C 669.10 963.60 669.30 963.60 669.50 963.60 C 669.90 963.60 671.00 963.60 672.40 960.80 L 672.60 960.40 L 657.50 897.20 C 656.80 894.10 657.60 890.90 659.70 888.60 C 661.50 886.60 664.10 885.50 666.70 885.50 C 667.10 885.50 667.60 885.50 668.10 885.60 L 685.00 888.00 C 689.00 888.60 692.20 891.60 693.00 895.60 L 696.60 914.90 L 704.50 897.70 C 706.10 894.30 709.50 892.20 713.10 892.20 C 713.50 892.20 714.00 892.20 714.50 892.30 L 730.60 894.60 C 733.60 895.00 736.30 896.90 737.70 899.60 C 739.10 902.30 739.10 905.60 737.70 908.30 L 705.50 970.90 C 698.90 982.80 689.30 996.30 671.20 996.30 Z" fill="#d9353e" fill-rule="nonzero" group-id="8,36,89,118" node-id="700" stroke="none" target-height="110.79999" target-width="91.5" target-x="647.6" target-y="885.5"></path></g><path d="M 666.70 894.90 L 683.60 897.30 L 689.50 928.50 C 690.60 934.50 691.30 940.90 692.30 947.30 L 692.90 947.40 C 695.20 941.70 697.70 935.70 700.10 930.00 L 713.20 901.60 L 729.30 903.90 L 697.00 966.50 C 690.10 979.20 682.90 986.70 671.20 986.70 C 669.80 986.70 668.30 986.60 666.80 986.40 C 663.00 985.90 660.60 985.00 658.20 983.90 L 663.10 971.40 C 664.20 971.90 666.00 972.60 667.40 972.80 C 668.10 972.90 668.80 972.90 669.40 972.90 C 674.80 972.90 678.40 969.50 680.80 964.80 L 682.50 961.20 L 666.70 894.90 M 666.70 876.00 C 661.40 876.00 656.30 878.20 652.70 882.20 C 648.50 886.80 646.80 893.30 648.30 899.40 L 661.00 952.70 C 659.30 952.90 657.70 953.30 656.10 953.90 C 651.30 955.80 647.40 959.70 645.50 964.50 L 640.60 977.00 C 636.90 986.20 641.00 996.70 650.00 1001.00 C 654.40 1003.10 658.80 1004.50 664.20 1005.20 C 666.60 1005.50 669.00 1005.70 671.30 1005.70 C 697.30 1005.70 709.20 983.80 713.70 975.60 C 713.80 975.50 713.80 975.30 713.90 975.20 L 746.10 912.60 C 748.90 907.20 748.90 900.70 746.10 895.20 C 743.30 889.80 738.00 886.00 732.00 885.10 L 715.90 882.80 C 715.00 882.70 714.10 882.60 713.20 882.60 C 708.30 882.60 703.60 884.50 700.10 887.80 C 697.20 882.90 692.30 879.40 686.40 878.50 L 669.50 876.10 C 668.50 876.00 667.60 876.00 666.70 876.00 L 666.70 876.00 Z" fill="#22286e" fill-rule="nonzero" group-id="8,36,89,119" node-id="705" stroke="none" target-height="129.70001" target-width="112" target-x="636.9" target-y="876"></path></g></g></g></svg>