<?xml version="1.0" standalone="no"?><!DOCTYPE svg PUBLIC "-//W3C//DTD SVG 1.1//EN" "http://www.w3.org/Graphics/SVG/1.1/DTD/svg11.dtd"><svg t="1556087214194" class="icon" style="" viewBox="0 0 1024 1024" version="1.1" xmlns="http://www.w3.org/2000/svg" p-id="2770" xmlns:xlink="http://www.w3.org/1999/xlink" width="200" height="200"><defs><style type="text/css"></style></defs><path d="M717.5 711c-3.7 0-7.3-0.9-10.1-3.7-4.1-2.8-230.2 8.6-311.5-89.8s-17.8-306.4-20.5-311c-5.5-8.3-2.8-20.2 6.4-25.7 171.5-105.4 437.6-241.1 522-152.2 69.7 73.4-17.5 355.9-170.7 574.1-3.7 5.6-10.1 8.3-15.6 8.3z" fill="#FFEAA3" p-id="2771"></path><path d="M711.1 707.8c-3.7 0-7.3-0.9-10.1-3.7-8.3-5.5-10.1-17.4-4.6-25.7C812 512.4 946 229.9 870.8 150.1l-0.8-0.8c-116.7-8-315.1 96.1-452.6 180.7-9.2 5.5-11.9 17.4-6.4 25.7 2.8 4.6-60.8 212.7 20.5 311 81.2 98.3 285.1 41.1 279.6 41.1z" fill="#FFDD67" p-id="2772"></path><path d="M697 717.8c2.8 2.8 6.4 3.7 10.1 3.7 5.5 0 11.9-2.8 15.6-8.3C875.8 495 963 212.5 893.3 139.1c-6.7-7-14.5-12.7-23.3-17 29.1 105.4-54.6 347-189.2 538.9l16.2 56.8z" fill="#EDC742" p-id="2773"></path><path d="M717.5 711c-3.7 0-7.3-0.9-10.1-3.7-8.3-5.5-10.1-17.4-4.6-25.7 115.6-166 249.5-448.5 174.3-528.3-71.5-75.1-320.1 63.4-476 159.7-8.3 5.5-20.2 2.8-25.7-6.4-5.5-8.3-2.8-20.2 6.4-25.7 171.5-105.5 437.6-241.2 522-152.3 69.7 73.4-17.5 355.9-170.7 574.1-3.7 5.6-10.1 8.3-15.6 8.3z" fill="#333333" p-id="2774"></path><path d="M357.9 617.6c1.1-1.1 2.3-2 3.5-2.7 36.9-38.2 57.3-88.5 57.3-142.1 0-54.8-21.4-106.3-60-144.8-12.9-12.9-27.4-24-42.8-32.6-6 52.3-38.6 110.6-72.8 144.8-1.3 1.3-2.7 2.3-4.3 3.1-12.3 11.5-24.6 23.1-36.9 35.4-45.4 45.4-71.1 106.3-71.1 170.5 0 64.3 24.9 125.1 71.1 170.5 29.7 29.7 65.9 50.9 105.4 62.1-37.9-87.9-19-193.8 50.6-264.2z" fill="#B2D56D" p-id="2775"></path><path d="M359.6 668.2c-45.6 65-50 152.8-9.5 221.8 7.4 0.7 14.8 1.1 22.3 1.1h0.9c64.3 0 125.1-25.7 170.5-71.1l6.9-6.9c1.2-1.2 2.6-2.2 4-3 0.4-0.4 0.7-0.9 1.1-1.3 40.3-40.3 93.4-62.6 149.1-64.3-10.3-19.7-24.8-38.6-40.3-54.8-81.3-81.5-212.4-90.9-305-21.5z" fill="#B2D56D" p-id="2776"></path><path d="M675.2 689.6c-13.1-13.1-27.5-24.3-42.8-33.7 13.2 18.3 24.2 38.1 32.7 58.7 2.6 5.1 0.9 12-2.6 16.3-3.4 4.3-9.4 7.7-15.4 6.9-55.7-6-111.4 13.7-150.8 53.1-1.2 1.2-2.6 2.2-4 3-0.4 0.4-0.7 0.8-1.1 1.3l-6.9 6.9c-36.4 37-81.4 62.4-131 74.1 2.3 4.7 4.7 9.3 7.4 13.8 7.4 0.7 14.8 1.1 22.3 1.1h0.9c64.3 0 125.1-25.7 170.5-71.1l6.9-6.9c1.2-1.2 2.6-2.2 4-3 0.4-0.4 0.7-0.9 1.1-1.3 40.3-40.3 93.4-62.6 149.1-64.3-10.3-19.7-24.9-38.6-40.3-54.9z" fill="#98BE4D" p-id="2777"></path><path d="M149.5 680.7c0-73.7 29.1-143.1 80.6-195.4 13.7-13.7 28.3-27.4 41.1-39.4 1-1 2.1-1.9 3.3-2.5 35.4-37 60.7-94.8 59.6-135.2-10.2-8.9-21.3-16.8-32.9-23.2-6 52.3-38.6 110.6-72.8 144.8-1.3 1.3-2.7 2.3-4.3 3.1-12.3 11.5-24.6 23.1-36.9 35.4-45.4 45.4-71.1 106.3-71.1 170.5 0 57.8 20.1 112.8 57.8 156.4-16-35.5-24.4-74.3-24.4-114.5z" fill="#D0E5A7" p-id="2778"></path><path d="M748.7 756.5c-13.7-33.4-34.3-65.1-60-90.8-71.7-72.3-177.1-95.2-269.9-66 22.9-37.3 35.1-80.1 35.1-125.1 0-64.3-24.9-124.3-70.3-169.7-22.3-22.3-47.1-38.6-77.1-51.4-6-2.6-12-1.7-17.1 1.7-5.1 3.4-7.7 9.4-6.9 15.4 4.1 40.5-22 102.5-59.2 141.4-1.2 0.7-2.3 1.5-3.3 2.5-12.9 12-27.4 25.7-41.1 39.4-51.4 52.3-80.6 121.7-80.6 195.4s28.3 143.1 80.6 195.4c42.7 42.7 96.3 69.4 154.7 77.7 2 0.7 4.1 1.1 6.4 1.1 0.6 0 1.1 0 1.7-0.1 10.5 1.2 21 1.8 31.7 1.8 74.6 0 143.1-29.1 194.5-81.4l6.9-6.9c0.4-0.4 0.8-0.8 1.1-1.3 1.4-0.8 2.8-1.8 4-3 39.4-39.4 95.1-59.1 150.8-53.1 6 0.9 12-2.6 15.4-6.9 3.4-4.1 5.2-11 2.6-16.1zM130.8 649.3c0-64.3 25.7-125.1 71.1-170.5 12.3-12.3 24.6-23.9 36.9-35.4 1.5-0.8 3-1.9 4.3-3.1 34.3-34.3 66.8-92.6 72.8-144.8 15.4 8.6 30 19.7 42.8 32.6 38.6 38.6 60 90 60 144.8 0 53.6-20.4 103.8-57.3 142.1-1.2 0.7-2.4 1.6-3.5 2.7-69.6 70.3-88.5 176.2-50.6 264.3-39.5-11.2-75.7-32.4-105.4-62.1-46.3-45.4-71.1-106.3-71.1-170.6z m425.1 159.4c-0.4 0.4-0.8 0.8-1.1 1.3-1.4 0.8-2.8 1.8-4 3l-6.9 6.9C498.4 865.3 437.6 891 373.3 891h-0.9c-7.5 0-14.9-0.4-22.3-1.1-40.5-68.9-36.2-156.8 9.4-221.7h0.1c92.6-69.4 223.7-60 305.1 21.4 15.4 16.3 30 35.1 40.3 54.8-55.7 1.8-108.9 24.1-149.1 64.3z" fill="#333333" p-id="2779"></path><path d="M676.7 617.6c-4.3 0-8.6-1.7-11.1-5.1-6-6-6-16.3 0-23.1 6-6 16.3-6 23.1 0 6 6 6 16.3 0 23.1-4.3 3.4-7.7 5.1-12 5.1z" fill="#EDC742" p-id="2780"></path><path d="M676.7 600.5c-0.9 0-0.9 0 0 0-0.9 0.9-0.9 0.9-0.9 1.7h0.9s0.9-0.8 0-1.7z" fill="" p-id="2781"></path><path d="M704.6 530.1c-4.3 0-8.6-1.7-11.1-5.1-6-6-6-16.3 0-23.1 6-6 16.3-6 23.1 0 6 6 6 16.3 0 23.1-3.5 3.4-7.8 5.1-12 5.1z" fill="#EDC742" p-id="2782"></path><path d="M721.3 498.5v0.9h0.8zM700.5 523.7l0.9 0.9v-0.9z" fill="" p-id="2783"></path><path d="M633.5 481.7c-4.3 0-8.6-1.7-11.1-5.1-6-6-6-16.3 0-23.1 6-6 16.3-6 23.1 0 6 6 6 16.3 0 23.1-3.4 3.3-7.7 5.1-12 5.1zM660.6 394.9c-4.3 0-8.6-1.7-11.1-5.1-6-6-6-16.3 0-23.1 6-6 16.3-6 23.1 0 6 6 6 16.3 0 23.1-4.3 3.4-7.7 5.1-12 5.1zM649.9 294.1c-4.3 0-8.6-1.7-11.1-5.1-6-6-6-16.3 0-23.1 6-6 16.3-6 23.1 0 6 6 6 16.3 0 23.1-3.4 3.4-7.7 5.1-12 5.1zM596.1 351.3c-4.3 0-8.6-1.7-11.1-5.1-6-6-6-16.3 0-23.1 6-6 16.3-6 23.1 0 6 6 6 16.3 0 23.1-3.4 3.4-7.7 5.1-12 5.1zM777.2 363.6c-4.3 0-8.6-1.7-11.1-5.1-6-6-6-16.3 0-23.1 6-6 16.3-6 23.1 0 6 6 6 16.3 0 23.1-4.3 3.4-7.7 5.1-12 5.1zM741.7 453c-4.3 0.1-8.6-1.5-11.3-4.8-6.2-5.8-6.5-16.1-0.7-23.1 5.8-6.2 16.1-6.5 23.1-0.7 6.2 5.8 6.5 16.1 0.7 23.1-4.1 3.6-7.5 5.4-11.8 5.5z" fill="#EDC742" p-id="2784"></path><path d="M782.9 331.8l0.8 0.8v-0.8z" fill="" p-id="2785"></path><path d="M756.4 260.4c-4.3 0.1-8.6-1.5-11.3-4.8-6.2-5.8-6.5-16.1-0.7-23.1 5.8-6.2 16.1-6.5 23.1-0.7 6.2 5.8 6.5 16.1 0.7 23.1-4.1 3.6-7.5 5.4-11.8 5.5zM802.9 203c-4.3 0.1-8.6-1.5-11.3-4.8-6.2-5.8-6.5-16.1-0.7-23.1 5.8-6.2 16.1-6.5 23.1-0.7 6.2 5.8 6.5 16.1 0.7 23.1-4.2 3.6-7.6 5.4-11.8 5.5zM822.7 271c-4.3 0-8.6-1.7-11.1-5.1-6-6-6-16.3 0-23.1 6-6 16.3-6 23.1 0 6 6 6 16.3 0 23.1-3.4 3.3-7.7 5.1-12 5.1zM571.4 448.9c-4.3 0-8.6-1.7-11.1-5.1-6-6-6-16.3 0-23.1 6-6 16.3-6 23.1 0 6 6 6 16.3 0 23.1-3.4 3.4-7.7 5.1-12 5.1zM527.4 540.1c-4.3 0-8.6-1.7-11.1-5.1-6-6-6-16.3 0-23.1 6-6 16.3-6 23.1 0 6 6 6 16.3 0 23.1-4.3 3.4-7.7 5.1-12 5.1zM511.1 382.2c-4.3 0-8.6-1.7-11.1-5.1-6-6-6-16.3 0-23.1 6-6 16.3-6 23.1 0 6 6 6 16.3 0 23.1-3.4 3.4-7.7 5.1-12 5.1zM493.1 460.4c-4.3 0-8.6-1.7-11.1-5.1-6-6-6-16.3 0-23.1 6-6 16.3-6 23.1 0 6 6 6 16.3 0 23.1-3.4 3.4-7.7 5.1-12 5.1z" fill="#EDC742" p-id="2786"></path><path d="M641.6 520.8v0.8h0.8z" fill="" p-id="2787"></path><path d="M641.6 520.8l0.8 0.8v-0.8z" fill="" p-id="2788"></path></svg>